<?xml version="1.0" encoding="UTF-8" standalone="no"?>
<!DOCTYPE svg PUBLIC "-//W3C//DTD SVG 1.1//EN"
 "http://www.w3.org/Graphics/SVG/1.1/DTD/svg11.dtd">
<!-- Generated by graphviz version 2.43.0 (0)
 -->
<!-- Title: DemoFlow Pages: 1 -->
<svg width="1791pt" height="1106pt"
 viewBox="0.00 0.00 1791.00 1106.27" xmlns="http://www.w3.org/2000/svg" xmlns:xlink="http://www.w3.org/1999/xlink">
<g id="graph0" class="graph" transform="scale(1 1) rotate(0) translate(4 1102.27)">
<title>DemoFlow</title>
<polygon fill="white" stroke="transparent" points="-4,4 -4,-1102.27 1787,-1102.27 1787,4 -4,4"/>
<g id="clust1" class="cluster">
<title>cluster_legend</title>
<polygon fill="none" stroke="#e5e5e5" stroke-dasharray="5,2" points="8,-1020.55 8,-1080 589,-1080 589,-1020.55 8,-1020.55"/>
<text text-anchor="middle" x="33.5" y="-1068.8" font-family="Times,serif" font-size="9.00">Legend</text>
</g>
<g id="clust2" class="cluster">
<title>cluster_raw</title>
<polygon fill="none" stroke="#999999" stroke-dasharray="5,2" points="974,-8 974,-83 1434,-83 1434,-8 974,-8"/>
<text text-anchor="middle" x="1045.5" y="-67.8" font-family="Times,serif" font-size="14.00">Raw (prov:Entity)</text>
</g>
<g id="clust3" class="cluster">
<title>cluster_import</title>
<polygon fill="none" stroke="#999999" stroke-dasharray="5,2" points="1067,-116 1067,-200.25 1324,-200.25 1324,-116 1067,-116"/>
<text text-anchor="middle" x="1195.5" y="-185.05" font-family="Times,serif" font-size="14.00">Import (odim:DataTransferEvent)</text>
</g>
<g id="clust4" class="cluster">
<title>cluster_obs</title>
</g>
<g id="clust5" class="cluster">
<title>cluster_daily</title>
<polygon fill="none" stroke="#999999" stroke-dasharray="5,2" points="529,-324.25 529,-499.51 1331,-499.51 1331,-324.25 529,-324.25"/>
<text text-anchor="middle" x="671" y="-484.31" font-family="Times,serif" font-size="14.00">Daily features (odim:DerivedFeature)</text>
</g>
<g id="clust6" class="cluster">
<title>cluster_weekly</title>
<polygon fill="none" stroke="#999999" stroke-dasharray="5,2" points="597,-532.51 597,-1090.27 1581,-1090.27 1581,-532.51 597,-532.51"/>
<text text-anchor="middle" x="764.5" y="-1075.07" font-family="Times,serif" font-size="14.00">Weekly aggregates → decisions → phenotype</text>
</g>
<!-- Lraw -->
<g id="node1" class="node">
<title>Lraw</title>
<path fill="#eeeeee" stroke="#666666" d="M574.5,-1050.27C574.5,-1050.27 543.5,-1050.27 543.5,-1050.27 540.5,-1050.27 537.5,-1047.27 537.5,-1044.27 537.5,-1044.27 537.5,-1038.27 537.5,-1038.27 537.5,-1035.27 540.5,-1032.27 543.5,-1032.27 543.5,-1032.27 574.5,-1032.27 574.5,-1032.27 577.5,-1032.27 580.5,-1035.27 580.5,-1038.27 580.5,-1038.27 580.5,-1044.27 580.5,-1044.27 580.5,-1047.27 577.5,-1050.27 574.5,-1050.27"/>
<text text-anchor="middle" x="559" y="-1039.07" font-family="Helvetica,sans-Serif" font-size="9.00" fill="#222222">Raw</text>
</g>
<!-- Lobs -->
<g id="node2" class="node">
<title>Lobs</title>
<path fill="#ddeeff" stroke="#666666" d="M502.5,-1050.27C502.5,-1050.27 471.5,-1050.27 471.5,-1050.27 468.5,-1050.27 465.5,-1047.27 465.5,-1044.27 465.5,-1044.27 465.5,-1038.27 465.5,-1038.27 465.5,-1035.27 468.5,-1032.27 471.5,-1032.27 471.5,-1032.27 502.5,-1032.27 502.5,-1032.27 505.5,-1032.27 508.5,-1035.27 508.5,-1038.27 508.5,-1038.27 508.5,-1044.27 508.5,-1044.27 508.5,-1047.27 505.5,-1050.27 502.5,-1050.27"/>
<text text-anchor="middle" x="487" y="-1039.07" font-family="Helvetica,sans-Serif" font-size="9.00" fill="#222222">Obs</text>
</g>
<!-- Lfeat -->
<g id="node3" class="node">
<title>Lfeat</title>
<path fill="#e2f0d9" stroke="#666666" d="M430,-1050.27C430,-1050.27 384,-1050.27 384,-1050.27 381,-1050.27 378,-1047.27 378,-1044.27 378,-1044.27 378,-1038.27 378,-1038.27 378,-1035.27 381,-1032.27 384,-1032.27 384,-1032.27 430,-1032.27 430,-1032.27 433,-1032.27 436,-1035.27 436,-1038.27 436,-1038.27 436,-1044.27 436,-1044.27 436,-1047.27 433,-1050.27 430,-1050.27"/>
<text text-anchor="middle" x="407" y="-1039.07" font-family="Helvetica,sans-Serif" font-size="9.00" fill="#222222">Feature</text>
</g>
<!-- Lact -->
<g id="node4" class="node">
<title>Lact</title>
<ellipse fill="#fff2cc" stroke="#666666" cx="314" cy="-1041.27" rx="35.21" ry="12.96"/>
<text text-anchor="middle" x="314" y="-1039.07" font-family="Helvetica,sans-Serif" font-size="9.00" fill="#222222">Activity</text>
</g>
<!-- Lparam -->
<g id="node5" class="node">
<title>Lparam</title>
<path fill="#ffe5d9" stroke="#666666" d="M243.5,-1050.27C243.5,-1050.27 210.5,-1050.27 210.5,-1050.27 207.5,-1050.27 204.5,-1047.27 204.5,-1044.27 204.5,-1044.27 204.5,-1038.27 204.5,-1038.27 204.5,-1035.27 207.5,-1032.27 210.5,-1032.27 210.5,-1032.27 243.5,-1032.27 243.5,-1032.27 246.5,-1032.27 249.5,-1035.27 249.5,-1038.27 249.5,-1038.27 249.5,-1044.27 249.5,-1044.27 249.5,-1047.27 246.5,-1050.27 243.5,-1050.27"/>
<text text-anchor="middle" x="227" y="-1039.07" font-family="Helvetica,sans-Serif" font-size="9.00" fill="#222222">Param</text>
</g>
<!-- Lwin -->
<g id="node6" class="node">
<title>Lwin</title>
<path fill="#fde2e4" stroke="#666666" d="M169,-1050.27C169,-1050.27 123,-1050.27 123,-1050.27 120,-1050.27 117,-1047.27 117,-1044.27 117,-1044.27 117,-1038.27 117,-1038.27 117,-1035.27 120,-1032.27 123,-1032.27 123,-1032.27 169,-1032.27 169,-1032.27 172,-1032.27 175,-1035.27 175,-1038.27 175,-1038.27 175,-1044.27 175,-1044.27 175,-1047.27 172,-1050.27 169,-1050.27"/>
<text text-anchor="middle" x="146" y="-1039.07" font-family="Helvetica,sans-Serif" font-size="9.00" fill="#222222">Window</text>
</g>
<!-- Lpheno -->
<g id="node7" class="node">
<title>Lpheno</title>
<path fill="#ede7f6" stroke="#666666" d="M82,-1050.27C82,-1050.27 22,-1050.27 22,-1050.27 19,-1050.27 16,-1047.27 16,-1044.27 16,-1044.27 16,-1038.27 16,-1038.27 16,-1035.27 19,-1032.27 22,-1032.27 22,-1032.27 82,-1032.27 82,-1032.27 85,-1032.27 88,-1035.27 88,-1038.27 88,-1038.27 88,-1044.27 88,-1044.27 88,-1047.27 85,-1050.27 82,-1050.27"/>
<text text-anchor="middle" x="52" y="-1039.07" font-family="Helvetica,sans-Serif" font-size="9.00" fill="#222222">Phenotype</text>
</g>
<!-- RawSteps -->
<g id="node8" class="node">
<title>RawSteps</title>
<path fill="#eeeeee" stroke="#666666" d="M1093.5,-52C1093.5,-52 994.5,-52 994.5,-52 988.5,-52 982.5,-46 982.5,-40 982.5,-40 982.5,-28 982.5,-28 982.5,-22 988.5,-16 994.5,-16 994.5,-16 1093.5,-16 1093.5,-16 1099.5,-16 1105.5,-22 1105.5,-28 1105.5,-28 1105.5,-40 1105.5,-40 1105.5,-46 1099.5,-52 1093.5,-52"/>
<text text-anchor="middle" x="1044" y="-37.2" font-family="Helvetica,sans-Serif" font-size="11.00" fill="#222222">odim:RawStepsCSV</text>
<text text-anchor="middle" x="1044" y="-25.2" font-family="Helvetica,sans-Serif" font-size="11.00" fill="#222222">(prov:Entity)</text>
</g>
<!-- RawSleep -->
<g id="node9" class="node">
<title>RawSleep</title>
<path fill="#eeeeee" stroke="#666666" d="M1245,-52C1245,-52 1147,-52 1147,-52 1141,-52 1135,-46 1135,-40 1135,-40 1135,-28 1135,-28 1135,-22 1141,-16 1147,-16 1147,-16 1245,-16 1245,-16 1251,-16 1257,-22 1257,-28 1257,-28 1257,-40 1257,-40 1257,-46 1251,-52 1245,-52"/>
<text text-anchor="middle" x="1196" y="-37.2" font-family="Helvetica,sans-Serif" font-size="11.00" fill="#222222">odim:RawSleepCSV</text>
<text text-anchor="middle" x="1196" y="-25.2" font-family="Helvetica,sans-Serif" font-size="11.00" fill="#222222">(prov:Entity)</text>
</g>
<!-- RawLoc -->
<g id="node10" class="node">
<title>RawLoc</title>
<path fill="#eeeeee" stroke="#666666" d="M1413.5,-52C1413.5,-52 1298.5,-52 1298.5,-52 1292.5,-52 1286.5,-46 1286.5,-40 1286.5,-40 1286.5,-28 1286.5,-28 1286.5,-22 1292.5,-16 1298.5,-16 1298.5,-16 1413.5,-16 1413.5,-16 1419.5,-16 1425.5,-22 1425.5,-28 1425.5,-28 1425.5,-40 1425.5,-40 1425.5,-46 1419.5,-52 1413.5,-52"/>
<text text-anchor="middle" x="1356" y="-37.2" font-family="Helvetica,sans-Serif" font-size="11.00" fill="#222222">odim:RawLocationCSV</text>
<text text-anchor="middle" x="1356" y="-25.2" font-family="Helvetica,sans-Serif" font-size="11.00" fill="#222222">(prov:Entity)</text>
</g>
<!-- Import -->
<g id="node11" class="node">
<title>Import</title>
<ellipse fill="#fff2cc" stroke="#666666" cx="1196" cy="-146.63" rx="111.95" ry="22.76"/>
<text text-anchor="middle" x="1196" y="-149.83" font-family="Helvetica,sans-Serif" font-size="11.00" fill="#222222">odim:A_Import</text>
<text text-anchor="middle" x="1196" y="-137.83" font-family="Helvetica,sans-Serif" font-size="11.00" fill="#222222">(odim:DataTransferEvent)</text>
</g>
<!-- Import&#45;&gt;RawSteps -->
<g id="edge1" class="edge">
<title>Import&#45;&gt;RawSteps</title>
<path fill="none" stroke="black" d="M1167.05,-124.56C1140.94,-105.55 1102.6,-77.65 1075.68,-58.05"/>
<polygon fill="black" stroke="black" points="1077.51,-55.06 1067.36,-52.01 1073.39,-60.72 1077.51,-55.06"/>
<text text-anchor="middle" x="1159" y="-94" font-family="Times,serif" font-size="10.00">prov:used</text>
</g>
<!-- Import&#45;&gt;RawSleep -->
<g id="edge2" class="edge">
<title>Import&#45;&gt;RawSleep</title>
<path fill="none" stroke="black" d="M1196,-123.77C1196,-106.11 1196,-81.15 1196,-62.2"/>
<polygon fill="black" stroke="black" points="1199.5,-62.1 1196,-52.1 1192.5,-62.1 1199.5,-62.1"/>
<text text-anchor="middle" x="1222" y="-94" font-family="Times,serif" font-size="10.00">prov:used</text>
</g>
<!-- Import&#45;&gt;RawLoc -->
<g id="edge3" class="edge">
<title>Import&#45;&gt;RawLoc</title>
<path fill="none" stroke="black" d="M1226.09,-124.82C1253.66,-105.76 1294.38,-77.6 1322.87,-57.91"/>
<polygon fill="black" stroke="black" points="1325.05,-60.65 1331.29,-52.09 1321.07,-54.9 1325.05,-60.65"/>
<text text-anchor="middle" x="1297" y="-94" font-family="Times,serif" font-size="10.00">prov:used</text>
</g>
<!-- ObsSteps -->
<g id="node12" class="node">
<title>ObsSteps</title>
<path fill="#ddeeff" stroke="#666666" d="M1058,-277.25C1058,-277.25 908,-277.25 908,-277.25 902,-277.25 896,-271.25 896,-265.25 896,-265.25 896,-253.25 896,-253.25 896,-247.25 902,-241.25 908,-241.25 908,-241.25 1058,-241.25 1058,-241.25 1064,-241.25 1070,-247.25 1070,-253.25 1070,-253.25 1070,-265.25 1070,-265.25 1070,-271.25 1064,-277.25 1058,-277.25"/>
<text text-anchor="middle" x="983" y="-262.45" font-family="Helvetica,sans-Serif" font-size="11.00" fill="#222222">Steps Day1</text>
<text text-anchor="middle" x="983" y="-250.45" font-family="Helvetica,sans-Serif" font-size="11.00" fill="#222222">(odim:ActivityMeasurement)</text>
</g>
<!-- ObsSteps&#45;&gt;Import -->
<g id="edge4" class="edge">
<title>ObsSteps&#45;&gt;Import</title>
<path fill="none" stroke="black" d="M1012.8,-241.22C1030.23,-231.37 1052.73,-218.87 1073,-208.25 1096.34,-196.03 1122.49,-183.04 1144.66,-172.23"/>
<polygon fill="black" stroke="black" points="1146.43,-175.26 1153.9,-167.75 1143.37,-168.97 1146.43,-175.26"/>
<text text-anchor="middle" x="1131" y="-211.25" font-family="Times,serif" font-size="10.00">odim:wasGeneratedBy</text>
</g>
<!-- ObsSleep -->
<g id="node13" class="node">
<title>ObsSleep</title>
<path fill="#ddeeff" stroke="#666666" d="M1281,-277.25C1281,-277.25 1111,-277.25 1111,-277.25 1105,-277.25 1099,-271.25 1099,-265.25 1099,-265.25 1099,-253.25 1099,-253.25 1099,-247.25 1105,-241.25 1111,-241.25 1111,-241.25 1281,-241.25 1281,-241.25 1287,-241.25 1293,-247.25 1293,-253.25 1293,-253.25 1293,-265.25 1293,-265.25 1293,-271.25 1287,-277.25 1281,-277.25"/>
<text text-anchor="middle" x="1196" y="-262.45" font-family="Helvetica,sans-Serif" font-size="11.00" fill="#222222">Sleep Day1</text>
<text text-anchor="middle" x="1196" y="-250.45" font-family="Helvetica,sans-Serif" font-size="11.00" fill="#222222">(odim:SleepStageMeasurement)</text>
</g>
<!-- ObsSleep&#45;&gt;Import -->
<g id="edge5" class="edge">
<title>ObsSleep&#45;&gt;Import</title>
<path fill="none" stroke="black" d="M1196,-240.97C1196,-224.59 1196,-199.58 1196,-179.58"/>
<polygon fill="black" stroke="black" points="1199.5,-179.35 1196,-169.35 1192.5,-179.35 1199.5,-179.35"/>
<text text-anchor="middle" x="1254" y="-211.25" font-family="Times,serif" font-size="10.00">odim:wasGeneratedBy</text>
</g>
<!-- ObsLoc -->
<g id="node14" class="node">
<title>ObsLoc</title>
<path fill="#ddeeff" stroke="#666666" d="M1645.5,-277.25C1645.5,-277.25 1480.5,-277.25 1480.5,-277.25 1474.5,-277.25 1468.5,-271.25 1468.5,-265.25 1468.5,-265.25 1468.5,-253.25 1468.5,-253.25 1468.5,-247.25 1474.5,-241.25 1480.5,-241.25 1480.5,-241.25 1645.5,-241.25 1645.5,-241.25 1651.5,-241.25 1657.5,-247.25 1657.5,-253.25 1657.5,-253.25 1657.5,-265.25 1657.5,-265.25 1657.5,-271.25 1651.5,-277.25 1645.5,-277.25"/>
<text text-anchor="middle" x="1563" y="-262.45" font-family="Helvetica,sans-Serif" font-size="11.00" fill="#222222">Location Day1</text>
<text text-anchor="middle" x="1563" y="-250.45" font-family="Helvetica,sans-Serif" font-size="11.00" fill="#222222">(odim:DeviceLocationEstimate)</text>
</g>
<!-- ObsLoc&#45;&gt;Import -->
<g id="edge6" class="edge">
<title>ObsLoc&#45;&gt;Import</title>
<path fill="none" stroke="black" d="M1506.46,-241.21C1441.74,-221.7 1335.71,-189.74 1265.87,-168.69"/>
<polygon fill="black" stroke="black" points="1266.85,-165.33 1256.27,-165.79 1264.83,-172.03 1266.85,-165.33"/>
<text text-anchor="middle" x="1481" y="-211.25" font-family="Times,serif" font-size="10.00">odim:wasGeneratedBy</text>
</g>
<!-- LocDots -->
<g id="node15" class="node">
<title>LocDots</title>
<path fill="white" stroke="transparent" d="M1754.5,-676.76C1754.5,-676.76 1673.5,-676.76 1673.5,-676.76 1667.5,-676.76 1661.5,-670.76 1661.5,-664.76 1661.5,-664.76 1661.5,-652.76 1661.5,-652.76 1661.5,-646.76 1667.5,-640.76 1673.5,-640.76 1673.5,-640.76 1754.5,-640.76 1754.5,-640.76 1760.5,-640.76 1766.5,-646.76 1766.5,-652.76 1766.5,-652.76 1766.5,-664.76 1766.5,-664.76 1766.5,-670.76 1760.5,-676.76 1754.5,-676.76"/>
<text text-anchor="middle" x="1714" y="-655.96" font-family="Helvetica,sans-Serif" font-size="11.00" fill="#666666">… (Day2..Day7)</text>
</g>
<!-- DailyComp -->
<g id="node16" class="node">
<title>DailyComp</title>
<ellipse fill="#fff2cc" stroke="#666666" cx="983" cy="-354.88" rx="133.79" ry="22.76"/>
<text text-anchor="middle" x="983" y="-358.08" font-family="Helvetica,sans-Serif" font-size="11.00" fill="#222222">A_DailySummary</text>
<text text-anchor="middle" x="983" y="-346.08" font-family="Helvetica,sans-Serif" font-size="11.00" fill="#222222">(odim:AlgorithmicComputation)</text>
</g>
<!-- DailyComp&#45;&gt;ObsSteps -->
<g id="edge7" class="edge">
<title>DailyComp&#45;&gt;ObsSteps</title>
<path fill="none" stroke="black" d="M983,-332.17C983,-318.91 983,-301.84 983,-287.65"/>
<polygon fill="black" stroke="black" points="986.5,-287.48 983,-277.48 979.5,-287.48 986.5,-287.48"/>
<text text-anchor="middle" x="1009" y="-302.25" font-family="Times,serif" font-size="10.00">prov:used</text>
</g>
<!-- DailyComp&#45;&gt;ObsSleep -->
<g id="edge8" class="edge">
<title>DailyComp&#45;&gt;ObsSleep</title>
<path fill="none" stroke="black" d="M1029.22,-333.57C1064.26,-318.16 1112.29,-297.05 1147.81,-281.44"/>
<polygon fill="black" stroke="black" points="1149.26,-284.62 1157.01,-277.39 1146.45,-278.21 1149.26,-284.62"/>
<text text-anchor="middle" x="1128" y="-302.25" font-family="Times,serif" font-size="10.00">prov:used</text>
</g>
<!-- F1 -->
<g id="node17" class="node">
<title>F1</title>
<path fill="#e2f0d9" stroke="#666666" d="M666.5,-468.51C666.5,-468.51 549.5,-468.51 549.5,-468.51 543.5,-468.51 537.5,-462.51 537.5,-456.51 537.5,-456.51 537.5,-444.51 537.5,-444.51 537.5,-438.51 543.5,-432.51 549.5,-432.51 549.5,-432.51 666.5,-432.51 666.5,-432.51 672.5,-432.51 678.5,-438.51 678.5,-444.51 678.5,-444.51 678.5,-456.51 678.5,-456.51 678.5,-462.51 672.5,-468.51 666.5,-468.51"/>
<text text-anchor="middle" x="608" y="-453.71" font-family="Helvetica,sans-Serif" font-size="11.00" fill="#222222">Daily Steps Day1</text>
<text text-anchor="middle" x="608" y="-441.71" font-family="Helvetica,sans-Serif" font-size="11.00" fill="#222222">(odim:DerivedFeature)</text>
</g>
<!-- F1&#45;&gt;DailyComp -->
<g id="edge13" class="edge">
<title>F1&#45;&gt;DailyComp</title>
<path fill="none" stroke="black" d="M632.25,-432.5C649.31,-421.36 673.09,-407.45 696,-399.51 745.34,-382.4 801.75,-372 851.43,-365.67"/>
<polygon fill="black" stroke="black" points="852.1,-369.11 861.6,-364.42 851.25,-362.17 852.1,-369.11"/>
<text text-anchor="middle" x="753.5" y="-402.51" font-family="Times,serif" font-size="10.00">odim:wasComputedBy</text>
</g>
<!-- F2 -->
<g id="node18" class="node">
<title>F2</title>
<path fill="#e2f0d9" stroke="#666666" d="M836.5,-468.51C836.5,-468.51 719.5,-468.51 719.5,-468.51 713.5,-468.51 707.5,-462.51 707.5,-456.51 707.5,-456.51 707.5,-444.51 707.5,-444.51 707.5,-438.51 713.5,-432.51 719.5,-432.51 719.5,-432.51 836.5,-432.51 836.5,-432.51 842.5,-432.51 848.5,-438.51 848.5,-444.51 848.5,-444.51 848.5,-456.51 848.5,-456.51 848.5,-462.51 842.5,-468.51 836.5,-468.51"/>
<text text-anchor="middle" x="778" y="-453.71" font-family="Helvetica,sans-Serif" font-size="11.00" fill="#222222">Daily Steps Day2</text>
<text text-anchor="middle" x="778" y="-441.71" font-family="Helvetica,sans-Serif" font-size="11.00" fill="#222222">(odim:DerivedFeature)</text>
</g>
<!-- F2&#45;&gt;DailyComp -->
<g id="edge14" class="edge">
<title>F2&#45;&gt;DailyComp</title>
<path fill="none" stroke="black" d="M792.5,-432.48C802.58,-421.63 816.87,-408.05 832,-399.51 849.76,-389.48 870.03,-381.58 889.83,-375.43"/>
<polygon fill="black" stroke="black" points="890.91,-378.76 899.49,-372.55 888.91,-372.06 890.91,-378.76"/>
<text text-anchor="middle" x="889.5" y="-402.51" font-family="Times,serif" font-size="10.00">odim:wasComputedBy</text>
</g>
<!-- FDots -->
<g id="node19" class="node">
<title>FDots</title>
<path fill="white" stroke="transparent" d="M970.5,-468.51C970.5,-468.51 889.5,-468.51 889.5,-468.51 883.5,-468.51 877.5,-462.51 877.5,-456.51 877.5,-456.51 877.5,-444.51 877.5,-444.51 877.5,-438.51 883.5,-432.51 889.5,-432.51 889.5,-432.51 970.5,-432.51 970.5,-432.51 976.5,-432.51 982.5,-438.51 982.5,-444.51 982.5,-444.51 982.5,-456.51 982.5,-456.51 982.5,-462.51 976.5,-468.51 970.5,-468.51"/>
<text text-anchor="middle" x="930" y="-447.71" font-family="Helvetica,sans-Serif" font-size="11.00" fill="#666666">… (Day3..Day7)</text>
</g>
<!-- FDots&#45;&gt;DailyComp -->
<g id="edge17" class="edge">
<title>FDots&#45;&gt;DailyComp</title>
<path fill="none" stroke="black" stroke-dasharray="1,5" d="M939.72,-432.34C948.45,-416.92 961.3,-394.22 970.73,-377.56"/>
</g>
<!-- SQ1 -->
<g id="node20" class="node">
<title>SQ1</title>
<path fill="#e2f0d9" stroke="#666666" d="M1140.5,-468.51C1140.5,-468.51 1023.5,-468.51 1023.5,-468.51 1017.5,-468.51 1011.5,-462.51 1011.5,-456.51 1011.5,-456.51 1011.5,-444.51 1011.5,-444.51 1011.5,-438.51 1017.5,-432.51 1023.5,-432.51 1023.5,-432.51 1140.5,-432.51 1140.5,-432.51 1146.5,-432.51 1152.5,-438.51 1152.5,-444.51 1152.5,-444.51 1152.5,-456.51 1152.5,-456.51 1152.5,-462.51 1146.5,-468.51 1140.5,-468.51"/>
<text text-anchor="middle" x="1082" y="-453.71" font-family="Helvetica,sans-Serif" font-size="11.00" fill="#222222">Sleep Minutes Day1</text>
<text text-anchor="middle" x="1082" y="-441.71" font-family="Helvetica,sans-Serif" font-size="11.00" fill="#222222">(odim:DerivedFeature)</text>
</g>
<!-- SQ1&#45;&gt;DailyComp -->
<g id="edge15" class="edge">
<title>SQ1&#45;&gt;DailyComp</title>
<path fill="none" stroke="black" d="M1063.84,-432.34C1049.61,-418.88 1029.51,-399.86 1012.91,-384.17"/>
<polygon fill="black" stroke="black" points="1015.23,-381.55 1005.56,-377.22 1010.42,-386.63 1015.23,-381.55"/>
<text text-anchor="middle" x="1096.5" y="-402.51" font-family="Times,serif" font-size="10.00">odim:wasComputedBy</text>
</g>
<!-- SQ2 -->
<g id="node21" class="node">
<title>SQ2</title>
<path fill="#e2f0d9" stroke="#666666" d="M1310.5,-468.51C1310.5,-468.51 1193.5,-468.51 1193.5,-468.51 1187.5,-468.51 1181.5,-462.51 1181.5,-456.51 1181.5,-456.51 1181.5,-444.51 1181.5,-444.51 1181.5,-438.51 1187.5,-432.51 1193.5,-432.51 1193.5,-432.51 1310.5,-432.51 1310.5,-432.51 1316.5,-432.51 1322.5,-438.51 1322.5,-444.51 1322.5,-444.51 1322.5,-456.51 1322.5,-456.51 1322.5,-462.51 1316.5,-468.51 1310.5,-468.51"/>
<text text-anchor="middle" x="1252" y="-453.71" font-family="Helvetica,sans-Serif" font-size="11.00" fill="#222222">Sleep Minutes Day2</text>
<text text-anchor="middle" x="1252" y="-441.71" font-family="Helvetica,sans-Serif" font-size="11.00" fill="#222222">(odim:DerivedFeature)</text>
</g>
<!-- SQ2&#45;&gt;DailyComp -->
<g id="edge16" class="edge">
<title>SQ2&#45;&gt;DailyComp</title>
<path fill="none" stroke="black" d="M1225.43,-432.48C1207.74,-421.76 1183.68,-408.34 1161,-399.51 1135.12,-389.43 1106.2,-381.15 1079.32,-374.62"/>
<polygon fill="black" stroke="black" points="1080.05,-371.2 1069.51,-372.29 1078.43,-378.01 1080.05,-371.2"/>
<text text-anchor="middle" x="1241.5" y="-402.51" font-family="Times,serif" font-size="10.00">odim:wasComputedBy</text>
</g>
<!-- WeeklySteps -->
<g id="node22" class="node">
<title>WeeklySteps</title>
<ellipse fill="#fff2cc" stroke="#666666" cx="748" cy="-563.14" rx="133.79" ry="22.76"/>
<text text-anchor="middle" x="748" y="-566.34" font-family="Helvetica,sans-Serif" font-size="11.00" fill="#222222">odim:A_WeeklyAggregateSteps</text>
<text text-anchor="middle" x="748" y="-554.34" font-family="Helvetica,sans-Serif" font-size="11.00" fill="#222222">(odim:AlgorithmicComputation)</text>
</g>
<!-- WeeklySteps&#45;&gt;F1 -->
<g id="edge18" class="edge">
<title>WeeklySteps&#45;&gt;F1</title>
<path fill="none" stroke="black" d="M721.01,-540.81C697.16,-521.97 662.45,-494.54 637.8,-475.06"/>
<polygon fill="black" stroke="black" points="639.87,-472.23 629.86,-468.78 635.53,-477.73 639.87,-472.23"/>
<text text-anchor="middle" x="717" y="-510.51" font-family="Times,serif" font-size="10.00">prov:used</text>
</g>
<!-- WeeklySteps&#45;&gt;F2 -->
<g id="edge19" class="edge">
<title>WeeklySteps&#45;&gt;F2</title>
<path fill="none" stroke="black" d="M753.93,-540.28C758.74,-522.54 765.55,-497.43 770.7,-478.44"/>
<polygon fill="black" stroke="black" points="774.12,-479.18 773.36,-468.61 767.37,-477.35 774.12,-479.18"/>
<text text-anchor="middle" x="789" y="-510.51" font-family="Times,serif" font-size="10.00">prov:used</text>
</g>
<!-- WeeklySteps&#45;&gt;FDots -->
<g id="edge20" class="edge">
<title>WeeklySteps&#45;&gt;FDots</title>
<path fill="none" stroke="black" stroke-dasharray="1,5" d="M788.88,-541.44C811.17,-529.77 839.02,-514.55 863,-499.51 878.27,-489.93 894.74,-478.15 907.53,-468.66"/>
</g>
<!-- MeanSteps -->
<g id="node23" class="node">
<title>MeanSteps</title>
<path fill="#e2f0d9" stroke="#666666" d="M751.5,-676.76C751.5,-676.76 616.5,-676.76 616.5,-676.76 610.5,-676.76 604.5,-670.76 604.5,-664.76 604.5,-664.76 604.5,-652.76 604.5,-652.76 604.5,-646.76 610.5,-640.76 616.5,-640.76 616.5,-640.76 751.5,-640.76 751.5,-640.76 757.5,-640.76 763.5,-646.76 763.5,-652.76 763.5,-652.76 763.5,-664.76 763.5,-664.76 763.5,-670.76 757.5,-676.76 751.5,-676.76"/>
<text text-anchor="middle" x="684" y="-661.96" font-family="Helvetica,sans-Serif" font-size="11.00" fill="#222222">odim:F_WeeklyMeanSteps</text>
<text text-anchor="middle" x="684" y="-649.96" font-family="Helvetica,sans-Serif" font-size="11.00" fill="#222222">(odim:DerivedFeature)</text>
</g>
<!-- MeanSteps&#45;&gt;WeeklySteps -->
<g id="edge21" class="edge">
<title>MeanSteps&#45;&gt;WeeklySteps</title>
<path fill="none" stroke="black" d="M695.74,-640.59C704.55,-627.71 716.84,-609.73 727.28,-594.44"/>
<polygon fill="black" stroke="black" points="730.43,-596.05 733.18,-585.82 724.65,-592.1 730.43,-596.05"/>
<text text-anchor="middle" x="775.5" y="-610.76" font-family="Times,serif" font-size="10.00">odim:wasComputedBy</text>
</g>
<!-- Thresh -->
<g id="node24" class="node">
<title>Thresh</title>
<path fill="#ffe5d9" stroke="#666666" d="M939.5,-676.76C939.5,-676.76 804.5,-676.76 804.5,-676.76 798.5,-676.76 792.5,-670.76 792.5,-664.76 792.5,-664.76 792.5,-652.76 792.5,-652.76 792.5,-646.76 798.5,-640.76 804.5,-640.76 804.5,-640.76 939.5,-640.76 939.5,-640.76 945.5,-640.76 951.5,-646.76 951.5,-652.76 951.5,-652.76 951.5,-664.76 951.5,-664.76 951.5,-670.76 945.5,-676.76 939.5,-676.76"/>
<text text-anchor="middle" x="872" y="-661.96" font-family="Helvetica,sans-Serif" font-size="11.00" fill="#222222">odim:Threshold_LowSteps</text>
<text text-anchor="middle" x="872" y="-649.96" font-family="Helvetica,sans-Serif" font-size="11.00" fill="#222222">(prov:Entity)</text>
</g>
<!-- StepsDecision -->
<g id="node25" class="node">
<title>StepsDecision</title>
<ellipse fill="#fff2cc" stroke="#666666" cx="845" cy="-754.39" rx="135.11" ry="22.76"/>
<text text-anchor="middle" x="845" y="-757.59" font-family="Helvetica,sans-Serif" font-size="11.00" fill="#222222">odim:A_StepsThresholdDecision</text>
<text text-anchor="middle" x="845" y="-745.59" font-family="Helvetica,sans-Serif" font-size="11.00" fill="#222222">(odim:AlgorithmicComputation)</text>
</g>
<!-- StepsDecision&#45;&gt;MeanSteps -->
<g id="edge22" class="edge">
<title>StepsDecision&#45;&gt;MeanSteps</title>
<path fill="none" stroke="black" d="M808.87,-732.38C783.08,-717.38 748.45,-697.24 722.2,-681.98"/>
<polygon fill="black" stroke="black" points="723.7,-678.8 713.29,-676.8 720.18,-684.85 723.7,-678.8"/>
<text text-anchor="middle" x="796" y="-701.76" font-family="Times,serif" font-size="10.00">prov:used</text>
</g>
<!-- StepsDecision&#45;&gt;Thresh -->
<g id="edge23" class="edge">
<title>StepsDecision&#45;&gt;Thresh</title>
<path fill="none" stroke="black" d="M851.26,-731.68C855.12,-718.29 860.11,-701.01 864.22,-686.75"/>
<polygon fill="black" stroke="black" points="867.62,-687.57 867.03,-676.99 860.9,-685.63 867.62,-687.57"/>
<text text-anchor="middle" x="887" y="-701.76" font-family="Times,serif" font-size="10.00">prov:used</text>
</g>
<!-- Marker -->
<g id="node26" class="node">
<title>Marker</title>
<path fill="#e2f0d9" stroke="#666666" d="M991,-868.02C991,-868.02 791,-868.02 791,-868.02 785,-868.02 779,-862.02 779,-856.02 779,-856.02 779,-844.02 779,-844.02 779,-838.02 785,-832.02 791,-832.02 791,-832.02 991,-832.02 991,-832.02 997,-832.02 1003,-838.02 1003,-844.02 1003,-844.02 1003,-856.02 1003,-856.02 1003,-862.02 997,-868.02 991,-868.02"/>
<text text-anchor="middle" x="891" y="-853.22" font-family="Helvetica,sans-Serif" font-size="11.00" fill="#222222">odim:Marker_LowActivityDuringTravel</text>
<text text-anchor="middle" x="891" y="-841.22" font-family="Helvetica,sans-Serif" font-size="11.00" fill="#222222">(odim:DerivedFeature)</text>
</g>
<!-- Marker&#45;&gt;StepsDecision -->
<g id="edge24" class="edge">
<title>Marker&#45;&gt;StepsDecision</title>
<path fill="none" stroke="black" d="M882.56,-831.85C876.29,-819.08 867.56,-801.32 860.1,-786.13"/>
<polygon fill="black" stroke="black" points="863.2,-784.5 855.65,-777.07 856.92,-787.59 863.2,-784.5"/>
<text text-anchor="middle" x="928.5" y="-802.02" font-family="Times,serif" font-size="10.00">odim:wasComputedBy</text>
</g>
<!-- WeeklySleep -->
<g id="node27" class="node">
<title>WeeklySleep</title>
<ellipse fill="#fff2cc" stroke="#666666" cx="1082" cy="-563.14" rx="162.77" ry="22.76"/>
<text text-anchor="middle" x="1082" y="-566.34" font-family="Helvetica,sans-Serif" font-size="11.00" fill="#222222">odim:A_WeeklyAggregateSleepMinutes</text>
<text text-anchor="middle" x="1082" y="-554.34" font-family="Helvetica,sans-Serif" font-size="11.00" fill="#222222">(odim:AlgorithmicComputation)</text>
</g>
<!-- WeeklySleep&#45;&gt;FDots -->
<g id="edge27" class="edge">
<title>WeeklySleep&#45;&gt;FDots</title>
<path fill="none" stroke="black" stroke-dasharray="1,5" d="M1052.69,-540.81C1023.88,-519.84 980.45,-488.22 953.73,-468.78"/>
</g>
<!-- WeeklySleep&#45;&gt;SQ1 -->
<g id="edge25" class="edge">
<title>WeeklySleep&#45;&gt;SQ1</title>
<path fill="none" stroke="black" d="M1082,-540.28C1082,-522.62 1082,-497.66 1082,-478.71"/>
<polygon fill="black" stroke="black" points="1085.5,-478.61 1082,-468.61 1078.5,-478.61 1085.5,-478.61"/>
<text text-anchor="middle" x="1108" y="-510.51" font-family="Times,serif" font-size="10.00">prov:used</text>
</g>
<!-- WeeklySleep&#45;&gt;SQ2 -->
<g id="edge26" class="edge">
<title>WeeklySleep&#45;&gt;SQ2</title>
<path fill="none" stroke="black" d="M1114.78,-540.81C1144.2,-521.66 1187.24,-493.65 1217.25,-474.12"/>
<polygon fill="black" stroke="black" points="1219.26,-476.99 1225.73,-468.61 1215.44,-471.13 1219.26,-476.99"/>
<text text-anchor="middle" x="1187" y="-510.51" font-family="Times,serif" font-size="10.00">prov:used</text>
</g>
<!-- MeanSleep -->
<g id="node28" class="node">
<title>MeanSleep</title>
<path fill="#e2f0d9" stroke="#666666" d="M1171,-676.76C1171,-676.76 993,-676.76 993,-676.76 987,-676.76 981,-670.76 981,-664.76 981,-664.76 981,-652.76 981,-652.76 981,-646.76 987,-640.76 993,-640.76 993,-640.76 1171,-640.76 1171,-640.76 1177,-640.76 1183,-646.76 1183,-652.76 1183,-652.76 1183,-664.76 1183,-664.76 1183,-670.76 1177,-676.76 1171,-676.76"/>
<text text-anchor="middle" x="1082" y="-661.96" font-family="Helvetica,sans-Serif" font-size="11.00" fill="#222222">odim:F_WeeklyMeanSleepMinutes</text>
<text text-anchor="middle" x="1082" y="-649.96" font-family="Helvetica,sans-Serif" font-size="11.00" fill="#222222">(odim:DerivedFeature)</text>
</g>
<!-- MeanSleep&#45;&gt;WeeklySleep -->
<g id="edge28" class="edge">
<title>MeanSleep&#45;&gt;WeeklySleep</title>
<path fill="none" stroke="black" d="M1082,-640.59C1082,-628.19 1082,-611.07 1082,-596.17"/>
<polygon fill="black" stroke="black" points="1085.5,-595.82 1082,-585.82 1078.5,-595.82 1085.5,-595.82"/>
<text text-anchor="middle" x="1139.5" y="-610.76" font-family="Times,serif" font-size="10.00">odim:wasComputedBy</text>
</g>
<!-- SleepBaseline -->
<g id="node29" class="node">
<title>SleepBaseline</title>
<path fill="#ffe5d9" stroke="#666666" d="M1373.5,-676.76C1373.5,-676.76 1224.5,-676.76 1224.5,-676.76 1218.5,-676.76 1212.5,-670.76 1212.5,-664.76 1212.5,-664.76 1212.5,-652.76 1212.5,-652.76 1212.5,-646.76 1218.5,-640.76 1224.5,-640.76 1224.5,-640.76 1373.5,-640.76 1373.5,-640.76 1379.5,-640.76 1385.5,-646.76 1385.5,-652.76 1385.5,-652.76 1385.5,-664.76 1385.5,-664.76 1385.5,-670.76 1379.5,-676.76 1373.5,-676.76"/>
<text text-anchor="middle" x="1299" y="-661.96" font-family="Helvetica,sans-Serif" font-size="11.00" fill="#222222">odim:Baseline_SleepMinutes</text>
<text text-anchor="middle" x="1299" y="-649.96" font-family="Helvetica,sans-Serif" font-size="11.00" fill="#222222">(prov:Entity)</text>
</g>
<!-- SleepDebtDecision -->
<g id="node30" class="node">
<title>SleepDebtDecision</title>
<ellipse fill="#fff2cc" stroke="#666666" cx="1143" cy="-754.39" rx="133.79" ry="22.76"/>
<text text-anchor="middle" x="1143" y="-757.59" font-family="Helvetica,sans-Serif" font-size="11.00" fill="#222222">odim:A_SleepDebtDecision</text>
<text text-anchor="middle" x="1143" y="-745.59" font-family="Helvetica,sans-Serif" font-size="11.00" fill="#222222">(odim:AlgorithmicComputation)</text>
</g>
<!-- SleepDebtDecision&#45;&gt;MeanSleep -->
<g id="edge29" class="edge">
<title>SleepDebtDecision&#45;&gt;MeanSleep</title>
<path fill="none" stroke="black" d="M1128.85,-731.68C1119.88,-717.9 1108.21,-700 1098.77,-685.51"/>
<polygon fill="black" stroke="black" points="1101.62,-683.46 1093.22,-676.99 1095.75,-687.28 1101.62,-683.46"/>
<text text-anchor="middle" x="1140" y="-701.76" font-family="Times,serif" font-size="10.00">prov:used</text>
</g>
<!-- SleepDebtDecision&#45;&gt;SleepBaseline -->
<g id="edge30" class="edge">
<title>SleepDebtDecision&#45;&gt;SleepBaseline</title>
<path fill="none" stroke="black" d="M1178.01,-732.38C1203,-717.38 1236.55,-697.24 1261.99,-681.98"/>
<polygon fill="black" stroke="black" points="1263.84,-684.95 1270.62,-676.8 1260.24,-678.94 1263.84,-684.95"/>
<text text-anchor="middle" x="1256" y="-701.76" font-family="Times,serif" font-size="10.00">prov:used</text>
</g>
<!-- SleepDebt -->
<g id="node31" class="node">
<title>SleepDebt</title>
<path fill="#e2f0d9" stroke="#666666" d="M1225.5,-868.02C1225.5,-868.02 1060.5,-868.02 1060.5,-868.02 1054.5,-868.02 1048.5,-862.02 1048.5,-856.02 1048.5,-856.02 1048.5,-844.02 1048.5,-844.02 1048.5,-838.02 1054.5,-832.02 1060.5,-832.02 1060.5,-832.02 1225.5,-832.02 1225.5,-832.02 1231.5,-832.02 1237.5,-838.02 1237.5,-844.02 1237.5,-844.02 1237.5,-856.02 1237.5,-856.02 1237.5,-862.02 1231.5,-868.02 1225.5,-868.02"/>
<text text-anchor="middle" x="1143" y="-853.22" font-family="Helvetica,sans-Serif" font-size="11.00" fill="#222222">odim:Marker_SleepDebt_Week1</text>
<text text-anchor="middle" x="1143" y="-841.22" font-family="Helvetica,sans-Serif" font-size="11.00" fill="#222222">(odim:DerivedFeature)</text>
</g>
<!-- SleepDebt&#45;&gt;SleepDebtDecision -->
<g id="edge31" class="edge">
<title>SleepDebt&#45;&gt;SleepDebtDecision</title>
<path fill="none" stroke="black" d="M1143,-831.85C1143,-819.44 1143,-802.32 1143,-787.42"/>
<polygon fill="black" stroke="black" points="1146.5,-787.07 1143,-777.07 1139.5,-787.07 1146.5,-787.07"/>
<text text-anchor="middle" x="1200.5" y="-802.02" font-family="Times,serif" font-size="10.00">odim:wasComputedBy</text>
</g>
<!-- Combine -->
<g id="node32" class="node">
<title>Combine</title>
<ellipse fill="#fff2cc" stroke="#666666" cx="1143" cy="-945.65" rx="133.79" ry="22.76"/>
<text text-anchor="middle" x="1143" y="-948.85" font-family="Helvetica,sans-Serif" font-size="11.00" fill="#222222">odim:A_MarkerDerivation</text>
<text text-anchor="middle" x="1143" y="-936.85" font-family="Helvetica,sans-Serif" font-size="11.00" fill="#222222">(odim:AlgorithmicComputation)</text>
</g>
<!-- Combine&#45;&gt;Marker -->
<g id="edge32" class="edge">
<title>Combine&#45;&gt;Marker</title>
<path fill="none" stroke="black" d="M1089.56,-924.79C1047.38,-909.12 988.75,-887.34 946.14,-871.51"/>
<polygon fill="black" stroke="black" points="947.36,-868.22 936.76,-868.02 944.92,-874.79 947.36,-868.22"/>
<text text-anchor="middle" x="1051" y="-893.02" font-family="Times,serif" font-size="10.00">prov:used</text>
</g>
<!-- Combine&#45;&gt;SleepDebt -->
<g id="edge33" class="edge">
<title>Combine&#45;&gt;SleepDebt</title>
<path fill="none" stroke="black" d="M1143,-922.93C1143,-909.67 1143,-892.6 1143,-878.42"/>
<polygon fill="black" stroke="black" points="1146.5,-878.25 1143,-868.25 1139.5,-878.25 1146.5,-878.25"/>
<text text-anchor="middle" x="1169" y="-893.02" font-family="Times,serif" font-size="10.00">prov:used</text>
</g>
<!-- TravelWin -->
<g id="node36" class="node">
<title>TravelWin</title>
<path fill="#fde2e4" stroke="#666666" d="M1464.5,-868.02C1464.5,-868.02 1323.5,-868.02 1323.5,-868.02 1317.5,-868.02 1311.5,-862.02 1311.5,-856.02 1311.5,-856.02 1311.5,-844.02 1311.5,-844.02 1311.5,-838.02 1317.5,-832.02 1323.5,-832.02 1323.5,-832.02 1464.5,-832.02 1464.5,-832.02 1470.5,-832.02 1476.5,-838.02 1476.5,-844.02 1476.5,-844.02 1476.5,-856.02 1476.5,-856.02 1476.5,-862.02 1470.5,-868.02 1464.5,-868.02"/>
<text text-anchor="middle" x="1394" y="-853.22" font-family="Helvetica,sans-Serif" font-size="11.00" fill="#222222">odim:TravelWindow_Week1</text>
<text text-anchor="middle" x="1394" y="-841.22" font-family="Helvetica,sans-Serif" font-size="11.00" fill="#222222">(odim:EventWindow)</text>
</g>
<!-- Combine&#45;&gt;TravelWin -->
<g id="edge34" class="edge">
<title>Combine&#45;&gt;TravelWin</title>
<path fill="none" stroke="black" d="M1196.23,-924.79C1238.15,-909.15 1296.39,-887.43 1338.81,-871.61"/>
<polygon fill="black" stroke="black" points="1340.27,-874.8 1348.42,-868.02 1337.83,-868.24 1340.27,-874.8"/>
<text text-anchor="middle" x="1309" y="-893.02" font-family="Times,serif" font-size="10.00">prov:used</text>
</g>
<!-- Phenotype -->
<g id="node33" class="node">
<title>Phenotype</title>
<path fill="#ede7f6" stroke="#666666" d="M1415,-1059.27C1415,-1059.27 1103,-1059.27 1103,-1059.27 1097,-1059.27 1091,-1053.27 1091,-1047.27 1091,-1047.27 1091,-1035.27 1091,-1035.27 1091,-1029.27 1097,-1023.27 1103,-1023.27 1103,-1023.27 1415,-1023.27 1415,-1023.27 1421,-1023.27 1427,-1029.27 1427,-1035.27 1427,-1035.27 1427,-1047.27 1427,-1047.27 1427,-1053.27 1421,-1059.27 1415,-1059.27"/>
<text text-anchor="middle" x="1259" y="-1044.47" font-family="Helvetica,sans-Serif" font-size="11.00" fill="#222222">odim:Phenotype_TravelAssociatedInactivityWithSleepDebt</text>
<text text-anchor="middle" x="1259" y="-1032.47" font-family="Helvetica,sans-Serif" font-size="11.00" fill="#222222">(odim:ActivityPhenotype)</text>
</g>
<!-- Phenotype&#45;&gt;Combine -->
<g id="edge35" class="edge">
<title>Phenotype&#45;&gt;Combine</title>
<path fill="none" stroke="black" d="M1232.84,-1023.1C1223.26,-1016.53 1212.45,-1008.81 1203,-1001.27 1192.85,-993.17 1182.23,-983.82 1172.79,-975.17"/>
<polygon fill="black" stroke="black" points="1174.89,-972.35 1165.18,-968.12 1170.13,-977.48 1174.89,-972.35"/>
<text text-anchor="middle" x="1260.5" y="-993.27" font-family="Times,serif" font-size="10.00">odim:wasComputedBy</text>
</g>
<!-- Week -->
<g id="node34" class="node">
<title>Week</title>
<path fill="#f3f4f6" stroke="#666666" d="M1432,-963.65C1432,-963.65 1318,-963.65 1318,-963.65 1312,-963.65 1306,-957.65 1306,-951.65 1306,-951.65 1306,-939.65 1306,-939.65 1306,-933.65 1312,-927.65 1318,-927.65 1318,-927.65 1432,-927.65 1432,-927.65 1438,-927.65 1444,-933.65 1444,-939.65 1444,-939.65 1444,-951.65 1444,-951.65 1444,-957.65 1438,-963.65 1432,-963.65"/>
<text text-anchor="middle" x="1375" y="-948.85" font-family="Helvetica,sans-Serif" font-size="11.00" fill="#222222">odim:Week1</text>
<text text-anchor="middle" x="1375" y="-936.85" font-family="Helvetica,sans-Serif" font-size="11.00" fill="#222222">(odim:WeeklyInterval)</text>
</g>
<!-- Phenotype&#45;&gt;Week -->
<g id="edge36" class="edge">
<title>Phenotype&#45;&gt;Week</title>
<path fill="none" stroke="black" d="M1289.28,-1023.15C1299.69,-1016.77 1311.18,-1009.15 1321,-1001.27 1332.16,-992.32 1343.45,-981.27 1352.81,-971.46"/>
<polygon fill="black" stroke="black" points="1355.58,-973.62 1359.85,-963.92 1350.47,-968.84 1355.58,-973.62"/>
<text text-anchor="middle" x="1382" y="-993.27" font-family="Times,serif" font-size="10.00">odim:occursDuring</text>
</g>
<!-- TravelDetect -->
<g id="node35" class="node">
<title>TravelDetect</title>
<ellipse fill="#fff2cc" stroke="#666666" cx="1439" cy="-754.39" rx="133.79" ry="22.76"/>
<text text-anchor="middle" x="1439" y="-757.59" font-family="Helvetica,sans-Serif" font-size="11.00" fill="#222222">odim:A_TravelDetection</text>
<text text-anchor="middle" x="1439" y="-745.59" font-family="Helvetica,sans-Serif" font-size="11.00" fill="#222222">(odim:AlgorithmicComputation)</text>
</g>
<!-- TravelDetect&#45;&gt;ObsLoc -->
<g id="edge9" class="edge">
<title>TravelDetect&#45;&gt;ObsLoc</title>
<path fill="none" stroke="black" d="M1533.99,-738.38C1576.41,-725.72 1617,-702.45 1617,-659.76 1617,-659.76 1617,-659.76 1617,-353.88 1617,-328.24 1601.62,-303.3 1587.27,-285.61"/>
<polygon fill="black" stroke="black" points="1589.54,-282.88 1580.38,-277.54 1584.21,-287.42 1589.54,-282.88"/>
<text text-anchor="middle" x="1643" y="-510.51" font-family="Times,serif" font-size="10.00">prov:used</text>
</g>
<!-- TravelDetect&#45;&gt;LocDots -->
<g id="edge10" class="edge">
<title>TravelDetect&#45;&gt;LocDots</title>
<path fill="none" stroke="black" stroke-dasharray="1,5" d="M1538.66,-739.24C1571.43,-732.61 1607.51,-723.13 1639,-709.76 1658.59,-701.45 1678.53,-687.86 1692.93,-676.94"/>
</g>
<!-- TravelThresh -->
<g id="node37" class="node">
<title>TravelThresh</title>
<path fill="#ffe5d9" stroke="#666666" d="M1561,-676.76C1561,-676.76 1427,-676.76 1427,-676.76 1421,-676.76 1415,-670.76 1415,-664.76 1415,-664.76 1415,-652.76 1415,-652.76 1415,-646.76 1421,-640.76 1427,-640.76 1427,-640.76 1561,-640.76 1561,-640.76 1567,-640.76 1573,-646.76 1573,-652.76 1573,-652.76 1573,-664.76 1573,-664.76 1573,-670.76 1567,-676.76 1561,-676.76"/>
<text text-anchor="middle" x="1494" y="-661.96" font-family="Helvetica,sans-Serif" font-size="11.00" fill="#222222">odim:Threshold_TravelKm</text>
<text text-anchor="middle" x="1494" y="-649.96" font-family="Helvetica,sans-Serif" font-size="11.00" fill="#222222">(prov:Entity)</text>
</g>
<!-- TravelDetect&#45;&gt;TravelThresh -->
<g id="edge11" class="edge">
<title>TravelDetect&#45;&gt;TravelThresh</title>
<path fill="none" stroke="black" d="M1451.76,-731.68C1459.77,-718.03 1470.17,-700.34 1478.64,-685.92"/>
<polygon fill="black" stroke="black" points="1481.83,-687.39 1483.88,-676.99 1475.8,-683.84 1481.83,-687.39"/>
<text text-anchor="middle" x="1495" y="-701.76" font-family="Times,serif" font-size="10.00">prov:used</text>
</g>
<!-- TravelWin&#45;&gt;TravelDetect -->
<g id="edge12" class="edge">
<title>TravelWin&#45;&gt;TravelDetect</title>
<path fill="none" stroke="black" d="M1402.25,-831.85C1408.39,-819.08 1416.93,-801.32 1424.23,-786.13"/>
<polygon fill="black" stroke="black" points="1427.4,-787.6 1428.58,-777.07 1421.09,-784.57 1427.4,-787.6"/>
<text text-anchor="middle" x="1474.5" y="-802.02" font-family="Times,serif" font-size="10.00">odim:wasComputedBy</text>
</g>
</g>
</svg>
