<?xml version="1.0" encoding="UTF-8" standalone="no"?>
<!DOCTYPE svg PUBLIC "-//W3C//DTD SVG 1.1//EN"
 "http://www.w3.org/Graphics/SVG/1.1/DTD/svg11.dtd">
<!-- Generated by graphviz version 2.43.0 (0)
 -->
<!-- Title: DemoFlow Pages: 1 -->
<svg width="2989pt" height="923pt"
 viewBox="0.00 0.00 2989.00 923.33" xmlns="http://www.w3.org/2000/svg" xmlns:xlink="http://www.w3.org/1999/xlink">
<g id="graph0" class="graph" transform="scale(1 1) rotate(0) translate(4 919.33)">
<title>DemoFlow</title>
<polygon fill="white" stroke="transparent" points="-4,4 -4,-919.33 2985,-919.33 2985,4 -4,4"/>
<g id="clust1" class="cluster">
<title>cluster_legend</title>
<polygon fill="none" stroke="#e5e5e5" stroke-dasharray="5,2" points="8,-818.65 8,-889.65 1073,-889.65 1073,-818.65 8,-818.65"/>
<text text-anchor="middle" x="36" y="-877.65" font-family="Times,serif" font-size="10.00">Legend</text>
</g>
<g id="clust2" class="cluster">
<title>cluster_raw</title>
<polygon fill="none" stroke="#999999" stroke-dasharray="5,2" points="1325,-818.65 1325,-893.65 1843,-893.65 1843,-818.65 1325,-818.65"/>
<text text-anchor="middle" x="1396.5" y="-878.45" font-family="Times,serif" font-size="14.00">Raw (prov:Entity)</text>
</g>
<g id="clust3" class="cluster">
<title>cluster_import</title>
<polygon fill="none" stroke="#999999" stroke-dasharray="5,2" points="1544,-701.39 1544,-785.65 1843,-785.65 1843,-701.39 1544,-701.39"/>
<text text-anchor="middle" x="1672.5" y="-770.45" font-family="Times,serif" font-size="14.00">Import (odim:DataTransferEvent)</text>
</g>
<g id="clust4" class="cluster">
<title>cluster_obs</title>
</g>
<g id="clust5" class="cluster">
<title>cluster_daily</title>
<polygon fill="none" stroke="#999999" stroke-dasharray="5,2" points="1015,-490.76 1015,-678.39 1843,-678.39 1843,-490.76 1015,-490.76"/>
<text text-anchor="middle" x="1157" y="-663.19" font-family="Times,serif" font-size="14.00">Daily features (odim:DerivedFeature)</text>
</g>
<g id="clust6" class="cluster">
<title>cluster_weekly</title>
<polygon fill="none" stroke="#999999" stroke-dasharray="5,2" points="1851,-8 1851,-570.39 2834,-570.39 2834,-8 1851,-8"/>
<text text-anchor="middle" x="2018.5" y="-555.19" font-family="Times,serif" font-size="14.00">Weekly aggregates → decisions → phenotype</text>
</g>
<!-- Lraw -->
<g id="node1" class="node">
<title>Lraw</title>
<path fill="#eeeeee" stroke="#666666" d="M1052.5,-862.65C1052.5,-862.65 963.5,-862.65 963.5,-862.65 957.5,-862.65 951.5,-856.65 951.5,-850.65 951.5,-850.65 951.5,-838.65 951.5,-838.65 951.5,-832.65 957.5,-826.65 963.5,-826.65 963.5,-826.65 1052.5,-826.65 1052.5,-826.65 1058.5,-826.65 1064.5,-832.65 1064.5,-838.65 1064.5,-838.65 1064.5,-850.65 1064.5,-850.65 1064.5,-856.65 1058.5,-862.65 1052.5,-862.65"/>
<text text-anchor="middle" x="1008" y="-841.85" font-family="Helvetica,sans-Serif" font-size="11.00" fill="#222222">Raw (prov:Entity)</text>
</g>
<!-- Lobs -->
<g id="node2" class="node">
<title>Lobs</title>
<path fill="#ddeeff" stroke="#666666" d="M910.5,-862.65C910.5,-862.65 805.5,-862.65 805.5,-862.65 799.5,-862.65 793.5,-856.65 793.5,-850.65 793.5,-850.65 793.5,-838.65 793.5,-838.65 793.5,-832.65 799.5,-826.65 805.5,-826.65 805.5,-826.65 910.5,-826.65 910.5,-826.65 916.5,-826.65 922.5,-832.65 922.5,-838.65 922.5,-838.65 922.5,-850.65 922.5,-850.65 922.5,-856.65 916.5,-862.65 910.5,-862.65"/>
<text text-anchor="middle" x="858" y="-841.85" font-family="Helvetica,sans-Serif" font-size="11.00" fill="#222222">Observation (entity)</text>
</g>
<!-- Lfeat -->
<g id="node3" class="node">
<title>Lfeat</title>
<path fill="#e2f0d9" stroke="#666666" d="M752,-862.65C752,-862.65 628,-862.65 628,-862.65 622,-862.65 616,-856.65 616,-850.65 616,-850.65 616,-838.65 616,-838.65 616,-832.65 622,-826.65 628,-826.65 628,-826.65 752,-826.65 752,-826.65 758,-826.65 764,-832.65 764,-838.65 764,-838.65 764,-850.65 764,-850.65 764,-856.65 758,-862.65 752,-862.65"/>
<text text-anchor="middle" x="690" y="-841.85" font-family="Helvetica,sans-Serif" font-size="11.00" fill="#222222">Derived feature (entity)</text>
</g>
<!-- Lact -->
<g id="node4" class="node">
<title>Lact</title>
<ellipse fill="#fff2cc" stroke="#666666" cx="502" cy="-844.65" rx="84.58" ry="18"/>
<text text-anchor="middle" x="502" y="-841.85" font-family="Helvetica,sans-Serif" font-size="11.00" fill="#222222">Computation (activity)</text>
</g>
<!-- Lparam -->
<g id="node5" class="node">
<title>Lparam</title>
<path fill="#ffe5d9" stroke="#666666" d="M376,-862.65C376,-862.65 254,-862.65 254,-862.65 248,-862.65 242,-856.65 242,-850.65 242,-850.65 242,-838.65 242,-838.65 242,-832.65 248,-826.65 254,-826.65 254,-826.65 376,-826.65 376,-826.65 382,-826.65 388,-832.65 388,-838.65 388,-838.65 388,-850.65 388,-850.65 388,-856.65 382,-862.65 376,-862.65"/>
<text text-anchor="middle" x="315" y="-841.85" font-family="Helvetica,sans-Serif" font-size="11.00" fill="#222222">Parameter (prov:Entity)</text>
</g>
<!-- Lwin -->
<g id="node6" class="node">
<title>Lwin</title>
<path fill="#fde2e4" stroke="#666666" d="M200.5,-862.65C200.5,-862.65 131.5,-862.65 131.5,-862.65 125.5,-862.65 119.5,-856.65 119.5,-850.65 119.5,-850.65 119.5,-838.65 119.5,-838.65 119.5,-832.65 125.5,-826.65 131.5,-826.65 131.5,-826.65 200.5,-826.65 200.5,-826.65 206.5,-826.65 212.5,-832.65 212.5,-838.65 212.5,-838.65 212.5,-850.65 212.5,-850.65 212.5,-856.65 206.5,-862.65 200.5,-862.65"/>
<text text-anchor="middle" x="166" y="-841.85" font-family="Helvetica,sans-Serif" font-size="11.00" fill="#222222">Event window</text>
</g>
<!-- Lpheno -->
<g id="node7" class="node">
<title>Lpheno</title>
<path fill="#ede7f6" stroke="#666666" d="M78.5,-862.65C78.5,-862.65 27.5,-862.65 27.5,-862.65 21.5,-862.65 15.5,-856.65 15.5,-850.65 15.5,-850.65 15.5,-838.65 15.5,-838.65 15.5,-832.65 21.5,-826.65 27.5,-826.65 27.5,-826.65 78.5,-826.65 78.5,-826.65 84.5,-826.65 90.5,-832.65 90.5,-838.65 90.5,-838.65 90.5,-850.65 90.5,-850.65 90.5,-856.65 84.5,-862.65 78.5,-862.65"/>
<text text-anchor="middle" x="53" y="-841.85" font-family="Helvetica,sans-Serif" font-size="11.00" fill="#222222">Phenotype</text>
</g>
<!-- CenterAnchor -->
<!-- CenterAnchor&#45;&gt;Lfeat -->
<!-- RawSleep -->
<g id="node11" class="node">
<title>RawSleep</title>
<path fill="#eeeeee" stroke="#666666" d="M1764,-862.65C1764,-862.65 1666,-862.65 1666,-862.65 1660,-862.65 1654,-856.65 1654,-850.65 1654,-850.65 1654,-838.65 1654,-838.65 1654,-832.65 1660,-826.65 1666,-826.65 1666,-826.65 1764,-826.65 1764,-826.65 1770,-826.65 1776,-832.65 1776,-838.65 1776,-838.65 1776,-850.65 1776,-850.65 1776,-856.65 1770,-862.65 1764,-862.65"/>
<text text-anchor="middle" x="1715" y="-847.85" font-family="Helvetica,sans-Serif" font-size="11.00" fill="#222222">odim:RawSleepCSV</text>
<text text-anchor="middle" x="1715" y="-835.85" font-family="Helvetica,sans-Serif" font-size="11.00" fill="#222222">(prov:Entity)</text>
</g>
<!-- CenterAnchor&#45;&gt;RawSleep -->
<!-- Import -->
<g id="node14" class="node">
<title>Import</title>
<ellipse fill="#fff2cc" stroke="#666666" cx="1664" cy="-732.02" rx="111.95" ry="22.76"/>
<text text-anchor="middle" x="1664" y="-735.22" font-family="Helvetica,sans-Serif" font-size="11.00" fill="#222222">odim:A_Import</text>
<text text-anchor="middle" x="1664" y="-723.22" font-family="Helvetica,sans-Serif" font-size="11.00" fill="#222222">(odim:DataTransferEvent)</text>
</g>
<!-- CenterAnchor&#45;&gt;Import -->
<!-- DailyComp -->
<g id="node20" class="node">
<title>DailyComp</title>
<ellipse fill="#fff2cc" stroke="#666666" cx="1205" cy="-521.39" rx="133.79" ry="22.76"/>
<text text-anchor="middle" x="1205" y="-524.59" font-family="Helvetica,sans-Serif" font-size="11.00" fill="#222222">odim:A_DailySummary</text>
<text text-anchor="middle" x="1205" y="-512.59" font-family="Helvetica,sans-Serif" font-size="11.00" fill="#222222">(odim:AlgorithmicComputation)</text>
</g>
<!-- CenterAnchor&#45;&gt;DailyComp -->
<!-- F1 -->
<g id="node21" class="node">
<title>F1</title>
<path fill="#e2f0d9" stroke="#666666" d="M1792.5,-647.39C1792.5,-647.39 1675.5,-647.39 1675.5,-647.39 1669.5,-647.39 1663.5,-641.39 1663.5,-635.39 1663.5,-635.39 1663.5,-623.39 1663.5,-623.39 1663.5,-617.39 1669.5,-611.39 1675.5,-611.39 1675.5,-611.39 1792.5,-611.39 1792.5,-611.39 1798.5,-611.39 1804.5,-617.39 1804.5,-623.39 1804.5,-623.39 1804.5,-635.39 1804.5,-635.39 1804.5,-641.39 1798.5,-647.39 1792.5,-647.39"/>
<text text-anchor="middle" x="1734" y="-632.59" font-family="Helvetica,sans-Serif" font-size="11.00" fill="#222222">odim:F_DailySteps_D1</text>
<text text-anchor="middle" x="1734" y="-620.59" font-family="Helvetica,sans-Serif" font-size="11.00" fill="#222222">(odim:DerivedFeature)</text>
</g>
<!-- CenterAnchor&#45;&gt;F1 -->
<!-- F2 -->
<g id="node22" class="node">
<title>F2</title>
<path fill="#e2f0d9" stroke="#666666" d="M1152.5,-647.39C1152.5,-647.39 1035.5,-647.39 1035.5,-647.39 1029.5,-647.39 1023.5,-641.39 1023.5,-635.39 1023.5,-635.39 1023.5,-623.39 1023.5,-623.39 1023.5,-617.39 1029.5,-611.39 1035.5,-611.39 1035.5,-611.39 1152.5,-611.39 1152.5,-611.39 1158.5,-611.39 1164.5,-617.39 1164.5,-623.39 1164.5,-623.39 1164.5,-635.39 1164.5,-635.39 1164.5,-641.39 1158.5,-647.39 1152.5,-647.39"/>
<text text-anchor="middle" x="1094" y="-632.59" font-family="Helvetica,sans-Serif" font-size="11.00" fill="#222222">odim:F_DailySteps_D2</text>
<text text-anchor="middle" x="1094" y="-620.59" font-family="Helvetica,sans-Serif" font-size="11.00" fill="#222222">(odim:DerivedFeature)</text>
</g>
<!-- CenterAnchor&#45;&gt;F2 -->
<!-- FDots -->
<g id="node23" class="node">
<title>FDots</title>
<path fill="white" stroke="transparent" d="M1260,-647.39C1260,-647.39 1206,-647.39 1206,-647.39 1200,-647.39 1194,-641.39 1194,-635.39 1194,-635.39 1194,-623.39 1194,-623.39 1194,-617.39 1200,-611.39 1206,-611.39 1206,-611.39 1260,-611.39 1260,-611.39 1266,-611.39 1272,-617.39 1272,-623.39 1272,-623.39 1272,-635.39 1272,-635.39 1272,-641.39 1266,-647.39 1260,-647.39"/>
<text text-anchor="middle" x="1233" y="-626.59" font-family="Helvetica,sans-Serif" font-size="11.00" fill="#666666">… (D3..D7)</text>
</g>
<!-- CenterAnchor&#45;&gt;FDots -->
<!-- SQ1 -->
<g id="node24" class="node">
<title>SQ1</title>
<path fill="#e2f0d9" stroke="#666666" d="M1441,-647.39C1441,-647.39 1313,-647.39 1313,-647.39 1307,-647.39 1301,-641.39 1301,-635.39 1301,-635.39 1301,-623.39 1301,-623.39 1301,-617.39 1307,-611.39 1313,-611.39 1313,-611.39 1441,-611.39 1441,-611.39 1447,-611.39 1453,-617.39 1453,-623.39 1453,-623.39 1453,-635.39 1453,-635.39 1453,-641.39 1447,-647.39 1441,-647.39"/>
<text text-anchor="middle" x="1377" y="-632.59" font-family="Helvetica,sans-Serif" font-size="11.00" fill="#222222">odim:F_SleepMinutes_D1</text>
<text text-anchor="middle" x="1377" y="-620.59" font-family="Helvetica,sans-Serif" font-size="11.00" fill="#222222">(odim:DerivedFeature)</text>
</g>
<!-- CenterAnchor&#45;&gt;SQ1 -->
<!-- SQ2 -->
<g id="node25" class="node">
<title>SQ2</title>
<path fill="#e2f0d9" stroke="#666666" d="M1622,-647.39C1622,-647.39 1494,-647.39 1494,-647.39 1488,-647.39 1482,-641.39 1482,-635.39 1482,-635.39 1482,-623.39 1482,-623.39 1482,-617.39 1488,-611.39 1494,-611.39 1494,-611.39 1622,-611.39 1622,-611.39 1628,-611.39 1634,-617.39 1634,-623.39 1634,-623.39 1634,-635.39 1634,-635.39 1634,-641.39 1628,-647.39 1622,-647.39"/>
<text text-anchor="middle" x="1558" y="-632.59" font-family="Helvetica,sans-Serif" font-size="11.00" fill="#222222">odim:F_SleepMinutes_D2</text>
<text text-anchor="middle" x="1558" y="-620.59" font-family="Helvetica,sans-Serif" font-size="11.00" fill="#222222">(odim:DerivedFeature)</text>
</g>
<!-- CenterAnchor&#45;&gt;SQ2 -->
<!-- Combine -->
<g id="node37" class="node">
<title>Combine</title>
<ellipse fill="#fff2cc" stroke="#666666" cx="2264" cy="-421.14" rx="133.79" ry="22.76"/>
<text text-anchor="middle" x="2264" y="-424.34" font-family="Helvetica,sans-Serif" font-size="11.00" fill="#222222">odim:A_MarkerDerivation</text>
<text text-anchor="middle" x="2264" y="-412.34" font-family="Helvetica,sans-Serif" font-size="11.00" fill="#222222">(odim:AlgorithmicComputation)</text>
</g>
<!-- CenterAnchor&#45;&gt;Combine -->
<!-- Phenotype -->
<g id="node38" class="node">
<title>Phenotype</title>
<path fill="#ede7f6" stroke="#666666" d="M2183,-539.39C2183,-539.39 1871,-539.39 1871,-539.39 1865,-539.39 1859,-533.39 1859,-527.39 1859,-527.39 1859,-515.39 1859,-515.39 1859,-509.39 1865,-503.39 1871,-503.39 1871,-503.39 2183,-503.39 2183,-503.39 2189,-503.39 2195,-509.39 2195,-515.39 2195,-515.39 2195,-527.39 2195,-527.39 2195,-533.39 2189,-539.39 2183,-539.39"/>
<text text-anchor="middle" x="2027" y="-524.59" font-family="Helvetica,sans-Serif" font-size="11.00" fill="#222222">odim:Phenotype_TravelAssociatedInactivityWithSleepDebt</text>
<text text-anchor="middle" x="2027" y="-512.59" font-family="Helvetica,sans-Serif" font-size="11.00" fill="#222222">(odim:ActivityPhenotype)</text>
</g>
<!-- CenterAnchor&#45;&gt;Phenotype -->
<!-- C_RAW -->
<!-- C_RAW&#45;&gt;RawSleep -->
<!-- C_RAW&#45;&gt;RawSleep -->
<!-- C_IMPORT -->
<!-- C_RAW&#45;&gt;C_IMPORT -->
<!-- C_RAW&#45;&gt;C_IMPORT -->
<!-- RawSteps -->
<g id="node10" class="node">
<title>RawSteps</title>
<path fill="#eeeeee" stroke="#666666" d="M1612.5,-862.65C1612.5,-862.65 1513.5,-862.65 1513.5,-862.65 1507.5,-862.65 1501.5,-856.65 1501.5,-850.65 1501.5,-850.65 1501.5,-838.65 1501.5,-838.65 1501.5,-832.65 1507.5,-826.65 1513.5,-826.65 1513.5,-826.65 1612.5,-826.65 1612.5,-826.65 1618.5,-826.65 1624.5,-832.65 1624.5,-838.65 1624.5,-838.65 1624.5,-850.65 1624.5,-850.65 1624.5,-856.65 1618.5,-862.65 1612.5,-862.65"/>
<text text-anchor="middle" x="1563" y="-847.85" font-family="Helvetica,sans-Serif" font-size="11.00" fill="#222222">odim:RawStepsCSV</text>
<text text-anchor="middle" x="1563" y="-835.85" font-family="Helvetica,sans-Serif" font-size="11.00" fill="#222222">(prov:Entity)</text>
</g>
<!-- RawLoc -->
<g id="node12" class="node">
<title>RawLoc</title>
<path fill="#eeeeee" stroke="#666666" d="M1460.5,-862.65C1460.5,-862.65 1345.5,-862.65 1345.5,-862.65 1339.5,-862.65 1333.5,-856.65 1333.5,-850.65 1333.5,-850.65 1333.5,-838.65 1333.5,-838.65 1333.5,-832.65 1339.5,-826.65 1345.5,-826.65 1345.5,-826.65 1460.5,-826.65 1460.5,-826.65 1466.5,-826.65 1472.5,-832.65 1472.5,-838.65 1472.5,-838.65 1472.5,-850.65 1472.5,-850.65 1472.5,-856.65 1466.5,-862.65 1460.5,-862.65"/>
<text text-anchor="middle" x="1403" y="-847.85" font-family="Helvetica,sans-Serif" font-size="11.00" fill="#222222">odim:RawLocationCSV</text>
<text text-anchor="middle" x="1403" y="-835.85" font-family="Helvetica,sans-Serif" font-size="11.00" fill="#222222">(prov:Entity)</text>
</g>
<!-- C_IMPORT&#45;&gt;Import -->
<!-- C_IMPORT&#45;&gt;Import -->
<!-- C_DAILY -->
<!-- C_IMPORT&#45;&gt;C_DAILY -->
<!-- C_IMPORT&#45;&gt;C_DAILY -->
<!-- Import&#45;&gt;RawSteps -->
<g id="edge12" class="edge">
<title>Import&#45;&gt;RawSteps</title>
<path fill="none" stroke="black" d="M1644.53,-754.35C1627.7,-772.78 1603.38,-799.42 1585.68,-818.8"/>
<polygon fill="black" stroke="black" points="1582.94,-816.62 1578.78,-826.36 1588.11,-821.34 1582.94,-816.62"/>
<text text-anchor="middle" x="1633" y="-796.65" font-family="Times,serif" font-size="10.00">prov:used</text>
</g>
<!-- Import&#45;&gt;RawSleep -->
<g id="edge13" class="edge">
<title>Import&#45;&gt;RawSleep</title>
<path fill="none" stroke="black" d="M1674.02,-754.74C1682.25,-772.6 1693.94,-797.96 1702.73,-817.04"/>
<polygon fill="black" stroke="black" points="1699.67,-818.75 1707.03,-826.36 1706.02,-815.81 1699.67,-818.75"/>
<text text-anchor="middle" x="1721" y="-796.65" font-family="Times,serif" font-size="10.00">prov:used</text>
</g>
<!-- Import&#45;&gt;RawLoc -->
<g id="edge14" class="edge">
<title>Import&#45;&gt;RawLoc</title>
<path fill="none" stroke="black" d="M1617.57,-752.7C1571.2,-772.35 1500.16,-802.46 1452.67,-822.59"/>
<polygon fill="black" stroke="black" points="1451.05,-819.48 1443.21,-826.6 1453.78,-825.92 1451.05,-819.48"/>
<text text-anchor="middle" x="1543" y="-796.65" font-family="Times,serif" font-size="10.00">prov:used</text>
</g>
<!-- ObsSteps -->
<g id="node15" class="node">
<title>ObsSteps</title>
<path fill="#ddeeff" stroke="#666666" d="M828,-439.14C828,-439.14 678,-439.14 678,-439.14 672,-439.14 666,-433.14 666,-427.14 666,-427.14 666,-415.14 666,-415.14 666,-409.14 672,-403.14 678,-403.14 678,-403.14 828,-403.14 828,-403.14 834,-403.14 840,-409.14 840,-415.14 840,-415.14 840,-427.14 840,-427.14 840,-433.14 834,-439.14 828,-439.14"/>
<text text-anchor="middle" x="753" y="-424.34" font-family="Helvetica,sans-Serif" font-size="11.00" fill="#222222">odim:Obs_Steps_D1</text>
<text text-anchor="middle" x="753" y="-412.34" font-family="Helvetica,sans-Serif" font-size="11.00" fill="#222222">(odim:ActivityMeasurement)</text>
</g>
<!-- ObsSteps&#45;&gt;Import -->
<g id="edge15" class="edge">
<title>ObsSteps&#45;&gt;Import</title>
<path fill="none" stroke="black" d="M680.39,-439.19C591.87,-463.65 459.77,-514.2 509,-589.39 563.19,-672.15 616.76,-655.52 713,-678.39 867.01,-714.99 1322.59,-726.28 1542.51,-729.65"/>
<polygon fill="black" stroke="black" points="1542.75,-733.15 1552.8,-729.8 1542.86,-726.15 1542.75,-733.15"/>
<text text-anchor="middle" x="567" y="-581.39" font-family="Times,serif" font-size="10.00">odim:wasGeneratedBy</text>
</g>
<!-- ObsSleep -->
<g id="node16" class="node">
<title>ObsSleep</title>
<path fill="#ddeeff" stroke="#666666" d="M1285,-439.14C1285,-439.14 1115,-439.14 1115,-439.14 1109,-439.14 1103,-433.14 1103,-427.14 1103,-427.14 1103,-415.14 1103,-415.14 1103,-409.14 1109,-403.14 1115,-403.14 1115,-403.14 1285,-403.14 1285,-403.14 1291,-403.14 1297,-409.14 1297,-415.14 1297,-415.14 1297,-427.14 1297,-427.14 1297,-433.14 1291,-439.14 1285,-439.14"/>
<text text-anchor="middle" x="1200" y="-424.34" font-family="Helvetica,sans-Serif" font-size="11.00" fill="#222222">odim:Obs_Sleep_D1</text>
<text text-anchor="middle" x="1200" y="-412.34" font-family="Helvetica,sans-Serif" font-size="11.00" fill="#222222">(odim:SleepStageMeasurement)</text>
</g>
<!-- ObsSleep&#45;&gt;Import -->
<g id="edge16" class="edge">
<title>ObsSleep&#45;&gt;Import</title>
<path fill="none" stroke="black" d="M1144.79,-439.17C1049.44,-470.18 866.36,-537.41 892,-589.39 920.74,-647.67 947.35,-655.06 1008,-678.39 1102.46,-714.73 1380.36,-725.98 1542.56,-729.46"/>
<polygon fill="black" stroke="black" points="1542.52,-732.96 1552.59,-729.67 1542.67,-725.96 1542.52,-732.96"/>
<text text-anchor="middle" x="950" y="-581.39" font-family="Times,serif" font-size="10.00">odim:wasGeneratedBy</text>
</g>
<!-- ObsLoc -->
<g id="node17" class="node">
<title>ObsLoc</title>
<path fill="#ddeeff" stroke="#666666" d="M1056.5,-439.14C1056.5,-439.14 891.5,-439.14 891.5,-439.14 885.5,-439.14 879.5,-433.14 879.5,-427.14 879.5,-427.14 879.5,-415.14 879.5,-415.14 879.5,-409.14 885.5,-403.14 891.5,-403.14 891.5,-403.14 1056.5,-403.14 1056.5,-403.14 1062.5,-403.14 1068.5,-409.14 1068.5,-415.14 1068.5,-415.14 1068.5,-427.14 1068.5,-427.14 1068.5,-433.14 1062.5,-439.14 1056.5,-439.14"/>
<text text-anchor="middle" x="974" y="-424.34" font-family="Helvetica,sans-Serif" font-size="11.00" fill="#222222">odim:Obs_Location_D1</text>
<text text-anchor="middle" x="974" y="-412.34" font-family="Helvetica,sans-Serif" font-size="11.00" fill="#222222">(odim:DeviceLocationEstimate)</text>
</g>
<!-- ObsLoc&#45;&gt;Import -->
<g id="edge17" class="edge">
<title>ObsLoc&#45;&gt;Import</title>
<path fill="none" stroke="black" d="M886.81,-439.15C789.91,-462.31 653.32,-510.21 704,-589.39 754.92,-668.95 805.5,-654.94 897,-678.39 1015.79,-708.83 1359.19,-722.69 1543.57,-728.08"/>
<polygon fill="black" stroke="black" points="1543.49,-731.58 1553.59,-728.37 1543.69,-724.59 1543.49,-731.58"/>
<text text-anchor="middle" x="762" y="-581.39" font-family="Times,serif" font-size="10.00">odim:wasGeneratedBy</text>
</g>
<!-- ObsDots -->
<g id="node18" class="node">
<title>ObsDots</title>
<path fill="white" stroke="transparent" d="M1818,-152.25C1818,-152.25 1764,-152.25 1764,-152.25 1758,-152.25 1752,-146.25 1752,-140.25 1752,-140.25 1752,-128.25 1752,-128.25 1752,-122.25 1758,-116.25 1764,-116.25 1764,-116.25 1818,-116.25 1818,-116.25 1824,-116.25 1830,-122.25 1830,-128.25 1830,-128.25 1830,-140.25 1830,-140.25 1830,-146.25 1824,-152.25 1818,-152.25"/>
<text text-anchor="middle" x="1791" y="-131.45" font-family="Helvetica,sans-Serif" font-size="11.00" fill="#222222">… (D2..D7)</text>
</g>
<!-- C_DAILY&#45;&gt;DailyComp -->
<!-- C_DAILY&#45;&gt;DailyComp -->
<!-- C_WEEKLY -->
<!-- C_DAILY&#45;&gt;C_WEEKLY -->
<!-- C_DAILY&#45;&gt;C_WEEKLY -->
<!-- DailyComp&#45;&gt;ObsSteps -->
<g id="edge18" class="edge">
<title>DailyComp&#45;&gt;ObsSteps</title>
<path fill="none" stroke="black" d="M1125.75,-503.16C1046.19,-485.87 923.89,-459.28 841.27,-441.33"/>
<polygon fill="black" stroke="black" points="841.92,-437.88 831.4,-439.18 840.43,-444.72 841.92,-437.88"/>
<text text-anchor="middle" x="1018" y="-468.76" font-family="Times,serif" font-size="10.00">prov:used</text>
</g>
<!-- DailyComp&#45;&gt;ObsSleep -->
<g id="edge19" class="edge">
<title>DailyComp&#45;&gt;ObsSleep</title>
<path fill="none" stroke="black" d="M1203.89,-498.59C1203.15,-484.07 1202.18,-464.89 1201.39,-449.37"/>
<polygon fill="black" stroke="black" points="1204.88,-449.12 1200.87,-439.31 1197.89,-449.48 1204.88,-449.12"/>
<text text-anchor="middle" x="1228" y="-468.76" font-family="Times,serif" font-size="10.00">prov:used</text>
</g>
<!-- F1&#45;&gt;DailyComp -->
<g id="edge24" class="edge">
<title>F1&#45;&gt;DailyComp</title>
<path fill="none" stroke="black" d="M1663.04,-614.17C1658.29,-613.23 1653.58,-612.3 1649,-611.39 1598.8,-601.49 1585.36,-602.87 1536,-589.39 1521.9,-585.54 1519.12,-582.19 1505,-578.39 1442.37,-561.55 1371.05,-548.01 1313.67,-538.46"/>
<polygon fill="black" stroke="black" points="1313.92,-534.96 1303.49,-536.79 1312.79,-541.87 1313.92,-534.96"/>
<text text-anchor="middle" x="1593.5" y="-581.39" font-family="Times,serif" font-size="10.00">odim:wasComputedBy</text>
</g>
<!-- F2&#45;&gt;DailyComp -->
<g id="edge25" class="edge">
<title>F2&#45;&gt;DailyComp</title>
<path fill="none" stroke="black" d="M1085.13,-611.01C1081.26,-600.81 1078.84,-588.06 1085,-578.39 1094.29,-563.8 1108.49,-552.95 1123.9,-544.9"/>
<polygon fill="black" stroke="black" points="1125.59,-547.97 1133.09,-540.48 1122.56,-541.66 1125.59,-547.97"/>
<text text-anchor="middle" x="1142.5" y="-581.39" font-family="Times,serif" font-size="10.00">odim:wasComputedBy</text>
</g>
<!-- FDots&#45;&gt;DailyComp -->
<g id="edge28" class="edge">
<title>FDots&#45;&gt;DailyComp</title>
<path fill="none" stroke="black" stroke-dasharray="1,5" d="M1220.65,-611.34C1216.54,-604.79 1212.4,-597.04 1210,-589.39 1205.43,-574.81 1204.23,-557.61 1204.14,-544.29"/>
</g>
<!-- SQ1&#45;&gt;DailyComp -->
<g id="edge26" class="edge">
<title>SQ1&#45;&gt;DailyComp</title>
<path fill="none" stroke="black" d="M1300.66,-612.75C1274.05,-606.1 1248.26,-597.92 1238,-589.39 1226.87,-580.15 1219.18,-566.24 1214.04,-553.48"/>
<polygon fill="black" stroke="black" points="1217.31,-552.24 1210.59,-544.05 1210.73,-554.64 1217.31,-552.24"/>
<text text-anchor="middle" x="1295.5" y="-581.39" font-family="Times,serif" font-size="10.00">odim:wasComputedBy</text>
</g>
<!-- SQ2&#45;&gt;DailyComp -->
<g id="edge27" class="edge">
<title>SQ2&#45;&gt;DailyComp</title>
<path fill="none" stroke="black" d="M1481.7,-613.19C1451.93,-606.68 1417.65,-598.49 1387,-589.39 1380.88,-587.58 1318.09,-564.38 1267.95,-545.78"/>
<polygon fill="black" stroke="black" points="1269.02,-542.45 1258.43,-542.25 1266.59,-549.01 1269.02,-542.45"/>
<text text-anchor="middle" x="1444.5" y="-581.39" font-family="Times,serif" font-size="10.00">odim:wasComputedBy</text>
</g>
<!-- C_WEEKLY&#45;&gt;Combine -->
<!-- C_WEEKLY&#45;&gt;Combine -->
<!-- WeeklySteps -->
<g id="node27" class="node">
<title>WeeklySteps</title>
<ellipse fill="#fff2cc" stroke="#666666" cx="2059" cy="-38.63" rx="133.79" ry="22.76"/>
<text text-anchor="middle" x="2059" y="-41.83" font-family="Helvetica,sans-Serif" font-size="11.00" fill="#222222">odim:A_WeeklyAggregateSteps</text>
<text text-anchor="middle" x="2059" y="-29.83" font-family="Helvetica,sans-Serif" font-size="11.00" fill="#222222">(odim:AlgorithmicComputation)</text>
</g>
<!-- WeeklySteps&#45;&gt;F1 -->
<g id="edge29" class="edge">
<title>WeeklySteps&#45;&gt;F1</title>
<path fill="none" stroke="black" d="M2184.76,-46.29C2398.84,-57.72 2811.83,-80.11 2819,-83.25 2905.37,-121.13 2970.44,-161.16 2947,-252.51 2884.77,-494.99 2725.01,-510.26 2482,-570.39 2195.41,-641.31 2111.75,-573.24 1819,-611.39 1817.7,-611.56 1816.39,-611.74 1815.07,-611.92"/>
<polygon fill="black" stroke="black" points="1814.2,-608.52 1804.84,-613.48 1815.25,-615.44 1814.2,-608.52"/>
<text text-anchor="middle" x="2955" y="-323.01" font-family="Times,serif" font-size="10.00">prov:used</text>
</g>
<!-- WeeklySteps&#45;&gt;F2 -->
<g id="edge30" class="edge">
<title>WeeklySteps&#45;&gt;F2</title>
<path fill="none" stroke="black" d="M1924.97,-38.96C1692.71,-38.98 1200.57,-44.19 787,-83.25 687.06,-92.69 552,-99.8 552,-133.25 552,-522.39 552,-522.39 552,-522.39 552,-615.24 862.22,-628.27 1013.27,-629.11"/>
<polygon fill="black" stroke="black" points="1013.41,-632.61 1023.42,-629.15 1013.43,-625.61 1013.41,-632.61"/>
<text text-anchor="middle" x="578" y="-323.01" font-family="Times,serif" font-size="10.00">prov:used</text>
</g>
<!-- WeeklySteps&#45;&gt;FDots -->
<g id="edge31" class="edge">
<title>WeeklySteps&#45;&gt;FDots</title>
<path fill="none" stroke="black" stroke-dasharray="1,5" d="M1926.26,-41.58C1575.01,-47.62 648,-69.58 648,-133.25 648,-281.01 648,-281.01 648,-281.01 648,-419.39 583.14,-502.69 691,-589.39 733.3,-623.4 1125.55,-601.94 1179,-611.39 1183.84,-612.25 1188.85,-613.42 1193.78,-614.75"/>
</g>
<!-- MeanSteps -->
<g id="node28" class="node">
<title>MeanSteps</title>
<path fill="#e2f0d9" stroke="#666666" d="M2192.5,-152.25C2192.5,-152.25 2057.5,-152.25 2057.5,-152.25 2051.5,-152.25 2045.5,-146.25 2045.5,-140.25 2045.5,-140.25 2045.5,-128.25 2045.5,-128.25 2045.5,-122.25 2051.5,-116.25 2057.5,-116.25 2057.5,-116.25 2192.5,-116.25 2192.5,-116.25 2198.5,-116.25 2204.5,-122.25 2204.5,-128.25 2204.5,-128.25 2204.5,-140.25 2204.5,-140.25 2204.5,-146.25 2198.5,-152.25 2192.5,-152.25"/>
<text text-anchor="middle" x="2125" y="-137.45" font-family="Helvetica,sans-Serif" font-size="11.00" fill="#222222">odim:F_WeeklyMeanSteps</text>
<text text-anchor="middle" x="2125" y="-125.45" font-family="Helvetica,sans-Serif" font-size="11.00" fill="#222222">(odim:DerivedFeature)</text>
</g>
<!-- MeanSteps&#45;&gt;WeeklySteps -->
<g id="edge32" class="edge">
<title>MeanSteps&#45;&gt;WeeklySteps</title>
<path fill="none" stroke="black" d="M2112.89,-116.08C2103.73,-103.08 2090.9,-84.88 2080.06,-69.51"/>
<polygon fill="black" stroke="black" points="2082.9,-67.46 2074.28,-61.31 2077.18,-71.5 2082.9,-67.46"/>
<text text-anchor="middle" x="2152.5" y="-86.25" font-family="Times,serif" font-size="10.00">odim:wasComputedBy</text>
</g>
<!-- Thresh -->
<g id="node29" class="node">
<title>Thresh</title>
<path fill="#ffe5d9" stroke="#666666" d="M2380.5,-152.25C2380.5,-152.25 2245.5,-152.25 2245.5,-152.25 2239.5,-152.25 2233.5,-146.25 2233.5,-140.25 2233.5,-140.25 2233.5,-128.25 2233.5,-128.25 2233.5,-122.25 2239.5,-116.25 2245.5,-116.25 2245.5,-116.25 2380.5,-116.25 2380.5,-116.25 2386.5,-116.25 2392.5,-122.25 2392.5,-128.25 2392.5,-128.25 2392.5,-140.25 2392.5,-140.25 2392.5,-146.25 2386.5,-152.25 2380.5,-152.25"/>
<text text-anchor="middle" x="2313" y="-137.45" font-family="Helvetica,sans-Serif" font-size="11.00" fill="#222222">odim:Threshold_LowSteps</text>
<text text-anchor="middle" x="2313" y="-125.45" font-family="Helvetica,sans-Serif" font-size="11.00" fill="#222222">(prov:Entity)</text>
</g>
<!-- StepsDecision -->
<g id="node30" class="node">
<title>StepsDecision</title>
<ellipse fill="#fff2cc" stroke="#666666" cx="2291" cy="-229.88" rx="135.11" ry="22.76"/>
<text text-anchor="middle" x="2291" y="-233.08" font-family="Helvetica,sans-Serif" font-size="11.00" fill="#222222">odim:A_StepsThresholdDecision</text>
<text text-anchor="middle" x="2291" y="-221.08" font-family="Helvetica,sans-Serif" font-size="11.00" fill="#222222">(odim:AlgorithmicComputation)</text>
</g>
<!-- StepsDecision&#45;&gt;MeanSteps -->
<g id="edge33" class="edge">
<title>StepsDecision&#45;&gt;MeanSteps</title>
<path fill="none" stroke="black" d="M2254.16,-208.1C2227.47,-193.05 2191.44,-172.73 2164.22,-157.38"/>
<polygon fill="black" stroke="black" points="2165.78,-154.24 2155.35,-152.37 2162.34,-160.34 2165.78,-154.24"/>
<text text-anchor="middle" x="2238" y="-177.25" font-family="Times,serif" font-size="10.00">prov:used</text>
</g>
<!-- StepsDecision&#45;&gt;Thresh -->
<g id="edge34" class="edge">
<title>StepsDecision&#45;&gt;Thresh</title>
<path fill="none" stroke="black" d="M2296.1,-207.17C2299.25,-193.78 2303.31,-176.5 2306.66,-162.24"/>
<polygon fill="black" stroke="black" points="2310.07,-163.02 2308.95,-152.48 2303.26,-161.42 2310.07,-163.02"/>
<text text-anchor="middle" x="2329" y="-177.25" font-family="Times,serif" font-size="10.00">prov:used</text>
</g>
<!-- Marker -->
<g id="node31" class="node">
<title>Marker</title>
<path fill="#e2f0d9" stroke="#666666" d="M2376,-343.51C2376,-343.51 2176,-343.51 2176,-343.51 2170,-343.51 2164,-337.51 2164,-331.51 2164,-331.51 2164,-319.51 2164,-319.51 2164,-313.51 2170,-307.51 2176,-307.51 2176,-307.51 2376,-307.51 2376,-307.51 2382,-307.51 2388,-313.51 2388,-319.51 2388,-319.51 2388,-331.51 2388,-331.51 2388,-337.51 2382,-343.51 2376,-343.51"/>
<text text-anchor="middle" x="2276" y="-328.71" font-family="Helvetica,sans-Serif" font-size="11.00" fill="#222222">odim:Marker_LowActivityDuringTravel</text>
<text text-anchor="middle" x="2276" y="-316.71" font-family="Helvetica,sans-Serif" font-size="11.00" fill="#222222">(odim:DerivedFeature)</text>
</g>
<!-- Marker&#45;&gt;StepsDecision -->
<g id="edge35" class="edge">
<title>Marker&#45;&gt;StepsDecision</title>
<path fill="none" stroke="black" d="M2278.75,-307.34C2280.76,-294.81 2283.53,-277.48 2285.94,-262.48"/>
<polygon fill="black" stroke="black" points="2289.4,-262.99 2287.53,-252.56 2282.49,-261.88 2289.4,-262.99"/>
<text text-anchor="middle" x="2340.5" y="-277.51" font-family="Times,serif" font-size="10.00">odim:wasComputedBy</text>
</g>
<!-- WeeklySleep -->
<g id="node32" class="node">
<title>WeeklySleep</title>
<ellipse fill="#fff2cc" stroke="#666666" cx="2663" cy="-38.63" rx="162.77" ry="22.76"/>
<text text-anchor="middle" x="2663" y="-41.83" font-family="Helvetica,sans-Serif" font-size="11.00" fill="#222222">odim:A_WeeklyAggregateSleepMinutes</text>
<text text-anchor="middle" x="2663" y="-29.83" font-family="Helvetica,sans-Serif" font-size="11.00" fill="#222222">(odim:AlgorithmicComputation)</text>
</g>
<!-- WeeklySleep&#45;&gt;FDots -->
<g id="edge38" class="edge">
<title>WeeklySleep&#45;&gt;FDots</title>
<path fill="none" stroke="black" stroke-dasharray="1,5" d="M2758.67,-57.02C2779.52,-63.31 2800.78,-71.81 2819,-83.25 2849.14,-102.19 2855.6,-127.79 2841,-160.25 2815.66,-216.61 2784.27,-212.72 2737,-252.51 2712.2,-273.38 2650.3,-326.03 2623,-343.51 2561.64,-382.81 2390.46,-450.08 2330,-490.76 2285.41,-520.77 2289.06,-550.83 2239,-570.39 2223.21,-576.56 1950.94,-577.74 1934,-578.39 1898.04,-579.78 1322.42,-605.02 1287,-611.39 1282.16,-612.26 1277.16,-613.44 1272.23,-614.77"/>
</g>
<!-- WeeklySleep&#45;&gt;SQ1 -->
<g id="edge36" class="edge">
<title>WeeklySleep&#45;&gt;SQ1</title>
<path fill="none" stroke="black" d="M2799.48,-51.02C2840.96,-57.5 2879.03,-67.59 2892,-83.25 2913.82,-109.62 2903.39,-127.98 2892,-160.25 2868.2,-227.69 2849.45,-244.3 2791,-285.51 2766.76,-302.6 2754.43,-294.06 2728,-307.51 2702.95,-320.26 2699.31,-327.81 2676,-343.51 2608.57,-388.93 2594.81,-405.66 2523,-443.76 2489.39,-461.6 2479.15,-462.19 2444,-476.76 2428.9,-483.03 2423.52,-481.59 2410,-490.76 2369.27,-518.42 2377.86,-550.1 2333,-570.39 2330.26,-571.63 1470.99,-611.04 1468,-611.39 1466.5,-611.57 1464.99,-611.75 1463.48,-611.94"/>
<polygon fill="black" stroke="black" points="1462.77,-608.51 1453.35,-613.34 1463.73,-615.44 1462.77,-608.51"/>
<text text-anchor="middle" x="2754" y="-323.01" font-family="Times,serif" font-size="10.00">prov:used</text>
</g>
<!-- WeeklySleep&#45;&gt;SQ2 -->
<g id="edge37" class="edge">
<title>WeeklySleep&#45;&gt;SQ2</title>
<path fill="none" stroke="black" d="M2818.69,-45.36C2876.63,-51.05 2932.78,-62.07 2951,-83.25 2973.31,-109.2 2961.57,-127.71 2951,-160.25 2929.74,-225.7 2907.6,-235.82 2860,-285.51 2831.34,-315.44 2821.33,-320.3 2787,-343.51 2712.43,-393.94 2692.83,-406.24 2611,-443.76 2554.39,-469.72 2530.03,-455.07 2479,-490.76 2441.33,-517.11 2454.06,-549.73 2413,-570.39 2375.03,-589.5 1691.2,-606.34 1649,-611.39 1647.5,-611.57 1646,-611.76 1644.48,-611.96"/>
<polygon fill="black" stroke="black" points="1643.77,-608.52 1634.35,-613.38 1644.74,-615.45 1643.77,-608.52"/>
<text text-anchor="middle" x="2863" y="-323.01" font-family="Times,serif" font-size="10.00">prov:used</text>
</g>
<!-- MeanSleep -->
<g id="node33" class="node">
<title>MeanSleep</title>
<path fill="#e2f0d9" stroke="#666666" d="M2814,-152.25C2814,-152.25 2636,-152.25 2636,-152.25 2630,-152.25 2624,-146.25 2624,-140.25 2624,-140.25 2624,-128.25 2624,-128.25 2624,-122.25 2630,-116.25 2636,-116.25 2636,-116.25 2814,-116.25 2814,-116.25 2820,-116.25 2826,-122.25 2826,-128.25 2826,-128.25 2826,-140.25 2826,-140.25 2826,-146.25 2820,-152.25 2814,-152.25"/>
<text text-anchor="middle" x="2725" y="-137.45" font-family="Helvetica,sans-Serif" font-size="11.00" fill="#222222">odim:F_WeeklyMeanSleepMinutes</text>
<text text-anchor="middle" x="2725" y="-125.45" font-family="Helvetica,sans-Serif" font-size="11.00" fill="#222222">(odim:DerivedFeature)</text>
</g>
<!-- MeanSleep&#45;&gt;WeeklySleep -->
<g id="edge39" class="edge">
<title>MeanSleep&#45;&gt;WeeklySleep</title>
<path fill="none" stroke="black" d="M2713.63,-116.08C2705.1,-103.2 2693.19,-85.22 2683.07,-69.94"/>
<polygon fill="black" stroke="black" points="2685.79,-67.71 2677.36,-61.31 2679.96,-71.58 2685.79,-67.71"/>
<text text-anchor="middle" x="2754.5" y="-86.25" font-family="Times,serif" font-size="10.00">odim:wasComputedBy</text>
</g>
<!-- SleepBaseline -->
<g id="node34" class="node">
<title>SleepBaseline</title>
<path fill="#ffe5d9" stroke="#666666" d="M2582.5,-152.25C2582.5,-152.25 2433.5,-152.25 2433.5,-152.25 2427.5,-152.25 2421.5,-146.25 2421.5,-140.25 2421.5,-140.25 2421.5,-128.25 2421.5,-128.25 2421.5,-122.25 2427.5,-116.25 2433.5,-116.25 2433.5,-116.25 2582.5,-116.25 2582.5,-116.25 2588.5,-116.25 2594.5,-122.25 2594.5,-128.25 2594.5,-128.25 2594.5,-140.25 2594.5,-140.25 2594.5,-146.25 2588.5,-152.25 2582.5,-152.25"/>
<text text-anchor="middle" x="2508" y="-137.45" font-family="Helvetica,sans-Serif" font-size="11.00" fill="#222222">odim:Baseline_SleepMinutes</text>
<text text-anchor="middle" x="2508" y="-125.45" font-family="Helvetica,sans-Serif" font-size="11.00" fill="#222222">(prov:Entity)</text>
</g>
<!-- SleepDebtDecision -->
<g id="node35" class="node">
<title>SleepDebtDecision</title>
<ellipse fill="#fff2cc" stroke="#666666" cx="2589" cy="-229.88" rx="133.79" ry="22.76"/>
<text text-anchor="middle" x="2589" y="-233.08" font-family="Helvetica,sans-Serif" font-size="11.00" fill="#222222">odim:A_SleepDebtDecision</text>
<text text-anchor="middle" x="2589" y="-221.08" font-family="Helvetica,sans-Serif" font-size="11.00" fill="#222222">(odim:AlgorithmicComputation)</text>
</g>
<!-- SleepDebtDecision&#45;&gt;MeanSleep -->
<g id="edge40" class="edge">
<title>SleepDebtDecision&#45;&gt;MeanSleep</title>
<path fill="none" stroke="black" d="M2619.86,-207.64C2641.31,-192.87 2669.87,-173.21 2691.81,-158.11"/>
<polygon fill="black" stroke="black" points="2693.91,-160.91 2700.16,-152.35 2689.94,-155.14 2693.91,-160.91"/>
<text text-anchor="middle" x="2691" y="-177.25" font-family="Times,serif" font-size="10.00">prov:used</text>
</g>
<!-- SleepDebtDecision&#45;&gt;SleepBaseline -->
<g id="edge41" class="edge">
<title>SleepDebtDecision&#45;&gt;SleepBaseline</title>
<path fill="none" stroke="black" d="M2570.21,-207.17C2558.07,-193.13 2542.22,-174.81 2529.57,-160.18"/>
<polygon fill="black" stroke="black" points="2532.09,-157.75 2522.9,-152.48 2526.8,-162.33 2532.09,-157.75"/>
<text text-anchor="middle" x="2576" y="-177.25" font-family="Times,serif" font-size="10.00">prov:used</text>
</g>
<!-- SleepDebt -->
<g id="node36" class="node">
<title>SleepDebt</title>
<path fill="#e2f0d9" stroke="#666666" d="M2596.5,-343.51C2596.5,-343.51 2431.5,-343.51 2431.5,-343.51 2425.5,-343.51 2419.5,-337.51 2419.5,-331.51 2419.5,-331.51 2419.5,-319.51 2419.5,-319.51 2419.5,-313.51 2425.5,-307.51 2431.5,-307.51 2431.5,-307.51 2596.5,-307.51 2596.5,-307.51 2602.5,-307.51 2608.5,-313.51 2608.5,-319.51 2608.5,-319.51 2608.5,-331.51 2608.5,-331.51 2608.5,-337.51 2602.5,-343.51 2596.5,-343.51"/>
<text text-anchor="middle" x="2514" y="-328.71" font-family="Helvetica,sans-Serif" font-size="11.00" fill="#222222">odim:Marker_SleepDebt_Week1</text>
<text text-anchor="middle" x="2514" y="-316.71" font-family="Helvetica,sans-Serif" font-size="11.00" fill="#222222">(odim:DerivedFeature)</text>
</g>
<!-- SleepDebt&#45;&gt;SleepDebtDecision -->
<g id="edge42" class="edge">
<title>SleepDebt&#45;&gt;SleepDebtDecision</title>
<path fill="none" stroke="black" d="M2527.76,-307.34C2538.18,-294.33 2552.75,-276.14 2565.06,-260.76"/>
<polygon fill="black" stroke="black" points="2568.11,-262.55 2571.63,-252.56 2562.65,-258.18 2568.11,-262.55"/>
<text text-anchor="middle" x="2610.5" y="-277.51" font-family="Times,serif" font-size="10.00">odim:wasComputedBy</text>
</g>
<!-- Combine&#45;&gt;Marker -->
<g id="edge43" class="edge">
<title>Combine&#45;&gt;Marker</title>
<path fill="none" stroke="black" d="M2266.78,-398.42C2268.48,-385.16 2270.67,-368.09 2272.49,-353.91"/>
<polygon fill="black" stroke="black" points="2275.99,-354.1 2273.79,-343.74 2269.05,-353.21 2275.99,-354.1"/>
<text text-anchor="middle" x="2296" y="-368.51" font-family="Times,serif" font-size="10.00">prov:used</text>
</g>
<!-- Combine&#45;&gt;SleepDebt -->
<g id="edge44" class="edge">
<title>Combine&#45;&gt;SleepDebt</title>
<path fill="none" stroke="black" d="M2317.02,-400.28C2358.77,-384.64 2416.78,-362.92 2459.03,-347.1"/>
<polygon fill="black" stroke="black" points="2460.46,-350.3 2468.6,-343.51 2458.01,-343.74 2460.46,-350.3"/>
<text text-anchor="middle" x="2429" y="-368.51" font-family="Times,serif" font-size="10.00">prov:used</text>
</g>
<!-- TravelWin -->
<g id="node41" class="node">
<title>TravelWin</title>
<path fill="#fde2e4" stroke="#666666" d="M2095.5,-343.51C2095.5,-343.51 1954.5,-343.51 1954.5,-343.51 1948.5,-343.51 1942.5,-337.51 1942.5,-331.51 1942.5,-331.51 1942.5,-319.51 1942.5,-319.51 1942.5,-313.51 1948.5,-307.51 1954.5,-307.51 1954.5,-307.51 2095.5,-307.51 2095.5,-307.51 2101.5,-307.51 2107.5,-313.51 2107.5,-319.51 2107.5,-319.51 2107.5,-331.51 2107.5,-331.51 2107.5,-337.51 2101.5,-343.51 2095.5,-343.51"/>
<text text-anchor="middle" x="2025" y="-328.71" font-family="Helvetica,sans-Serif" font-size="11.00" fill="#222222">odim:TravelWindow_Week1</text>
<text text-anchor="middle" x="2025" y="-316.71" font-family="Helvetica,sans-Serif" font-size="11.00" fill="#222222">(odim:EventWindow)</text>
</g>
<!-- Combine&#45;&gt;TravelWin -->
<g id="edge45" class="edge">
<title>Combine&#45;&gt;TravelWin</title>
<path fill="none" stroke="black" d="M2213.02,-400.17C2173.3,-384.6 2118.31,-363.06 2078.06,-347.3"/>
<polygon fill="black" stroke="black" points="2079.27,-344.01 2068.68,-343.62 2076.72,-350.53 2079.27,-344.01"/>
<text text-anchor="middle" x="2177" y="-368.51" font-family="Times,serif" font-size="10.00">prov:used</text>
</g>
<!-- Phenotype&#45;&gt;Combine -->
<g id="edge46" class="edge">
<title>Phenotype&#45;&gt;Combine</title>
<path fill="none" stroke="black" d="M2068.01,-503.39C2106.07,-487.61 2163.12,-463.96 2205.87,-446.24"/>
<polygon fill="black" stroke="black" points="2207.41,-449.39 2215.31,-442.32 2204.73,-442.92 2207.41,-449.39"/>
<text text-anchor="middle" x="2209.5" y="-468.76" font-family="Times,serif" font-size="10.00">odim:wasComputedBy</text>
</g>
<!-- Week -->
<g id="node39" class="node">
<title>Week</title>
<path fill="#f3f4f6" stroke="#666666" d="M2084,-439.14C2084,-439.14 1970,-439.14 1970,-439.14 1964,-439.14 1958,-433.14 1958,-427.14 1958,-427.14 1958,-415.14 1958,-415.14 1958,-409.14 1964,-403.14 1970,-403.14 1970,-403.14 2084,-403.14 2084,-403.14 2090,-403.14 2096,-409.14 2096,-415.14 2096,-415.14 2096,-427.14 2096,-427.14 2096,-433.14 2090,-439.14 2084,-439.14"/>
<text text-anchor="middle" x="2027" y="-424.34" font-family="Helvetica,sans-Serif" font-size="11.00" fill="#222222">odim:Week1</text>
<text text-anchor="middle" x="2027" y="-412.34" font-family="Helvetica,sans-Serif" font-size="11.00" fill="#222222">(odim:WeeklyInterval)</text>
</g>
<!-- Phenotype&#45;&gt;Week -->
<g id="edge47" class="edge">
<title>Phenotype&#45;&gt;Week</title>
<path fill="none" stroke="black" d="M2027,-503.28C2027,-488.43 2027,-466.68 2027,-449.44"/>
<polygon fill="black" stroke="black" points="2030.5,-449.39 2027,-439.39 2023.5,-449.39 2030.5,-449.39"/>
<text text-anchor="middle" x="2076" y="-468.76" font-family="Times,serif" font-size="10.00">odim:occursDuring</text>
</g>
<!-- TravelDetect -->
<g id="node40" class="node">
<title>TravelDetect</title>
<ellipse fill="#fff2cc" stroke="#666666" cx="1993" cy="-229.88" rx="133.79" ry="22.76"/>
<text text-anchor="middle" x="1993" y="-233.08" font-family="Helvetica,sans-Serif" font-size="11.00" fill="#222222">odim:A_TravelDetection</text>
<text text-anchor="middle" x="1993" y="-221.08" font-family="Helvetica,sans-Serif" font-size="11.00" fill="#222222">(odim:AlgorithmicComputation)</text>
</g>
<!-- TravelDetect&#45;&gt;ObsLoc -->
<g id="edge20" class="edge">
<title>TravelDetect&#45;&gt;ObsLoc</title>
<path fill="none" stroke="black" d="M1905.4,-247.05C1743.94,-276.86 1388.5,-342.58 1089,-398.51 1084.26,-399.4 1079.4,-400.3 1074.5,-401.22"/>
<polygon fill="black" stroke="black" points="1073.58,-397.83 1064.39,-403.11 1074.87,-404.71 1073.58,-397.83"/>
<text text-anchor="middle" x="1593" y="-323.01" font-family="Times,serif" font-size="10.00">prov:used</text>
</g>
<!-- TravelDetect&#45;&gt;ObsDots -->
<g id="edge21" class="edge">
<title>TravelDetect&#45;&gt;ObsDots</title>
<path fill="none" stroke="black" stroke-dasharray="1,5" d="M1948.29,-208.42C1918.67,-194.83 1878.98,-176.56 1844,-160.25 1838.56,-157.72 1832.81,-155.02 1827.19,-152.38"/>
</g>
<!-- TravelThresh -->
<g id="node42" class="node">
<title>TravelThresh</title>
<path fill="#ffe5d9" stroke="#666666" d="M2005,-152.25C2005,-152.25 1871,-152.25 1871,-152.25 1865,-152.25 1859,-146.25 1859,-140.25 1859,-140.25 1859,-128.25 1859,-128.25 1859,-122.25 1865,-116.25 1871,-116.25 1871,-116.25 2005,-116.25 2005,-116.25 2011,-116.25 2017,-122.25 2017,-128.25 2017,-128.25 2017,-140.25 2017,-140.25 2017,-146.25 2011,-152.25 2005,-152.25"/>
<text text-anchor="middle" x="1938" y="-137.45" font-family="Helvetica,sans-Serif" font-size="11.00" fill="#222222">odim:Threshold_TravelKm</text>
<text text-anchor="middle" x="1938" y="-125.45" font-family="Helvetica,sans-Serif" font-size="11.00" fill="#222222">(prov:Entity)</text>
</g>
<!-- TravelDetect&#45;&gt;TravelThresh -->
<g id="edge22" class="edge">
<title>TravelDetect&#45;&gt;TravelThresh</title>
<path fill="none" stroke="black" d="M1980.24,-207.17C1972.23,-193.52 1961.83,-175.83 1953.36,-161.41"/>
<polygon fill="black" stroke="black" points="1956.2,-159.33 1948.12,-152.48 1950.17,-162.88 1956.2,-159.33"/>
<text text-anchor="middle" x="1993" y="-177.25" font-family="Times,serif" font-size="10.00">prov:used</text>
</g>
<!-- TravelWin&#45;&gt;TravelDetect -->
<g id="edge23" class="edge">
<title>TravelWin&#45;&gt;TravelDetect</title>
<path fill="none" stroke="black" d="M2019.13,-307.34C2014.81,-294.69 2008.81,-277.14 2003.65,-262.05"/>
<polygon fill="black" stroke="black" points="2006.96,-260.89 2000.41,-252.56 2000.33,-263.16 2006.96,-260.89"/>
<text text-anchor="middle" x="2067.5" y="-277.51" font-family="Times,serif" font-size="10.00">odim:wasComputedBy</text>
</g>
</g>
</svg>
