<?xml version="1.0" encoding="UTF-8" standalone="no"?>
<!DOCTYPE svg PUBLIC "-//W3C//DTD SVG 1.1//EN"
 "http://www.w3.org/Graphics/SVG/1.1/DTD/svg11.dtd">
<!-- Generated by graphviz version 2.43.0 (0)
 -->
<!-- Title: DemoFlow Pages: 1 -->
<svg width="1406pt" height="1106pt"
 viewBox="0.00 0.00 1406.00 1106.27" xmlns="http://www.w3.org/2000/svg" xmlns:xlink="http://www.w3.org/1999/xlink">
<g id="graph0" class="graph" transform="scale(1 1) rotate(0) translate(4 1102.27)">
<title>DemoFlow</title>
<polygon fill="white" stroke="transparent" points="-4,4 -4,-1102.27 1402,-1102.27 1402,4 -4,4"/>
<g id="clust1" class="cluster">
<title>cluster_legend</title>
<polygon fill="none" stroke="#e5e5e5" stroke-dasharray="5,2" points="8,-1015.27 8,-1086.27 519,-1086.27 519,-1015.27 8,-1015.27"/>
<text text-anchor="middle" x="263.5" y="-1074.27" font-family="Times,serif" font-size="10.00">Legend</text>
</g>
<g id="clust2" class="cluster">
<title>cluster_raw</title>
<polygon fill="none" stroke="#999999" stroke-dasharray="5,2" points="659,-8 659,-83 950,-83 950,-8 659,-8"/>
<text text-anchor="middle" x="804.5" y="-67.8" font-family="Times,serif" font-size="14.00">Raw (prov:Entity)</text>
</g>
<g id="clust3" class="cluster">
<title>cluster_import</title>
<polygon fill="none" stroke="#999999" stroke-dasharray="5,2" points="693,-116 693,-200.25 950,-200.25 950,-116 693,-116"/>
<text text-anchor="middle" x="821.5" y="-185.05" font-family="Times,serif" font-size="14.00">Import (odim:DataTransferEvent)</text>
</g>
<g id="clust4" class="cluster">
<title>cluster_obs</title>
<polygon fill="none" stroke="#999999" stroke-dasharray="5,2" points="1118,-1015.27 1118,-1090.27 1390,-1090.27 1390,-1015.27 1118,-1015.27"/>
<text text-anchor="middle" x="1254" y="-1075.07" font-family="Times,serif" font-size="14.00">Observations (SOSA/ODIM entities)</text>
</g>
<g id="clust5" class="cluster">
<title>cluster_daily</title>
<polygon fill="none" stroke="#999999" stroke-dasharray="5,2" points="449,-324.25 449,-499.51 1240,-499.51 1240,-324.25 449,-324.25"/>
<text text-anchor="middle" x="844.5" y="-484.31" font-family="Times,serif" font-size="14.00">Daily features (odim:DerivedFeature)</text>
</g>
<g id="clust6" class="cluster">
<title>cluster_weekly</title>
<polygon fill="none" stroke="#999999" stroke-dasharray="5,2" points="527,-532.51 527,-1090.27 1110,-1090.27 1110,-532.51 527,-532.51"/>
<text text-anchor="middle" x="818.5" y="-1075.07" font-family="Times,serif" font-size="14.00">Weekly aggregates → decisions → phenotype</text>
</g>
<!-- keyE -->
<g id="node1" class="node">
<title>keyE</title>
<path fill="none" stroke="black" d="M498.5,-1059.27C498.5,-1059.27 357.5,-1059.27 357.5,-1059.27 351.5,-1059.27 345.5,-1053.27 345.5,-1047.27 345.5,-1047.27 345.5,-1035.27 345.5,-1035.27 345.5,-1029.27 351.5,-1023.27 357.5,-1023.27 357.5,-1023.27 498.5,-1023.27 498.5,-1023.27 504.5,-1023.27 510.5,-1029.27 510.5,-1035.27 510.5,-1035.27 510.5,-1047.27 510.5,-1047.27 510.5,-1053.27 504.5,-1059.27 498.5,-1059.27"/>
<text text-anchor="middle" x="428" y="-1038.47" font-family="Helvetica,sans-Serif" font-size="11.00">Entity (prov:Entity, odim:*)</text>
</g>
<!-- keyA -->
<g id="node2" class="node">
<title>keyA</title>
<ellipse fill="none" stroke="black" cx="166" cy="-1041.27" rx="150.17" ry="18"/>
<text text-anchor="middle" x="166" y="-1038.47" font-family="Helvetica,sans-Serif" font-size="11.00">Activity (prov:Activity, odim:Computation)</text>
</g>
<!-- RawSteps -->
<g id="node3" class="node">
<title>RawSteps</title>
<path fill="none" stroke="black" d="M778.5,-52C778.5,-52 679.5,-52 679.5,-52 673.5,-52 667.5,-46 667.5,-40 667.5,-40 667.5,-28 667.5,-28 667.5,-22 673.5,-16 679.5,-16 679.5,-16 778.5,-16 778.5,-16 784.5,-16 790.5,-22 790.5,-28 790.5,-28 790.5,-40 790.5,-40 790.5,-46 784.5,-52 778.5,-52"/>
<text text-anchor="middle" x="729" y="-37.2" font-family="Helvetica,sans-Serif" font-size="11.00">odim:RawStepsCSV</text>
<text text-anchor="middle" x="729" y="-25.2" font-family="Helvetica,sans-Serif" font-size="11.00">(prov:Entity)</text>
</g>
<!-- RawSleep -->
<g id="node4" class="node">
<title>RawSleep</title>
<path fill="none" stroke="black" d="M930,-52C930,-52 832,-52 832,-52 826,-52 820,-46 820,-40 820,-40 820,-28 820,-28 820,-22 826,-16 832,-16 832,-16 930,-16 930,-16 936,-16 942,-22 942,-28 942,-28 942,-40 942,-40 942,-46 936,-52 930,-52"/>
<text text-anchor="middle" x="881" y="-37.2" font-family="Helvetica,sans-Serif" font-size="11.00">odim:RawSleepCSV</text>
<text text-anchor="middle" x="881" y="-25.2" font-family="Helvetica,sans-Serif" font-size="11.00">(prov:Entity)</text>
</g>
<!-- Import -->
<g id="node5" class="node">
<title>Import</title>
<ellipse fill="none" stroke="black" cx="821" cy="-146.63" rx="111.95" ry="22.76"/>
<text text-anchor="middle" x="821" y="-149.83" font-family="Helvetica,sans-Serif" font-size="11.00">odim:A_Import</text>
<text text-anchor="middle" x="821" y="-137.83" font-family="Helvetica,sans-Serif" font-size="11.00">(odim:DataTransferEvent)</text>
</g>
<!-- Import&#45;&gt;RawSteps -->
<g id="edge1" class="edge">
<title>Import&#45;&gt;RawSteps</title>
<path fill="none" stroke="black" d="M803.04,-124.03C787.76,-105.66 765.8,-79.25 749.77,-59.97"/>
<polygon fill="black" stroke="black" points="752.38,-57.64 743.29,-52.19 747,-62.11 752.38,-57.64"/>
<text text-anchor="middle" x="809" y="-94" font-family="Times,serif" font-size="10.00">prov:used</text>
</g>
<!-- Import&#45;&gt;RawSleep -->
<g id="edge2" class="edge">
<title>Import&#45;&gt;RawSleep</title>
<path fill="none" stroke="black" d="M832.71,-124.03C842.5,-105.99 856.49,-80.19 866.89,-61.01"/>
<polygon fill="black" stroke="black" points="869.99,-62.64 871.68,-52.19 863.83,-59.31 869.99,-62.64"/>
<text text-anchor="middle" x="875" y="-94" font-family="Times,serif" font-size="10.00">prov:used</text>
</g>
<!-- ObsSteps -->
<g id="node6" class="node">
<title>ObsSteps</title>
<path fill="none" stroke="black" d="M790,-277.25C790,-277.25 640,-277.25 640,-277.25 634,-277.25 628,-271.25 628,-265.25 628,-265.25 628,-253.25 628,-253.25 628,-247.25 634,-241.25 640,-241.25 640,-241.25 790,-241.25 790,-241.25 796,-241.25 802,-247.25 802,-253.25 802,-253.25 802,-265.25 802,-265.25 802,-271.25 796,-277.25 790,-277.25"/>
<text text-anchor="middle" x="715" y="-262.45" font-family="Helvetica,sans-Serif" font-size="11.00">odim:Obs_Steps_D1</text>
<text text-anchor="middle" x="715" y="-250.45" font-family="Helvetica,sans-Serif" font-size="11.00">(odim:ActivityMeasurement)</text>
</g>
<!-- ObsSteps&#45;&gt;Import -->
<g id="edge3" class="edge">
<title>ObsSteps&#45;&gt;Import</title>
<path fill="none" stroke="black" d="M730.18,-240.92C738.8,-231.19 749.86,-218.91 760,-208.25 770.19,-197.55 781.62,-186.06 791.8,-175.99"/>
<polygon fill="black" stroke="black" points="794.29,-178.45 798.97,-168.94 789.38,-173.46 794.29,-178.45"/>
<text text-anchor="middle" x="818" y="-211.25" font-family="Times,serif" font-size="10.00">odim:wasGeneratedBy</text>
</g>
<!-- ObsSleep -->
<g id="node7" class="node">
<title>ObsSleep</title>
<path fill="none" stroke="black" d="M1013,-277.25C1013,-277.25 843,-277.25 843,-277.25 837,-277.25 831,-271.25 831,-265.25 831,-265.25 831,-253.25 831,-253.25 831,-247.25 837,-241.25 843,-241.25 843,-241.25 1013,-241.25 1013,-241.25 1019,-241.25 1025,-247.25 1025,-253.25 1025,-253.25 1025,-265.25 1025,-265.25 1025,-271.25 1019,-277.25 1013,-277.25"/>
<text text-anchor="middle" x="928" y="-262.45" font-family="Helvetica,sans-Serif" font-size="11.00">odim:Obs_Sleep_D1</text>
<text text-anchor="middle" x="928" y="-250.45" font-family="Helvetica,sans-Serif" font-size="11.00">(odim:SleepStageMeasurement)</text>
</g>
<!-- ObsSleep&#45;&gt;Import -->
<g id="edge4" class="edge">
<title>ObsSleep&#45;&gt;Import</title>
<path fill="none" stroke="black" d="M911.28,-240.97C894.53,-223.65 868.45,-196.69 848.62,-176.19"/>
<polygon fill="black" stroke="black" points="851.1,-173.71 841.63,-168.96 846.07,-178.58 851.1,-173.71"/>
<text text-anchor="middle" x="945" y="-211.25" font-family="Times,serif" font-size="10.00">odim:wasGeneratedBy</text>
</g>
<!-- ObsDots -->
<g id="node8" class="node">
<title>ObsDots</title>
<text text-anchor="middle" x="1254" y="-1038.47" font-family="Helvetica,sans-Serif" font-size="11.00">… (D2..D7)</text>
</g>
<!-- DailyComp -->
<g id="node9" class="node">
<title>DailyComp</title>
<ellipse fill="none" stroke="black" cx="837" cy="-354.88" rx="133.79" ry="22.76"/>
<text text-anchor="middle" x="837" y="-358.08" font-family="Helvetica,sans-Serif" font-size="11.00">odim:A_DailySummary</text>
<text text-anchor="middle" x="837" y="-346.08" font-family="Helvetica,sans-Serif" font-size="11.00">(odim:AlgorithmicComputation)</text>
</g>
<!-- DailyComp&#45;&gt;ObsSteps -->
<g id="edge5" class="edge">
<title>DailyComp&#45;&gt;ObsSteps</title>
<path fill="none" stroke="black" d="M809.32,-332.64C790.25,-318 764.91,-298.56 745.3,-283.51"/>
<polygon fill="black" stroke="black" points="747.35,-280.67 737.28,-277.35 743.08,-286.22 747.35,-280.67"/>
<text text-anchor="middle" x="805" y="-302.25" font-family="Times,serif" font-size="10.00">prov:used</text>
</g>
<!-- DailyComp&#45;&gt;ObsSleep -->
<g id="edge6" class="edge">
<title>DailyComp&#45;&gt;ObsSleep</title>
<path fill="none" stroke="black" d="M858.11,-332.17C871.88,-318 889.88,-299.47 904.17,-284.78"/>
<polygon fill="black" stroke="black" points="906.8,-287.09 911.26,-277.48 901.78,-282.21 906.8,-287.09"/>
<text text-anchor="middle" x="913" y="-302.25" font-family="Times,serif" font-size="10.00">prov:used</text>
</g>
<!-- F1 -->
<g id="node10" class="node">
<title>F1</title>
<path fill="none" stroke="black" d="M586.5,-468.51C586.5,-468.51 469.5,-468.51 469.5,-468.51 463.5,-468.51 457.5,-462.51 457.5,-456.51 457.5,-456.51 457.5,-444.51 457.5,-444.51 457.5,-438.51 463.5,-432.51 469.5,-432.51 469.5,-432.51 586.5,-432.51 586.5,-432.51 592.5,-432.51 598.5,-438.51 598.5,-444.51 598.5,-444.51 598.5,-456.51 598.5,-456.51 598.5,-462.51 592.5,-468.51 586.5,-468.51"/>
<text text-anchor="middle" x="528" y="-453.71" font-family="Helvetica,sans-Serif" font-size="11.00">odim:F_DailySteps_D1</text>
<text text-anchor="middle" x="528" y="-441.71" font-family="Helvetica,sans-Serif" font-size="11.00">(odim:DerivedFeature)</text>
</g>
<!-- F1&#45;&gt;DailyComp -->
<g id="edge7" class="edge">
<title>F1&#45;&gt;DailyComp</title>
<path fill="none" stroke="black" d="M542.72,-432.43C553.33,-421.26 568.61,-407.34 585,-399.51 621.56,-382.04 664.08,-371.48 703.67,-365.13"/>
<polygon fill="black" stroke="black" points="704.31,-368.57 713.66,-363.6 703.25,-361.65 704.31,-368.57"/>
<text text-anchor="middle" x="642.5" y="-402.51" font-family="Times,serif" font-size="10.00">odim:wasComputedBy</text>
</g>
<!-- F2 -->
<g id="node11" class="node">
<title>F2</title>
<path fill="none" stroke="black" d="M756.5,-468.51C756.5,-468.51 639.5,-468.51 639.5,-468.51 633.5,-468.51 627.5,-462.51 627.5,-456.51 627.5,-456.51 627.5,-444.51 627.5,-444.51 627.5,-438.51 633.5,-432.51 639.5,-432.51 639.5,-432.51 756.5,-432.51 756.5,-432.51 762.5,-432.51 768.5,-438.51 768.5,-444.51 768.5,-444.51 768.5,-456.51 768.5,-456.51 768.5,-462.51 762.5,-468.51 756.5,-468.51"/>
<text text-anchor="middle" x="698" y="-453.71" font-family="Helvetica,sans-Serif" font-size="11.00">odim:F_DailySteps_D2</text>
<text text-anchor="middle" x="698" y="-441.71" font-family="Helvetica,sans-Serif" font-size="11.00">(odim:DerivedFeature)</text>
</g>
<!-- F2&#45;&gt;DailyComp -->
<g id="edge8" class="edge">
<title>F2&#45;&gt;DailyComp</title>
<path fill="none" stroke="black" d="M700.03,-432.23C702.13,-421.55 706.38,-408.26 715,-399.51 724.12,-390.25 735.33,-382.95 747.23,-377.19"/>
<polygon fill="black" stroke="black" points="748.74,-380.35 756.45,-373.08 745.89,-373.96 748.74,-380.35"/>
<text text-anchor="middle" x="772.5" y="-402.51" font-family="Times,serif" font-size="10.00">odim:wasComputedBy</text>
</g>
<!-- FDots -->
<g id="node12" class="node">
<title>FDots</title>
<text text-anchor="middle" x="837" y="-447.71" font-family="Helvetica,sans-Serif" font-size="11.00">… (D3..D7)</text>
</g>
<!-- FDots&#45;&gt;DailyComp -->
<g id="edge11" class="edge">
<title>FDots&#45;&gt;DailyComp</title>
<path fill="none" stroke="black" stroke-dasharray="1,5" d="M837,-432.34C837,-416.92 837,-394.22 837,-377.56"/>
</g>
<!-- SQ1 -->
<g id="node13" class="node">
<title>SQ1</title>
<path fill="none" stroke="black" d="M1042.5,-468.51C1042.5,-468.51 917.5,-468.51 917.5,-468.51 911.5,-468.51 905.5,-462.51 905.5,-456.51 905.5,-456.51 905.5,-444.51 905.5,-444.51 905.5,-438.51 911.5,-432.51 917.5,-432.51 917.5,-432.51 1042.5,-432.51 1042.5,-432.51 1048.5,-432.51 1054.5,-438.51 1054.5,-444.51 1054.5,-444.51 1054.5,-456.51 1054.5,-456.51 1054.5,-462.51 1048.5,-468.51 1042.5,-468.51"/>
<text text-anchor="middle" x="980" y="-453.71" font-family="Helvetica,sans-Serif" font-size="11.00">odim:F_SleepQuality_D1</text>
<text text-anchor="middle" x="980" y="-441.71" font-family="Helvetica,sans-Serif" font-size="11.00">(odim:DerivedFeature)</text>
</g>
<!-- SQ1&#45;&gt;DailyComp -->
<g id="edge9" class="edge">
<title>SQ1&#45;&gt;DailyComp</title>
<path fill="none" stroke="black" d="M953.77,-432.34C932.42,-418.36 901.92,-398.39 877.45,-382.37"/>
<polygon fill="black" stroke="black" points="879.35,-379.43 869.07,-376.88 875.52,-385.29 879.35,-379.43"/>
<text text-anchor="middle" x="974.5" y="-402.51" font-family="Times,serif" font-size="10.00">odim:wasComputedBy</text>
</g>
<!-- SQ2 -->
<g id="node14" class="node">
<title>SQ2</title>
<path fill="none" stroke="black" d="M1220.5,-468.51C1220.5,-468.51 1095.5,-468.51 1095.5,-468.51 1089.5,-468.51 1083.5,-462.51 1083.5,-456.51 1083.5,-456.51 1083.5,-444.51 1083.5,-444.51 1083.5,-438.51 1089.5,-432.51 1095.5,-432.51 1095.5,-432.51 1220.5,-432.51 1220.5,-432.51 1226.5,-432.51 1232.5,-438.51 1232.5,-444.51 1232.5,-444.51 1232.5,-456.51 1232.5,-456.51 1232.5,-462.51 1226.5,-468.51 1220.5,-468.51"/>
<text text-anchor="middle" x="1158" y="-453.71" font-family="Helvetica,sans-Serif" font-size="11.00">odim:F_SleepQuality_D2</text>
<text text-anchor="middle" x="1158" y="-441.71" font-family="Helvetica,sans-Serif" font-size="11.00">(odim:DerivedFeature)</text>
</g>
<!-- SQ2&#45;&gt;DailyComp -->
<g id="edge10" class="edge">
<title>SQ2&#45;&gt;DailyComp</title>
<path fill="none" stroke="black" d="M1122.19,-432.41C1098.9,-421.81 1067.64,-408.53 1039,-399.51 1006.36,-389.23 970,-380.55 937.22,-373.71"/>
<polygon fill="black" stroke="black" points="937.68,-370.23 927.18,-371.64 936.27,-377.08 937.68,-370.23"/>
<text text-anchor="middle" x="1126.5" y="-402.51" font-family="Times,serif" font-size="10.00">odim:wasComputedBy</text>
</g>
<!-- WeeklySteps -->
<g id="node15" class="node">
<title>WeeklySteps</title>
<ellipse fill="none" stroke="black" cx="674" cy="-563.14" rx="133.79" ry="22.76"/>
<text text-anchor="middle" x="674" y="-566.34" font-family="Helvetica,sans-Serif" font-size="11.00">odim:A_WeeklyAggregateSteps</text>
<text text-anchor="middle" x="674" y="-554.34" font-family="Helvetica,sans-Serif" font-size="11.00">(odim:AlgorithmicComputation)</text>
</g>
<!-- WeeklySteps&#45;&gt;F1 -->
<g id="edge12" class="edge">
<title>WeeklySteps&#45;&gt;F1</title>
<path fill="none" stroke="black" d="M645.85,-540.81C620.98,-521.97 584.78,-494.54 559.08,-475.06"/>
<polygon fill="black" stroke="black" points="560.88,-472.03 550.79,-468.78 556.65,-477.61 560.88,-472.03"/>
<text text-anchor="middle" x="640" y="-510.51" font-family="Times,serif" font-size="10.00">prov:used</text>
</g>
<!-- WeeklySteps&#45;&gt;F2 -->
<g id="edge13" class="edge">
<title>WeeklySteps&#45;&gt;F2</title>
<path fill="none" stroke="black" d="M678.74,-540.28C682.59,-522.54 688.04,-497.43 692.16,-478.44"/>
<polygon fill="black" stroke="black" points="695.59,-479.13 694.29,-468.61 688.75,-477.64 695.59,-479.13"/>
<text text-anchor="middle" x="711" y="-510.51" font-family="Times,serif" font-size="10.00">prov:used</text>
</g>
<!-- WeeklySteps&#45;&gt;FDots -->
<g id="edge14" class="edge">
<title>WeeklySteps&#45;&gt;FDots</title>
<path fill="none" stroke="black" stroke-dasharray="1,5" d="M714.31,-541.55C735.41,-530.14 761.3,-515.13 783,-499.51 795.83,-490.27 809.11,-478.5 819.29,-468.93"/>
</g>
<!-- MeanSteps -->
<g id="node16" class="node">
<title>MeanSteps</title>
<path fill="none" stroke="black" d="M681.5,-676.76C681.5,-676.76 546.5,-676.76 546.5,-676.76 540.5,-676.76 534.5,-670.76 534.5,-664.76 534.5,-664.76 534.5,-652.76 534.5,-652.76 534.5,-646.76 540.5,-640.76 546.5,-640.76 546.5,-640.76 681.5,-640.76 681.5,-640.76 687.5,-640.76 693.5,-646.76 693.5,-652.76 693.5,-652.76 693.5,-664.76 693.5,-664.76 693.5,-670.76 687.5,-676.76 681.5,-676.76"/>
<text text-anchor="middle" x="614" y="-661.96" font-family="Helvetica,sans-Serif" font-size="11.00">odim:F_WeeklyMeanSteps</text>
<text text-anchor="middle" x="614" y="-649.96" font-family="Helvetica,sans-Serif" font-size="11.00">(odim:DerivedFeature)</text>
</g>
<!-- MeanSteps&#45;&gt;WeeklySteps -->
<g id="edge15" class="edge">
<title>MeanSteps&#45;&gt;WeeklySteps</title>
<path fill="none" stroke="black" d="M625,-640.59C633.26,-627.71 644.78,-609.73 654.58,-594.44"/>
<polygon fill="black" stroke="black" points="657.66,-596.12 660.11,-585.82 651.77,-592.35 657.66,-596.12"/>
<text text-anchor="middle" x="702.5" y="-610.76" font-family="Times,serif" font-size="10.00">odim:wasComputedBy</text>
</g>
<!-- Thresh -->
<g id="node17" class="node">
<title>Thresh</title>
<path fill="none" stroke="black" d="M869.5,-676.76C869.5,-676.76 734.5,-676.76 734.5,-676.76 728.5,-676.76 722.5,-670.76 722.5,-664.76 722.5,-664.76 722.5,-652.76 722.5,-652.76 722.5,-646.76 728.5,-640.76 734.5,-640.76 734.5,-640.76 869.5,-640.76 869.5,-640.76 875.5,-640.76 881.5,-646.76 881.5,-652.76 881.5,-652.76 881.5,-664.76 881.5,-664.76 881.5,-670.76 875.5,-676.76 869.5,-676.76"/>
<text text-anchor="middle" x="802" y="-661.96" font-family="Helvetica,sans-Serif" font-size="11.00">odim:Threshold_LowSteps</text>
<text text-anchor="middle" x="802" y="-649.96" font-family="Helvetica,sans-Serif" font-size="11.00">(prov:Entity)</text>
</g>
<!-- StepsDecision -->
<g id="node18" class="node">
<title>StepsDecision</title>
<ellipse fill="none" stroke="black" cx="670" cy="-754.39" rx="135.11" ry="22.76"/>
<text text-anchor="middle" x="670" y="-757.59" font-family="Helvetica,sans-Serif" font-size="11.00">odim:A_StepsThresholdDecision</text>
<text text-anchor="middle" x="670" y="-745.59" font-family="Helvetica,sans-Serif" font-size="11.00">(odim:AlgorithmicComputation)</text>
</g>
<!-- StepsDecision&#45;&gt;MeanSteps -->
<g id="edge16" class="edge">
<title>StepsDecision&#45;&gt;MeanSteps</title>
<path fill="none" stroke="black" d="M657.01,-731.68C648.85,-718.03 638.27,-700.34 629.64,-685.92"/>
<polygon fill="black" stroke="black" points="632.44,-683.78 624.3,-676.99 626.43,-687.37 632.44,-683.78"/>
<text text-anchor="middle" x="669" y="-701.76" font-family="Times,serif" font-size="10.00">prov:used</text>
</g>
<!-- StepsDecision&#45;&gt;Thresh -->
<g id="edge17" class="edge">
<title>StepsDecision&#45;&gt;Thresh</title>
<path fill="none" stroke="black" d="M699.95,-732.15C720.68,-717.45 748.24,-697.89 769.5,-682.82"/>
<polygon fill="black" stroke="black" points="771.76,-685.5 777.89,-676.86 767.71,-679.79 771.76,-685.5"/>
<text text-anchor="middle" x="769" y="-701.76" font-family="Times,serif" font-size="10.00">prov:used</text>
</g>
<!-- Marker -->
<g id="node19" class="node">
<title>Marker</title>
<path fill="none" stroke="black" stroke-width="2" d="M787,-868.02C787,-868.02 587,-868.02 587,-868.02 581,-868.02 575,-862.02 575,-856.02 575,-856.02 575,-844.02 575,-844.02 575,-838.02 581,-832.02 587,-832.02 587,-832.02 787,-832.02 787,-832.02 793,-832.02 799,-838.02 799,-844.02 799,-844.02 799,-856.02 799,-856.02 799,-862.02 793,-868.02 787,-868.02"/>
<text text-anchor="middle" x="687" y="-853.22" font-family="Helvetica,sans-Serif" font-size="11.00">odim:Marker_LowActivityDuringTravel</text>
<text text-anchor="middle" x="687" y="-841.22" font-family="Helvetica,sans-Serif" font-size="11.00">(odim:DerivedFeature)</text>
</g>
<!-- Marker&#45;&gt;StepsDecision -->
<g id="edge18" class="edge">
<title>Marker&#45;&gt;StepsDecision</title>
<path fill="none" stroke="black" d="M683.88,-831.85C681.61,-819.32 678.46,-801.99 675.74,-786.99"/>
<polygon fill="black" stroke="black" points="679.17,-786.28 673.94,-777.07 672.28,-787.53 679.17,-786.28"/>
<text text-anchor="middle" x="736.5" y="-802.02" font-family="Times,serif" font-size="10.00">odim:wasComputedBy</text>
</g>
<!-- WeeklySleep -->
<g id="node20" class="node">
<title>WeeklySleep</title>
<ellipse fill="none" stroke="black" cx="968" cy="-754.39" rx="133.79" ry="22.76"/>
<text text-anchor="middle" x="968" y="-757.59" font-family="Helvetica,sans-Serif" font-size="11.00">odim:A_WeeklyAggregateSleep</text>
<text text-anchor="middle" x="968" y="-745.59" font-family="Helvetica,sans-Serif" font-size="11.00">(odim:AlgorithmicComputation)</text>
</g>
<!-- WeeklySleep&#45;&gt;FDots -->
<g id="edge21" class="edge">
<title>WeeklySleep&#45;&gt;FDots</title>
<path fill="none" stroke="black" stroke-dasharray="1,5" d="M958.58,-731.68C933.76,-674.49 866.97,-520.57 844.49,-468.78"/>
</g>
<!-- WeeklySleep&#45;&gt;SQ1 -->
<g id="edge19" class="edge">
<title>WeeklySleep&#45;&gt;SQ1</title>
<path fill="none" stroke="black" d="M968.86,-731.68C971,-677.85 976.55,-538.27 978.91,-478.89"/>
<polygon fill="black" stroke="black" points="982.41,-478.91 979.31,-468.78 975.42,-478.63 982.41,-478.91"/>
<text text-anchor="middle" x="999" y="-610.76" font-family="Times,serif" font-size="10.00">prov:used</text>
</g>
<!-- WeeklySleep&#45;&gt;SQ2 -->
<g id="edge20" class="edge">
<title>WeeklySleep&#45;&gt;SQ2</title>
<path fill="none" stroke="black" d="M981.66,-731.68C1015.83,-677.4 1104.85,-535.95 1141.68,-477.43"/>
<polygon fill="black" stroke="black" points="1144.77,-479.11 1147.13,-468.78 1138.84,-475.38 1144.77,-479.11"/>
<text text-anchor="middle" x="1084" y="-610.76" font-family="Times,serif" font-size="10.00">prov:used</text>
</g>
<!-- MeanSleep -->
<g id="node21" class="node">
<title>MeanSleep</title>
<path fill="none" stroke="black" d="M1043,-868.02C1043,-868.02 869,-868.02 869,-868.02 863,-868.02 857,-862.02 857,-856.02 857,-856.02 857,-844.02 857,-844.02 857,-838.02 863,-832.02 869,-832.02 869,-832.02 1043,-832.02 1043,-832.02 1049,-832.02 1055,-838.02 1055,-844.02 1055,-844.02 1055,-856.02 1055,-856.02 1055,-862.02 1049,-868.02 1043,-868.02"/>
<text text-anchor="middle" x="956" y="-853.22" font-family="Helvetica,sans-Serif" font-size="11.00">odim:F_WeeklyMeanSleepQuality</text>
<text text-anchor="middle" x="956" y="-841.22" font-family="Helvetica,sans-Serif" font-size="11.00">(odim:DerivedFeature)</text>
</g>
<!-- MeanSleep&#45;&gt;WeeklySleep -->
<g id="edge22" class="edge">
<title>MeanSleep&#45;&gt;WeeklySleep</title>
<path fill="none" stroke="black" d="M958.2,-831.85C959.81,-819.32 962.03,-801.99 963.95,-786.99"/>
<polygon fill="black" stroke="black" points="967.42,-787.43 965.22,-777.07 960.48,-786.54 967.42,-787.43"/>
<text text-anchor="middle" x="1019.5" y="-802.02" font-family="Times,serif" font-size="10.00">odim:wasComputedBy</text>
</g>
<!-- Combine -->
<g id="node22" class="node">
<title>Combine</title>
<ellipse fill="none" stroke="black" cx="744" cy="-945.65" rx="133.79" ry="22.76"/>
<text text-anchor="middle" x="744" y="-948.85" font-family="Helvetica,sans-Serif" font-size="11.00">odim:A_MarkerDerivation</text>
<text text-anchor="middle" x="744" y="-936.85" font-family="Helvetica,sans-Serif" font-size="11.00">(odim:AlgorithmicComputation)</text>
</g>
<!-- Combine&#45;&gt;Marker -->
<g id="edge23" class="edge">
<title>Combine&#45;&gt;Marker</title>
<path fill="none" stroke="black" d="M725.67,-923.17C720.27,-916.32 714.59,-908.57 710,-901.02 705.53,-893.67 701.36,-885.31 697.83,-877.56"/>
<polygon fill="black" stroke="black" points="700.95,-875.94 693.73,-868.18 694.53,-878.75 700.95,-875.94"/>
<text text-anchor="middle" x="736" y="-893.02" font-family="Times,serif" font-size="10.00">prov:used</text>
</g>
<!-- Combine&#45;&gt;MeanSleep -->
<g id="edge24" class="edge">
<title>Combine&#45;&gt;MeanSleep</title>
<path fill="none" stroke="black" d="M790,-924.33C824.88,-908.93 872.68,-887.82 908.03,-872.2"/>
<polygon fill="black" stroke="black" points="909.46,-875.4 917.19,-868.16 906.63,-869 909.46,-875.4"/>
<text text-anchor="middle" x="888" y="-893.02" font-family="Times,serif" font-size="10.00">prov:used</text>
</g>
<!-- Phenotype -->
<g id="node23" class="node">
<title>Phenotype</title>
<path fill="none" stroke="black" stroke-width="2" d="M981.5,-1059.27C981.5,-1059.27 738.5,-1059.27 738.5,-1059.27 732.5,-1059.27 726.5,-1053.27 726.5,-1047.27 726.5,-1047.27 726.5,-1035.27 726.5,-1035.27 726.5,-1029.27 732.5,-1023.27 738.5,-1023.27 738.5,-1023.27 981.5,-1023.27 981.5,-1023.27 987.5,-1023.27 993.5,-1029.27 993.5,-1035.27 993.5,-1035.27 993.5,-1047.27 993.5,-1047.27 993.5,-1053.27 987.5,-1059.27 981.5,-1059.27"/>
<text text-anchor="middle" x="860" y="-1044.47" font-family="Helvetica,sans-Serif" font-size="11.00">odim:Phenotype_LowActivityPoorSleep_Travel</text>
<text text-anchor="middle" x="860" y="-1032.47" font-family="Helvetica,sans-Serif" font-size="11.00">(odim:ActivityPhenotype)</text>
</g>
<!-- Phenotype&#45;&gt;Combine -->
<g id="edge25" class="edge">
<title>Phenotype&#45;&gt;Combine</title>
<path fill="none" stroke="black" d="M833.84,-1023.1C824.26,-1016.53 813.45,-1008.81 804,-1001.27 793.85,-993.17 783.23,-983.82 773.79,-975.17"/>
<polygon fill="black" stroke="black" points="775.89,-972.35 766.18,-968.12 771.13,-977.48 775.89,-972.35"/>
<text text-anchor="middle" x="861.5" y="-993.27" font-family="Times,serif" font-size="10.00">odim:wasComputedBy</text>
</g>
<!-- Week -->
<g id="node24" class="node">
<title>Week</title>
<path fill="none" stroke="black" d="M1033,-963.65C1033,-963.65 919,-963.65 919,-963.65 913,-963.65 907,-957.65 907,-951.65 907,-951.65 907,-939.65 907,-939.65 907,-933.65 913,-927.65 919,-927.65 919,-927.65 1033,-927.65 1033,-927.65 1039,-927.65 1045,-933.65 1045,-939.65 1045,-939.65 1045,-951.65 1045,-951.65 1045,-957.65 1039,-963.65 1033,-963.65"/>
<text text-anchor="middle" x="976" y="-948.85" font-family="Helvetica,sans-Serif" font-size="11.00">odim:Week1</text>
<text text-anchor="middle" x="976" y="-936.85" font-family="Helvetica,sans-Serif" font-size="11.00">(odim:WeeklyInterval)</text>
</g>
<!-- Phenotype&#45;&gt;Week -->
<g id="edge26" class="edge">
<title>Phenotype&#45;&gt;Week</title>
<path fill="none" stroke="black" d="M890.28,-1023.15C900.69,-1016.77 912.18,-1009.15 922,-1001.27 933.16,-992.32 944.45,-981.27 953.81,-971.46"/>
<polygon fill="black" stroke="black" points="956.58,-973.62 960.85,-963.92 951.47,-968.84 956.58,-973.62"/>
<text text-anchor="middle" x="983" y="-993.27" font-family="Times,serif" font-size="10.00">odim:occursDuring</text>
</g>
</g>
</svg>
