<?xml version="1.0" encoding="UTF-8" standalone="no"?>
<!DOCTYPE svg PUBLIC "-//W3C//DTD SVG 1.1//EN"
 "http://www.w3.org/Graphics/SVG/1.1/DTD/svg11.dtd">
<!-- Generated by graphviz version 2.43.0 (0)
 -->
<!-- Title: DemoFlow Pages: 1 -->
<svg width="2397pt" height="1116pt"
 viewBox="0.00 0.00 2396.61 1115.94" xmlns="http://www.w3.org/2000/svg" xmlns:xlink="http://www.w3.org/1999/xlink">
<g id="graph0" class="graph" transform="scale(1 1) rotate(0) translate(4 1111.94)">
<title>DemoFlow</title>
<polygon fill="white" stroke="transparent" points="-4,4 -4,-1111.94 2392.61,-1111.94 2392.61,4 -4,4"/>
<g id="clust1" class="cluster">
<title>cluster_legend</title>
<polygon fill="none" stroke="#e5e5e5" stroke-dasharray="5,2" points="8,-1015.27 8,-1086.27 1073,-1086.27 1073,-1015.27 8,-1015.27"/>
<text text-anchor="middle" x="36" y="-1074.27" font-family="Times,serif" font-size="10.00">Legend</text>
</g>
<g id="clust2" class="cluster">
<title>cluster_raw</title>
<polygon fill="none" stroke="#999999" stroke-dasharray="5,2" points="1481,-8 1481,-83 1941,-83 1941,-8 1481,-8"/>
<text text-anchor="middle" x="1552.5" y="-67.8" font-family="Times,serif" font-size="14.00">Raw (prov:Entity)</text>
</g>
<g id="clust3" class="cluster">
<title>cluster_import</title>
<polygon fill="none" stroke="#999999" stroke-dasharray="5,2" points="1581,-116 1581,-200.25 1838,-200.25 1838,-116 1581,-116"/>
<text text-anchor="middle" x="1709.5" y="-185.05" font-family="Times,serif" font-size="14.00">Import (odim:DataTransferEvent)</text>
</g>
<g id="clust4" class="cluster">
<title>cluster_obs</title>
</g>
<g id="clust5" class="cluster">
<title>cluster_daily</title>
<polygon fill="none" stroke="#999999" stroke-dasharray="5,2" points="1069,-324.25 1069,-499.51 1866,-499.51 1866,-324.25 1069,-324.25"/>
<text text-anchor="middle" x="1211" y="-484.31" font-family="Times,serif" font-size="14.00">Daily features (odim:DerivedFeature)</text>
</g>
<g id="clust6" class="cluster">
<title>cluster_weekly</title>
<polygon fill="none" stroke="#999999" stroke-dasharray="5,2" points="1116,-532.51 1116,-1090.27 2100,-1090.27 2100,-532.51 1116,-532.51"/>
<text text-anchor="middle" x="1283.5" y="-1075.07" font-family="Times,serif" font-size="14.00">Weekly aggregates → decisions → phenotype</text>
</g>
<!-- Lraw -->
<g id="node1" class="node">
<title>Lraw</title>
<path fill="#eeeeee" stroke="#666666" d="M1052.5,-1059.27C1052.5,-1059.27 963.5,-1059.27 963.5,-1059.27 957.5,-1059.27 951.5,-1053.27 951.5,-1047.27 951.5,-1047.27 951.5,-1035.27 951.5,-1035.27 951.5,-1029.27 957.5,-1023.27 963.5,-1023.27 963.5,-1023.27 1052.5,-1023.27 1052.5,-1023.27 1058.5,-1023.27 1064.5,-1029.27 1064.5,-1035.27 1064.5,-1035.27 1064.5,-1047.27 1064.5,-1047.27 1064.5,-1053.27 1058.5,-1059.27 1052.5,-1059.27"/>
<text text-anchor="middle" x="1008" y="-1038.47" font-family="Helvetica,sans-Serif" font-size="11.00" fill="#222222">Raw (prov:Entity)</text>
</g>
<!-- Lobs -->
<g id="node2" class="node">
<title>Lobs</title>
<path fill="#ddeeff" stroke="#666666" d="M910.5,-1059.27C910.5,-1059.27 805.5,-1059.27 805.5,-1059.27 799.5,-1059.27 793.5,-1053.27 793.5,-1047.27 793.5,-1047.27 793.5,-1035.27 793.5,-1035.27 793.5,-1029.27 799.5,-1023.27 805.5,-1023.27 805.5,-1023.27 910.5,-1023.27 910.5,-1023.27 916.5,-1023.27 922.5,-1029.27 922.5,-1035.27 922.5,-1035.27 922.5,-1047.27 922.5,-1047.27 922.5,-1053.27 916.5,-1059.27 910.5,-1059.27"/>
<text text-anchor="middle" x="858" y="-1038.47" font-family="Helvetica,sans-Serif" font-size="11.00" fill="#222222">Observation (entity)</text>
</g>
<!-- Lfeat -->
<g id="node3" class="node">
<title>Lfeat</title>
<path fill="#e2f0d9" stroke="#666666" d="M752,-1059.27C752,-1059.27 628,-1059.27 628,-1059.27 622,-1059.27 616,-1053.27 616,-1047.27 616,-1047.27 616,-1035.27 616,-1035.27 616,-1029.27 622,-1023.27 628,-1023.27 628,-1023.27 752,-1023.27 752,-1023.27 758,-1023.27 764,-1029.27 764,-1035.27 764,-1035.27 764,-1047.27 764,-1047.27 764,-1053.27 758,-1059.27 752,-1059.27"/>
<text text-anchor="middle" x="690" y="-1038.47" font-family="Helvetica,sans-Serif" font-size="11.00" fill="#222222">Derived feature (entity)</text>
</g>
<!-- Lact -->
<g id="node4" class="node">
<title>Lact</title>
<ellipse fill="#fff2cc" stroke="#666666" cx="502" cy="-1041.27" rx="84.58" ry="18"/>
<text text-anchor="middle" x="502" y="-1038.47" font-family="Helvetica,sans-Serif" font-size="11.00" fill="#222222">Computation (activity)</text>
</g>
<!-- Lparam -->
<g id="node5" class="node">
<title>Lparam</title>
<path fill="#ffe5d9" stroke="#666666" d="M376,-1059.27C376,-1059.27 254,-1059.27 254,-1059.27 248,-1059.27 242,-1053.27 242,-1047.27 242,-1047.27 242,-1035.27 242,-1035.27 242,-1029.27 248,-1023.27 254,-1023.27 254,-1023.27 376,-1023.27 376,-1023.27 382,-1023.27 388,-1029.27 388,-1035.27 388,-1035.27 388,-1047.27 388,-1047.27 388,-1053.27 382,-1059.27 376,-1059.27"/>
<text text-anchor="middle" x="315" y="-1038.47" font-family="Helvetica,sans-Serif" font-size="11.00" fill="#222222">Parameter (prov:Entity)</text>
</g>
<!-- Lwin -->
<g id="node6" class="node">
<title>Lwin</title>
<path fill="#fde2e4" stroke="#666666" d="M200.5,-1059.27C200.5,-1059.27 131.5,-1059.27 131.5,-1059.27 125.5,-1059.27 119.5,-1053.27 119.5,-1047.27 119.5,-1047.27 119.5,-1035.27 119.5,-1035.27 119.5,-1029.27 125.5,-1023.27 131.5,-1023.27 131.5,-1023.27 200.5,-1023.27 200.5,-1023.27 206.5,-1023.27 212.5,-1029.27 212.5,-1035.27 212.5,-1035.27 212.5,-1047.27 212.5,-1047.27 212.5,-1053.27 206.5,-1059.27 200.5,-1059.27"/>
<text text-anchor="middle" x="166" y="-1038.47" font-family="Helvetica,sans-Serif" font-size="11.00" fill="#222222">Event window</text>
</g>
<!-- Lpheno -->
<g id="node7" class="node">
<title>Lpheno</title>
<path fill="#ede7f6" stroke="#666666" d="M78.5,-1059.27C78.5,-1059.27 27.5,-1059.27 27.5,-1059.27 21.5,-1059.27 15.5,-1053.27 15.5,-1047.27 15.5,-1047.27 15.5,-1035.27 15.5,-1035.27 15.5,-1029.27 21.5,-1023.27 27.5,-1023.27 27.5,-1023.27 78.5,-1023.27 78.5,-1023.27 84.5,-1023.27 90.5,-1029.27 90.5,-1035.27 90.5,-1035.27 90.5,-1047.27 90.5,-1047.27 90.5,-1053.27 84.5,-1059.27 78.5,-1059.27"/>
<text text-anchor="middle" x="53" y="-1038.47" font-family="Helvetica,sans-Serif" font-size="11.00" fill="#222222">Phenotype</text>
</g>
<!-- CenterAnchor -->
<!-- CenterAnchor&#45;&gt;Lfeat -->
<!-- RawSleep -->
<g id="node10" class="node">
<title>RawSleep</title>
<path fill="#eeeeee" stroke="#666666" d="M1752,-52C1752,-52 1654,-52 1654,-52 1648,-52 1642,-46 1642,-40 1642,-40 1642,-28 1642,-28 1642,-22 1648,-16 1654,-16 1654,-16 1752,-16 1752,-16 1758,-16 1764,-22 1764,-28 1764,-28 1764,-40 1764,-40 1764,-46 1758,-52 1752,-52"/>
<text text-anchor="middle" x="1703" y="-37.2" font-family="Helvetica,sans-Serif" font-size="11.00" fill="#222222">odim:RawSleepCSV</text>
<text text-anchor="middle" x="1703" y="-25.2" font-family="Helvetica,sans-Serif" font-size="11.00" fill="#222222">(prov:Entity)</text>
</g>
<!-- CenterAnchor&#45;&gt;RawSleep -->
<!-- Import -->
<g id="node12" class="node">
<title>Import</title>
<ellipse fill="#fff2cc" stroke="#666666" cx="1703" cy="-146.63" rx="111.95" ry="22.76"/>
<text text-anchor="middle" x="1703" y="-149.83" font-family="Helvetica,sans-Serif" font-size="11.00" fill="#222222">odim:A_Import</text>
<text text-anchor="middle" x="1703" y="-137.83" font-family="Helvetica,sans-Serif" font-size="11.00" fill="#222222">(odim:DataTransferEvent)</text>
</g>
<!-- CenterAnchor&#45;&gt;Import -->
<!-- DailyComp -->
<g id="node17" class="node">
<title>DailyComp</title>
<ellipse fill="#fff2cc" stroke="#666666" cx="1490" cy="-354.88" rx="133.79" ry="22.76"/>
<text text-anchor="middle" x="1490" y="-358.08" font-family="Helvetica,sans-Serif" font-size="11.00" fill="#222222">odim:A_DailySummary</text>
<text text-anchor="middle" x="1490" y="-346.08" font-family="Helvetica,sans-Serif" font-size="11.00" fill="#222222">(odim:AlgorithmicComputation)</text>
</g>
<!-- CenterAnchor&#45;&gt;DailyComp -->
<!-- Combine -->
<g id="node33" class="node">
<title>Combine</title>
<ellipse fill="#fff2cc" stroke="#666666" cx="1662" cy="-945.65" rx="133.79" ry="22.76"/>
<text text-anchor="middle" x="1662" y="-948.85" font-family="Helvetica,sans-Serif" font-size="11.00" fill="#222222">odim:A_MarkerDerivation</text>
<text text-anchor="middle" x="1662" y="-936.85" font-family="Helvetica,sans-Serif" font-size="11.00" fill="#222222">(odim:AlgorithmicComputation)</text>
</g>
<!-- CenterAnchor&#45;&gt;Combine -->
<!-- RawSteps -->
<g id="node9" class="node">
<title>RawSteps</title>
<path fill="#eeeeee" stroke="#666666" d="M1600.5,-52C1600.5,-52 1501.5,-52 1501.5,-52 1495.5,-52 1489.5,-46 1489.5,-40 1489.5,-40 1489.5,-28 1489.5,-28 1489.5,-22 1495.5,-16 1501.5,-16 1501.5,-16 1600.5,-16 1600.5,-16 1606.5,-16 1612.5,-22 1612.5,-28 1612.5,-28 1612.5,-40 1612.5,-40 1612.5,-46 1606.5,-52 1600.5,-52"/>
<text text-anchor="middle" x="1551" y="-37.2" font-family="Helvetica,sans-Serif" font-size="11.00" fill="#222222">odim:RawStepsCSV</text>
<text text-anchor="middle" x="1551" y="-25.2" font-family="Helvetica,sans-Serif" font-size="11.00" fill="#222222">(prov:Entity)</text>
</g>
<!-- RawLoc -->
<g id="node11" class="node">
<title>RawLoc</title>
<path fill="#eeeeee" stroke="#666666" d="M1920.5,-52C1920.5,-52 1805.5,-52 1805.5,-52 1799.5,-52 1793.5,-46 1793.5,-40 1793.5,-40 1793.5,-28 1793.5,-28 1793.5,-22 1799.5,-16 1805.5,-16 1805.5,-16 1920.5,-16 1920.5,-16 1926.5,-16 1932.5,-22 1932.5,-28 1932.5,-28 1932.5,-40 1932.5,-40 1932.5,-46 1926.5,-52 1920.5,-52"/>
<text text-anchor="middle" x="1863" y="-37.2" font-family="Helvetica,sans-Serif" font-size="11.00" fill="#222222">odim:RawLocationCSV</text>
<text text-anchor="middle" x="1863" y="-25.2" font-family="Helvetica,sans-Serif" font-size="11.00" fill="#222222">(prov:Entity)</text>
</g>
<!-- Import&#45;&gt;RawSteps -->
<g id="edge6" class="edge">
<title>Import&#45;&gt;RawSteps</title>
<path fill="none" stroke="black" d="M1674.05,-124.56C1647.94,-105.55 1609.6,-77.65 1582.68,-58.05"/>
<polygon fill="black" stroke="black" points="1584.51,-55.06 1574.36,-52.01 1580.39,-60.72 1584.51,-55.06"/>
<text text-anchor="middle" x="1666" y="-94" font-family="Times,serif" font-size="10.00">prov:used</text>
</g>
<!-- Import&#45;&gt;RawSleep -->
<g id="edge7" class="edge">
<title>Import&#45;&gt;RawSleep</title>
<path fill="none" stroke="black" d="M1703,-123.77C1703,-106.11 1703,-81.15 1703,-62.2"/>
<polygon fill="black" stroke="black" points="1706.5,-62.1 1703,-52.1 1699.5,-62.1 1706.5,-62.1"/>
<text text-anchor="middle" x="1729" y="-94" font-family="Times,serif" font-size="10.00">prov:used</text>
</g>
<!-- Import&#45;&gt;RawLoc -->
<g id="edge8" class="edge">
<title>Import&#45;&gt;RawLoc</title>
<path fill="none" stroke="black" d="M1733.09,-124.82C1760.66,-105.76 1801.38,-77.6 1829.87,-57.91"/>
<polygon fill="black" stroke="black" points="1832.05,-60.65 1838.29,-52.09 1828.07,-54.9 1832.05,-60.65"/>
<text text-anchor="middle" x="1804" y="-94" font-family="Times,serif" font-size="10.00">prov:used</text>
</g>
<!-- ObsSteps -->
<g id="node13" class="node">
<title>ObsSteps</title>
<path fill="#ddeeff" stroke="#666666" d="M1565,-277.25C1565,-277.25 1415,-277.25 1415,-277.25 1409,-277.25 1403,-271.25 1403,-265.25 1403,-265.25 1403,-253.25 1403,-253.25 1403,-247.25 1409,-241.25 1415,-241.25 1415,-241.25 1565,-241.25 1565,-241.25 1571,-241.25 1577,-247.25 1577,-253.25 1577,-253.25 1577,-265.25 1577,-265.25 1577,-271.25 1571,-277.25 1565,-277.25"/>
<text text-anchor="middle" x="1490" y="-262.45" font-family="Helvetica,sans-Serif" font-size="11.00" fill="#222222">odim:Obs_Steps_D1</text>
<text text-anchor="middle" x="1490" y="-250.45" font-family="Helvetica,sans-Serif" font-size="11.00" fill="#222222">(odim:ActivityMeasurement)</text>
</g>
<!-- ObsSteps&#45;&gt;Import -->
<g id="edge9" class="edge">
<title>ObsSteps&#45;&gt;Import</title>
<path fill="none" stroke="black" d="M1519.8,-241.22C1537.23,-231.37 1559.73,-218.87 1580,-208.25 1603.34,-196.03 1629.49,-183.04 1651.66,-172.23"/>
<polygon fill="black" stroke="black" points="1653.43,-175.26 1660.9,-167.75 1650.37,-168.97 1653.43,-175.26"/>
<text text-anchor="middle" x="1638" y="-211.25" font-family="Times,serif" font-size="10.00">odim:wasGeneratedBy</text>
</g>
<!-- ObsSleep -->
<g id="node14" class="node">
<title>ObsSleep</title>
<path fill="#ddeeff" stroke="#666666" d="M1788,-277.25C1788,-277.25 1618,-277.25 1618,-277.25 1612,-277.25 1606,-271.25 1606,-265.25 1606,-265.25 1606,-253.25 1606,-253.25 1606,-247.25 1612,-241.25 1618,-241.25 1618,-241.25 1788,-241.25 1788,-241.25 1794,-241.25 1800,-247.25 1800,-253.25 1800,-253.25 1800,-265.25 1800,-265.25 1800,-271.25 1794,-277.25 1788,-277.25"/>
<text text-anchor="middle" x="1703" y="-262.45" font-family="Helvetica,sans-Serif" font-size="11.00" fill="#222222">odim:Obs_Sleep_D1</text>
<text text-anchor="middle" x="1703" y="-250.45" font-family="Helvetica,sans-Serif" font-size="11.00" fill="#222222">(odim:SleepStageMeasurement)</text>
</g>
<!-- ObsSleep&#45;&gt;Import -->
<g id="edge10" class="edge">
<title>ObsSleep&#45;&gt;Import</title>
<path fill="none" stroke="black" d="M1703,-240.97C1703,-224.59 1703,-199.58 1703,-179.58"/>
<polygon fill="black" stroke="black" points="1706.5,-179.35 1703,-169.35 1699.5,-179.35 1706.5,-179.35"/>
<text text-anchor="middle" x="1761" y="-211.25" font-family="Times,serif" font-size="10.00">odim:wasGeneratedBy</text>
</g>
<!-- ObsLoc -->
<g id="node15" class="node">
<title>ObsLoc</title>
<path fill="#ddeeff" stroke="#666666" d="M2067.5,-277.25C2067.5,-277.25 1902.5,-277.25 1902.5,-277.25 1896.5,-277.25 1890.5,-271.25 1890.5,-265.25 1890.5,-265.25 1890.5,-253.25 1890.5,-253.25 1890.5,-247.25 1896.5,-241.25 1902.5,-241.25 1902.5,-241.25 2067.5,-241.25 2067.5,-241.25 2073.5,-241.25 2079.5,-247.25 2079.5,-253.25 2079.5,-253.25 2079.5,-265.25 2079.5,-265.25 2079.5,-271.25 2073.5,-277.25 2067.5,-277.25"/>
<text text-anchor="middle" x="1985" y="-262.45" font-family="Helvetica,sans-Serif" font-size="11.00" fill="#222222">odim:Obs_Location_D1</text>
<text text-anchor="middle" x="1985" y="-250.45" font-family="Helvetica,sans-Serif" font-size="11.00" fill="#222222">(odim:DeviceLocationEstimate)</text>
</g>
<!-- ObsLoc&#45;&gt;Import -->
<g id="edge11" class="edge">
<title>ObsLoc&#45;&gt;Import</title>
<path fill="none" stroke="black" d="M1941.56,-241.21C1893.46,-222.34 1815.66,-191.82 1762.05,-170.79"/>
<polygon fill="black" stroke="black" points="1763.26,-167.51 1752.67,-167.11 1760.7,-174.02 1763.26,-167.51"/>
<text text-anchor="middle" x="1935" y="-211.25" font-family="Times,serif" font-size="10.00">odim:wasGeneratedBy</text>
</g>
<!-- ObsDots -->
<g id="node16" class="node">
<title>ObsDots</title>
<path fill="white" stroke="transparent" d="M2246,-676.76C2246,-676.76 2192,-676.76 2192,-676.76 2186,-676.76 2180,-670.76 2180,-664.76 2180,-664.76 2180,-652.76 2180,-652.76 2180,-646.76 2186,-640.76 2192,-640.76 2192,-640.76 2246,-640.76 2246,-640.76 2252,-640.76 2258,-646.76 2258,-652.76 2258,-652.76 2258,-664.76 2258,-664.76 2258,-670.76 2252,-676.76 2246,-676.76"/>
<text text-anchor="middle" x="2219" y="-655.96" font-family="Helvetica,sans-Serif" font-size="11.00" fill="#222222">… (D2..D7)</text>
</g>
<!-- DailyComp&#45;&gt;ObsSteps -->
<g id="edge12" class="edge">
<title>DailyComp&#45;&gt;ObsSteps</title>
<path fill="none" stroke="black" d="M1490,-332.17C1490,-318.91 1490,-301.84 1490,-287.65"/>
<polygon fill="black" stroke="black" points="1493.5,-287.48 1490,-277.48 1486.5,-287.48 1493.5,-287.48"/>
<text text-anchor="middle" x="1516" y="-302.25" font-family="Times,serif" font-size="10.00">prov:used</text>
</g>
<!-- DailyComp&#45;&gt;ObsSleep -->
<g id="edge13" class="edge">
<title>DailyComp&#45;&gt;ObsSleep</title>
<path fill="none" stroke="black" d="M1536.22,-333.57C1571.26,-318.16 1619.29,-297.05 1654.81,-281.44"/>
<polygon fill="black" stroke="black" points="1656.26,-284.62 1664.01,-277.39 1653.45,-278.21 1656.26,-284.62"/>
<text text-anchor="middle" x="1635" y="-302.25" font-family="Times,serif" font-size="10.00">prov:used</text>
</g>
<!-- F1 -->
<g id="node18" class="node">
<title>F1</title>
<path fill="#e2f0d9" stroke="#666666" d="M1206.5,-468.51C1206.5,-468.51 1089.5,-468.51 1089.5,-468.51 1083.5,-468.51 1077.5,-462.51 1077.5,-456.51 1077.5,-456.51 1077.5,-444.51 1077.5,-444.51 1077.5,-438.51 1083.5,-432.51 1089.5,-432.51 1089.5,-432.51 1206.5,-432.51 1206.5,-432.51 1212.5,-432.51 1218.5,-438.51 1218.5,-444.51 1218.5,-444.51 1218.5,-456.51 1218.5,-456.51 1218.5,-462.51 1212.5,-468.51 1206.5,-468.51"/>
<text text-anchor="middle" x="1148" y="-453.71" font-family="Helvetica,sans-Serif" font-size="11.00" fill="#222222">odim:F_DailySteps_D1</text>
<text text-anchor="middle" x="1148" y="-441.71" font-family="Helvetica,sans-Serif" font-size="11.00" fill="#222222">(odim:DerivedFeature)</text>
</g>
<!-- F1&#45;&gt;DailyComp -->
<g id="edge18" class="edge">
<title>F1&#45;&gt;DailyComp</title>
<path fill="none" stroke="black" d="M1166.13,-432.4C1179.04,-421.23 1197.34,-407.31 1216,-399.51 1259.47,-381.34 1309.73,-370.68 1355.24,-364.45"/>
<polygon fill="black" stroke="black" points="1355.72,-367.92 1365.18,-363.15 1354.81,-360.98 1355.72,-367.92"/>
<text text-anchor="middle" x="1273.5" y="-402.51" font-family="Times,serif" font-size="10.00">odim:wasComputedBy</text>
</g>
<!-- F2 -->
<g id="node19" class="node">
<title>F2</title>
<path fill="#e2f0d9" stroke="#666666" d="M1376.5,-468.51C1376.5,-468.51 1259.5,-468.51 1259.5,-468.51 1253.5,-468.51 1247.5,-462.51 1247.5,-456.51 1247.5,-456.51 1247.5,-444.51 1247.5,-444.51 1247.5,-438.51 1253.5,-432.51 1259.5,-432.51 1259.5,-432.51 1376.5,-432.51 1376.5,-432.51 1382.5,-432.51 1388.5,-438.51 1388.5,-444.51 1388.5,-444.51 1388.5,-456.51 1388.5,-456.51 1388.5,-462.51 1382.5,-468.51 1376.5,-468.51"/>
<text text-anchor="middle" x="1318" y="-453.71" font-family="Helvetica,sans-Serif" font-size="11.00" fill="#222222">odim:F_DailySteps_D2</text>
<text text-anchor="middle" x="1318" y="-441.71" font-family="Helvetica,sans-Serif" font-size="11.00" fill="#222222">(odim:DerivedFeature)</text>
</g>
<!-- F2&#45;&gt;DailyComp -->
<g id="edge19" class="edge">
<title>F2&#45;&gt;DailyComp</title>
<path fill="none" stroke="black" d="M1324.8,-432.45C1329.95,-421.58 1338.01,-408 1349,-399.51 1362.1,-389.39 1377.56,-381.6 1393.36,-375.6"/>
<polygon fill="black" stroke="black" points="1394.98,-378.75 1403.23,-372.1 1392.64,-372.15 1394.98,-378.75"/>
<text text-anchor="middle" x="1406.5" y="-402.51" font-family="Times,serif" font-size="10.00">odim:wasComputedBy</text>
</g>
<!-- FDots -->
<g id="node20" class="node">
<title>FDots</title>
<path fill="white" stroke="transparent" d="M1484,-468.51C1484,-468.51 1430,-468.51 1430,-468.51 1424,-468.51 1418,-462.51 1418,-456.51 1418,-456.51 1418,-444.51 1418,-444.51 1418,-438.51 1424,-432.51 1430,-432.51 1430,-432.51 1484,-432.51 1484,-432.51 1490,-432.51 1496,-438.51 1496,-444.51 1496,-444.51 1496,-456.51 1496,-456.51 1496,-462.51 1490,-468.51 1484,-468.51"/>
<text text-anchor="middle" x="1457" y="-447.71" font-family="Helvetica,sans-Serif" font-size="11.00" fill="#666666">… (D3..D7)</text>
</g>
<!-- FDots&#45;&gt;DailyComp -->
<g id="edge22" class="edge">
<title>FDots&#45;&gt;DailyComp</title>
<path fill="none" stroke="black" stroke-dasharray="1,5" d="M1463.05,-432.34C1468.49,-416.92 1476.49,-394.22 1482.36,-377.56"/>
</g>
<!-- SQ1 -->
<g id="node21" class="node">
<title>SQ1</title>
<path fill="#e2f0d9" stroke="#666666" d="M1665,-468.51C1665,-468.51 1537,-468.51 1537,-468.51 1531,-468.51 1525,-462.51 1525,-456.51 1525,-456.51 1525,-444.51 1525,-444.51 1525,-438.51 1531,-432.51 1537,-432.51 1537,-432.51 1665,-432.51 1665,-432.51 1671,-432.51 1677,-438.51 1677,-444.51 1677,-444.51 1677,-456.51 1677,-456.51 1677,-462.51 1671,-468.51 1665,-468.51"/>
<text text-anchor="middle" x="1601" y="-453.71" font-family="Helvetica,sans-Serif" font-size="11.00" fill="#222222">odim:F_SleepMinutes_D1</text>
<text text-anchor="middle" x="1601" y="-441.71" font-family="Helvetica,sans-Serif" font-size="11.00" fill="#222222">(odim:DerivedFeature)</text>
</g>
<!-- SQ1&#45;&gt;DailyComp -->
<g id="edge20" class="edge">
<title>SQ1&#45;&gt;DailyComp</title>
<path fill="none" stroke="black" d="M1571.61,-432.42C1561.53,-426.04 1550.42,-418.41 1541,-410.51 1531.94,-402.91 1522.87,-393.8 1514.95,-385.22"/>
<polygon fill="black" stroke="black" points="1517.32,-382.63 1508.02,-377.55 1512.12,-387.32 1517.32,-382.63"/>
<text text-anchor="middle" x="1598.5" y="-402.51" font-family="Times,serif" font-size="10.00">odim:wasComputedBy</text>
</g>
<!-- SQ2 -->
<g id="node22" class="node">
<title>SQ2</title>
<path fill="#e2f0d9" stroke="#666666" d="M1846,-468.51C1846,-468.51 1718,-468.51 1718,-468.51 1712,-468.51 1706,-462.51 1706,-456.51 1706,-456.51 1706,-444.51 1706,-444.51 1706,-438.51 1712,-432.51 1718,-432.51 1718,-432.51 1846,-432.51 1846,-432.51 1852,-432.51 1858,-438.51 1858,-444.51 1858,-444.51 1858,-456.51 1858,-456.51 1858,-462.51 1852,-468.51 1846,-468.51"/>
<text text-anchor="middle" x="1782" y="-453.71" font-family="Helvetica,sans-Serif" font-size="11.00" fill="#222222">odim:F_SleepMinutes_D2</text>
<text text-anchor="middle" x="1782" y="-441.71" font-family="Helvetica,sans-Serif" font-size="11.00" fill="#222222">(odim:DerivedFeature)</text>
</g>
<!-- SQ2&#45;&gt;DailyComp -->
<g id="edge21" class="edge">
<title>SQ2&#45;&gt;DailyComp</title>
<path fill="none" stroke="black" d="M1743.72,-432.41C1719.69,-422.06 1687.89,-409.06 1659,-399.51 1632.72,-390.82 1603.69,-382.78 1577.2,-376.03"/>
<polygon fill="black" stroke="black" points="1577.74,-372.55 1567.19,-373.5 1576.03,-379.34 1577.74,-372.55"/>
<text text-anchor="middle" x="1743.5" y="-402.51" font-family="Times,serif" font-size="10.00">odim:wasComputedBy</text>
</g>
<!-- WeeklySteps -->
<g id="node23" class="node">
<title>WeeklySteps</title>
<ellipse fill="#fff2cc" stroke="#666666" cx="1267" cy="-563.14" rx="133.79" ry="22.76"/>
<text text-anchor="middle" x="1267" y="-566.34" font-family="Helvetica,sans-Serif" font-size="11.00" fill="#222222">odim:A_WeeklyAggregateSteps</text>
<text text-anchor="middle" x="1267" y="-554.34" font-family="Helvetica,sans-Serif" font-size="11.00" fill="#222222">(odim:AlgorithmicComputation)</text>
</g>
<!-- WeeklySteps&#45;&gt;F1 -->
<g id="edge23" class="edge">
<title>WeeklySteps&#45;&gt;F1</title>
<path fill="none" stroke="black" d="M1244.06,-540.81C1224.05,-522.21 1195.05,-495.25 1174.15,-475.82"/>
<polygon fill="black" stroke="black" points="1176.28,-473.03 1166.58,-468.78 1171.52,-478.15 1176.28,-473.03"/>
<text text-anchor="middle" x="1244" y="-510.51" font-family="Times,serif" font-size="10.00">prov:used</text>
</g>
<!-- WeeklySteps&#45;&gt;F2 -->
<g id="edge24" class="edge">
<title>WeeklySteps&#45;&gt;F2</title>
<path fill="none" stroke="black" d="M1276.95,-540.54C1285.24,-522.58 1297.06,-496.94 1305.89,-477.78"/>
<polygon fill="black" stroke="black" points="1309.07,-479.24 1310.08,-468.7 1302.71,-476.31 1309.07,-479.24"/>
<text text-anchor="middle" x="1316" y="-510.51" font-family="Times,serif" font-size="10.00">prov:used</text>
</g>
<!-- WeeklySteps&#45;&gt;FDots -->
<g id="edge25" class="edge">
<title>WeeklySteps&#45;&gt;FDots</title>
<path fill="none" stroke="black" stroke-dasharray="1,5" d="M1319.59,-542.21C1345.64,-531.28 1377,-516.51 1403,-499.51 1416.44,-490.72 1429.94,-478.72 1440.08,-468.92"/>
</g>
<!-- MeanSteps -->
<g id="node24" class="node">
<title>MeanSteps</title>
<path fill="#e2f0d9" stroke="#666666" d="M1270.5,-676.76C1270.5,-676.76 1135.5,-676.76 1135.5,-676.76 1129.5,-676.76 1123.5,-670.76 1123.5,-664.76 1123.5,-664.76 1123.5,-652.76 1123.5,-652.76 1123.5,-646.76 1129.5,-640.76 1135.5,-640.76 1135.5,-640.76 1270.5,-640.76 1270.5,-640.76 1276.5,-640.76 1282.5,-646.76 1282.5,-652.76 1282.5,-652.76 1282.5,-664.76 1282.5,-664.76 1282.5,-670.76 1276.5,-676.76 1270.5,-676.76"/>
<text text-anchor="middle" x="1203" y="-661.96" font-family="Helvetica,sans-Serif" font-size="11.00" fill="#222222">odim:F_WeeklyMeanSteps</text>
<text text-anchor="middle" x="1203" y="-649.96" font-family="Helvetica,sans-Serif" font-size="11.00" fill="#222222">(odim:DerivedFeature)</text>
</g>
<!-- MeanSteps&#45;&gt;WeeklySteps -->
<g id="edge26" class="edge">
<title>MeanSteps&#45;&gt;WeeklySteps</title>
<path fill="none" stroke="black" d="M1214.74,-640.59C1223.55,-627.71 1235.84,-609.73 1246.28,-594.44"/>
<polygon fill="black" stroke="black" points="1249.43,-596.05 1252.18,-585.82 1243.65,-592.1 1249.43,-596.05"/>
<text text-anchor="middle" x="1293.5" y="-610.76" font-family="Times,serif" font-size="10.00">odim:wasComputedBy</text>
</g>
<!-- Thresh -->
<g id="node25" class="node">
<title>Thresh</title>
<path fill="#ffe5d9" stroke="#666666" d="M1458.5,-676.76C1458.5,-676.76 1323.5,-676.76 1323.5,-676.76 1317.5,-676.76 1311.5,-670.76 1311.5,-664.76 1311.5,-664.76 1311.5,-652.76 1311.5,-652.76 1311.5,-646.76 1317.5,-640.76 1323.5,-640.76 1323.5,-640.76 1458.5,-640.76 1458.5,-640.76 1464.5,-640.76 1470.5,-646.76 1470.5,-652.76 1470.5,-652.76 1470.5,-664.76 1470.5,-664.76 1470.5,-670.76 1464.5,-676.76 1458.5,-676.76"/>
<text text-anchor="middle" x="1391" y="-661.96" font-family="Helvetica,sans-Serif" font-size="11.00" fill="#222222">odim:Threshold_LowSteps</text>
<text text-anchor="middle" x="1391" y="-649.96" font-family="Helvetica,sans-Serif" font-size="11.00" fill="#222222">(prov:Entity)</text>
</g>
<!-- StepsDecision -->
<g id="node26" class="node">
<title>StepsDecision</title>
<ellipse fill="#fff2cc" stroke="#666666" cx="1364" cy="-754.39" rx="135.11" ry="22.76"/>
<text text-anchor="middle" x="1364" y="-757.59" font-family="Helvetica,sans-Serif" font-size="11.00" fill="#222222">odim:A_StepsThresholdDecision</text>
<text text-anchor="middle" x="1364" y="-745.59" font-family="Helvetica,sans-Serif" font-size="11.00" fill="#222222">(odim:AlgorithmicComputation)</text>
</g>
<!-- StepsDecision&#45;&gt;MeanSteps -->
<g id="edge27" class="edge">
<title>StepsDecision&#45;&gt;MeanSteps</title>
<path fill="none" stroke="black" d="M1327.87,-732.38C1302.08,-717.38 1267.45,-697.24 1241.2,-681.98"/>
<polygon fill="black" stroke="black" points="1242.7,-678.8 1232.29,-676.8 1239.18,-684.85 1242.7,-678.8"/>
<text text-anchor="middle" x="1314" y="-701.76" font-family="Times,serif" font-size="10.00">prov:used</text>
</g>
<!-- StepsDecision&#45;&gt;Thresh -->
<g id="edge28" class="edge">
<title>StepsDecision&#45;&gt;Thresh</title>
<path fill="none" stroke="black" d="M1370.26,-731.68C1374.12,-718.29 1379.11,-701.01 1383.22,-686.75"/>
<polygon fill="black" stroke="black" points="1386.62,-687.57 1386.03,-676.99 1379.9,-685.63 1386.62,-687.57"/>
<text text-anchor="middle" x="1405" y="-701.76" font-family="Times,serif" font-size="10.00">prov:used</text>
</g>
<!-- Marker -->
<g id="node27" class="node">
<title>Marker</title>
<path fill="#e2f0d9" stroke="#666666" d="M1510,-868.02C1510,-868.02 1310,-868.02 1310,-868.02 1304,-868.02 1298,-862.02 1298,-856.02 1298,-856.02 1298,-844.02 1298,-844.02 1298,-838.02 1304,-832.02 1310,-832.02 1310,-832.02 1510,-832.02 1510,-832.02 1516,-832.02 1522,-838.02 1522,-844.02 1522,-844.02 1522,-856.02 1522,-856.02 1522,-862.02 1516,-868.02 1510,-868.02"/>
<text text-anchor="middle" x="1410" y="-853.22" font-family="Helvetica,sans-Serif" font-size="11.00" fill="#222222">odim:Marker_LowActivityDuringTravel</text>
<text text-anchor="middle" x="1410" y="-841.22" font-family="Helvetica,sans-Serif" font-size="11.00" fill="#222222">(odim:DerivedFeature)</text>
</g>
<!-- Marker&#45;&gt;StepsDecision -->
<g id="edge29" class="edge">
<title>Marker&#45;&gt;StepsDecision</title>
<path fill="none" stroke="black" d="M1401.56,-831.85C1395.29,-819.08 1386.56,-801.32 1379.1,-786.13"/>
<polygon fill="black" stroke="black" points="1382.2,-784.5 1374.65,-777.07 1375.92,-787.59 1382.2,-784.5"/>
<text text-anchor="middle" x="1446.5" y="-802.02" font-family="Times,serif" font-size="10.00">odim:wasComputedBy</text>
</g>
<!-- WeeklySleep -->
<g id="node28" class="node">
<title>WeeklySleep</title>
<ellipse fill="#fff2cc" stroke="#666666" cx="1601" cy="-563.14" rx="162.77" ry="22.76"/>
<text text-anchor="middle" x="1601" y="-566.34" font-family="Helvetica,sans-Serif" font-size="11.00" fill="#222222">odim:A_WeeklyAggregateSleepMinutes</text>
<text text-anchor="middle" x="1601" y="-554.34" font-family="Helvetica,sans-Serif" font-size="11.00" fill="#222222">(odim:AlgorithmicComputation)</text>
</g>
<!-- WeeklySleep&#45;&gt;FDots -->
<g id="edge32" class="edge">
<title>WeeklySleep&#45;&gt;FDots</title>
<path fill="none" stroke="black" stroke-dasharray="1,5" d="M1568.26,-540.72C1550.89,-529.02 1529.39,-514 1511,-499.51 1498.78,-489.88 1485.73,-478.32 1475.52,-468.96"/>
</g>
<!-- WeeklySleep&#45;&gt;SQ1 -->
<g id="edge30" class="edge">
<title>WeeklySleep&#45;&gt;SQ1</title>
<path fill="none" stroke="black" d="M1601,-540.28C1601,-522.62 1601,-497.66 1601,-478.71"/>
<polygon fill="black" stroke="black" points="1604.5,-478.61 1601,-468.61 1597.5,-478.61 1604.5,-478.61"/>
<text text-anchor="middle" x="1627" y="-510.51" font-family="Times,serif" font-size="10.00">prov:used</text>
</g>
<!-- WeeklySleep&#45;&gt;SQ2 -->
<g id="edge31" class="edge">
<title>WeeklySleep&#45;&gt;SQ2</title>
<path fill="none" stroke="black" d="M1635.9,-540.81C1667.35,-521.58 1713.44,-493.41 1745.41,-473.87"/>
<polygon fill="black" stroke="black" points="1747.32,-476.81 1754.03,-468.61 1743.67,-470.83 1747.32,-476.81"/>
<text text-anchor="middle" x="1712" y="-510.51" font-family="Times,serif" font-size="10.00">prov:used</text>
</g>
<!-- MeanSleep -->
<g id="node29" class="node">
<title>MeanSleep</title>
<path fill="#e2f0d9" stroke="#666666" d="M1690,-676.76C1690,-676.76 1512,-676.76 1512,-676.76 1506,-676.76 1500,-670.76 1500,-664.76 1500,-664.76 1500,-652.76 1500,-652.76 1500,-646.76 1506,-640.76 1512,-640.76 1512,-640.76 1690,-640.76 1690,-640.76 1696,-640.76 1702,-646.76 1702,-652.76 1702,-652.76 1702,-664.76 1702,-664.76 1702,-670.76 1696,-676.76 1690,-676.76"/>
<text text-anchor="middle" x="1601" y="-661.96" font-family="Helvetica,sans-Serif" font-size="11.00" fill="#222222">odim:F_WeeklyMeanSleepMinutes</text>
<text text-anchor="middle" x="1601" y="-649.96" font-family="Helvetica,sans-Serif" font-size="11.00" fill="#222222">(odim:DerivedFeature)</text>
</g>
<!-- MeanSleep&#45;&gt;WeeklySleep -->
<g id="edge33" class="edge">
<title>MeanSleep&#45;&gt;WeeklySleep</title>
<path fill="none" stroke="black" d="M1601,-640.59C1601,-628.19 1601,-611.07 1601,-596.17"/>
<polygon fill="black" stroke="black" points="1604.5,-595.82 1601,-585.82 1597.5,-595.82 1604.5,-595.82"/>
<text text-anchor="middle" x="1658.5" y="-610.76" font-family="Times,serif" font-size="10.00">odim:wasComputedBy</text>
</g>
<!-- SleepBaseline -->
<g id="node30" class="node">
<title>SleepBaseline</title>
<path fill="#ffe5d9" stroke="#666666" d="M1892.5,-676.76C1892.5,-676.76 1743.5,-676.76 1743.5,-676.76 1737.5,-676.76 1731.5,-670.76 1731.5,-664.76 1731.5,-664.76 1731.5,-652.76 1731.5,-652.76 1731.5,-646.76 1737.5,-640.76 1743.5,-640.76 1743.5,-640.76 1892.5,-640.76 1892.5,-640.76 1898.5,-640.76 1904.5,-646.76 1904.5,-652.76 1904.5,-652.76 1904.5,-664.76 1904.5,-664.76 1904.5,-670.76 1898.5,-676.76 1892.5,-676.76"/>
<text text-anchor="middle" x="1818" y="-661.96" font-family="Helvetica,sans-Serif" font-size="11.00" fill="#222222">odim:Baseline_SleepMinutes</text>
<text text-anchor="middle" x="1818" y="-649.96" font-family="Helvetica,sans-Serif" font-size="11.00" fill="#222222">(prov:Entity)</text>
</g>
<!-- SleepDebtDecision -->
<g id="node31" class="node">
<title>SleepDebtDecision</title>
<ellipse fill="#fff2cc" stroke="#666666" cx="1662" cy="-754.39" rx="133.79" ry="22.76"/>
<text text-anchor="middle" x="1662" y="-757.59" font-family="Helvetica,sans-Serif" font-size="11.00" fill="#222222">odim:A_SleepDebtDecision</text>
<text text-anchor="middle" x="1662" y="-745.59" font-family="Helvetica,sans-Serif" font-size="11.00" fill="#222222">(odim:AlgorithmicComputation)</text>
</g>
<!-- SleepDebtDecision&#45;&gt;MeanSleep -->
<g id="edge34" class="edge">
<title>SleepDebtDecision&#45;&gt;MeanSleep</title>
<path fill="none" stroke="black" d="M1647.85,-731.68C1638.88,-717.9 1627.21,-700 1617.77,-685.51"/>
<polygon fill="black" stroke="black" points="1620.62,-683.46 1612.22,-676.99 1614.75,-687.28 1620.62,-683.46"/>
<text text-anchor="middle" x="1659" y="-701.76" font-family="Times,serif" font-size="10.00">prov:used</text>
</g>
<!-- SleepDebtDecision&#45;&gt;SleepBaseline -->
<g id="edge35" class="edge">
<title>SleepDebtDecision&#45;&gt;SleepBaseline</title>
<path fill="none" stroke="black" d="M1697.01,-732.38C1722,-717.38 1755.55,-697.24 1780.99,-681.98"/>
<polygon fill="black" stroke="black" points="1782.84,-684.95 1789.62,-676.8 1779.24,-678.94 1782.84,-684.95"/>
<text text-anchor="middle" x="1775" y="-701.76" font-family="Times,serif" font-size="10.00">prov:used</text>
</g>
<!-- SleepDebt -->
<g id="node32" class="node">
<title>SleepDebt</title>
<path fill="#e2f0d9" stroke="#666666" d="M1744.5,-868.02C1744.5,-868.02 1579.5,-868.02 1579.5,-868.02 1573.5,-868.02 1567.5,-862.02 1567.5,-856.02 1567.5,-856.02 1567.5,-844.02 1567.5,-844.02 1567.5,-838.02 1573.5,-832.02 1579.5,-832.02 1579.5,-832.02 1744.5,-832.02 1744.5,-832.02 1750.5,-832.02 1756.5,-838.02 1756.5,-844.02 1756.5,-844.02 1756.5,-856.02 1756.5,-856.02 1756.5,-862.02 1750.5,-868.02 1744.5,-868.02"/>
<text text-anchor="middle" x="1662" y="-853.22" font-family="Helvetica,sans-Serif" font-size="11.00" fill="#222222">odim:Marker_SleepDebt_Week1</text>
<text text-anchor="middle" x="1662" y="-841.22" font-family="Helvetica,sans-Serif" font-size="11.00" fill="#222222">(odim:DerivedFeature)</text>
</g>
<!-- SleepDebt&#45;&gt;SleepDebtDecision -->
<g id="edge36" class="edge">
<title>SleepDebt&#45;&gt;SleepDebtDecision</title>
<path fill="none" stroke="black" d="M1662,-831.85C1662,-819.44 1662,-802.32 1662,-787.42"/>
<polygon fill="black" stroke="black" points="1665.5,-787.07 1662,-777.07 1658.5,-787.07 1665.5,-787.07"/>
<text text-anchor="middle" x="1719.5" y="-802.02" font-family="Times,serif" font-size="10.00">odim:wasComputedBy</text>
</g>
<!-- Combine&#45;&gt;Marker -->
<g id="edge37" class="edge">
<title>Combine&#45;&gt;Marker</title>
<path fill="none" stroke="black" d="M1608.56,-924.79C1566.38,-909.12 1507.75,-887.34 1465.14,-871.51"/>
<polygon fill="black" stroke="black" points="1466.36,-868.22 1455.76,-868.02 1463.92,-874.79 1466.36,-868.22"/>
<text text-anchor="middle" x="1569" y="-893.02" font-family="Times,serif" font-size="10.00">prov:used</text>
</g>
<!-- Combine&#45;&gt;SleepDebt -->
<g id="edge38" class="edge">
<title>Combine&#45;&gt;SleepDebt</title>
<path fill="none" stroke="black" d="M1662,-922.93C1662,-909.67 1662,-892.6 1662,-878.42"/>
<polygon fill="black" stroke="black" points="1665.5,-878.25 1662,-868.25 1658.5,-878.25 1665.5,-878.25"/>
<text text-anchor="middle" x="1688" y="-893.02" font-family="Times,serif" font-size="10.00">prov:used</text>
</g>
<!-- TravelWin -->
<g id="node37" class="node">
<title>TravelWin</title>
<path fill="#fde2e4" stroke="#666666" d="M1983.5,-868.02C1983.5,-868.02 1842.5,-868.02 1842.5,-868.02 1836.5,-868.02 1830.5,-862.02 1830.5,-856.02 1830.5,-856.02 1830.5,-844.02 1830.5,-844.02 1830.5,-838.02 1836.5,-832.02 1842.5,-832.02 1842.5,-832.02 1983.5,-832.02 1983.5,-832.02 1989.5,-832.02 1995.5,-838.02 1995.5,-844.02 1995.5,-844.02 1995.5,-856.02 1995.5,-856.02 1995.5,-862.02 1989.5,-868.02 1983.5,-868.02"/>
<text text-anchor="middle" x="1913" y="-853.22" font-family="Helvetica,sans-Serif" font-size="11.00" fill="#222222">odim:TravelWindow_Week1</text>
<text text-anchor="middle" x="1913" y="-841.22" font-family="Helvetica,sans-Serif" font-size="11.00" fill="#222222">(odim:EventWindow)</text>
</g>
<!-- Combine&#45;&gt;TravelWin -->
<g id="edge39" class="edge">
<title>Combine&#45;&gt;TravelWin</title>
<path fill="none" stroke="black" d="M1715.23,-924.79C1757.15,-909.15 1815.39,-887.43 1857.81,-871.61"/>
<polygon fill="black" stroke="black" points="1859.27,-874.8 1867.42,-868.02 1856.83,-868.24 1859.27,-874.8"/>
<text text-anchor="middle" x="1828" y="-893.02" font-family="Times,serif" font-size="10.00">prov:used</text>
</g>
<!-- Phenotype -->
<g id="node34" class="node">
<title>Phenotype</title>
<path fill="#ede7f6" stroke="#666666" d="M1934,-1059.27C1934,-1059.27 1622,-1059.27 1622,-1059.27 1616,-1059.27 1610,-1053.27 1610,-1047.27 1610,-1047.27 1610,-1035.27 1610,-1035.27 1610,-1029.27 1616,-1023.27 1622,-1023.27 1622,-1023.27 1934,-1023.27 1934,-1023.27 1940,-1023.27 1946,-1029.27 1946,-1035.27 1946,-1035.27 1946,-1047.27 1946,-1047.27 1946,-1053.27 1940,-1059.27 1934,-1059.27"/>
<text text-anchor="middle" x="1778" y="-1044.47" font-family="Helvetica,sans-Serif" font-size="11.00" fill="#222222">odim:Phenotype_TravelAssociatedInactivityWithSleepDebt</text>
<text text-anchor="middle" x="1778" y="-1032.47" font-family="Helvetica,sans-Serif" font-size="11.00" fill="#222222">(odim:ActivityPhenotype)</text>
</g>
<!-- Phenotype&#45;&gt;Combine -->
<g id="edge40" class="edge">
<title>Phenotype&#45;&gt;Combine</title>
<path fill="none" stroke="black" d="M1751.84,-1023.1C1742.26,-1016.53 1731.45,-1008.81 1722,-1001.27 1711.85,-993.17 1701.23,-983.82 1691.79,-975.17"/>
<polygon fill="black" stroke="black" points="1693.89,-972.35 1684.18,-968.12 1689.13,-977.48 1693.89,-972.35"/>
<text text-anchor="middle" x="1779.5" y="-993.27" font-family="Times,serif" font-size="10.00">odim:wasComputedBy</text>
</g>
<!-- Week -->
<g id="node35" class="node">
<title>Week</title>
<path fill="#f3f4f6" stroke="#666666" d="M1951,-963.65C1951,-963.65 1837,-963.65 1837,-963.65 1831,-963.65 1825,-957.65 1825,-951.65 1825,-951.65 1825,-939.65 1825,-939.65 1825,-933.65 1831,-927.65 1837,-927.65 1837,-927.65 1951,-927.65 1951,-927.65 1957,-927.65 1963,-933.65 1963,-939.65 1963,-939.65 1963,-951.65 1963,-951.65 1963,-957.65 1957,-963.65 1951,-963.65"/>
<text text-anchor="middle" x="1894" y="-948.85" font-family="Helvetica,sans-Serif" font-size="11.00" fill="#222222">odim:Week1</text>
<text text-anchor="middle" x="1894" y="-936.85" font-family="Helvetica,sans-Serif" font-size="11.00" fill="#222222">(odim:WeeklyInterval)</text>
</g>
<!-- Phenotype&#45;&gt;Week -->
<g id="edge41" class="edge">
<title>Phenotype&#45;&gt;Week</title>
<path fill="none" stroke="black" d="M1808.28,-1023.15C1818.69,-1016.77 1830.18,-1009.15 1840,-1001.27 1851.16,-992.32 1862.45,-981.27 1871.81,-971.46"/>
<polygon fill="black" stroke="black" points="1874.58,-973.62 1878.85,-963.92 1869.47,-968.84 1874.58,-973.62"/>
<text text-anchor="middle" x="1901" y="-993.27" font-family="Times,serif" font-size="10.00">odim:occursDuring</text>
</g>
<!-- TravelDetect -->
<g id="node36" class="node">
<title>TravelDetect</title>
<ellipse fill="#fff2cc" stroke="#666666" cx="1958" cy="-754.39" rx="133.79" ry="22.76"/>
<text text-anchor="middle" x="1958" y="-757.59" font-family="Helvetica,sans-Serif" font-size="11.00" fill="#222222">odim:A_TravelDetection</text>
<text text-anchor="middle" x="1958" y="-745.59" font-family="Helvetica,sans-Serif" font-size="11.00" fill="#222222">(odim:AlgorithmicComputation)</text>
</g>
<!-- TravelDetect&#45;&gt;ObsLoc -->
<g id="edge14" class="edge">
<title>TravelDetect&#45;&gt;ObsLoc</title>
<path fill="none" stroke="black" d="M2052.99,-738.38C2095.41,-725.72 2136,-702.45 2136,-659.76 2136,-659.76 2136,-659.76 2136,-353.88 2136,-317.65 2104.21,-294.96 2069.81,-281.01"/>
<polygon fill="black" stroke="black" points="2070.65,-277.58 2060.06,-277.3 2068.16,-284.12 2070.65,-277.58"/>
<text text-anchor="middle" x="2162" y="-510.51" font-family="Times,serif" font-size="10.00">prov:used</text>
</g>
<!-- TravelDetect&#45;&gt;ObsDots -->
<g id="edge15" class="edge">
<title>TravelDetect&#45;&gt;ObsDots</title>
<path fill="none" stroke="black" stroke-dasharray="1,5" d="M2062.58,-740.21C2094.28,-733.7 2128.49,-724.05 2158,-709.76 2174.76,-701.65 2190.93,-688.05 2202.41,-677.08"/>
</g>
<!-- TravelThresh -->
<g id="node38" class="node">
<title>TravelThresh</title>
<path fill="#ffe5d9" stroke="#666666" d="M2080,-676.76C2080,-676.76 1946,-676.76 1946,-676.76 1940,-676.76 1934,-670.76 1934,-664.76 1934,-664.76 1934,-652.76 1934,-652.76 1934,-646.76 1940,-640.76 1946,-640.76 1946,-640.76 2080,-640.76 2080,-640.76 2086,-640.76 2092,-646.76 2092,-652.76 2092,-652.76 2092,-664.76 2092,-664.76 2092,-670.76 2086,-676.76 2080,-676.76"/>
<text text-anchor="middle" x="2013" y="-661.96" font-family="Helvetica,sans-Serif" font-size="11.00" fill="#222222">odim:Threshold_TravelKm</text>
<text text-anchor="middle" x="2013" y="-649.96" font-family="Helvetica,sans-Serif" font-size="11.00" fill="#222222">(prov:Entity)</text>
</g>
<!-- TravelDetect&#45;&gt;TravelThresh -->
<g id="edge16" class="edge">
<title>TravelDetect&#45;&gt;TravelThresh</title>
<path fill="none" stroke="black" d="M1970.76,-731.68C1978.77,-718.03 1989.17,-700.34 1997.64,-685.92"/>
<polygon fill="black" stroke="black" points="2000.83,-687.39 2002.88,-676.99 1994.8,-683.84 2000.83,-687.39"/>
<text text-anchor="middle" x="2014" y="-701.76" font-family="Times,serif" font-size="10.00">prov:used</text>
</g>
<!-- TravelWin&#45;&gt;TravelDetect -->
<g id="edge17" class="edge">
<title>TravelWin&#45;&gt;TravelDetect</title>
<path fill="none" stroke="black" d="M1921.25,-831.85C1927.39,-819.08 1935.93,-801.32 1943.23,-786.13"/>
<polygon fill="black" stroke="black" points="1946.4,-787.6 1947.58,-777.07 1940.09,-784.57 1946.4,-787.6"/>
<text text-anchor="middle" x="1993.5" y="-802.02" font-family="Times,serif" font-size="10.00">odim:wasComputedBy</text>
</g>
</g>
</svg>
