<?xml version="1.0" encoding="UTF-8" standalone="no"?>
<!DOCTYPE svg PUBLIC "-//W3C//DTD SVG 1.1//EN"
 "http://www.w3.org/Graphics/SVG/1.1/DTD/svg11.dtd">
<!-- Generated by graphviz version 2.43.0 (0)
 -->
<!-- Title: DemoFlow Pages: 1 -->
<svg width="1716pt" height="1123pt"
 viewBox="0.00 0.00 1716.00 1123.27" xmlns="http://www.w3.org/2000/svg" xmlns:xlink="http://www.w3.org/1999/xlink">
<g id="graph0" class="graph" transform="scale(1 1) rotate(0) translate(4 1119.27)">
<title>DemoFlow</title>
<polygon fill="white" stroke="transparent" points="-4,4 -4,-1119.27 1712,-1119.27 1712,4 -4,4"/>
<g id="clust1" class="cluster">
<title>cluster_legend</title>
<polygon fill="none" stroke="#e5e5e5" stroke-dasharray="5,2" points="8,-1032.27 8,-1103.27 519,-1103.27 519,-1032.27 8,-1032.27"/>
<text text-anchor="middle" x="263.5" y="-1091.27" font-family="Times,serif" font-size="10.00">Legend</text>
</g>
<g id="clust2" class="cluster">
<title>cluster_raw</title>
<polygon fill="none" stroke="#999999" stroke-dasharray="5,2" points="802,-8 802,-83 1262,-83 1262,-8 802,-8"/>
<text text-anchor="middle" x="1032" y="-67.8" font-family="Times,serif" font-size="14.00">Raw (prov:Entity)</text>
</g>
<g id="clust3" class="cluster">
<title>cluster_import</title>
<polygon fill="none" stroke="#999999" stroke-dasharray="5,2" points="896,-116 896,-200.25 1153,-200.25 1153,-116 896,-116"/>
<text text-anchor="middle" x="1024.5" y="-185.05" font-family="Times,serif" font-size="14.00">Import (odim:DataTransferEvent)</text>
</g>
<g id="clust4" class="cluster">
<title>cluster_obs</title>
<polygon fill="none" stroke="#999999" stroke-dasharray="5,2" points="1270,-632.76 1270,-707.76 1542,-707.76 1542,-632.76 1270,-632.76"/>
<text text-anchor="middle" x="1406" y="-692.56" font-family="Times,serif" font-size="14.00">Observations (SOSA/ODIM entities)</text>
</g>
<g id="clust5" class="cluster">
<title>cluster_daily</title>
<polygon fill="none" stroke="#999999" stroke-dasharray="5,2" points="420,-324.25 420,-499.51 1211,-499.51 1211,-324.25 420,-324.25"/>
<text text-anchor="middle" x="815.5" y="-484.31" font-family="Times,serif" font-size="14.00">Daily features (odim:DerivedFeature)</text>
</g>
<g id="clust6" class="cluster">
<title>cluster_weekly</title>
<polygon fill="none" stroke="#999999" stroke-dasharray="5,2" points="527,-532.51 527,-1107.27 1110,-1107.27 1110,-532.51 527,-532.51"/>
<text text-anchor="middle" x="818.5" y="-1092.07" font-family="Times,serif" font-size="14.00">Weekly aggregates → decisions → phenotype</text>
</g>
<!-- keyE -->
<g id="node1" class="node">
<title>keyE</title>
<path fill="none" stroke="black" d="M498.5,-1076.27C498.5,-1076.27 357.5,-1076.27 357.5,-1076.27 351.5,-1076.27 345.5,-1070.27 345.5,-1064.27 345.5,-1064.27 345.5,-1052.27 345.5,-1052.27 345.5,-1046.27 351.5,-1040.27 357.5,-1040.27 357.5,-1040.27 498.5,-1040.27 498.5,-1040.27 504.5,-1040.27 510.5,-1046.27 510.5,-1052.27 510.5,-1052.27 510.5,-1064.27 510.5,-1064.27 510.5,-1070.27 504.5,-1076.27 498.5,-1076.27"/>
<text text-anchor="middle" x="428" y="-1055.47" font-family="Helvetica,sans-Serif" font-size="11.00">Entity (prov:Entity, odim:*)</text>
</g>
<!-- keyA -->
<g id="node2" class="node">
<title>keyA</title>
<ellipse fill="none" stroke="black" cx="166" cy="-1058.27" rx="150.17" ry="18"/>
<text text-anchor="middle" x="166" y="-1055.47" font-family="Helvetica,sans-Serif" font-size="11.00">Activity (prov:Activity, odim:Computation)</text>
</g>
<!-- RawSteps -->
<g id="node3" class="node">
<title>RawSteps</title>
<path fill="none" stroke="black" d="M921.5,-52C921.5,-52 822.5,-52 822.5,-52 816.5,-52 810.5,-46 810.5,-40 810.5,-40 810.5,-28 810.5,-28 810.5,-22 816.5,-16 822.5,-16 822.5,-16 921.5,-16 921.5,-16 927.5,-16 933.5,-22 933.5,-28 933.5,-28 933.5,-40 933.5,-40 933.5,-46 927.5,-52 921.5,-52"/>
<text text-anchor="middle" x="872" y="-37.2" font-family="Helvetica,sans-Serif" font-size="11.00">odim:RawStepsCSV</text>
<text text-anchor="middle" x="872" y="-25.2" font-family="Helvetica,sans-Serif" font-size="11.00">(prov:Entity)</text>
</g>
<!-- RawSleep -->
<g id="node4" class="node">
<title>RawSleep</title>
<path fill="none" stroke="black" d="M1073,-52C1073,-52 975,-52 975,-52 969,-52 963,-46 963,-40 963,-40 963,-28 963,-28 963,-22 969,-16 975,-16 975,-16 1073,-16 1073,-16 1079,-16 1085,-22 1085,-28 1085,-28 1085,-40 1085,-40 1085,-46 1079,-52 1073,-52"/>
<text text-anchor="middle" x="1024" y="-37.2" font-family="Helvetica,sans-Serif" font-size="11.00">odim:RawSleepCSV</text>
<text text-anchor="middle" x="1024" y="-25.2" font-family="Helvetica,sans-Serif" font-size="11.00">(prov:Entity)</text>
</g>
<!-- RawLoc -->
<g id="node5" class="node">
<title>RawLoc</title>
<path fill="none" stroke="black" d="M1241.5,-52C1241.5,-52 1126.5,-52 1126.5,-52 1120.5,-52 1114.5,-46 1114.5,-40 1114.5,-40 1114.5,-28 1114.5,-28 1114.5,-22 1120.5,-16 1126.5,-16 1126.5,-16 1241.5,-16 1241.5,-16 1247.5,-16 1253.5,-22 1253.5,-28 1253.5,-28 1253.5,-40 1253.5,-40 1253.5,-46 1247.5,-52 1241.5,-52"/>
<text text-anchor="middle" x="1184" y="-37.2" font-family="Helvetica,sans-Serif" font-size="11.00">odim:RawLocationCSV</text>
<text text-anchor="middle" x="1184" y="-25.2" font-family="Helvetica,sans-Serif" font-size="11.00">(prov:Entity)</text>
</g>
<!-- Import -->
<g id="node6" class="node">
<title>Import</title>
<ellipse fill="none" stroke="black" cx="1024" cy="-146.63" rx="111.95" ry="22.76"/>
<text text-anchor="middle" x="1024" y="-149.83" font-family="Helvetica,sans-Serif" font-size="11.00">odim:A_Import</text>
<text text-anchor="middle" x="1024" y="-137.83" font-family="Helvetica,sans-Serif" font-size="11.00">(odim:DataTransferEvent)</text>
</g>
<!-- Import&#45;&gt;RawSteps -->
<g id="edge1" class="edge">
<title>Import&#45;&gt;RawSteps</title>
<path fill="none" stroke="black" d="M995.05,-124.56C968.94,-105.55 930.6,-77.65 903.68,-58.05"/>
<polygon fill="black" stroke="black" points="905.51,-55.06 895.36,-52.01 901.39,-60.72 905.51,-55.06"/>
<text text-anchor="middle" x="988" y="-94" font-family="Times,serif" font-size="10.00">prov:used</text>
</g>
<!-- Import&#45;&gt;RawSleep -->
<g id="edge2" class="edge">
<title>Import&#45;&gt;RawSleep</title>
<path fill="none" stroke="black" d="M1024,-123.77C1024,-106.11 1024,-81.15 1024,-62.2"/>
<polygon fill="black" stroke="black" points="1027.5,-62.1 1024,-52.1 1020.5,-62.1 1027.5,-62.1"/>
<text text-anchor="middle" x="1050" y="-94" font-family="Times,serif" font-size="10.00">prov:used</text>
</g>
<!-- Import&#45;&gt;RawLoc -->
<g id="edge3" class="edge">
<title>Import&#45;&gt;RawLoc</title>
<path fill="none" stroke="black" d="M1054.09,-124.82C1081.66,-105.76 1122.38,-77.6 1150.87,-57.91"/>
<polygon fill="black" stroke="black" points="1153.05,-60.65 1159.29,-52.09 1149.07,-54.9 1153.05,-60.65"/>
<text text-anchor="middle" x="1126" y="-94" font-family="Times,serif" font-size="10.00">prov:used</text>
</g>
<!-- ObsSteps -->
<g id="node7" class="node">
<title>ObsSteps</title>
<path fill="none" stroke="black" d="M886,-277.25C886,-277.25 736,-277.25 736,-277.25 730,-277.25 724,-271.25 724,-265.25 724,-265.25 724,-253.25 724,-253.25 724,-247.25 730,-241.25 736,-241.25 736,-241.25 886,-241.25 886,-241.25 892,-241.25 898,-247.25 898,-253.25 898,-253.25 898,-265.25 898,-265.25 898,-271.25 892,-277.25 886,-277.25"/>
<text text-anchor="middle" x="811" y="-262.45" font-family="Helvetica,sans-Serif" font-size="11.00">odim:Obs_Steps_D1</text>
<text text-anchor="middle" x="811" y="-250.45" font-family="Helvetica,sans-Serif" font-size="11.00">(odim:ActivityMeasurement)</text>
</g>
<!-- ObsSteps&#45;&gt;Import -->
<g id="edge4" class="edge">
<title>ObsSteps&#45;&gt;Import</title>
<path fill="none" stroke="black" d="M840.8,-241.22C858.23,-231.37 880.73,-218.87 901,-208.25 924.34,-196.03 950.49,-183.04 972.66,-172.23"/>
<polygon fill="black" stroke="black" points="974.43,-175.26 981.9,-167.75 971.37,-168.97 974.43,-175.26"/>
<text text-anchor="middle" x="959" y="-211.25" font-family="Times,serif" font-size="10.00">odim:wasGeneratedBy</text>
</g>
<!-- ObsSleep -->
<g id="node8" class="node">
<title>ObsSleep</title>
<path fill="none" stroke="black" d="M1109,-277.25C1109,-277.25 939,-277.25 939,-277.25 933,-277.25 927,-271.25 927,-265.25 927,-265.25 927,-253.25 927,-253.25 927,-247.25 933,-241.25 939,-241.25 939,-241.25 1109,-241.25 1109,-241.25 1115,-241.25 1121,-247.25 1121,-253.25 1121,-253.25 1121,-265.25 1121,-265.25 1121,-271.25 1115,-277.25 1109,-277.25"/>
<text text-anchor="middle" x="1024" y="-262.45" font-family="Helvetica,sans-Serif" font-size="11.00">odim:Obs_Sleep_D1</text>
<text text-anchor="middle" x="1024" y="-250.45" font-family="Helvetica,sans-Serif" font-size="11.00">(odim:SleepStageMeasurement)</text>
</g>
<!-- ObsSleep&#45;&gt;Import -->
<g id="edge5" class="edge">
<title>ObsSleep&#45;&gt;Import</title>
<path fill="none" stroke="black" d="M1024,-240.97C1024,-224.59 1024,-199.58 1024,-179.58"/>
<polygon fill="black" stroke="black" points="1027.5,-179.35 1024,-169.35 1020.5,-179.35 1027.5,-179.35"/>
<text text-anchor="middle" x="1082" y="-211.25" font-family="Times,serif" font-size="10.00">odim:wasGeneratedBy</text>
</g>
<!-- ObsLoc -->
<g id="node9" class="node">
<title>ObsLoc</title>
<path fill="none" stroke="black" d="M1328.5,-277.25C1328.5,-277.25 1163.5,-277.25 1163.5,-277.25 1157.5,-277.25 1151.5,-271.25 1151.5,-265.25 1151.5,-265.25 1151.5,-253.25 1151.5,-253.25 1151.5,-247.25 1157.5,-241.25 1163.5,-241.25 1163.5,-241.25 1328.5,-241.25 1328.5,-241.25 1334.5,-241.25 1340.5,-247.25 1340.5,-253.25 1340.5,-253.25 1340.5,-265.25 1340.5,-265.25 1340.5,-271.25 1334.5,-277.25 1328.5,-277.25"/>
<text text-anchor="middle" x="1246" y="-262.45" font-family="Helvetica,sans-Serif" font-size="11.00">odim:Obs_Location_D1</text>
<text text-anchor="middle" x="1246" y="-250.45" font-family="Helvetica,sans-Serif" font-size="11.00">(odim:DeviceLocationEstimate)</text>
</g>
<!-- ObsLoc&#45;&gt;Import -->
<g id="edge6" class="edge">
<title>ObsLoc&#45;&gt;Import</title>
<path fill="none" stroke="black" d="M1212.13,-241.05C1193.03,-231.37 1168.71,-219.09 1147,-208.25 1123.03,-196.3 1096.38,-183.14 1074.03,-172.15"/>
<polygon fill="black" stroke="black" points="1075.57,-169.01 1065.05,-167.74 1072.48,-175.29 1075.57,-169.01"/>
<text text-anchor="middle" x="1227" y="-211.25" font-family="Times,serif" font-size="10.00">odim:wasGeneratedBy</text>
</g>
<!-- ObsDots -->
<g id="node10" class="node">
<title>ObsDots</title>
<text text-anchor="middle" x="1330" y="-655.96" font-family="Helvetica,sans-Serif" font-size="11.00">… (D2..D7)</text>
</g>
<!-- DailyComp -->
<g id="node11" class="node">
<title>DailyComp</title>
<ellipse fill="none" stroke="black" cx="811" cy="-354.88" rx="133.79" ry="22.76"/>
<text text-anchor="middle" x="811" y="-358.08" font-family="Helvetica,sans-Serif" font-size="11.00">odim:A_DailySummary</text>
<text text-anchor="middle" x="811" y="-346.08" font-family="Helvetica,sans-Serif" font-size="11.00">(odim:AlgorithmicComputation)</text>
</g>
<!-- DailyComp&#45;&gt;ObsSteps -->
<g id="edge7" class="edge">
<title>DailyComp&#45;&gt;ObsSteps</title>
<path fill="none" stroke="black" d="M811,-332.17C811,-318.91 811,-301.84 811,-287.65"/>
<polygon fill="black" stroke="black" points="814.5,-287.48 811,-277.48 807.5,-287.48 814.5,-287.48"/>
<text text-anchor="middle" x="837" y="-302.25" font-family="Times,serif" font-size="10.00">prov:used</text>
</g>
<!-- DailyComp&#45;&gt;ObsSleep -->
<g id="edge8" class="edge">
<title>DailyComp&#45;&gt;ObsSleep</title>
<path fill="none" stroke="black" d="M857.22,-333.57C892.26,-318.16 940.29,-297.05 975.81,-281.44"/>
<polygon fill="black" stroke="black" points="977.26,-284.62 985.01,-277.39 974.45,-278.21 977.26,-284.62"/>
<text text-anchor="middle" x="957" y="-302.25" font-family="Times,serif" font-size="10.00">prov:used</text>
</g>
<!-- F1 -->
<g id="node12" class="node">
<title>F1</title>
<path fill="none" stroke="black" d="M557.5,-468.51C557.5,-468.51 440.5,-468.51 440.5,-468.51 434.5,-468.51 428.5,-462.51 428.5,-456.51 428.5,-456.51 428.5,-444.51 428.5,-444.51 428.5,-438.51 434.5,-432.51 440.5,-432.51 440.5,-432.51 557.5,-432.51 557.5,-432.51 563.5,-432.51 569.5,-438.51 569.5,-444.51 569.5,-444.51 569.5,-456.51 569.5,-456.51 569.5,-462.51 563.5,-468.51 557.5,-468.51"/>
<text text-anchor="middle" x="499" y="-453.71" font-family="Helvetica,sans-Serif" font-size="11.00">odim:F_DailySteps_D1</text>
<text text-anchor="middle" x="499" y="-441.71" font-family="Helvetica,sans-Serif" font-size="11.00">(odim:DerivedFeature)</text>
</g>
<!-- F1&#45;&gt;DailyComp -->
<g id="edge13" class="edge">
<title>F1&#45;&gt;DailyComp</title>
<path fill="none" stroke="black" d="M514.67,-432.44C525.91,-421.28 542.02,-407.36 559,-399.51 595.97,-382.42 638.8,-371.97 678.54,-365.61"/>
<polygon fill="black" stroke="black" points="679.22,-369.04 688.57,-364.07 678.16,-362.12 679.22,-369.04"/>
<text text-anchor="middle" x="616.5" y="-402.51" font-family="Times,serif" font-size="10.00">odim:wasComputedBy</text>
</g>
<!-- F2 -->
<g id="node13" class="node">
<title>F2</title>
<path fill="none" stroke="black" d="M727.5,-468.51C727.5,-468.51 610.5,-468.51 610.5,-468.51 604.5,-468.51 598.5,-462.51 598.5,-456.51 598.5,-456.51 598.5,-444.51 598.5,-444.51 598.5,-438.51 604.5,-432.51 610.5,-432.51 610.5,-432.51 727.5,-432.51 727.5,-432.51 733.5,-432.51 739.5,-438.51 739.5,-444.51 739.5,-444.51 739.5,-456.51 739.5,-456.51 739.5,-462.51 733.5,-468.51 727.5,-468.51"/>
<text text-anchor="middle" x="669" y="-453.71" font-family="Helvetica,sans-Serif" font-size="11.00">odim:F_DailySteps_D2</text>
<text text-anchor="middle" x="669" y="-441.71" font-family="Helvetica,sans-Serif" font-size="11.00">(odim:DerivedFeature)</text>
</g>
<!-- F2&#45;&gt;DailyComp -->
<g id="edge14" class="edge">
<title>F2&#45;&gt;DailyComp</title>
<path fill="none" stroke="black" d="M671.77,-432.19C674.31,-421.5 679.1,-408.21 688,-399.51 697.49,-390.23 709.07,-382.91 721.3,-377.15"/>
<polygon fill="black" stroke="black" points="722.98,-380.23 730.75,-373.03 720.18,-373.82 722.98,-380.23"/>
<text text-anchor="middle" x="745.5" y="-402.51" font-family="Times,serif" font-size="10.00">odim:wasComputedBy</text>
</g>
<!-- FDots -->
<g id="node14" class="node">
<title>FDots</title>
<text text-anchor="middle" x="808" y="-447.71" font-family="Helvetica,sans-Serif" font-size="11.00">… (D3..D7)</text>
</g>
<!-- FDots&#45;&gt;DailyComp -->
<g id="edge17" class="edge">
<title>FDots&#45;&gt;DailyComp</title>
<path fill="none" stroke="black" stroke-dasharray="1,5" d="M808.55,-432.34C809.04,-416.92 809.77,-394.22 810.31,-377.56"/>
</g>
<!-- SQ1 -->
<g id="node15" class="node">
<title>SQ1</title>
<path fill="none" stroke="black" d="M1013.5,-468.51C1013.5,-468.51 888.5,-468.51 888.5,-468.51 882.5,-468.51 876.5,-462.51 876.5,-456.51 876.5,-456.51 876.5,-444.51 876.5,-444.51 876.5,-438.51 882.5,-432.51 888.5,-432.51 888.5,-432.51 1013.5,-432.51 1013.5,-432.51 1019.5,-432.51 1025.5,-438.51 1025.5,-444.51 1025.5,-444.51 1025.5,-456.51 1025.5,-456.51 1025.5,-462.51 1019.5,-468.51 1013.5,-468.51"/>
<text text-anchor="middle" x="951" y="-453.71" font-family="Helvetica,sans-Serif" font-size="11.00">odim:F_SleepQuality_D1</text>
<text text-anchor="middle" x="951" y="-441.71" font-family="Helvetica,sans-Serif" font-size="11.00">(odim:DerivedFeature)</text>
</g>
<!-- SQ1&#45;&gt;DailyComp -->
<g id="edge15" class="edge">
<title>SQ1&#45;&gt;DailyComp</title>
<path fill="none" stroke="black" d="M925.32,-432.34C904.51,-418.42 874.82,-398.56 850.92,-382.58"/>
<polygon fill="black" stroke="black" points="852.66,-379.53 842.4,-376.88 848.76,-385.35 852.66,-379.53"/>
<text text-anchor="middle" x="947.5" y="-402.51" font-family="Times,serif" font-size="10.00">odim:wasComputedBy</text>
</g>
<!-- SQ2 -->
<g id="node16" class="node">
<title>SQ2</title>
<path fill="none" stroke="black" d="M1191.5,-468.51C1191.5,-468.51 1066.5,-468.51 1066.5,-468.51 1060.5,-468.51 1054.5,-462.51 1054.5,-456.51 1054.5,-456.51 1054.5,-444.51 1054.5,-444.51 1054.5,-438.51 1060.5,-432.51 1066.5,-432.51 1066.5,-432.51 1191.5,-432.51 1191.5,-432.51 1197.5,-432.51 1203.5,-438.51 1203.5,-444.51 1203.5,-444.51 1203.5,-456.51 1203.5,-456.51 1203.5,-462.51 1197.5,-468.51 1191.5,-468.51"/>
<text text-anchor="middle" x="1129" y="-453.71" font-family="Helvetica,sans-Serif" font-size="11.00">odim:F_SleepQuality_D2</text>
<text text-anchor="middle" x="1129" y="-441.71" font-family="Helvetica,sans-Serif" font-size="11.00">(odim:DerivedFeature)</text>
</g>
<!-- SQ2&#45;&gt;DailyComp -->
<g id="edge16" class="edge">
<title>SQ2&#45;&gt;DailyComp</title>
<path fill="none" stroke="black" d="M1093.82,-432.4C1070.93,-421.78 1040.2,-408.51 1012,-399.51 979.63,-389.18 943.55,-380.51 911,-373.68"/>
<polygon fill="black" stroke="black" points="911.51,-370.21 901.01,-371.62 910.1,-377.07 911.51,-370.21"/>
<text text-anchor="middle" x="1099.5" y="-402.51" font-family="Times,serif" font-size="10.00">odim:wasComputedBy</text>
</g>
<!-- WeeklySteps -->
<g id="node17" class="node">
<title>WeeklySteps</title>
<ellipse fill="none" stroke="black" cx="669" cy="-563.14" rx="133.79" ry="22.76"/>
<text text-anchor="middle" x="669" y="-566.34" font-family="Helvetica,sans-Serif" font-size="11.00">odim:A_WeeklyAggregateSteps</text>
<text text-anchor="middle" x="669" y="-554.34" font-family="Helvetica,sans-Serif" font-size="11.00">(odim:AlgorithmicComputation)</text>
</g>
<!-- WeeklySteps&#45;&gt;F1 -->
<g id="edge18" class="edge">
<title>WeeklySteps&#45;&gt;F1</title>
<path fill="none" stroke="black" d="M636.62,-541.07C607.16,-521.9 563.8,-493.68 533.65,-474.06"/>
<polygon fill="black" stroke="black" points="535.42,-471.04 525.13,-468.51 531.6,-476.9 535.42,-471.04"/>
<text text-anchor="middle" x="626" y="-510.51" font-family="Times,serif" font-size="10.00">prov:used</text>
</g>
<!-- WeeklySteps&#45;&gt;F2 -->
<g id="edge19" class="edge">
<title>WeeklySteps&#45;&gt;F2</title>
<path fill="none" stroke="black" d="M669,-540.28C669,-522.62 669,-497.66 669,-478.71"/>
<polygon fill="black" stroke="black" points="672.5,-478.61 669,-468.61 665.5,-478.61 672.5,-478.61"/>
<text text-anchor="middle" x="695" y="-510.51" font-family="Times,serif" font-size="10.00">prov:used</text>
</g>
<!-- WeeklySteps&#45;&gt;FDots -->
<g id="edge20" class="edge">
<title>WeeklySteps&#45;&gt;FDots</title>
<path fill="none" stroke="black" stroke-dasharray="1,5" d="M699.01,-541.05C715.51,-529.2 736.2,-513.93 754,-499.51 766.09,-489.72 779.13,-478.15 789.37,-468.83"/>
</g>
<!-- MeanSteps -->
<g id="node18" class="node">
<title>MeanSteps</title>
<path fill="none" stroke="black" d="M681.5,-676.76C681.5,-676.76 546.5,-676.76 546.5,-676.76 540.5,-676.76 534.5,-670.76 534.5,-664.76 534.5,-664.76 534.5,-652.76 534.5,-652.76 534.5,-646.76 540.5,-640.76 546.5,-640.76 546.5,-640.76 681.5,-640.76 681.5,-640.76 687.5,-640.76 693.5,-646.76 693.5,-652.76 693.5,-652.76 693.5,-664.76 693.5,-664.76 693.5,-670.76 687.5,-676.76 681.5,-676.76"/>
<text text-anchor="middle" x="614" y="-661.96" font-family="Helvetica,sans-Serif" font-size="11.00">odim:F_WeeklyMeanSteps</text>
<text text-anchor="middle" x="614" y="-649.96" font-family="Helvetica,sans-Serif" font-size="11.00">(odim:DerivedFeature)</text>
</g>
<!-- MeanSteps&#45;&gt;WeeklySteps -->
<g id="edge21" class="edge">
<title>MeanSteps&#45;&gt;WeeklySteps</title>
<path fill="none" stroke="black" d="M624.09,-640.59C631.66,-627.71 642.22,-609.73 651.2,-594.44"/>
<polygon fill="black" stroke="black" points="654.22,-596.21 656.27,-585.82 648.18,-592.67 654.22,-596.21"/>
<text text-anchor="middle" x="701.5" y="-610.76" font-family="Times,serif" font-size="10.00">odim:wasComputedBy</text>
</g>
<!-- Thresh -->
<g id="node19" class="node">
<title>Thresh</title>
<path fill="none" stroke="black" d="M869.5,-676.76C869.5,-676.76 734.5,-676.76 734.5,-676.76 728.5,-676.76 722.5,-670.76 722.5,-664.76 722.5,-664.76 722.5,-652.76 722.5,-652.76 722.5,-646.76 728.5,-640.76 734.5,-640.76 734.5,-640.76 869.5,-640.76 869.5,-640.76 875.5,-640.76 881.5,-646.76 881.5,-652.76 881.5,-652.76 881.5,-664.76 881.5,-664.76 881.5,-670.76 875.5,-676.76 869.5,-676.76"/>
<text text-anchor="middle" x="802" y="-661.96" font-family="Helvetica,sans-Serif" font-size="11.00">odim:Threshold_LowSteps</text>
<text text-anchor="middle" x="802" y="-649.96" font-family="Helvetica,sans-Serif" font-size="11.00">(prov:Entity)</text>
</g>
<!-- StepsDecision -->
<g id="node20" class="node">
<title>StepsDecision</title>
<ellipse fill="none" stroke="black" cx="670" cy="-771.39" rx="135.11" ry="22.76"/>
<text text-anchor="middle" x="670" y="-774.59" font-family="Helvetica,sans-Serif" font-size="11.00">odim:A_StepsThresholdDecision</text>
<text text-anchor="middle" x="670" y="-762.59" font-family="Helvetica,sans-Serif" font-size="11.00">(odim:AlgorithmicComputation)</text>
</g>
<!-- StepsDecision&#45;&gt;MeanSteps -->
<g id="edge22" class="edge">
<title>StepsDecision&#45;&gt;MeanSteps</title>
<path fill="none" stroke="black" d="M659.07,-748.8C649.97,-730.83 636.99,-705.19 627.3,-686.04"/>
<polygon fill="black" stroke="black" points="630.34,-684.29 622.7,-676.95 624.09,-687.45 630.34,-684.29"/>
<text text-anchor="middle" x="674" y="-718.76" font-family="Times,serif" font-size="10.00">prov:used</text>
</g>
<!-- StepsDecision&#45;&gt;Thresh -->
<g id="edge23" class="edge">
<title>StepsDecision&#45;&gt;Thresh</title>
<path fill="none" stroke="black" d="M695.45,-749.06C717.83,-730.3 750.38,-703.03 773.6,-683.57"/>
<polygon fill="black" stroke="black" points="775.98,-686.14 781.39,-677.03 771.48,-680.78 775.98,-686.14"/>
<text text-anchor="middle" x="759" y="-718.76" font-family="Times,serif" font-size="10.00">prov:used</text>
</g>
<!-- Marker -->
<g id="node21" class="node">
<title>Marker</title>
<path fill="none" stroke="black" stroke-width="2" d="M781,-885.02C781,-885.02 581,-885.02 581,-885.02 575,-885.02 569,-879.02 569,-873.02 569,-873.02 569,-861.02 569,-861.02 569,-855.02 575,-849.02 581,-849.02 581,-849.02 781,-849.02 781,-849.02 787,-849.02 793,-855.02 793,-861.02 793,-861.02 793,-873.02 793,-873.02 793,-879.02 787,-885.02 781,-885.02"/>
<text text-anchor="middle" x="681" y="-870.22" font-family="Helvetica,sans-Serif" font-size="11.00">odim:Marker_LowActivityDuringTravel</text>
<text text-anchor="middle" x="681" y="-858.22" font-family="Helvetica,sans-Serif" font-size="11.00">(odim:DerivedFeature)</text>
</g>
<!-- Marker&#45;&gt;StepsDecision -->
<g id="edge24" class="edge">
<title>Marker&#45;&gt;StepsDecision</title>
<path fill="none" stroke="black" d="M678.98,-848.85C677.53,-836.44 675.51,-819.32 673.76,-804.42"/>
<polygon fill="black" stroke="black" points="677.19,-803.59 672.55,-794.07 670.24,-804.41 677.19,-803.59"/>
<text text-anchor="middle" x="734.5" y="-819.02" font-family="Times,serif" font-size="10.00">odim:wasComputedBy</text>
</g>
<!-- WeeklySleep -->
<g id="node22" class="node">
<title>WeeklySleep</title>
<ellipse fill="none" stroke="black" cx="968" cy="-771.39" rx="133.79" ry="22.76"/>
<text text-anchor="middle" x="968" y="-774.59" font-family="Helvetica,sans-Serif" font-size="11.00">odim:A_WeeklyAggregateSleep</text>
<text text-anchor="middle" x="968" y="-762.59" font-family="Helvetica,sans-Serif" font-size="11.00">(odim:AlgorithmicComputation)</text>
</g>
<!-- WeeklySleep&#45;&gt;FDots -->
<g id="edge27" class="edge">
<title>WeeklySleep&#45;&gt;FDots</title>
<path fill="none" stroke="black" stroke-dasharray="1,5" d="M957.13,-748.72C927.17,-689.01 843.82,-522.91 816.67,-468.79"/>
</g>
<!-- WeeklySleep&#45;&gt;SQ1 -->
<g id="edge25" class="edge">
<title>WeeklySleep&#45;&gt;SQ1</title>
<path fill="none" stroke="black" d="M966.84,-748.72C963.84,-692.39 955.79,-541.38 952.47,-479.03"/>
<polygon fill="black" stroke="black" points="955.95,-478.59 951.92,-468.79 948.96,-478.97 955.95,-478.59"/>
<text text-anchor="middle" x="986" y="-610.76" font-family="Times,serif" font-size="10.00">prov:used</text>
</g>
<!-- WeeklySleep&#45;&gt;SQ2 -->
<g id="edge26" class="edge">
<title>WeeklySleep&#45;&gt;SQ2</title>
<path fill="none" stroke="black" d="M978.94,-748.72C1007.56,-692.04 1084.57,-539.5 1115.69,-477.88"/>
<polygon fill="black" stroke="black" points="1118.89,-479.3 1120.27,-468.79 1112.64,-476.14 1118.89,-479.3"/>
<text text-anchor="middle" x="1075" y="-610.76" font-family="Times,serif" font-size="10.00">prov:used</text>
</g>
<!-- MeanSleep -->
<g id="node23" class="node">
<title>MeanSleep</title>
<path fill="none" stroke="black" d="M1022,-885.02C1022,-885.02 848,-885.02 848,-885.02 842,-885.02 836,-879.02 836,-873.02 836,-873.02 836,-861.02 836,-861.02 836,-855.02 842,-849.02 848,-849.02 848,-849.02 1022,-849.02 1022,-849.02 1028,-849.02 1034,-855.02 1034,-861.02 1034,-861.02 1034,-873.02 1034,-873.02 1034,-879.02 1028,-885.02 1022,-885.02"/>
<text text-anchor="middle" x="935" y="-870.22" font-family="Helvetica,sans-Serif" font-size="11.00">odim:F_WeeklyMeanSleepQuality</text>
<text text-anchor="middle" x="935" y="-858.22" font-family="Helvetica,sans-Serif" font-size="11.00">(odim:DerivedFeature)</text>
</g>
<!-- MeanSleep&#45;&gt;WeeklySleep -->
<g id="edge28" class="edge">
<title>MeanSleep&#45;&gt;WeeklySleep</title>
<path fill="none" stroke="black" d="M941.05,-848.85C945.51,-836.2 951.69,-818.65 957.01,-803.56"/>
<polygon fill="black" stroke="black" points="960.34,-804.67 960.36,-794.07 953.73,-802.34 960.34,-804.67"/>
<text text-anchor="middle" x="1010.5" y="-819.02" font-family="Times,serif" font-size="10.00">odim:wasComputedBy</text>
</g>
<!-- Combine -->
<g id="node24" class="node">
<title>Combine</title>
<ellipse fill="none" stroke="black" cx="801" cy="-962.65" rx="133.79" ry="22.76"/>
<text text-anchor="middle" x="801" y="-965.85" font-family="Helvetica,sans-Serif" font-size="11.00">odim:A_MarkerDerivation</text>
<text text-anchor="middle" x="801" y="-953.85" font-family="Helvetica,sans-Serif" font-size="11.00">(odim:AlgorithmicComputation)</text>
</g>
<!-- Combine&#45;&gt;Marker -->
<g id="edge29" class="edge">
<title>Combine&#45;&gt;Marker</title>
<path fill="none" stroke="black" d="M773.77,-940.4C755.01,-925.77 730.09,-906.32 710.8,-891.27"/>
<polygon fill="black" stroke="black" points="712.95,-888.51 702.92,-885.12 708.65,-894.03 712.95,-888.51"/>
<text text-anchor="middle" x="771" y="-910.02" font-family="Times,serif" font-size="10.00">prov:used</text>
</g>
<!-- Combine&#45;&gt;MeanSleep -->
<g id="edge30" class="edge">
<title>Combine&#45;&gt;MeanSleep</title>
<path fill="none" stroke="black" d="M831.41,-940.4C852.54,-925.64 880.68,-905.98 902.29,-890.87"/>
<polygon fill="black" stroke="black" points="904.33,-893.72 910.53,-885.12 900.33,-887.98 904.33,-893.72"/>
<text text-anchor="middle" x="903" y="-910.02" font-family="Times,serif" font-size="10.00">prov:used</text>
</g>
<!-- TravelWin -->
<g id="node28" class="node">
<title>TravelWin</title>
<path fill="none" stroke="black" d="M1319.5,-885.02C1319.5,-885.02 1178.5,-885.02 1178.5,-885.02 1172.5,-885.02 1166.5,-879.02 1166.5,-873.02 1166.5,-873.02 1166.5,-861.02 1166.5,-861.02 1166.5,-855.02 1172.5,-849.02 1178.5,-849.02 1178.5,-849.02 1319.5,-849.02 1319.5,-849.02 1325.5,-849.02 1331.5,-855.02 1331.5,-861.02 1331.5,-861.02 1331.5,-873.02 1331.5,-873.02 1331.5,-879.02 1325.5,-885.02 1319.5,-885.02"/>
<text text-anchor="middle" x="1249" y="-870.22" font-family="Helvetica,sans-Serif" font-size="11.00">odim:TravelWindow_Week1</text>
<text text-anchor="middle" x="1249" y="-858.22" font-family="Helvetica,sans-Serif" font-size="11.00">(odim:EventWindow)</text>
</g>
<!-- Combine&#45;&gt;TravelWin -->
<g id="edge31" class="edge">
<title>Combine&#45;&gt;TravelWin</title>
<path fill="none" stroke="black" d="M882.39,-944.64C959.92,-928.43 1076.48,-904.07 1157.27,-887.19"/>
<polygon fill="black" stroke="black" points="1158.36,-890.54 1167.44,-885.07 1156.93,-883.68 1158.36,-890.54"/>
<text text-anchor="middle" x="1078" y="-910.02" font-family="Times,serif" font-size="10.00">prov:used</text>
</g>
<!-- Phenotype -->
<g id="node25" class="node">
<title>Phenotype</title>
<path fill="none" stroke="black" stroke-width="2" d="M1018.5,-1076.27C1018.5,-1076.27 775.5,-1076.27 775.5,-1076.27 769.5,-1076.27 763.5,-1070.27 763.5,-1064.27 763.5,-1064.27 763.5,-1052.27 763.5,-1052.27 763.5,-1046.27 769.5,-1040.27 775.5,-1040.27 775.5,-1040.27 1018.5,-1040.27 1018.5,-1040.27 1024.5,-1040.27 1030.5,-1046.27 1030.5,-1052.27 1030.5,-1052.27 1030.5,-1064.27 1030.5,-1064.27 1030.5,-1070.27 1024.5,-1076.27 1018.5,-1076.27"/>
<text text-anchor="middle" x="897" y="-1061.47" font-family="Helvetica,sans-Serif" font-size="11.00">odim:Phenotype_LowActivityPoorSleep_Travel</text>
<text text-anchor="middle" x="897" y="-1049.47" font-family="Helvetica,sans-Serif" font-size="11.00">(odim:ActivityPhenotype)</text>
</g>
<!-- Phenotype&#45;&gt;Combine -->
<g id="edge32" class="edge">
<title>Phenotype&#45;&gt;Combine</title>
<path fill="none" stroke="black" d="M867.08,-1040.19C857.53,-1033.97 847.3,-1026.45 839,-1018.27 831.67,-1011.06 824.84,-1002.25 819.05,-993.83"/>
<polygon fill="black" stroke="black" points="821.84,-991.71 813.41,-985.28 815.99,-995.56 821.84,-991.71"/>
<text text-anchor="middle" x="896.5" y="-1010.27" font-family="Times,serif" font-size="10.00">odim:wasComputedBy</text>
</g>
<!-- Week -->
<g id="node26" class="node">
<title>Week</title>
<path fill="none" stroke="black" d="M1090,-980.65C1090,-980.65 976,-980.65 976,-980.65 970,-980.65 964,-974.65 964,-968.65 964,-968.65 964,-956.65 964,-956.65 964,-950.65 970,-944.65 976,-944.65 976,-944.65 1090,-944.65 1090,-944.65 1096,-944.65 1102,-950.65 1102,-956.65 1102,-956.65 1102,-968.65 1102,-968.65 1102,-974.65 1096,-980.65 1090,-980.65"/>
<text text-anchor="middle" x="1033" y="-965.85" font-family="Helvetica,sans-Serif" font-size="11.00">odim:Week1</text>
<text text-anchor="middle" x="1033" y="-953.85" font-family="Helvetica,sans-Serif" font-size="11.00">(odim:WeeklyInterval)</text>
</g>
<!-- Phenotype&#45;&gt;Week -->
<g id="edge33" class="edge">
<title>Phenotype&#45;&gt;Week</title>
<path fill="none" stroke="black" d="M923.76,-1040.26C934.2,-1033.52 946.23,-1025.64 957,-1018.27 971.88,-1008.1 988.14,-996.48 1001.79,-986.58"/>
<polygon fill="black" stroke="black" points="1003.89,-989.38 1009.92,-980.67 999.77,-983.72 1003.89,-989.38"/>
<text text-anchor="middle" x="1021" y="-1010.27" font-family="Times,serif" font-size="10.00">odim:occursDuring</text>
</g>
<!-- TravelDetect -->
<g id="node27" class="node">
<title>TravelDetect</title>
<ellipse fill="none" stroke="black" cx="1297" cy="-771.39" rx="133.79" ry="22.76"/>
<text text-anchor="middle" x="1297" y="-774.59" font-family="Helvetica,sans-Serif" font-size="11.00">odim:A_TravelDetection</text>
<text text-anchor="middle" x="1297" y="-762.59" font-family="Helvetica,sans-Serif" font-size="11.00">(odim:AlgorithmicComputation)</text>
</g>
<!-- TravelDetect&#45;&gt;ObsLoc -->
<g id="edge9" class="edge">
<title>TravelDetect&#45;&gt;ObsLoc</title>
<path fill="none" stroke="black" d="M1280.63,-748.81C1266.05,-727.4 1247,-693.07 1247,-659.76 1247,-659.76 1247,-659.76 1247,-353.88 1247,-331.6 1246.71,-306.33 1246.45,-287.66"/>
<polygon fill="black" stroke="black" points="1249.94,-287.46 1246.29,-277.51 1242.94,-287.56 1249.94,-287.46"/>
<text text-anchor="middle" x="1273" y="-510.51" font-family="Times,serif" font-size="10.00">prov:used</text>
</g>
<!-- TravelDetect&#45;&gt;ObsDots -->
<g id="edge10" class="edge">
<title>TravelDetect&#45;&gt;ObsDots</title>
<path fill="none" stroke="black" stroke-dasharray="1,5" d="M1303.52,-748.54C1309.79,-727.5 1319.15,-696.14 1324.9,-676.87"/>
</g>
<!-- TravelThresh -->
<g id="node29" class="node">
<title>TravelThresh</title>
<path fill="none" stroke="black" d="M1696,-676.76C1696,-676.76 1562,-676.76 1562,-676.76 1556,-676.76 1550,-670.76 1550,-664.76 1550,-664.76 1550,-652.76 1550,-652.76 1550,-646.76 1556,-640.76 1562,-640.76 1562,-640.76 1696,-640.76 1696,-640.76 1702,-640.76 1708,-646.76 1708,-652.76 1708,-652.76 1708,-664.76 1708,-664.76 1708,-670.76 1702,-676.76 1696,-676.76"/>
<text text-anchor="middle" x="1629" y="-661.96" font-family="Helvetica,sans-Serif" font-size="11.00">odim:Threshold_TravelKm</text>
<text text-anchor="middle" x="1629" y="-649.96" font-family="Helvetica,sans-Serif" font-size="11.00">(prov:Entity)</text>
</g>
<!-- TravelDetect&#45;&gt;TravelThresh -->
<g id="edge11" class="edge">
<title>TravelDetect&#45;&gt;TravelThresh</title>
<path fill="none" stroke="black" d="M1385.61,-754.37C1434.03,-744.07 1494.47,-728.67 1546,-707.76 1562.86,-700.92 1580.46,-691.17 1595.08,-682.25"/>
<polygon fill="black" stroke="black" points="1597.14,-685.09 1603.78,-676.83 1593.44,-679.15 1597.14,-685.09"/>
<text text-anchor="middle" x="1545" y="-718.76" font-family="Times,serif" font-size="10.00">prov:used</text>
</g>
<!-- TravelWin&#45;&gt;TravelDetect -->
<g id="edge12" class="edge">
<title>TravelWin&#45;&gt;TravelDetect</title>
<path fill="none" stroke="black" d="M1257.8,-848.85C1264.35,-836.08 1273.45,-818.32 1281.24,-803.13"/>
<polygon fill="black" stroke="black" points="1284.44,-804.57 1285.89,-794.07 1278.21,-801.37 1284.44,-804.57"/>
<text text-anchor="middle" x="1332.5" y="-819.02" font-family="Times,serif" font-size="10.00">odim:wasComputedBy</text>
</g>
</g>
</svg>
