<?xml version="1.0" encoding="UTF-8" standalone="no"?>
<!DOCTYPE svg PUBLIC "-//W3C//DTD SVG 1.1//EN"
 "http://www.w3.org/Graphics/SVG/1.1/DTD/svg11.dtd">
<!-- Generated by graphviz version 2.43.0 (0)
 -->
<!-- Title: DemoFlow Pages: 1 -->
<svg width="1851pt" height="1372pt"
 viewBox="0.00 0.00 1850.54 1371.81" xmlns="http://www.w3.org/2000/svg" xmlns:xlink="http://www.w3.org/1999/xlink">
<g id="graph0" class="graph" transform="scale(1 1) rotate(0) translate(4 1367.81)">
<title>DemoFlow</title>
<polygon fill="white" stroke="transparent" points="-4,4 -4,-1367.81 1846.54,-1367.81 1846.54,4 -4,4"/>
<g id="clust1" class="cluster">
<title>cluster_legend</title>
<polygon fill="none" stroke="#e5e5e5" stroke-dasharray="5,2" points="8,-1275.27 8,-1346.27 1073,-1346.27 1073,-1275.27 8,-1275.27"/>
<text text-anchor="middle" x="36" y="-1334.27" font-family="Times,serif" font-size="10.00">Legend</text>
</g>
<g id="clust2" class="cluster">
<title>cluster_raw</title>
<polygon fill="none" stroke="#999999" stroke-dasharray="5,2" points="616,-8 616,-83 1076,-83 1076,-8 616,-8"/>
<text text-anchor="middle" x="687.5" y="-67.8" font-family="Times,serif" font-size="14.00">Raw (prov:Entity)</text>
</g>
<g id="clust3" class="cluster">
<title>cluster_import</title>
<polygon fill="none" stroke="#999999" stroke-dasharray="5,2" points="710,-116 710,-200.25 967,-200.25 967,-116 710,-116"/>
<text text-anchor="middle" x="838.5" y="-185.05" font-family="Times,serif" font-size="14.00">Import (odim:DataTransferEvent)</text>
</g>
<g id="clust4" class="cluster">
<title>cluster_obs</title>
</g>
<g id="clust5" class="cluster">
<title>cluster_daily</title>
<polygon fill="none" stroke="#999999" stroke-dasharray="5,2" points="213,-324.25 213,-499.51 1010,-499.51 1010,-324.25 213,-324.25"/>
<text text-anchor="middle" x="355" y="-484.31" font-family="Times,serif" font-size="14.00">Daily features (odim:DerivedFeature)</text>
</g>
<g id="clust6" class="cluster">
<title>cluster_weekly</title>
<polygon fill="none" stroke="#999999" stroke-dasharray="5,2" points="260,-532.51 260,-1090.27 1244,-1090.27 1244,-532.51 260,-532.51"/>
<text text-anchor="middle" x="427.5" y="-1075.07" font-family="Times,serif" font-size="14.00">Weekly aggregates → decisions → phenotype</text>
</g>
<!-- Lraw -->
<g id="node1" class="node">
<title>Lraw</title>
<path fill="#eeeeee" stroke="#666666" d="M1052.5,-1319.27C1052.5,-1319.27 963.5,-1319.27 963.5,-1319.27 957.5,-1319.27 951.5,-1313.27 951.5,-1307.27 951.5,-1307.27 951.5,-1295.27 951.5,-1295.27 951.5,-1289.27 957.5,-1283.27 963.5,-1283.27 963.5,-1283.27 1052.5,-1283.27 1052.5,-1283.27 1058.5,-1283.27 1064.5,-1289.27 1064.5,-1295.27 1064.5,-1295.27 1064.5,-1307.27 1064.5,-1307.27 1064.5,-1313.27 1058.5,-1319.27 1052.5,-1319.27"/>
<text text-anchor="middle" x="1008" y="-1298.47" font-family="Helvetica,sans-Serif" font-size="11.00" fill="#222222">Raw (prov:Entity)</text>
</g>
<!-- Lobs -->
<g id="node2" class="node">
<title>Lobs</title>
<path fill="#ddeeff" stroke="#666666" d="M910.5,-1319.27C910.5,-1319.27 805.5,-1319.27 805.5,-1319.27 799.5,-1319.27 793.5,-1313.27 793.5,-1307.27 793.5,-1307.27 793.5,-1295.27 793.5,-1295.27 793.5,-1289.27 799.5,-1283.27 805.5,-1283.27 805.5,-1283.27 910.5,-1283.27 910.5,-1283.27 916.5,-1283.27 922.5,-1289.27 922.5,-1295.27 922.5,-1295.27 922.5,-1307.27 922.5,-1307.27 922.5,-1313.27 916.5,-1319.27 910.5,-1319.27"/>
<text text-anchor="middle" x="858" y="-1298.47" font-family="Helvetica,sans-Serif" font-size="11.00" fill="#222222">Observation (entity)</text>
</g>
<!-- Lfeat -->
<g id="node3" class="node">
<title>Lfeat</title>
<path fill="#e2f0d9" stroke="#666666" d="M752,-1319.27C752,-1319.27 628,-1319.27 628,-1319.27 622,-1319.27 616,-1313.27 616,-1307.27 616,-1307.27 616,-1295.27 616,-1295.27 616,-1289.27 622,-1283.27 628,-1283.27 628,-1283.27 752,-1283.27 752,-1283.27 758,-1283.27 764,-1289.27 764,-1295.27 764,-1295.27 764,-1307.27 764,-1307.27 764,-1313.27 758,-1319.27 752,-1319.27"/>
<text text-anchor="middle" x="690" y="-1298.47" font-family="Helvetica,sans-Serif" font-size="11.00" fill="#222222">Derived feature (entity)</text>
</g>
<!-- Lact -->
<g id="node4" class="node">
<title>Lact</title>
<ellipse fill="#fff2cc" stroke="#666666" cx="502" cy="-1301.27" rx="84.58" ry="18"/>
<text text-anchor="middle" x="502" y="-1298.47" font-family="Helvetica,sans-Serif" font-size="11.00" fill="#222222">Computation (activity)</text>
</g>
<!-- Lparam -->
<g id="node5" class="node">
<title>Lparam</title>
<path fill="#ffe5d9" stroke="#666666" d="M376,-1319.27C376,-1319.27 254,-1319.27 254,-1319.27 248,-1319.27 242,-1313.27 242,-1307.27 242,-1307.27 242,-1295.27 242,-1295.27 242,-1289.27 248,-1283.27 254,-1283.27 254,-1283.27 376,-1283.27 376,-1283.27 382,-1283.27 388,-1289.27 388,-1295.27 388,-1295.27 388,-1307.27 388,-1307.27 388,-1313.27 382,-1319.27 376,-1319.27"/>
<text text-anchor="middle" x="315" y="-1298.47" font-family="Helvetica,sans-Serif" font-size="11.00" fill="#222222">Parameter (prov:Entity)</text>
</g>
<!-- Lwin -->
<g id="node6" class="node">
<title>Lwin</title>
<path fill="#fde2e4" stroke="#666666" d="M200.5,-1319.27C200.5,-1319.27 131.5,-1319.27 131.5,-1319.27 125.5,-1319.27 119.5,-1313.27 119.5,-1307.27 119.5,-1307.27 119.5,-1295.27 119.5,-1295.27 119.5,-1289.27 125.5,-1283.27 131.5,-1283.27 131.5,-1283.27 200.5,-1283.27 200.5,-1283.27 206.5,-1283.27 212.5,-1289.27 212.5,-1295.27 212.5,-1295.27 212.5,-1307.27 212.5,-1307.27 212.5,-1313.27 206.5,-1319.27 200.5,-1319.27"/>
<text text-anchor="middle" x="166" y="-1298.47" font-family="Helvetica,sans-Serif" font-size="11.00" fill="#222222">Event window</text>
</g>
<!-- Lpheno -->
<g id="node7" class="node">
<title>Lpheno</title>
<path fill="#ede7f6" stroke="#666666" d="M78.5,-1319.27C78.5,-1319.27 27.5,-1319.27 27.5,-1319.27 21.5,-1319.27 15.5,-1313.27 15.5,-1307.27 15.5,-1307.27 15.5,-1295.27 15.5,-1295.27 15.5,-1289.27 21.5,-1283.27 27.5,-1283.27 27.5,-1283.27 78.5,-1283.27 78.5,-1283.27 84.5,-1283.27 90.5,-1289.27 90.5,-1295.27 90.5,-1295.27 90.5,-1307.27 90.5,-1307.27 90.5,-1313.27 84.5,-1319.27 78.5,-1319.27"/>
<text text-anchor="middle" x="53" y="-1298.47" font-family="Helvetica,sans-Serif" font-size="11.00" fill="#222222">Phenotype</text>
</g>
<!-- CenterAnchor -->
<!-- CenterAnchor&#45;&gt;Lfeat -->
<!-- RawSleep -->
<g id="node10" class="node">
<title>RawSleep</title>
<path fill="#eeeeee" stroke="#666666" d="M887,-52C887,-52 789,-52 789,-52 783,-52 777,-46 777,-40 777,-40 777,-28 777,-28 777,-22 783,-16 789,-16 789,-16 887,-16 887,-16 893,-16 899,-22 899,-28 899,-28 899,-40 899,-40 899,-46 893,-52 887,-52"/>
<text text-anchor="middle" x="838" y="-37.2" font-family="Helvetica,sans-Serif" font-size="11.00" fill="#222222">odim:RawSleepCSV</text>
<text text-anchor="middle" x="838" y="-25.2" font-family="Helvetica,sans-Serif" font-size="11.00" fill="#222222">(prov:Entity)</text>
</g>
<!-- CenterAnchor&#45;&gt;RawSleep -->
<!-- Import -->
<g id="node12" class="node">
<title>Import</title>
<ellipse fill="#fff2cc" stroke="#666666" cx="838" cy="-146.63" rx="111.95" ry="22.76"/>
<text text-anchor="middle" x="838" y="-149.83" font-family="Helvetica,sans-Serif" font-size="11.00" fill="#222222">odim:A_Import</text>
<text text-anchor="middle" x="838" y="-137.83" font-family="Helvetica,sans-Serif" font-size="11.00" fill="#222222">(odim:DataTransferEvent)</text>
</g>
<!-- CenterAnchor&#45;&gt;Import -->
<!-- DailyComp -->
<g id="node17" class="node">
<title>DailyComp</title>
<ellipse fill="#fff2cc" stroke="#666666" cx="625" cy="-354.88" rx="133.79" ry="22.76"/>
<text text-anchor="middle" x="625" y="-358.08" font-family="Helvetica,sans-Serif" font-size="11.00" fill="#222222">odim:A_DailySummary</text>
<text text-anchor="middle" x="625" y="-346.08" font-family="Helvetica,sans-Serif" font-size="11.00" fill="#222222">(odim:AlgorithmicComputation)</text>
</g>
<!-- CenterAnchor&#45;&gt;DailyComp -->
<!-- F1 -->
<g id="node18" class="node">
<title>F1</title>
<path fill="#e2f0d9" stroke="#666666" d="M350.5,-468.51C350.5,-468.51 233.5,-468.51 233.5,-468.51 227.5,-468.51 221.5,-462.51 221.5,-456.51 221.5,-456.51 221.5,-444.51 221.5,-444.51 221.5,-438.51 227.5,-432.51 233.5,-432.51 233.5,-432.51 350.5,-432.51 350.5,-432.51 356.5,-432.51 362.5,-438.51 362.5,-444.51 362.5,-444.51 362.5,-456.51 362.5,-456.51 362.5,-462.51 356.5,-468.51 350.5,-468.51"/>
<text text-anchor="middle" x="292" y="-453.71" font-family="Helvetica,sans-Serif" font-size="11.00" fill="#222222">odim:F_DailySteps_D1</text>
<text text-anchor="middle" x="292" y="-441.71" font-family="Helvetica,sans-Serif" font-size="11.00" fill="#222222">(odim:DerivedFeature)</text>
</g>
<!-- CenterAnchor&#45;&gt;F1 -->
<!-- SQ1 -->
<g id="node21" class="node">
<title>SQ1</title>
<path fill="#e2f0d9" stroke="#666666" d="M809,-468.51C809,-468.51 681,-468.51 681,-468.51 675,-468.51 669,-462.51 669,-456.51 669,-456.51 669,-444.51 669,-444.51 669,-438.51 675,-432.51 681,-432.51 681,-432.51 809,-432.51 809,-432.51 815,-432.51 821,-438.51 821,-444.51 821,-444.51 821,-456.51 821,-456.51 821,-462.51 815,-468.51 809,-468.51"/>
<text text-anchor="middle" x="745" y="-453.71" font-family="Helvetica,sans-Serif" font-size="11.00" fill="#222222">odim:F_SleepMinutes_D1</text>
<text text-anchor="middle" x="745" y="-441.71" font-family="Helvetica,sans-Serif" font-size="11.00" fill="#222222">(odim:DerivedFeature)</text>
</g>
<!-- CenterAnchor&#45;&gt;SQ1 -->
<!-- Combine -->
<g id="node34" class="node">
<title>Combine</title>
<ellipse fill="#fff2cc" stroke="#666666" cx="806" cy="-945.65" rx="133.79" ry="22.76"/>
<text text-anchor="middle" x="806" y="-948.85" font-family="Helvetica,sans-Serif" font-size="11.00" fill="#222222">odim:A_MarkerDerivation</text>
<text text-anchor="middle" x="806" y="-936.85" font-family="Helvetica,sans-Serif" font-size="11.00" fill="#222222">(odim:AlgorithmicComputation)</text>
</g>
<!-- CenterAnchor&#45;&gt;Combine -->
<!-- Phenotype -->
<g id="node35" class="node">
<title>Phenotype</title>
<path fill="#ede7f6" stroke="#666666" d="M1075,-1059.27C1075,-1059.27 763,-1059.27 763,-1059.27 757,-1059.27 751,-1053.27 751,-1047.27 751,-1047.27 751,-1035.27 751,-1035.27 751,-1029.27 757,-1023.27 763,-1023.27 763,-1023.27 1075,-1023.27 1075,-1023.27 1081,-1023.27 1087,-1029.27 1087,-1035.27 1087,-1035.27 1087,-1047.27 1087,-1047.27 1087,-1053.27 1081,-1059.27 1075,-1059.27"/>
<text text-anchor="middle" x="919" y="-1044.47" font-family="Helvetica,sans-Serif" font-size="11.00" fill="#222222">odim:Phenotype_TravelAssociatedInactivityWithSleepDebt</text>
<text text-anchor="middle" x="919" y="-1032.47" font-family="Helvetica,sans-Serif" font-size="11.00" fill="#222222">(odim:ActivityPhenotype)</text>
</g>
<!-- CenterAnchor&#45;&gt;Phenotype -->
<!-- RawSteps -->
<g id="node9" class="node">
<title>RawSteps</title>
<path fill="#eeeeee" stroke="#666666" d="M735.5,-52C735.5,-52 636.5,-52 636.5,-52 630.5,-52 624.5,-46 624.5,-40 624.5,-40 624.5,-28 624.5,-28 624.5,-22 630.5,-16 636.5,-16 636.5,-16 735.5,-16 735.5,-16 741.5,-16 747.5,-22 747.5,-28 747.5,-28 747.5,-40 747.5,-40 747.5,-46 741.5,-52 735.5,-52"/>
<text text-anchor="middle" x="686" y="-37.2" font-family="Helvetica,sans-Serif" font-size="11.00" fill="#222222">odim:RawStepsCSV</text>
<text text-anchor="middle" x="686" y="-25.2" font-family="Helvetica,sans-Serif" font-size="11.00" fill="#222222">(prov:Entity)</text>
</g>
<!-- RawLoc -->
<g id="node11" class="node">
<title>RawLoc</title>
<path fill="#eeeeee" stroke="#666666" d="M1055.5,-52C1055.5,-52 940.5,-52 940.5,-52 934.5,-52 928.5,-46 928.5,-40 928.5,-40 928.5,-28 928.5,-28 928.5,-22 934.5,-16 940.5,-16 940.5,-16 1055.5,-16 1055.5,-16 1061.5,-16 1067.5,-22 1067.5,-28 1067.5,-28 1067.5,-40 1067.5,-40 1067.5,-46 1061.5,-52 1055.5,-52"/>
<text text-anchor="middle" x="998" y="-37.2" font-family="Helvetica,sans-Serif" font-size="11.00" fill="#222222">odim:RawLocationCSV</text>
<text text-anchor="middle" x="998" y="-25.2" font-family="Helvetica,sans-Serif" font-size="11.00" fill="#222222">(prov:Entity)</text>
</g>
<!-- Import&#45;&gt;RawSteps -->
<g id="edge9" class="edge">
<title>Import&#45;&gt;RawSteps</title>
<path fill="none" stroke="black" d="M809.05,-124.56C782.94,-105.55 744.6,-77.65 717.68,-58.05"/>
<polygon fill="black" stroke="black" points="719.51,-55.06 709.36,-52.01 715.39,-60.72 719.51,-55.06"/>
<text text-anchor="middle" x="801" y="-94" font-family="Times,serif" font-size="10.00">prov:used</text>
</g>
<!-- Import&#45;&gt;RawSleep -->
<g id="edge10" class="edge">
<title>Import&#45;&gt;RawSleep</title>
<path fill="none" stroke="black" d="M838,-123.77C838,-106.11 838,-81.15 838,-62.2"/>
<polygon fill="black" stroke="black" points="841.5,-62.1 838,-52.1 834.5,-62.1 841.5,-62.1"/>
<text text-anchor="middle" x="864" y="-94" font-family="Times,serif" font-size="10.00">prov:used</text>
</g>
<!-- Import&#45;&gt;RawLoc -->
<g id="edge11" class="edge">
<title>Import&#45;&gt;RawLoc</title>
<path fill="none" stroke="black" d="M868.09,-124.82C895.66,-105.76 936.38,-77.6 964.87,-57.91"/>
<polygon fill="black" stroke="black" points="967.05,-60.65 973.29,-52.09 963.07,-54.9 967.05,-60.65"/>
<text text-anchor="middle" x="939" y="-94" font-family="Times,serif" font-size="10.00">prov:used</text>
</g>
<!-- ObsSteps -->
<g id="node13" class="node">
<title>ObsSteps</title>
<path fill="#ddeeff" stroke="#666666" d="M700,-277.25C700,-277.25 550,-277.25 550,-277.25 544,-277.25 538,-271.25 538,-265.25 538,-265.25 538,-253.25 538,-253.25 538,-247.25 544,-241.25 550,-241.25 550,-241.25 700,-241.25 700,-241.25 706,-241.25 712,-247.25 712,-253.25 712,-253.25 712,-265.25 712,-265.25 712,-271.25 706,-277.25 700,-277.25"/>
<text text-anchor="middle" x="625" y="-262.45" font-family="Helvetica,sans-Serif" font-size="11.00" fill="#222222">odim:Obs_Steps_D1</text>
<text text-anchor="middle" x="625" y="-250.45" font-family="Helvetica,sans-Serif" font-size="11.00" fill="#222222">(odim:ActivityMeasurement)</text>
</g>
<!-- ObsSteps&#45;&gt;Import -->
<g id="edge12" class="edge">
<title>ObsSteps&#45;&gt;Import</title>
<path fill="none" stroke="black" d="M654.8,-241.22C672.23,-231.37 694.73,-218.87 715,-208.25 738.34,-196.03 764.49,-183.04 786.66,-172.23"/>
<polygon fill="black" stroke="black" points="788.43,-175.26 795.9,-167.75 785.37,-168.97 788.43,-175.26"/>
<text text-anchor="middle" x="773" y="-211.25" font-family="Times,serif" font-size="10.00">odim:wasGeneratedBy</text>
</g>
<!-- ObsSleep -->
<g id="node14" class="node">
<title>ObsSleep</title>
<path fill="#ddeeff" stroke="#666666" d="M923,-277.25C923,-277.25 753,-277.25 753,-277.25 747,-277.25 741,-271.25 741,-265.25 741,-265.25 741,-253.25 741,-253.25 741,-247.25 747,-241.25 753,-241.25 753,-241.25 923,-241.25 923,-241.25 929,-241.25 935,-247.25 935,-253.25 935,-253.25 935,-265.25 935,-265.25 935,-271.25 929,-277.25 923,-277.25"/>
<text text-anchor="middle" x="838" y="-262.45" font-family="Helvetica,sans-Serif" font-size="11.00" fill="#222222">odim:Obs_Sleep_D1</text>
<text text-anchor="middle" x="838" y="-250.45" font-family="Helvetica,sans-Serif" font-size="11.00" fill="#222222">(odim:SleepStageMeasurement)</text>
</g>
<!-- ObsSleep&#45;&gt;Import -->
<g id="edge13" class="edge">
<title>ObsSleep&#45;&gt;Import</title>
<path fill="none" stroke="black" d="M838,-240.97C838,-224.59 838,-199.58 838,-179.58"/>
<polygon fill="black" stroke="black" points="841.5,-179.35 838,-169.35 834.5,-179.35 841.5,-179.35"/>
<text text-anchor="middle" x="896" y="-211.25" font-family="Times,serif" font-size="10.00">odim:wasGeneratedBy</text>
</g>
<!-- ObsLoc -->
<g id="node15" class="node">
<title>ObsLoc</title>
<path fill="#ddeeff" stroke="#666666" d="M1358.5,-277.25C1358.5,-277.25 1193.5,-277.25 1193.5,-277.25 1187.5,-277.25 1181.5,-271.25 1181.5,-265.25 1181.5,-265.25 1181.5,-253.25 1181.5,-253.25 1181.5,-247.25 1187.5,-241.25 1193.5,-241.25 1193.5,-241.25 1358.5,-241.25 1358.5,-241.25 1364.5,-241.25 1370.5,-247.25 1370.5,-253.25 1370.5,-253.25 1370.5,-265.25 1370.5,-265.25 1370.5,-271.25 1364.5,-277.25 1358.5,-277.25"/>
<text text-anchor="middle" x="1276" y="-262.45" font-family="Helvetica,sans-Serif" font-size="11.00" fill="#222222">odim:Obs_Location_D1</text>
<text text-anchor="middle" x="1276" y="-250.45" font-family="Helvetica,sans-Serif" font-size="11.00" fill="#222222">(odim:DeviceLocationEstimate)</text>
</g>
<!-- ObsLoc&#45;&gt;Import -->
<g id="edge14" class="edge">
<title>ObsLoc&#45;&gt;Import</title>
<path fill="none" stroke="black" d="M1201.05,-241.2C1152.47,-229.98 1087.87,-214.73 1031,-200.25 991.16,-190.11 946.9,-178.1 910.82,-168.11"/>
<polygon fill="black" stroke="black" points="911.45,-164.65 900.88,-165.35 909.58,-171.39 911.45,-164.65"/>
<text text-anchor="middle" x="1162" y="-211.25" font-family="Times,serif" font-size="10.00">odim:wasGeneratedBy</text>
</g>
<!-- ObsDots -->
<g id="node16" class="node">
<title>ObsDots</title>
<path fill="white" stroke="transparent" d="M1390,-676.76C1390,-676.76 1336,-676.76 1336,-676.76 1330,-676.76 1324,-670.76 1324,-664.76 1324,-664.76 1324,-652.76 1324,-652.76 1324,-646.76 1330,-640.76 1336,-640.76 1336,-640.76 1390,-640.76 1390,-640.76 1396,-640.76 1402,-646.76 1402,-652.76 1402,-652.76 1402,-664.76 1402,-664.76 1402,-670.76 1396,-676.76 1390,-676.76"/>
<text text-anchor="middle" x="1363" y="-655.96" font-family="Helvetica,sans-Serif" font-size="11.00" fill="#222222">… (D2..D7)</text>
</g>
<!-- DailyComp&#45;&gt;ObsSteps -->
<g id="edge15" class="edge">
<title>DailyComp&#45;&gt;ObsSteps</title>
<path fill="none" stroke="black" d="M625,-332.17C625,-318.91 625,-301.84 625,-287.65"/>
<polygon fill="black" stroke="black" points="628.5,-287.48 625,-277.48 621.5,-287.48 628.5,-287.48"/>
<text text-anchor="middle" x="651" y="-302.25" font-family="Times,serif" font-size="10.00">prov:used</text>
</g>
<!-- DailyComp&#45;&gt;ObsSleep -->
<g id="edge16" class="edge">
<title>DailyComp&#45;&gt;ObsSleep</title>
<path fill="none" stroke="black" d="M671.22,-333.57C706.26,-318.16 754.29,-297.05 789.81,-281.44"/>
<polygon fill="black" stroke="black" points="791.26,-284.62 799.01,-277.39 788.45,-278.21 791.26,-284.62"/>
<text text-anchor="middle" x="770" y="-302.25" font-family="Times,serif" font-size="10.00">prov:used</text>
</g>
<!-- F1&#45;&gt;DailyComp -->
<g id="edge21" class="edge">
<title>F1&#45;&gt;DailyComp</title>
<path fill="none" stroke="black" d="M309.21,-432.41C321.49,-421.23 338.97,-407.31 357,-399.51 398.54,-381.53 446.62,-370.9 490.49,-364.63"/>
<polygon fill="black" stroke="black" points="491.23,-368.07 500.66,-363.25 490.28,-361.13 491.23,-368.07"/>
<text text-anchor="middle" x="414.5" y="-402.51" font-family="Times,serif" font-size="10.00">odim:wasComputedBy</text>
</g>
<!-- F2 -->
<g id="node19" class="node">
<title>F2</title>
<path fill="#e2f0d9" stroke="#666666" d="M520.5,-468.51C520.5,-468.51 403.5,-468.51 403.5,-468.51 397.5,-468.51 391.5,-462.51 391.5,-456.51 391.5,-456.51 391.5,-444.51 391.5,-444.51 391.5,-438.51 397.5,-432.51 403.5,-432.51 403.5,-432.51 520.5,-432.51 520.5,-432.51 526.5,-432.51 532.5,-438.51 532.5,-444.51 532.5,-444.51 532.5,-456.51 532.5,-456.51 532.5,-462.51 526.5,-468.51 520.5,-468.51"/>
<text text-anchor="middle" x="462" y="-453.71" font-family="Helvetica,sans-Serif" font-size="11.00" fill="#222222">odim:F_DailySteps_D2</text>
<text text-anchor="middle" x="462" y="-441.71" font-family="Helvetica,sans-Serif" font-size="11.00" fill="#222222">(odim:DerivedFeature)</text>
</g>
<!-- F2&#45;&gt;DailyComp -->
<g id="edge22" class="edge">
<title>F2&#45;&gt;DailyComp</title>
<path fill="none" stroke="black" d="M467.43,-432.5C471.7,-421.66 478.68,-408.08 489,-399.51 500.89,-389.63 515.06,-381.98 529.69,-376.05"/>
<polygon fill="black" stroke="black" points="531.23,-379.21 539.34,-372.4 528.75,-372.66 531.23,-379.21"/>
<text text-anchor="middle" x="546.5" y="-402.51" font-family="Times,serif" font-size="10.00">odim:wasComputedBy</text>
</g>
<!-- FDots -->
<g id="node20" class="node">
<title>FDots</title>
<path fill="white" stroke="transparent" d="M628,-468.51C628,-468.51 574,-468.51 574,-468.51 568,-468.51 562,-462.51 562,-456.51 562,-456.51 562,-444.51 562,-444.51 562,-438.51 568,-432.51 574,-432.51 574,-432.51 628,-432.51 628,-432.51 634,-432.51 640,-438.51 640,-444.51 640,-444.51 640,-456.51 640,-456.51 640,-462.51 634,-468.51 628,-468.51"/>
<text text-anchor="middle" x="601" y="-447.71" font-family="Helvetica,sans-Serif" font-size="11.00" fill="#666666">… (D3..D7)</text>
</g>
<!-- FDots&#45;&gt;DailyComp -->
<g id="edge25" class="edge">
<title>FDots&#45;&gt;DailyComp</title>
<path fill="none" stroke="black" stroke-dasharray="1,5" d="M605.4,-432.34C609.35,-416.92 615.17,-394.22 619.44,-377.56"/>
</g>
<!-- SQ1&#45;&gt;DailyComp -->
<g id="edge23" class="edge">
<title>SQ1&#45;&gt;DailyComp</title>
<path fill="none" stroke="black" d="M722.99,-432.34C705.51,-418.7 680.71,-399.35 660.44,-383.53"/>
<polygon fill="black" stroke="black" points="662.38,-380.61 652.35,-377.22 658.08,-386.13 662.38,-380.61"/>
<text text-anchor="middle" x="749.5" y="-402.51" font-family="Times,serif" font-size="10.00">odim:wasComputedBy</text>
</g>
<!-- SQ2 -->
<g id="node22" class="node">
<title>SQ2</title>
<path fill="#e2f0d9" stroke="#666666" d="M990,-468.51C990,-468.51 862,-468.51 862,-468.51 856,-468.51 850,-462.51 850,-456.51 850,-456.51 850,-444.51 850,-444.51 850,-438.51 856,-432.51 862,-432.51 862,-432.51 990,-432.51 990,-432.51 996,-432.51 1002,-438.51 1002,-444.51 1002,-444.51 1002,-456.51 1002,-456.51 1002,-462.51 996,-468.51 990,-468.51"/>
<text text-anchor="middle" x="926" y="-453.71" font-family="Helvetica,sans-Serif" font-size="11.00" fill="#222222">odim:F_SleepMinutes_D2</text>
<text text-anchor="middle" x="926" y="-441.71" font-family="Helvetica,sans-Serif" font-size="11.00" fill="#222222">(odim:DerivedFeature)</text>
</g>
<!-- SQ2&#45;&gt;DailyComp -->
<g id="edge24" class="edge">
<title>SQ2&#45;&gt;DailyComp</title>
<path fill="none" stroke="black" d="M892.37,-432.44C870.47,-421.85 841.06,-408.58 814,-399.51 784.45,-389.61 751.57,-381.16 721.63,-374.42"/>
<polygon fill="black" stroke="black" points="722.11,-370.94 711.59,-372.19 720.6,-377.77 722.11,-370.94"/>
<text text-anchor="middle" x="899.5" y="-402.51" font-family="Times,serif" font-size="10.00">odim:wasComputedBy</text>
</g>
<!-- C_WEEKLY -->
<!-- C_WEEKLY&#45;&gt;Combine -->
<!-- WeeklySteps -->
<g id="node24" class="node">
<title>WeeklySteps</title>
<ellipse fill="#fff2cc" stroke="#666666" cx="411" cy="-563.14" rx="133.79" ry="22.76"/>
<text text-anchor="middle" x="411" y="-566.34" font-family="Helvetica,sans-Serif" font-size="11.00" fill="#222222">odim:A_WeeklyAggregateSteps</text>
<text text-anchor="middle" x="411" y="-554.34" font-family="Helvetica,sans-Serif" font-size="11.00" fill="#222222">(odim:AlgorithmicComputation)</text>
</g>
<!-- WeeklySteps&#45;&gt;F1 -->
<g id="edge26" class="edge">
<title>WeeklySteps&#45;&gt;F1</title>
<path fill="none" stroke="black" d="M388.06,-540.81C368.05,-522.21 339.05,-495.25 318.15,-475.82"/>
<polygon fill="black" stroke="black" points="320.28,-473.03 310.58,-468.78 315.52,-478.15 320.28,-473.03"/>
<text text-anchor="middle" x="388" y="-510.51" font-family="Times,serif" font-size="10.00">prov:used</text>
</g>
<!-- WeeklySteps&#45;&gt;F2 -->
<g id="edge27" class="edge">
<title>WeeklySteps&#45;&gt;F2</title>
<path fill="none" stroke="black" d="M420.95,-540.54C429.24,-522.58 441.06,-496.94 449.89,-477.78"/>
<polygon fill="black" stroke="black" points="453.07,-479.24 454.08,-468.7 446.71,-476.31 453.07,-479.24"/>
<text text-anchor="middle" x="460" y="-510.51" font-family="Times,serif" font-size="10.00">prov:used</text>
</g>
<!-- WeeklySteps&#45;&gt;FDots -->
<g id="edge28" class="edge">
<title>WeeklySteps&#45;&gt;FDots</title>
<path fill="none" stroke="black" stroke-dasharray="1,5" d="M463.59,-542.21C489.64,-531.28 521,-516.51 547,-499.51 560.44,-490.72 573.94,-478.72 584.08,-468.92"/>
</g>
<!-- MeanSteps -->
<g id="node25" class="node">
<title>MeanSteps</title>
<path fill="#e2f0d9" stroke="#666666" d="M414.5,-676.76C414.5,-676.76 279.5,-676.76 279.5,-676.76 273.5,-676.76 267.5,-670.76 267.5,-664.76 267.5,-664.76 267.5,-652.76 267.5,-652.76 267.5,-646.76 273.5,-640.76 279.5,-640.76 279.5,-640.76 414.5,-640.76 414.5,-640.76 420.5,-640.76 426.5,-646.76 426.5,-652.76 426.5,-652.76 426.5,-664.76 426.5,-664.76 426.5,-670.76 420.5,-676.76 414.5,-676.76"/>
<text text-anchor="middle" x="347" y="-661.96" font-family="Helvetica,sans-Serif" font-size="11.00" fill="#222222">odim:F_WeeklyMeanSteps</text>
<text text-anchor="middle" x="347" y="-649.96" font-family="Helvetica,sans-Serif" font-size="11.00" fill="#222222">(odim:DerivedFeature)</text>
</g>
<!-- MeanSteps&#45;&gt;WeeklySteps -->
<g id="edge29" class="edge">
<title>MeanSteps&#45;&gt;WeeklySteps</title>
<path fill="none" stroke="black" d="M358.74,-640.59C367.55,-627.71 379.84,-609.73 390.28,-594.44"/>
<polygon fill="black" stroke="black" points="393.43,-596.05 396.18,-585.82 387.65,-592.1 393.43,-596.05"/>
<text text-anchor="middle" x="437.5" y="-610.76" font-family="Times,serif" font-size="10.00">odim:wasComputedBy</text>
</g>
<!-- Thresh -->
<g id="node26" class="node">
<title>Thresh</title>
<path fill="#ffe5d9" stroke="#666666" d="M602.5,-676.76C602.5,-676.76 467.5,-676.76 467.5,-676.76 461.5,-676.76 455.5,-670.76 455.5,-664.76 455.5,-664.76 455.5,-652.76 455.5,-652.76 455.5,-646.76 461.5,-640.76 467.5,-640.76 467.5,-640.76 602.5,-640.76 602.5,-640.76 608.5,-640.76 614.5,-646.76 614.5,-652.76 614.5,-652.76 614.5,-664.76 614.5,-664.76 614.5,-670.76 608.5,-676.76 602.5,-676.76"/>
<text text-anchor="middle" x="535" y="-661.96" font-family="Helvetica,sans-Serif" font-size="11.00" fill="#222222">odim:Threshold_LowSteps</text>
<text text-anchor="middle" x="535" y="-649.96" font-family="Helvetica,sans-Serif" font-size="11.00" fill="#222222">(prov:Entity)</text>
</g>
<!-- StepsDecision -->
<g id="node27" class="node">
<title>StepsDecision</title>
<ellipse fill="#fff2cc" stroke="#666666" cx="508" cy="-754.39" rx="135.11" ry="22.76"/>
<text text-anchor="middle" x="508" y="-757.59" font-family="Helvetica,sans-Serif" font-size="11.00" fill="#222222">odim:A_StepsThresholdDecision</text>
<text text-anchor="middle" x="508" y="-745.59" font-family="Helvetica,sans-Serif" font-size="11.00" fill="#222222">(odim:AlgorithmicComputation)</text>
</g>
<!-- StepsDecision&#45;&gt;MeanSteps -->
<g id="edge30" class="edge">
<title>StepsDecision&#45;&gt;MeanSteps</title>
<path fill="none" stroke="black" d="M471.87,-732.38C446.08,-717.38 411.45,-697.24 385.2,-681.98"/>
<polygon fill="black" stroke="black" points="386.7,-678.8 376.29,-676.8 383.18,-684.85 386.7,-678.8"/>
<text text-anchor="middle" x="458" y="-701.76" font-family="Times,serif" font-size="10.00">prov:used</text>
</g>
<!-- StepsDecision&#45;&gt;Thresh -->
<g id="edge31" class="edge">
<title>StepsDecision&#45;&gt;Thresh</title>
<path fill="none" stroke="black" d="M514.26,-731.68C518.12,-718.29 523.11,-701.01 527.22,-686.75"/>
<polygon fill="black" stroke="black" points="530.62,-687.57 530.03,-676.99 523.9,-685.63 530.62,-687.57"/>
<text text-anchor="middle" x="549" y="-701.76" font-family="Times,serif" font-size="10.00">prov:used</text>
</g>
<!-- Marker -->
<g id="node28" class="node">
<title>Marker</title>
<path fill="#e2f0d9" stroke="#666666" d="M639,-868.02C639,-868.02 439,-868.02 439,-868.02 433,-868.02 427,-862.02 427,-856.02 427,-856.02 427,-844.02 427,-844.02 427,-838.02 433,-832.02 439,-832.02 439,-832.02 639,-832.02 639,-832.02 645,-832.02 651,-838.02 651,-844.02 651,-844.02 651,-856.02 651,-856.02 651,-862.02 645,-868.02 639,-868.02"/>
<text text-anchor="middle" x="539" y="-853.22" font-family="Helvetica,sans-Serif" font-size="11.00" fill="#222222">odim:Marker_LowActivityDuringTravel</text>
<text text-anchor="middle" x="539" y="-841.22" font-family="Helvetica,sans-Serif" font-size="11.00" fill="#222222">(odim:DerivedFeature)</text>
</g>
<!-- Marker&#45;&gt;StepsDecision -->
<g id="edge32" class="edge">
<title>Marker&#45;&gt;StepsDecision</title>
<path fill="none" stroke="black" d="M533.31,-831.85C529.17,-819.32 523.43,-801.99 518.46,-786.99"/>
<polygon fill="black" stroke="black" points="521.64,-785.46 515.18,-777.07 515,-787.66 521.64,-785.46"/>
<text text-anchor="middle" x="582.5" y="-802.02" font-family="Times,serif" font-size="10.00">odim:wasComputedBy</text>
</g>
<!-- WeeklySleep -->
<g id="node29" class="node">
<title>WeeklySleep</title>
<ellipse fill="#fff2cc" stroke="#666666" cx="745" cy="-563.14" rx="162.77" ry="22.76"/>
<text text-anchor="middle" x="745" y="-566.34" font-family="Helvetica,sans-Serif" font-size="11.00" fill="#222222">odim:A_WeeklyAggregateSleepMinutes</text>
<text text-anchor="middle" x="745" y="-554.34" font-family="Helvetica,sans-Serif" font-size="11.00" fill="#222222">(odim:AlgorithmicComputation)</text>
</g>
<!-- WeeklySleep&#45;&gt;FDots -->
<g id="edge35" class="edge">
<title>WeeklySleep&#45;&gt;FDots</title>
<path fill="none" stroke="black" stroke-dasharray="1,5" d="M712.26,-540.72C694.89,-529.02 673.39,-514 655,-499.51 642.78,-489.88 629.73,-478.32 619.52,-468.96"/>
</g>
<!-- WeeklySleep&#45;&gt;SQ1 -->
<g id="edge33" class="edge">
<title>WeeklySleep&#45;&gt;SQ1</title>
<path fill="none" stroke="black" d="M745,-540.28C745,-522.62 745,-497.66 745,-478.71"/>
<polygon fill="black" stroke="black" points="748.5,-478.61 745,-468.61 741.5,-478.61 748.5,-478.61"/>
<text text-anchor="middle" x="771" y="-510.51" font-family="Times,serif" font-size="10.00">prov:used</text>
</g>
<!-- WeeklySleep&#45;&gt;SQ2 -->
<g id="edge34" class="edge">
<title>WeeklySleep&#45;&gt;SQ2</title>
<path fill="none" stroke="black" d="M779.9,-540.81C811.35,-521.58 857.44,-493.41 889.41,-473.87"/>
<polygon fill="black" stroke="black" points="891.32,-476.81 898.03,-468.61 887.67,-470.83 891.32,-476.81"/>
<text text-anchor="middle" x="856" y="-510.51" font-family="Times,serif" font-size="10.00">prov:used</text>
</g>
<!-- MeanSleep -->
<g id="node30" class="node">
<title>MeanSleep</title>
<path fill="#e2f0d9" stroke="#666666" d="M834,-676.76C834,-676.76 656,-676.76 656,-676.76 650,-676.76 644,-670.76 644,-664.76 644,-664.76 644,-652.76 644,-652.76 644,-646.76 650,-640.76 656,-640.76 656,-640.76 834,-640.76 834,-640.76 840,-640.76 846,-646.76 846,-652.76 846,-652.76 846,-664.76 846,-664.76 846,-670.76 840,-676.76 834,-676.76"/>
<text text-anchor="middle" x="745" y="-661.96" font-family="Helvetica,sans-Serif" font-size="11.00" fill="#222222">odim:F_WeeklyMeanSleepMinutes</text>
<text text-anchor="middle" x="745" y="-649.96" font-family="Helvetica,sans-Serif" font-size="11.00" fill="#222222">(odim:DerivedFeature)</text>
</g>
<!-- MeanSleep&#45;&gt;WeeklySleep -->
<g id="edge36" class="edge">
<title>MeanSleep&#45;&gt;WeeklySleep</title>
<path fill="none" stroke="black" d="M745,-640.59C745,-628.19 745,-611.07 745,-596.17"/>
<polygon fill="black" stroke="black" points="748.5,-595.82 745,-585.82 741.5,-595.82 748.5,-595.82"/>
<text text-anchor="middle" x="802.5" y="-610.76" font-family="Times,serif" font-size="10.00">odim:wasComputedBy</text>
</g>
<!-- SleepBaseline -->
<g id="node31" class="node">
<title>SleepBaseline</title>
<path fill="#ffe5d9" stroke="#666666" d="M1036.5,-676.76C1036.5,-676.76 887.5,-676.76 887.5,-676.76 881.5,-676.76 875.5,-670.76 875.5,-664.76 875.5,-664.76 875.5,-652.76 875.5,-652.76 875.5,-646.76 881.5,-640.76 887.5,-640.76 887.5,-640.76 1036.5,-640.76 1036.5,-640.76 1042.5,-640.76 1048.5,-646.76 1048.5,-652.76 1048.5,-652.76 1048.5,-664.76 1048.5,-664.76 1048.5,-670.76 1042.5,-676.76 1036.5,-676.76"/>
<text text-anchor="middle" x="962" y="-661.96" font-family="Helvetica,sans-Serif" font-size="11.00" fill="#222222">odim:Baseline_SleepMinutes</text>
<text text-anchor="middle" x="962" y="-649.96" font-family="Helvetica,sans-Serif" font-size="11.00" fill="#222222">(prov:Entity)</text>
</g>
<!-- SleepDebtDecision -->
<g id="node32" class="node">
<title>SleepDebtDecision</title>
<ellipse fill="#fff2cc" stroke="#666666" cx="806" cy="-754.39" rx="133.79" ry="22.76"/>
<text text-anchor="middle" x="806" y="-757.59" font-family="Helvetica,sans-Serif" font-size="11.00" fill="#222222">odim:A_SleepDebtDecision</text>
<text text-anchor="middle" x="806" y="-745.59" font-family="Helvetica,sans-Serif" font-size="11.00" fill="#222222">(odim:AlgorithmicComputation)</text>
</g>
<!-- SleepDebtDecision&#45;&gt;MeanSleep -->
<g id="edge37" class="edge">
<title>SleepDebtDecision&#45;&gt;MeanSleep</title>
<path fill="none" stroke="black" d="M791.85,-731.68C782.88,-717.9 771.21,-700 761.77,-685.51"/>
<polygon fill="black" stroke="black" points="764.62,-683.46 756.22,-676.99 758.75,-687.28 764.62,-683.46"/>
<text text-anchor="middle" x="803" y="-701.76" font-family="Times,serif" font-size="10.00">prov:used</text>
</g>
<!-- SleepDebtDecision&#45;&gt;SleepBaseline -->
<g id="edge38" class="edge">
<title>SleepDebtDecision&#45;&gt;SleepBaseline</title>
<path fill="none" stroke="black" d="M841.01,-732.38C866,-717.38 899.55,-697.24 924.99,-681.98"/>
<polygon fill="black" stroke="black" points="926.84,-684.95 933.62,-676.8 923.24,-678.94 926.84,-684.95"/>
<text text-anchor="middle" x="919" y="-701.76" font-family="Times,serif" font-size="10.00">prov:used</text>
</g>
<!-- SleepDebt -->
<g id="node33" class="node">
<title>SleepDebt</title>
<path fill="#e2f0d9" stroke="#666666" d="M888.5,-868.02C888.5,-868.02 723.5,-868.02 723.5,-868.02 717.5,-868.02 711.5,-862.02 711.5,-856.02 711.5,-856.02 711.5,-844.02 711.5,-844.02 711.5,-838.02 717.5,-832.02 723.5,-832.02 723.5,-832.02 888.5,-832.02 888.5,-832.02 894.5,-832.02 900.5,-838.02 900.5,-844.02 900.5,-844.02 900.5,-856.02 900.5,-856.02 900.5,-862.02 894.5,-868.02 888.5,-868.02"/>
<text text-anchor="middle" x="806" y="-853.22" font-family="Helvetica,sans-Serif" font-size="11.00" fill="#222222">odim:Marker_SleepDebt_Week1</text>
<text text-anchor="middle" x="806" y="-841.22" font-family="Helvetica,sans-Serif" font-size="11.00" fill="#222222">(odim:DerivedFeature)</text>
</g>
<!-- SleepDebt&#45;&gt;SleepDebtDecision -->
<g id="edge39" class="edge">
<title>SleepDebt&#45;&gt;SleepDebtDecision</title>
<path fill="none" stroke="black" d="M806,-831.85C806,-819.44 806,-802.32 806,-787.42"/>
<polygon fill="black" stroke="black" points="809.5,-787.07 806,-777.07 802.5,-787.07 809.5,-787.07"/>
<text text-anchor="middle" x="863.5" y="-802.02" font-family="Times,serif" font-size="10.00">odim:wasComputedBy</text>
</g>
<!-- Combine&#45;&gt;Marker -->
<g id="edge40" class="edge">
<title>Combine&#45;&gt;Marker</title>
<path fill="none" stroke="black" d="M750.03,-925.02C705.29,-909.33 642.79,-887.41 597.42,-871.51"/>
<polygon fill="black" stroke="black" points="598.32,-868.11 587.73,-868.11 596.01,-874.72 598.32,-868.11"/>
<text text-anchor="middle" x="706" y="-893.02" font-family="Times,serif" font-size="10.00">prov:used</text>
</g>
<!-- Combine&#45;&gt;SleepDebt -->
<g id="edge41" class="edge">
<title>Combine&#45;&gt;SleepDebt</title>
<path fill="none" stroke="black" d="M806,-922.93C806,-909.67 806,-892.6 806,-878.42"/>
<polygon fill="black" stroke="black" points="809.5,-878.25 806,-868.25 802.5,-878.25 809.5,-878.25"/>
<text text-anchor="middle" x="832" y="-893.02" font-family="Times,serif" font-size="10.00">prov:used</text>
</g>
<!-- TravelWin -->
<g id="node38" class="node">
<title>TravelWin</title>
<path fill="#fde2e4" stroke="#666666" d="M1127.5,-868.02C1127.5,-868.02 986.5,-868.02 986.5,-868.02 980.5,-868.02 974.5,-862.02 974.5,-856.02 974.5,-856.02 974.5,-844.02 974.5,-844.02 974.5,-838.02 980.5,-832.02 986.5,-832.02 986.5,-832.02 1127.5,-832.02 1127.5,-832.02 1133.5,-832.02 1139.5,-838.02 1139.5,-844.02 1139.5,-844.02 1139.5,-856.02 1139.5,-856.02 1139.5,-862.02 1133.5,-868.02 1127.5,-868.02"/>
<text text-anchor="middle" x="1057" y="-853.22" font-family="Helvetica,sans-Serif" font-size="11.00" fill="#222222">odim:TravelWindow_Week1</text>
<text text-anchor="middle" x="1057" y="-841.22" font-family="Helvetica,sans-Serif" font-size="11.00" fill="#222222">(odim:EventWindow)</text>
</g>
<!-- Combine&#45;&gt;TravelWin -->
<g id="edge42" class="edge">
<title>Combine&#45;&gt;TravelWin</title>
<path fill="none" stroke="black" d="M859.23,-924.79C901.15,-909.15 959.39,-887.43 1001.81,-871.61"/>
<polygon fill="black" stroke="black" points="1003.27,-874.8 1011.42,-868.02 1000.83,-868.24 1003.27,-874.8"/>
<text text-anchor="middle" x="972" y="-893.02" font-family="Times,serif" font-size="10.00">prov:used</text>
</g>
<!-- Phenotype&#45;&gt;Combine -->
<g id="edge43" class="edge">
<title>Phenotype&#45;&gt;Combine</title>
<path fill="none" stroke="black" d="M892.74,-1023.23C883.14,-1016.68 872.35,-1008.93 863,-1001.27 853.22,-993.27 843.1,-983.94 834.14,-975.29"/>
<polygon fill="black" stroke="black" points="836.52,-972.72 826.92,-968.22 831.62,-977.72 836.52,-972.72"/>
<text text-anchor="middle" x="920.5" y="-993.27" font-family="Times,serif" font-size="10.00">odim:wasComputedBy</text>
</g>
<!-- Week -->
<g id="node36" class="node">
<title>Week</title>
<path fill="#f3f4f6" stroke="#666666" d="M1095,-963.65C1095,-963.65 981,-963.65 981,-963.65 975,-963.65 969,-957.65 969,-951.65 969,-951.65 969,-939.65 969,-939.65 969,-933.65 975,-927.65 981,-927.65 981,-927.65 1095,-927.65 1095,-927.65 1101,-927.65 1107,-933.65 1107,-939.65 1107,-939.65 1107,-951.65 1107,-951.65 1107,-957.65 1101,-963.65 1095,-963.65"/>
<text text-anchor="middle" x="1038" y="-948.85" font-family="Helvetica,sans-Serif" font-size="11.00" fill="#222222">odim:Week1</text>
<text text-anchor="middle" x="1038" y="-936.85" font-family="Helvetica,sans-Serif" font-size="11.00" fill="#222222">(odim:WeeklyInterval)</text>
</g>
<!-- Phenotype&#45;&gt;Week -->
<g id="edge44" class="edge">
<title>Phenotype&#45;&gt;Week</title>
<path fill="none" stroke="black" d="M948.84,-1023.19C959.32,-1016.76 970.98,-1009.1 981,-1001.27 992.71,-992.13 1004.72,-980.94 1014.68,-971.07"/>
<polygon fill="black" stroke="black" points="1017.3,-973.41 1021.85,-963.84 1012.33,-968.48 1017.3,-973.41"/>
<text text-anchor="middle" x="1041" y="-993.27" font-family="Times,serif" font-size="10.00">odim:occursDuring</text>
</g>
<!-- TravelDetect -->
<g id="node37" class="node">
<title>TravelDetect</title>
<ellipse fill="#fff2cc" stroke="#666666" cx="1102" cy="-754.39" rx="133.79" ry="22.76"/>
<text text-anchor="middle" x="1102" y="-757.59" font-family="Helvetica,sans-Serif" font-size="11.00" fill="#222222">odim:A_TravelDetection</text>
<text text-anchor="middle" x="1102" y="-745.59" font-family="Helvetica,sans-Serif" font-size="11.00" fill="#222222">(odim:AlgorithmicComputation)</text>
</g>
<!-- TravelDetect&#45;&gt;ObsLoc -->
<g id="edge17" class="edge">
<title>TravelDetect&#45;&gt;ObsLoc</title>
<path fill="none" stroke="black" d="M1196.99,-738.38C1239.41,-725.72 1280,-702.45 1280,-659.76 1280,-659.76 1280,-659.76 1280,-353.88 1280,-331.58 1278.85,-306.31 1277.79,-287.65"/>
<polygon fill="black" stroke="black" points="1281.27,-287.27 1277.18,-277.5 1274.28,-287.69 1281.27,-287.27"/>
<text text-anchor="middle" x="1306" y="-510.51" font-family="Times,serif" font-size="10.00">prov:used</text>
</g>
<!-- TravelDetect&#45;&gt;ObsDots -->
<g id="edge18" class="edge">
<title>TravelDetect&#45;&gt;ObsDots</title>
<path fill="none" stroke="black" stroke-dasharray="1,5" d="M1206.58,-740.21C1238.28,-733.7 1272.49,-724.05 1302,-709.76 1318.76,-701.65 1334.93,-688.05 1346.41,-677.08"/>
</g>
<!-- TravelThresh -->
<g id="node39" class="node">
<title>TravelThresh</title>
<path fill="#ffe5d9" stroke="#666666" d="M1224,-676.76C1224,-676.76 1090,-676.76 1090,-676.76 1084,-676.76 1078,-670.76 1078,-664.76 1078,-664.76 1078,-652.76 1078,-652.76 1078,-646.76 1084,-640.76 1090,-640.76 1090,-640.76 1224,-640.76 1224,-640.76 1230,-640.76 1236,-646.76 1236,-652.76 1236,-652.76 1236,-664.76 1236,-664.76 1236,-670.76 1230,-676.76 1224,-676.76"/>
<text text-anchor="middle" x="1157" y="-661.96" font-family="Helvetica,sans-Serif" font-size="11.00" fill="#222222">odim:Threshold_TravelKm</text>
<text text-anchor="middle" x="1157" y="-649.96" font-family="Helvetica,sans-Serif" font-size="11.00" fill="#222222">(prov:Entity)</text>
</g>
<!-- TravelDetect&#45;&gt;TravelThresh -->
<g id="edge19" class="edge">
<title>TravelDetect&#45;&gt;TravelThresh</title>
<path fill="none" stroke="black" d="M1114.76,-731.68C1122.77,-718.03 1133.17,-700.34 1141.64,-685.92"/>
<polygon fill="black" stroke="black" points="1144.83,-687.39 1146.88,-676.99 1138.8,-683.84 1144.83,-687.39"/>
<text text-anchor="middle" x="1158" y="-701.76" font-family="Times,serif" font-size="10.00">prov:used</text>
</g>
<!-- TravelWin&#45;&gt;TravelDetect -->
<g id="edge20" class="edge">
<title>TravelWin&#45;&gt;TravelDetect</title>
<path fill="none" stroke="black" d="M1065.25,-831.85C1071.39,-819.08 1079.93,-801.32 1087.23,-786.13"/>
<polygon fill="black" stroke="black" points="1090.4,-787.6 1091.58,-777.07 1084.09,-784.57 1090.4,-787.6"/>
<text text-anchor="middle" x="1137.5" y="-802.02" font-family="Times,serif" font-size="10.00">odim:wasComputedBy</text>
</g>
<!-- C_RAW -->
<g id="node40" class="node">
<title>C_RAW</title>
<ellipse fill="white" stroke="#666666" cx="1204" cy="-1301.27" rx="33.15" ry="18"/>
<text text-anchor="middle" x="1204" y="-1298.47" font-family="Helvetica,sans-Serif" font-size="11.00" fill="#222222">C_RAW</text>
</g>
<!-- C_RAW&#45;&gt;RawSleep -->
<!-- C_IMPORT -->
<g id="node41" class="node">
<title>C_IMPORT</title>
<ellipse fill="white" stroke="#666666" cx="1204" cy="-1220.27" rx="42.89" ry="18"/>
<text text-anchor="middle" x="1204" y="-1217.47" font-family="Helvetica,sans-Serif" font-size="11.00" fill="#222222">C_IMPORT</text>
</g>
<!-- C_RAW&#45;&gt;C_IMPORT -->
<!-- C_IMPORT&#45;&gt;Import -->
<!-- C_DAILY -->
<g id="node42" class="node">
<title>C_DAILY</title>
<ellipse fill="white" stroke="#666666" cx="1204" cy="-1139.27" rx="35.46" ry="18"/>
<text text-anchor="middle" x="1204" y="-1136.47" font-family="Helvetica,sans-Serif" font-size="11.00" fill="#222222">C_DAILY</text>
</g>
<!-- C_IMPORT&#45;&gt;C_DAILY -->
<!-- C_DAILY&#45;&gt;DailyComp -->
<!-- C_DAILY&#45;&gt;C_WEEKLY -->
</g>
</svg>
