<?xml version="1.0" encoding="UTF-8" standalone="no"?>
<!DOCTYPE svg PUBLIC "-//W3C//DTD SVG 1.1//EN"
 "http://www.w3.org/Graphics/SVG/1.1/DTD/svg11.dtd">
<!-- Generated by graphviz version 2.43.0 (0)
 -->
<!-- Title: DemoFlow Pages: 1 -->
<svg width="2514pt" height="1116pt"
 viewBox="0.00 0.00 2514.43 1115.94" xmlns="http://www.w3.org/2000/svg" xmlns:xlink="http://www.w3.org/1999/xlink">
<g id="graph0" class="graph" transform="scale(1 1) rotate(0) translate(4 1111.94)">
<title>DemoFlow</title>
<polygon fill="white" stroke="transparent" points="-4,4 -4,-1111.94 2510.43,-1111.94 2510.43,4 -4,4"/>
<g id="clust1" class="cluster">
<title>cluster_legend</title>
<polygon fill="none" stroke="#e5e5e5" stroke-dasharray="5,2" points="8,-1015.27 8,-1086.27 1073,-1086.27 1073,-1015.27 8,-1015.27"/>
<text text-anchor="middle" x="36" y="-1074.27" font-family="Times,serif" font-size="10.00">Legend</text>
</g>
<g id="clust2" class="cluster">
<title>cluster_raw</title>
<polygon fill="none" stroke="#999999" stroke-dasharray="5,2" points="1505,-8 1505,-83 1965,-83 1965,-8 1505,-8"/>
<text text-anchor="middle" x="1576.5" y="-67.8" font-family="Times,serif" font-size="14.00">Raw (prov:Entity)</text>
</g>
<g id="clust3" class="cluster">
<title>cluster_import</title>
<polygon fill="none" stroke="#999999" stroke-dasharray="5,2" points="1605,-116 1605,-200.25 1862,-200.25 1862,-116 1605,-116"/>
<text text-anchor="middle" x="1733.5" y="-185.05" font-family="Times,serif" font-size="14.00">Import (odim:DataTransferEvent)</text>
</g>
<g id="clust4" class="cluster">
<title>cluster_obs</title>
</g>
<g id="clust5" class="cluster">
<title>cluster_daily</title>
<polygon fill="none" stroke="#999999" stroke-dasharray="5,2" points="1093,-324.25 1093,-499.51 1890,-499.51 1890,-324.25 1093,-324.25"/>
<text text-anchor="middle" x="1235" y="-484.31" font-family="Times,serif" font-size="14.00">Daily features (odim:DerivedFeature)</text>
</g>
<g id="clust6" class="cluster">
<title>cluster_weekly</title>
<polygon fill="none" stroke="#999999" stroke-dasharray="5,2" points="1140,-532.51 1140,-1090.27 2124,-1090.27 2124,-532.51 1140,-532.51"/>
<text text-anchor="middle" x="1307.5" y="-1075.07" font-family="Times,serif" font-size="14.00">Weekly aggregates → decisions → phenotype</text>
</g>
<!-- Lraw -->
<g id="node1" class="node">
<title>Lraw</title>
<path fill="#eeeeee" stroke="#666666" d="M1052.5,-1059.27C1052.5,-1059.27 963.5,-1059.27 963.5,-1059.27 957.5,-1059.27 951.5,-1053.27 951.5,-1047.27 951.5,-1047.27 951.5,-1035.27 951.5,-1035.27 951.5,-1029.27 957.5,-1023.27 963.5,-1023.27 963.5,-1023.27 1052.5,-1023.27 1052.5,-1023.27 1058.5,-1023.27 1064.5,-1029.27 1064.5,-1035.27 1064.5,-1035.27 1064.5,-1047.27 1064.5,-1047.27 1064.5,-1053.27 1058.5,-1059.27 1052.5,-1059.27"/>
<text text-anchor="middle" x="1008" y="-1038.47" font-family="Helvetica,sans-Serif" font-size="11.00" fill="#222222">Raw (prov:Entity)</text>
</g>
<!-- Lobs -->
<g id="node2" class="node">
<title>Lobs</title>
<path fill="#ddeeff" stroke="#666666" d="M910.5,-1059.27C910.5,-1059.27 805.5,-1059.27 805.5,-1059.27 799.5,-1059.27 793.5,-1053.27 793.5,-1047.27 793.5,-1047.27 793.5,-1035.27 793.5,-1035.27 793.5,-1029.27 799.5,-1023.27 805.5,-1023.27 805.5,-1023.27 910.5,-1023.27 910.5,-1023.27 916.5,-1023.27 922.5,-1029.27 922.5,-1035.27 922.5,-1035.27 922.5,-1047.27 922.5,-1047.27 922.5,-1053.27 916.5,-1059.27 910.5,-1059.27"/>
<text text-anchor="middle" x="858" y="-1038.47" font-family="Helvetica,sans-Serif" font-size="11.00" fill="#222222">Observation (entity)</text>
</g>
<!-- Lfeat -->
<g id="node3" class="node">
<title>Lfeat</title>
<path fill="#e2f0d9" stroke="#666666" d="M752,-1059.27C752,-1059.27 628,-1059.27 628,-1059.27 622,-1059.27 616,-1053.27 616,-1047.27 616,-1047.27 616,-1035.27 616,-1035.27 616,-1029.27 622,-1023.27 628,-1023.27 628,-1023.27 752,-1023.27 752,-1023.27 758,-1023.27 764,-1029.27 764,-1035.27 764,-1035.27 764,-1047.27 764,-1047.27 764,-1053.27 758,-1059.27 752,-1059.27"/>
<text text-anchor="middle" x="690" y="-1038.47" font-family="Helvetica,sans-Serif" font-size="11.00" fill="#222222">Derived feature (entity)</text>
</g>
<!-- Lact -->
<g id="node4" class="node">
<title>Lact</title>
<ellipse fill="#fff2cc" stroke="#666666" cx="502" cy="-1041.27" rx="84.58" ry="18"/>
<text text-anchor="middle" x="502" y="-1038.47" font-family="Helvetica,sans-Serif" font-size="11.00" fill="#222222">Computation (activity)</text>
</g>
<!-- Lparam -->
<g id="node5" class="node">
<title>Lparam</title>
<path fill="#ffe5d9" stroke="#666666" d="M376,-1059.27C376,-1059.27 254,-1059.27 254,-1059.27 248,-1059.27 242,-1053.27 242,-1047.27 242,-1047.27 242,-1035.27 242,-1035.27 242,-1029.27 248,-1023.27 254,-1023.27 254,-1023.27 376,-1023.27 376,-1023.27 382,-1023.27 388,-1029.27 388,-1035.27 388,-1035.27 388,-1047.27 388,-1047.27 388,-1053.27 382,-1059.27 376,-1059.27"/>
<text text-anchor="middle" x="315" y="-1038.47" font-family="Helvetica,sans-Serif" font-size="11.00" fill="#222222">Parameter (prov:Entity)</text>
</g>
<!-- Lwin -->
<g id="node6" class="node">
<title>Lwin</title>
<path fill="#fde2e4" stroke="#666666" d="M200.5,-1059.27C200.5,-1059.27 131.5,-1059.27 131.5,-1059.27 125.5,-1059.27 119.5,-1053.27 119.5,-1047.27 119.5,-1047.27 119.5,-1035.27 119.5,-1035.27 119.5,-1029.27 125.5,-1023.27 131.5,-1023.27 131.5,-1023.27 200.5,-1023.27 200.5,-1023.27 206.5,-1023.27 212.5,-1029.27 212.5,-1035.27 212.5,-1035.27 212.5,-1047.27 212.5,-1047.27 212.5,-1053.27 206.5,-1059.27 200.5,-1059.27"/>
<text text-anchor="middle" x="166" y="-1038.47" font-family="Helvetica,sans-Serif" font-size="11.00" fill="#222222">Event window</text>
</g>
<!-- Lpheno -->
<g id="node7" class="node">
<title>Lpheno</title>
<path fill="#ede7f6" stroke="#666666" d="M78.5,-1059.27C78.5,-1059.27 27.5,-1059.27 27.5,-1059.27 21.5,-1059.27 15.5,-1053.27 15.5,-1047.27 15.5,-1047.27 15.5,-1035.27 15.5,-1035.27 15.5,-1029.27 21.5,-1023.27 27.5,-1023.27 27.5,-1023.27 78.5,-1023.27 78.5,-1023.27 84.5,-1023.27 90.5,-1029.27 90.5,-1035.27 90.5,-1035.27 90.5,-1047.27 90.5,-1047.27 90.5,-1053.27 84.5,-1059.27 78.5,-1059.27"/>
<text text-anchor="middle" x="53" y="-1038.47" font-family="Helvetica,sans-Serif" font-size="11.00" fill="#222222">Phenotype</text>
</g>
<!-- CenterAnchor -->
<!-- CenterAnchor&#45;&gt;Lfeat -->
<!-- RawSleep -->
<g id="node10" class="node">
<title>RawSleep</title>
<path fill="#eeeeee" stroke="#666666" d="M1776,-52C1776,-52 1678,-52 1678,-52 1672,-52 1666,-46 1666,-40 1666,-40 1666,-28 1666,-28 1666,-22 1672,-16 1678,-16 1678,-16 1776,-16 1776,-16 1782,-16 1788,-22 1788,-28 1788,-28 1788,-40 1788,-40 1788,-46 1782,-52 1776,-52"/>
<text text-anchor="middle" x="1727" y="-37.2" font-family="Helvetica,sans-Serif" font-size="11.00" fill="#222222">odim:RawSleepCSV</text>
<text text-anchor="middle" x="1727" y="-25.2" font-family="Helvetica,sans-Serif" font-size="11.00" fill="#222222">(prov:Entity)</text>
</g>
<!-- CenterAnchor&#45;&gt;RawSleep -->
<!-- Import -->
<g id="node12" class="node">
<title>Import</title>
<ellipse fill="#fff2cc" stroke="#666666" cx="1727" cy="-146.63" rx="111.95" ry="22.76"/>
<text text-anchor="middle" x="1727" y="-149.83" font-family="Helvetica,sans-Serif" font-size="11.00" fill="#222222">odim:A_Import</text>
<text text-anchor="middle" x="1727" y="-137.83" font-family="Helvetica,sans-Serif" font-size="11.00" fill="#222222">(odim:DataTransferEvent)</text>
</g>
<!-- CenterAnchor&#45;&gt;Import -->
<!-- DailyComp -->
<g id="node17" class="node">
<title>DailyComp</title>
<ellipse fill="#fff2cc" stroke="#666666" cx="1514" cy="-354.88" rx="133.79" ry="22.76"/>
<text text-anchor="middle" x="1514" y="-358.08" font-family="Helvetica,sans-Serif" font-size="11.00" fill="#222222">odim:A_DailySummary</text>
<text text-anchor="middle" x="1514" y="-346.08" font-family="Helvetica,sans-Serif" font-size="11.00" fill="#222222">(odim:AlgorithmicComputation)</text>
</g>
<!-- CenterAnchor&#45;&gt;DailyComp -->
<!-- F1 -->
<g id="node18" class="node">
<title>F1</title>
<path fill="#e2f0d9" stroke="#666666" d="M1230.5,-468.51C1230.5,-468.51 1113.5,-468.51 1113.5,-468.51 1107.5,-468.51 1101.5,-462.51 1101.5,-456.51 1101.5,-456.51 1101.5,-444.51 1101.5,-444.51 1101.5,-438.51 1107.5,-432.51 1113.5,-432.51 1113.5,-432.51 1230.5,-432.51 1230.5,-432.51 1236.5,-432.51 1242.5,-438.51 1242.5,-444.51 1242.5,-444.51 1242.5,-456.51 1242.5,-456.51 1242.5,-462.51 1236.5,-468.51 1230.5,-468.51"/>
<text text-anchor="middle" x="1172" y="-453.71" font-family="Helvetica,sans-Serif" font-size="11.00" fill="#222222">odim:F_DailySteps_D1</text>
<text text-anchor="middle" x="1172" y="-441.71" font-family="Helvetica,sans-Serif" font-size="11.00" fill="#222222">(odim:DerivedFeature)</text>
</g>
<!-- CenterAnchor&#45;&gt;F1 -->
<!-- SQ1 -->
<g id="node21" class="node">
<title>SQ1</title>
<path fill="#e2f0d9" stroke="#666666" d="M1689,-468.51C1689,-468.51 1561,-468.51 1561,-468.51 1555,-468.51 1549,-462.51 1549,-456.51 1549,-456.51 1549,-444.51 1549,-444.51 1549,-438.51 1555,-432.51 1561,-432.51 1561,-432.51 1689,-432.51 1689,-432.51 1695,-432.51 1701,-438.51 1701,-444.51 1701,-444.51 1701,-456.51 1701,-456.51 1701,-462.51 1695,-468.51 1689,-468.51"/>
<text text-anchor="middle" x="1625" y="-453.71" font-family="Helvetica,sans-Serif" font-size="11.00" fill="#222222">odim:F_SleepMinutes_D1</text>
<text text-anchor="middle" x="1625" y="-441.71" font-family="Helvetica,sans-Serif" font-size="11.00" fill="#222222">(odim:DerivedFeature)</text>
</g>
<!-- CenterAnchor&#45;&gt;SQ1 -->
<!-- Combine -->
<g id="node33" class="node">
<title>Combine</title>
<ellipse fill="#fff2cc" stroke="#666666" cx="1686" cy="-945.65" rx="133.79" ry="22.76"/>
<text text-anchor="middle" x="1686" y="-948.85" font-family="Helvetica,sans-Serif" font-size="11.00" fill="#222222">odim:A_MarkerDerivation</text>
<text text-anchor="middle" x="1686" y="-936.85" font-family="Helvetica,sans-Serif" font-size="11.00" fill="#222222">(odim:AlgorithmicComputation)</text>
</g>
<!-- CenterAnchor&#45;&gt;Combine -->
<!-- RawSteps -->
<g id="node9" class="node">
<title>RawSteps</title>
<path fill="#eeeeee" stroke="#666666" d="M1624.5,-52C1624.5,-52 1525.5,-52 1525.5,-52 1519.5,-52 1513.5,-46 1513.5,-40 1513.5,-40 1513.5,-28 1513.5,-28 1513.5,-22 1519.5,-16 1525.5,-16 1525.5,-16 1624.5,-16 1624.5,-16 1630.5,-16 1636.5,-22 1636.5,-28 1636.5,-28 1636.5,-40 1636.5,-40 1636.5,-46 1630.5,-52 1624.5,-52"/>
<text text-anchor="middle" x="1575" y="-37.2" font-family="Helvetica,sans-Serif" font-size="11.00" fill="#222222">odim:RawStepsCSV</text>
<text text-anchor="middle" x="1575" y="-25.2" font-family="Helvetica,sans-Serif" font-size="11.00" fill="#222222">(prov:Entity)</text>
</g>
<!-- RawLoc -->
<g id="node11" class="node">
<title>RawLoc</title>
<path fill="#eeeeee" stroke="#666666" d="M1944.5,-52C1944.5,-52 1829.5,-52 1829.5,-52 1823.5,-52 1817.5,-46 1817.5,-40 1817.5,-40 1817.5,-28 1817.5,-28 1817.5,-22 1823.5,-16 1829.5,-16 1829.5,-16 1944.5,-16 1944.5,-16 1950.5,-16 1956.5,-22 1956.5,-28 1956.5,-28 1956.5,-40 1956.5,-40 1956.5,-46 1950.5,-52 1944.5,-52"/>
<text text-anchor="middle" x="1887" y="-37.2" font-family="Helvetica,sans-Serif" font-size="11.00" fill="#222222">odim:RawLocationCSV</text>
<text text-anchor="middle" x="1887" y="-25.2" font-family="Helvetica,sans-Serif" font-size="11.00" fill="#222222">(prov:Entity)</text>
</g>
<!-- Import&#45;&gt;RawSteps -->
<g id="edge8" class="edge">
<title>Import&#45;&gt;RawSteps</title>
<path fill="none" stroke="black" d="M1698.05,-124.56C1671.94,-105.55 1633.6,-77.65 1606.68,-58.05"/>
<polygon fill="black" stroke="black" points="1608.51,-55.06 1598.36,-52.01 1604.39,-60.72 1608.51,-55.06"/>
<text text-anchor="middle" x="1690" y="-94" font-family="Times,serif" font-size="10.00">prov:used</text>
</g>
<!-- Import&#45;&gt;RawSleep -->
<g id="edge9" class="edge">
<title>Import&#45;&gt;RawSleep</title>
<path fill="none" stroke="black" d="M1727,-123.77C1727,-106.11 1727,-81.15 1727,-62.2"/>
<polygon fill="black" stroke="black" points="1730.5,-62.1 1727,-52.1 1723.5,-62.1 1730.5,-62.1"/>
<text text-anchor="middle" x="1753" y="-94" font-family="Times,serif" font-size="10.00">prov:used</text>
</g>
<!-- Import&#45;&gt;RawLoc -->
<g id="edge10" class="edge">
<title>Import&#45;&gt;RawLoc</title>
<path fill="none" stroke="black" d="M1757.09,-124.82C1784.66,-105.76 1825.38,-77.6 1853.87,-57.91"/>
<polygon fill="black" stroke="black" points="1856.05,-60.65 1862.29,-52.09 1852.07,-54.9 1856.05,-60.65"/>
<text text-anchor="middle" x="1828" y="-94" font-family="Times,serif" font-size="10.00">prov:used</text>
</g>
<!-- ObsSteps -->
<g id="node13" class="node">
<title>ObsSteps</title>
<path fill="#ddeeff" stroke="#666666" d="M1589,-277.25C1589,-277.25 1439,-277.25 1439,-277.25 1433,-277.25 1427,-271.25 1427,-265.25 1427,-265.25 1427,-253.25 1427,-253.25 1427,-247.25 1433,-241.25 1439,-241.25 1439,-241.25 1589,-241.25 1589,-241.25 1595,-241.25 1601,-247.25 1601,-253.25 1601,-253.25 1601,-265.25 1601,-265.25 1601,-271.25 1595,-277.25 1589,-277.25"/>
<text text-anchor="middle" x="1514" y="-262.45" font-family="Helvetica,sans-Serif" font-size="11.00" fill="#222222">odim:Obs_Steps_D1</text>
<text text-anchor="middle" x="1514" y="-250.45" font-family="Helvetica,sans-Serif" font-size="11.00" fill="#222222">(odim:ActivityMeasurement)</text>
</g>
<!-- ObsSteps&#45;&gt;Import -->
<g id="edge11" class="edge">
<title>ObsSteps&#45;&gt;Import</title>
<path fill="none" stroke="black" d="M1543.8,-241.22C1561.23,-231.37 1583.73,-218.87 1604,-208.25 1627.34,-196.03 1653.49,-183.04 1675.66,-172.23"/>
<polygon fill="black" stroke="black" points="1677.43,-175.26 1684.9,-167.75 1674.37,-168.97 1677.43,-175.26"/>
<text text-anchor="middle" x="1662" y="-211.25" font-family="Times,serif" font-size="10.00">odim:wasGeneratedBy</text>
</g>
<!-- ObsSleep -->
<g id="node14" class="node">
<title>ObsSleep</title>
<path fill="#ddeeff" stroke="#666666" d="M1812,-277.25C1812,-277.25 1642,-277.25 1642,-277.25 1636,-277.25 1630,-271.25 1630,-265.25 1630,-265.25 1630,-253.25 1630,-253.25 1630,-247.25 1636,-241.25 1642,-241.25 1642,-241.25 1812,-241.25 1812,-241.25 1818,-241.25 1824,-247.25 1824,-253.25 1824,-253.25 1824,-265.25 1824,-265.25 1824,-271.25 1818,-277.25 1812,-277.25"/>
<text text-anchor="middle" x="1727" y="-262.45" font-family="Helvetica,sans-Serif" font-size="11.00" fill="#222222">odim:Obs_Sleep_D1</text>
<text text-anchor="middle" x="1727" y="-250.45" font-family="Helvetica,sans-Serif" font-size="11.00" fill="#222222">(odim:SleepStageMeasurement)</text>
</g>
<!-- ObsSleep&#45;&gt;Import -->
<g id="edge12" class="edge">
<title>ObsSleep&#45;&gt;Import</title>
<path fill="none" stroke="black" d="M1727,-240.97C1727,-224.59 1727,-199.58 1727,-179.58"/>
<polygon fill="black" stroke="black" points="1730.5,-179.35 1727,-169.35 1723.5,-179.35 1730.5,-179.35"/>
<text text-anchor="middle" x="1785" y="-211.25" font-family="Times,serif" font-size="10.00">odim:wasGeneratedBy</text>
</g>
<!-- ObsLoc -->
<g id="node15" class="node">
<title>ObsLoc</title>
<path fill="#ddeeff" stroke="#666666" d="M2091.5,-277.25C2091.5,-277.25 1926.5,-277.25 1926.5,-277.25 1920.5,-277.25 1914.5,-271.25 1914.5,-265.25 1914.5,-265.25 1914.5,-253.25 1914.5,-253.25 1914.5,-247.25 1920.5,-241.25 1926.5,-241.25 1926.5,-241.25 2091.5,-241.25 2091.5,-241.25 2097.5,-241.25 2103.5,-247.25 2103.5,-253.25 2103.5,-253.25 2103.5,-265.25 2103.5,-265.25 2103.5,-271.25 2097.5,-277.25 2091.5,-277.25"/>
<text text-anchor="middle" x="2009" y="-262.45" font-family="Helvetica,sans-Serif" font-size="11.00" fill="#222222">odim:Obs_Location_D1</text>
<text text-anchor="middle" x="2009" y="-250.45" font-family="Helvetica,sans-Serif" font-size="11.00" fill="#222222">(odim:DeviceLocationEstimate)</text>
</g>
<!-- ObsLoc&#45;&gt;Import -->
<g id="edge13" class="edge">
<title>ObsLoc&#45;&gt;Import</title>
<path fill="none" stroke="black" d="M1965.56,-241.21C1917.46,-222.34 1839.66,-191.82 1786.05,-170.79"/>
<polygon fill="black" stroke="black" points="1787.26,-167.51 1776.67,-167.11 1784.7,-174.02 1787.26,-167.51"/>
<text text-anchor="middle" x="1959" y="-211.25" font-family="Times,serif" font-size="10.00">odim:wasGeneratedBy</text>
</g>
<!-- ObsDots -->
<g id="node16" class="node">
<title>ObsDots</title>
<path fill="white" stroke="transparent" d="M2270,-676.76C2270,-676.76 2216,-676.76 2216,-676.76 2210,-676.76 2204,-670.76 2204,-664.76 2204,-664.76 2204,-652.76 2204,-652.76 2204,-646.76 2210,-640.76 2216,-640.76 2216,-640.76 2270,-640.76 2270,-640.76 2276,-640.76 2282,-646.76 2282,-652.76 2282,-652.76 2282,-664.76 2282,-664.76 2282,-670.76 2276,-676.76 2270,-676.76"/>
<text text-anchor="middle" x="2243" y="-655.96" font-family="Helvetica,sans-Serif" font-size="11.00" fill="#222222">… (D2..D7)</text>
</g>
<!-- DailyComp&#45;&gt;ObsSteps -->
<g id="edge14" class="edge">
<title>DailyComp&#45;&gt;ObsSteps</title>
<path fill="none" stroke="black" d="M1514,-332.17C1514,-318.91 1514,-301.84 1514,-287.65"/>
<polygon fill="black" stroke="black" points="1517.5,-287.48 1514,-277.48 1510.5,-287.48 1517.5,-287.48"/>
<text text-anchor="middle" x="1540" y="-302.25" font-family="Times,serif" font-size="10.00">prov:used</text>
</g>
<!-- DailyComp&#45;&gt;ObsSleep -->
<g id="edge15" class="edge">
<title>DailyComp&#45;&gt;ObsSleep</title>
<path fill="none" stroke="black" d="M1560.22,-333.57C1595.26,-318.16 1643.29,-297.05 1678.81,-281.44"/>
<polygon fill="black" stroke="black" points="1680.26,-284.62 1688.01,-277.39 1677.45,-278.21 1680.26,-284.62"/>
<text text-anchor="middle" x="1659" y="-302.25" font-family="Times,serif" font-size="10.00">prov:used</text>
</g>
<!-- F1&#45;&gt;DailyComp -->
<g id="edge20" class="edge">
<title>F1&#45;&gt;DailyComp</title>
<path fill="none" stroke="black" d="M1190.13,-432.4C1203.04,-421.23 1221.34,-407.31 1240,-399.51 1283.47,-381.34 1333.73,-370.68 1379.24,-364.45"/>
<polygon fill="black" stroke="black" points="1379.72,-367.92 1389.18,-363.15 1378.81,-360.98 1379.72,-367.92"/>
<text text-anchor="middle" x="1297.5" y="-402.51" font-family="Times,serif" font-size="10.00">odim:wasComputedBy</text>
</g>
<!-- F2 -->
<g id="node19" class="node">
<title>F2</title>
<path fill="#e2f0d9" stroke="#666666" d="M1400.5,-468.51C1400.5,-468.51 1283.5,-468.51 1283.5,-468.51 1277.5,-468.51 1271.5,-462.51 1271.5,-456.51 1271.5,-456.51 1271.5,-444.51 1271.5,-444.51 1271.5,-438.51 1277.5,-432.51 1283.5,-432.51 1283.5,-432.51 1400.5,-432.51 1400.5,-432.51 1406.5,-432.51 1412.5,-438.51 1412.5,-444.51 1412.5,-444.51 1412.5,-456.51 1412.5,-456.51 1412.5,-462.51 1406.5,-468.51 1400.5,-468.51"/>
<text text-anchor="middle" x="1342" y="-453.71" font-family="Helvetica,sans-Serif" font-size="11.00" fill="#222222">odim:F_DailySteps_D2</text>
<text text-anchor="middle" x="1342" y="-441.71" font-family="Helvetica,sans-Serif" font-size="11.00" fill="#222222">(odim:DerivedFeature)</text>
</g>
<!-- F2&#45;&gt;DailyComp -->
<g id="edge21" class="edge">
<title>F2&#45;&gt;DailyComp</title>
<path fill="none" stroke="black" d="M1348.8,-432.45C1353.95,-421.58 1362.01,-408 1373,-399.51 1386.1,-389.39 1401.56,-381.6 1417.36,-375.6"/>
<polygon fill="black" stroke="black" points="1418.98,-378.75 1427.23,-372.1 1416.64,-372.15 1418.98,-378.75"/>
<text text-anchor="middle" x="1430.5" y="-402.51" font-family="Times,serif" font-size="10.00">odim:wasComputedBy</text>
</g>
<!-- FDots -->
<g id="node20" class="node">
<title>FDots</title>
<path fill="white" stroke="transparent" d="M1508,-468.51C1508,-468.51 1454,-468.51 1454,-468.51 1448,-468.51 1442,-462.51 1442,-456.51 1442,-456.51 1442,-444.51 1442,-444.51 1442,-438.51 1448,-432.51 1454,-432.51 1454,-432.51 1508,-432.51 1508,-432.51 1514,-432.51 1520,-438.51 1520,-444.51 1520,-444.51 1520,-456.51 1520,-456.51 1520,-462.51 1514,-468.51 1508,-468.51"/>
<text text-anchor="middle" x="1481" y="-447.71" font-family="Helvetica,sans-Serif" font-size="11.00" fill="#666666">… (D3..D7)</text>
</g>
<!-- FDots&#45;&gt;DailyComp -->
<g id="edge24" class="edge">
<title>FDots&#45;&gt;DailyComp</title>
<path fill="none" stroke="black" stroke-dasharray="1,5" d="M1487.05,-432.34C1492.49,-416.92 1500.49,-394.22 1506.36,-377.56"/>
</g>
<!-- SQ1&#45;&gt;DailyComp -->
<g id="edge22" class="edge">
<title>SQ1&#45;&gt;DailyComp</title>
<path fill="none" stroke="black" d="M1595.61,-432.42C1585.53,-426.04 1574.42,-418.41 1565,-410.51 1555.94,-402.91 1546.87,-393.8 1538.95,-385.22"/>
<polygon fill="black" stroke="black" points="1541.32,-382.63 1532.02,-377.55 1536.12,-387.32 1541.32,-382.63"/>
<text text-anchor="middle" x="1622.5" y="-402.51" font-family="Times,serif" font-size="10.00">odim:wasComputedBy</text>
</g>
<!-- SQ2 -->
<g id="node22" class="node">
<title>SQ2</title>
<path fill="#e2f0d9" stroke="#666666" d="M1870,-468.51C1870,-468.51 1742,-468.51 1742,-468.51 1736,-468.51 1730,-462.51 1730,-456.51 1730,-456.51 1730,-444.51 1730,-444.51 1730,-438.51 1736,-432.51 1742,-432.51 1742,-432.51 1870,-432.51 1870,-432.51 1876,-432.51 1882,-438.51 1882,-444.51 1882,-444.51 1882,-456.51 1882,-456.51 1882,-462.51 1876,-468.51 1870,-468.51"/>
<text text-anchor="middle" x="1806" y="-453.71" font-family="Helvetica,sans-Serif" font-size="11.00" fill="#222222">odim:F_SleepMinutes_D2</text>
<text text-anchor="middle" x="1806" y="-441.71" font-family="Helvetica,sans-Serif" font-size="11.00" fill="#222222">(odim:DerivedFeature)</text>
</g>
<!-- SQ2&#45;&gt;DailyComp -->
<g id="edge23" class="edge">
<title>SQ2&#45;&gt;DailyComp</title>
<path fill="none" stroke="black" d="M1767.72,-432.41C1743.69,-422.06 1711.89,-409.06 1683,-399.51 1656.72,-390.82 1627.69,-382.78 1601.2,-376.03"/>
<polygon fill="black" stroke="black" points="1601.74,-372.55 1591.19,-373.5 1600.03,-379.34 1601.74,-372.55"/>
<text text-anchor="middle" x="1767.5" y="-402.51" font-family="Times,serif" font-size="10.00">odim:wasComputedBy</text>
</g>
<!-- WeeklySteps -->
<g id="node23" class="node">
<title>WeeklySteps</title>
<ellipse fill="#fff2cc" stroke="#666666" cx="1291" cy="-563.14" rx="133.79" ry="22.76"/>
<text text-anchor="middle" x="1291" y="-566.34" font-family="Helvetica,sans-Serif" font-size="11.00" fill="#222222">odim:A_WeeklyAggregateSteps</text>
<text text-anchor="middle" x="1291" y="-554.34" font-family="Helvetica,sans-Serif" font-size="11.00" fill="#222222">(odim:AlgorithmicComputation)</text>
</g>
<!-- WeeklySteps&#45;&gt;F1 -->
<g id="edge25" class="edge">
<title>WeeklySteps&#45;&gt;F1</title>
<path fill="none" stroke="black" d="M1268.06,-540.81C1248.05,-522.21 1219.05,-495.25 1198.15,-475.82"/>
<polygon fill="black" stroke="black" points="1200.28,-473.03 1190.58,-468.78 1195.52,-478.15 1200.28,-473.03"/>
<text text-anchor="middle" x="1268" y="-510.51" font-family="Times,serif" font-size="10.00">prov:used</text>
</g>
<!-- WeeklySteps&#45;&gt;F2 -->
<g id="edge26" class="edge">
<title>WeeklySteps&#45;&gt;F2</title>
<path fill="none" stroke="black" d="M1300.95,-540.54C1309.24,-522.58 1321.06,-496.94 1329.89,-477.78"/>
<polygon fill="black" stroke="black" points="1333.07,-479.24 1334.08,-468.7 1326.71,-476.31 1333.07,-479.24"/>
<text text-anchor="middle" x="1340" y="-510.51" font-family="Times,serif" font-size="10.00">prov:used</text>
</g>
<!-- WeeklySteps&#45;&gt;FDots -->
<g id="edge27" class="edge">
<title>WeeklySteps&#45;&gt;FDots</title>
<path fill="none" stroke="black" stroke-dasharray="1,5" d="M1343.59,-542.21C1369.64,-531.28 1401,-516.51 1427,-499.51 1440.44,-490.72 1453.94,-478.72 1464.08,-468.92"/>
</g>
<!-- MeanSteps -->
<g id="node24" class="node">
<title>MeanSteps</title>
<path fill="#e2f0d9" stroke="#666666" d="M1294.5,-676.76C1294.5,-676.76 1159.5,-676.76 1159.5,-676.76 1153.5,-676.76 1147.5,-670.76 1147.5,-664.76 1147.5,-664.76 1147.5,-652.76 1147.5,-652.76 1147.5,-646.76 1153.5,-640.76 1159.5,-640.76 1159.5,-640.76 1294.5,-640.76 1294.5,-640.76 1300.5,-640.76 1306.5,-646.76 1306.5,-652.76 1306.5,-652.76 1306.5,-664.76 1306.5,-664.76 1306.5,-670.76 1300.5,-676.76 1294.5,-676.76"/>
<text text-anchor="middle" x="1227" y="-661.96" font-family="Helvetica,sans-Serif" font-size="11.00" fill="#222222">odim:F_WeeklyMeanSteps</text>
<text text-anchor="middle" x="1227" y="-649.96" font-family="Helvetica,sans-Serif" font-size="11.00" fill="#222222">(odim:DerivedFeature)</text>
</g>
<!-- MeanSteps&#45;&gt;WeeklySteps -->
<g id="edge28" class="edge">
<title>MeanSteps&#45;&gt;WeeklySteps</title>
<path fill="none" stroke="black" d="M1238.74,-640.59C1247.55,-627.71 1259.84,-609.73 1270.28,-594.44"/>
<polygon fill="black" stroke="black" points="1273.43,-596.05 1276.18,-585.82 1267.65,-592.1 1273.43,-596.05"/>
<text text-anchor="middle" x="1317.5" y="-610.76" font-family="Times,serif" font-size="10.00">odim:wasComputedBy</text>
</g>
<!-- Thresh -->
<g id="node25" class="node">
<title>Thresh</title>
<path fill="#ffe5d9" stroke="#666666" d="M1482.5,-676.76C1482.5,-676.76 1347.5,-676.76 1347.5,-676.76 1341.5,-676.76 1335.5,-670.76 1335.5,-664.76 1335.5,-664.76 1335.5,-652.76 1335.5,-652.76 1335.5,-646.76 1341.5,-640.76 1347.5,-640.76 1347.5,-640.76 1482.5,-640.76 1482.5,-640.76 1488.5,-640.76 1494.5,-646.76 1494.5,-652.76 1494.5,-652.76 1494.5,-664.76 1494.5,-664.76 1494.5,-670.76 1488.5,-676.76 1482.5,-676.76"/>
<text text-anchor="middle" x="1415" y="-661.96" font-family="Helvetica,sans-Serif" font-size="11.00" fill="#222222">odim:Threshold_LowSteps</text>
<text text-anchor="middle" x="1415" y="-649.96" font-family="Helvetica,sans-Serif" font-size="11.00" fill="#222222">(prov:Entity)</text>
</g>
<!-- StepsDecision -->
<g id="node26" class="node">
<title>StepsDecision</title>
<ellipse fill="#fff2cc" stroke="#666666" cx="1388" cy="-754.39" rx="135.11" ry="22.76"/>
<text text-anchor="middle" x="1388" y="-757.59" font-family="Helvetica,sans-Serif" font-size="11.00" fill="#222222">odim:A_StepsThresholdDecision</text>
<text text-anchor="middle" x="1388" y="-745.59" font-family="Helvetica,sans-Serif" font-size="11.00" fill="#222222">(odim:AlgorithmicComputation)</text>
</g>
<!-- StepsDecision&#45;&gt;MeanSteps -->
<g id="edge29" class="edge">
<title>StepsDecision&#45;&gt;MeanSteps</title>
<path fill="none" stroke="black" d="M1351.87,-732.38C1326.08,-717.38 1291.45,-697.24 1265.2,-681.98"/>
<polygon fill="black" stroke="black" points="1266.7,-678.8 1256.29,-676.8 1263.18,-684.85 1266.7,-678.8"/>
<text text-anchor="middle" x="1338" y="-701.76" font-family="Times,serif" font-size="10.00">prov:used</text>
</g>
<!-- StepsDecision&#45;&gt;Thresh -->
<g id="edge30" class="edge">
<title>StepsDecision&#45;&gt;Thresh</title>
<path fill="none" stroke="black" d="M1394.26,-731.68C1398.12,-718.29 1403.11,-701.01 1407.22,-686.75"/>
<polygon fill="black" stroke="black" points="1410.62,-687.57 1410.03,-676.99 1403.9,-685.63 1410.62,-687.57"/>
<text text-anchor="middle" x="1429" y="-701.76" font-family="Times,serif" font-size="10.00">prov:used</text>
</g>
<!-- Marker -->
<g id="node27" class="node">
<title>Marker</title>
<path fill="#e2f0d9" stroke="#666666" d="M1534,-868.02C1534,-868.02 1334,-868.02 1334,-868.02 1328,-868.02 1322,-862.02 1322,-856.02 1322,-856.02 1322,-844.02 1322,-844.02 1322,-838.02 1328,-832.02 1334,-832.02 1334,-832.02 1534,-832.02 1534,-832.02 1540,-832.02 1546,-838.02 1546,-844.02 1546,-844.02 1546,-856.02 1546,-856.02 1546,-862.02 1540,-868.02 1534,-868.02"/>
<text text-anchor="middle" x="1434" y="-853.22" font-family="Helvetica,sans-Serif" font-size="11.00" fill="#222222">odim:Marker_LowActivityDuringTravel</text>
<text text-anchor="middle" x="1434" y="-841.22" font-family="Helvetica,sans-Serif" font-size="11.00" fill="#222222">(odim:DerivedFeature)</text>
</g>
<!-- Marker&#45;&gt;StepsDecision -->
<g id="edge31" class="edge">
<title>Marker&#45;&gt;StepsDecision</title>
<path fill="none" stroke="black" d="M1425.56,-831.85C1419.29,-819.08 1410.56,-801.32 1403.1,-786.13"/>
<polygon fill="black" stroke="black" points="1406.2,-784.5 1398.65,-777.07 1399.92,-787.59 1406.2,-784.5"/>
<text text-anchor="middle" x="1470.5" y="-802.02" font-family="Times,serif" font-size="10.00">odim:wasComputedBy</text>
</g>
<!-- WeeklySleep -->
<g id="node28" class="node">
<title>WeeklySleep</title>
<ellipse fill="#fff2cc" stroke="#666666" cx="1625" cy="-563.14" rx="162.77" ry="22.76"/>
<text text-anchor="middle" x="1625" y="-566.34" font-family="Helvetica,sans-Serif" font-size="11.00" fill="#222222">odim:A_WeeklyAggregateSleepMinutes</text>
<text text-anchor="middle" x="1625" y="-554.34" font-family="Helvetica,sans-Serif" font-size="11.00" fill="#222222">(odim:AlgorithmicComputation)</text>
</g>
<!-- WeeklySleep&#45;&gt;FDots -->
<g id="edge34" class="edge">
<title>WeeklySleep&#45;&gt;FDots</title>
<path fill="none" stroke="black" stroke-dasharray="1,5" d="M1592.26,-540.72C1574.89,-529.02 1553.39,-514 1535,-499.51 1522.78,-489.88 1509.73,-478.32 1499.52,-468.96"/>
</g>
<!-- WeeklySleep&#45;&gt;SQ1 -->
<g id="edge32" class="edge">
<title>WeeklySleep&#45;&gt;SQ1</title>
<path fill="none" stroke="black" d="M1625,-540.28C1625,-522.62 1625,-497.66 1625,-478.71"/>
<polygon fill="black" stroke="black" points="1628.5,-478.61 1625,-468.61 1621.5,-478.61 1628.5,-478.61"/>
<text text-anchor="middle" x="1651" y="-510.51" font-family="Times,serif" font-size="10.00">prov:used</text>
</g>
<!-- WeeklySleep&#45;&gt;SQ2 -->
<g id="edge33" class="edge">
<title>WeeklySleep&#45;&gt;SQ2</title>
<path fill="none" stroke="black" d="M1659.9,-540.81C1691.35,-521.58 1737.44,-493.41 1769.41,-473.87"/>
<polygon fill="black" stroke="black" points="1771.32,-476.81 1778.03,-468.61 1767.67,-470.83 1771.32,-476.81"/>
<text text-anchor="middle" x="1736" y="-510.51" font-family="Times,serif" font-size="10.00">prov:used</text>
</g>
<!-- MeanSleep -->
<g id="node29" class="node">
<title>MeanSleep</title>
<path fill="#e2f0d9" stroke="#666666" d="M1714,-676.76C1714,-676.76 1536,-676.76 1536,-676.76 1530,-676.76 1524,-670.76 1524,-664.76 1524,-664.76 1524,-652.76 1524,-652.76 1524,-646.76 1530,-640.76 1536,-640.76 1536,-640.76 1714,-640.76 1714,-640.76 1720,-640.76 1726,-646.76 1726,-652.76 1726,-652.76 1726,-664.76 1726,-664.76 1726,-670.76 1720,-676.76 1714,-676.76"/>
<text text-anchor="middle" x="1625" y="-661.96" font-family="Helvetica,sans-Serif" font-size="11.00" fill="#222222">odim:F_WeeklyMeanSleepMinutes</text>
<text text-anchor="middle" x="1625" y="-649.96" font-family="Helvetica,sans-Serif" font-size="11.00" fill="#222222">(odim:DerivedFeature)</text>
</g>
<!-- MeanSleep&#45;&gt;WeeklySleep -->
<g id="edge35" class="edge">
<title>MeanSleep&#45;&gt;WeeklySleep</title>
<path fill="none" stroke="black" d="M1625,-640.59C1625,-628.19 1625,-611.07 1625,-596.17"/>
<polygon fill="black" stroke="black" points="1628.5,-595.82 1625,-585.82 1621.5,-595.82 1628.5,-595.82"/>
<text text-anchor="middle" x="1682.5" y="-610.76" font-family="Times,serif" font-size="10.00">odim:wasComputedBy</text>
</g>
<!-- SleepBaseline -->
<g id="node30" class="node">
<title>SleepBaseline</title>
<path fill="#ffe5d9" stroke="#666666" d="M1916.5,-676.76C1916.5,-676.76 1767.5,-676.76 1767.5,-676.76 1761.5,-676.76 1755.5,-670.76 1755.5,-664.76 1755.5,-664.76 1755.5,-652.76 1755.5,-652.76 1755.5,-646.76 1761.5,-640.76 1767.5,-640.76 1767.5,-640.76 1916.5,-640.76 1916.5,-640.76 1922.5,-640.76 1928.5,-646.76 1928.5,-652.76 1928.5,-652.76 1928.5,-664.76 1928.5,-664.76 1928.5,-670.76 1922.5,-676.76 1916.5,-676.76"/>
<text text-anchor="middle" x="1842" y="-661.96" font-family="Helvetica,sans-Serif" font-size="11.00" fill="#222222">odim:Baseline_SleepMinutes</text>
<text text-anchor="middle" x="1842" y="-649.96" font-family="Helvetica,sans-Serif" font-size="11.00" fill="#222222">(prov:Entity)</text>
</g>
<!-- SleepDebtDecision -->
<g id="node31" class="node">
<title>SleepDebtDecision</title>
<ellipse fill="#fff2cc" stroke="#666666" cx="1686" cy="-754.39" rx="133.79" ry="22.76"/>
<text text-anchor="middle" x="1686" y="-757.59" font-family="Helvetica,sans-Serif" font-size="11.00" fill="#222222">odim:A_SleepDebtDecision</text>
<text text-anchor="middle" x="1686" y="-745.59" font-family="Helvetica,sans-Serif" font-size="11.00" fill="#222222">(odim:AlgorithmicComputation)</text>
</g>
<!-- SleepDebtDecision&#45;&gt;MeanSleep -->
<g id="edge36" class="edge">
<title>SleepDebtDecision&#45;&gt;MeanSleep</title>
<path fill="none" stroke="black" d="M1671.85,-731.68C1662.88,-717.9 1651.21,-700 1641.77,-685.51"/>
<polygon fill="black" stroke="black" points="1644.62,-683.46 1636.22,-676.99 1638.75,-687.28 1644.62,-683.46"/>
<text text-anchor="middle" x="1683" y="-701.76" font-family="Times,serif" font-size="10.00">prov:used</text>
</g>
<!-- SleepDebtDecision&#45;&gt;SleepBaseline -->
<g id="edge37" class="edge">
<title>SleepDebtDecision&#45;&gt;SleepBaseline</title>
<path fill="none" stroke="black" d="M1721.01,-732.38C1746,-717.38 1779.55,-697.24 1804.99,-681.98"/>
<polygon fill="black" stroke="black" points="1806.84,-684.95 1813.62,-676.8 1803.24,-678.94 1806.84,-684.95"/>
<text text-anchor="middle" x="1799" y="-701.76" font-family="Times,serif" font-size="10.00">prov:used</text>
</g>
<!-- SleepDebt -->
<g id="node32" class="node">
<title>SleepDebt</title>
<path fill="#e2f0d9" stroke="#666666" d="M1768.5,-868.02C1768.5,-868.02 1603.5,-868.02 1603.5,-868.02 1597.5,-868.02 1591.5,-862.02 1591.5,-856.02 1591.5,-856.02 1591.5,-844.02 1591.5,-844.02 1591.5,-838.02 1597.5,-832.02 1603.5,-832.02 1603.5,-832.02 1768.5,-832.02 1768.5,-832.02 1774.5,-832.02 1780.5,-838.02 1780.5,-844.02 1780.5,-844.02 1780.5,-856.02 1780.5,-856.02 1780.5,-862.02 1774.5,-868.02 1768.5,-868.02"/>
<text text-anchor="middle" x="1686" y="-853.22" font-family="Helvetica,sans-Serif" font-size="11.00" fill="#222222">odim:Marker_SleepDebt_Week1</text>
<text text-anchor="middle" x="1686" y="-841.22" font-family="Helvetica,sans-Serif" font-size="11.00" fill="#222222">(odim:DerivedFeature)</text>
</g>
<!-- SleepDebt&#45;&gt;SleepDebtDecision -->
<g id="edge38" class="edge">
<title>SleepDebt&#45;&gt;SleepDebtDecision</title>
<path fill="none" stroke="black" d="M1686,-831.85C1686,-819.44 1686,-802.32 1686,-787.42"/>
<polygon fill="black" stroke="black" points="1689.5,-787.07 1686,-777.07 1682.5,-787.07 1689.5,-787.07"/>
<text text-anchor="middle" x="1743.5" y="-802.02" font-family="Times,serif" font-size="10.00">odim:wasComputedBy</text>
</g>
<!-- Combine&#45;&gt;Marker -->
<g id="edge39" class="edge">
<title>Combine&#45;&gt;Marker</title>
<path fill="none" stroke="black" d="M1632.56,-924.79C1590.38,-909.12 1531.75,-887.34 1489.14,-871.51"/>
<polygon fill="black" stroke="black" points="1490.36,-868.22 1479.76,-868.02 1487.92,-874.79 1490.36,-868.22"/>
<text text-anchor="middle" x="1593" y="-893.02" font-family="Times,serif" font-size="10.00">prov:used</text>
</g>
<!-- Combine&#45;&gt;SleepDebt -->
<g id="edge40" class="edge">
<title>Combine&#45;&gt;SleepDebt</title>
<path fill="none" stroke="black" d="M1686,-922.93C1686,-909.67 1686,-892.6 1686,-878.42"/>
<polygon fill="black" stroke="black" points="1689.5,-878.25 1686,-868.25 1682.5,-878.25 1689.5,-878.25"/>
<text text-anchor="middle" x="1712" y="-893.02" font-family="Times,serif" font-size="10.00">prov:used</text>
</g>
<!-- TravelWin -->
<g id="node37" class="node">
<title>TravelWin</title>
<path fill="#fde2e4" stroke="#666666" d="M2007.5,-868.02C2007.5,-868.02 1866.5,-868.02 1866.5,-868.02 1860.5,-868.02 1854.5,-862.02 1854.5,-856.02 1854.5,-856.02 1854.5,-844.02 1854.5,-844.02 1854.5,-838.02 1860.5,-832.02 1866.5,-832.02 1866.5,-832.02 2007.5,-832.02 2007.5,-832.02 2013.5,-832.02 2019.5,-838.02 2019.5,-844.02 2019.5,-844.02 2019.5,-856.02 2019.5,-856.02 2019.5,-862.02 2013.5,-868.02 2007.5,-868.02"/>
<text text-anchor="middle" x="1937" y="-853.22" font-family="Helvetica,sans-Serif" font-size="11.00" fill="#222222">odim:TravelWindow_Week1</text>
<text text-anchor="middle" x="1937" y="-841.22" font-family="Helvetica,sans-Serif" font-size="11.00" fill="#222222">(odim:EventWindow)</text>
</g>
<!-- Combine&#45;&gt;TravelWin -->
<g id="edge41" class="edge">
<title>Combine&#45;&gt;TravelWin</title>
<path fill="none" stroke="black" d="M1739.23,-924.79C1781.15,-909.15 1839.39,-887.43 1881.81,-871.61"/>
<polygon fill="black" stroke="black" points="1883.27,-874.8 1891.42,-868.02 1880.83,-868.24 1883.27,-874.8"/>
<text text-anchor="middle" x="1852" y="-893.02" font-family="Times,serif" font-size="10.00">prov:used</text>
</g>
<!-- Phenotype -->
<g id="node34" class="node">
<title>Phenotype</title>
<path fill="#ede7f6" stroke="#666666" d="M1958,-1059.27C1958,-1059.27 1646,-1059.27 1646,-1059.27 1640,-1059.27 1634,-1053.27 1634,-1047.27 1634,-1047.27 1634,-1035.27 1634,-1035.27 1634,-1029.27 1640,-1023.27 1646,-1023.27 1646,-1023.27 1958,-1023.27 1958,-1023.27 1964,-1023.27 1970,-1029.27 1970,-1035.27 1970,-1035.27 1970,-1047.27 1970,-1047.27 1970,-1053.27 1964,-1059.27 1958,-1059.27"/>
<text text-anchor="middle" x="1802" y="-1044.47" font-family="Helvetica,sans-Serif" font-size="11.00" fill="#222222">odim:Phenotype_TravelAssociatedInactivityWithSleepDebt</text>
<text text-anchor="middle" x="1802" y="-1032.47" font-family="Helvetica,sans-Serif" font-size="11.00" fill="#222222">(odim:ActivityPhenotype)</text>
</g>
<!-- Phenotype&#45;&gt;Combine -->
<g id="edge42" class="edge">
<title>Phenotype&#45;&gt;Combine</title>
<path fill="none" stroke="black" d="M1775.84,-1023.1C1766.26,-1016.53 1755.45,-1008.81 1746,-1001.27 1735.85,-993.17 1725.23,-983.82 1715.79,-975.17"/>
<polygon fill="black" stroke="black" points="1717.89,-972.35 1708.18,-968.12 1713.13,-977.48 1717.89,-972.35"/>
<text text-anchor="middle" x="1803.5" y="-993.27" font-family="Times,serif" font-size="10.00">odim:wasComputedBy</text>
</g>
<!-- Week -->
<g id="node35" class="node">
<title>Week</title>
<path fill="#f3f4f6" stroke="#666666" d="M1975,-963.65C1975,-963.65 1861,-963.65 1861,-963.65 1855,-963.65 1849,-957.65 1849,-951.65 1849,-951.65 1849,-939.65 1849,-939.65 1849,-933.65 1855,-927.65 1861,-927.65 1861,-927.65 1975,-927.65 1975,-927.65 1981,-927.65 1987,-933.65 1987,-939.65 1987,-939.65 1987,-951.65 1987,-951.65 1987,-957.65 1981,-963.65 1975,-963.65"/>
<text text-anchor="middle" x="1918" y="-948.85" font-family="Helvetica,sans-Serif" font-size="11.00" fill="#222222">odim:Week1</text>
<text text-anchor="middle" x="1918" y="-936.85" font-family="Helvetica,sans-Serif" font-size="11.00" fill="#222222">(odim:WeeklyInterval)</text>
</g>
<!-- Phenotype&#45;&gt;Week -->
<g id="edge43" class="edge">
<title>Phenotype&#45;&gt;Week</title>
<path fill="none" stroke="black" d="M1832.28,-1023.15C1842.69,-1016.77 1854.18,-1009.15 1864,-1001.27 1875.16,-992.32 1886.45,-981.27 1895.81,-971.46"/>
<polygon fill="black" stroke="black" points="1898.58,-973.62 1902.85,-963.92 1893.47,-968.84 1898.58,-973.62"/>
<text text-anchor="middle" x="1925" y="-993.27" font-family="Times,serif" font-size="10.00">odim:occursDuring</text>
</g>
<!-- TravelDetect -->
<g id="node36" class="node">
<title>TravelDetect</title>
<ellipse fill="#fff2cc" stroke="#666666" cx="1982" cy="-754.39" rx="133.79" ry="22.76"/>
<text text-anchor="middle" x="1982" y="-757.59" font-family="Helvetica,sans-Serif" font-size="11.00" fill="#222222">odim:A_TravelDetection</text>
<text text-anchor="middle" x="1982" y="-745.59" font-family="Helvetica,sans-Serif" font-size="11.00" fill="#222222">(odim:AlgorithmicComputation)</text>
</g>
<!-- TravelDetect&#45;&gt;ObsLoc -->
<g id="edge16" class="edge">
<title>TravelDetect&#45;&gt;ObsLoc</title>
<path fill="none" stroke="black" d="M2076.99,-738.38C2119.41,-725.72 2160,-702.45 2160,-659.76 2160,-659.76 2160,-659.76 2160,-353.88 2160,-317.65 2128.21,-294.96 2093.81,-281.01"/>
<polygon fill="black" stroke="black" points="2094.65,-277.58 2084.06,-277.3 2092.16,-284.12 2094.65,-277.58"/>
<text text-anchor="middle" x="2186" y="-510.51" font-family="Times,serif" font-size="10.00">prov:used</text>
</g>
<!-- TravelDetect&#45;&gt;ObsDots -->
<g id="edge17" class="edge">
<title>TravelDetect&#45;&gt;ObsDots</title>
<path fill="none" stroke="black" stroke-dasharray="1,5" d="M2086.58,-740.21C2118.28,-733.7 2152.49,-724.05 2182,-709.76 2198.76,-701.65 2214.93,-688.05 2226.41,-677.08"/>
</g>
<!-- TravelThresh -->
<g id="node38" class="node">
<title>TravelThresh</title>
<path fill="#ffe5d9" stroke="#666666" d="M2104,-676.76C2104,-676.76 1970,-676.76 1970,-676.76 1964,-676.76 1958,-670.76 1958,-664.76 1958,-664.76 1958,-652.76 1958,-652.76 1958,-646.76 1964,-640.76 1970,-640.76 1970,-640.76 2104,-640.76 2104,-640.76 2110,-640.76 2116,-646.76 2116,-652.76 2116,-652.76 2116,-664.76 2116,-664.76 2116,-670.76 2110,-676.76 2104,-676.76"/>
<text text-anchor="middle" x="2037" y="-661.96" font-family="Helvetica,sans-Serif" font-size="11.00" fill="#222222">odim:Threshold_TravelKm</text>
<text text-anchor="middle" x="2037" y="-649.96" font-family="Helvetica,sans-Serif" font-size="11.00" fill="#222222">(prov:Entity)</text>
</g>
<!-- TravelDetect&#45;&gt;TravelThresh -->
<g id="edge18" class="edge">
<title>TravelDetect&#45;&gt;TravelThresh</title>
<path fill="none" stroke="black" d="M1994.76,-731.68C2002.77,-718.03 2013.17,-700.34 2021.64,-685.92"/>
<polygon fill="black" stroke="black" points="2024.83,-687.39 2026.88,-676.99 2018.8,-683.84 2024.83,-687.39"/>
<text text-anchor="middle" x="2038" y="-701.76" font-family="Times,serif" font-size="10.00">prov:used</text>
</g>
<!-- TravelWin&#45;&gt;TravelDetect -->
<g id="edge19" class="edge">
<title>TravelWin&#45;&gt;TravelDetect</title>
<path fill="none" stroke="black" d="M1945.25,-831.85C1951.39,-819.08 1959.93,-801.32 1967.23,-786.13"/>
<polygon fill="black" stroke="black" points="1970.4,-787.6 1971.58,-777.07 1964.09,-784.57 1970.4,-787.6"/>
<text text-anchor="middle" x="2017.5" y="-802.02" font-family="Times,serif" font-size="10.00">odim:wasComputedBy</text>
</g>
</g>
</svg>
