<?xml version="1.0" encoding="UTF-8" standalone="no"?>
<!DOCTYPE svg PUBLIC "-//W3C//DTD SVG 1.1//EN"
 "http://www.w3.org/Graphics/SVG/1.1/DTD/svg11.dtd">
<!-- Generated by graphviz version 2.43.0 (0)
 -->
<!-- Title: DemoFlow Pages: 1 -->
<svg width="2247pt" height="1106pt"
 viewBox="0.00 0.00 2247.00 1106.27" xmlns="http://www.w3.org/2000/svg" xmlns:xlink="http://www.w3.org/1999/xlink">
<g id="graph0" class="graph" transform="scale(1 1) rotate(0) translate(4 1102.27)">
<title>DemoFlow</title>
<polygon fill="white" stroke="transparent" points="-4,4 -4,-1102.27 2243,-1102.27 2243,4 -4,4"/>
<g id="clust1" class="cluster">
<title>cluster_legend</title>
<polygon fill="none" stroke="#e5e5e5" stroke-dasharray="5,2" points="8,-1015.27 8,-1086.27 1073,-1086.27 1073,-1015.27 8,-1015.27"/>
<text text-anchor="middle" x="36" y="-1074.27" font-family="Times,serif" font-size="10.00">Legend</text>
</g>
<g id="clust2" class="cluster">
<title>cluster_raw</title>
<polygon fill="none" stroke="#999999" stroke-dasharray="5,2" points="1469,-8 1469,-83 1929,-83 1929,-8 1469,-8"/>
<text text-anchor="middle" x="1540.5" y="-67.8" font-family="Times,serif" font-size="14.00">Raw (prov:Entity)</text>
</g>
<g id="clust3" class="cluster">
<title>cluster_import</title>
<polygon fill="none" stroke="#999999" stroke-dasharray="5,2" points="1562,-116 1562,-200.25 1819,-200.25 1819,-116 1562,-116"/>
<text text-anchor="middle" x="1690.5" y="-185.05" font-family="Times,serif" font-size="14.00">Import (odim:DataTransferEvent)</text>
</g>
<g id="clust4" class="cluster">
<title>cluster_obs</title>
</g>
<g id="clust5" class="cluster">
<title>cluster_daily</title>
<polygon fill="none" stroke="#999999" stroke-dasharray="5,2" points="1034,-324.25 1034,-499.51 1831,-499.51 1831,-324.25 1034,-324.25"/>
<text text-anchor="middle" x="1176" y="-484.31" font-family="Times,serif" font-size="14.00">Daily features (odim:DerivedFeature)</text>
</g>
<g id="clust6" class="cluster">
<title>cluster_weekly</title>
<polygon fill="none" stroke="#999999" stroke-dasharray="5,2" points="1081,-532.51 1081,-1090.27 2065,-1090.27 2065,-532.51 1081,-532.51"/>
<text text-anchor="middle" x="1248.5" y="-1075.07" font-family="Times,serif" font-size="14.00">Weekly aggregates → decisions → phenotype</text>
</g>
<!-- Lraw -->
<g id="node1" class="node">
<title>Lraw</title>
<path fill="#eeeeee" stroke="#666666" d="M1052.5,-1059.27C1052.5,-1059.27 963.5,-1059.27 963.5,-1059.27 957.5,-1059.27 951.5,-1053.27 951.5,-1047.27 951.5,-1047.27 951.5,-1035.27 951.5,-1035.27 951.5,-1029.27 957.5,-1023.27 963.5,-1023.27 963.5,-1023.27 1052.5,-1023.27 1052.5,-1023.27 1058.5,-1023.27 1064.5,-1029.27 1064.5,-1035.27 1064.5,-1035.27 1064.5,-1047.27 1064.5,-1047.27 1064.5,-1053.27 1058.5,-1059.27 1052.5,-1059.27"/>
<text text-anchor="middle" x="1008" y="-1038.47" font-family="Helvetica,sans-Serif" font-size="11.00" fill="#222222">Raw (prov:Entity)</text>
</g>
<!-- Lobs -->
<g id="node2" class="node">
<title>Lobs</title>
<path fill="#ddeeff" stroke="#666666" d="M910.5,-1059.27C910.5,-1059.27 805.5,-1059.27 805.5,-1059.27 799.5,-1059.27 793.5,-1053.27 793.5,-1047.27 793.5,-1047.27 793.5,-1035.27 793.5,-1035.27 793.5,-1029.27 799.5,-1023.27 805.5,-1023.27 805.5,-1023.27 910.5,-1023.27 910.5,-1023.27 916.5,-1023.27 922.5,-1029.27 922.5,-1035.27 922.5,-1035.27 922.5,-1047.27 922.5,-1047.27 922.5,-1053.27 916.5,-1059.27 910.5,-1059.27"/>
<text text-anchor="middle" x="858" y="-1038.47" font-family="Helvetica,sans-Serif" font-size="11.00" fill="#222222">Observation (entity)</text>
</g>
<!-- Lfeat -->
<g id="node3" class="node">
<title>Lfeat</title>
<path fill="#e2f0d9" stroke="#666666" d="M752,-1059.27C752,-1059.27 628,-1059.27 628,-1059.27 622,-1059.27 616,-1053.27 616,-1047.27 616,-1047.27 616,-1035.27 616,-1035.27 616,-1029.27 622,-1023.27 628,-1023.27 628,-1023.27 752,-1023.27 752,-1023.27 758,-1023.27 764,-1029.27 764,-1035.27 764,-1035.27 764,-1047.27 764,-1047.27 764,-1053.27 758,-1059.27 752,-1059.27"/>
<text text-anchor="middle" x="690" y="-1038.47" font-family="Helvetica,sans-Serif" font-size="11.00" fill="#222222">Derived feature (entity)</text>
</g>
<!-- Lact -->
<g id="node4" class="node">
<title>Lact</title>
<ellipse fill="#fff2cc" stroke="#666666" cx="502" cy="-1041.27" rx="84.58" ry="18"/>
<text text-anchor="middle" x="502" y="-1038.47" font-family="Helvetica,sans-Serif" font-size="11.00" fill="#222222">Computation (activity)</text>
</g>
<!-- Lparam -->
<g id="node5" class="node">
<title>Lparam</title>
<path fill="#ffe5d9" stroke="#666666" d="M376,-1059.27C376,-1059.27 254,-1059.27 254,-1059.27 248,-1059.27 242,-1053.27 242,-1047.27 242,-1047.27 242,-1035.27 242,-1035.27 242,-1029.27 248,-1023.27 254,-1023.27 254,-1023.27 376,-1023.27 376,-1023.27 382,-1023.27 388,-1029.27 388,-1035.27 388,-1035.27 388,-1047.27 388,-1047.27 388,-1053.27 382,-1059.27 376,-1059.27"/>
<text text-anchor="middle" x="315" y="-1038.47" font-family="Helvetica,sans-Serif" font-size="11.00" fill="#222222">Parameter (prov:Entity)</text>
</g>
<!-- Lwin -->
<g id="node6" class="node">
<title>Lwin</title>
<path fill="#fde2e4" stroke="#666666" d="M200.5,-1059.27C200.5,-1059.27 131.5,-1059.27 131.5,-1059.27 125.5,-1059.27 119.5,-1053.27 119.5,-1047.27 119.5,-1047.27 119.5,-1035.27 119.5,-1035.27 119.5,-1029.27 125.5,-1023.27 131.5,-1023.27 131.5,-1023.27 200.5,-1023.27 200.5,-1023.27 206.5,-1023.27 212.5,-1029.27 212.5,-1035.27 212.5,-1035.27 212.5,-1047.27 212.5,-1047.27 212.5,-1053.27 206.5,-1059.27 200.5,-1059.27"/>
<text text-anchor="middle" x="166" y="-1038.47" font-family="Helvetica,sans-Serif" font-size="11.00" fill="#222222">Event window</text>
</g>
<!-- Lpheno -->
<g id="node7" class="node">
<title>Lpheno</title>
<path fill="#ede7f6" stroke="#666666" d="M78.5,-1059.27C78.5,-1059.27 27.5,-1059.27 27.5,-1059.27 21.5,-1059.27 15.5,-1053.27 15.5,-1047.27 15.5,-1047.27 15.5,-1035.27 15.5,-1035.27 15.5,-1029.27 21.5,-1023.27 27.5,-1023.27 27.5,-1023.27 78.5,-1023.27 78.5,-1023.27 84.5,-1023.27 90.5,-1029.27 90.5,-1035.27 90.5,-1035.27 90.5,-1047.27 90.5,-1047.27 90.5,-1053.27 84.5,-1059.27 78.5,-1059.27"/>
<text text-anchor="middle" x="53" y="-1038.47" font-family="Helvetica,sans-Serif" font-size="11.00" fill="#222222">Phenotype</text>
</g>
<!-- RawSteps -->
<g id="node8" class="node">
<title>RawSteps</title>
<path fill="#eeeeee" stroke="#666666" d="M1588.5,-52C1588.5,-52 1489.5,-52 1489.5,-52 1483.5,-52 1477.5,-46 1477.5,-40 1477.5,-40 1477.5,-28 1477.5,-28 1477.5,-22 1483.5,-16 1489.5,-16 1489.5,-16 1588.5,-16 1588.5,-16 1594.5,-16 1600.5,-22 1600.5,-28 1600.5,-28 1600.5,-40 1600.5,-40 1600.5,-46 1594.5,-52 1588.5,-52"/>
<text text-anchor="middle" x="1539" y="-37.2" font-family="Helvetica,sans-Serif" font-size="11.00" fill="#222222">odim:RawStepsCSV</text>
<text text-anchor="middle" x="1539" y="-25.2" font-family="Helvetica,sans-Serif" font-size="11.00" fill="#222222">(prov:Entity)</text>
</g>
<!-- RawSleep -->
<g id="node9" class="node">
<title>RawSleep</title>
<path fill="#eeeeee" stroke="#666666" d="M1740,-52C1740,-52 1642,-52 1642,-52 1636,-52 1630,-46 1630,-40 1630,-40 1630,-28 1630,-28 1630,-22 1636,-16 1642,-16 1642,-16 1740,-16 1740,-16 1746,-16 1752,-22 1752,-28 1752,-28 1752,-40 1752,-40 1752,-46 1746,-52 1740,-52"/>
<text text-anchor="middle" x="1691" y="-37.2" font-family="Helvetica,sans-Serif" font-size="11.00" fill="#222222">odim:RawSleepCSV</text>
<text text-anchor="middle" x="1691" y="-25.2" font-family="Helvetica,sans-Serif" font-size="11.00" fill="#222222">(prov:Entity)</text>
</g>
<!-- RawLoc -->
<g id="node10" class="node">
<title>RawLoc</title>
<path fill="#eeeeee" stroke="#666666" d="M1908.5,-52C1908.5,-52 1793.5,-52 1793.5,-52 1787.5,-52 1781.5,-46 1781.5,-40 1781.5,-40 1781.5,-28 1781.5,-28 1781.5,-22 1787.5,-16 1793.5,-16 1793.5,-16 1908.5,-16 1908.5,-16 1914.5,-16 1920.5,-22 1920.5,-28 1920.5,-28 1920.5,-40 1920.5,-40 1920.5,-46 1914.5,-52 1908.5,-52"/>
<text text-anchor="middle" x="1851" y="-37.2" font-family="Helvetica,sans-Serif" font-size="11.00" fill="#222222">odim:RawLocationCSV</text>
<text text-anchor="middle" x="1851" y="-25.2" font-family="Helvetica,sans-Serif" font-size="11.00" fill="#222222">(prov:Entity)</text>
</g>
<!-- Import -->
<g id="node11" class="node">
<title>Import</title>
<ellipse fill="#fff2cc" stroke="#666666" cx="1691" cy="-146.63" rx="111.95" ry="22.76"/>
<text text-anchor="middle" x="1691" y="-149.83" font-family="Helvetica,sans-Serif" font-size="11.00" fill="#222222">odim:A_Import</text>
<text text-anchor="middle" x="1691" y="-137.83" font-family="Helvetica,sans-Serif" font-size="11.00" fill="#222222">(odim:DataTransferEvent)</text>
</g>
<!-- Import&#45;&gt;RawSteps -->
<g id="edge1" class="edge">
<title>Import&#45;&gt;RawSteps</title>
<path fill="none" stroke="black" d="M1662.05,-124.56C1635.94,-105.55 1597.6,-77.65 1570.68,-58.05"/>
<polygon fill="black" stroke="black" points="1572.51,-55.06 1562.36,-52.01 1568.39,-60.72 1572.51,-55.06"/>
<text text-anchor="middle" x="1654" y="-94" font-family="Times,serif" font-size="10.00">prov:used</text>
</g>
<!-- Import&#45;&gt;RawSleep -->
<g id="edge2" class="edge">
<title>Import&#45;&gt;RawSleep</title>
<path fill="none" stroke="black" d="M1691,-123.77C1691,-106.11 1691,-81.15 1691,-62.2"/>
<polygon fill="black" stroke="black" points="1694.5,-62.1 1691,-52.1 1687.5,-62.1 1694.5,-62.1"/>
<text text-anchor="middle" x="1717" y="-94" font-family="Times,serif" font-size="10.00">prov:used</text>
</g>
<!-- Import&#45;&gt;RawLoc -->
<g id="edge3" class="edge">
<title>Import&#45;&gt;RawLoc</title>
<path fill="none" stroke="black" d="M1721.09,-124.82C1748.66,-105.76 1789.38,-77.6 1817.87,-57.91"/>
<polygon fill="black" stroke="black" points="1820.05,-60.65 1826.29,-52.09 1816.07,-54.9 1820.05,-60.65"/>
<text text-anchor="middle" x="1792" y="-94" font-family="Times,serif" font-size="10.00">prov:used</text>
</g>
<!-- ObsSteps -->
<g id="node12" class="node">
<title>ObsSteps</title>
<path fill="#ddeeff" stroke="#666666" d="M1553,-277.25C1553,-277.25 1403,-277.25 1403,-277.25 1397,-277.25 1391,-271.25 1391,-265.25 1391,-265.25 1391,-253.25 1391,-253.25 1391,-247.25 1397,-241.25 1403,-241.25 1403,-241.25 1553,-241.25 1553,-241.25 1559,-241.25 1565,-247.25 1565,-253.25 1565,-253.25 1565,-265.25 1565,-265.25 1565,-271.25 1559,-277.25 1553,-277.25"/>
<text text-anchor="middle" x="1478" y="-262.45" font-family="Helvetica,sans-Serif" font-size="11.00" fill="#222222">odim:Obs_Steps_D1</text>
<text text-anchor="middle" x="1478" y="-250.45" font-family="Helvetica,sans-Serif" font-size="11.00" fill="#222222">(odim:ActivityMeasurement)</text>
</g>
<!-- ObsSteps&#45;&gt;Import -->
<g id="edge4" class="edge">
<title>ObsSteps&#45;&gt;Import</title>
<path fill="none" stroke="black" d="M1507.8,-241.22C1525.23,-231.37 1547.73,-218.87 1568,-208.25 1591.34,-196.03 1617.49,-183.04 1639.66,-172.23"/>
<polygon fill="black" stroke="black" points="1641.43,-175.26 1648.9,-167.75 1638.37,-168.97 1641.43,-175.26"/>
<text text-anchor="middle" x="1626" y="-211.25" font-family="Times,serif" font-size="10.00">odim:wasGeneratedBy</text>
</g>
<!-- ObsSleep -->
<g id="node13" class="node">
<title>ObsSleep</title>
<path fill="#ddeeff" stroke="#666666" d="M1776,-277.25C1776,-277.25 1606,-277.25 1606,-277.25 1600,-277.25 1594,-271.25 1594,-265.25 1594,-265.25 1594,-253.25 1594,-253.25 1594,-247.25 1600,-241.25 1606,-241.25 1606,-241.25 1776,-241.25 1776,-241.25 1782,-241.25 1788,-247.25 1788,-253.25 1788,-253.25 1788,-265.25 1788,-265.25 1788,-271.25 1782,-277.25 1776,-277.25"/>
<text text-anchor="middle" x="1691" y="-262.45" font-family="Helvetica,sans-Serif" font-size="11.00" fill="#222222">odim:Obs_Sleep_D1</text>
<text text-anchor="middle" x="1691" y="-250.45" font-family="Helvetica,sans-Serif" font-size="11.00" fill="#222222">(odim:SleepStageMeasurement)</text>
</g>
<!-- ObsSleep&#45;&gt;Import -->
<g id="edge5" class="edge">
<title>ObsSleep&#45;&gt;Import</title>
<path fill="none" stroke="black" d="M1691,-240.97C1691,-224.59 1691,-199.58 1691,-179.58"/>
<polygon fill="black" stroke="black" points="1694.5,-179.35 1691,-169.35 1687.5,-179.35 1694.5,-179.35"/>
<text text-anchor="middle" x="1749" y="-211.25" font-family="Times,serif" font-size="10.00">odim:wasGeneratedBy</text>
</g>
<!-- ObsLoc -->
<g id="node14" class="node">
<title>ObsLoc</title>
<path fill="#ddeeff" stroke="#666666" d="M2132.5,-277.25C2132.5,-277.25 1967.5,-277.25 1967.5,-277.25 1961.5,-277.25 1955.5,-271.25 1955.5,-265.25 1955.5,-265.25 1955.5,-253.25 1955.5,-253.25 1955.5,-247.25 1961.5,-241.25 1967.5,-241.25 1967.5,-241.25 2132.5,-241.25 2132.5,-241.25 2138.5,-241.25 2144.5,-247.25 2144.5,-253.25 2144.5,-253.25 2144.5,-265.25 2144.5,-265.25 2144.5,-271.25 2138.5,-277.25 2132.5,-277.25"/>
<text text-anchor="middle" x="2050" y="-262.45" font-family="Helvetica,sans-Serif" font-size="11.00" fill="#222222">odim:Obs_Location_D1</text>
<text text-anchor="middle" x="2050" y="-250.45" font-family="Helvetica,sans-Serif" font-size="11.00" fill="#222222">(odim:DeviceLocationEstimate)</text>
</g>
<!-- ObsLoc&#45;&gt;Import -->
<g id="edge6" class="edge">
<title>ObsLoc&#45;&gt;Import</title>
<path fill="none" stroke="black" d="M1994.69,-241.21C1931.61,-221.77 1828.39,-189.97 1760.07,-168.91"/>
<polygon fill="black" stroke="black" points="1760.84,-165.49 1750.26,-165.89 1758.78,-172.18 1760.84,-165.49"/>
<text text-anchor="middle" x="1971" y="-211.25" font-family="Times,serif" font-size="10.00">odim:wasGeneratedBy</text>
</g>
<!-- ObsDots -->
<g id="node15" class="node">
<title>ObsDots</title>
<path fill="white" stroke="transparent" d="M2211,-676.76C2211,-676.76 2157,-676.76 2157,-676.76 2151,-676.76 2145,-670.76 2145,-664.76 2145,-664.76 2145,-652.76 2145,-652.76 2145,-646.76 2151,-640.76 2157,-640.76 2157,-640.76 2211,-640.76 2211,-640.76 2217,-640.76 2223,-646.76 2223,-652.76 2223,-652.76 2223,-664.76 2223,-664.76 2223,-670.76 2217,-676.76 2211,-676.76"/>
<text text-anchor="middle" x="2184" y="-655.96" font-family="Helvetica,sans-Serif" font-size="11.00" fill="#222222">… (D2..D7)</text>
</g>
<!-- DailyComp -->
<g id="node16" class="node">
<title>DailyComp</title>
<ellipse fill="#fff2cc" stroke="#666666" cx="1478" cy="-354.88" rx="133.79" ry="22.76"/>
<text text-anchor="middle" x="1478" y="-358.08" font-family="Helvetica,sans-Serif" font-size="11.00" fill="#222222">odim:A_DailySummary</text>
<text text-anchor="middle" x="1478" y="-346.08" font-family="Helvetica,sans-Serif" font-size="11.00" fill="#222222">(odim:AlgorithmicComputation)</text>
</g>
<!-- DailyComp&#45;&gt;ObsSteps -->
<g id="edge7" class="edge">
<title>DailyComp&#45;&gt;ObsSteps</title>
<path fill="none" stroke="black" d="M1478,-332.17C1478,-318.91 1478,-301.84 1478,-287.65"/>
<polygon fill="black" stroke="black" points="1481.5,-287.48 1478,-277.48 1474.5,-287.48 1481.5,-287.48"/>
<text text-anchor="middle" x="1504" y="-302.25" font-family="Times,serif" font-size="10.00">prov:used</text>
</g>
<!-- DailyComp&#45;&gt;ObsSleep -->
<g id="edge8" class="edge">
<title>DailyComp&#45;&gt;ObsSleep</title>
<path fill="none" stroke="black" d="M1524.22,-333.57C1559.26,-318.16 1607.29,-297.05 1642.81,-281.44"/>
<polygon fill="black" stroke="black" points="1644.26,-284.62 1652.01,-277.39 1641.45,-278.21 1644.26,-284.62"/>
<text text-anchor="middle" x="1623" y="-302.25" font-family="Times,serif" font-size="10.00">prov:used</text>
</g>
<!-- F1 -->
<g id="node17" class="node">
<title>F1</title>
<path fill="#e2f0d9" stroke="#666666" d="M1171.5,-468.51C1171.5,-468.51 1054.5,-468.51 1054.5,-468.51 1048.5,-468.51 1042.5,-462.51 1042.5,-456.51 1042.5,-456.51 1042.5,-444.51 1042.5,-444.51 1042.5,-438.51 1048.5,-432.51 1054.5,-432.51 1054.5,-432.51 1171.5,-432.51 1171.5,-432.51 1177.5,-432.51 1183.5,-438.51 1183.5,-444.51 1183.5,-444.51 1183.5,-456.51 1183.5,-456.51 1183.5,-462.51 1177.5,-468.51 1171.5,-468.51"/>
<text text-anchor="middle" x="1113" y="-453.71" font-family="Helvetica,sans-Serif" font-size="11.00" fill="#222222">odim:F_DailySteps_D1</text>
<text text-anchor="middle" x="1113" y="-441.71" font-family="Helvetica,sans-Serif" font-size="11.00" fill="#222222">(odim:DerivedFeature)</text>
</g>
<!-- F1&#45;&gt;DailyComp -->
<g id="edge13" class="edge">
<title>F1&#45;&gt;DailyComp</title>
<path fill="none" stroke="black" d="M1134.2,-432.42C1149.19,-421.26 1170.23,-407.34 1191,-399.51 1239.09,-381.38 1294.41,-370.78 1343.56,-364.57"/>
<polygon fill="black" stroke="black" points="1344.13,-368.03 1353.63,-363.35 1343.28,-361.08 1344.13,-368.03"/>
<text text-anchor="middle" x="1248.5" y="-402.51" font-family="Times,serif" font-size="10.00">odim:wasComputedBy</text>
</g>
<!-- F2 -->
<g id="node18" class="node">
<title>F2</title>
<path fill="#e2f0d9" stroke="#666666" d="M1341.5,-468.51C1341.5,-468.51 1224.5,-468.51 1224.5,-468.51 1218.5,-468.51 1212.5,-462.51 1212.5,-456.51 1212.5,-456.51 1212.5,-444.51 1212.5,-444.51 1212.5,-438.51 1218.5,-432.51 1224.5,-432.51 1224.5,-432.51 1341.5,-432.51 1341.5,-432.51 1347.5,-432.51 1353.5,-438.51 1353.5,-444.51 1353.5,-444.51 1353.5,-456.51 1353.5,-456.51 1353.5,-462.51 1347.5,-468.51 1341.5,-468.51"/>
<text text-anchor="middle" x="1283" y="-453.71" font-family="Helvetica,sans-Serif" font-size="11.00" fill="#222222">odim:F_DailySteps_D2</text>
<text text-anchor="middle" x="1283" y="-441.71" font-family="Helvetica,sans-Serif" font-size="11.00" fill="#222222">(odim:DerivedFeature)</text>
</g>
<!-- F2&#45;&gt;DailyComp -->
<g id="edge14" class="edge">
<title>F2&#45;&gt;DailyComp</title>
<path fill="none" stroke="black" d="M1293.5,-432.38C1301.02,-421.48 1312.06,-407.89 1325,-399.51 1341.36,-388.91 1360.33,-380.84 1379.22,-374.71"/>
<polygon fill="black" stroke="black" points="1380.25,-378.05 1388.78,-371.76 1378.19,-371.36 1380.25,-378.05"/>
<text text-anchor="middle" x="1382.5" y="-402.51" font-family="Times,serif" font-size="10.00">odim:wasComputedBy</text>
</g>
<!-- FDots -->
<g id="node19" class="node">
<title>FDots</title>
<path fill="white" stroke="transparent" d="M1449,-468.51C1449,-468.51 1395,-468.51 1395,-468.51 1389,-468.51 1383,-462.51 1383,-456.51 1383,-456.51 1383,-444.51 1383,-444.51 1383,-438.51 1389,-432.51 1395,-432.51 1395,-432.51 1449,-432.51 1449,-432.51 1455,-432.51 1461,-438.51 1461,-444.51 1461,-444.51 1461,-456.51 1461,-456.51 1461,-462.51 1455,-468.51 1449,-468.51"/>
<text text-anchor="middle" x="1422" y="-447.71" font-family="Helvetica,sans-Serif" font-size="11.00" fill="#666666">… (D3..D7)</text>
</g>
<!-- FDots&#45;&gt;DailyComp -->
<g id="edge17" class="edge">
<title>FDots&#45;&gt;DailyComp</title>
<path fill="none" stroke="black" stroke-dasharray="1,5" d="M1432.27,-432.34C1441.49,-416.92 1455.07,-394.22 1465.03,-377.56"/>
</g>
<!-- SQ1 -->
<g id="node20" class="node">
<title>SQ1</title>
<path fill="#e2f0d9" stroke="#666666" d="M1630,-468.51C1630,-468.51 1502,-468.51 1502,-468.51 1496,-468.51 1490,-462.51 1490,-456.51 1490,-456.51 1490,-444.51 1490,-444.51 1490,-438.51 1496,-432.51 1502,-432.51 1502,-432.51 1630,-432.51 1630,-432.51 1636,-432.51 1642,-438.51 1642,-444.51 1642,-444.51 1642,-456.51 1642,-456.51 1642,-462.51 1636,-468.51 1630,-468.51"/>
<text text-anchor="middle" x="1566" y="-453.71" font-family="Helvetica,sans-Serif" font-size="11.00" fill="#222222">odim:F_SleepMinutes_D1</text>
<text text-anchor="middle" x="1566" y="-441.71" font-family="Helvetica,sans-Serif" font-size="11.00" fill="#222222">(odim:DerivedFeature)</text>
</g>
<!-- SQ1&#45;&gt;DailyComp -->
<g id="edge15" class="edge">
<title>SQ1&#45;&gt;DailyComp</title>
<path fill="none" stroke="black" d="M1549.86,-432.34C1537.41,-419.09 1519.9,-400.46 1505.28,-384.91"/>
<polygon fill="black" stroke="black" points="1507.77,-382.45 1498.38,-377.56 1502.67,-387.24 1507.77,-382.45"/>
<text text-anchor="middle" x="1585.5" y="-402.51" font-family="Times,serif" font-size="10.00">odim:wasComputedBy</text>
</g>
<!-- SQ2 -->
<g id="node21" class="node">
<title>SQ2</title>
<path fill="#e2f0d9" stroke="#666666" d="M1811,-468.51C1811,-468.51 1683,-468.51 1683,-468.51 1677,-468.51 1671,-462.51 1671,-456.51 1671,-456.51 1671,-444.51 1671,-444.51 1671,-438.51 1677,-432.51 1683,-432.51 1683,-432.51 1811,-432.51 1811,-432.51 1817,-432.51 1823,-438.51 1823,-444.51 1823,-444.51 1823,-456.51 1823,-456.51 1823,-462.51 1817,-468.51 1811,-468.51"/>
<text text-anchor="middle" x="1747" y="-453.71" font-family="Helvetica,sans-Serif" font-size="11.00" fill="#222222">odim:F_SleepMinutes_D2</text>
<text text-anchor="middle" x="1747" y="-441.71" font-family="Helvetica,sans-Serif" font-size="11.00" fill="#222222">(odim:DerivedFeature)</text>
</g>
<!-- SQ2&#45;&gt;DailyComp -->
<g id="edge16" class="edge">
<title>SQ2&#45;&gt;DailyComp</title>
<path fill="none" stroke="black" d="M1718.08,-432.39C1699.2,-421.78 1673.74,-408.5 1650,-399.51 1624.71,-389.93 1596.54,-381.79 1570.44,-375.23"/>
<polygon fill="black" stroke="black" points="1571.09,-371.78 1560.55,-372.79 1569.42,-378.58 1571.09,-371.78"/>
<text text-anchor="middle" x="1731.5" y="-402.51" font-family="Times,serif" font-size="10.00">odim:wasComputedBy</text>
</g>
<!-- WeeklySteps -->
<g id="node22" class="node">
<title>WeeklySteps</title>
<ellipse fill="#fff2cc" stroke="#666666" cx="1232" cy="-563.14" rx="133.79" ry="22.76"/>
<text text-anchor="middle" x="1232" y="-566.34" font-family="Helvetica,sans-Serif" font-size="11.00" fill="#222222">odim:A_WeeklyAggregateSteps</text>
<text text-anchor="middle" x="1232" y="-554.34" font-family="Helvetica,sans-Serif" font-size="11.00" fill="#222222">(odim:AlgorithmicComputation)</text>
</g>
<!-- WeeklySteps&#45;&gt;F1 -->
<g id="edge18" class="edge">
<title>WeeklySteps&#45;&gt;F1</title>
<path fill="none" stroke="black" d="M1209.06,-540.81C1189.05,-522.21 1160.05,-495.25 1139.15,-475.82"/>
<polygon fill="black" stroke="black" points="1141.28,-473.03 1131.58,-468.78 1136.52,-478.15 1141.28,-473.03"/>
<text text-anchor="middle" x="1210" y="-510.51" font-family="Times,serif" font-size="10.00">prov:used</text>
</g>
<!-- WeeklySteps&#45;&gt;F2 -->
<g id="edge19" class="edge">
<title>WeeklySteps&#45;&gt;F2</title>
<path fill="none" stroke="black" d="M1241.95,-540.54C1250.24,-522.58 1262.06,-496.94 1270.89,-477.78"/>
<polygon fill="black" stroke="black" points="1274.07,-479.24 1275.08,-468.7 1267.71,-476.31 1274.07,-479.24"/>
<text text-anchor="middle" x="1282" y="-510.51" font-family="Times,serif" font-size="10.00">prov:used</text>
</g>
<!-- WeeklySteps&#45;&gt;FDots -->
<g id="edge20" class="edge">
<title>WeeklySteps&#45;&gt;FDots</title>
<path fill="none" stroke="black" stroke-dasharray="1,5" d="M1284.59,-542.21C1310.64,-531.28 1342,-516.51 1368,-499.51 1381.44,-490.72 1394.94,-478.72 1405.08,-468.92"/>
</g>
<!-- MeanSteps -->
<g id="node23" class="node">
<title>MeanSteps</title>
<path fill="#e2f0d9" stroke="#666666" d="M1235.5,-676.76C1235.5,-676.76 1100.5,-676.76 1100.5,-676.76 1094.5,-676.76 1088.5,-670.76 1088.5,-664.76 1088.5,-664.76 1088.5,-652.76 1088.5,-652.76 1088.5,-646.76 1094.5,-640.76 1100.5,-640.76 1100.5,-640.76 1235.5,-640.76 1235.5,-640.76 1241.5,-640.76 1247.5,-646.76 1247.5,-652.76 1247.5,-652.76 1247.5,-664.76 1247.5,-664.76 1247.5,-670.76 1241.5,-676.76 1235.5,-676.76"/>
<text text-anchor="middle" x="1168" y="-661.96" font-family="Helvetica,sans-Serif" font-size="11.00" fill="#222222">odim:F_WeeklyMeanSteps</text>
<text text-anchor="middle" x="1168" y="-649.96" font-family="Helvetica,sans-Serif" font-size="11.00" fill="#222222">(odim:DerivedFeature)</text>
</g>
<!-- MeanSteps&#45;&gt;WeeklySteps -->
<g id="edge21" class="edge">
<title>MeanSteps&#45;&gt;WeeklySteps</title>
<path fill="none" stroke="black" d="M1179.74,-640.59C1188.55,-627.71 1200.84,-609.73 1211.28,-594.44"/>
<polygon fill="black" stroke="black" points="1214.43,-596.05 1217.18,-585.82 1208.65,-592.1 1214.43,-596.05"/>
<text text-anchor="middle" x="1259.5" y="-610.76" font-family="Times,serif" font-size="10.00">odim:wasComputedBy</text>
</g>
<!-- Thresh -->
<g id="node24" class="node">
<title>Thresh</title>
<path fill="#ffe5d9" stroke="#666666" d="M1423.5,-676.76C1423.5,-676.76 1288.5,-676.76 1288.5,-676.76 1282.5,-676.76 1276.5,-670.76 1276.5,-664.76 1276.5,-664.76 1276.5,-652.76 1276.5,-652.76 1276.5,-646.76 1282.5,-640.76 1288.5,-640.76 1288.5,-640.76 1423.5,-640.76 1423.5,-640.76 1429.5,-640.76 1435.5,-646.76 1435.5,-652.76 1435.5,-652.76 1435.5,-664.76 1435.5,-664.76 1435.5,-670.76 1429.5,-676.76 1423.5,-676.76"/>
<text text-anchor="middle" x="1356" y="-661.96" font-family="Helvetica,sans-Serif" font-size="11.00" fill="#222222">odim:Threshold_LowSteps</text>
<text text-anchor="middle" x="1356" y="-649.96" font-family="Helvetica,sans-Serif" font-size="11.00" fill="#222222">(prov:Entity)</text>
</g>
<!-- StepsDecision -->
<g id="node25" class="node">
<title>StepsDecision</title>
<ellipse fill="#fff2cc" stroke="#666666" cx="1329" cy="-754.39" rx="135.11" ry="22.76"/>
<text text-anchor="middle" x="1329" y="-757.59" font-family="Helvetica,sans-Serif" font-size="11.00" fill="#222222">odim:A_StepsThresholdDecision</text>
<text text-anchor="middle" x="1329" y="-745.59" font-family="Helvetica,sans-Serif" font-size="11.00" fill="#222222">(odim:AlgorithmicComputation)</text>
</g>
<!-- StepsDecision&#45;&gt;MeanSteps -->
<g id="edge22" class="edge">
<title>StepsDecision&#45;&gt;MeanSteps</title>
<path fill="none" stroke="black" d="M1292.87,-732.38C1267.08,-717.38 1232.45,-697.24 1206.2,-681.98"/>
<polygon fill="black" stroke="black" points="1207.7,-678.8 1197.29,-676.8 1204.18,-684.85 1207.7,-678.8"/>
<text text-anchor="middle" x="1280" y="-701.76" font-family="Times,serif" font-size="10.00">prov:used</text>
</g>
<!-- StepsDecision&#45;&gt;Thresh -->
<g id="edge23" class="edge">
<title>StepsDecision&#45;&gt;Thresh</title>
<path fill="none" stroke="black" d="M1335.26,-731.68C1339.12,-718.29 1344.11,-701.01 1348.22,-686.75"/>
<polygon fill="black" stroke="black" points="1351.62,-687.57 1351.03,-676.99 1344.9,-685.63 1351.62,-687.57"/>
<text text-anchor="middle" x="1371" y="-701.76" font-family="Times,serif" font-size="10.00">prov:used</text>
</g>
<!-- Marker -->
<g id="node26" class="node">
<title>Marker</title>
<path fill="#e2f0d9" stroke="#666666" d="M1475,-868.02C1475,-868.02 1275,-868.02 1275,-868.02 1269,-868.02 1263,-862.02 1263,-856.02 1263,-856.02 1263,-844.02 1263,-844.02 1263,-838.02 1269,-832.02 1275,-832.02 1275,-832.02 1475,-832.02 1475,-832.02 1481,-832.02 1487,-838.02 1487,-844.02 1487,-844.02 1487,-856.02 1487,-856.02 1487,-862.02 1481,-868.02 1475,-868.02"/>
<text text-anchor="middle" x="1375" y="-853.22" font-family="Helvetica,sans-Serif" font-size="11.00" fill="#222222">odim:Marker_LowActivityDuringTravel</text>
<text text-anchor="middle" x="1375" y="-841.22" font-family="Helvetica,sans-Serif" font-size="11.00" fill="#222222">(odim:DerivedFeature)</text>
</g>
<!-- Marker&#45;&gt;StepsDecision -->
<g id="edge24" class="edge">
<title>Marker&#45;&gt;StepsDecision</title>
<path fill="none" stroke="black" d="M1366.56,-831.85C1360.29,-819.08 1351.56,-801.32 1344.1,-786.13"/>
<polygon fill="black" stroke="black" points="1347.2,-784.5 1339.65,-777.07 1340.92,-787.59 1347.2,-784.5"/>
<text text-anchor="middle" x="1412.5" y="-802.02" font-family="Times,serif" font-size="10.00">odim:wasComputedBy</text>
</g>
<!-- WeeklySleep -->
<g id="node27" class="node">
<title>WeeklySleep</title>
<ellipse fill="#fff2cc" stroke="#666666" cx="1566" cy="-563.14" rx="162.77" ry="22.76"/>
<text text-anchor="middle" x="1566" y="-566.34" font-family="Helvetica,sans-Serif" font-size="11.00" fill="#222222">odim:A_WeeklyAggregateSleepMinutes</text>
<text text-anchor="middle" x="1566" y="-554.34" font-family="Helvetica,sans-Serif" font-size="11.00" fill="#222222">(odim:AlgorithmicComputation)</text>
</g>
<!-- WeeklySleep&#45;&gt;FDots -->
<g id="edge27" class="edge">
<title>WeeklySleep&#45;&gt;FDots</title>
<path fill="none" stroke="black" stroke-dasharray="1,5" d="M1532.82,-540.84C1515.23,-529.18 1493.5,-514.15 1475,-499.51 1462.73,-489.8 1449.7,-478.02 1439.63,-468.56"/>
</g>
<!-- WeeklySleep&#45;&gt;SQ1 -->
<g id="edge25" class="edge">
<title>WeeklySleep&#45;&gt;SQ1</title>
<path fill="none" stroke="black" d="M1566,-540.28C1566,-522.62 1566,-497.66 1566,-478.71"/>
<polygon fill="black" stroke="black" points="1569.5,-478.61 1566,-468.61 1562.5,-478.61 1569.5,-478.61"/>
<text text-anchor="middle" x="1592" y="-510.51" font-family="Times,serif" font-size="10.00">prov:used</text>
</g>
<!-- WeeklySleep&#45;&gt;SQ2 -->
<g id="edge26" class="edge">
<title>WeeklySleep&#45;&gt;SQ2</title>
<path fill="none" stroke="black" d="M1600.9,-540.81C1632.35,-521.58 1678.44,-493.41 1710.41,-473.87"/>
<polygon fill="black" stroke="black" points="1712.32,-476.81 1719.03,-468.61 1708.67,-470.83 1712.32,-476.81"/>
<text text-anchor="middle" x="1677" y="-510.51" font-family="Times,serif" font-size="10.00">prov:used</text>
</g>
<!-- MeanSleep -->
<g id="node28" class="node">
<title>MeanSleep</title>
<path fill="#e2f0d9" stroke="#666666" d="M1655,-676.76C1655,-676.76 1477,-676.76 1477,-676.76 1471,-676.76 1465,-670.76 1465,-664.76 1465,-664.76 1465,-652.76 1465,-652.76 1465,-646.76 1471,-640.76 1477,-640.76 1477,-640.76 1655,-640.76 1655,-640.76 1661,-640.76 1667,-646.76 1667,-652.76 1667,-652.76 1667,-664.76 1667,-664.76 1667,-670.76 1661,-676.76 1655,-676.76"/>
<text text-anchor="middle" x="1566" y="-661.96" font-family="Helvetica,sans-Serif" font-size="11.00" fill="#222222">odim:F_WeeklyMeanSleepMinutes</text>
<text text-anchor="middle" x="1566" y="-649.96" font-family="Helvetica,sans-Serif" font-size="11.00" fill="#222222">(odim:DerivedFeature)</text>
</g>
<!-- MeanSleep&#45;&gt;WeeklySleep -->
<g id="edge28" class="edge">
<title>MeanSleep&#45;&gt;WeeklySleep</title>
<path fill="none" stroke="black" d="M1566,-640.59C1566,-628.19 1566,-611.07 1566,-596.17"/>
<polygon fill="black" stroke="black" points="1569.5,-595.82 1566,-585.82 1562.5,-595.82 1569.5,-595.82"/>
<text text-anchor="middle" x="1623.5" y="-610.76" font-family="Times,serif" font-size="10.00">odim:wasComputedBy</text>
</g>
<!-- SleepBaseline -->
<g id="node29" class="node">
<title>SleepBaseline</title>
<path fill="#ffe5d9" stroke="#666666" d="M1857.5,-676.76C1857.5,-676.76 1708.5,-676.76 1708.5,-676.76 1702.5,-676.76 1696.5,-670.76 1696.5,-664.76 1696.5,-664.76 1696.5,-652.76 1696.5,-652.76 1696.5,-646.76 1702.5,-640.76 1708.5,-640.76 1708.5,-640.76 1857.5,-640.76 1857.5,-640.76 1863.5,-640.76 1869.5,-646.76 1869.5,-652.76 1869.5,-652.76 1869.5,-664.76 1869.5,-664.76 1869.5,-670.76 1863.5,-676.76 1857.5,-676.76"/>
<text text-anchor="middle" x="1783" y="-661.96" font-family="Helvetica,sans-Serif" font-size="11.00" fill="#222222">odim:Baseline_SleepMinutes</text>
<text text-anchor="middle" x="1783" y="-649.96" font-family="Helvetica,sans-Serif" font-size="11.00" fill="#222222">(prov:Entity)</text>
</g>
<!-- SleepDebtDecision -->
<g id="node30" class="node">
<title>SleepDebtDecision</title>
<ellipse fill="#fff2cc" stroke="#666666" cx="1627" cy="-754.39" rx="133.79" ry="22.76"/>
<text text-anchor="middle" x="1627" y="-757.59" font-family="Helvetica,sans-Serif" font-size="11.00" fill="#222222">odim:A_SleepDebtDecision</text>
<text text-anchor="middle" x="1627" y="-745.59" font-family="Helvetica,sans-Serif" font-size="11.00" fill="#222222">(odim:AlgorithmicComputation)</text>
</g>
<!-- SleepDebtDecision&#45;&gt;MeanSleep -->
<g id="edge29" class="edge">
<title>SleepDebtDecision&#45;&gt;MeanSleep</title>
<path fill="none" stroke="black" d="M1612.85,-731.68C1603.88,-717.9 1592.21,-700 1582.77,-685.51"/>
<polygon fill="black" stroke="black" points="1585.62,-683.46 1577.22,-676.99 1579.75,-687.28 1585.62,-683.46"/>
<text text-anchor="middle" x="1624" y="-701.76" font-family="Times,serif" font-size="10.00">prov:used</text>
</g>
<!-- SleepDebtDecision&#45;&gt;SleepBaseline -->
<g id="edge30" class="edge">
<title>SleepDebtDecision&#45;&gt;SleepBaseline</title>
<path fill="none" stroke="black" d="M1662.01,-732.38C1687,-717.38 1720.55,-697.24 1745.99,-681.98"/>
<polygon fill="black" stroke="black" points="1747.84,-684.95 1754.62,-676.8 1744.24,-678.94 1747.84,-684.95"/>
<text text-anchor="middle" x="1740" y="-701.76" font-family="Times,serif" font-size="10.00">prov:used</text>
</g>
<!-- SleepDebt -->
<g id="node31" class="node">
<title>SleepDebt</title>
<path fill="#e2f0d9" stroke="#666666" d="M1709.5,-868.02C1709.5,-868.02 1544.5,-868.02 1544.5,-868.02 1538.5,-868.02 1532.5,-862.02 1532.5,-856.02 1532.5,-856.02 1532.5,-844.02 1532.5,-844.02 1532.5,-838.02 1538.5,-832.02 1544.5,-832.02 1544.5,-832.02 1709.5,-832.02 1709.5,-832.02 1715.5,-832.02 1721.5,-838.02 1721.5,-844.02 1721.5,-844.02 1721.5,-856.02 1721.5,-856.02 1721.5,-862.02 1715.5,-868.02 1709.5,-868.02"/>
<text text-anchor="middle" x="1627" y="-853.22" font-family="Helvetica,sans-Serif" font-size="11.00" fill="#222222">odim:Marker_SleepDebt_Week1</text>
<text text-anchor="middle" x="1627" y="-841.22" font-family="Helvetica,sans-Serif" font-size="11.00" fill="#222222">(odim:DerivedFeature)</text>
</g>
<!-- SleepDebt&#45;&gt;SleepDebtDecision -->
<g id="edge31" class="edge">
<title>SleepDebt&#45;&gt;SleepDebtDecision</title>
<path fill="none" stroke="black" d="M1627,-831.85C1627,-819.44 1627,-802.32 1627,-787.42"/>
<polygon fill="black" stroke="black" points="1630.5,-787.07 1627,-777.07 1623.5,-787.07 1630.5,-787.07"/>
<text text-anchor="middle" x="1684.5" y="-802.02" font-family="Times,serif" font-size="10.00">odim:wasComputedBy</text>
</g>
<!-- Combine -->
<g id="node32" class="node">
<title>Combine</title>
<ellipse fill="#fff2cc" stroke="#666666" cx="1627" cy="-945.65" rx="133.79" ry="22.76"/>
<text text-anchor="middle" x="1627" y="-948.85" font-family="Helvetica,sans-Serif" font-size="11.00" fill="#222222">odim:A_MarkerDerivation</text>
<text text-anchor="middle" x="1627" y="-936.85" font-family="Helvetica,sans-Serif" font-size="11.00" fill="#222222">(odim:AlgorithmicComputation)</text>
</g>
<!-- Combine&#45;&gt;Marker -->
<g id="edge32" class="edge">
<title>Combine&#45;&gt;Marker</title>
<path fill="none" stroke="black" d="M1573.56,-924.79C1531.38,-909.12 1472.75,-887.34 1430.14,-871.51"/>
<polygon fill="black" stroke="black" points="1431.36,-868.22 1420.76,-868.02 1428.92,-874.79 1431.36,-868.22"/>
<text text-anchor="middle" x="1535" y="-893.02" font-family="Times,serif" font-size="10.00">prov:used</text>
</g>
<!-- Combine&#45;&gt;SleepDebt -->
<g id="edge33" class="edge">
<title>Combine&#45;&gt;SleepDebt</title>
<path fill="none" stroke="black" d="M1627,-922.93C1627,-909.67 1627,-892.6 1627,-878.42"/>
<polygon fill="black" stroke="black" points="1630.5,-878.25 1627,-868.25 1623.5,-878.25 1630.5,-878.25"/>
<text text-anchor="middle" x="1653" y="-893.02" font-family="Times,serif" font-size="10.00">prov:used</text>
</g>
<!-- TravelWin -->
<g id="node36" class="node">
<title>TravelWin</title>
<path fill="#fde2e4" stroke="#666666" d="M1948.5,-868.02C1948.5,-868.02 1807.5,-868.02 1807.5,-868.02 1801.5,-868.02 1795.5,-862.02 1795.5,-856.02 1795.5,-856.02 1795.5,-844.02 1795.5,-844.02 1795.5,-838.02 1801.5,-832.02 1807.5,-832.02 1807.5,-832.02 1948.5,-832.02 1948.5,-832.02 1954.5,-832.02 1960.5,-838.02 1960.5,-844.02 1960.5,-844.02 1960.5,-856.02 1960.5,-856.02 1960.5,-862.02 1954.5,-868.02 1948.5,-868.02"/>
<text text-anchor="middle" x="1878" y="-853.22" font-family="Helvetica,sans-Serif" font-size="11.00" fill="#222222">odim:TravelWindow_Week1</text>
<text text-anchor="middle" x="1878" y="-841.22" font-family="Helvetica,sans-Serif" font-size="11.00" fill="#222222">(odim:EventWindow)</text>
</g>
<!-- Combine&#45;&gt;TravelWin -->
<g id="edge34" class="edge">
<title>Combine&#45;&gt;TravelWin</title>
<path fill="none" stroke="black" d="M1680.23,-924.79C1722.15,-909.15 1780.39,-887.43 1822.81,-871.61"/>
<polygon fill="black" stroke="black" points="1824.27,-874.8 1832.42,-868.02 1821.83,-868.24 1824.27,-874.8"/>
<text text-anchor="middle" x="1793" y="-893.02" font-family="Times,serif" font-size="10.00">prov:used</text>
</g>
<!-- Phenotype -->
<g id="node33" class="node">
<title>Phenotype</title>
<path fill="#ede7f6" stroke="#666666" d="M1899,-1059.27C1899,-1059.27 1587,-1059.27 1587,-1059.27 1581,-1059.27 1575,-1053.27 1575,-1047.27 1575,-1047.27 1575,-1035.27 1575,-1035.27 1575,-1029.27 1581,-1023.27 1587,-1023.27 1587,-1023.27 1899,-1023.27 1899,-1023.27 1905,-1023.27 1911,-1029.27 1911,-1035.27 1911,-1035.27 1911,-1047.27 1911,-1047.27 1911,-1053.27 1905,-1059.27 1899,-1059.27"/>
<text text-anchor="middle" x="1743" y="-1044.47" font-family="Helvetica,sans-Serif" font-size="11.00" fill="#222222">odim:Phenotype_TravelAssociatedInactivityWithSleepDebt</text>
<text text-anchor="middle" x="1743" y="-1032.47" font-family="Helvetica,sans-Serif" font-size="11.00" fill="#222222">(odim:ActivityPhenotype)</text>
</g>
<!-- Phenotype&#45;&gt;Combine -->
<g id="edge35" class="edge">
<title>Phenotype&#45;&gt;Combine</title>
<path fill="none" stroke="black" d="M1716.84,-1023.1C1707.26,-1016.53 1696.45,-1008.81 1687,-1001.27 1676.85,-993.17 1666.23,-983.82 1656.79,-975.17"/>
<polygon fill="black" stroke="black" points="1658.89,-972.35 1649.18,-968.12 1654.13,-977.48 1658.89,-972.35"/>
<text text-anchor="middle" x="1744.5" y="-993.27" font-family="Times,serif" font-size="10.00">odim:wasComputedBy</text>
</g>
<!-- Week -->
<g id="node34" class="node">
<title>Week</title>
<path fill="#f3f4f6" stroke="#666666" d="M1916,-963.65C1916,-963.65 1802,-963.65 1802,-963.65 1796,-963.65 1790,-957.65 1790,-951.65 1790,-951.65 1790,-939.65 1790,-939.65 1790,-933.65 1796,-927.65 1802,-927.65 1802,-927.65 1916,-927.65 1916,-927.65 1922,-927.65 1928,-933.65 1928,-939.65 1928,-939.65 1928,-951.65 1928,-951.65 1928,-957.65 1922,-963.65 1916,-963.65"/>
<text text-anchor="middle" x="1859" y="-948.85" font-family="Helvetica,sans-Serif" font-size="11.00" fill="#222222">odim:Week1</text>
<text text-anchor="middle" x="1859" y="-936.85" font-family="Helvetica,sans-Serif" font-size="11.00" fill="#222222">(odim:WeeklyInterval)</text>
</g>
<!-- Phenotype&#45;&gt;Week -->
<g id="edge36" class="edge">
<title>Phenotype&#45;&gt;Week</title>
<path fill="none" stroke="black" d="M1773.28,-1023.15C1783.69,-1016.77 1795.18,-1009.15 1805,-1001.27 1816.16,-992.32 1827.45,-981.27 1836.81,-971.46"/>
<polygon fill="black" stroke="black" points="1839.58,-973.62 1843.85,-963.92 1834.47,-968.84 1839.58,-973.62"/>
<text text-anchor="middle" x="1866" y="-993.27" font-family="Times,serif" font-size="10.00">odim:occursDuring</text>
</g>
<!-- TravelDetect -->
<g id="node35" class="node">
<title>TravelDetect</title>
<ellipse fill="#fff2cc" stroke="#666666" cx="1923" cy="-754.39" rx="133.79" ry="22.76"/>
<text text-anchor="middle" x="1923" y="-757.59" font-family="Helvetica,sans-Serif" font-size="11.00" fill="#222222">odim:A_TravelDetection</text>
<text text-anchor="middle" x="1923" y="-745.59" font-family="Helvetica,sans-Serif" font-size="11.00" fill="#222222">(odim:AlgorithmicComputation)</text>
</g>
<!-- TravelDetect&#45;&gt;ObsLoc -->
<g id="edge9" class="edge">
<title>TravelDetect&#45;&gt;ObsLoc</title>
<path fill="none" stroke="black" d="M2017.99,-738.38C2060.41,-725.72 2101,-702.45 2101,-659.76 2101,-659.76 2101,-659.76 2101,-353.88 2101,-328.43 2086.29,-303.31 2072.67,-285.51"/>
<polygon fill="black" stroke="black" points="2075.13,-282.99 2066.14,-277.39 2069.67,-287.37 2075.13,-282.99"/>
<text text-anchor="middle" x="2127" y="-510.51" font-family="Times,serif" font-size="10.00">prov:used</text>
</g>
<!-- TravelDetect&#45;&gt;ObsDots -->
<g id="edge10" class="edge">
<title>TravelDetect&#45;&gt;ObsDots</title>
<path fill="none" stroke="black" stroke-dasharray="1,5" d="M2027.58,-740.21C2059.28,-733.7 2093.49,-724.05 2123,-709.76 2139.76,-701.65 2155.93,-688.05 2167.41,-677.08"/>
</g>
<!-- TravelThresh -->
<g id="node37" class="node">
<title>TravelThresh</title>
<path fill="#ffe5d9" stroke="#666666" d="M2045,-676.76C2045,-676.76 1911,-676.76 1911,-676.76 1905,-676.76 1899,-670.76 1899,-664.76 1899,-664.76 1899,-652.76 1899,-652.76 1899,-646.76 1905,-640.76 1911,-640.76 1911,-640.76 2045,-640.76 2045,-640.76 2051,-640.76 2057,-646.76 2057,-652.76 2057,-652.76 2057,-664.76 2057,-664.76 2057,-670.76 2051,-676.76 2045,-676.76"/>
<text text-anchor="middle" x="1978" y="-661.96" font-family="Helvetica,sans-Serif" font-size="11.00" fill="#222222">odim:Threshold_TravelKm</text>
<text text-anchor="middle" x="1978" y="-649.96" font-family="Helvetica,sans-Serif" font-size="11.00" fill="#222222">(prov:Entity)</text>
</g>
<!-- TravelDetect&#45;&gt;TravelThresh -->
<g id="edge11" class="edge">
<title>TravelDetect&#45;&gt;TravelThresh</title>
<path fill="none" stroke="black" d="M1935.76,-731.68C1943.77,-718.03 1954.17,-700.34 1962.64,-685.92"/>
<polygon fill="black" stroke="black" points="1965.83,-687.39 1967.88,-676.99 1959.8,-683.84 1965.83,-687.39"/>
<text text-anchor="middle" x="1979" y="-701.76" font-family="Times,serif" font-size="10.00">prov:used</text>
</g>
<!-- TravelWin&#45;&gt;TravelDetect -->
<g id="edge12" class="edge">
<title>TravelWin&#45;&gt;TravelDetect</title>
<path fill="none" stroke="black" d="M1886.25,-831.85C1892.39,-819.08 1900.93,-801.32 1908.23,-786.13"/>
<polygon fill="black" stroke="black" points="1911.4,-787.6 1912.58,-777.07 1905.09,-784.57 1911.4,-787.6"/>
<text text-anchor="middle" x="1958.5" y="-802.02" font-family="Times,serif" font-size="10.00">odim:wasComputedBy</text>
</g>
</g>
</svg>
