<?xml version="1.0" encoding="UTF-8" standalone="no"?>
<!DOCTYPE svg PUBLIC "-//W3C//DTD SVG 1.1//EN"
 "http://www.w3.org/Graphics/SVG/1.1/DTD/svg11.dtd">
<!-- Generated by graphviz version 2.43.0 (0)
 -->
<!-- Title: DemoFlow Pages: 1 -->
<svg width="1221pt" height="1106pt"
 viewBox="0.00 0.00 1221.00 1106.27" xmlns="http://www.w3.org/2000/svg" xmlns:xlink="http://www.w3.org/1999/xlink">
<g id="graph0" class="graph" transform="scale(1 1) rotate(0) translate(4 1102.27)">
<title>DemoFlow</title>
<polygon fill="white" stroke="transparent" points="-4,4 -4,-1102.27 1217,-1102.27 1217,4 -4,4"/>
<g id="clust1" class="cluster">
<title>cluster_raw</title>
<polygon fill="none" stroke="#999999" stroke-dasharray="5,2" points="443,-8 443,-83 903,-83 903,-8 443,-8"/>
<text text-anchor="middle" x="514.5" y="-67.8" font-family="Times,serif" font-size="14.00">Raw (prov:Entity)</text>
</g>
<g id="clust2" class="cluster">
<title>cluster_import</title>
<polygon fill="none" stroke="#999999" stroke-dasharray="5,2" points="536,-116 536,-200.25 793,-200.25 793,-116 536,-116"/>
<text text-anchor="middle" x="664.5" y="-185.05" font-family="Times,serif" font-size="14.00">Import (odim:DataTransferEvent)</text>
</g>
<g id="clust3" class="cluster">
<title>cluster_obs</title>
</g>
<g id="clust4" class="cluster">
<title>cluster_daily</title>
<polygon fill="none" stroke="#999999" stroke-dasharray="5,2" points="8,-324.25 8,-499.51 805,-499.51 805,-324.25 8,-324.25"/>
<text text-anchor="middle" x="150" y="-484.31" font-family="Times,serif" font-size="14.00">Daily features (odim:DerivedFeature)</text>
</g>
<g id="clust5" class="cluster">
<title>cluster_weekly</title>
<polygon fill="none" stroke="#999999" stroke-dasharray="5,2" points="55,-532.51 55,-1090.27 1039,-1090.27 1039,-532.51 55,-532.51"/>
<text text-anchor="middle" x="222.5" y="-1075.07" font-family="Times,serif" font-size="14.00">Weekly aggregates → decisions → phenotype</text>
</g>
<!-- RawSteps -->
<g id="node1" class="node">
<title>RawSteps</title>
<path fill="#eeeeee" stroke="#666666" d="M562.5,-52C562.5,-52 463.5,-52 463.5,-52 457.5,-52 451.5,-46 451.5,-40 451.5,-40 451.5,-28 451.5,-28 451.5,-22 457.5,-16 463.5,-16 463.5,-16 562.5,-16 562.5,-16 568.5,-16 574.5,-22 574.5,-28 574.5,-28 574.5,-40 574.5,-40 574.5,-46 568.5,-52 562.5,-52"/>
<text text-anchor="middle" x="513" y="-37.2" font-family="Helvetica,sans-Serif" font-size="11.00" fill="#222222">odim:RawStepsCSV</text>
<text text-anchor="middle" x="513" y="-25.2" font-family="Helvetica,sans-Serif" font-size="11.00" fill="#222222">(prov:Entity)</text>
</g>
<!-- RawSleep -->
<g id="node2" class="node">
<title>RawSleep</title>
<path fill="#eeeeee" stroke="#666666" d="M714,-52C714,-52 616,-52 616,-52 610,-52 604,-46 604,-40 604,-40 604,-28 604,-28 604,-22 610,-16 616,-16 616,-16 714,-16 714,-16 720,-16 726,-22 726,-28 726,-28 726,-40 726,-40 726,-46 720,-52 714,-52"/>
<text text-anchor="middle" x="665" y="-37.2" font-family="Helvetica,sans-Serif" font-size="11.00" fill="#222222">odim:RawSleepCSV</text>
<text text-anchor="middle" x="665" y="-25.2" font-family="Helvetica,sans-Serif" font-size="11.00" fill="#222222">(prov:Entity)</text>
</g>
<!-- RawLoc -->
<g id="node3" class="node">
<title>RawLoc</title>
<path fill="#eeeeee" stroke="#666666" d="M882.5,-52C882.5,-52 767.5,-52 767.5,-52 761.5,-52 755.5,-46 755.5,-40 755.5,-40 755.5,-28 755.5,-28 755.5,-22 761.5,-16 767.5,-16 767.5,-16 882.5,-16 882.5,-16 888.5,-16 894.5,-22 894.5,-28 894.5,-28 894.5,-40 894.5,-40 894.5,-46 888.5,-52 882.5,-52"/>
<text text-anchor="middle" x="825" y="-37.2" font-family="Helvetica,sans-Serif" font-size="11.00" fill="#222222">odim:RawLocationCSV</text>
<text text-anchor="middle" x="825" y="-25.2" font-family="Helvetica,sans-Serif" font-size="11.00" fill="#222222">(prov:Entity)</text>
</g>
<!-- Import -->
<g id="node4" class="node">
<title>Import</title>
<ellipse fill="#fff2cc" stroke="#666666" cx="665" cy="-146.63" rx="111.95" ry="22.76"/>
<text text-anchor="middle" x="665" y="-149.83" font-family="Helvetica,sans-Serif" font-size="11.00" fill="#222222">odim:A_Import</text>
<text text-anchor="middle" x="665" y="-137.83" font-family="Helvetica,sans-Serif" font-size="11.00" fill="#222222">(odim:DataTransferEvent)</text>
</g>
<!-- Import&#45;&gt;RawSteps -->
<g id="edge1" class="edge">
<title>Import&#45;&gt;RawSteps</title>
<path fill="none" stroke="black" d="M636.05,-124.56C609.94,-105.55 571.6,-77.65 544.68,-58.05"/>
<polygon fill="black" stroke="black" points="546.51,-55.06 536.36,-52.01 542.39,-60.72 546.51,-55.06"/>
<text text-anchor="middle" x="628" y="-94" font-family="Times,serif" font-size="10.00">prov:used</text>
</g>
<!-- Import&#45;&gt;RawSleep -->
<g id="edge2" class="edge">
<title>Import&#45;&gt;RawSleep</title>
<path fill="none" stroke="black" d="M665,-123.77C665,-106.11 665,-81.15 665,-62.2"/>
<polygon fill="black" stroke="black" points="668.5,-62.1 665,-52.1 661.5,-62.1 668.5,-62.1"/>
<text text-anchor="middle" x="691" y="-94" font-family="Times,serif" font-size="10.00">prov:used</text>
</g>
<!-- Import&#45;&gt;RawLoc -->
<g id="edge3" class="edge">
<title>Import&#45;&gt;RawLoc</title>
<path fill="none" stroke="black" d="M695.09,-124.82C722.66,-105.76 763.38,-77.6 791.87,-57.91"/>
<polygon fill="black" stroke="black" points="794.05,-60.65 800.29,-52.09 790.07,-54.9 794.05,-60.65"/>
<text text-anchor="middle" x="766" y="-94" font-family="Times,serif" font-size="10.00">prov:used</text>
</g>
<!-- ObsSteps -->
<g id="node5" class="node">
<title>ObsSteps</title>
<path fill="#ddeeff" stroke="#666666" d="M527,-277.25C527,-277.25 377,-277.25 377,-277.25 371,-277.25 365,-271.25 365,-265.25 365,-265.25 365,-253.25 365,-253.25 365,-247.25 371,-241.25 377,-241.25 377,-241.25 527,-241.25 527,-241.25 533,-241.25 539,-247.25 539,-253.25 539,-253.25 539,-265.25 539,-265.25 539,-271.25 533,-277.25 527,-277.25"/>
<text text-anchor="middle" x="452" y="-262.45" font-family="Helvetica,sans-Serif" font-size="11.00" fill="#222222">odim:Obs_Steps_D1</text>
<text text-anchor="middle" x="452" y="-250.45" font-family="Helvetica,sans-Serif" font-size="11.00" fill="#222222">(odim:ActivityMeasurement)</text>
</g>
<!-- ObsSteps&#45;&gt;Import -->
<g id="edge4" class="edge">
<title>ObsSteps&#45;&gt;Import</title>
<path fill="none" stroke="black" d="M481.8,-241.22C499.23,-231.37 521.73,-218.87 542,-208.25 565.34,-196.03 591.49,-183.04 613.66,-172.23"/>
<polygon fill="black" stroke="black" points="615.43,-175.26 622.9,-167.75 612.37,-168.97 615.43,-175.26"/>
<text text-anchor="middle" x="600" y="-211.25" font-family="Times,serif" font-size="10.00">odim:wasGeneratedBy</text>
</g>
<!-- ObsSleep -->
<g id="node6" class="node">
<title>ObsSleep</title>
<path fill="#ddeeff" stroke="#666666" d="M750,-277.25C750,-277.25 580,-277.25 580,-277.25 574,-277.25 568,-271.25 568,-265.25 568,-265.25 568,-253.25 568,-253.25 568,-247.25 574,-241.25 580,-241.25 580,-241.25 750,-241.25 750,-241.25 756,-241.25 762,-247.25 762,-253.25 762,-253.25 762,-265.25 762,-265.25 762,-271.25 756,-277.25 750,-277.25"/>
<text text-anchor="middle" x="665" y="-262.45" font-family="Helvetica,sans-Serif" font-size="11.00" fill="#222222">odim:Obs_Sleep_D1</text>
<text text-anchor="middle" x="665" y="-250.45" font-family="Helvetica,sans-Serif" font-size="11.00" fill="#222222">(odim:SleepStageMeasurement)</text>
</g>
<!-- ObsSleep&#45;&gt;Import -->
<g id="edge5" class="edge">
<title>ObsSleep&#45;&gt;Import</title>
<path fill="none" stroke="black" d="M665,-240.97C665,-224.59 665,-199.58 665,-179.58"/>
<polygon fill="black" stroke="black" points="668.5,-179.35 665,-169.35 661.5,-179.35 668.5,-179.35"/>
<text text-anchor="middle" x="723" y="-211.25" font-family="Times,serif" font-size="10.00">odim:wasGeneratedBy</text>
</g>
<!-- ObsLoc -->
<g id="node7" class="node">
<title>ObsLoc</title>
<path fill="#ddeeff" stroke="#666666" d="M1106.5,-277.25C1106.5,-277.25 941.5,-277.25 941.5,-277.25 935.5,-277.25 929.5,-271.25 929.5,-265.25 929.5,-265.25 929.5,-253.25 929.5,-253.25 929.5,-247.25 935.5,-241.25 941.5,-241.25 941.5,-241.25 1106.5,-241.25 1106.5,-241.25 1112.5,-241.25 1118.5,-247.25 1118.5,-253.25 1118.5,-253.25 1118.5,-265.25 1118.5,-265.25 1118.5,-271.25 1112.5,-277.25 1106.5,-277.25"/>
<text text-anchor="middle" x="1024" y="-262.45" font-family="Helvetica,sans-Serif" font-size="11.00" fill="#222222">odim:Obs_Location_D1</text>
<text text-anchor="middle" x="1024" y="-250.45" font-family="Helvetica,sans-Serif" font-size="11.00" fill="#222222">(odim:DeviceLocationEstimate)</text>
</g>
<!-- ObsLoc&#45;&gt;Import -->
<g id="edge6" class="edge">
<title>ObsLoc&#45;&gt;Import</title>
<path fill="none" stroke="black" d="M968.69,-241.21C905.61,-221.77 802.39,-189.97 734.07,-168.91"/>
<polygon fill="black" stroke="black" points="734.84,-165.49 724.26,-165.89 732.78,-172.18 734.84,-165.49"/>
<text text-anchor="middle" x="945" y="-211.25" font-family="Times,serif" font-size="10.00">odim:wasGeneratedBy</text>
</g>
<!-- ObsDots -->
<g id="node8" class="node">
<title>ObsDots</title>
<path fill="white" stroke="transparent" d="M1185,-676.76C1185,-676.76 1131,-676.76 1131,-676.76 1125,-676.76 1119,-670.76 1119,-664.76 1119,-664.76 1119,-652.76 1119,-652.76 1119,-646.76 1125,-640.76 1131,-640.76 1131,-640.76 1185,-640.76 1185,-640.76 1191,-640.76 1197,-646.76 1197,-652.76 1197,-652.76 1197,-664.76 1197,-664.76 1197,-670.76 1191,-676.76 1185,-676.76"/>
<text text-anchor="middle" x="1158" y="-655.96" font-family="Helvetica,sans-Serif" font-size="11.00" fill="#222222">… (D2..D7)</text>
</g>
<!-- DailyComp -->
<g id="node9" class="node">
<title>DailyComp</title>
<ellipse fill="#fff2cc" stroke="#666666" cx="452" cy="-354.88" rx="133.79" ry="22.76"/>
<text text-anchor="middle" x="452" y="-358.08" font-family="Helvetica,sans-Serif" font-size="11.00" fill="#222222">odim:A_DailySummary</text>
<text text-anchor="middle" x="452" y="-346.08" font-family="Helvetica,sans-Serif" font-size="11.00" fill="#222222">(odim:AlgorithmicComputation)</text>
</g>
<!-- DailyComp&#45;&gt;ObsSteps -->
<g id="edge7" class="edge">
<title>DailyComp&#45;&gt;ObsSteps</title>
<path fill="none" stroke="black" d="M452,-332.17C452,-318.91 452,-301.84 452,-287.65"/>
<polygon fill="black" stroke="black" points="455.5,-287.48 452,-277.48 448.5,-287.48 455.5,-287.48"/>
<text text-anchor="middle" x="478" y="-302.25" font-family="Times,serif" font-size="10.00">prov:used</text>
</g>
<!-- DailyComp&#45;&gt;ObsSleep -->
<g id="edge8" class="edge">
<title>DailyComp&#45;&gt;ObsSleep</title>
<path fill="none" stroke="black" d="M498.22,-333.57C533.26,-318.16 581.29,-297.05 616.81,-281.44"/>
<polygon fill="black" stroke="black" points="618.26,-284.62 626.01,-277.39 615.45,-278.21 618.26,-284.62"/>
<text text-anchor="middle" x="597" y="-302.25" font-family="Times,serif" font-size="10.00">prov:used</text>
</g>
<!-- F1 -->
<g id="node10" class="node">
<title>F1</title>
<path fill="#e2f0d9" stroke="#666666" d="M145.5,-468.51C145.5,-468.51 28.5,-468.51 28.5,-468.51 22.5,-468.51 16.5,-462.51 16.5,-456.51 16.5,-456.51 16.5,-444.51 16.5,-444.51 16.5,-438.51 22.5,-432.51 28.5,-432.51 28.5,-432.51 145.5,-432.51 145.5,-432.51 151.5,-432.51 157.5,-438.51 157.5,-444.51 157.5,-444.51 157.5,-456.51 157.5,-456.51 157.5,-462.51 151.5,-468.51 145.5,-468.51"/>
<text text-anchor="middle" x="87" y="-453.71" font-family="Helvetica,sans-Serif" font-size="11.00" fill="#222222">odim:F_DailySteps_D1</text>
<text text-anchor="middle" x="87" y="-441.71" font-family="Helvetica,sans-Serif" font-size="11.00" fill="#222222">(odim:DerivedFeature)</text>
</g>
<!-- F1&#45;&gt;DailyComp -->
<g id="edge13" class="edge">
<title>F1&#45;&gt;DailyComp</title>
<path fill="none" stroke="black" d="M108.2,-432.42C123.19,-421.26 144.23,-407.34 165,-399.51 213.09,-381.38 268.41,-370.78 317.56,-364.57"/>
<polygon fill="black" stroke="black" points="318.13,-368.03 327.63,-363.35 317.28,-361.08 318.13,-368.03"/>
<text text-anchor="middle" x="222.5" y="-402.51" font-family="Times,serif" font-size="10.00">odim:wasComputedBy</text>
</g>
<!-- F2 -->
<g id="node11" class="node">
<title>F2</title>
<path fill="#e2f0d9" stroke="#666666" d="M315.5,-468.51C315.5,-468.51 198.5,-468.51 198.5,-468.51 192.5,-468.51 186.5,-462.51 186.5,-456.51 186.5,-456.51 186.5,-444.51 186.5,-444.51 186.5,-438.51 192.5,-432.51 198.5,-432.51 198.5,-432.51 315.5,-432.51 315.5,-432.51 321.5,-432.51 327.5,-438.51 327.5,-444.51 327.5,-444.51 327.5,-456.51 327.5,-456.51 327.5,-462.51 321.5,-468.51 315.5,-468.51"/>
<text text-anchor="middle" x="257" y="-453.71" font-family="Helvetica,sans-Serif" font-size="11.00" fill="#222222">odim:F_DailySteps_D2</text>
<text text-anchor="middle" x="257" y="-441.71" font-family="Helvetica,sans-Serif" font-size="11.00" fill="#222222">(odim:DerivedFeature)</text>
</g>
<!-- F2&#45;&gt;DailyComp -->
<g id="edge14" class="edge">
<title>F2&#45;&gt;DailyComp</title>
<path fill="none" stroke="black" d="M267.5,-432.38C275.02,-421.48 286.06,-407.89 299,-399.51 315.36,-388.91 334.33,-380.84 353.22,-374.71"/>
<polygon fill="black" stroke="black" points="354.25,-378.05 362.78,-371.76 352.19,-371.36 354.25,-378.05"/>
<text text-anchor="middle" x="356.5" y="-402.51" font-family="Times,serif" font-size="10.00">odim:wasComputedBy</text>
</g>
<!-- FDots -->
<g id="node12" class="node">
<title>FDots</title>
<path fill="white" stroke="transparent" d="M423,-468.51C423,-468.51 369,-468.51 369,-468.51 363,-468.51 357,-462.51 357,-456.51 357,-456.51 357,-444.51 357,-444.51 357,-438.51 363,-432.51 369,-432.51 369,-432.51 423,-432.51 423,-432.51 429,-432.51 435,-438.51 435,-444.51 435,-444.51 435,-456.51 435,-456.51 435,-462.51 429,-468.51 423,-468.51"/>
<text text-anchor="middle" x="396" y="-447.71" font-family="Helvetica,sans-Serif" font-size="11.00" fill="#666666">… (D3..D7)</text>
</g>
<!-- FDots&#45;&gt;DailyComp -->
<g id="edge17" class="edge">
<title>FDots&#45;&gt;DailyComp</title>
<path fill="none" stroke="black" stroke-dasharray="1,5" d="M406.27,-432.34C415.49,-416.92 429.07,-394.22 439.03,-377.56"/>
</g>
<!-- SQ1 -->
<g id="node13" class="node">
<title>SQ1</title>
<path fill="#e2f0d9" stroke="#666666" d="M604,-468.51C604,-468.51 476,-468.51 476,-468.51 470,-468.51 464,-462.51 464,-456.51 464,-456.51 464,-444.51 464,-444.51 464,-438.51 470,-432.51 476,-432.51 476,-432.51 604,-432.51 604,-432.51 610,-432.51 616,-438.51 616,-444.51 616,-444.51 616,-456.51 616,-456.51 616,-462.51 610,-468.51 604,-468.51"/>
<text text-anchor="middle" x="540" y="-453.71" font-family="Helvetica,sans-Serif" font-size="11.00" fill="#222222">odim:F_SleepMinutes_D1</text>
<text text-anchor="middle" x="540" y="-441.71" font-family="Helvetica,sans-Serif" font-size="11.00" fill="#222222">(odim:DerivedFeature)</text>
</g>
<!-- SQ1&#45;&gt;DailyComp -->
<g id="edge15" class="edge">
<title>SQ1&#45;&gt;DailyComp</title>
<path fill="none" stroke="black" d="M523.86,-432.34C511.41,-419.09 493.9,-400.46 479.28,-384.91"/>
<polygon fill="black" stroke="black" points="481.77,-382.45 472.38,-377.56 476.67,-387.24 481.77,-382.45"/>
<text text-anchor="middle" x="559.5" y="-402.51" font-family="Times,serif" font-size="10.00">odim:wasComputedBy</text>
</g>
<!-- SQ2 -->
<g id="node14" class="node">
<title>SQ2</title>
<path fill="#e2f0d9" stroke="#666666" d="M785,-468.51C785,-468.51 657,-468.51 657,-468.51 651,-468.51 645,-462.51 645,-456.51 645,-456.51 645,-444.51 645,-444.51 645,-438.51 651,-432.51 657,-432.51 657,-432.51 785,-432.51 785,-432.51 791,-432.51 797,-438.51 797,-444.51 797,-444.51 797,-456.51 797,-456.51 797,-462.51 791,-468.51 785,-468.51"/>
<text text-anchor="middle" x="721" y="-453.71" font-family="Helvetica,sans-Serif" font-size="11.00" fill="#222222">odim:F_SleepMinutes_D2</text>
<text text-anchor="middle" x="721" y="-441.71" font-family="Helvetica,sans-Serif" font-size="11.00" fill="#222222">(odim:DerivedFeature)</text>
</g>
<!-- SQ2&#45;&gt;DailyComp -->
<g id="edge16" class="edge">
<title>SQ2&#45;&gt;DailyComp</title>
<path fill="none" stroke="black" d="M692.08,-432.39C673.2,-421.78 647.74,-408.5 624,-399.51 598.71,-389.93 570.54,-381.79 544.44,-375.23"/>
<polygon fill="black" stroke="black" points="545.09,-371.78 534.55,-372.79 543.42,-378.58 545.09,-371.78"/>
<text text-anchor="middle" x="705.5" y="-402.51" font-family="Times,serif" font-size="10.00">odim:wasComputedBy</text>
</g>
<!-- WeeklySteps -->
<g id="node15" class="node">
<title>WeeklySteps</title>
<ellipse fill="#fff2cc" stroke="#666666" cx="206" cy="-563.14" rx="133.79" ry="22.76"/>
<text text-anchor="middle" x="206" y="-566.34" font-family="Helvetica,sans-Serif" font-size="11.00" fill="#222222">odim:A_WeeklyAggregateSteps</text>
<text text-anchor="middle" x="206" y="-554.34" font-family="Helvetica,sans-Serif" font-size="11.00" fill="#222222">(odim:AlgorithmicComputation)</text>
</g>
<!-- WeeklySteps&#45;&gt;F1 -->
<g id="edge18" class="edge">
<title>WeeklySteps&#45;&gt;F1</title>
<path fill="none" stroke="black" d="M183.06,-540.81C163.05,-522.21 134.05,-495.25 113.15,-475.82"/>
<polygon fill="black" stroke="black" points="115.28,-473.03 105.58,-468.78 110.52,-478.15 115.28,-473.03"/>
<text text-anchor="middle" x="184" y="-510.51" font-family="Times,serif" font-size="10.00">prov:used</text>
</g>
<!-- WeeklySteps&#45;&gt;F2 -->
<g id="edge19" class="edge">
<title>WeeklySteps&#45;&gt;F2</title>
<path fill="none" stroke="black" d="M215.95,-540.54C224.24,-522.58 236.06,-496.94 244.89,-477.78"/>
<polygon fill="black" stroke="black" points="248.07,-479.24 249.08,-468.7 241.71,-476.31 248.07,-479.24"/>
<text text-anchor="middle" x="256" y="-510.51" font-family="Times,serif" font-size="10.00">prov:used</text>
</g>
<!-- WeeklySteps&#45;&gt;FDots -->
<g id="edge20" class="edge">
<title>WeeklySteps&#45;&gt;FDots</title>
<path fill="none" stroke="black" stroke-dasharray="1,5" d="M258.59,-542.21C284.64,-531.28 316,-516.51 342,-499.51 355.44,-490.72 368.94,-478.72 379.08,-468.92"/>
</g>
<!-- MeanSteps -->
<g id="node16" class="node">
<title>MeanSteps</title>
<path fill="#e2f0d9" stroke="#666666" d="M209.5,-676.76C209.5,-676.76 74.5,-676.76 74.5,-676.76 68.5,-676.76 62.5,-670.76 62.5,-664.76 62.5,-664.76 62.5,-652.76 62.5,-652.76 62.5,-646.76 68.5,-640.76 74.5,-640.76 74.5,-640.76 209.5,-640.76 209.5,-640.76 215.5,-640.76 221.5,-646.76 221.5,-652.76 221.5,-652.76 221.5,-664.76 221.5,-664.76 221.5,-670.76 215.5,-676.76 209.5,-676.76"/>
<text text-anchor="middle" x="142" y="-661.96" font-family="Helvetica,sans-Serif" font-size="11.00" fill="#222222">odim:F_WeeklyMeanSteps</text>
<text text-anchor="middle" x="142" y="-649.96" font-family="Helvetica,sans-Serif" font-size="11.00" fill="#222222">(odim:DerivedFeature)</text>
</g>
<!-- MeanSteps&#45;&gt;WeeklySteps -->
<g id="edge21" class="edge">
<title>MeanSteps&#45;&gt;WeeklySteps</title>
<path fill="none" stroke="black" d="M153.74,-640.59C162.55,-627.71 174.84,-609.73 185.28,-594.44"/>
<polygon fill="black" stroke="black" points="188.43,-596.05 191.18,-585.82 182.65,-592.1 188.43,-596.05"/>
<text text-anchor="middle" x="233.5" y="-610.76" font-family="Times,serif" font-size="10.00">odim:wasComputedBy</text>
</g>
<!-- Thresh -->
<g id="node17" class="node">
<title>Thresh</title>
<path fill="#ffe5d9" stroke="#666666" d="M397.5,-676.76C397.5,-676.76 262.5,-676.76 262.5,-676.76 256.5,-676.76 250.5,-670.76 250.5,-664.76 250.5,-664.76 250.5,-652.76 250.5,-652.76 250.5,-646.76 256.5,-640.76 262.5,-640.76 262.5,-640.76 397.5,-640.76 397.5,-640.76 403.5,-640.76 409.5,-646.76 409.5,-652.76 409.5,-652.76 409.5,-664.76 409.5,-664.76 409.5,-670.76 403.5,-676.76 397.5,-676.76"/>
<text text-anchor="middle" x="330" y="-661.96" font-family="Helvetica,sans-Serif" font-size="11.00" fill="#222222">odim:Threshold_LowSteps</text>
<text text-anchor="middle" x="330" y="-649.96" font-family="Helvetica,sans-Serif" font-size="11.00" fill="#222222">(prov:Entity)</text>
</g>
<!-- StepsDecision -->
<g id="node18" class="node">
<title>StepsDecision</title>
<ellipse fill="#fff2cc" stroke="#666666" cx="303" cy="-754.39" rx="135.11" ry="22.76"/>
<text text-anchor="middle" x="303" y="-757.59" font-family="Helvetica,sans-Serif" font-size="11.00" fill="#222222">odim:A_StepsThresholdDecision</text>
<text text-anchor="middle" x="303" y="-745.59" font-family="Helvetica,sans-Serif" font-size="11.00" fill="#222222">(odim:AlgorithmicComputation)</text>
</g>
<!-- StepsDecision&#45;&gt;MeanSteps -->
<g id="edge22" class="edge">
<title>StepsDecision&#45;&gt;MeanSteps</title>
<path fill="none" stroke="black" d="M266.87,-732.38C241.08,-717.38 206.45,-697.24 180.2,-681.98"/>
<polygon fill="black" stroke="black" points="181.7,-678.8 171.29,-676.8 178.18,-684.85 181.7,-678.8"/>
<text text-anchor="middle" x="254" y="-701.76" font-family="Times,serif" font-size="10.00">prov:used</text>
</g>
<!-- StepsDecision&#45;&gt;Thresh -->
<g id="edge23" class="edge">
<title>StepsDecision&#45;&gt;Thresh</title>
<path fill="none" stroke="black" d="M309.26,-731.68C313.12,-718.29 318.11,-701.01 322.22,-686.75"/>
<polygon fill="black" stroke="black" points="325.62,-687.57 325.03,-676.99 318.9,-685.63 325.62,-687.57"/>
<text text-anchor="middle" x="345" y="-701.76" font-family="Times,serif" font-size="10.00">prov:used</text>
</g>
<!-- Marker -->
<g id="node19" class="node">
<title>Marker</title>
<path fill="#e2f0d9" stroke="#666666" d="M449,-868.02C449,-868.02 249,-868.02 249,-868.02 243,-868.02 237,-862.02 237,-856.02 237,-856.02 237,-844.02 237,-844.02 237,-838.02 243,-832.02 249,-832.02 249,-832.02 449,-832.02 449,-832.02 455,-832.02 461,-838.02 461,-844.02 461,-844.02 461,-856.02 461,-856.02 461,-862.02 455,-868.02 449,-868.02"/>
<text text-anchor="middle" x="349" y="-853.22" font-family="Helvetica,sans-Serif" font-size="11.00" fill="#222222">odim:Marker_LowActivityDuringTravel</text>
<text text-anchor="middle" x="349" y="-841.22" font-family="Helvetica,sans-Serif" font-size="11.00" fill="#222222">(odim:DerivedFeature)</text>
</g>
<!-- Marker&#45;&gt;StepsDecision -->
<g id="edge24" class="edge">
<title>Marker&#45;&gt;StepsDecision</title>
<path fill="none" stroke="black" d="M340.56,-831.85C334.29,-819.08 325.56,-801.32 318.1,-786.13"/>
<polygon fill="black" stroke="black" points="321.2,-784.5 313.65,-777.07 314.92,-787.59 321.2,-784.5"/>
<text text-anchor="middle" x="386.5" y="-802.02" font-family="Times,serif" font-size="10.00">odim:wasComputedBy</text>
</g>
<!-- WeeklySleep -->
<g id="node20" class="node">
<title>WeeklySleep</title>
<ellipse fill="#fff2cc" stroke="#666666" cx="540" cy="-563.14" rx="162.77" ry="22.76"/>
<text text-anchor="middle" x="540" y="-566.34" font-family="Helvetica,sans-Serif" font-size="11.00" fill="#222222">odim:A_WeeklyAggregateSleepMinutes</text>
<text text-anchor="middle" x="540" y="-554.34" font-family="Helvetica,sans-Serif" font-size="11.00" fill="#222222">(odim:AlgorithmicComputation)</text>
</g>
<!-- WeeklySleep&#45;&gt;FDots -->
<g id="edge27" class="edge">
<title>WeeklySleep&#45;&gt;FDots</title>
<path fill="none" stroke="black" stroke-dasharray="1,5" d="M506.82,-540.84C489.23,-529.18 467.5,-514.15 449,-499.51 436.73,-489.8 423.7,-478.02 413.63,-468.56"/>
</g>
<!-- WeeklySleep&#45;&gt;SQ1 -->
<g id="edge25" class="edge">
<title>WeeklySleep&#45;&gt;SQ1</title>
<path fill="none" stroke="black" d="M540,-540.28C540,-522.62 540,-497.66 540,-478.71"/>
<polygon fill="black" stroke="black" points="543.5,-478.61 540,-468.61 536.5,-478.61 543.5,-478.61"/>
<text text-anchor="middle" x="566" y="-510.51" font-family="Times,serif" font-size="10.00">prov:used</text>
</g>
<!-- WeeklySleep&#45;&gt;SQ2 -->
<g id="edge26" class="edge">
<title>WeeklySleep&#45;&gt;SQ2</title>
<path fill="none" stroke="black" d="M574.9,-540.81C606.35,-521.58 652.44,-493.41 684.41,-473.87"/>
<polygon fill="black" stroke="black" points="686.32,-476.81 693.03,-468.61 682.67,-470.83 686.32,-476.81"/>
<text text-anchor="middle" x="651" y="-510.51" font-family="Times,serif" font-size="10.00">prov:used</text>
</g>
<!-- MeanSleep -->
<g id="node21" class="node">
<title>MeanSleep</title>
<path fill="#e2f0d9" stroke="#666666" d="M629,-676.76C629,-676.76 451,-676.76 451,-676.76 445,-676.76 439,-670.76 439,-664.76 439,-664.76 439,-652.76 439,-652.76 439,-646.76 445,-640.76 451,-640.76 451,-640.76 629,-640.76 629,-640.76 635,-640.76 641,-646.76 641,-652.76 641,-652.76 641,-664.76 641,-664.76 641,-670.76 635,-676.76 629,-676.76"/>
<text text-anchor="middle" x="540" y="-661.96" font-family="Helvetica,sans-Serif" font-size="11.00" fill="#222222">odim:F_WeeklyMeanSleepMinutes</text>
<text text-anchor="middle" x="540" y="-649.96" font-family="Helvetica,sans-Serif" font-size="11.00" fill="#222222">(odim:DerivedFeature)</text>
</g>
<!-- MeanSleep&#45;&gt;WeeklySleep -->
<g id="edge28" class="edge">
<title>MeanSleep&#45;&gt;WeeklySleep</title>
<path fill="none" stroke="black" d="M540,-640.59C540,-628.19 540,-611.07 540,-596.17"/>
<polygon fill="black" stroke="black" points="543.5,-595.82 540,-585.82 536.5,-595.82 543.5,-595.82"/>
<text text-anchor="middle" x="597.5" y="-610.76" font-family="Times,serif" font-size="10.00">odim:wasComputedBy</text>
</g>
<!-- SleepBaseline -->
<g id="node22" class="node">
<title>SleepBaseline</title>
<path fill="#ffe5d9" stroke="#666666" d="M831.5,-676.76C831.5,-676.76 682.5,-676.76 682.5,-676.76 676.5,-676.76 670.5,-670.76 670.5,-664.76 670.5,-664.76 670.5,-652.76 670.5,-652.76 670.5,-646.76 676.5,-640.76 682.5,-640.76 682.5,-640.76 831.5,-640.76 831.5,-640.76 837.5,-640.76 843.5,-646.76 843.5,-652.76 843.5,-652.76 843.5,-664.76 843.5,-664.76 843.5,-670.76 837.5,-676.76 831.5,-676.76"/>
<text text-anchor="middle" x="757" y="-661.96" font-family="Helvetica,sans-Serif" font-size="11.00" fill="#222222">odim:Baseline_SleepMinutes</text>
<text text-anchor="middle" x="757" y="-649.96" font-family="Helvetica,sans-Serif" font-size="11.00" fill="#222222">(prov:Entity)</text>
</g>
<!-- SleepDebtDecision -->
<g id="node23" class="node">
<title>SleepDebtDecision</title>
<ellipse fill="#fff2cc" stroke="#666666" cx="601" cy="-754.39" rx="133.79" ry="22.76"/>
<text text-anchor="middle" x="601" y="-757.59" font-family="Helvetica,sans-Serif" font-size="11.00" fill="#222222">odim:A_SleepDebtDecision</text>
<text text-anchor="middle" x="601" y="-745.59" font-family="Helvetica,sans-Serif" font-size="11.00" fill="#222222">(odim:AlgorithmicComputation)</text>
</g>
<!-- SleepDebtDecision&#45;&gt;MeanSleep -->
<g id="edge29" class="edge">
<title>SleepDebtDecision&#45;&gt;MeanSleep</title>
<path fill="none" stroke="black" d="M586.85,-731.68C577.88,-717.9 566.21,-700 556.77,-685.51"/>
<polygon fill="black" stroke="black" points="559.62,-683.46 551.22,-676.99 553.75,-687.28 559.62,-683.46"/>
<text text-anchor="middle" x="598" y="-701.76" font-family="Times,serif" font-size="10.00">prov:used</text>
</g>
<!-- SleepDebtDecision&#45;&gt;SleepBaseline -->
<g id="edge30" class="edge">
<title>SleepDebtDecision&#45;&gt;SleepBaseline</title>
<path fill="none" stroke="black" d="M636.01,-732.38C661,-717.38 694.55,-697.24 719.99,-681.98"/>
<polygon fill="black" stroke="black" points="721.84,-684.95 728.62,-676.8 718.24,-678.94 721.84,-684.95"/>
<text text-anchor="middle" x="714" y="-701.76" font-family="Times,serif" font-size="10.00">prov:used</text>
</g>
<!-- SleepDebt -->
<g id="node24" class="node">
<title>SleepDebt</title>
<path fill="#e2f0d9" stroke="#666666" d="M683.5,-868.02C683.5,-868.02 518.5,-868.02 518.5,-868.02 512.5,-868.02 506.5,-862.02 506.5,-856.02 506.5,-856.02 506.5,-844.02 506.5,-844.02 506.5,-838.02 512.5,-832.02 518.5,-832.02 518.5,-832.02 683.5,-832.02 683.5,-832.02 689.5,-832.02 695.5,-838.02 695.5,-844.02 695.5,-844.02 695.5,-856.02 695.5,-856.02 695.5,-862.02 689.5,-868.02 683.5,-868.02"/>
<text text-anchor="middle" x="601" y="-853.22" font-family="Helvetica,sans-Serif" font-size="11.00" fill="#222222">odim:Marker_SleepDebt_Week1</text>
<text text-anchor="middle" x="601" y="-841.22" font-family="Helvetica,sans-Serif" font-size="11.00" fill="#222222">(odim:DerivedFeature)</text>
</g>
<!-- SleepDebt&#45;&gt;SleepDebtDecision -->
<g id="edge31" class="edge">
<title>SleepDebt&#45;&gt;SleepDebtDecision</title>
<path fill="none" stroke="black" d="M601,-831.85C601,-819.44 601,-802.32 601,-787.42"/>
<polygon fill="black" stroke="black" points="604.5,-787.07 601,-777.07 597.5,-787.07 604.5,-787.07"/>
<text text-anchor="middle" x="658.5" y="-802.02" font-family="Times,serif" font-size="10.00">odim:wasComputedBy</text>
</g>
<!-- Combine -->
<g id="node25" class="node">
<title>Combine</title>
<ellipse fill="#fff2cc" stroke="#666666" cx="601" cy="-945.65" rx="133.79" ry="22.76"/>
<text text-anchor="middle" x="601" y="-948.85" font-family="Helvetica,sans-Serif" font-size="11.00" fill="#222222">odim:A_MarkerDerivation</text>
<text text-anchor="middle" x="601" y="-936.85" font-family="Helvetica,sans-Serif" font-size="11.00" fill="#222222">(odim:AlgorithmicComputation)</text>
</g>
<!-- Combine&#45;&gt;Marker -->
<g id="edge32" class="edge">
<title>Combine&#45;&gt;Marker</title>
<path fill="none" stroke="black" d="M547.56,-924.79C505.38,-909.12 446.75,-887.34 404.14,-871.51"/>
<polygon fill="black" stroke="black" points="405.36,-868.22 394.76,-868.02 402.92,-874.79 405.36,-868.22"/>
<text text-anchor="middle" x="509" y="-893.02" font-family="Times,serif" font-size="10.00">prov:used</text>
</g>
<!-- Combine&#45;&gt;SleepDebt -->
<g id="edge33" class="edge">
<title>Combine&#45;&gt;SleepDebt</title>
<path fill="none" stroke="black" d="M601,-922.93C601,-909.67 601,-892.6 601,-878.42"/>
<polygon fill="black" stroke="black" points="604.5,-878.25 601,-868.25 597.5,-878.25 604.5,-878.25"/>
<text text-anchor="middle" x="627" y="-893.02" font-family="Times,serif" font-size="10.00">prov:used</text>
</g>
<!-- TravelWin -->
<g id="node29" class="node">
<title>TravelWin</title>
<path fill="#fde2e4" stroke="#666666" d="M922.5,-868.02C922.5,-868.02 781.5,-868.02 781.5,-868.02 775.5,-868.02 769.5,-862.02 769.5,-856.02 769.5,-856.02 769.5,-844.02 769.5,-844.02 769.5,-838.02 775.5,-832.02 781.5,-832.02 781.5,-832.02 922.5,-832.02 922.5,-832.02 928.5,-832.02 934.5,-838.02 934.5,-844.02 934.5,-844.02 934.5,-856.02 934.5,-856.02 934.5,-862.02 928.5,-868.02 922.5,-868.02"/>
<text text-anchor="middle" x="852" y="-853.22" font-family="Helvetica,sans-Serif" font-size="11.00" fill="#222222">odim:TravelWindow_Week1</text>
<text text-anchor="middle" x="852" y="-841.22" font-family="Helvetica,sans-Serif" font-size="11.00" fill="#222222">(odim:EventWindow)</text>
</g>
<!-- Combine&#45;&gt;TravelWin -->
<g id="edge34" class="edge">
<title>Combine&#45;&gt;TravelWin</title>
<path fill="none" stroke="black" d="M654.23,-924.79C696.15,-909.15 754.39,-887.43 796.81,-871.61"/>
<polygon fill="black" stroke="black" points="798.27,-874.8 806.42,-868.02 795.83,-868.24 798.27,-874.8"/>
<text text-anchor="middle" x="767" y="-893.02" font-family="Times,serif" font-size="10.00">prov:used</text>
</g>
<!-- Phenotype -->
<g id="node26" class="node">
<title>Phenotype</title>
<path fill="#ede7f6" stroke="#666666" d="M873,-1059.27C873,-1059.27 561,-1059.27 561,-1059.27 555,-1059.27 549,-1053.27 549,-1047.27 549,-1047.27 549,-1035.27 549,-1035.27 549,-1029.27 555,-1023.27 561,-1023.27 561,-1023.27 873,-1023.27 873,-1023.27 879,-1023.27 885,-1029.27 885,-1035.27 885,-1035.27 885,-1047.27 885,-1047.27 885,-1053.27 879,-1059.27 873,-1059.27"/>
<text text-anchor="middle" x="717" y="-1044.47" font-family="Helvetica,sans-Serif" font-size="11.00" fill="#222222">odim:Phenotype_TravelAssociatedInactivityWithSleepDebt</text>
<text text-anchor="middle" x="717" y="-1032.47" font-family="Helvetica,sans-Serif" font-size="11.00" fill="#222222">(odim:ActivityPhenotype)</text>
</g>
<!-- Phenotype&#45;&gt;Combine -->
<g id="edge35" class="edge">
<title>Phenotype&#45;&gt;Combine</title>
<path fill="none" stroke="black" d="M690.84,-1023.1C681.26,-1016.53 670.45,-1008.81 661,-1001.27 650.85,-993.17 640.23,-983.82 630.79,-975.17"/>
<polygon fill="black" stroke="black" points="632.89,-972.35 623.18,-968.12 628.13,-977.48 632.89,-972.35"/>
<text text-anchor="middle" x="718.5" y="-993.27" font-family="Times,serif" font-size="10.00">odim:wasComputedBy</text>
</g>
<!-- Week -->
<g id="node27" class="node">
<title>Week</title>
<path fill="#f3f4f6" stroke="#666666" d="M890,-963.65C890,-963.65 776,-963.65 776,-963.65 770,-963.65 764,-957.65 764,-951.65 764,-951.65 764,-939.65 764,-939.65 764,-933.65 770,-927.65 776,-927.65 776,-927.65 890,-927.65 890,-927.65 896,-927.65 902,-933.65 902,-939.65 902,-939.65 902,-951.65 902,-951.65 902,-957.65 896,-963.65 890,-963.65"/>
<text text-anchor="middle" x="833" y="-948.85" font-family="Helvetica,sans-Serif" font-size="11.00" fill="#222222">odim:Week1</text>
<text text-anchor="middle" x="833" y="-936.85" font-family="Helvetica,sans-Serif" font-size="11.00" fill="#222222">(odim:WeeklyInterval)</text>
</g>
<!-- Phenotype&#45;&gt;Week -->
<g id="edge36" class="edge">
<title>Phenotype&#45;&gt;Week</title>
<path fill="none" stroke="black" d="M747.28,-1023.15C757.69,-1016.77 769.18,-1009.15 779,-1001.27 790.16,-992.32 801.45,-981.27 810.81,-971.46"/>
<polygon fill="black" stroke="black" points="813.58,-973.62 817.85,-963.92 808.47,-968.84 813.58,-973.62"/>
<text text-anchor="middle" x="840" y="-993.27" font-family="Times,serif" font-size="10.00">odim:occursDuring</text>
</g>
<!-- TravelDetect -->
<g id="node28" class="node">
<title>TravelDetect</title>
<ellipse fill="#fff2cc" stroke="#666666" cx="897" cy="-754.39" rx="133.79" ry="22.76"/>
<text text-anchor="middle" x="897" y="-757.59" font-family="Helvetica,sans-Serif" font-size="11.00" fill="#222222">odim:A_TravelDetection</text>
<text text-anchor="middle" x="897" y="-745.59" font-family="Helvetica,sans-Serif" font-size="11.00" fill="#222222">(odim:AlgorithmicComputation)</text>
</g>
<!-- TravelDetect&#45;&gt;ObsLoc -->
<g id="edge9" class="edge">
<title>TravelDetect&#45;&gt;ObsLoc</title>
<path fill="none" stroke="black" d="M991.99,-738.38C1034.41,-725.72 1075,-702.45 1075,-659.76 1075,-659.76 1075,-659.76 1075,-353.88 1075,-328.43 1060.29,-303.31 1046.67,-285.51"/>
<polygon fill="black" stroke="black" points="1049.13,-282.99 1040.14,-277.39 1043.67,-287.37 1049.13,-282.99"/>
<text text-anchor="middle" x="1101" y="-510.51" font-family="Times,serif" font-size="10.00">prov:used</text>
</g>
<!-- TravelDetect&#45;&gt;ObsDots -->
<g id="edge10" class="edge">
<title>TravelDetect&#45;&gt;ObsDots</title>
<path fill="none" stroke="black" stroke-dasharray="1,5" d="M1001.58,-740.21C1033.28,-733.7 1067.49,-724.05 1097,-709.76 1113.76,-701.65 1129.93,-688.05 1141.41,-677.08"/>
</g>
<!-- TravelThresh -->
<g id="node30" class="node">
<title>TravelThresh</title>
<path fill="#ffe5d9" stroke="#666666" d="M1019,-676.76C1019,-676.76 885,-676.76 885,-676.76 879,-676.76 873,-670.76 873,-664.76 873,-664.76 873,-652.76 873,-652.76 873,-646.76 879,-640.76 885,-640.76 885,-640.76 1019,-640.76 1019,-640.76 1025,-640.76 1031,-646.76 1031,-652.76 1031,-652.76 1031,-664.76 1031,-664.76 1031,-670.76 1025,-676.76 1019,-676.76"/>
<text text-anchor="middle" x="952" y="-661.96" font-family="Helvetica,sans-Serif" font-size="11.00" fill="#222222">odim:Threshold_TravelKm</text>
<text text-anchor="middle" x="952" y="-649.96" font-family="Helvetica,sans-Serif" font-size="11.00" fill="#222222">(prov:Entity)</text>
</g>
<!-- TravelDetect&#45;&gt;TravelThresh -->
<g id="edge11" class="edge">
<title>TravelDetect&#45;&gt;TravelThresh</title>
<path fill="none" stroke="black" d="M909.76,-731.68C917.77,-718.03 928.17,-700.34 936.64,-685.92"/>
<polygon fill="black" stroke="black" points="939.83,-687.39 941.88,-676.99 933.8,-683.84 939.83,-687.39"/>
<text text-anchor="middle" x="953" y="-701.76" font-family="Times,serif" font-size="10.00">prov:used</text>
</g>
<!-- TravelWin&#45;&gt;TravelDetect -->
<g id="edge12" class="edge">
<title>TravelWin&#45;&gt;TravelDetect</title>
<path fill="none" stroke="black" d="M860.25,-831.85C866.39,-819.08 874.93,-801.32 882.23,-786.13"/>
<polygon fill="black" stroke="black" points="885.4,-787.6 886.58,-777.07 879.09,-784.57 885.4,-787.6"/>
<text text-anchor="middle" x="932.5" y="-802.02" font-family="Times,serif" font-size="10.00">odim:wasComputedBy</text>
</g>
</g>
</svg>
