<?xml version="1.0" encoding="UTF-8" standalone="no"?>
<!DOCTYPE svg PUBLIC "-//W3C//DTD SVG 1.1//EN"
 "http://www.w3.org/Graphics/SVG/1.1/DTD/svg11.dtd">
<!-- Generated by graphviz version 2.43.0 (0)
 -->
<!-- Title: RelapseFlow Pages: 1 -->
<svg width="720pt" height="324pt"
 viewBox="0.00 0.00 720.00 324.25" xmlns="http://www.w3.org/2000/svg" xmlns:xlink="http://www.w3.org/1999/xlink">
<g id="graph0" class="graph" transform="scale(1 1) rotate(0) translate(4 320.25)">
<title>RelapseFlow</title>
<polygon fill="white" stroke="transparent" points="-4,4 -4,-320.25 716,-320.25 716,4 -4,4"/>
<g id="clust1" class="cluster">
<title>cluster_inputs</title>
<polygon fill="none" stroke="#999999" stroke-dasharray="5,2" points="8,-8 8,-83 704,-83 704,-8 8,-8"/>
<text text-anchor="middle" x="86" y="-67.8" font-family="Times,serif" font-size="14.00">Phenotype markers</text>
</g>
<g id="clust2" class="cluster">
<title>cluster_agg</title>
<polygon fill="none" stroke="#999999" stroke-dasharray="5,2" points="264,-116 264,-200.25 504,-200.25 504,-116 264,-116"/>
<text text-anchor="middle" x="333" y="-185.05" font-family="Times,serif" font-size="14.00">Risk aggregation</text>
</g>
<g id="clust3" class="cluster">
<title>cluster_outcome</title>
<polygon fill="none" stroke="#999999" stroke-dasharray="5,2" points="82,-120.63 82,-308.25 256,-308.25 256,-120.63 82,-120.63"/>
<text text-anchor="middle" x="122" y="-293.05" font-family="Times,serif" font-size="14.00">Outcome</text>
</g>
<!-- PhenotypeTravel -->
<g id="node1" class="node">
<title>PhenotypeTravel</title>
<path fill="#ede7f6" stroke="#666666" d="M264,-52C264,-52 28,-52 28,-52 22,-52 16,-46 16,-40 16,-40 16,-28 16,-28 16,-22 22,-16 28,-16 28,-16 264,-16 264,-16 270,-16 276,-22 276,-28 276,-28 276,-40 276,-40 276,-46 270,-52 264,-52"/>
<text text-anchor="middle" x="146" y="-37.2" font-family="Helvetica,sans-Serif" font-size="11.00" fill="#222222">Travel&#45;Associated Inactivity With Sleep Debt</text>
<text text-anchor="middle" x="146" y="-25.2" font-family="Helvetica,sans-Serif" font-size="11.00" fill="#222222">(ActivityPhenotype)</text>
</g>
<!-- PhenotypeMood -->
<g id="node2" class="node">
<title>PhenotypeMood</title>
<path fill="#ede7f6" stroke="#666666" d="M451,-52C451,-52 317,-52 317,-52 311,-52 305,-46 305,-40 305,-40 305,-28 305,-28 305,-22 311,-16 317,-16 317,-16 451,-16 451,-16 457,-16 463,-22 463,-28 463,-28 463,-40 463,-40 463,-46 457,-52 451,-52"/>
<text text-anchor="middle" x="384" y="-37.2" font-family="Helvetica,sans-Serif" font-size="11.00" fill="#222222">Mood instability (Week 1)</text>
<text text-anchor="middle" x="384" y="-25.2" font-family="Helvetica,sans-Serif" font-size="11.00" fill="#222222">(ActivityPhenotype)</text>
</g>
<!-- PhenotypeSocial -->
<g id="node3" class="node">
<title>PhenotypeSocial</title>
<path fill="#ede7f6" stroke="#666666" d="M684.5,-52C684.5,-52 503.5,-52 503.5,-52 497.5,-52 491.5,-46 491.5,-40 491.5,-40 491.5,-28 491.5,-28 491.5,-22 497.5,-16 503.5,-16 503.5,-16 684.5,-16 684.5,-16 690.5,-16 696.5,-22 696.5,-28 696.5,-28 696.5,-40 696.5,-40 696.5,-46 690.5,-52 684.5,-52"/>
<text text-anchor="middle" x="594" y="-37.2" font-family="Helvetica,sans-Serif" font-size="11.00" fill="#222222">Reduced communication (Week 1)</text>
<text text-anchor="middle" x="594" y="-25.2" font-family="Helvetica,sans-Serif" font-size="11.00" fill="#222222">(ActivityPhenotype)</text>
</g>
<!-- Agg -->
<g id="node4" class="node">
<title>Agg</title>
<ellipse fill="#fff2cc" stroke="#666666" cx="384" cy="-146.63" rx="111.95" ry="22.76"/>
<text text-anchor="middle" x="384" y="-149.83" font-family="Helvetica,sans-Serif" font-size="11.00" fill="#222222">Relapse risk derivation</text>
<text text-anchor="middle" x="384" y="-137.83" font-family="Helvetica,sans-Serif" font-size="11.00" fill="#222222">(AlgorithmicComputation)</text>
</g>
<!-- Agg&#45;&gt;PhenotypeTravel -->
<g id="edge1" class="edge">
<title>Agg&#45;&gt;PhenotypeTravel</title>
<path fill="none" stroke="black" d="M341.18,-125.72C299.03,-106.13 234.9,-76.32 191.77,-56.27"/>
<polygon fill="black" stroke="black" points="193.17,-53.07 182.63,-52.03 190.22,-59.42 193.17,-53.07"/>
<text text-anchor="middle" x="312" y="-94" font-family="Times,serif" font-size="10.00">prov:used</text>
</g>
<!-- Agg&#45;&gt;PhenotypeMood -->
<g id="edge2" class="edge">
<title>Agg&#45;&gt;PhenotypeMood</title>
<path fill="none" stroke="black" d="M384,-123.77C384,-106.11 384,-81.15 384,-62.2"/>
<polygon fill="black" stroke="black" points="387.5,-62.1 384,-52.1 380.5,-62.1 387.5,-62.1"/>
<text text-anchor="middle" x="410" y="-94" font-family="Times,serif" font-size="10.00">prov:used</text>
</g>
<!-- Agg&#45;&gt;PhenotypeSocial -->
<g id="edge3" class="edge">
<title>Agg&#45;&gt;PhenotypeSocial</title>
<path fill="none" stroke="black" d="M422.52,-125.34C459.3,-105.96 514.58,-76.84 552.37,-56.93"/>
<polygon fill="black" stroke="black" points="554.36,-59.84 561.58,-52.08 551.1,-53.64 554.36,-59.84"/>
<text text-anchor="middle" x="508" y="-94" font-family="Times,serif" font-size="10.00">prov:used</text>
</g>
<!-- Risk -->
<g id="node5" class="node">
<title>Risk</title>
<path fill="#e2f0d9" stroke="#666666" d="M236,-277.25C236,-277.25 102,-277.25 102,-277.25 96,-277.25 90,-271.25 90,-265.25 90,-265.25 90,-253.25 90,-253.25 90,-247.25 96,-241.25 102,-241.25 102,-241.25 236,-241.25 236,-241.25 242,-241.25 248,-247.25 248,-253.25 248,-253.25 248,-265.25 248,-265.25 248,-271.25 242,-277.25 236,-277.25"/>
<text text-anchor="middle" x="169" y="-262.45" font-family="Helvetica,sans-Serif" font-size="11.00" fill="#222222">Relapse Risk (Composite)</text>
<text text-anchor="middle" x="169" y="-250.45" font-family="Helvetica,sans-Serif" font-size="11.00" fill="#222222">(DerivedFeature)</text>
</g>
<!-- Risk&#45;&gt;Agg -->
<g id="edge4" class="edge">
<title>Risk&#45;&gt;Agg</title>
<path fill="none" stroke="black" d="M216.57,-241.2C232.83,-234.88 250.95,-227.29 267,-219.25 293.7,-205.89 322.31,-188.44 344.55,-174.11"/>
<polygon fill="black" stroke="black" points="346.57,-176.97 353.05,-168.58 342.76,-171.1 346.57,-176.97"/>
<text text-anchor="middle" x="343.5" y="-211.25" font-family="Times,serif" font-size="10.00">odim:wasComputedBy</text>
</g>
<!-- Week -->
<g id="node6" class="node">
<title>Week</title>
<path fill="#f3f4f6" stroke="#666666" d="M191.5,-164.63C191.5,-164.63 108.5,-164.63 108.5,-164.63 102.5,-164.63 96.5,-158.63 96.5,-152.63 96.5,-152.63 96.5,-140.63 96.5,-140.63 96.5,-134.63 102.5,-128.63 108.5,-128.63 108.5,-128.63 191.5,-128.63 191.5,-128.63 197.5,-128.63 203.5,-134.63 203.5,-140.63 203.5,-140.63 203.5,-152.63 203.5,-152.63 203.5,-158.63 197.5,-164.63 191.5,-164.63"/>
<text text-anchor="middle" x="150" y="-149.83" font-family="Helvetica,sans-Serif" font-size="11.00" fill="#222222">Week 1</text>
<text text-anchor="middle" x="150" y="-137.83" font-family="Helvetica,sans-Serif" font-size="11.00" fill="#222222">(WeeklyInterval)</text>
</g>
<!-- Risk&#45;&gt;Week -->
<g id="edge5" class="edge">
<title>Risk&#45;&gt;Week</title>
<path fill="none" stroke="black" d="M166.03,-240.97C162.99,-223.27 158.22,-195.51 154.68,-174.85"/>
<polygon fill="black" stroke="black" points="158.09,-174.05 152.95,-164.79 151.19,-175.24 158.09,-174.05"/>
<text text-anchor="middle" x="211" y="-211.25" font-family="Times,serif" font-size="10.00">odim:occursDuring</text>
</g>
</g>
</svg>
