<?xml version="1.0" encoding="UTF-8" standalone="no"?>
<!DOCTYPE svg PUBLIC "-//W3C//DTD SVG 1.1//EN"
 "http://www.w3.org/Graphics/SVG/1.1/DTD/svg11.dtd">
<!-- Generated by graphviz version 2.43.0 (0)
 -->
<!-- Title: DemoFlow Pages: 1 -->
<svg width="962pt" height="1106pt"
 viewBox="0.00 0.00 962.00 1106.27" xmlns="http://www.w3.org/2000/svg" xmlns:xlink="http://www.w3.org/1999/xlink">
<g id="graph0" class="graph" transform="scale(1 1) rotate(0) translate(4 1102.27)">
<title>DemoFlow</title>
<polygon fill="white" stroke="transparent" points="-4,4 -4,-1102.27 958,-1102.27 958,4 -4,4"/>
<g id="clust1" class="cluster">
<title>cluster_raw</title>
<polygon fill="none" stroke="#999999" stroke-dasharray="5,2" points="395,-8 395,-83 781,-83 781,-8 395,-8"/>
<text text-anchor="middle" x="466.5" y="-67.8" font-family="Times,serif" font-size="14.00">Raw (prov:Entity)</text>
</g>
<g id="clust2" class="cluster">
<title>cluster_import</title>
<polygon fill="none" stroke="#999999" stroke-dasharray="5,2" points="453,-116 453,-200.25 710,-200.25 710,-116 453,-116"/>
<text text-anchor="middle" x="581.5" y="-185.05" font-family="Times,serif" font-size="14.00">Import (odim:DataTransferEvent)</text>
</g>
<g id="clust4" class="cluster">
<title>cluster_daily</title>
<polygon fill="none" stroke="#999999" stroke-dasharray="5,2" points="64,-324.25 64,-499.51 671,-499.51 671,-324.25 64,-324.25"/>
<text text-anchor="middle" x="206" y="-484.31" font-family="Times,serif" font-size="14.00">Daily features (odim:DerivedFeature)</text>
</g>
<g id="clust5" class="cluster">
<title>cluster_weekly</title>
<polygon fill="none" stroke="#999999" stroke-dasharray="5,2" points="8,-532.51 8,-1090.27 866,-1090.27 866,-532.51 8,-532.51"/>
<text text-anchor="middle" x="175.5" y="-1075.07" font-family="Times,serif" font-size="14.00">Weekly aggregates → decisions → phenotype</text>
</g>
<!-- RawSteps -->
<g id="node1" class="node">
<title>RawSteps</title>
<path fill="#eeeeee" stroke="#666666" d="M490.5,-52C490.5,-52 415.5,-52 415.5,-52 409.5,-52 403.5,-46 403.5,-40 403.5,-40 403.5,-28 403.5,-28 403.5,-22 409.5,-16 415.5,-16 415.5,-16 490.5,-16 490.5,-16 496.5,-16 502.5,-22 502.5,-28 502.5,-28 502.5,-40 502.5,-40 502.5,-46 496.5,-52 490.5,-52"/>
<text text-anchor="middle" x="453" y="-37.2" font-family="Helvetica,sans-Serif" font-size="11.00" fill="#222222">Raw steps CSV</text>
<text text-anchor="middle" x="453" y="-25.2" font-family="Helvetica,sans-Serif" font-size="11.00" fill="#222222">(prov:Entity)</text>
</g>
<!-- RawSleep -->
<g id="node2" class="node">
<title>RawSleep</title>
<path fill="#eeeeee" stroke="#666666" d="M618,-52C618,-52 544,-52 544,-52 538,-52 532,-46 532,-40 532,-40 532,-28 532,-28 532,-22 538,-16 544,-16 544,-16 618,-16 618,-16 624,-16 630,-22 630,-28 630,-28 630,-40 630,-40 630,-46 624,-52 618,-52"/>
<text text-anchor="middle" x="581" y="-37.2" font-family="Helvetica,sans-Serif" font-size="11.00" fill="#222222">Raw sleep CSV</text>
<text text-anchor="middle" x="581" y="-25.2" font-family="Helvetica,sans-Serif" font-size="11.00" fill="#222222">(prov:Entity)</text>
</g>
<!-- RawLoc -->
<g id="node3" class="node">
<title>RawLoc</title>
<path fill="#eeeeee" stroke="#666666" d="M760.5,-52C760.5,-52 671.5,-52 671.5,-52 665.5,-52 659.5,-46 659.5,-40 659.5,-40 659.5,-28 659.5,-28 659.5,-22 665.5,-16 671.5,-16 671.5,-16 760.5,-16 760.5,-16 766.5,-16 772.5,-22 772.5,-28 772.5,-28 772.5,-40 772.5,-40 772.5,-46 766.5,-52 760.5,-52"/>
<text text-anchor="middle" x="716" y="-37.2" font-family="Helvetica,sans-Serif" font-size="11.00" fill="#222222">Raw location CSV</text>
<text text-anchor="middle" x="716" y="-25.2" font-family="Helvetica,sans-Serif" font-size="11.00" fill="#222222">(prov:Entity)</text>
</g>
<!-- Import -->
<g id="node4" class="node">
<title>Import</title>
<ellipse fill="#fff2cc" stroke="#666666" cx="581" cy="-146.63" rx="90.52" ry="22.76"/>
<text text-anchor="middle" x="581" y="-149.83" font-family="Helvetica,sans-Serif" font-size="11.00" fill="#222222">Import</text>
<text text-anchor="middle" x="581" y="-137.83" font-family="Helvetica,sans-Serif" font-size="11.00" fill="#222222">(DataTransferEvent)</text>
</g>
<!-- Import&#45;&gt;RawSteps -->
<g id="edge1" class="edge">
<title>Import&#45;&gt;RawSteps</title>
<path fill="none" stroke="black" d="M551.6,-125.08C541.95,-118.03 531.32,-109.91 522,-102 506.25,-88.63 489.61,-72.54 476.61,-59.47"/>
<polygon fill="black" stroke="black" points="478.93,-56.84 469.42,-52.17 473.95,-61.75 478.93,-56.84"/>
<text text-anchor="middle" x="548" y="-94" font-family="Times,serif" font-size="10.00">prov:used</text>
</g>
<!-- Import&#45;&gt;RawSleep -->
<g id="edge2" class="edge">
<title>Import&#45;&gt;RawSleep</title>
<path fill="none" stroke="black" d="M581,-123.77C581,-106.11 581,-81.15 581,-62.2"/>
<polygon fill="black" stroke="black" points="584.5,-62.1 581,-52.1 577.5,-62.1 584.5,-62.1"/>
<text text-anchor="middle" x="607" y="-94" font-family="Times,serif" font-size="10.00">prov:used</text>
</g>
<!-- Import&#45;&gt;RawLoc -->
<g id="edge3" class="edge">
<title>Import&#45;&gt;RawLoc</title>
<path fill="none" stroke="black" d="M609.88,-125.03C619.59,-117.91 630.39,-109.77 640,-102 656.97,-88.29 675.34,-72.14 689.76,-59.13"/>
<polygon fill="black" stroke="black" points="692.28,-61.57 697.34,-52.26 687.58,-56.38 692.28,-61.57"/>
<text text-anchor="middle" x="678" y="-94" font-family="Times,serif" font-size="10.00">prov:used</text>
</g>
<!-- ObsSteps -->
<g id="node5" class="node">
<title>ObsSteps</title>
<path fill="#ddeeff" stroke="#666666" d="M458.5,-277.25C458.5,-277.25 339.5,-277.25 339.5,-277.25 333.5,-277.25 327.5,-271.25 327.5,-265.25 327.5,-265.25 327.5,-253.25 327.5,-253.25 327.5,-247.25 333.5,-241.25 339.5,-241.25 339.5,-241.25 458.5,-241.25 458.5,-241.25 464.5,-241.25 470.5,-247.25 470.5,-253.25 470.5,-253.25 470.5,-265.25 470.5,-265.25 470.5,-271.25 464.5,-277.25 458.5,-277.25"/>
<text text-anchor="middle" x="399" y="-262.45" font-family="Helvetica,sans-Serif" font-size="11.00" fill="#222222">Steps activity</text>
<text text-anchor="middle" x="399" y="-250.45" font-family="Helvetica,sans-Serif" font-size="11.00" fill="#222222">(ActivityMeasurement)</text>
</g>
<!-- ObsSteps&#45;&gt;Import -->
<g id="edge4" class="edge">
<title>ObsSteps&#45;&gt;Import</title>
<path fill="none" stroke="black" d="M416.94,-241.03C428.19,-230.77 443.29,-217.9 458,-208.25 479.6,-194.09 504.98,-181.04 527.07,-170.71"/>
<polygon fill="black" stroke="black" points="528.69,-173.81 536.31,-166.45 525.76,-167.45 528.69,-173.81"/>
<text text-anchor="middle" x="516" y="-211.25" font-family="Times,serif" font-size="10.00">odim:wasGeneratedBy</text>
</g>
<!-- ObsSleep -->
<g id="node6" class="node">
<title>ObsSleep</title>
<path fill="#ddeeff" stroke="#666666" d="M650.5,-277.25C650.5,-277.25 511.5,-277.25 511.5,-277.25 505.5,-277.25 499.5,-271.25 499.5,-265.25 499.5,-265.25 499.5,-253.25 499.5,-253.25 499.5,-247.25 505.5,-241.25 511.5,-241.25 511.5,-241.25 650.5,-241.25 650.5,-241.25 656.5,-241.25 662.5,-247.25 662.5,-253.25 662.5,-253.25 662.5,-265.25 662.5,-265.25 662.5,-271.25 656.5,-277.25 650.5,-277.25"/>
<text text-anchor="middle" x="581" y="-262.45" font-family="Helvetica,sans-Serif" font-size="11.00" fill="#222222">Sleep stage</text>
<text text-anchor="middle" x="581" y="-250.45" font-family="Helvetica,sans-Serif" font-size="11.00" fill="#222222">(SleepStageMeasurement)</text>
</g>
<!-- ObsSleep&#45;&gt;Import -->
<g id="edge5" class="edge">
<title>ObsSleep&#45;&gt;Import</title>
<path fill="none" stroke="black" d="M581,-240.97C581,-224.59 581,-199.58 581,-179.58"/>
<polygon fill="black" stroke="black" points="584.5,-179.35 581,-169.35 577.5,-179.35 584.5,-179.35"/>
<text text-anchor="middle" x="639" y="-211.25" font-family="Times,serif" font-size="10.00">odim:wasGeneratedBy</text>
</g>
<!-- ObsLoc -->
<g id="node7" class="node">
<title>ObsLoc</title>
<path fill="#ddeeff" stroke="#666666" d="M903,-277.25C903,-277.25 769,-277.25 769,-277.25 763,-277.25 757,-271.25 757,-265.25 757,-265.25 757,-253.25 757,-253.25 757,-247.25 763,-241.25 769,-241.25 769,-241.25 903,-241.25 903,-241.25 909,-241.25 915,-247.25 915,-253.25 915,-253.25 915,-265.25 915,-265.25 915,-271.25 909,-277.25 903,-277.25"/>
<text text-anchor="middle" x="836" y="-262.45" font-family="Helvetica,sans-Serif" font-size="11.00" fill="#222222">Location estimate</text>
<text text-anchor="middle" x="836" y="-250.45" font-family="Helvetica,sans-Serif" font-size="11.00" fill="#222222">(DeviceLocationEstimate)</text>
</g>
<!-- ObsLoc&#45;&gt;Import -->
<g id="edge6" class="edge">
<title>ObsLoc&#45;&gt;Import</title>
<path fill="none" stroke="black" d="M796.72,-241.21C753.1,-222.29 682.47,-191.65 633.99,-170.62"/>
<polygon fill="black" stroke="black" points="635.17,-167.31 624.6,-166.54 632.38,-173.74 635.17,-167.31"/>
<text text-anchor="middle" x="796" y="-211.25" font-family="Times,serif" font-size="10.00">odim:wasGeneratedBy</text>
</g>
<!-- DailyComp -->
<g id="node8" class="node">
<title>DailyComp</title>
<ellipse fill="#fff2cc" stroke="#666666" cx="399" cy="-354.88" rx="111.95" ry="22.76"/>
<text text-anchor="middle" x="399" y="-358.08" font-family="Helvetica,sans-Serif" font-size="11.00" fill="#222222">Daily summary</text>
<text text-anchor="middle" x="399" y="-346.08" font-family="Helvetica,sans-Serif" font-size="11.00" fill="#222222">(AlgorithmicComputation)</text>
</g>
<!-- DailyComp&#45;&gt;ObsSteps -->
<g id="edge7" class="edge">
<title>DailyComp&#45;&gt;ObsSteps</title>
<path fill="none" stroke="black" d="M399,-332.17C399,-318.91 399,-301.84 399,-287.65"/>
<polygon fill="black" stroke="black" points="402.5,-287.48 399,-277.48 395.5,-287.48 402.5,-287.48"/>
<text text-anchor="middle" x="425" y="-302.25" font-family="Times,serif" font-size="10.00">prov:used</text>
</g>
<!-- DailyComp&#45;&gt;ObsSleep -->
<g id="edge8" class="edge">
<title>DailyComp&#45;&gt;ObsSleep</title>
<path fill="none" stroke="black" d="M438.49,-333.57C468.05,-318.36 508.42,-297.59 538.65,-282.04"/>
<polygon fill="black" stroke="black" points="540.39,-285.08 547.68,-277.39 537.19,-278.86 540.39,-285.08"/>
<text text-anchor="middle" x="526" y="-302.25" font-family="Times,serif" font-size="10.00">prov:used</text>
</g>
<!-- F1 -->
<g id="node9" class="node">
<title>F1</title>
<path fill="#e2f0d9" stroke="#666666" d="M170.5,-468.51C170.5,-468.51 83.5,-468.51 83.5,-468.51 77.5,-468.51 71.5,-462.51 71.5,-456.51 71.5,-456.51 71.5,-444.51 71.5,-444.51 71.5,-438.51 77.5,-432.51 83.5,-432.51 83.5,-432.51 170.5,-432.51 170.5,-432.51 176.5,-432.51 182.5,-438.51 182.5,-444.51 182.5,-444.51 182.5,-456.51 182.5,-456.51 182.5,-462.51 176.5,-468.51 170.5,-468.51"/>
<text text-anchor="middle" x="127" y="-453.71" font-family="Helvetica,sans-Serif" font-size="11.00" fill="#222222">Daily Steps Day1</text>
<text text-anchor="middle" x="127" y="-441.71" font-family="Helvetica,sans-Serif" font-size="11.00" fill="#222222">(DerivedFeature)</text>
</g>
<!-- F1&#45;&gt;DailyComp -->
<g id="edge12" class="edge">
<title>F1&#45;&gt;DailyComp</title>
<path fill="none" stroke="black" d="M128.82,-432.16C130.91,-421.18 135.38,-407.57 145,-399.51 166.47,-381.51 227.72,-370.68 284.69,-364.31"/>
<polygon fill="black" stroke="black" points="285.32,-367.77 294.89,-363.22 284.57,-360.81 285.32,-367.77"/>
<text text-anchor="middle" x="202.5" y="-402.51" font-family="Times,serif" font-size="10.00">odim:wasComputedBy</text>
</g>
<!-- F2 -->
<g id="node10" class="node">
<title>F2</title>
<path fill="#e2f0d9" stroke="#666666" d="M310.5,-468.51C310.5,-468.51 223.5,-468.51 223.5,-468.51 217.5,-468.51 211.5,-462.51 211.5,-456.51 211.5,-456.51 211.5,-444.51 211.5,-444.51 211.5,-438.51 217.5,-432.51 223.5,-432.51 223.5,-432.51 310.5,-432.51 310.5,-432.51 316.5,-432.51 322.5,-438.51 322.5,-444.51 322.5,-444.51 322.5,-456.51 322.5,-456.51 322.5,-462.51 316.5,-468.51 310.5,-468.51"/>
<text text-anchor="middle" x="267" y="-453.71" font-family="Helvetica,sans-Serif" font-size="11.00" fill="#222222">Daily Steps Day2</text>
<text text-anchor="middle" x="267" y="-441.71" font-family="Helvetica,sans-Serif" font-size="11.00" fill="#222222">(DerivedFeature)</text>
</g>
<!-- F2&#45;&gt;DailyComp -->
<g id="edge13" class="edge">
<title>F2&#45;&gt;DailyComp</title>
<path fill="none" stroke="black" d="M264.78,-432.48C264.35,-421.9 265.65,-408.63 273,-399.51 281.83,-388.56 293.56,-380.35 306.32,-374.2"/>
<polygon fill="black" stroke="black" points="308.01,-377.28 315.77,-370.07 305.21,-370.87 308.01,-377.28"/>
<text text-anchor="middle" x="330.5" y="-402.51" font-family="Times,serif" font-size="10.00">odim:wasComputedBy</text>
</g>
<!-- SQ1 -->
<g id="node11" class="node">
<title>SQ1</title>
<path fill="#e2f0d9" stroke="#666666" d="M466,-468.51C466,-468.51 364,-468.51 364,-468.51 358,-468.51 352,-462.51 352,-456.51 352,-456.51 352,-444.51 352,-444.51 352,-438.51 358,-432.51 364,-432.51 364,-432.51 466,-432.51 466,-432.51 472,-432.51 478,-438.51 478,-444.51 478,-444.51 478,-456.51 478,-456.51 478,-462.51 472,-468.51 466,-468.51"/>
<text text-anchor="middle" x="415" y="-453.71" font-family="Helvetica,sans-Serif" font-size="11.00" fill="#222222">Sleep Minutes Day1</text>
<text text-anchor="middle" x="415" y="-441.71" font-family="Helvetica,sans-Serif" font-size="11.00" fill="#222222">(DerivedFeature)</text>
</g>
<!-- SQ1&#45;&gt;DailyComp -->
<g id="edge14" class="edge">
<title>SQ1&#45;&gt;DailyComp</title>
<path fill="none" stroke="black" d="M405.07,-432.22C401.82,-425.64 398.63,-417.94 397,-410.51 395.41,-403.26 394.98,-395.35 395.14,-387.85"/>
<polygon fill="black" stroke="black" points="398.65,-387.82 395.72,-377.64 391.66,-387.43 398.65,-387.82"/>
<text text-anchor="middle" x="454.5" y="-402.51" font-family="Times,serif" font-size="10.00">odim:wasComputedBy</text>
</g>
<!-- SQ2 -->
<g id="node12" class="node">
<title>SQ2</title>
<path fill="#e2f0d9" stroke="#666666" d="M621,-468.51C621,-468.51 519,-468.51 519,-468.51 513,-468.51 507,-462.51 507,-456.51 507,-456.51 507,-444.51 507,-444.51 507,-438.51 513,-432.51 519,-432.51 519,-432.51 621,-432.51 621,-432.51 627,-432.51 633,-438.51 633,-444.51 633,-444.51 633,-456.51 633,-456.51 633,-462.51 627,-468.51 621,-468.51"/>
<text text-anchor="middle" x="570" y="-453.71" font-family="Helvetica,sans-Serif" font-size="11.00" fill="#222222">Sleep Minutes Day2</text>
<text text-anchor="middle" x="570" y="-441.71" font-family="Helvetica,sans-Serif" font-size="11.00" fill="#222222">(DerivedFeature)</text>
</g>
<!-- SQ2&#45;&gt;DailyComp -->
<g id="edge15" class="edge">
<title>SQ2&#45;&gt;DailyComp</title>
<path fill="none" stroke="black" d="M554.48,-432.41C544.13,-421.81 529.75,-408.53 515,-399.51 501.01,-390.96 485.08,-383.63 469.59,-377.56"/>
<polygon fill="black" stroke="black" points="470.62,-374.21 460.03,-373.94 468.14,-380.76 470.62,-374.21"/>
<text text-anchor="middle" x="586.5" y="-402.51" font-family="Times,serif" font-size="10.00">odim:wasComputedBy</text>
</g>
<!-- WeeklySteps -->
<g id="node13" class="node">
<title>WeeklySteps</title>
<ellipse fill="#fff2cc" stroke="#666666" cx="128" cy="-563.14" rx="111.95" ry="22.76"/>
<text text-anchor="middle" x="128" y="-566.34" font-family="Helvetica,sans-Serif" font-size="11.00" fill="#222222">Weekly steps aggregate</text>
<text text-anchor="middle" x="128" y="-554.34" font-family="Helvetica,sans-Serif" font-size="11.00" fill="#222222">(AlgorithmicComputation)</text>
</g>
<!-- WeeklySteps&#45;&gt;F1 -->
<g id="edge16" class="edge">
<title>WeeklySteps&#45;&gt;F1</title>
<path fill="none" stroke="black" d="M127.8,-540.28C127.64,-522.62 127.42,-497.66 127.25,-478.71"/>
<polygon fill="black" stroke="black" points="130.74,-478.58 127.15,-468.61 123.75,-478.64 130.74,-478.58"/>
<text text-anchor="middle" x="153" y="-510.51" font-family="Times,serif" font-size="10.00">prov:used</text>
</g>
<!-- WeeklySteps&#45;&gt;F2 -->
<g id="edge17" class="edge">
<title>WeeklySteps&#45;&gt;F2</title>
<path fill="none" stroke="black" d="M156.52,-541.09C165.97,-534.01 176.5,-526 186,-518.51 203.93,-504.36 223.7,-488.03 239.21,-475.03"/>
<polygon fill="black" stroke="black" points="241.5,-477.68 246.91,-468.57 237,-472.32 241.5,-477.68"/>
<text text-anchor="middle" x="225" y="-510.51" font-family="Times,serif" font-size="10.00">prov:used</text>
</g>
<!-- MeanSteps -->
<g id="node14" class="node">
<title>MeanSteps</title>
<path fill="#e2f0d9" stroke="#666666" d="M129.5,-676.76C129.5,-676.76 28.5,-676.76 28.5,-676.76 22.5,-676.76 16.5,-670.76 16.5,-664.76 16.5,-664.76 16.5,-652.76 16.5,-652.76 16.5,-646.76 22.5,-640.76 28.5,-640.76 28.5,-640.76 129.5,-640.76 129.5,-640.76 135.5,-640.76 141.5,-646.76 141.5,-652.76 141.5,-652.76 141.5,-664.76 141.5,-664.76 141.5,-670.76 135.5,-676.76 129.5,-676.76"/>
<text text-anchor="middle" x="79" y="-661.96" font-family="Helvetica,sans-Serif" font-size="11.00" fill="#222222">Weekly mean steps</text>
<text text-anchor="middle" x="79" y="-649.96" font-family="Helvetica,sans-Serif" font-size="11.00" fill="#222222">(DerivedFeature)</text>
</g>
<!-- MeanSteps&#45;&gt;WeeklySteps -->
<g id="edge18" class="edge">
<title>MeanSteps&#45;&gt;WeeklySteps</title>
<path fill="none" stroke="black" d="M87.99,-640.59C94.67,-627.83 103.96,-610.06 111.91,-594.87"/>
<polygon fill="black" stroke="black" points="115.12,-596.3 116.65,-585.82 108.92,-593.05 115.12,-596.3"/>
<text text-anchor="middle" x="162.5" y="-610.76" font-family="Times,serif" font-size="10.00">odim:wasComputedBy</text>
</g>
<!-- Thresh -->
<g id="node15" class="node">
<title>Thresh</title>
<path fill="#ffe5d9" stroke="#666666" d="M287,-676.76C287,-676.76 183,-676.76 183,-676.76 177,-676.76 171,-670.76 171,-664.76 171,-664.76 171,-652.76 171,-652.76 171,-646.76 177,-640.76 183,-640.76 183,-640.76 287,-640.76 287,-640.76 293,-640.76 299,-646.76 299,-652.76 299,-652.76 299,-664.76 299,-664.76 299,-670.76 293,-676.76 287,-676.76"/>
<text text-anchor="middle" x="235" y="-661.96" font-family="Helvetica,sans-Serif" font-size="11.00" fill="#222222">Low steps threshold</text>
<text text-anchor="middle" x="235" y="-649.96" font-family="Helvetica,sans-Serif" font-size="11.00" fill="#222222">(prov:Entity)</text>
</g>
<!-- StepsDecision -->
<g id="node16" class="node">
<title>StepsDecision</title>
<ellipse fill="#fff2cc" stroke="#666666" cx="235" cy="-754.39" rx="111.95" ry="22.76"/>
<text text-anchor="middle" x="235" y="-757.59" font-family="Helvetica,sans-Serif" font-size="11.00" fill="#222222">Steps threshold decision</text>
<text text-anchor="middle" x="235" y="-745.59" font-family="Helvetica,sans-Serif" font-size="11.00" fill="#222222">(AlgorithmicComputation)</text>
</g>
<!-- StepsDecision&#45;&gt;MeanSteps -->
<g id="edge19" class="edge">
<title>StepsDecision&#45;&gt;MeanSteps</title>
<path fill="none" stroke="black" d="M200.77,-732.84C175.73,-717.82 141.81,-697.46 116.13,-682.05"/>
<polygon fill="black" stroke="black" points="117.79,-678.96 107.41,-676.82 114.19,-684.97 117.79,-678.96"/>
<text text-anchor="middle" x="187" y="-701.76" font-family="Times,serif" font-size="10.00">prov:used</text>
</g>
<!-- StepsDecision&#45;&gt;Thresh -->
<g id="edge20" class="edge">
<title>StepsDecision&#45;&gt;Thresh</title>
<path fill="none" stroke="black" d="M235,-731.68C235,-718.42 235,-701.35 235,-687.16"/>
<polygon fill="black" stroke="black" points="238.5,-686.99 235,-676.99 231.5,-686.99 238.5,-686.99"/>
<text text-anchor="middle" x="261" y="-701.76" font-family="Times,serif" font-size="10.00">prov:used</text>
</g>
<!-- Marker -->
<g id="node17" class="node">
<title>Marker</title>
<path fill="#e2f0d9" stroke="#666666" d="M339.5,-868.02C339.5,-868.02 226.5,-868.02 226.5,-868.02 220.5,-868.02 214.5,-862.02 214.5,-856.02 214.5,-856.02 214.5,-844.02 214.5,-844.02 214.5,-838.02 220.5,-832.02 226.5,-832.02 226.5,-832.02 339.5,-832.02 339.5,-832.02 345.5,-832.02 351.5,-838.02 351.5,-844.02 351.5,-844.02 351.5,-856.02 351.5,-856.02 351.5,-862.02 345.5,-868.02 339.5,-868.02"/>
<text text-anchor="middle" x="283" y="-853.22" font-family="Helvetica,sans-Serif" font-size="11.00" fill="#222222">Low Activity (Week 1)</text>
<text text-anchor="middle" x="283" y="-841.22" font-family="Helvetica,sans-Serif" font-size="11.00" fill="#222222">(DerivedFeature)</text>
</g>
<!-- Marker&#45;&gt;StepsDecision -->
<g id="edge21" class="edge">
<title>Marker&#45;&gt;StepsDecision</title>
<path fill="none" stroke="black" d="M274.2,-831.85C267.65,-819.08 258.55,-801.32 250.76,-786.13"/>
<polygon fill="black" stroke="black" points="253.79,-784.37 246.11,-777.07 247.56,-787.57 253.79,-784.37"/>
<text text-anchor="middle" x="318.5" y="-802.02" font-family="Times,serif" font-size="10.00">odim:wasComputedBy</text>
</g>
<!-- WeeklySleep -->
<g id="node18" class="node">
<title>WeeklySleep</title>
<ellipse fill="#fff2cc" stroke="#666666" cx="415" cy="-563.14" rx="139.1" ry="22.76"/>
<text text-anchor="middle" x="415" y="-566.34" font-family="Helvetica,sans-Serif" font-size="11.00" fill="#222222">Weekly sleep minutes aggregate</text>
<text text-anchor="middle" x="415" y="-554.34" font-family="Helvetica,sans-Serif" font-size="11.00" fill="#222222">(AlgorithmicComputation)</text>
</g>
<!-- WeeklySleep&#45;&gt;SQ1 -->
<g id="edge22" class="edge">
<title>WeeklySleep&#45;&gt;SQ1</title>
<path fill="none" stroke="black" d="M415,-540.28C415,-522.62 415,-497.66 415,-478.71"/>
<polygon fill="black" stroke="black" points="418.5,-478.61 415,-468.61 411.5,-478.61 418.5,-478.61"/>
<text text-anchor="middle" x="441" y="-510.51" font-family="Times,serif" font-size="10.00">prov:used</text>
</g>
<!-- WeeklySleep&#45;&gt;SQ2 -->
<g id="edge23" class="edge">
<title>WeeklySleep&#45;&gt;SQ2</title>
<path fill="none" stroke="black" d="M444.89,-540.81C471.4,-521.88 510.05,-494.3 537.36,-474.8"/>
<polygon fill="black" stroke="black" points="539.7,-477.44 545.8,-468.78 535.63,-471.74 539.7,-477.44"/>
<text text-anchor="middle" x="513" y="-510.51" font-family="Times,serif" font-size="10.00">prov:used</text>
</g>
<!-- MeanSleep -->
<g id="node19" class="node">
<title>MeanSleep</title>
<path fill="#e2f0d9" stroke="#666666" d="M488,-676.76C488,-676.76 340,-676.76 340,-676.76 334,-676.76 328,-670.76 328,-664.76 328,-664.76 328,-652.76 328,-652.76 328,-646.76 334,-640.76 340,-640.76 340,-640.76 488,-640.76 488,-640.76 494,-640.76 500,-646.76 500,-652.76 500,-652.76 500,-664.76 500,-664.76 500,-670.76 494,-676.76 488,-676.76"/>
<text text-anchor="middle" x="414" y="-661.96" font-family="Helvetica,sans-Serif" font-size="11.00" fill="#222222">Weekly mean sleep minutes</text>
<text text-anchor="middle" x="414" y="-649.96" font-family="Helvetica,sans-Serif" font-size="11.00" fill="#222222">(DerivedFeature)</text>
</g>
<!-- MeanSleep&#45;&gt;WeeklySleep -->
<g id="edge24" class="edge">
<title>MeanSleep&#45;&gt;WeeklySleep</title>
<path fill="none" stroke="black" d="M414.18,-640.59C414.32,-628.19 414.5,-611.07 414.66,-596.17"/>
<polygon fill="black" stroke="black" points="418.16,-595.85 414.77,-585.82 411.16,-595.78 418.16,-595.85"/>
<text text-anchor="middle" x="471.5" y="-610.76" font-family="Times,serif" font-size="10.00">odim:wasComputedBy</text>
</g>
<!-- SleepBaseline -->
<g id="node20" class="node">
<title>SleepBaseline</title>
<path fill="#ffe5d9" stroke="#666666" d="M661,-676.76C661,-676.76 541,-676.76 541,-676.76 535,-676.76 529,-670.76 529,-664.76 529,-664.76 529,-652.76 529,-652.76 529,-646.76 535,-640.76 541,-640.76 541,-640.76 661,-640.76 661,-640.76 667,-640.76 673,-646.76 673,-652.76 673,-652.76 673,-664.76 673,-664.76 673,-670.76 667,-676.76 661,-676.76"/>
<text text-anchor="middle" x="601" y="-661.96" font-family="Helvetica,sans-Serif" font-size="11.00" fill="#222222">Baseline sleep minutes</text>
<text text-anchor="middle" x="601" y="-649.96" font-family="Helvetica,sans-Serif" font-size="11.00" fill="#222222">(prov:Entity)</text>
</g>
<!-- SleepDebtDecision -->
<g id="node21" class="node">
<title>SleepDebtDecision</title>
<ellipse fill="#fff2cc" stroke="#666666" cx="490" cy="-754.39" rx="111.95" ry="22.76"/>
<text text-anchor="middle" x="490" y="-757.59" font-family="Helvetica,sans-Serif" font-size="11.00" fill="#222222">Sleep debt decision</text>
<text text-anchor="middle" x="490" y="-745.59" font-family="Helvetica,sans-Serif" font-size="11.00" fill="#222222">(AlgorithmicComputation)</text>
</g>
<!-- SleepDebtDecision&#45;&gt;MeanSleep -->
<g id="edge25" class="edge">
<title>SleepDebtDecision&#45;&gt;MeanSleep</title>
<path fill="none" stroke="black" d="M472.37,-731.68C461.08,-717.77 446.39,-699.66 434.56,-685.1"/>
<polygon fill="black" stroke="black" points="437,-682.55 427.98,-676.99 431.57,-686.96 437,-682.55"/>
<text text-anchor="middle" x="480" y="-701.76" font-family="Times,serif" font-size="10.00">prov:used</text>
</g>
<!-- SleepDebtDecision&#45;&gt;SleepBaseline -->
<g id="edge26" class="edge">
<title>SleepDebtDecision&#45;&gt;SleepBaseline</title>
<path fill="none" stroke="black" d="M515.19,-732.15C532.38,-717.64 555.18,-698.41 572.95,-683.42"/>
<polygon fill="black" stroke="black" points="575.34,-685.99 580.73,-676.86 570.83,-680.64 575.34,-685.99"/>
<text text-anchor="middle" x="578" y="-701.76" font-family="Times,serif" font-size="10.00">prov:used</text>
</g>
<!-- SleepDebt -->
<g id="node22" class="node">
<title>SleepDebt</title>
<path fill="#e2f0d9" stroke="#666666" d="M543,-868.02C543,-868.02 437,-868.02 437,-868.02 431,-868.02 425,-862.02 425,-856.02 425,-856.02 425,-844.02 425,-844.02 425,-838.02 431,-832.02 437,-832.02 437,-832.02 543,-832.02 543,-832.02 549,-832.02 555,-838.02 555,-844.02 555,-844.02 555,-856.02 555,-856.02 555,-862.02 549,-868.02 543,-868.02"/>
<text text-anchor="middle" x="490" y="-853.22" font-family="Helvetica,sans-Serif" font-size="11.00" fill="#222222">Sleep Debt (Week 1)</text>
<text text-anchor="middle" x="490" y="-841.22" font-family="Helvetica,sans-Serif" font-size="11.00" fill="#222222">(DerivedFeature)</text>
</g>
<!-- SleepDebt&#45;&gt;SleepDebtDecision -->
<g id="edge27" class="edge">
<title>SleepDebt&#45;&gt;SleepDebtDecision</title>
<path fill="none" stroke="black" d="M490,-831.85C490,-819.44 490,-802.32 490,-787.42"/>
<polygon fill="black" stroke="black" points="493.5,-787.07 490,-777.07 486.5,-787.07 493.5,-787.07"/>
<text text-anchor="middle" x="547.5" y="-802.02" font-family="Times,serif" font-size="10.00">odim:wasComputedBy</text>
</g>
<!-- Combine -->
<g id="node23" class="node">
<title>Combine</title>
<ellipse fill="#fff2cc" stroke="#666666" cx="490" cy="-945.65" rx="122.16" ry="22.76"/>
<text text-anchor="middle" x="490" y="-948.85" font-family="Helvetica,sans-Serif" font-size="11.00" fill="#222222">Combined marker derivation</text>
<text text-anchor="middle" x="490" y="-936.85" font-family="Helvetica,sans-Serif" font-size="11.00" fill="#222222">(AlgorithmicComputation)</text>
</g>
<!-- Combine&#45;&gt;Marker -->
<g id="edge28" class="edge">
<title>Combine&#45;&gt;Marker</title>
<path fill="none" stroke="black" d="M445.59,-924.56C411.61,-909.19 364.83,-888.03 330.18,-872.36"/>
<polygon fill="black" stroke="black" points="331.3,-869.02 320.74,-868.09 328.41,-875.4 331.3,-869.02"/>
<text text-anchor="middle" x="418" y="-893.02" font-family="Times,serif" font-size="10.00">prov:used</text>
</g>
<!-- Combine&#45;&gt;SleepDebt -->
<g id="edge29" class="edge">
<title>Combine&#45;&gt;SleepDebt</title>
<path fill="none" stroke="black" d="M490,-922.93C490,-909.67 490,-892.6 490,-878.42"/>
<polygon fill="black" stroke="black" points="493.5,-878.25 490,-868.25 486.5,-878.25 493.5,-878.25"/>
<text text-anchor="middle" x="516" y="-893.02" font-family="Times,serif" font-size="10.00">prov:used</text>
</g>
<!-- TravelWin -->
<g id="node27" class="node">
<title>TravelWin</title>
<path fill="#fde2e4" stroke="#666666" d="M764,-868.02C764,-868.02 640,-868.02 640,-868.02 634,-868.02 628,-862.02 628,-856.02 628,-856.02 628,-844.02 628,-844.02 628,-838.02 634,-832.02 640,-832.02 640,-832.02 764,-832.02 764,-832.02 770,-832.02 776,-838.02 776,-844.02 776,-844.02 776,-856.02 776,-856.02 776,-862.02 770,-868.02 764,-868.02"/>
<text text-anchor="middle" x="702" y="-853.22" font-family="Helvetica,sans-Serif" font-size="11.00" fill="#222222">Travel window (Week 1)</text>
<text text-anchor="middle" x="702" y="-841.22" font-family="Helvetica,sans-Serif" font-size="11.00" fill="#222222">(EventWindow)</text>
</g>
<!-- Combine&#45;&gt;TravelWin -->
<g id="edge30" class="edge">
<title>Combine&#45;&gt;TravelWin</title>
<path fill="none" stroke="black" d="M535.48,-924.56C570.44,-909.12 618.6,-887.85 654.14,-872.16"/>
<polygon fill="black" stroke="black" points="655.61,-875.33 663.35,-868.09 652.78,-868.93 655.61,-875.33"/>
<text text-anchor="middle" x="634" y="-893.02" font-family="Times,serif" font-size="10.00">prov:used</text>
</g>
<!-- Phenotype -->
<g id="node24" class="node">
<title>Phenotype</title>
<path fill="#ede7f6" stroke="#666666" d="M710,-1059.27C710,-1059.27 474,-1059.27 474,-1059.27 468,-1059.27 462,-1053.27 462,-1047.27 462,-1047.27 462,-1035.27 462,-1035.27 462,-1029.27 468,-1023.27 474,-1023.27 474,-1023.27 710,-1023.27 710,-1023.27 716,-1023.27 722,-1029.27 722,-1035.27 722,-1035.27 722,-1047.27 722,-1047.27 722,-1053.27 716,-1059.27 710,-1059.27"/>
<text text-anchor="middle" x="592" y="-1044.47" font-family="Helvetica,sans-Serif" font-size="11.00" fill="#222222">Travel&#45;Associated Inactivity With Sleep Debt</text>
<text text-anchor="middle" x="592" y="-1032.47" font-family="Helvetica,sans-Serif" font-size="11.00" fill="#222222">(ActivityPhenotype)</text>
</g>
<!-- Phenotype&#45;&gt;Combine -->
<g id="edge31" class="edge">
<title>Phenotype&#45;&gt;Combine</title>
<path fill="none" stroke="black" d="M559.76,-1023.17C549.65,-1017 538.84,-1009.51 530,-1001.27 522.26,-994.06 515.02,-985.17 508.88,-976.67"/>
<polygon fill="black" stroke="black" points="511.71,-974.6 503.14,-968.38 505.95,-978.59 511.71,-974.6"/>
<text text-anchor="middle" x="587.5" y="-993.27" font-family="Times,serif" font-size="10.00">odim:wasComputedBy</text>
</g>
<!-- Week -->
<g id="node25" class="node">
<title>Week</title>
<path fill="#f3f4f6" stroke="#666666" d="M736.5,-963.65C736.5,-963.65 653.5,-963.65 653.5,-963.65 647.5,-963.65 641.5,-957.65 641.5,-951.65 641.5,-951.65 641.5,-939.65 641.5,-939.65 641.5,-933.65 647.5,-927.65 653.5,-927.65 653.5,-927.65 736.5,-927.65 736.5,-927.65 742.5,-927.65 748.5,-933.65 748.5,-939.65 748.5,-939.65 748.5,-951.65 748.5,-951.65 748.5,-957.65 742.5,-963.65 736.5,-963.65"/>
<text text-anchor="middle" x="695" y="-948.85" font-family="Helvetica,sans-Serif" font-size="11.00" fill="#222222">Week 1</text>
<text text-anchor="middle" x="695" y="-936.85" font-family="Helvetica,sans-Serif" font-size="11.00" fill="#222222">(WeeklyInterval)</text>
</g>
<!-- Phenotype&#45;&gt;Week -->
<g id="edge32" class="edge">
<title>Phenotype&#45;&gt;Week</title>
<path fill="none" stroke="black" d="M619.53,-1023.13C628.95,-1016.75 639.29,-1009.13 648,-1001.27 657.87,-992.37 667.64,-981.44 675.7,-971.71"/>
<polygon fill="black" stroke="black" points="678.46,-973.86 682.03,-963.89 673.02,-969.46 678.46,-973.86"/>
<text text-anchor="middle" x="706" y="-993.27" font-family="Times,serif" font-size="10.00">odim:occursDuring</text>
</g>
<!-- TravelDetect -->
<g id="node26" class="node">
<title>TravelDetect</title>
<ellipse fill="#fff2cc" stroke="#666666" cx="746" cy="-754.39" rx="111.95" ry="22.76"/>
<text text-anchor="middle" x="746" y="-757.59" font-family="Helvetica,sans-Serif" font-size="11.00" fill="#222222">Travel detection</text>
<text text-anchor="middle" x="746" y="-745.59" font-family="Helvetica,sans-Serif" font-size="11.00" fill="#222222">(AlgorithmicComputation)</text>
</g>
<!-- TravelDetect&#45;&gt;ObsLoc -->
<g id="edge9" class="edge">
<title>TravelDetect&#45;&gt;ObsLoc</title>
<path fill="none" stroke="black" d="M821.72,-737.67C861.46,-724.51 902,-700.99 902,-659.76 902,-659.76 902,-659.76 902,-353.88 902,-326.56 882.99,-301.6 865.38,-284.34"/>
<polygon fill="black" stroke="black" points="867.67,-281.69 857.98,-277.42 862.9,-286.81 867.67,-281.69"/>
<text text-anchor="middle" x="928" y="-510.51" font-family="Times,serif" font-size="10.00">prov:used</text>
</g>
<!-- TravelThresh -->
<g id="node28" class="node">
<title>TravelThresh</title>
<path fill="#ffe5d9" stroke="#666666" d="M845.5,-676.76C845.5,-676.76 714.5,-676.76 714.5,-676.76 708.5,-676.76 702.5,-670.76 702.5,-664.76 702.5,-664.76 702.5,-652.76 702.5,-652.76 702.5,-646.76 708.5,-640.76 714.5,-640.76 714.5,-640.76 845.5,-640.76 845.5,-640.76 851.5,-640.76 857.5,-646.76 857.5,-652.76 857.5,-652.76 857.5,-664.76 857.5,-664.76 857.5,-670.76 851.5,-676.76 845.5,-676.76"/>
<text text-anchor="middle" x="780" y="-661.96" font-family="Helvetica,sans-Serif" font-size="11.00" fill="#222222">Travel distance threshold</text>
<text text-anchor="middle" x="780" y="-649.96" font-family="Helvetica,sans-Serif" font-size="11.00" fill="#222222">(prov:Entity)</text>
</g>
<!-- TravelDetect&#45;&gt;TravelThresh -->
<g id="edge10" class="edge">
<title>TravelDetect&#45;&gt;TravelThresh</title>
<path fill="none" stroke="black" d="M753.89,-731.68C758.75,-718.29 765.02,-701.01 770.2,-686.75"/>
<polygon fill="black" stroke="black" points="773.62,-687.59 773.74,-676.99 767.04,-685.2 773.62,-687.59"/>
<text text-anchor="middle" x="791" y="-701.76" font-family="Times,serif" font-size="10.00">prov:used</text>
</g>
<!-- TravelWin&#45;&gt;TravelDetect -->
<g id="edge11" class="edge">
<title>TravelWin&#45;&gt;TravelDetect</title>
<path fill="none" stroke="black" d="M710.07,-831.85C716.07,-819.08 724.42,-801.32 731.56,-786.13"/>
<polygon fill="black" stroke="black" points="734.73,-787.61 735.81,-777.07 728.39,-784.63 734.73,-787.61"/>
<text text-anchor="middle" x="782.5" y="-802.02" font-family="Times,serif" font-size="10.00">odim:wasComputedBy</text>
</g>
</g>
</svg>
