<?xml version="1.0" encoding="UTF-8" standalone="no"?>
<!DOCTYPE svg PUBLIC "-//W3C//DTD SVG 1.1//EN"
 "http://www.w3.org/Graphics/SVG/1.1/DTD/svg11.dtd">
<!-- Generated by graphviz version 2.43.0 (0)
 -->
<!-- Title: DemoFlow Pages: 1 -->
<svg width="2248pt" height="1106pt"
 viewBox="0.00 0.00 2248.00 1106.27" xmlns="http://www.w3.org/2000/svg" xmlns:xlink="http://www.w3.org/1999/xlink">
<g id="graph0" class="graph" transform="scale(1 1) rotate(0) translate(4 1102.27)">
<title>DemoFlow</title>
<polygon fill="white" stroke="transparent" points="-4,4 -4,-1102.27 2244,-1102.27 2244,4 -4,4"/>
<g id="clust1" class="cluster">
<title>cluster_legend</title>
<polygon fill="none" stroke="#e5e5e5" stroke-dasharray="5,2" points="8,-1015.27 8,-1086.27 1073,-1086.27 1073,-1015.27 8,-1015.27"/>
<text text-anchor="middle" x="36" y="-1074.27" font-family="Times,serif" font-size="10.00">Legend</text>
</g>
<g id="clust2" class="cluster">
<title>cluster_raw</title>
<polygon fill="none" stroke="#999999" stroke-dasharray="5,2" points="1458,-8 1458,-83 1918,-83 1918,-8 1458,-8"/>
<text text-anchor="middle" x="1529.5" y="-67.8" font-family="Times,serif" font-size="14.00">Raw (prov:Entity)</text>
</g>
<g id="clust3" class="cluster">
<title>cluster_import</title>
<polygon fill="none" stroke="#999999" stroke-dasharray="5,2" points="1552,-116 1552,-200.25 1809,-200.25 1809,-116 1552,-116"/>
<text text-anchor="middle" x="1680.5" y="-185.05" font-family="Times,serif" font-size="14.00">Import (odim:DataTransferEvent)</text>
</g>
<g id="clust4" class="cluster">
<title>cluster_obs</title>
</g>
<g id="clust5" class="cluster">
<title>cluster_daily</title>
<polygon fill="none" stroke="#999999" stroke-dasharray="5,2" points="1034,-324.25 1034,-499.51 1831,-499.51 1831,-324.25 1034,-324.25"/>
<text text-anchor="middle" x="1176" y="-484.31" font-family="Times,serif" font-size="14.00">Daily features (odim:DerivedFeature)</text>
</g>
<g id="clust6" class="cluster">
<title>cluster_weekly</title>
<polygon fill="none" stroke="#999999" stroke-dasharray="5,2" points="1081,-532.51 1081,-1090.27 1878,-1090.27 1878,-532.51 1081,-532.51"/>
<text text-anchor="middle" x="1248.5" y="-1075.07" font-family="Times,serif" font-size="14.00">Weekly aggregates → decisions → phenotype</text>
</g>
<!-- Lraw -->
<g id="node1" class="node">
<title>Lraw</title>
<path fill="#eeeeee" stroke="#666666" d="M1052.5,-1059.27C1052.5,-1059.27 963.5,-1059.27 963.5,-1059.27 957.5,-1059.27 951.5,-1053.27 951.5,-1047.27 951.5,-1047.27 951.5,-1035.27 951.5,-1035.27 951.5,-1029.27 957.5,-1023.27 963.5,-1023.27 963.5,-1023.27 1052.5,-1023.27 1052.5,-1023.27 1058.5,-1023.27 1064.5,-1029.27 1064.5,-1035.27 1064.5,-1035.27 1064.5,-1047.27 1064.5,-1047.27 1064.5,-1053.27 1058.5,-1059.27 1052.5,-1059.27"/>
<text text-anchor="middle" x="1008" y="-1038.47" font-family="Helvetica,sans-Serif" font-size="11.00" fill="#222222">Raw (prov:Entity)</text>
</g>
<!-- Lobs -->
<g id="node2" class="node">
<title>Lobs</title>
<path fill="#ddeeff" stroke="#666666" d="M910.5,-1059.27C910.5,-1059.27 805.5,-1059.27 805.5,-1059.27 799.5,-1059.27 793.5,-1053.27 793.5,-1047.27 793.5,-1047.27 793.5,-1035.27 793.5,-1035.27 793.5,-1029.27 799.5,-1023.27 805.5,-1023.27 805.5,-1023.27 910.5,-1023.27 910.5,-1023.27 916.5,-1023.27 922.5,-1029.27 922.5,-1035.27 922.5,-1035.27 922.5,-1047.27 922.5,-1047.27 922.5,-1053.27 916.5,-1059.27 910.5,-1059.27"/>
<text text-anchor="middle" x="858" y="-1038.47" font-family="Helvetica,sans-Serif" font-size="11.00" fill="#222222">Observation (entity)</text>
</g>
<!-- Lfeat -->
<g id="node3" class="node">
<title>Lfeat</title>
<path fill="#e2f0d9" stroke="#666666" d="M752,-1059.27C752,-1059.27 628,-1059.27 628,-1059.27 622,-1059.27 616,-1053.27 616,-1047.27 616,-1047.27 616,-1035.27 616,-1035.27 616,-1029.27 622,-1023.27 628,-1023.27 628,-1023.27 752,-1023.27 752,-1023.27 758,-1023.27 764,-1029.27 764,-1035.27 764,-1035.27 764,-1047.27 764,-1047.27 764,-1053.27 758,-1059.27 752,-1059.27"/>
<text text-anchor="middle" x="690" y="-1038.47" font-family="Helvetica,sans-Serif" font-size="11.00" fill="#222222">Derived feature (entity)</text>
</g>
<!-- Lact -->
<g id="node4" class="node">
<title>Lact</title>
<ellipse fill="#fff2cc" stroke="#666666" cx="502" cy="-1041.27" rx="84.58" ry="18"/>
<text text-anchor="middle" x="502" y="-1038.47" font-family="Helvetica,sans-Serif" font-size="11.00" fill="#222222">Computation (activity)</text>
</g>
<!-- Lparam -->
<g id="node5" class="node">
<title>Lparam</title>
<path fill="#ffe5d9" stroke="#666666" d="M376,-1059.27C376,-1059.27 254,-1059.27 254,-1059.27 248,-1059.27 242,-1053.27 242,-1047.27 242,-1047.27 242,-1035.27 242,-1035.27 242,-1029.27 248,-1023.27 254,-1023.27 254,-1023.27 376,-1023.27 376,-1023.27 382,-1023.27 388,-1029.27 388,-1035.27 388,-1035.27 388,-1047.27 388,-1047.27 388,-1053.27 382,-1059.27 376,-1059.27"/>
<text text-anchor="middle" x="315" y="-1038.47" font-family="Helvetica,sans-Serif" font-size="11.00" fill="#222222">Parameter (prov:Entity)</text>
</g>
<!-- Lwin -->
<g id="node6" class="node">
<title>Lwin</title>
<path fill="#fde2e4" stroke="#666666" d="M200.5,-1059.27C200.5,-1059.27 131.5,-1059.27 131.5,-1059.27 125.5,-1059.27 119.5,-1053.27 119.5,-1047.27 119.5,-1047.27 119.5,-1035.27 119.5,-1035.27 119.5,-1029.27 125.5,-1023.27 131.5,-1023.27 131.5,-1023.27 200.5,-1023.27 200.5,-1023.27 206.5,-1023.27 212.5,-1029.27 212.5,-1035.27 212.5,-1035.27 212.5,-1047.27 212.5,-1047.27 212.5,-1053.27 206.5,-1059.27 200.5,-1059.27"/>
<text text-anchor="middle" x="166" y="-1038.47" font-family="Helvetica,sans-Serif" font-size="11.00" fill="#222222">Event window</text>
</g>
<!-- Lpheno -->
<g id="node7" class="node">
<title>Lpheno</title>
<path fill="#ede7f6" stroke="#666666" d="M78.5,-1059.27C78.5,-1059.27 27.5,-1059.27 27.5,-1059.27 21.5,-1059.27 15.5,-1053.27 15.5,-1047.27 15.5,-1047.27 15.5,-1035.27 15.5,-1035.27 15.5,-1029.27 21.5,-1023.27 27.5,-1023.27 27.5,-1023.27 78.5,-1023.27 78.5,-1023.27 84.5,-1023.27 90.5,-1029.27 90.5,-1035.27 90.5,-1035.27 90.5,-1047.27 90.5,-1047.27 90.5,-1053.27 84.5,-1059.27 78.5,-1059.27"/>
<text text-anchor="middle" x="53" y="-1038.47" font-family="Helvetica,sans-Serif" font-size="11.00" fill="#222222">Phenotype</text>
</g>
<!-- RawSteps -->
<g id="node8" class="node">
<title>RawSteps</title>
<path fill="#eeeeee" stroke="#666666" d="M1577.5,-52C1577.5,-52 1478.5,-52 1478.5,-52 1472.5,-52 1466.5,-46 1466.5,-40 1466.5,-40 1466.5,-28 1466.5,-28 1466.5,-22 1472.5,-16 1478.5,-16 1478.5,-16 1577.5,-16 1577.5,-16 1583.5,-16 1589.5,-22 1589.5,-28 1589.5,-28 1589.5,-40 1589.5,-40 1589.5,-46 1583.5,-52 1577.5,-52"/>
<text text-anchor="middle" x="1528" y="-37.2" font-family="Helvetica,sans-Serif" font-size="11.00" fill="#222222">odim:RawStepsCSV</text>
<text text-anchor="middle" x="1528" y="-25.2" font-family="Helvetica,sans-Serif" font-size="11.00" fill="#222222">(prov:Entity)</text>
</g>
<!-- RawSleep -->
<g id="node9" class="node">
<title>RawSleep</title>
<path fill="#eeeeee" stroke="#666666" d="M1729,-52C1729,-52 1631,-52 1631,-52 1625,-52 1619,-46 1619,-40 1619,-40 1619,-28 1619,-28 1619,-22 1625,-16 1631,-16 1631,-16 1729,-16 1729,-16 1735,-16 1741,-22 1741,-28 1741,-28 1741,-40 1741,-40 1741,-46 1735,-52 1729,-52"/>
<text text-anchor="middle" x="1680" y="-37.2" font-family="Helvetica,sans-Serif" font-size="11.00" fill="#222222">odim:RawSleepCSV</text>
<text text-anchor="middle" x="1680" y="-25.2" font-family="Helvetica,sans-Serif" font-size="11.00" fill="#222222">(prov:Entity)</text>
</g>
<!-- RawLoc -->
<g id="node10" class="node">
<title>RawLoc</title>
<path fill="#eeeeee" stroke="#666666" d="M1897.5,-52C1897.5,-52 1782.5,-52 1782.5,-52 1776.5,-52 1770.5,-46 1770.5,-40 1770.5,-40 1770.5,-28 1770.5,-28 1770.5,-22 1776.5,-16 1782.5,-16 1782.5,-16 1897.5,-16 1897.5,-16 1903.5,-16 1909.5,-22 1909.5,-28 1909.5,-28 1909.5,-40 1909.5,-40 1909.5,-46 1903.5,-52 1897.5,-52"/>
<text text-anchor="middle" x="1840" y="-37.2" font-family="Helvetica,sans-Serif" font-size="11.00" fill="#222222">odim:RawLocationCSV</text>
<text text-anchor="middle" x="1840" y="-25.2" font-family="Helvetica,sans-Serif" font-size="11.00" fill="#222222">(prov:Entity)</text>
</g>
<!-- Import -->
<g id="node11" class="node">
<title>Import</title>
<ellipse fill="#fff2cc" stroke="#666666" cx="1680" cy="-146.63" rx="111.95" ry="22.76"/>
<text text-anchor="middle" x="1680" y="-149.83" font-family="Helvetica,sans-Serif" font-size="11.00" fill="#222222">odim:A_Import</text>
<text text-anchor="middle" x="1680" y="-137.83" font-family="Helvetica,sans-Serif" font-size="11.00" fill="#222222">(odim:DataTransferEvent)</text>
</g>
<!-- Import&#45;&gt;RawSteps -->
<g id="edge1" class="edge">
<title>Import&#45;&gt;RawSteps</title>
<path fill="none" stroke="black" d="M1651.05,-124.56C1624.94,-105.55 1586.6,-77.65 1559.68,-58.05"/>
<polygon fill="black" stroke="black" points="1561.51,-55.06 1551.36,-52.01 1557.39,-60.72 1561.51,-55.06"/>
<text text-anchor="middle" x="1644" y="-94" font-family="Times,serif" font-size="10.00">prov:used</text>
</g>
<!-- Import&#45;&gt;RawSleep -->
<g id="edge2" class="edge">
<title>Import&#45;&gt;RawSleep</title>
<path fill="none" stroke="black" d="M1680,-123.77C1680,-106.11 1680,-81.15 1680,-62.2"/>
<polygon fill="black" stroke="black" points="1683.5,-62.1 1680,-52.1 1676.5,-62.1 1683.5,-62.1"/>
<text text-anchor="middle" x="1706" y="-94" font-family="Times,serif" font-size="10.00">prov:used</text>
</g>
<!-- Import&#45;&gt;RawLoc -->
<g id="edge3" class="edge">
<title>Import&#45;&gt;RawLoc</title>
<path fill="none" stroke="black" d="M1710.09,-124.82C1737.66,-105.76 1778.38,-77.6 1806.87,-57.91"/>
<polygon fill="black" stroke="black" points="1809.05,-60.65 1815.29,-52.09 1805.07,-54.9 1809.05,-60.65"/>
<text text-anchor="middle" x="1782" y="-94" font-family="Times,serif" font-size="10.00">prov:used</text>
</g>
<!-- ObsSteps -->
<g id="node12" class="node">
<title>ObsSteps</title>
<path fill="#ddeeff" stroke="#666666" d="M1542,-277.25C1542,-277.25 1392,-277.25 1392,-277.25 1386,-277.25 1380,-271.25 1380,-265.25 1380,-265.25 1380,-253.25 1380,-253.25 1380,-247.25 1386,-241.25 1392,-241.25 1392,-241.25 1542,-241.25 1542,-241.25 1548,-241.25 1554,-247.25 1554,-253.25 1554,-253.25 1554,-265.25 1554,-265.25 1554,-271.25 1548,-277.25 1542,-277.25"/>
<text text-anchor="middle" x="1467" y="-262.45" font-family="Helvetica,sans-Serif" font-size="11.00" fill="#222222">odim:Obs_Steps_D1</text>
<text text-anchor="middle" x="1467" y="-250.45" font-family="Helvetica,sans-Serif" font-size="11.00" fill="#222222">(odim:ActivityMeasurement)</text>
</g>
<!-- ObsSteps&#45;&gt;Import -->
<g id="edge4" class="edge">
<title>ObsSteps&#45;&gt;Import</title>
<path fill="none" stroke="black" d="M1496.8,-241.22C1514.23,-231.37 1536.73,-218.87 1557,-208.25 1580.34,-196.03 1606.49,-183.04 1628.66,-172.23"/>
<polygon fill="black" stroke="black" points="1630.43,-175.26 1637.9,-167.75 1627.37,-168.97 1630.43,-175.26"/>
<text text-anchor="middle" x="1615" y="-211.25" font-family="Times,serif" font-size="10.00">odim:wasGeneratedBy</text>
</g>
<!-- ObsSleep -->
<g id="node13" class="node">
<title>ObsSleep</title>
<path fill="#ddeeff" stroke="#666666" d="M1765,-277.25C1765,-277.25 1595,-277.25 1595,-277.25 1589,-277.25 1583,-271.25 1583,-265.25 1583,-265.25 1583,-253.25 1583,-253.25 1583,-247.25 1589,-241.25 1595,-241.25 1595,-241.25 1765,-241.25 1765,-241.25 1771,-241.25 1777,-247.25 1777,-253.25 1777,-253.25 1777,-265.25 1777,-265.25 1777,-271.25 1771,-277.25 1765,-277.25"/>
<text text-anchor="middle" x="1680" y="-262.45" font-family="Helvetica,sans-Serif" font-size="11.00" fill="#222222">odim:Obs_Sleep_D1</text>
<text text-anchor="middle" x="1680" y="-250.45" font-family="Helvetica,sans-Serif" font-size="11.00" fill="#222222">(odim:SleepStageMeasurement)</text>
</g>
<!-- ObsSleep&#45;&gt;Import -->
<g id="edge5" class="edge">
<title>ObsSleep&#45;&gt;Import</title>
<path fill="none" stroke="black" d="M1680,-240.97C1680,-224.59 1680,-199.58 1680,-179.58"/>
<polygon fill="black" stroke="black" points="1683.5,-179.35 1680,-169.35 1676.5,-179.35 1683.5,-179.35"/>
<text text-anchor="middle" x="1738" y="-211.25" font-family="Times,serif" font-size="10.00">odim:wasGeneratedBy</text>
</g>
<!-- ObsLoc -->
<g id="node14" class="node">
<title>ObsLoc</title>
<path fill="#ddeeff" stroke="#666666" d="M1993.5,-277.25C1993.5,-277.25 1828.5,-277.25 1828.5,-277.25 1822.5,-277.25 1816.5,-271.25 1816.5,-265.25 1816.5,-265.25 1816.5,-253.25 1816.5,-253.25 1816.5,-247.25 1822.5,-241.25 1828.5,-241.25 1828.5,-241.25 1993.5,-241.25 1993.5,-241.25 1999.5,-241.25 2005.5,-247.25 2005.5,-253.25 2005.5,-253.25 2005.5,-265.25 2005.5,-265.25 2005.5,-271.25 1999.5,-277.25 1993.5,-277.25"/>
<text text-anchor="middle" x="1911" y="-262.45" font-family="Helvetica,sans-Serif" font-size="11.00" fill="#222222">odim:Obs_Location_D1</text>
<text text-anchor="middle" x="1911" y="-250.45" font-family="Helvetica,sans-Serif" font-size="11.00" fill="#222222">(odim:DeviceLocationEstimate)</text>
</g>
<!-- ObsLoc&#45;&gt;Import -->
<g id="edge6" class="edge">
<title>ObsLoc&#45;&gt;Import</title>
<path fill="none" stroke="black" d="M1875.41,-241.21C1836.78,-222.71 1774.74,-193 1730.95,-172.03"/>
<polygon fill="black" stroke="black" points="1732.42,-168.85 1721.89,-167.69 1729.4,-175.17 1732.42,-168.85"/>
<text text-anchor="middle" x="1881" y="-211.25" font-family="Times,serif" font-size="10.00">odim:wasGeneratedBy</text>
</g>
<!-- ObsDots -->
<g id="node15" class="node">
<title>ObsDots</title>
<path fill="white" stroke="transparent" d="M2041,-676.76C2041,-676.76 1987,-676.76 1987,-676.76 1981,-676.76 1975,-670.76 1975,-664.76 1975,-664.76 1975,-652.76 1975,-652.76 1975,-646.76 1981,-640.76 1987,-640.76 1987,-640.76 2041,-640.76 2041,-640.76 2047,-640.76 2053,-646.76 2053,-652.76 2053,-652.76 2053,-664.76 2053,-664.76 2053,-670.76 2047,-676.76 2041,-676.76"/>
<text text-anchor="middle" x="2014" y="-655.96" font-family="Helvetica,sans-Serif" font-size="11.00" fill="#222222">… (D2..D7)</text>
</g>
<!-- DailyComp -->
<g id="node16" class="node">
<title>DailyComp</title>
<ellipse fill="#fff2cc" stroke="#666666" cx="1467" cy="-354.88" rx="133.79" ry="22.76"/>
<text text-anchor="middle" x="1467" y="-358.08" font-family="Helvetica,sans-Serif" font-size="11.00" fill="#222222">odim:A_DailySummary</text>
<text text-anchor="middle" x="1467" y="-346.08" font-family="Helvetica,sans-Serif" font-size="11.00" fill="#222222">(odim:AlgorithmicComputation)</text>
</g>
<!-- DailyComp&#45;&gt;ObsSteps -->
<g id="edge7" class="edge">
<title>DailyComp&#45;&gt;ObsSteps</title>
<path fill="none" stroke="black" d="M1467,-332.17C1467,-318.91 1467,-301.84 1467,-287.65"/>
<polygon fill="black" stroke="black" points="1470.5,-287.48 1467,-277.48 1463.5,-287.48 1470.5,-287.48"/>
<text text-anchor="middle" x="1493" y="-302.25" font-family="Times,serif" font-size="10.00">prov:used</text>
</g>
<!-- DailyComp&#45;&gt;ObsSleep -->
<g id="edge8" class="edge">
<title>DailyComp&#45;&gt;ObsSleep</title>
<path fill="none" stroke="black" d="M1513.22,-333.57C1548.26,-318.16 1596.29,-297.05 1631.81,-281.44"/>
<polygon fill="black" stroke="black" points="1633.26,-284.62 1641.01,-277.39 1630.45,-278.21 1633.26,-284.62"/>
<text text-anchor="middle" x="1613" y="-302.25" font-family="Times,serif" font-size="10.00">prov:used</text>
</g>
<!-- F1 -->
<g id="node17" class="node">
<title>F1</title>
<path fill="#e2f0d9" stroke="#666666" d="M1171.5,-468.51C1171.5,-468.51 1054.5,-468.51 1054.5,-468.51 1048.5,-468.51 1042.5,-462.51 1042.5,-456.51 1042.5,-456.51 1042.5,-444.51 1042.5,-444.51 1042.5,-438.51 1048.5,-432.51 1054.5,-432.51 1054.5,-432.51 1171.5,-432.51 1171.5,-432.51 1177.5,-432.51 1183.5,-438.51 1183.5,-444.51 1183.5,-444.51 1183.5,-456.51 1183.5,-456.51 1183.5,-462.51 1177.5,-468.51 1171.5,-468.51"/>
<text text-anchor="middle" x="1113" y="-453.71" font-family="Helvetica,sans-Serif" font-size="11.00" fill="#222222">odim:F_DailySteps_D1</text>
<text text-anchor="middle" x="1113" y="-441.71" font-family="Helvetica,sans-Serif" font-size="11.00" fill="#222222">(odim:DerivedFeature)</text>
</g>
<!-- F1&#45;&gt;DailyComp -->
<g id="edge13" class="edge">
<title>F1&#45;&gt;DailyComp</title>
<path fill="none" stroke="black" d="M1132.98,-432.42C1147.14,-421.25 1167.09,-407.33 1187,-399.51 1232.85,-381.49 1285.67,-370.9 1332.99,-364.67"/>
<polygon fill="black" stroke="black" points="1333.51,-368.13 1343,-363.41 1332.64,-361.19 1333.51,-368.13"/>
<text text-anchor="middle" x="1244.5" y="-402.51" font-family="Times,serif" font-size="10.00">odim:wasComputedBy</text>
</g>
<!-- F2 -->
<g id="node18" class="node">
<title>F2</title>
<path fill="#e2f0d9" stroke="#666666" d="M1341.5,-468.51C1341.5,-468.51 1224.5,-468.51 1224.5,-468.51 1218.5,-468.51 1212.5,-462.51 1212.5,-456.51 1212.5,-456.51 1212.5,-444.51 1212.5,-444.51 1212.5,-438.51 1218.5,-432.51 1224.5,-432.51 1224.5,-432.51 1341.5,-432.51 1341.5,-432.51 1347.5,-432.51 1353.5,-438.51 1353.5,-444.51 1353.5,-444.51 1353.5,-456.51 1353.5,-456.51 1353.5,-462.51 1347.5,-468.51 1341.5,-468.51"/>
<text text-anchor="middle" x="1283" y="-453.71" font-family="Helvetica,sans-Serif" font-size="11.00" fill="#222222">odim:F_DailySteps_D2</text>
<text text-anchor="middle" x="1283" y="-441.71" font-family="Helvetica,sans-Serif" font-size="11.00" fill="#222222">(odim:DerivedFeature)</text>
</g>
<!-- F2&#45;&gt;DailyComp -->
<g id="edge14" class="edge">
<title>F2&#45;&gt;DailyComp</title>
<path fill="none" stroke="black" d="M1291.84,-432.41C1298.28,-421.52 1307.97,-407.94 1320,-399.51 1334.81,-389.13 1352.11,-381.19 1369.53,-375.13"/>
<polygon fill="black" stroke="black" points="1370.8,-378.39 1379.21,-371.94 1368.62,-371.74 1370.8,-378.39"/>
<text text-anchor="middle" x="1377.5" y="-402.51" font-family="Times,serif" font-size="10.00">odim:wasComputedBy</text>
</g>
<!-- FDots -->
<g id="node19" class="node">
<title>FDots</title>
<path fill="white" stroke="transparent" d="M1449,-468.51C1449,-468.51 1395,-468.51 1395,-468.51 1389,-468.51 1383,-462.51 1383,-456.51 1383,-456.51 1383,-444.51 1383,-444.51 1383,-438.51 1389,-432.51 1395,-432.51 1395,-432.51 1449,-432.51 1449,-432.51 1455,-432.51 1461,-438.51 1461,-444.51 1461,-444.51 1461,-456.51 1461,-456.51 1461,-462.51 1455,-468.51 1449,-468.51"/>
<text text-anchor="middle" x="1422" y="-447.71" font-family="Helvetica,sans-Serif" font-size="11.00" fill="#666666">… (D3..D7)</text>
</g>
<!-- FDots&#45;&gt;DailyComp -->
<g id="edge17" class="edge">
<title>FDots&#45;&gt;DailyComp</title>
<path fill="none" stroke="black" stroke-dasharray="1,5" d="M1430.25,-432.34C1437.66,-416.92 1448.57,-394.22 1456.58,-377.56"/>
</g>
<!-- SQ1 -->
<g id="node20" class="node">
<title>SQ1</title>
<path fill="#e2f0d9" stroke="#666666" d="M1630,-468.51C1630,-468.51 1502,-468.51 1502,-468.51 1496,-468.51 1490,-462.51 1490,-456.51 1490,-456.51 1490,-444.51 1490,-444.51 1490,-438.51 1496,-432.51 1502,-432.51 1502,-432.51 1630,-432.51 1630,-432.51 1636,-432.51 1642,-438.51 1642,-444.51 1642,-444.51 1642,-456.51 1642,-456.51 1642,-462.51 1636,-468.51 1630,-468.51"/>
<text text-anchor="middle" x="1566" y="-453.71" font-family="Helvetica,sans-Serif" font-size="11.00" fill="#222222">odim:F_SleepMinutes_D1</text>
<text text-anchor="middle" x="1566" y="-441.71" font-family="Helvetica,sans-Serif" font-size="11.00" fill="#222222">(odim:DerivedFeature)</text>
</g>
<!-- SQ1&#45;&gt;DailyComp -->
<g id="edge15" class="edge">
<title>SQ1&#45;&gt;DailyComp</title>
<path fill="none" stroke="black" d="M1547.84,-432.34C1533.61,-418.88 1513.51,-399.86 1496.91,-384.17"/>
<polygon fill="black" stroke="black" points="1499.23,-381.55 1489.56,-377.22 1494.42,-386.63 1499.23,-381.55"/>
<text text-anchor="middle" x="1580.5" y="-402.51" font-family="Times,serif" font-size="10.00">odim:wasComputedBy</text>
</g>
<!-- SQ2 -->
<g id="node21" class="node">
<title>SQ2</title>
<path fill="#e2f0d9" stroke="#666666" d="M1811,-468.51C1811,-468.51 1683,-468.51 1683,-468.51 1677,-468.51 1671,-462.51 1671,-456.51 1671,-456.51 1671,-444.51 1671,-444.51 1671,-438.51 1677,-432.51 1683,-432.51 1683,-432.51 1811,-432.51 1811,-432.51 1817,-432.51 1823,-438.51 1823,-444.51 1823,-444.51 1823,-456.51 1823,-456.51 1823,-462.51 1817,-468.51 1811,-468.51"/>
<text text-anchor="middle" x="1747" y="-453.71" font-family="Helvetica,sans-Serif" font-size="11.00" fill="#222222">odim:F_SleepMinutes_D2</text>
<text text-anchor="middle" x="1747" y="-441.71" font-family="Helvetica,sans-Serif" font-size="11.00" fill="#222222">(odim:DerivedFeature)</text>
</g>
<!-- SQ2&#45;&gt;DailyComp -->
<g id="edge16" class="edge">
<title>SQ2&#45;&gt;DailyComp</title>
<path fill="none" stroke="black" d="M1716.51,-432.41C1696.62,-421.8 1669.84,-408.52 1645,-399.51 1618.23,-389.8 1588.42,-381.54 1560.97,-374.91"/>
<polygon fill="black" stroke="black" points="1561.51,-371.44 1550.97,-372.55 1559.89,-378.26 1561.51,-371.44"/>
<text text-anchor="middle" x="1728.5" y="-402.51" font-family="Times,serif" font-size="10.00">odim:wasComputedBy</text>
</g>
<!-- WeeklySteps -->
<g id="node22" class="node">
<title>WeeklySteps</title>
<ellipse fill="#fff2cc" stroke="#666666" cx="1232" cy="-563.14" rx="133.79" ry="22.76"/>
<text text-anchor="middle" x="1232" y="-566.34" font-family="Helvetica,sans-Serif" font-size="11.00" fill="#222222">odim:A_WeeklyAggregateSteps</text>
<text text-anchor="middle" x="1232" y="-554.34" font-family="Helvetica,sans-Serif" font-size="11.00" fill="#222222">(odim:AlgorithmicComputation)</text>
</g>
<!-- WeeklySteps&#45;&gt;F1 -->
<g id="edge18" class="edge">
<title>WeeklySteps&#45;&gt;F1</title>
<path fill="none" stroke="black" d="M1209.06,-540.81C1189.05,-522.21 1160.05,-495.25 1139.15,-475.82"/>
<polygon fill="black" stroke="black" points="1141.28,-473.03 1131.58,-468.78 1136.52,-478.15 1141.28,-473.03"/>
<text text-anchor="middle" x="1210" y="-510.51" font-family="Times,serif" font-size="10.00">prov:used</text>
</g>
<!-- WeeklySteps&#45;&gt;F2 -->
<g id="edge19" class="edge">
<title>WeeklySteps&#45;&gt;F2</title>
<path fill="none" stroke="black" d="M1241.95,-540.54C1250.24,-522.58 1262.06,-496.94 1270.89,-477.78"/>
<polygon fill="black" stroke="black" points="1274.07,-479.24 1275.08,-468.7 1267.71,-476.31 1274.07,-479.24"/>
<text text-anchor="middle" x="1282" y="-510.51" font-family="Times,serif" font-size="10.00">prov:used</text>
</g>
<!-- WeeklySteps&#45;&gt;FDots -->
<g id="edge20" class="edge">
<title>WeeklySteps&#45;&gt;FDots</title>
<path fill="none" stroke="black" stroke-dasharray="1,5" d="M1284.59,-542.21C1310.64,-531.28 1342,-516.51 1368,-499.51 1381.44,-490.72 1394.94,-478.72 1405.08,-468.92"/>
</g>
<!-- MeanSteps -->
<g id="node23" class="node">
<title>MeanSteps</title>
<path fill="#e2f0d9" stroke="#666666" d="M1235.5,-676.76C1235.5,-676.76 1100.5,-676.76 1100.5,-676.76 1094.5,-676.76 1088.5,-670.76 1088.5,-664.76 1088.5,-664.76 1088.5,-652.76 1088.5,-652.76 1088.5,-646.76 1094.5,-640.76 1100.5,-640.76 1100.5,-640.76 1235.5,-640.76 1235.5,-640.76 1241.5,-640.76 1247.5,-646.76 1247.5,-652.76 1247.5,-652.76 1247.5,-664.76 1247.5,-664.76 1247.5,-670.76 1241.5,-676.76 1235.5,-676.76"/>
<text text-anchor="middle" x="1168" y="-661.96" font-family="Helvetica,sans-Serif" font-size="11.00" fill="#222222">odim:F_WeeklyMeanSteps</text>
<text text-anchor="middle" x="1168" y="-649.96" font-family="Helvetica,sans-Serif" font-size="11.00" fill="#222222">(odim:DerivedFeature)</text>
</g>
<!-- MeanSteps&#45;&gt;WeeklySteps -->
<g id="edge21" class="edge">
<title>MeanSteps&#45;&gt;WeeklySteps</title>
<path fill="none" stroke="black" d="M1179.74,-640.59C1188.55,-627.71 1200.84,-609.73 1211.28,-594.44"/>
<polygon fill="black" stroke="black" points="1214.43,-596.05 1217.18,-585.82 1208.65,-592.1 1214.43,-596.05"/>
<text text-anchor="middle" x="1259.5" y="-610.76" font-family="Times,serif" font-size="10.00">odim:wasComputedBy</text>
</g>
<!-- Thresh -->
<g id="node24" class="node">
<title>Thresh</title>
<path fill="#ffe5d9" stroke="#666666" d="M1423.5,-676.76C1423.5,-676.76 1288.5,-676.76 1288.5,-676.76 1282.5,-676.76 1276.5,-670.76 1276.5,-664.76 1276.5,-664.76 1276.5,-652.76 1276.5,-652.76 1276.5,-646.76 1282.5,-640.76 1288.5,-640.76 1288.5,-640.76 1423.5,-640.76 1423.5,-640.76 1429.5,-640.76 1435.5,-646.76 1435.5,-652.76 1435.5,-652.76 1435.5,-664.76 1435.5,-664.76 1435.5,-670.76 1429.5,-676.76 1423.5,-676.76"/>
<text text-anchor="middle" x="1356" y="-661.96" font-family="Helvetica,sans-Serif" font-size="11.00" fill="#222222">odim:Threshold_LowSteps</text>
<text text-anchor="middle" x="1356" y="-649.96" font-family="Helvetica,sans-Serif" font-size="11.00" fill="#222222">(prov:Entity)</text>
</g>
<!-- StepsDecision -->
<g id="node25" class="node">
<title>StepsDecision</title>
<ellipse fill="#fff2cc" stroke="#666666" cx="1323" cy="-754.39" rx="135.11" ry="22.76"/>
<text text-anchor="middle" x="1323" y="-757.59" font-family="Helvetica,sans-Serif" font-size="11.00" fill="#222222">odim:A_StepsThresholdDecision</text>
<text text-anchor="middle" x="1323" y="-745.59" font-family="Helvetica,sans-Serif" font-size="11.00" fill="#222222">(odim:AlgorithmicComputation)</text>
</g>
<!-- StepsDecision&#45;&gt;MeanSteps -->
<g id="edge22" class="edge">
<title>StepsDecision&#45;&gt;MeanSteps</title>
<path fill="none" stroke="black" d="M1288.21,-732.38C1263.38,-717.38 1230.05,-697.24 1204.78,-681.98"/>
<polygon fill="black" stroke="black" points="1206.57,-678.97 1196.2,-676.8 1202.95,-684.97 1206.57,-678.97"/>
<text text-anchor="middle" x="1277" y="-701.76" font-family="Times,serif" font-size="10.00">prov:used</text>
</g>
<!-- StepsDecision&#45;&gt;Thresh -->
<g id="edge23" class="edge">
<title>StepsDecision&#45;&gt;Thresh</title>
<path fill="none" stroke="black" d="M1330.65,-731.68C1335.37,-718.29 1341.46,-701.01 1346.49,-686.75"/>
<polygon fill="black" stroke="black" points="1349.9,-687.59 1349.93,-676.99 1343.3,-685.26 1349.9,-687.59"/>
<text text-anchor="middle" x="1368" y="-701.76" font-family="Times,serif" font-size="10.00">prov:used</text>
</g>
<!-- Marker -->
<g id="node26" class="node">
<title>Marker</title>
<path fill="none" stroke="#666666" stroke-width="2" d="M1442,-868.02C1442,-868.02 1242,-868.02 1242,-868.02 1236,-868.02 1230,-862.02 1230,-856.02 1230,-856.02 1230,-844.02 1230,-844.02 1230,-838.02 1236,-832.02 1242,-832.02 1242,-832.02 1442,-832.02 1442,-832.02 1448,-832.02 1454,-838.02 1454,-844.02 1454,-844.02 1454,-856.02 1454,-856.02 1454,-862.02 1448,-868.02 1442,-868.02"/>
<text text-anchor="middle" x="1342" y="-853.22" font-family="Helvetica,sans-Serif" font-size="11.00" fill="#222222">odim:Marker_LowActivityDuringTravel</text>
<text text-anchor="middle" x="1342" y="-841.22" font-family="Helvetica,sans-Serif" font-size="11.00" fill="#222222">(odim:DerivedFeature)</text>
</g>
<!-- Marker&#45;&gt;StepsDecision -->
<g id="edge24" class="edge">
<title>Marker&#45;&gt;StepsDecision</title>
<path fill="none" stroke="black" d="M1338.52,-831.85C1335.97,-819.32 1332.46,-801.99 1329.41,-786.99"/>
<polygon fill="black" stroke="black" points="1332.82,-786.17 1327.4,-777.07 1325.96,-787.57 1332.82,-786.17"/>
<text text-anchor="middle" x="1391.5" y="-802.02" font-family="Times,serif" font-size="10.00">odim:wasComputedBy</text>
</g>
<!-- WeeklySleep -->
<g id="node27" class="node">
<title>WeeklySleep</title>
<ellipse fill="#fff2cc" stroke="#666666" cx="1566" cy="-563.14" rx="162.77" ry="22.76"/>
<text text-anchor="middle" x="1566" y="-566.34" font-family="Helvetica,sans-Serif" font-size="11.00" fill="#222222">odim:A_WeeklyAggregateSleepMinutes</text>
<text text-anchor="middle" x="1566" y="-554.34" font-family="Helvetica,sans-Serif" font-size="11.00" fill="#222222">(odim:AlgorithmicComputation)</text>
</g>
<!-- WeeklySleep&#45;&gt;FDots -->
<g id="edge27" class="edge">
<title>WeeklySleep&#45;&gt;FDots</title>
<path fill="none" stroke="black" stroke-dasharray="1,5" d="M1532.82,-540.84C1515.23,-529.18 1493.5,-514.15 1475,-499.51 1462.73,-489.8 1449.7,-478.02 1439.63,-468.56"/>
</g>
<!-- WeeklySleep&#45;&gt;SQ1 -->
<g id="edge25" class="edge">
<title>WeeklySleep&#45;&gt;SQ1</title>
<path fill="none" stroke="black" d="M1566,-540.28C1566,-522.62 1566,-497.66 1566,-478.71"/>
<polygon fill="black" stroke="black" points="1569.5,-478.61 1566,-468.61 1562.5,-478.61 1569.5,-478.61"/>
<text text-anchor="middle" x="1592" y="-510.51" font-family="Times,serif" font-size="10.00">prov:used</text>
</g>
<!-- WeeklySleep&#45;&gt;SQ2 -->
<g id="edge26" class="edge">
<title>WeeklySleep&#45;&gt;SQ2</title>
<path fill="none" stroke="black" d="M1600.9,-540.81C1632.35,-521.58 1678.44,-493.41 1710.41,-473.87"/>
<polygon fill="black" stroke="black" points="1712.32,-476.81 1719.03,-468.61 1708.67,-470.83 1712.32,-476.81"/>
<text text-anchor="middle" x="1678" y="-510.51" font-family="Times,serif" font-size="10.00">prov:used</text>
</g>
<!-- MeanSleep -->
<g id="node28" class="node">
<title>MeanSleep</title>
<path fill="#e2f0d9" stroke="#666666" d="M1655,-676.76C1655,-676.76 1477,-676.76 1477,-676.76 1471,-676.76 1465,-670.76 1465,-664.76 1465,-664.76 1465,-652.76 1465,-652.76 1465,-646.76 1471,-640.76 1477,-640.76 1477,-640.76 1655,-640.76 1655,-640.76 1661,-640.76 1667,-646.76 1667,-652.76 1667,-652.76 1667,-664.76 1667,-664.76 1667,-670.76 1661,-676.76 1655,-676.76"/>
<text text-anchor="middle" x="1566" y="-661.96" font-family="Helvetica,sans-Serif" font-size="11.00" fill="#222222">odim:F_WeeklyMeanSleepMinutes</text>
<text text-anchor="middle" x="1566" y="-649.96" font-family="Helvetica,sans-Serif" font-size="11.00" fill="#222222">(odim:DerivedFeature)</text>
</g>
<!-- MeanSleep&#45;&gt;WeeklySleep -->
<g id="edge28" class="edge">
<title>MeanSleep&#45;&gt;WeeklySleep</title>
<path fill="none" stroke="black" d="M1566,-640.59C1566,-628.19 1566,-611.07 1566,-596.17"/>
<polygon fill="black" stroke="black" points="1569.5,-595.82 1566,-585.82 1562.5,-595.82 1569.5,-595.82"/>
<text text-anchor="middle" x="1623.5" y="-610.76" font-family="Times,serif" font-size="10.00">odim:wasComputedBy</text>
</g>
<!-- SleepBaseline -->
<g id="node29" class="node">
<title>SleepBaseline</title>
<path fill="#ffe5d9" stroke="#666666" d="M1857.5,-676.76C1857.5,-676.76 1708.5,-676.76 1708.5,-676.76 1702.5,-676.76 1696.5,-670.76 1696.5,-664.76 1696.5,-664.76 1696.5,-652.76 1696.5,-652.76 1696.5,-646.76 1702.5,-640.76 1708.5,-640.76 1708.5,-640.76 1857.5,-640.76 1857.5,-640.76 1863.5,-640.76 1869.5,-646.76 1869.5,-652.76 1869.5,-652.76 1869.5,-664.76 1869.5,-664.76 1869.5,-670.76 1863.5,-676.76 1857.5,-676.76"/>
<text text-anchor="middle" x="1783" y="-661.96" font-family="Helvetica,sans-Serif" font-size="11.00" fill="#222222">odim:Baseline_SleepMinutes</text>
<text text-anchor="middle" x="1783" y="-649.96" font-family="Helvetica,sans-Serif" font-size="11.00" fill="#222222">(prov:Entity)</text>
</g>
<!-- SleepDebtDecision -->
<g id="node30" class="node">
<title>SleepDebtDecision</title>
<ellipse fill="#fff2cc" stroke="#666666" cx="1621" cy="-754.39" rx="133.79" ry="22.76"/>
<text text-anchor="middle" x="1621" y="-757.59" font-family="Helvetica,sans-Serif" font-size="11.00" fill="#222222">odim:A_SleepDebtDecision</text>
<text text-anchor="middle" x="1621" y="-745.59" font-family="Helvetica,sans-Serif" font-size="11.00" fill="#222222">(odim:AlgorithmicComputation)</text>
</g>
<!-- SleepDebtDecision&#45;&gt;MeanSleep -->
<g id="edge29" class="edge">
<title>SleepDebtDecision&#45;&gt;MeanSleep</title>
<path fill="none" stroke="black" d="M1608.24,-731.68C1600.23,-718.03 1589.83,-700.34 1581.36,-685.92"/>
<polygon fill="black" stroke="black" points="1584.2,-683.84 1576.12,-676.99 1578.17,-687.39 1584.2,-683.84"/>
<text text-anchor="middle" x="1622" y="-701.76" font-family="Times,serif" font-size="10.00">prov:used</text>
</g>
<!-- SleepDebtDecision&#45;&gt;SleepBaseline -->
<g id="edge30" class="edge">
<title>SleepDebtDecision&#45;&gt;SleepBaseline</title>
<path fill="none" stroke="black" d="M1657.36,-732.38C1683.31,-717.38 1718.15,-697.24 1744.56,-681.98"/>
<polygon fill="black" stroke="black" points="1746.62,-684.83 1753.53,-676.8 1743.12,-678.77 1746.62,-684.83"/>
<text text-anchor="middle" x="1738" y="-701.76" font-family="Times,serif" font-size="10.00">prov:used</text>
</g>
<!-- SleepDebt -->
<g id="node31" class="node">
<title>SleepDebt</title>
<path fill="#e2f0d9" stroke="#666666" d="M1691.5,-868.02C1691.5,-868.02 1526.5,-868.02 1526.5,-868.02 1520.5,-868.02 1514.5,-862.02 1514.5,-856.02 1514.5,-856.02 1514.5,-844.02 1514.5,-844.02 1514.5,-838.02 1520.5,-832.02 1526.5,-832.02 1526.5,-832.02 1691.5,-832.02 1691.5,-832.02 1697.5,-832.02 1703.5,-838.02 1703.5,-844.02 1703.5,-844.02 1703.5,-856.02 1703.5,-856.02 1703.5,-862.02 1697.5,-868.02 1691.5,-868.02"/>
<text text-anchor="middle" x="1609" y="-853.22" font-family="Helvetica,sans-Serif" font-size="11.00" fill="#222222">odim:Marker_SleepDebt_Week1</text>
<text text-anchor="middle" x="1609" y="-841.22" font-family="Helvetica,sans-Serif" font-size="11.00" fill="#222222">(odim:DerivedFeature)</text>
</g>
<!-- SleepDebt&#45;&gt;SleepDebtDecision -->
<g id="edge31" class="edge">
<title>SleepDebt&#45;&gt;SleepDebtDecision</title>
<path fill="none" stroke="black" d="M1611.2,-831.85C1612.81,-819.32 1615.03,-801.99 1616.95,-786.99"/>
<polygon fill="black" stroke="black" points="1620.42,-787.43 1618.22,-777.07 1613.48,-786.54 1620.42,-787.43"/>
<text text-anchor="middle" x="1673.5" y="-802.02" font-family="Times,serif" font-size="10.00">odim:wasComputedBy</text>
</g>
<!-- Combine -->
<g id="node32" class="node">
<title>Combine</title>
<ellipse fill="#fff2cc" stroke="#666666" cx="1569" cy="-945.65" rx="133.79" ry="22.76"/>
<text text-anchor="middle" x="1569" y="-948.85" font-family="Helvetica,sans-Serif" font-size="11.00" fill="#222222">odim:A_MarkerDerivation</text>
<text text-anchor="middle" x="1569" y="-936.85" font-family="Helvetica,sans-Serif" font-size="11.00" fill="#222222">(odim:AlgorithmicComputation)</text>
</g>
<!-- Combine&#45;&gt;Marker -->
<g id="edge32" class="edge">
<title>Combine&#45;&gt;Marker</title>
<path fill="none" stroke="black" d="M1520.3,-924.56C1482.71,-909.06 1430.86,-887.67 1392.76,-871.96"/>
<polygon fill="black" stroke="black" points="1393.97,-868.67 1383.39,-868.09 1391.3,-875.14 1393.97,-868.67"/>
<text text-anchor="middle" x="1489" y="-893.02" font-family="Times,serif" font-size="10.00">prov:used</text>
</g>
<!-- Combine&#45;&gt;SleepDebt -->
<g id="edge33" class="edge">
<title>Combine&#45;&gt;SleepDebt</title>
<path fill="none" stroke="black" d="M1578.28,-922.93C1584.05,-909.41 1591.52,-891.93 1597.65,-877.59"/>
<polygon fill="black" stroke="black" points="1600.93,-878.82 1601.64,-868.25 1594.49,-876.07 1600.93,-878.82"/>
<text text-anchor="middle" x="1618" y="-893.02" font-family="Times,serif" font-size="10.00">prov:used</text>
</g>
<!-- TravelWin -->
<g id="node36" class="node">
<title>TravelWin</title>
<path fill="#fde2e4" stroke="#666666" d="M2064.5,-868.02C2064.5,-868.02 1923.5,-868.02 1923.5,-868.02 1917.5,-868.02 1911.5,-862.02 1911.5,-856.02 1911.5,-856.02 1911.5,-844.02 1911.5,-844.02 1911.5,-838.02 1917.5,-832.02 1923.5,-832.02 1923.5,-832.02 2064.5,-832.02 2064.5,-832.02 2070.5,-832.02 2076.5,-838.02 2076.5,-844.02 2076.5,-844.02 2076.5,-856.02 2076.5,-856.02 2076.5,-862.02 2070.5,-868.02 2064.5,-868.02"/>
<text text-anchor="middle" x="1994" y="-853.22" font-family="Helvetica,sans-Serif" font-size="11.00" fill="#222222">odim:TravelWindow_Week1</text>
<text text-anchor="middle" x="1994" y="-841.22" font-family="Helvetica,sans-Serif" font-size="11.00" fill="#222222">(odim:EventWindow)</text>
</g>
<!-- Combine&#45;&gt;TravelWin -->
<g id="edge34" class="edge">
<title>Combine&#45;&gt;TravelWin</title>
<path fill="none" stroke="black" d="M1647.94,-927.26C1721.34,-911.09 1830.5,-887.04 1906.52,-870.29"/>
<polygon fill="black" stroke="black" points="1907.54,-873.65 1916.56,-868.08 1906.04,-866.81 1907.54,-873.65"/>
<text text-anchor="middle" x="1833" y="-893.02" font-family="Times,serif" font-size="10.00">prov:used</text>
</g>
<!-- Phenotype -->
<g id="node33" class="node">
<title>Phenotype</title>
<path fill="none" stroke="#666666" stroke-width="2" d="M1804,-1059.27C1804,-1059.27 1492,-1059.27 1492,-1059.27 1486,-1059.27 1480,-1053.27 1480,-1047.27 1480,-1047.27 1480,-1035.27 1480,-1035.27 1480,-1029.27 1486,-1023.27 1492,-1023.27 1492,-1023.27 1804,-1023.27 1804,-1023.27 1810,-1023.27 1816,-1029.27 1816,-1035.27 1816,-1035.27 1816,-1047.27 1816,-1047.27 1816,-1053.27 1810,-1059.27 1804,-1059.27"/>
<text text-anchor="middle" x="1648" y="-1044.47" font-family="Helvetica,sans-Serif" font-size="11.00" fill="#222222">odim:Phenotype_TravelAssociatedInactivityWithSleepDebt</text>
<text text-anchor="middle" x="1648" y="-1032.47" font-family="Helvetica,sans-Serif" font-size="11.00" fill="#222222">(odim:ActivityPhenotype)</text>
</g>
<!-- Phenotype&#45;&gt;Combine -->
<g id="edge35" class="edge">
<title>Phenotype&#45;&gt;Combine</title>
<path fill="none" stroke="black" d="M1628.42,-1023.17C1621.36,-1016.62 1613.52,-1008.88 1607,-1001.27 1600.47,-993.66 1593.99,-984.93 1588.29,-976.71"/>
<polygon fill="black" stroke="black" points="1591.17,-974.71 1582.66,-968.4 1585.37,-978.64 1591.17,-974.71"/>
<text text-anchor="middle" x="1664.5" y="-993.27" font-family="Times,serif" font-size="10.00">odim:wasComputedBy</text>
</g>
<!-- Week -->
<g id="node34" class="node">
<title>Week</title>
<path fill="#f3f4f6" stroke="#666666" d="M1858,-963.65C1858,-963.65 1744,-963.65 1744,-963.65 1738,-963.65 1732,-957.65 1732,-951.65 1732,-951.65 1732,-939.65 1732,-939.65 1732,-933.65 1738,-927.65 1744,-927.65 1744,-927.65 1858,-927.65 1858,-927.65 1864,-927.65 1870,-933.65 1870,-939.65 1870,-939.65 1870,-951.65 1870,-951.65 1870,-957.65 1864,-963.65 1858,-963.65"/>
<text text-anchor="middle" x="1801" y="-948.85" font-family="Helvetica,sans-Serif" font-size="11.00" fill="#222222">odim:Week1</text>
<text text-anchor="middle" x="1801" y="-936.85" font-family="Helvetica,sans-Serif" font-size="11.00" fill="#222222">(odim:WeeklyInterval)</text>
</g>
<!-- Phenotype&#45;&gt;Week -->
<g id="edge36" class="edge">
<title>Phenotype&#45;&gt;Week</title>
<path fill="none" stroke="black" d="M1684.67,-1023.15C1697.64,-1016.71 1712.19,-1009.06 1725,-1001.27 1740.64,-991.77 1757.23,-980.06 1770.9,-969.92"/>
<polygon fill="black" stroke="black" points="1773.11,-972.64 1779.01,-963.84 1768.91,-967.04 1773.11,-972.64"/>
<text text-anchor="middle" x="1790" y="-993.27" font-family="Times,serif" font-size="10.00">odim:occursDuring</text>
</g>
<!-- TravelDetect -->
<g id="node35" class="node">
<title>TravelDetect</title>
<ellipse fill="#fff2cc" stroke="#666666" cx="2020" cy="-754.39" rx="133.79" ry="22.76"/>
<text text-anchor="middle" x="2020" y="-757.59" font-family="Helvetica,sans-Serif" font-size="11.00" fill="#222222">odim:A_TravelDetection</text>
<text text-anchor="middle" x="2020" y="-745.59" font-family="Helvetica,sans-Serif" font-size="11.00" fill="#222222">(odim:AlgorithmicComputation)</text>
</g>
<!-- TravelDetect&#45;&gt;ObsLoc -->
<g id="edge9" class="edge">
<title>TravelDetect&#45;&gt;ObsLoc</title>
<path fill="none" stroke="black" d="M1975.85,-732.97C1949.06,-717.23 1920,-692.58 1920,-659.76 1920,-659.76 1920,-659.76 1920,-353.88 1920,-331.5 1917.42,-306.23 1915.02,-287.6"/>
<polygon fill="black" stroke="black" points="1918.46,-286.9 1913.65,-277.46 1911.52,-287.84 1918.46,-286.9"/>
<text text-anchor="middle" x="1946" y="-510.51" font-family="Times,serif" font-size="10.00">prov:used</text>
</g>
<!-- TravelDetect&#45;&gt;ObsDots -->
<g id="edge10" class="edge">
<title>TravelDetect&#45;&gt;ObsDots</title>
<path fill="none" stroke="black" stroke-dasharray="1,5" d="M2018.61,-731.68C2017.54,-715.04 2016.09,-692.39 2015.1,-676.99"/>
</g>
<!-- TravelThresh -->
<g id="node37" class="node">
<title>TravelThresh</title>
<path fill="#ffe5d9" stroke="#666666" d="M2228,-676.76C2228,-676.76 2094,-676.76 2094,-676.76 2088,-676.76 2082,-670.76 2082,-664.76 2082,-664.76 2082,-652.76 2082,-652.76 2082,-646.76 2088,-640.76 2094,-640.76 2094,-640.76 2228,-640.76 2228,-640.76 2234,-640.76 2240,-646.76 2240,-652.76 2240,-652.76 2240,-664.76 2240,-664.76 2240,-670.76 2234,-676.76 2228,-676.76"/>
<text text-anchor="middle" x="2161" y="-661.96" font-family="Helvetica,sans-Serif" font-size="11.00" fill="#222222">odim:Threshold_TravelKm</text>
<text text-anchor="middle" x="2161" y="-649.96" font-family="Helvetica,sans-Serif" font-size="11.00" fill="#222222">(prov:Entity)</text>
</g>
<!-- TravelDetect&#45;&gt;TravelThresh -->
<g id="edge11" class="edge">
<title>TravelDetect&#45;&gt;TravelThresh</title>
<path fill="none" stroke="black" d="M2051.64,-732.38C2073.96,-717.56 2103.84,-697.72 2126.72,-682.53"/>
<polygon fill="black" stroke="black" points="2128.72,-685.4 2135.12,-676.95 2124.85,-679.57 2128.72,-685.4"/>
<text text-anchor="middle" x="2124" y="-701.76" font-family="Times,serif" font-size="10.00">prov:used</text>
</g>
<!-- TravelWin&#45;&gt;TravelDetect -->
<g id="edge12" class="edge">
<title>TravelWin&#45;&gt;TravelDetect</title>
<path fill="none" stroke="black" d="M1998.77,-831.85C2002.25,-819.32 2007.06,-801.99 2011.22,-786.99"/>
<polygon fill="black" stroke="black" points="2014.68,-787.64 2013.98,-777.07 2007.93,-785.77 2014.68,-787.64"/>
<text text-anchor="middle" x="2064.5" y="-802.02" font-family="Times,serif" font-size="10.00">odim:wasComputedBy</text>
</g>
</g>
</svg>
