<?xml version="1.0" encoding="UTF-8" standalone="no"?>
<!DOCTYPE svg PUBLIC "-//W3C//DTD SVG 1.1//EN"
 "http://www.w3.org/Graphics/SVG/1.1/DTD/svg11.dtd">
<!-- Generated by graphviz version 2.43.0 (0)
 -->
<!-- Title: DemoFlow Pages: 1 -->
<svg width="1274pt" height="724pt"
 viewBox="0.00 0.00 1274.00 723.76" xmlns="http://www.w3.org/2000/svg" xmlns:xlink="http://www.w3.org/1999/xlink">
<g id="graph0" class="graph" transform="scale(1 1) rotate(0) translate(4 719.76)">
<title>DemoFlow</title>
<polygon fill="white" stroke="transparent" points="-4,4 -4,-719.76 1270,-719.76 1270,4 -4,4"/>
<g id="clust1" class="cluster">
<title>cluster_legend</title>
<polygon fill="none" stroke="#e5e5e5" stroke-dasharray="5,2" points="8,-632.76 8,-703.76 519,-703.76 519,-632.76 8,-632.76"/>
<text text-anchor="middle" x="263.5" y="-691.76" font-family="Times,serif" font-size="10.00">Legend</text>
</g>
<g id="clust2" class="cluster">
<title>cluster_raw</title>
<polygon fill="none" stroke="#999999" stroke-dasharray="5,2" points="491,-8 491,-83 782,-83 782,-8 491,-8"/>
<text text-anchor="middle" x="636.5" y="-67.8" font-family="Times,serif" font-size="14.00">Raw (prov:Entity)</text>
</g>
<g id="clust3" class="cluster">
<title>cluster_import</title>
<polygon fill="none" stroke="#999999" stroke-dasharray="5,2" points="525,-116 525,-200.25 782,-200.25 782,-116 525,-116"/>
<text text-anchor="middle" x="653.5" y="-185.05" font-family="Times,serif" font-size="14.00">Import (odim:DataTransferEvent)</text>
</g>
<g id="clust4" class="cluster">
<title>cluster_obs</title>
<polygon fill="none" stroke="#999999" stroke-dasharray="5,2" points="986,-632.76 986,-707.76 1258,-707.76 1258,-632.76 986,-632.76"/>
<text text-anchor="middle" x="1122" y="-692.56" font-family="Times,serif" font-size="14.00">Observations (SOSA/ODIM entities)</text>
</g>
<g id="clust5" class="cluster">
<title>cluster_daily</title>
<polygon fill="none" stroke="#999999" stroke-dasharray="5,2" points="420,-324.25 420,-499.51 855,-499.51 855,-324.25 420,-324.25"/>
<text text-anchor="middle" x="637.5" y="-484.31" font-family="Times,serif" font-size="14.00">Daily features (DerivedFeature)</text>
</g>
<g id="clust6" class="cluster">
<title>cluster_weekly</title>
<polygon fill="none" stroke="#999999" stroke-dasharray="5,2" points="527,-532.51 527,-707.76 978,-707.76 978,-532.51 527,-532.51"/>
<text text-anchor="middle" x="752.5" y="-692.56" font-family="Times,serif" font-size="14.00">Weekly decision (DerivedFeature + context)</text>
</g>
<!-- keyE -->
<g id="node1" class="node">
<title>keyE</title>
<path fill="none" stroke="black" d="M498.5,-676.76C498.5,-676.76 357.5,-676.76 357.5,-676.76 351.5,-676.76 345.5,-670.76 345.5,-664.76 345.5,-664.76 345.5,-652.76 345.5,-652.76 345.5,-646.76 351.5,-640.76 357.5,-640.76 357.5,-640.76 498.5,-640.76 498.5,-640.76 504.5,-640.76 510.5,-646.76 510.5,-652.76 510.5,-652.76 510.5,-664.76 510.5,-664.76 510.5,-670.76 504.5,-676.76 498.5,-676.76"/>
<text text-anchor="middle" x="428" y="-655.96" font-family="Helvetica,sans-Serif" font-size="11.00">Entity (prov:Entity, odim:*)</text>
</g>
<!-- keyA -->
<g id="node2" class="node">
<title>keyA</title>
<ellipse fill="none" stroke="black" cx="166" cy="-658.76" rx="150.17" ry="18"/>
<text text-anchor="middle" x="166" y="-655.96" font-family="Helvetica,sans-Serif" font-size="11.00">Activity (prov:Activity, odim:Computation)</text>
</g>
<!-- RawSteps -->
<g id="node3" class="node">
<title>RawSteps</title>
<path fill="none" stroke="black" d="M610.5,-52C610.5,-52 511.5,-52 511.5,-52 505.5,-52 499.5,-46 499.5,-40 499.5,-40 499.5,-28 499.5,-28 499.5,-22 505.5,-16 511.5,-16 511.5,-16 610.5,-16 610.5,-16 616.5,-16 622.5,-22 622.5,-28 622.5,-28 622.5,-40 622.5,-40 622.5,-46 616.5,-52 610.5,-52"/>
<text text-anchor="middle" x="561" y="-37.2" font-family="Helvetica,sans-Serif" font-size="11.00">odim:RawStepsCSV</text>
<text text-anchor="middle" x="561" y="-25.2" font-family="Helvetica,sans-Serif" font-size="11.00">(prov:Entity)</text>
</g>
<!-- RawSleep -->
<g id="node4" class="node">
<title>RawSleep</title>
<path fill="none" stroke="black" d="M762,-52C762,-52 664,-52 664,-52 658,-52 652,-46 652,-40 652,-40 652,-28 652,-28 652,-22 658,-16 664,-16 664,-16 762,-16 762,-16 768,-16 774,-22 774,-28 774,-28 774,-40 774,-40 774,-46 768,-52 762,-52"/>
<text text-anchor="middle" x="713" y="-37.2" font-family="Helvetica,sans-Serif" font-size="11.00">odim:RawSleepCSV</text>
<text text-anchor="middle" x="713" y="-25.2" font-family="Helvetica,sans-Serif" font-size="11.00">(prov:Entity)</text>
</g>
<!-- Import -->
<g id="node5" class="node">
<title>Import</title>
<ellipse fill="none" stroke="black" cx="653" cy="-146.63" rx="111.95" ry="22.76"/>
<text text-anchor="middle" x="653" y="-149.83" font-family="Helvetica,sans-Serif" font-size="11.00">odim:A_Import</text>
<text text-anchor="middle" x="653" y="-137.83" font-family="Helvetica,sans-Serif" font-size="11.00">(odim:DataTransferEvent)</text>
</g>
<!-- Import&#45;&gt;RawSteps -->
<g id="edge1" class="edge">
<title>Import&#45;&gt;RawSteps</title>
<path fill="none" stroke="black" d="M635.04,-124.03C619.76,-105.66 597.8,-79.25 581.77,-59.97"/>
<polygon fill="black" stroke="black" points="584.38,-57.64 575.29,-52.19 579,-62.11 584.38,-57.64"/>
<text text-anchor="middle" x="641" y="-94" font-family="Times,serif" font-size="10.00">prov:used</text>
</g>
<!-- Import&#45;&gt;RawSleep -->
<g id="edge2" class="edge">
<title>Import&#45;&gt;RawSleep</title>
<path fill="none" stroke="black" d="M664.71,-124.03C674.5,-105.99 688.49,-80.19 698.89,-61.01"/>
<polygon fill="black" stroke="black" points="701.99,-62.64 703.68,-52.19 695.83,-59.31 701.99,-62.64"/>
<text text-anchor="middle" x="707" y="-94" font-family="Times,serif" font-size="10.00">prov:used</text>
</g>
<!-- ObsSteps -->
<g id="node6" class="node">
<title>ObsSteps</title>
<path fill="none" stroke="black" d="M622,-277.25C622,-277.25 472,-277.25 472,-277.25 466,-277.25 460,-271.25 460,-265.25 460,-265.25 460,-253.25 460,-253.25 460,-247.25 466,-241.25 472,-241.25 472,-241.25 622,-241.25 622,-241.25 628,-241.25 634,-247.25 634,-253.25 634,-253.25 634,-265.25 634,-265.25 634,-271.25 628,-277.25 622,-277.25"/>
<text text-anchor="middle" x="547" y="-262.45" font-family="Helvetica,sans-Serif" font-size="11.00">odim:Obs_Steps_D1</text>
<text text-anchor="middle" x="547" y="-250.45" font-family="Helvetica,sans-Serif" font-size="11.00">(odim:ActivityMeasurement)</text>
</g>
<!-- ObsSteps&#45;&gt;Import -->
<g id="edge3" class="edge">
<title>ObsSteps&#45;&gt;Import</title>
<path fill="none" stroke="black" d="M562.18,-240.92C570.8,-231.19 581.86,-218.91 592,-208.25 602.19,-197.55 613.62,-186.06 623.8,-175.99"/>
<polygon fill="black" stroke="black" points="626.29,-178.45 630.97,-168.94 621.38,-173.46 626.29,-178.45"/>
<text text-anchor="middle" x="650" y="-211.25" font-family="Times,serif" font-size="10.00">odim:wasGeneratedBy</text>
</g>
<!-- ObsSleep -->
<g id="node7" class="node">
<title>ObsSleep</title>
<path fill="none" stroke="black" d="M845,-277.25C845,-277.25 675,-277.25 675,-277.25 669,-277.25 663,-271.25 663,-265.25 663,-265.25 663,-253.25 663,-253.25 663,-247.25 669,-241.25 675,-241.25 675,-241.25 845,-241.25 845,-241.25 851,-241.25 857,-247.25 857,-253.25 857,-253.25 857,-265.25 857,-265.25 857,-271.25 851,-277.25 845,-277.25"/>
<text text-anchor="middle" x="760" y="-262.45" font-family="Helvetica,sans-Serif" font-size="11.00">odim:Obs_Sleep_D1</text>
<text text-anchor="middle" x="760" y="-250.45" font-family="Helvetica,sans-Serif" font-size="11.00">(odim:SleepStageMeasurement)</text>
</g>
<!-- ObsSleep&#45;&gt;Import -->
<g id="edge4" class="edge">
<title>ObsSleep&#45;&gt;Import</title>
<path fill="none" stroke="black" d="M743.28,-240.97C726.53,-223.65 700.45,-196.69 680.62,-176.19"/>
<polygon fill="black" stroke="black" points="683.1,-173.71 673.63,-168.96 678.07,-178.58 683.1,-173.71"/>
<text text-anchor="middle" x="777" y="-211.25" font-family="Times,serif" font-size="10.00">odim:wasGeneratedBy</text>
</g>
<!-- ObsDots -->
<g id="node8" class="node">
<title>ObsDots</title>
<text text-anchor="middle" x="1122" y="-655.96" font-family="Helvetica,sans-Serif" font-size="11.00">… (D2..D7)</text>
</g>
<!-- DailyComp -->
<g id="node9" class="node">
<title>DailyComp</title>
<ellipse fill="none" stroke="black" cx="669" cy="-354.88" rx="133.79" ry="22.76"/>
<text text-anchor="middle" x="669" y="-358.08" font-family="Helvetica,sans-Serif" font-size="11.00">odim:A_DailySummary</text>
<text text-anchor="middle" x="669" y="-346.08" font-family="Helvetica,sans-Serif" font-size="11.00">(odim:AlgorithmicComputation)</text>
</g>
<!-- DailyComp&#45;&gt;ObsSteps -->
<g id="edge5" class="edge">
<title>DailyComp&#45;&gt;ObsSteps</title>
<path fill="none" stroke="black" d="M641.32,-332.64C622.25,-318 596.91,-298.56 577.3,-283.51"/>
<polygon fill="black" stroke="black" points="579.35,-280.67 569.28,-277.35 575.08,-286.22 579.35,-280.67"/>
<text text-anchor="middle" x="637" y="-302.25" font-family="Times,serif" font-size="10.00">prov:used</text>
</g>
<!-- DailyComp&#45;&gt;ObsSleep -->
<g id="edge6" class="edge">
<title>DailyComp&#45;&gt;ObsSleep</title>
<path fill="none" stroke="black" d="M690.11,-332.17C703.88,-318 721.88,-299.47 736.17,-284.78"/>
<polygon fill="black" stroke="black" points="738.8,-287.09 743.26,-277.48 733.78,-282.21 738.8,-287.09"/>
<text text-anchor="middle" x="745" y="-302.25" font-family="Times,serif" font-size="10.00">prov:used</text>
</g>
<!-- F1 -->
<g id="node10" class="node">
<title>F1</title>
<path fill="none" stroke="black" d="M557.5,-468.51C557.5,-468.51 440.5,-468.51 440.5,-468.51 434.5,-468.51 428.5,-462.51 428.5,-456.51 428.5,-456.51 428.5,-444.51 428.5,-444.51 428.5,-438.51 434.5,-432.51 440.5,-432.51 440.5,-432.51 557.5,-432.51 557.5,-432.51 563.5,-432.51 569.5,-438.51 569.5,-444.51 569.5,-444.51 569.5,-456.51 569.5,-456.51 569.5,-462.51 563.5,-468.51 557.5,-468.51"/>
<text text-anchor="middle" x="499" y="-453.71" font-family="Helvetica,sans-Serif" font-size="11.00">odim:F_DailySteps_D1</text>
<text text-anchor="middle" x="499" y="-441.71" font-family="Helvetica,sans-Serif" font-size="11.00">(odim:DerivedFeature)</text>
</g>
<!-- F1&#45;&gt;DailyComp -->
<g id="edge7" class="edge">
<title>F1&#45;&gt;DailyComp</title>
<path fill="none" stroke="black" d="M512.09,-432.24C520.95,-421.56 533.47,-408.27 547,-399.51 560.17,-390.99 575.21,-383.87 590.13,-378.02"/>
<polygon fill="black" stroke="black" points="591.76,-381.15 599.9,-374.36 589.31,-374.59 591.76,-381.15"/>
<text text-anchor="middle" x="604.5" y="-402.51" font-family="Times,serif" font-size="10.00">odim:wasComputedBy</text>
</g>
<!-- F2 -->
<g id="node11" class="node">
<title>F2</title>
<path fill="none" stroke="black" d="M727.5,-468.51C727.5,-468.51 610.5,-468.51 610.5,-468.51 604.5,-468.51 598.5,-462.51 598.5,-456.51 598.5,-456.51 598.5,-444.51 598.5,-444.51 598.5,-438.51 604.5,-432.51 610.5,-432.51 610.5,-432.51 727.5,-432.51 727.5,-432.51 733.5,-432.51 739.5,-438.51 739.5,-444.51 739.5,-444.51 739.5,-456.51 739.5,-456.51 739.5,-462.51 733.5,-468.51 727.5,-468.51"/>
<text text-anchor="middle" x="669" y="-453.71" font-family="Helvetica,sans-Serif" font-size="11.00">odim:F_DailySteps_D2</text>
<text text-anchor="middle" x="669" y="-441.71" font-family="Helvetica,sans-Serif" font-size="11.00">(odim:DerivedFeature)</text>
</g>
<!-- F2&#45;&gt;DailyComp -->
<g id="edge8" class="edge">
<title>F2&#45;&gt;DailyComp</title>
<path fill="none" stroke="black" d="M669,-432.34C669,-419.93 669,-402.81 669,-387.92"/>
<polygon fill="black" stroke="black" points="672.5,-387.56 669,-377.56 665.5,-387.56 672.5,-387.56"/>
<text text-anchor="middle" x="726.5" y="-402.51" font-family="Times,serif" font-size="10.00">odim:wasComputedBy</text>
</g>
<!-- FDots -->
<g id="node12" class="node">
<title>FDots</title>
<text text-anchor="middle" x="808" y="-447.71" font-family="Helvetica,sans-Serif" font-size="11.00">… (D3..D7)</text>
</g>
<!-- FDots&#45;&gt;DailyComp -->
<g id="edge9" class="edge">
<title>FDots&#45;&gt;DailyComp</title>
<path fill="none" stroke="black" stroke-dasharray="1,5" d="M805.97,-432.23C803.87,-421.55 799.62,-408.26 791,-399.51 779.56,-387.89 764.81,-379.35 749.55,-373.08"/>
</g>
<!-- WeeklyComp -->
<g id="node13" class="node">
<title>WeeklyComp</title>
<ellipse fill="none" stroke="black" cx="669" cy="-563.14" rx="133.79" ry="22.76"/>
<text text-anchor="middle" x="669" y="-566.34" font-family="Helvetica,sans-Serif" font-size="11.00">odim:A_WeeklyAggregate</text>
<text text-anchor="middle" x="669" y="-554.34" font-family="Helvetica,sans-Serif" font-size="11.00">(odim:AlgorithmicComputation)</text>
</g>
<!-- WeeklyComp&#45;&gt;F1 -->
<g id="edge10" class="edge">
<title>WeeklyComp&#45;&gt;F1</title>
<path fill="none" stroke="black" d="M636.62,-541.07C607.16,-521.9 563.8,-493.68 533.65,-474.06"/>
<polygon fill="black" stroke="black" points="535.42,-471.04 525.13,-468.51 531.6,-476.9 535.42,-471.04"/>
<text text-anchor="middle" x="625" y="-510.51" font-family="Times,serif" font-size="10.00">prov:used</text>
</g>
<!-- WeeklyComp&#45;&gt;F2 -->
<g id="edge11" class="edge">
<title>WeeklyComp&#45;&gt;F2</title>
<path fill="none" stroke="black" d="M669,-540.28C669,-522.62 669,-497.66 669,-478.71"/>
<polygon fill="black" stroke="black" points="672.5,-478.61 669,-468.61 665.5,-478.61 672.5,-478.61"/>
<text text-anchor="middle" x="695" y="-510.51" font-family="Times,serif" font-size="10.00">prov:used</text>
</g>
<!-- WeeklyComp&#45;&gt;FDots -->
<g id="edge12" class="edge">
<title>WeeklyComp&#45;&gt;FDots</title>
<path fill="none" stroke="black" stroke-dasharray="1,5" d="M699.01,-541.05C715.51,-529.2 736.2,-513.93 754,-499.51 766.09,-489.72 779.13,-478.15 789.37,-468.83"/>
</g>
<!-- Marker -->
<g id="node14" class="node">
<title>Marker</title>
<path fill="none" stroke="black" stroke-width="2" d="M856,-676.76C856,-676.76 656,-676.76 656,-676.76 650,-676.76 644,-670.76 644,-664.76 644,-664.76 644,-652.76 644,-652.76 644,-646.76 650,-640.76 656,-640.76 656,-640.76 856,-640.76 856,-640.76 862,-640.76 868,-646.76 868,-652.76 868,-652.76 868,-664.76 868,-664.76 868,-670.76 862,-676.76 856,-676.76"/>
<text text-anchor="middle" x="756" y="-661.96" font-family="Helvetica,sans-Serif" font-size="11.00">odim:Marker_LowActivityDuringTravel</text>
<text text-anchor="middle" x="756" y="-649.96" font-family="Helvetica,sans-Serif" font-size="11.00">(odim:DerivedFeature)</text>
</g>
<!-- Marker&#45;&gt;WeeklyComp -->
<g id="edge13" class="edge">
<title>Marker&#45;&gt;WeeklyComp</title>
<path fill="none" stroke="black" d="M731.62,-640.61C723.36,-634.23 714.36,-626.62 707,-618.76 700.02,-611.32 693.33,-602.51 687.57,-594.16"/>
<polygon fill="black" stroke="black" points="690.39,-592.08 681.92,-585.71 684.57,-595.97 690.39,-592.08"/>
<text text-anchor="middle" x="764.5" y="-610.76" font-family="Times,serif" font-size="10.00">odim:wasComputedBy</text>
</g>
<!-- Week -->
<g id="node15" class="node">
<title>Week</title>
<path fill="none" stroke="black" d="M958,-581.14C958,-581.14 844,-581.14 844,-581.14 838,-581.14 832,-575.14 832,-569.14 832,-569.14 832,-557.14 832,-557.14 832,-551.14 838,-545.14 844,-545.14 844,-545.14 958,-545.14 958,-545.14 964,-545.14 970,-551.14 970,-557.14 970,-557.14 970,-569.14 970,-569.14 970,-575.14 964,-581.14 958,-581.14"/>
<text text-anchor="middle" x="901" y="-566.34" font-family="Helvetica,sans-Serif" font-size="11.00">odim:Week1</text>
<text text-anchor="middle" x="901" y="-554.34" font-family="Helvetica,sans-Serif" font-size="11.00">(odim:WeeklyInterval)</text>
</g>
<!-- Marker&#45;&gt;Week -->
<g id="edge14" class="edge">
<title>Marker&#45;&gt;Week</title>
<path fill="none" stroke="black" d="M788.03,-640.61C799.82,-634.05 813.17,-626.32 825,-618.76 840.31,-608.98 856.74,-597.32 870.39,-587.29"/>
<polygon fill="black" stroke="black" points="872.55,-590.06 878.5,-581.29 868.38,-584.43 872.55,-590.06"/>
<text text-anchor="middle" x="888" y="-610.76" font-family="Times,serif" font-size="10.00">odim:occursDuring</text>
</g>
</g>
</svg>
