<?xml version="1.0" encoding="UTF-8" standalone="no"?>
<!DOCTYPE svg PUBLIC "-//W3C//DTD SVG 1.1//EN"
 "http://www.w3.org/Graphics/SVG/1.1/DTD/svg11.dtd">
<!-- Generated by graphviz version 2.43.0 (0)
 -->
<!-- Title: DemoFlow Pages: 1 -->
<svg width="1091pt" height="1106pt"
 viewBox="0.00 0.00 1091.00 1106.27" xmlns="http://www.w3.org/2000/svg" xmlns:xlink="http://www.w3.org/1999/xlink">
<g id="graph0" class="graph" transform="scale(1 1) rotate(0) translate(4 1102.27)">
<title>DemoFlow</title>
<polygon fill="white" stroke="transparent" points="-4,4 -4,-1102.27 1087,-1102.27 1087,4 -4,4"/>
<g id="clust1" class="cluster">
<title>cluster_raw</title>
<polygon fill="none" stroke="#999999" stroke-dasharray="5,2" points="383,-8 383,-83 769,-83 769,-8 383,-8"/>
<text text-anchor="middle" x="454.5" y="-67.8" font-family="Times,serif" font-size="14.00">Raw (prov:Entity)</text>
</g>
<g id="clust2" class="cluster">
<title>cluster_import</title>
<polygon fill="none" stroke="#999999" stroke-dasharray="5,2" points="441,-116 441,-200.25 698,-200.25 698,-116 441,-116"/>
<text text-anchor="middle" x="569.5" y="-185.05" font-family="Times,serif" font-size="14.00">Import (odim:DataTransferEvent)</text>
</g>
<g id="clust3" class="cluster">
<title>cluster_obs</title>
</g>
<g id="clust4" class="cluster">
<title>cluster_daily</title>
<polygon fill="none" stroke="#999999" stroke-dasharray="5,2" points="8,-324.25 8,-499.51 719,-499.51 719,-324.25 8,-324.25"/>
<text text-anchor="middle" x="150" y="-484.31" font-family="Times,serif" font-size="14.00">Daily features (odim:DerivedFeature)</text>
</g>
<g id="clust5" class="cluster">
<title>cluster_weekly</title>
<polygon fill="none" stroke="#999999" stroke-dasharray="5,2" points="87,-532.51 87,-1090.27 945,-1090.27 945,-532.51 87,-532.51"/>
<text text-anchor="middle" x="254.5" y="-1075.07" font-family="Times,serif" font-size="14.00">Weekly aggregates → decisions → phenotype</text>
</g>
<!-- RawSteps -->
<g id="node1" class="node">
<title>RawSteps</title>
<path fill="#eeeeee" stroke="#666666" d="M478.5,-52C478.5,-52 403.5,-52 403.5,-52 397.5,-52 391.5,-46 391.5,-40 391.5,-40 391.5,-28 391.5,-28 391.5,-22 397.5,-16 403.5,-16 403.5,-16 478.5,-16 478.5,-16 484.5,-16 490.5,-22 490.5,-28 490.5,-28 490.5,-40 490.5,-40 490.5,-46 484.5,-52 478.5,-52"/>
<text text-anchor="middle" x="441" y="-37.2" font-family="Helvetica,sans-Serif" font-size="11.00" fill="#222222">Raw steps CSV</text>
<text text-anchor="middle" x="441" y="-25.2" font-family="Helvetica,sans-Serif" font-size="11.00" fill="#222222">(prov:Entity)</text>
</g>
<!-- RawSleep -->
<g id="node2" class="node">
<title>RawSleep</title>
<path fill="#eeeeee" stroke="#666666" d="M606,-52C606,-52 532,-52 532,-52 526,-52 520,-46 520,-40 520,-40 520,-28 520,-28 520,-22 526,-16 532,-16 532,-16 606,-16 606,-16 612,-16 618,-22 618,-28 618,-28 618,-40 618,-40 618,-46 612,-52 606,-52"/>
<text text-anchor="middle" x="569" y="-37.2" font-family="Helvetica,sans-Serif" font-size="11.00" fill="#222222">Raw sleep CSV</text>
<text text-anchor="middle" x="569" y="-25.2" font-family="Helvetica,sans-Serif" font-size="11.00" fill="#222222">(prov:Entity)</text>
</g>
<!-- RawLoc -->
<g id="node3" class="node">
<title>RawLoc</title>
<path fill="#eeeeee" stroke="#666666" d="M748.5,-52C748.5,-52 659.5,-52 659.5,-52 653.5,-52 647.5,-46 647.5,-40 647.5,-40 647.5,-28 647.5,-28 647.5,-22 653.5,-16 659.5,-16 659.5,-16 748.5,-16 748.5,-16 754.5,-16 760.5,-22 760.5,-28 760.5,-28 760.5,-40 760.5,-40 760.5,-46 754.5,-52 748.5,-52"/>
<text text-anchor="middle" x="704" y="-37.2" font-family="Helvetica,sans-Serif" font-size="11.00" fill="#222222">Raw location CSV</text>
<text text-anchor="middle" x="704" y="-25.2" font-family="Helvetica,sans-Serif" font-size="11.00" fill="#222222">(prov:Entity)</text>
</g>
<!-- Import -->
<g id="node4" class="node">
<title>Import</title>
<ellipse fill="#fff2cc" stroke="#666666" cx="569" cy="-146.63" rx="90.52" ry="22.76"/>
<text text-anchor="middle" x="569" y="-149.83" font-family="Helvetica,sans-Serif" font-size="11.00" fill="#222222">Import</text>
<text text-anchor="middle" x="569" y="-137.83" font-family="Helvetica,sans-Serif" font-size="11.00" fill="#222222">(DataTransferEvent)</text>
</g>
<!-- Import&#45;&gt;RawSteps -->
<g id="edge1" class="edge">
<title>Import&#45;&gt;RawSteps</title>
<path fill="none" stroke="black" d="M539.6,-125.08C529.95,-118.03 519.32,-109.91 510,-102 494.25,-88.63 477.61,-72.54 464.61,-59.47"/>
<polygon fill="black" stroke="black" points="466.93,-56.84 457.42,-52.17 461.95,-61.75 466.93,-56.84"/>
<text text-anchor="middle" x="536" y="-94" font-family="Times,serif" font-size="10.00">prov:used</text>
</g>
<!-- Import&#45;&gt;RawSleep -->
<g id="edge2" class="edge">
<title>Import&#45;&gt;RawSleep</title>
<path fill="none" stroke="black" d="M569,-123.77C569,-106.11 569,-81.15 569,-62.2"/>
<polygon fill="black" stroke="black" points="572.5,-62.1 569,-52.1 565.5,-62.1 572.5,-62.1"/>
<text text-anchor="middle" x="595" y="-94" font-family="Times,serif" font-size="10.00">prov:used</text>
</g>
<!-- Import&#45;&gt;RawLoc -->
<g id="edge3" class="edge">
<title>Import&#45;&gt;RawLoc</title>
<path fill="none" stroke="black" d="M597.88,-125.03C607.59,-117.91 618.39,-109.77 628,-102 644.97,-88.29 663.34,-72.14 677.76,-59.13"/>
<polygon fill="black" stroke="black" points="680.28,-61.57 685.34,-52.26 675.58,-56.38 680.28,-61.57"/>
<text text-anchor="middle" x="666" y="-94" font-family="Times,serif" font-size="10.00">prov:used</text>
</g>
<!-- ObsSteps -->
<g id="node5" class="node">
<title>ObsSteps</title>
<path fill="#ddeeff" stroke="#666666" d="M446.5,-277.25C446.5,-277.25 327.5,-277.25 327.5,-277.25 321.5,-277.25 315.5,-271.25 315.5,-265.25 315.5,-265.25 315.5,-253.25 315.5,-253.25 315.5,-247.25 321.5,-241.25 327.5,-241.25 327.5,-241.25 446.5,-241.25 446.5,-241.25 452.5,-241.25 458.5,-247.25 458.5,-253.25 458.5,-253.25 458.5,-265.25 458.5,-265.25 458.5,-271.25 452.5,-277.25 446.5,-277.25"/>
<text text-anchor="middle" x="387" y="-262.45" font-family="Helvetica,sans-Serif" font-size="11.00" fill="#222222">Steps activity</text>
<text text-anchor="middle" x="387" y="-250.45" font-family="Helvetica,sans-Serif" font-size="11.00" fill="#222222">(ActivityMeasurement)</text>
</g>
<!-- ObsSteps&#45;&gt;Import -->
<g id="edge4" class="edge">
<title>ObsSteps&#45;&gt;Import</title>
<path fill="none" stroke="black" d="M404.94,-241.03C416.19,-230.77 431.29,-217.9 446,-208.25 467.6,-194.09 492.98,-181.04 515.07,-170.71"/>
<polygon fill="black" stroke="black" points="516.69,-173.81 524.31,-166.45 513.76,-167.45 516.69,-173.81"/>
<text text-anchor="middle" x="504" y="-211.25" font-family="Times,serif" font-size="10.00">odim:wasGeneratedBy</text>
</g>
<!-- ObsSleep -->
<g id="node6" class="node">
<title>ObsSleep</title>
<path fill="#ddeeff" stroke="#666666" d="M638.5,-277.25C638.5,-277.25 499.5,-277.25 499.5,-277.25 493.5,-277.25 487.5,-271.25 487.5,-265.25 487.5,-265.25 487.5,-253.25 487.5,-253.25 487.5,-247.25 493.5,-241.25 499.5,-241.25 499.5,-241.25 638.5,-241.25 638.5,-241.25 644.5,-241.25 650.5,-247.25 650.5,-253.25 650.5,-253.25 650.5,-265.25 650.5,-265.25 650.5,-271.25 644.5,-277.25 638.5,-277.25"/>
<text text-anchor="middle" x="569" y="-262.45" font-family="Helvetica,sans-Serif" font-size="11.00" fill="#222222">Sleep stage</text>
<text text-anchor="middle" x="569" y="-250.45" font-family="Helvetica,sans-Serif" font-size="11.00" fill="#222222">(SleepStageMeasurement)</text>
</g>
<!-- ObsSleep&#45;&gt;Import -->
<g id="edge5" class="edge">
<title>ObsSleep&#45;&gt;Import</title>
<path fill="none" stroke="black" d="M569,-240.97C569,-224.59 569,-199.58 569,-179.58"/>
<polygon fill="black" stroke="black" points="572.5,-179.35 569,-169.35 565.5,-179.35 572.5,-179.35"/>
<text text-anchor="middle" x="627" y="-211.25" font-family="Times,serif" font-size="10.00">odim:wasGeneratedBy</text>
</g>
<!-- ObsLoc -->
<g id="node7" class="node">
<title>ObsLoc</title>
<path fill="#ddeeff" stroke="#666666" d="M948,-277.25C948,-277.25 814,-277.25 814,-277.25 808,-277.25 802,-271.25 802,-265.25 802,-265.25 802,-253.25 802,-253.25 802,-247.25 808,-241.25 814,-241.25 814,-241.25 948,-241.25 948,-241.25 954,-241.25 960,-247.25 960,-253.25 960,-253.25 960,-265.25 960,-265.25 960,-271.25 954,-277.25 948,-277.25"/>
<text text-anchor="middle" x="881" y="-262.45" font-family="Helvetica,sans-Serif" font-size="11.00" fill="#222222">Location estimate</text>
<text text-anchor="middle" x="881" y="-250.45" font-family="Helvetica,sans-Serif" font-size="11.00" fill="#222222">(DeviceLocationEstimate)</text>
</g>
<!-- ObsLoc&#45;&gt;Import -->
<g id="edge6" class="edge">
<title>ObsLoc&#45;&gt;Import</title>
<path fill="none" stroke="black" d="M832.93,-241.21C778.12,-221.78 688.45,-189.98 629.07,-168.93"/>
<polygon fill="black" stroke="black" points="630.04,-165.56 619.45,-165.52 627.71,-172.16 630.04,-165.56"/>
<text text-anchor="middle" x="820" y="-211.25" font-family="Times,serif" font-size="10.00">odim:wasGeneratedBy</text>
</g>
<!-- ObsDots -->
<g id="node8" class="node">
<title>ObsDots</title>
<path fill="white" stroke="transparent" d="M1054.5,-1059.27C1054.5,-1059.27 973.5,-1059.27 973.5,-1059.27 967.5,-1059.27 961.5,-1053.27 961.5,-1047.27 961.5,-1047.27 961.5,-1035.27 961.5,-1035.27 961.5,-1029.27 967.5,-1023.27 973.5,-1023.27 973.5,-1023.27 1054.5,-1023.27 1054.5,-1023.27 1060.5,-1023.27 1066.5,-1029.27 1066.5,-1035.27 1066.5,-1035.27 1066.5,-1047.27 1066.5,-1047.27 1066.5,-1053.27 1060.5,-1059.27 1054.5,-1059.27"/>
<text text-anchor="middle" x="1014" y="-1038.47" font-family="Helvetica,sans-Serif" font-size="11.00" fill="#222222">… (Day2..Day7)</text>
</g>
<!-- DailyComp -->
<g id="node9" class="node">
<title>DailyComp</title>
<ellipse fill="#fff2cc" stroke="#666666" cx="387" cy="-354.88" rx="111.95" ry="22.76"/>
<text text-anchor="middle" x="387" y="-358.08" font-family="Helvetica,sans-Serif" font-size="11.00" fill="#222222">Daily summary</text>
<text text-anchor="middle" x="387" y="-346.08" font-family="Helvetica,sans-Serif" font-size="11.00" fill="#222222">(AlgorithmicComputation)</text>
</g>
<!-- DailyComp&#45;&gt;ObsSteps -->
<g id="edge7" class="edge">
<title>DailyComp&#45;&gt;ObsSteps</title>
<path fill="none" stroke="black" d="M387,-332.17C387,-318.91 387,-301.84 387,-287.65"/>
<polygon fill="black" stroke="black" points="390.5,-287.48 387,-277.48 383.5,-287.48 390.5,-287.48"/>
<text text-anchor="middle" x="413" y="-302.25" font-family="Times,serif" font-size="10.00">prov:used</text>
</g>
<!-- DailyComp&#45;&gt;ObsSleep -->
<g id="edge8" class="edge">
<title>DailyComp&#45;&gt;ObsSleep</title>
<path fill="none" stroke="black" d="M426.49,-333.57C456.05,-318.36 496.42,-297.59 526.65,-282.04"/>
<polygon fill="black" stroke="black" points="528.39,-285.08 535.68,-277.39 525.19,-278.86 528.39,-285.08"/>
<text text-anchor="middle" x="514" y="-302.25" font-family="Times,serif" font-size="10.00">prov:used</text>
</g>
<!-- F1 -->
<g id="node10" class="node">
<title>F1</title>
<path fill="#e2f0d9" stroke="#666666" d="M114.5,-468.51C114.5,-468.51 27.5,-468.51 27.5,-468.51 21.5,-468.51 15.5,-462.51 15.5,-456.51 15.5,-456.51 15.5,-444.51 15.5,-444.51 15.5,-438.51 21.5,-432.51 27.5,-432.51 27.5,-432.51 114.5,-432.51 114.5,-432.51 120.5,-432.51 126.5,-438.51 126.5,-444.51 126.5,-444.51 126.5,-456.51 126.5,-456.51 126.5,-462.51 120.5,-468.51 114.5,-468.51"/>
<text text-anchor="middle" x="71" y="-453.71" font-family="Helvetica,sans-Serif" font-size="11.00" fill="#222222">Daily Steps Day1</text>
<text text-anchor="middle" x="71" y="-441.71" font-family="Helvetica,sans-Serif" font-size="11.00" fill="#222222">(DerivedFeature)</text>
</g>
<!-- F1&#45;&gt;DailyComp -->
<g id="edge12" class="edge">
<title>F1&#45;&gt;DailyComp</title>
<path fill="none" stroke="black" d="M79.88,-432.35C86.6,-421.15 96.91,-407.22 110,-399.51 137.72,-383.18 210.66,-372.08 274.74,-365.17"/>
<polygon fill="black" stroke="black" points="275.36,-368.62 284.94,-364.09 274.62,-361.66 275.36,-368.62"/>
<text text-anchor="middle" x="167.5" y="-402.51" font-family="Times,serif" font-size="10.00">odim:wasComputedBy</text>
</g>
<!-- F2 -->
<g id="node11" class="node">
<title>F2</title>
<path fill="#e2f0d9" stroke="#666666" d="M254.5,-468.51C254.5,-468.51 167.5,-468.51 167.5,-468.51 161.5,-468.51 155.5,-462.51 155.5,-456.51 155.5,-456.51 155.5,-444.51 155.5,-444.51 155.5,-438.51 161.5,-432.51 167.5,-432.51 167.5,-432.51 254.5,-432.51 254.5,-432.51 260.5,-432.51 266.5,-438.51 266.5,-444.51 266.5,-444.51 266.5,-456.51 266.5,-456.51 266.5,-462.51 260.5,-468.51 254.5,-468.51"/>
<text text-anchor="middle" x="211" y="-453.71" font-family="Helvetica,sans-Serif" font-size="11.00" fill="#222222">Daily Steps Day2</text>
<text text-anchor="middle" x="211" y="-441.71" font-family="Helvetica,sans-Serif" font-size="11.00" fill="#222222">(DerivedFeature)</text>
</g>
<!-- F2&#45;&gt;DailyComp -->
<g id="edge13" class="edge">
<title>F2&#45;&gt;DailyComp</title>
<path fill="none" stroke="black" d="M218.13,-432.43C223.49,-421.55 231.82,-407.97 243,-399.51 258.17,-388.03 276.35,-379.55 294.62,-373.3"/>
<polygon fill="black" stroke="black" points="295.71,-376.62 304.16,-370.23 293.57,-369.96 295.71,-376.62"/>
<text text-anchor="middle" x="300.5" y="-402.51" font-family="Times,serif" font-size="10.00">odim:wasComputedBy</text>
</g>
<!-- FDots -->
<g id="node12" class="node">
<title>FDots</title>
<path fill="white" stroke="transparent" d="M388.5,-468.51C388.5,-468.51 307.5,-468.51 307.5,-468.51 301.5,-468.51 295.5,-462.51 295.5,-456.51 295.5,-456.51 295.5,-444.51 295.5,-444.51 295.5,-438.51 301.5,-432.51 307.5,-432.51 307.5,-432.51 388.5,-432.51 388.5,-432.51 394.5,-432.51 400.5,-438.51 400.5,-444.51 400.5,-444.51 400.5,-456.51 400.5,-456.51 400.5,-462.51 394.5,-468.51 388.5,-468.51"/>
<text text-anchor="middle" x="348" y="-447.71" font-family="Helvetica,sans-Serif" font-size="11.00" fill="#666666">… (Day3..Day7)</text>
</g>
<!-- FDots&#45;&gt;DailyComp -->
<g id="edge16" class="edge">
<title>FDots&#45;&gt;DailyComp</title>
<path fill="none" stroke="black" stroke-dasharray="1,5" d="M355.15,-432.34C361.57,-416.92 371.03,-394.22 377.97,-377.56"/>
</g>
<!-- SQ1 -->
<g id="node13" class="node">
<title>SQ1</title>
<path fill="#e2f0d9" stroke="#666666" d="M544,-468.51C544,-468.51 442,-468.51 442,-468.51 436,-468.51 430,-462.51 430,-456.51 430,-456.51 430,-444.51 430,-444.51 430,-438.51 436,-432.51 442,-432.51 442,-432.51 544,-432.51 544,-432.51 550,-432.51 556,-438.51 556,-444.51 556,-444.51 556,-456.51 556,-456.51 556,-462.51 550,-468.51 544,-468.51"/>
<text text-anchor="middle" x="493" y="-453.71" font-family="Helvetica,sans-Serif" font-size="11.00" fill="#222222">Sleep Minutes Day1</text>
<text text-anchor="middle" x="493" y="-441.71" font-family="Helvetica,sans-Serif" font-size="11.00" fill="#222222">(DerivedFeature)</text>
</g>
<!-- SQ1&#45;&gt;DailyComp -->
<g id="edge14" class="edge">
<title>SQ1&#45;&gt;DailyComp</title>
<path fill="none" stroke="black" d="M444.72,-432.43C433.33,-426.75 421.92,-419.51 413,-410.51 406.45,-403.9 401.32,-395.31 397.41,-386.92"/>
<polygon fill="black" stroke="black" points="400.6,-385.49 393.5,-377.63 394.15,-388.21 400.6,-385.49"/>
<text text-anchor="middle" x="470.5" y="-402.51" font-family="Times,serif" font-size="10.00">odim:wasComputedBy</text>
</g>
<!-- SQ2 -->
<g id="node14" class="node">
<title>SQ2</title>
<path fill="#e2f0d9" stroke="#666666" d="M699,-468.51C699,-468.51 597,-468.51 597,-468.51 591,-468.51 585,-462.51 585,-456.51 585,-456.51 585,-444.51 585,-444.51 585,-438.51 591,-432.51 597,-432.51 597,-432.51 699,-432.51 699,-432.51 705,-432.51 711,-438.51 711,-444.51 711,-444.51 711,-456.51 711,-456.51 711,-462.51 705,-468.51 699,-468.51"/>
<text text-anchor="middle" x="648" y="-453.71" font-family="Helvetica,sans-Serif" font-size="11.00" fill="#222222">Sleep Minutes Day2</text>
<text text-anchor="middle" x="648" y="-441.71" font-family="Helvetica,sans-Serif" font-size="11.00" fill="#222222">(DerivedFeature)</text>
</g>
<!-- SQ2&#45;&gt;DailyComp -->
<g id="edge15" class="edge">
<title>SQ2&#45;&gt;DailyComp</title>
<path fill="none" stroke="black" d="M611.01,-432.47C588.19,-422.27 558.19,-409.41 531,-399.51 508.23,-391.22 483.06,-383.22 460.21,-376.37"/>
<polygon fill="black" stroke="black" points="461.16,-373 450.58,-373.51 459.17,-379.71 461.16,-373"/>
<text text-anchor="middle" x="614.5" y="-402.51" font-family="Times,serif" font-size="10.00">odim:wasComputedBy</text>
</g>
<!-- WeeklySteps -->
<g id="node15" class="node">
<title>WeeklySteps</title>
<ellipse fill="#fff2cc" stroke="#666666" cx="209" cy="-563.14" rx="111.95" ry="22.76"/>
<text text-anchor="middle" x="209" y="-566.34" font-family="Helvetica,sans-Serif" font-size="11.00" fill="#222222">Weekly steps aggregate</text>
<text text-anchor="middle" x="209" y="-554.34" font-family="Helvetica,sans-Serif" font-size="11.00" fill="#222222">(AlgorithmicComputation)</text>
</g>
<!-- WeeklySteps&#45;&gt;F1 -->
<g id="edge17" class="edge">
<title>WeeklySteps&#45;&gt;F1</title>
<path fill="none" stroke="black" d="M179.9,-541.21C170.28,-534.14 159.59,-526.1 150,-518.51 132.52,-504.66 113.43,-488.5 98.4,-475.52"/>
<polygon fill="black" stroke="black" points="100.35,-472.58 90.5,-468.68 95.76,-477.87 100.35,-472.58"/>
<text text-anchor="middle" x="176" y="-510.51" font-family="Times,serif" font-size="10.00">prov:used</text>
</g>
<!-- WeeklySteps&#45;&gt;F2 -->
<g id="edge18" class="edge">
<title>WeeklySteps&#45;&gt;F2</title>
<path fill="none" stroke="black" d="M209.4,-540.28C209.71,-522.62 210.17,-497.66 210.51,-478.71"/>
<polygon fill="black" stroke="black" points="214.01,-478.67 210.69,-468.61 207.01,-478.55 214.01,-478.67"/>
<text text-anchor="middle" x="235" y="-510.51" font-family="Times,serif" font-size="10.00">prov:used</text>
</g>
<!-- WeeklySteps&#45;&gt;FDots -->
<g id="edge19" class="edge">
<title>WeeklySteps&#45;&gt;FDots</title>
<path fill="none" stroke="black" stroke-dasharray="1,5" d="M238.07,-541.18C247.69,-534.1 258.39,-526.07 268,-518.51 288.92,-502.04 312.2,-482.39 328.22,-468.65"/>
</g>
<!-- MeanSteps -->
<g id="node16" class="node">
<title>MeanSteps</title>
<path fill="#e2f0d9" stroke="#666666" d="M208.5,-676.76C208.5,-676.76 107.5,-676.76 107.5,-676.76 101.5,-676.76 95.5,-670.76 95.5,-664.76 95.5,-664.76 95.5,-652.76 95.5,-652.76 95.5,-646.76 101.5,-640.76 107.5,-640.76 107.5,-640.76 208.5,-640.76 208.5,-640.76 214.5,-640.76 220.5,-646.76 220.5,-652.76 220.5,-652.76 220.5,-664.76 220.5,-664.76 220.5,-670.76 214.5,-676.76 208.5,-676.76"/>
<text text-anchor="middle" x="158" y="-661.96" font-family="Helvetica,sans-Serif" font-size="11.00" fill="#222222">Weekly mean steps</text>
<text text-anchor="middle" x="158" y="-649.96" font-family="Helvetica,sans-Serif" font-size="11.00" fill="#222222">(DerivedFeature)</text>
</g>
<!-- MeanSteps&#45;&gt;WeeklySteps -->
<g id="edge20" class="edge">
<title>MeanSteps&#45;&gt;WeeklySteps</title>
<path fill="none" stroke="black" d="M167.35,-640.59C174.31,-627.83 183.98,-610.06 192.26,-594.87"/>
<polygon fill="black" stroke="black" points="195.48,-596.27 197.19,-585.82 189.33,-592.92 195.48,-596.27"/>
<text text-anchor="middle" x="242.5" y="-610.76" font-family="Times,serif" font-size="10.00">odim:wasComputedBy</text>
</g>
<!-- Thresh -->
<g id="node17" class="node">
<title>Thresh</title>
<path fill="#ffe5d9" stroke="#666666" d="M366,-676.76C366,-676.76 262,-676.76 262,-676.76 256,-676.76 250,-670.76 250,-664.76 250,-664.76 250,-652.76 250,-652.76 250,-646.76 256,-640.76 262,-640.76 262,-640.76 366,-640.76 366,-640.76 372,-640.76 378,-646.76 378,-652.76 378,-652.76 378,-664.76 378,-664.76 378,-670.76 372,-676.76 366,-676.76"/>
<text text-anchor="middle" x="314" y="-661.96" font-family="Helvetica,sans-Serif" font-size="11.00" fill="#222222">Low steps threshold</text>
<text text-anchor="middle" x="314" y="-649.96" font-family="Helvetica,sans-Serif" font-size="11.00" fill="#222222">(prov:Entity)</text>
</g>
<!-- StepsDecision -->
<g id="node18" class="node">
<title>StepsDecision</title>
<ellipse fill="#fff2cc" stroke="#666666" cx="314" cy="-754.39" rx="111.95" ry="22.76"/>
<text text-anchor="middle" x="314" y="-757.59" font-family="Helvetica,sans-Serif" font-size="11.00" fill="#222222">Steps threshold decision</text>
<text text-anchor="middle" x="314" y="-745.59" font-family="Helvetica,sans-Serif" font-size="11.00" fill="#222222">(AlgorithmicComputation)</text>
</g>
<!-- StepsDecision&#45;&gt;MeanSteps -->
<g id="edge21" class="edge">
<title>StepsDecision&#45;&gt;MeanSteps</title>
<path fill="none" stroke="black" d="M279.77,-732.84C254.73,-717.82 220.81,-697.46 195.13,-682.05"/>
<polygon fill="black" stroke="black" points="196.79,-678.96 186.41,-676.82 193.19,-684.97 196.79,-678.96"/>
<text text-anchor="middle" x="266" y="-701.76" font-family="Times,serif" font-size="10.00">prov:used</text>
</g>
<!-- StepsDecision&#45;&gt;Thresh -->
<g id="edge22" class="edge">
<title>StepsDecision&#45;&gt;Thresh</title>
<path fill="none" stroke="black" d="M314,-731.68C314,-718.42 314,-701.35 314,-687.16"/>
<polygon fill="black" stroke="black" points="317.5,-686.99 314,-676.99 310.5,-686.99 317.5,-686.99"/>
<text text-anchor="middle" x="340" y="-701.76" font-family="Times,serif" font-size="10.00">prov:used</text>
</g>
<!-- Marker -->
<g id="node19" class="node">
<title>Marker</title>
<path fill="#e2f0d9" stroke="#666666" d="M438.5,-868.02C438.5,-868.02 325.5,-868.02 325.5,-868.02 319.5,-868.02 313.5,-862.02 313.5,-856.02 313.5,-856.02 313.5,-844.02 313.5,-844.02 313.5,-838.02 319.5,-832.02 325.5,-832.02 325.5,-832.02 438.5,-832.02 438.5,-832.02 444.5,-832.02 450.5,-838.02 450.5,-844.02 450.5,-844.02 450.5,-856.02 450.5,-856.02 450.5,-862.02 444.5,-868.02 438.5,-868.02"/>
<text text-anchor="middle" x="382" y="-853.22" font-family="Helvetica,sans-Serif" font-size="11.00" fill="#222222">Low Activity (Week 1)</text>
<text text-anchor="middle" x="382" y="-841.22" font-family="Helvetica,sans-Serif" font-size="11.00" fill="#222222">(DerivedFeature)</text>
</g>
<!-- Marker&#45;&gt;StepsDecision -->
<g id="edge23" class="edge">
<title>Marker&#45;&gt;StepsDecision</title>
<path fill="none" stroke="black" d="M369.53,-831.85C360.08,-818.84 346.87,-800.65 335.7,-785.27"/>
<polygon fill="black" stroke="black" points="338.45,-783.1 329.74,-777.07 332.79,-787.22 338.45,-783.1"/>
<text text-anchor="middle" x="409.5" y="-802.02" font-family="Times,serif" font-size="10.00">odim:wasComputedBy</text>
</g>
<!-- WeeklySleep -->
<g id="node20" class="node">
<title>WeeklySleep</title>
<ellipse fill="#fff2cc" stroke="#666666" cx="493" cy="-563.14" rx="139.1" ry="22.76"/>
<text text-anchor="middle" x="493" y="-566.34" font-family="Helvetica,sans-Serif" font-size="11.00" fill="#222222">Weekly sleep minutes aggregate</text>
<text text-anchor="middle" x="493" y="-554.34" font-family="Helvetica,sans-Serif" font-size="11.00" fill="#222222">(AlgorithmicComputation)</text>
</g>
<!-- WeeklySleep&#45;&gt;FDots -->
<g id="edge26" class="edge">
<title>WeeklySleep&#45;&gt;FDots</title>
<path fill="none" stroke="black" stroke-dasharray="1,5" d="M465.04,-540.81C437.56,-519.84 396.12,-488.22 370.64,-468.78"/>
</g>
<!-- WeeklySleep&#45;&gt;SQ1 -->
<g id="edge24" class="edge">
<title>WeeklySleep&#45;&gt;SQ1</title>
<path fill="none" stroke="black" d="M493,-540.28C493,-522.62 493,-497.66 493,-478.71"/>
<polygon fill="black" stroke="black" points="496.5,-478.61 493,-468.61 489.5,-478.61 496.5,-478.61"/>
<text text-anchor="middle" x="519" y="-510.51" font-family="Times,serif" font-size="10.00">prov:used</text>
</g>
<!-- WeeklySleep&#45;&gt;SQ2 -->
<g id="edge25" class="edge">
<title>WeeklySleep&#45;&gt;SQ2</title>
<path fill="none" stroke="black" d="M522.89,-540.81C549.4,-521.88 588.05,-494.3 615.36,-474.8"/>
<polygon fill="black" stroke="black" points="617.7,-477.44 623.8,-468.78 613.63,-471.74 617.7,-477.44"/>
<text text-anchor="middle" x="591" y="-510.51" font-family="Times,serif" font-size="10.00">prov:used</text>
</g>
<!-- MeanSleep -->
<g id="node21" class="node">
<title>MeanSleep</title>
<path fill="#e2f0d9" stroke="#666666" d="M567,-676.76C567,-676.76 419,-676.76 419,-676.76 413,-676.76 407,-670.76 407,-664.76 407,-664.76 407,-652.76 407,-652.76 407,-646.76 413,-640.76 419,-640.76 419,-640.76 567,-640.76 567,-640.76 573,-640.76 579,-646.76 579,-652.76 579,-652.76 579,-664.76 579,-664.76 579,-670.76 573,-676.76 567,-676.76"/>
<text text-anchor="middle" x="493" y="-661.96" font-family="Helvetica,sans-Serif" font-size="11.00" fill="#222222">Weekly mean sleep minutes</text>
<text text-anchor="middle" x="493" y="-649.96" font-family="Helvetica,sans-Serif" font-size="11.00" fill="#222222">(DerivedFeature)</text>
</g>
<!-- MeanSleep&#45;&gt;WeeklySleep -->
<g id="edge27" class="edge">
<title>MeanSleep&#45;&gt;WeeklySleep</title>
<path fill="none" stroke="black" d="M493,-640.59C493,-628.19 493,-611.07 493,-596.17"/>
<polygon fill="black" stroke="black" points="496.5,-595.82 493,-585.82 489.5,-595.82 496.5,-595.82"/>
<text text-anchor="middle" x="550.5" y="-610.76" font-family="Times,serif" font-size="10.00">odim:wasComputedBy</text>
</g>
<!-- SleepBaseline -->
<g id="node22" class="node">
<title>SleepBaseline</title>
<path fill="#ffe5d9" stroke="#666666" d="M740,-676.76C740,-676.76 620,-676.76 620,-676.76 614,-676.76 608,-670.76 608,-664.76 608,-664.76 608,-652.76 608,-652.76 608,-646.76 614,-640.76 620,-640.76 620,-640.76 740,-640.76 740,-640.76 746,-640.76 752,-646.76 752,-652.76 752,-652.76 752,-664.76 752,-664.76 752,-670.76 746,-676.76 740,-676.76"/>
<text text-anchor="middle" x="680" y="-661.96" font-family="Helvetica,sans-Serif" font-size="11.00" fill="#222222">Baseline sleep minutes</text>
<text text-anchor="middle" x="680" y="-649.96" font-family="Helvetica,sans-Serif" font-size="11.00" fill="#222222">(prov:Entity)</text>
</g>
<!-- SleepDebtDecision -->
<g id="node23" class="node">
<title>SleepDebtDecision</title>
<ellipse fill="#fff2cc" stroke="#666666" cx="569" cy="-754.39" rx="111.95" ry="22.76"/>
<text text-anchor="middle" x="569" y="-757.59" font-family="Helvetica,sans-Serif" font-size="11.00" fill="#222222">Sleep debt decision</text>
<text text-anchor="middle" x="569" y="-745.59" font-family="Helvetica,sans-Serif" font-size="11.00" fill="#222222">(AlgorithmicComputation)</text>
</g>
<!-- SleepDebtDecision&#45;&gt;MeanSleep -->
<g id="edge28" class="edge">
<title>SleepDebtDecision&#45;&gt;MeanSleep</title>
<path fill="none" stroke="black" d="M551.37,-731.68C540.08,-717.77 525.39,-699.66 513.56,-685.1"/>
<polygon fill="black" stroke="black" points="516,-682.55 506.98,-676.99 510.57,-686.96 516,-682.55"/>
<text text-anchor="middle" x="559" y="-701.76" font-family="Times,serif" font-size="10.00">prov:used</text>
</g>
<!-- SleepDebtDecision&#45;&gt;SleepBaseline -->
<g id="edge29" class="edge">
<title>SleepDebtDecision&#45;&gt;SleepBaseline</title>
<path fill="none" stroke="black" d="M594.19,-732.15C611.38,-717.64 634.18,-698.41 651.95,-683.42"/>
<polygon fill="black" stroke="black" points="654.34,-685.99 659.73,-676.86 649.83,-680.64 654.34,-685.99"/>
<text text-anchor="middle" x="657" y="-701.76" font-family="Times,serif" font-size="10.00">prov:used</text>
</g>
<!-- SleepDebt -->
<g id="node24" class="node">
<title>SleepDebt</title>
<path fill="#e2f0d9" stroke="#666666" d="M622,-868.02C622,-868.02 516,-868.02 516,-868.02 510,-868.02 504,-862.02 504,-856.02 504,-856.02 504,-844.02 504,-844.02 504,-838.02 510,-832.02 516,-832.02 516,-832.02 622,-832.02 622,-832.02 628,-832.02 634,-838.02 634,-844.02 634,-844.02 634,-856.02 634,-856.02 634,-862.02 628,-868.02 622,-868.02"/>
<text text-anchor="middle" x="569" y="-853.22" font-family="Helvetica,sans-Serif" font-size="11.00" fill="#222222">Sleep Debt (Week 1)</text>
<text text-anchor="middle" x="569" y="-841.22" font-family="Helvetica,sans-Serif" font-size="11.00" fill="#222222">(DerivedFeature)</text>
</g>
<!-- SleepDebt&#45;&gt;SleepDebtDecision -->
<g id="edge30" class="edge">
<title>SleepDebt&#45;&gt;SleepDebtDecision</title>
<path fill="none" stroke="black" d="M569,-831.85C569,-819.44 569,-802.32 569,-787.42"/>
<polygon fill="black" stroke="black" points="572.5,-787.07 569,-777.07 565.5,-787.07 572.5,-787.07"/>
<text text-anchor="middle" x="626.5" y="-802.02" font-family="Times,serif" font-size="10.00">odim:wasComputedBy</text>
</g>
<!-- Combine -->
<g id="node25" class="node">
<title>Combine</title>
<ellipse fill="#fff2cc" stroke="#666666" cx="569" cy="-945.65" rx="122.16" ry="22.76"/>
<text text-anchor="middle" x="569" y="-948.85" font-family="Helvetica,sans-Serif" font-size="11.00" fill="#222222">Combined marker derivation</text>
<text text-anchor="middle" x="569" y="-936.85" font-family="Helvetica,sans-Serif" font-size="11.00" fill="#222222">(AlgorithmicComputation)</text>
</g>
<!-- Combine&#45;&gt;Marker -->
<g id="edge31" class="edge">
<title>Combine&#45;&gt;Marker</title>
<path fill="none" stroke="black" d="M527.96,-924.1C497.56,-908.88 456.22,-888.18 425.3,-872.7"/>
<polygon fill="black" stroke="black" points="426.57,-869.42 416.06,-868.07 423.44,-875.68 426.57,-869.42"/>
<text text-anchor="middle" x="507" y="-893.02" font-family="Times,serif" font-size="10.00">prov:used</text>
</g>
<!-- Combine&#45;&gt;SleepDebt -->
<g id="edge32" class="edge">
<title>Combine&#45;&gt;SleepDebt</title>
<path fill="none" stroke="black" d="M569,-922.93C569,-909.67 569,-892.6 569,-878.42"/>
<polygon fill="black" stroke="black" points="572.5,-878.25 569,-868.25 565.5,-878.25 572.5,-878.25"/>
<text text-anchor="middle" x="595" y="-893.02" font-family="Times,serif" font-size="10.00">prov:used</text>
</g>
<!-- TravelWin -->
<g id="node29" class="node">
<title>TravelWin</title>
<path fill="#fde2e4" stroke="#666666" d="M843,-868.02C843,-868.02 719,-868.02 719,-868.02 713,-868.02 707,-862.02 707,-856.02 707,-856.02 707,-844.02 707,-844.02 707,-838.02 713,-832.02 719,-832.02 719,-832.02 843,-832.02 843,-832.02 849,-832.02 855,-838.02 855,-844.02 855,-844.02 855,-856.02 855,-856.02 855,-862.02 849,-868.02 843,-868.02"/>
<text text-anchor="middle" x="781" y="-853.22" font-family="Helvetica,sans-Serif" font-size="11.00" fill="#222222">Travel window (Week 1)</text>
<text text-anchor="middle" x="781" y="-841.22" font-family="Helvetica,sans-Serif" font-size="11.00" fill="#222222">(EventWindow)</text>
</g>
<!-- Combine&#45;&gt;TravelWin -->
<g id="edge33" class="edge">
<title>Combine&#45;&gt;TravelWin</title>
<path fill="none" stroke="black" d="M614.48,-924.56C649.44,-909.12 697.6,-887.85 733.14,-872.16"/>
<polygon fill="black" stroke="black" points="734.61,-875.33 742.35,-868.09 731.78,-868.93 734.61,-875.33"/>
<text text-anchor="middle" x="713" y="-893.02" font-family="Times,serif" font-size="10.00">prov:used</text>
</g>
<!-- Phenotype -->
<g id="node26" class="node">
<title>Phenotype</title>
<path fill="#ede7f6" stroke="#666666" d="M789,-1059.27C789,-1059.27 553,-1059.27 553,-1059.27 547,-1059.27 541,-1053.27 541,-1047.27 541,-1047.27 541,-1035.27 541,-1035.27 541,-1029.27 547,-1023.27 553,-1023.27 553,-1023.27 789,-1023.27 789,-1023.27 795,-1023.27 801,-1029.27 801,-1035.27 801,-1035.27 801,-1047.27 801,-1047.27 801,-1053.27 795,-1059.27 789,-1059.27"/>
<text text-anchor="middle" x="671" y="-1044.47" font-family="Helvetica,sans-Serif" font-size="11.00" fill="#222222">Travel&#45;Associated Inactivity With Sleep Debt</text>
<text text-anchor="middle" x="671" y="-1032.47" font-family="Helvetica,sans-Serif" font-size="11.00" fill="#222222">(ActivityPhenotype)</text>
</g>
<!-- Phenotype&#45;&gt;Combine -->
<g id="edge34" class="edge">
<title>Phenotype&#45;&gt;Combine</title>
<path fill="none" stroke="black" d="M638.76,-1023.17C628.65,-1017 617.84,-1009.51 609,-1001.27 601.26,-994.06 594.02,-985.17 587.88,-976.67"/>
<polygon fill="black" stroke="black" points="590.71,-974.6 582.14,-968.38 584.95,-978.59 590.71,-974.6"/>
<text text-anchor="middle" x="666.5" y="-993.27" font-family="Times,serif" font-size="10.00">odim:wasComputedBy</text>
</g>
<!-- Week -->
<g id="node27" class="node">
<title>Week</title>
<path fill="#f3f4f6" stroke="#666666" d="M815.5,-963.65C815.5,-963.65 732.5,-963.65 732.5,-963.65 726.5,-963.65 720.5,-957.65 720.5,-951.65 720.5,-951.65 720.5,-939.65 720.5,-939.65 720.5,-933.65 726.5,-927.65 732.5,-927.65 732.5,-927.65 815.5,-927.65 815.5,-927.65 821.5,-927.65 827.5,-933.65 827.5,-939.65 827.5,-939.65 827.5,-951.65 827.5,-951.65 827.5,-957.65 821.5,-963.65 815.5,-963.65"/>
<text text-anchor="middle" x="774" y="-948.85" font-family="Helvetica,sans-Serif" font-size="11.00" fill="#222222">Week 1</text>
<text text-anchor="middle" x="774" y="-936.85" font-family="Helvetica,sans-Serif" font-size="11.00" fill="#222222">(WeeklyInterval)</text>
</g>
<!-- Phenotype&#45;&gt;Week -->
<g id="edge35" class="edge">
<title>Phenotype&#45;&gt;Week</title>
<path fill="none" stroke="black" d="M698.53,-1023.13C707.95,-1016.75 718.29,-1009.13 727,-1001.27 736.87,-992.37 746.64,-981.44 754.7,-971.71"/>
<polygon fill="black" stroke="black" points="757.46,-973.86 761.03,-963.89 752.02,-969.46 757.46,-973.86"/>
<text text-anchor="middle" x="785" y="-993.27" font-family="Times,serif" font-size="10.00">odim:occursDuring</text>
</g>
<!-- TravelDetect -->
<g id="node28" class="node">
<title>TravelDetect</title>
<ellipse fill="#fff2cc" stroke="#666666" cx="825" cy="-754.39" rx="111.95" ry="22.76"/>
<text text-anchor="middle" x="825" y="-757.59" font-family="Helvetica,sans-Serif" font-size="11.00" fill="#222222">Travel detection</text>
<text text-anchor="middle" x="825" y="-745.59" font-family="Helvetica,sans-Serif" font-size="11.00" fill="#222222">(AlgorithmicComputation)</text>
</g>
<!-- TravelDetect&#45;&gt;ObsLoc -->
<g id="edge9" class="edge">
<title>TravelDetect&#45;&gt;ObsLoc</title>
<path fill="none" stroke="black" d="M900.72,-737.67C940.46,-724.51 981,-700.99 981,-659.76 981,-659.76 981,-659.76 981,-353.88 981,-322.26 954.02,-298.23 928.09,-282.43"/>
<polygon fill="black" stroke="black" points="929.79,-279.37 919.38,-277.39 926.28,-285.43 929.79,-279.37"/>
<text text-anchor="middle" x="1007" y="-510.51" font-family="Times,serif" font-size="10.00">prov:used</text>
</g>
<!-- TravelThresh -->
<g id="node30" class="node">
<title>TravelThresh</title>
<path fill="#ffe5d9" stroke="#666666" d="M924.5,-676.76C924.5,-676.76 793.5,-676.76 793.5,-676.76 787.5,-676.76 781.5,-670.76 781.5,-664.76 781.5,-664.76 781.5,-652.76 781.5,-652.76 781.5,-646.76 787.5,-640.76 793.5,-640.76 793.5,-640.76 924.5,-640.76 924.5,-640.76 930.5,-640.76 936.5,-646.76 936.5,-652.76 936.5,-652.76 936.5,-664.76 936.5,-664.76 936.5,-670.76 930.5,-676.76 924.5,-676.76"/>
<text text-anchor="middle" x="859" y="-661.96" font-family="Helvetica,sans-Serif" font-size="11.00" fill="#222222">Travel distance threshold</text>
<text text-anchor="middle" x="859" y="-649.96" font-family="Helvetica,sans-Serif" font-size="11.00" fill="#222222">(prov:Entity)</text>
</g>
<!-- TravelDetect&#45;&gt;TravelThresh -->
<g id="edge10" class="edge">
<title>TravelDetect&#45;&gt;TravelThresh</title>
<path fill="none" stroke="black" d="M832.89,-731.68C837.75,-718.29 844.02,-701.01 849.2,-686.75"/>
<polygon fill="black" stroke="black" points="852.62,-687.59 852.74,-676.99 846.04,-685.2 852.62,-687.59"/>
<text text-anchor="middle" x="870" y="-701.76" font-family="Times,serif" font-size="10.00">prov:used</text>
</g>
<!-- TravelWin&#45;&gt;TravelDetect -->
<g id="edge11" class="edge">
<title>TravelWin&#45;&gt;TravelDetect</title>
<path fill="none" stroke="black" d="M789.07,-831.85C795.07,-819.08 803.42,-801.32 810.56,-786.13"/>
<polygon fill="black" stroke="black" points="813.73,-787.61 814.81,-777.07 807.39,-784.63 813.73,-787.61"/>
<text text-anchor="middle" x="861.5" y="-802.02" font-family="Times,serif" font-size="10.00">odim:wasComputedBy</text>
</g>
</g>
</svg>
