<?xml version="1.0" encoding="UTF-8" standalone="no"?>
<!DOCTYPE svg PUBLIC "-//W3C//DTD SVG 1.1//EN"
 "http://www.w3.org/Graphics/SVG/1.1/DTD/svg11.dtd">
<!-- Generated by graphviz version 2.43.0 (0)
 -->
<!-- Title: DemoFlow Pages: 1 -->
<svg width="1702pt" height="1232pt"
 viewBox="0.00 0.00 1702.00 1231.53" xmlns="http://www.w3.org/2000/svg" xmlns:xlink="http://www.w3.org/1999/xlink">
<g id="graph0" class="graph" transform="scale(1 1) rotate(0) translate(4 1227.53)">
<title>DemoFlow</title>
<polygon fill="white" stroke="transparent" points="-4,4 -4,-1227.53 1698,-1227.53 1698,4 -4,4"/>
<g id="clust1" class="cluster">
<title>cluster_legend</title>
<polygon fill="none" stroke="#e5e5e5" stroke-dasharray="5,2" points="8,-1115.53 8,-1215.53 176,-1215.53 176,-1115.53 8,-1115.53"/>
<text text-anchor="middle" x="33.5" y="-1204.33" font-family="Times,serif" font-size="9.00">Legend</text>
</g>
<g id="clust2" class="cluster">
<title>cluster_raw</title>
<polygon fill="none" stroke="#999999" stroke-dasharray="5,2" points="188,-1130.53 188,-1205.53 647,-1205.53 647,-1130.53 188,-1130.53"/>
<text text-anchor="middle" x="259.5" y="-1190.33" font-family="Times,serif" font-size="14.00">Raw (prov:Entity)</text>
</g>
<g id="clust3" class="cluster">
<title>cluster_import</title>
<polygon fill="none" stroke="#999999" stroke-dasharray="5,2" points="290,-998.27 290,-1082.53 547,-1082.53 547,-998.27 290,-998.27"/>
<text text-anchor="middle" x="418.5" y="-1067.33" font-family="Times,serif" font-size="14.00">Import (odim:DataTransferEvent)</text>
</g>
<g id="clust4" class="cluster">
<title>cluster_obs</title>
</g>
<g id="clust5" class="cluster">
<title>cluster_daily</title>
<polygon fill="none" stroke="#999999" stroke-dasharray="5,2" points="749,-790.02 749,-965.27 1551,-965.27 1551,-790.02 749,-790.02"/>
<text text-anchor="middle" x="891" y="-950.07" font-family="Times,serif" font-size="14.00">Daily features (odim:DerivedFeature)</text>
</g>
<g id="clust6" class="cluster">
<title>cluster_weekly</title>
<polygon fill="none" stroke="#999999" stroke-dasharray="5,2" points="565,-8 565,-757.02 1331,-757.02 1331,-8 565,-8"/>
<text text-anchor="middle" x="732.5" y="-741.82" font-family="Times,serif" font-size="14.00">Weekly aggregates → decisions → phenotype</text>
</g>
<!-- Legend -->
<g id="node1" class="node">
<title>Legend</title>
<path fill="white" stroke="transparent" d="M155.5,-1189.53C155.5,-1189.53 28.5,-1189.53 28.5,-1189.53 22.5,-1189.53 16.5,-1183.53 16.5,-1177.53 16.5,-1177.53 16.5,-1135.53 16.5,-1135.53 16.5,-1129.53 22.5,-1123.53 28.5,-1123.53 28.5,-1123.53 155.5,-1123.53 155.5,-1123.53 161.5,-1123.53 167.5,-1129.53 167.5,-1135.53 167.5,-1135.53 167.5,-1177.53 167.5,-1177.53 167.5,-1183.53 161.5,-1189.53 155.5,-1189.53"/>
<polygon fill="#eeeeee" stroke="transparent" points="17,-1167.53 17,-1189.53 70,-1189.53 70,-1167.53 17,-1167.53"/>
<polygon fill="none" stroke="#666666" points="17,-1167.53 17,-1189.53 70,-1189.53 70,-1167.53 17,-1167.53"/>
<text text-anchor="start" x="31.5" y="-1175.73" font-family="Helvetica,sans-Serif" font-size="11.00" fill="#222222">Raw</text>
<polygon fill="#ddeeff" stroke="transparent" points="70,-1167.53 70,-1189.53 115,-1189.53 115,-1167.53 70,-1167.53"/>
<polygon fill="none" stroke="#666666" points="70,-1167.53 70,-1189.53 115,-1189.53 115,-1167.53 70,-1167.53"/>
<text text-anchor="start" x="81.5" y="-1175.73" font-family="Helvetica,sans-Serif" font-size="11.00" fill="#222222">Obs</text>
<polygon fill="#e2f0d9" stroke="transparent" points="115,-1167.53 115,-1189.53 168,-1189.53 168,-1167.53 115,-1167.53"/>
<polygon fill="none" stroke="#666666" points="115,-1167.53 115,-1189.53 168,-1189.53 168,-1167.53 115,-1167.53"/>
<text text-anchor="start" x="120" y="-1175.73" font-family="Helvetica,sans-Serif" font-size="11.00" fill="#222222">Feature</text>
<polygon fill="#fff2cc" stroke="transparent" points="17,-1145.53 17,-1167.53 70,-1167.53 70,-1145.53 17,-1145.53"/>
<polygon fill="none" stroke="#666666" points="17,-1145.53 17,-1167.53 70,-1167.53 70,-1145.53 17,-1145.53"/>
<text text-anchor="start" x="22" y="-1153.73" font-family="Helvetica,sans-Serif" font-size="11.00" fill="#222222">Activity</text>
<polygon fill="#ffe5d9" stroke="transparent" points="70,-1145.53 70,-1167.53 115,-1167.53 115,-1145.53 70,-1145.53"/>
<polygon fill="none" stroke="#666666" points="70,-1145.53 70,-1167.53 115,-1167.53 115,-1145.53 70,-1145.53"/>
<text text-anchor="start" x="75" y="-1153.73" font-family="Helvetica,sans-Serif" font-size="11.00" fill="#222222">Param</text>
<polygon fill="#fde2e4" stroke="transparent" points="115,-1145.53 115,-1167.53 168,-1167.53 168,-1145.53 115,-1145.53"/>
<polygon fill="none" stroke="#666666" points="115,-1145.53 115,-1167.53 168,-1167.53 168,-1145.53 115,-1145.53"/>
<text text-anchor="start" x="120" y="-1153.73" font-family="Helvetica,sans-Serif" font-size="11.00" fill="#222222">Window</text>
<polygon fill="#ede7f6" stroke="transparent" points="17,-1123.53 17,-1145.53 168,-1145.53 168,-1123.53 17,-1123.53"/>
<polygon fill="none" stroke="#666666" points="17,-1123.53 17,-1145.53 168,-1145.53 168,-1123.53 17,-1123.53"/>
<text text-anchor="start" x="63" y="-1131.73" font-family="Helvetica,sans-Serif" font-size="11.00" fill="#222222">Phenotype</text>
</g>
<!-- RawSteps -->
<g id="node2" class="node">
<title>RawSteps</title>
<path fill="#eeeeee" stroke="#666666" d="M307.5,-1174.53C307.5,-1174.53 208.5,-1174.53 208.5,-1174.53 202.5,-1174.53 196.5,-1168.53 196.5,-1162.53 196.5,-1162.53 196.5,-1150.53 196.5,-1150.53 196.5,-1144.53 202.5,-1138.53 208.5,-1138.53 208.5,-1138.53 307.5,-1138.53 307.5,-1138.53 313.5,-1138.53 319.5,-1144.53 319.5,-1150.53 319.5,-1150.53 319.5,-1162.53 319.5,-1162.53 319.5,-1168.53 313.5,-1174.53 307.5,-1174.53"/>
<text text-anchor="middle" x="258" y="-1159.73" font-family="Helvetica,sans-Serif" font-size="11.00" fill="#222222">odim:RawStepsCSV</text>
<text text-anchor="middle" x="258" y="-1147.73" font-family="Helvetica,sans-Serif" font-size="11.00" fill="#222222">(prov:Entity)</text>
</g>
<!-- RawSleep -->
<g id="node3" class="node">
<title>RawSleep</title>
<path fill="#eeeeee" stroke="#666666" d="M627,-1174.53C627,-1174.53 529,-1174.53 529,-1174.53 523,-1174.53 517,-1168.53 517,-1162.53 517,-1162.53 517,-1150.53 517,-1150.53 517,-1144.53 523,-1138.53 529,-1138.53 529,-1138.53 627,-1138.53 627,-1138.53 633,-1138.53 639,-1144.53 639,-1150.53 639,-1150.53 639,-1162.53 639,-1162.53 639,-1168.53 633,-1174.53 627,-1174.53"/>
<text text-anchor="middle" x="578" y="-1159.73" font-family="Helvetica,sans-Serif" font-size="11.00" fill="#222222">odim:RawSleepCSV</text>
<text text-anchor="middle" x="578" y="-1147.73" font-family="Helvetica,sans-Serif" font-size="11.00" fill="#222222">(prov:Entity)</text>
</g>
<!-- RawLoc -->
<g id="node4" class="node">
<title>RawLoc</title>
<path fill="#eeeeee" stroke="#666666" d="M475.5,-1174.53C475.5,-1174.53 360.5,-1174.53 360.5,-1174.53 354.5,-1174.53 348.5,-1168.53 348.5,-1162.53 348.5,-1162.53 348.5,-1150.53 348.5,-1150.53 348.5,-1144.53 354.5,-1138.53 360.5,-1138.53 360.5,-1138.53 475.5,-1138.53 475.5,-1138.53 481.5,-1138.53 487.5,-1144.53 487.5,-1150.53 487.5,-1150.53 487.5,-1162.53 487.5,-1162.53 487.5,-1168.53 481.5,-1174.53 475.5,-1174.53"/>
<text text-anchor="middle" x="418" y="-1159.73" font-family="Helvetica,sans-Serif" font-size="11.00" fill="#222222">odim:RawLocationCSV</text>
<text text-anchor="middle" x="418" y="-1147.73" font-family="Helvetica,sans-Serif" font-size="11.00" fill="#222222">(prov:Entity)</text>
</g>
<!-- Import -->
<g id="node5" class="node">
<title>Import</title>
<ellipse fill="#fff2cc" stroke="#666666" cx="418" cy="-1028.9" rx="111.95" ry="22.76"/>
<text text-anchor="middle" x="418" y="-1032.1" font-family="Helvetica,sans-Serif" font-size="11.00" fill="#222222">odim:A_Import</text>
<text text-anchor="middle" x="418" y="-1020.1" font-family="Helvetica,sans-Serif" font-size="11.00" fill="#222222">(odim:DataTransferEvent)</text>
</g>
<!-- RawLoc&#45;&gt;Import -->
<!-- Import&#45;&gt;RawSteps -->
<g id="edge1" class="edge">
<title>Import&#45;&gt;RawSteps</title>
<path fill="none" stroke="black" d="M352.28,-1047.22C327.52,-1056.56 300.82,-1070.43 282,-1090.53 272.2,-1100.99 266.33,-1115.79 262.84,-1128.63"/>
<polygon fill="black" stroke="black" points="259.43,-1127.85 260.53,-1138.39 266.24,-1129.46 259.43,-1127.85"/>
<text text-anchor="middle" x="308" y="-1093.53" font-family="Times,serif" font-size="10.00">prov:used</text>
</g>
<!-- Import&#45;&gt;RawSleep -->
<g id="edge2" class="edge">
<title>Import&#45;&gt;RawSleep</title>
<path fill="none" stroke="black" d="M444.98,-1051.09C473.56,-1073.53 518.55,-1108.85 548.17,-1132.11"/>
<polygon fill="black" stroke="black" points="546.06,-1134.9 556.09,-1138.32 550.38,-1129.4 546.06,-1134.9"/>
<text text-anchor="middle" x="533" y="-1093.53" font-family="Times,serif" font-size="10.00">prov:used</text>
</g>
<!-- Import&#45;&gt;RawLoc -->
<g id="edge3" class="edge">
<title>Import&#45;&gt;RawLoc</title>
<path fill="none" stroke="black" d="M374.21,-1049.82C352.72,-1062.66 333.47,-1080.81 344,-1101.53 350.44,-1114.19 361.39,-1124.59 372.92,-1132.77"/>
<polygon fill="black" stroke="black" points="371.09,-1135.75 381.37,-1138.33 374.94,-1129.91 371.09,-1135.75"/>
<text text-anchor="middle" x="370" y="-1093.53" font-family="Times,serif" font-size="10.00">prov:used</text>
</g>
<!-- ObsSteps -->
<g id="node6" class="node">
<title>ObsSteps</title>
<path fill="#ddeeff" stroke="#666666" d="M493,-934.27C493,-934.27 343,-934.27 343,-934.27 337,-934.27 331,-928.27 331,-922.27 331,-922.27 331,-910.27 331,-910.27 331,-904.27 337,-898.27 343,-898.27 343,-898.27 493,-898.27 493,-898.27 499,-898.27 505,-904.27 505,-910.27 505,-910.27 505,-922.27 505,-922.27 505,-928.27 499,-934.27 493,-934.27"/>
<text text-anchor="middle" x="418" y="-919.47" font-family="Helvetica,sans-Serif" font-size="11.00" fill="#222222">Steps Day1</text>
<text text-anchor="middle" x="418" y="-907.47" font-family="Helvetica,sans-Serif" font-size="11.00" fill="#222222">(odim:ActivityMeasurement)</text>
</g>
<!-- Import&#45;&gt;ObsSteps -->
<!-- ObsSteps&#45;&gt;Import -->
<g id="edge4" class="edge">
<title>ObsSteps&#45;&gt;Import</title>
<path fill="none" stroke="black" d="M426.13,-934.51C431.5,-947.97 437.03,-967.2 434,-984.27 433.29,-988.27 432.24,-992.38 431.01,-996.41"/>
<polygon fill="black" stroke="black" points="427.62,-995.53 427.69,-1006.13 434.24,-997.8 427.62,-995.53"/>
<text text-anchor="middle" x="492" y="-976.27" font-family="Times,serif" font-size="10.00">odim:wasGeneratedBy</text>
</g>
<!-- DailyComp -->
<g id="node10" class="node">
<title>DailyComp</title>
<ellipse fill="#fff2cc" stroke="#666666" cx="891" cy="-820.65" rx="133.79" ry="22.76"/>
<text text-anchor="middle" x="891" y="-823.85" font-family="Helvetica,sans-Serif" font-size="11.00" fill="#222222">A_DailySummary</text>
<text text-anchor="middle" x="891" y="-811.85" font-family="Helvetica,sans-Serif" font-size="11.00" fill="#222222">(odim:AlgorithmicComputation)</text>
</g>
<!-- ObsSteps&#45;&gt;DailyComp -->
<!-- ObsSleep -->
<g id="node7" class="node">
<title>ObsSleep</title>
<path fill="#ddeeff" stroke="#666666" d="M716,-934.27C716,-934.27 546,-934.27 546,-934.27 540,-934.27 534,-928.27 534,-922.27 534,-922.27 534,-910.27 534,-910.27 534,-904.27 540,-898.27 546,-898.27 546,-898.27 716,-898.27 716,-898.27 722,-898.27 728,-904.27 728,-910.27 728,-910.27 728,-922.27 728,-922.27 728,-928.27 722,-934.27 716,-934.27"/>
<text text-anchor="middle" x="631" y="-919.47" font-family="Helvetica,sans-Serif" font-size="11.00" fill="#222222">Sleep Day1</text>
<text text-anchor="middle" x="631" y="-907.47" font-family="Helvetica,sans-Serif" font-size="11.00" fill="#222222">(odim:SleepStageMeasurement)</text>
</g>
<!-- ObsSleep&#45;&gt;Import -->
<g id="edge5" class="edge">
<title>ObsSleep&#45;&gt;Import</title>
<path fill="none" stroke="black" d="M616.15,-934.39C602.24,-949.46 580.16,-971.01 557,-984.27 539.54,-994.27 519.5,-1002.27 500.18,-1008.54"/>
<polygon fill="black" stroke="black" points="498.97,-1005.26 490.47,-1011.58 501.06,-1011.94 498.97,-1005.26"/>
<text text-anchor="middle" x="630" y="-976.27" font-family="Times,serif" font-size="10.00">odim:wasGeneratedBy</text>
</g>
<!-- ObsLoc -->
<g id="node8" class="node">
<title>ObsLoc</title>
<path fill="#ddeeff" stroke="#666666" d="M289.5,-934.27C289.5,-934.27 124.5,-934.27 124.5,-934.27 118.5,-934.27 112.5,-928.27 112.5,-922.27 112.5,-922.27 112.5,-910.27 112.5,-910.27 112.5,-904.27 118.5,-898.27 124.5,-898.27 124.5,-898.27 289.5,-898.27 289.5,-898.27 295.5,-898.27 301.5,-904.27 301.5,-910.27 301.5,-910.27 301.5,-922.27 301.5,-922.27 301.5,-928.27 295.5,-934.27 289.5,-934.27"/>
<text text-anchor="middle" x="207" y="-919.47" font-family="Helvetica,sans-Serif" font-size="11.00" fill="#222222">Location Day1</text>
<text text-anchor="middle" x="207" y="-907.47" font-family="Helvetica,sans-Serif" font-size="11.00" fill="#222222">(odim:DeviceLocationEstimate)</text>
</g>
<!-- ObsLoc&#45;&gt;Import -->
<g id="edge6" class="edge">
<title>ObsLoc&#45;&gt;Import</title>
<path fill="none" stroke="black" d="M225.72,-934.3C242.77,-949.1 269.16,-970.3 295,-984.27 310.97,-992.91 329,-1000.42 346.24,-1006.66"/>
<polygon fill="black" stroke="black" points="345.11,-1009.97 355.71,-1009.99 347.44,-1003.37 345.11,-1009.97"/>
<text text-anchor="middle" x="353" y="-976.27" font-family="Times,serif" font-size="10.00">odim:wasGeneratedBy</text>
</g>
<!-- LocDots -->
<g id="node9" class="node">
<title>LocDots</title>
<path fill="white" stroke="transparent" d="M1440.5,-152.25C1440.5,-152.25 1359.5,-152.25 1359.5,-152.25 1353.5,-152.25 1347.5,-146.25 1347.5,-140.25 1347.5,-140.25 1347.5,-128.25 1347.5,-128.25 1347.5,-122.25 1353.5,-116.25 1359.5,-116.25 1359.5,-116.25 1440.5,-116.25 1440.5,-116.25 1446.5,-116.25 1452.5,-122.25 1452.5,-128.25 1452.5,-128.25 1452.5,-140.25 1452.5,-140.25 1452.5,-146.25 1446.5,-152.25 1440.5,-152.25"/>
<text text-anchor="middle" x="1400" y="-131.45" font-family="Helvetica,sans-Serif" font-size="11.00" fill="#666666">… (Day2..Day7)</text>
</g>
<!-- DailyComp&#45;&gt;ObsSteps -->
<g id="edge7" class="edge">
<title>DailyComp&#45;&gt;ObsSteps</title>
<path fill="none" stroke="black" d="M775.48,-832.03C715.69,-838.82 641.83,-849.44 577,-865.27 562.8,-868.74 559.88,-871.7 546,-876.27 526.46,-882.71 505.13,-889.36 485.58,-895.31"/>
<polygon fill="black" stroke="black" points="484.4,-892.01 475.84,-898.26 486.43,-898.71 484.4,-892.01"/>
<text text-anchor="middle" x="603" y="-868.27" font-family="Times,serif" font-size="10.00">prov:used</text>
</g>
<!-- DailyComp&#45;&gt;ObsSleep -->
<g id="edge8" class="edge">
<title>DailyComp&#45;&gt;ObsSleep</title>
<path fill="none" stroke="black" d="M808.45,-838.59C780.52,-845.46 749.46,-854.38 722,-865.27 703.05,-872.79 683.09,-883.42 666.71,-892.94"/>
<polygon fill="black" stroke="black" points="664.83,-889.99 658,-898.1 668.39,-896.02 664.83,-889.99"/>
<text text-anchor="middle" x="748" y="-868.27" font-family="Times,serif" font-size="10.00">prov:used</text>
</g>
<!-- MeanSteps -->
<g id="node17" class="node">
<title>MeanSteps</title>
<path fill="#e2f0d9" stroke="#666666" d="M958.5,-726.02C958.5,-726.02 823.5,-726.02 823.5,-726.02 817.5,-726.02 811.5,-720.02 811.5,-714.02 811.5,-714.02 811.5,-702.02 811.5,-702.02 811.5,-696.02 817.5,-690.02 823.5,-690.02 823.5,-690.02 958.5,-690.02 958.5,-690.02 964.5,-690.02 970.5,-696.02 970.5,-702.02 970.5,-702.02 970.5,-714.02 970.5,-714.02 970.5,-720.02 964.5,-726.02 958.5,-726.02"/>
<text text-anchor="middle" x="891" y="-711.22" font-family="Helvetica,sans-Serif" font-size="11.00" fill="#222222">odim:F_WeeklyMeanSteps</text>
<text text-anchor="middle" x="891" y="-699.22" font-family="Helvetica,sans-Serif" font-size="11.00" fill="#222222">(odim:DerivedFeature)</text>
</g>
<!-- DailyComp&#45;&gt;MeanSteps -->
<!-- F1 -->
<g id="node11" class="node">
<title>F1</title>
<path fill="#e2f0d9" stroke="#666666" d="M886.5,-934.27C886.5,-934.27 769.5,-934.27 769.5,-934.27 763.5,-934.27 757.5,-928.27 757.5,-922.27 757.5,-922.27 757.5,-910.27 757.5,-910.27 757.5,-904.27 763.5,-898.27 769.5,-898.27 769.5,-898.27 886.5,-898.27 886.5,-898.27 892.5,-898.27 898.5,-904.27 898.5,-910.27 898.5,-910.27 898.5,-922.27 898.5,-922.27 898.5,-928.27 892.5,-934.27 886.5,-934.27"/>
<text text-anchor="middle" x="828" y="-919.47" font-family="Helvetica,sans-Serif" font-size="11.00" fill="#222222">Daily Steps Day1</text>
<text text-anchor="middle" x="828" y="-907.47" font-family="Helvetica,sans-Serif" font-size="11.00" fill="#222222">(odim:DerivedFeature)</text>
</g>
<!-- F1&#45;&gt;DailyComp -->
<g id="edge13" class="edge">
<title>F1&#45;&gt;DailyComp</title>
<path fill="none" stroke="black" d="M797.99,-898.14C785.75,-888.89 776.13,-876.98 784,-865.27 789.71,-856.78 797.39,-849.94 806.03,-844.43"/>
<polygon fill="black" stroke="black" points="807.99,-847.35 814.95,-839.36 804.53,-841.26 807.99,-847.35"/>
<text text-anchor="middle" x="841.5" y="-868.27" font-family="Times,serif" font-size="10.00">odim:wasComputedBy</text>
</g>
<!-- F2 -->
<g id="node12" class="node">
<title>F2</title>
<path fill="#e2f0d9" stroke="#666666" d="M1056.5,-934.27C1056.5,-934.27 939.5,-934.27 939.5,-934.27 933.5,-934.27 927.5,-928.27 927.5,-922.27 927.5,-922.27 927.5,-910.27 927.5,-910.27 927.5,-904.27 933.5,-898.27 939.5,-898.27 939.5,-898.27 1056.5,-898.27 1056.5,-898.27 1062.5,-898.27 1068.5,-904.27 1068.5,-910.27 1068.5,-910.27 1068.5,-922.27 1068.5,-922.27 1068.5,-928.27 1062.5,-934.27 1056.5,-934.27"/>
<text text-anchor="middle" x="998" y="-919.47" font-family="Helvetica,sans-Serif" font-size="11.00" fill="#222222">Daily Steps Day2</text>
<text text-anchor="middle" x="998" y="-907.47" font-family="Helvetica,sans-Serif" font-size="11.00" fill="#222222">(odim:DerivedFeature)</text>
</g>
<!-- F2&#45;&gt;DailyComp -->
<g id="edge14" class="edge">
<title>F2&#45;&gt;DailyComp</title>
<path fill="none" stroke="black" d="M964.29,-898.27C953.69,-892.11 942.33,-884.59 933,-876.27 924.89,-869.05 917.26,-860.08 910.78,-851.52"/>
<polygon fill="black" stroke="black" points="913.42,-849.2 904.7,-843.16 907.75,-853.31 913.42,-849.2"/>
<text text-anchor="middle" x="990.5" y="-868.27" font-family="Times,serif" font-size="10.00">odim:wasComputedBy</text>
</g>
<!-- FDots -->
<g id="node13" class="node">
<title>FDots</title>
<path fill="white" stroke="transparent" d="M1190.5,-934.27C1190.5,-934.27 1109.5,-934.27 1109.5,-934.27 1103.5,-934.27 1097.5,-928.27 1097.5,-922.27 1097.5,-922.27 1097.5,-910.27 1097.5,-910.27 1097.5,-904.27 1103.5,-898.27 1109.5,-898.27 1109.5,-898.27 1190.5,-898.27 1190.5,-898.27 1196.5,-898.27 1202.5,-904.27 1202.5,-910.27 1202.5,-910.27 1202.5,-922.27 1202.5,-922.27 1202.5,-928.27 1196.5,-934.27 1190.5,-934.27"/>
<text text-anchor="middle" x="1150" y="-913.47" font-family="Helvetica,sans-Serif" font-size="11.00" fill="#666666">… (Day3..Day7)</text>
</g>
<!-- FDots&#45;&gt;DailyComp -->
<g id="edge17" class="edge">
<title>FDots&#45;&gt;DailyComp</title>
<path fill="none" stroke="black" stroke-dasharray="1,5" d="M1100.9,-898.12C1087.34,-892.25 1073.06,-884.94 1061,-876.27 1055.63,-872.42 1056.63,-868.73 1051,-865.27 1030.38,-852.64 1006.06,-843.6 982.7,-837.16"/>
</g>
<!-- SQ1 -->
<g id="node14" class="node">
<title>SQ1</title>
<path fill="#e2f0d9" stroke="#666666" d="M1360.5,-934.27C1360.5,-934.27 1243.5,-934.27 1243.5,-934.27 1237.5,-934.27 1231.5,-928.27 1231.5,-922.27 1231.5,-922.27 1231.5,-910.27 1231.5,-910.27 1231.5,-904.27 1237.5,-898.27 1243.5,-898.27 1243.5,-898.27 1360.5,-898.27 1360.5,-898.27 1366.5,-898.27 1372.5,-904.27 1372.5,-910.27 1372.5,-910.27 1372.5,-922.27 1372.5,-922.27 1372.5,-928.27 1366.5,-934.27 1360.5,-934.27"/>
<text text-anchor="middle" x="1302" y="-919.47" font-family="Helvetica,sans-Serif" font-size="11.00" fill="#222222">Sleep Minutes Day1</text>
<text text-anchor="middle" x="1302" y="-907.47" font-family="Helvetica,sans-Serif" font-size="11.00" fill="#222222">(odim:DerivedFeature)</text>
</g>
<!-- SQ1&#45;&gt;DailyComp -->
<g id="edge15" class="edge">
<title>SQ1&#45;&gt;DailyComp</title>
<path fill="none" stroke="black" d="M1231.07,-900.94C1226.31,-900.02 1221.59,-899.13 1217,-898.27 1160.25,-887.72 1144.85,-890.87 1089,-876.27 1074.86,-872.58 1071.97,-869.57 1058,-865.27 1031.09,-857 1001.43,-848.92 974.67,-842.01"/>
<polygon fill="black" stroke="black" points="975.51,-838.61 964.96,-839.52 973.78,-845.39 975.51,-838.61"/>
<text text-anchor="middle" x="1146.5" y="-868.27" font-family="Times,serif" font-size="10.00">odim:wasComputedBy</text>
</g>
<!-- SQ2 -->
<g id="node15" class="node">
<title>SQ2</title>
<path fill="#e2f0d9" stroke="#666666" d="M1530.5,-934.27C1530.5,-934.27 1413.5,-934.27 1413.5,-934.27 1407.5,-934.27 1401.5,-928.27 1401.5,-922.27 1401.5,-922.27 1401.5,-910.27 1401.5,-910.27 1401.5,-904.27 1407.5,-898.27 1413.5,-898.27 1413.5,-898.27 1530.5,-898.27 1530.5,-898.27 1536.5,-898.27 1542.5,-904.27 1542.5,-910.27 1542.5,-910.27 1542.5,-922.27 1542.5,-922.27 1542.5,-928.27 1536.5,-934.27 1530.5,-934.27"/>
<text text-anchor="middle" x="1472" y="-919.47" font-family="Helvetica,sans-Serif" font-size="11.00" fill="#222222">Sleep Minutes Day2</text>
<text text-anchor="middle" x="1472" y="-907.47" font-family="Helvetica,sans-Serif" font-size="11.00" fill="#222222">(odim:DerivedFeature)</text>
</g>
<!-- SQ2&#45;&gt;DailyComp -->
<g id="edge16" class="edge">
<title>SQ2&#45;&gt;DailyComp</title>
<path fill="none" stroke="black" d="M1401.06,-901C1396.3,-900.07 1391.58,-899.15 1387,-898.27 1307.12,-882.96 1287.3,-878.17 1207,-865.27 1140.45,-854.58 1065.75,-844.2 1005.7,-836.24"/>
<polygon fill="black" stroke="black" points="1005.8,-832.73 995.43,-834.89 1004.88,-839.67 1005.8,-832.73"/>
<text text-anchor="middle" x="1326.5" y="-868.27" font-family="Times,serif" font-size="10.00">odim:wasComputedBy</text>
</g>
<!-- WeeklySteps -->
<g id="node16" class="node">
<title>WeeklySteps</title>
<ellipse fill="#fff2cc" stroke="#666666" cx="1189" cy="-612.39" rx="133.79" ry="22.76"/>
<text text-anchor="middle" x="1189" y="-615.59" font-family="Helvetica,sans-Serif" font-size="11.00" fill="#222222">odim:A_WeeklyAggregateSteps</text>
<text text-anchor="middle" x="1189" y="-603.59" font-family="Helvetica,sans-Serif" font-size="11.00" fill="#222222">(odim:AlgorithmicComputation)</text>
</g>
<!-- WeeklySteps&#45;&gt;F1 -->
<g id="edge26" class="edge">
<title>WeeklySteps&#45;&gt;F1</title>
<path fill="none" stroke="black" d="M1206.12,-635.08C1252.43,-694.32 1375.43,-855.86 1356,-876.27 1339.01,-894.13 937.45,-895.24 913,-898.27 911.7,-898.44 910.39,-898.61 909.07,-898.78"/>
<polygon fill="black" stroke="black" points="908.22,-895.37 898.83,-900.29 909.24,-902.3 908.22,-895.37"/>
<text text-anchor="middle" x="1335" y="-768.02" font-family="Times,serif" font-size="10.00">prov:used</text>
</g>
<!-- WeeklySteps&#45;&gt;F2 -->
<g id="edge27" class="edge">
<title>WeeklySteps&#45;&gt;F2</title>
<path fill="none" stroke="black" d="M1261.27,-631.43C1276.06,-637.68 1290.58,-645.99 1302,-657.02 1339.84,-693.54 1426.83,-837.79 1391,-876.27 1367.62,-901.38 1117,-893.68 1083,-898.27 1081.7,-898.45 1080.39,-898.63 1079.07,-898.82"/>
<polygon fill="black" stroke="black" points="1078.19,-895.42 1068.85,-900.41 1079.27,-902.34 1078.19,-895.42"/>
<text text-anchor="middle" x="1404" y="-768.02" font-family="Times,serif" font-size="10.00">prov:used</text>
</g>
<!-- WeeklySteps&#45;&gt;FDots -->
<g id="edge28" class="edge">
<title>WeeklySteps&#45;&gt;FDots</title>
<path fill="none" stroke="black" stroke-dasharray="1,5" d="M1303.77,-624.21C1327.95,-630.83 1351.89,-641.12 1371,-657.02 1448.23,-721.27 1493.22,-801.61 1426,-876.27 1394.75,-910.98 1262.97,-890.07 1217,-898.27 1212.27,-899.12 1207.39,-900.11 1202.51,-901.19"/>
</g>
<!-- MeanSteps&#45;&gt;WeeklySteps -->
<g id="edge29" class="edge">
<title>MeanSteps&#45;&gt;WeeklySteps</title>
<path fill="none" stroke="black" d="M945.31,-689.96C993.83,-674.71 1065.22,-652.28 1118.2,-635.64"/>
<polygon fill="black" stroke="black" points="1119.38,-638.93 1127.87,-632.6 1117.28,-632.26 1119.38,-638.93"/>
<text text-anchor="middle" x="1105.5" y="-660.02" font-family="Times,serif" font-size="10.00">odim:wasComputedBy</text>
</g>
<!-- StepsDecision -->
<g id="node19" class="node">
<title>StepsDecision</title>
<ellipse fill="#fff2cc" stroke="#666666" cx="891" cy="-612.39" rx="135.11" ry="22.76"/>
<text text-anchor="middle" x="891" y="-615.59" font-family="Helvetica,sans-Serif" font-size="11.00" fill="#222222">odim:A_StepsThresholdDecision</text>
<text text-anchor="middle" x="891" y="-603.59" font-family="Helvetica,sans-Serif" font-size="11.00" fill="#222222">(odim:AlgorithmicComputation)</text>
</g>
<!-- MeanSteps&#45;&gt;StepsDecision -->
<!-- Thresh -->
<g id="node18" class="node">
<title>Thresh</title>
<path fill="#ffe5d9" stroke="#666666" d="M1179.5,-534.76C1179.5,-534.76 1044.5,-534.76 1044.5,-534.76 1038.5,-534.76 1032.5,-528.76 1032.5,-522.76 1032.5,-522.76 1032.5,-510.76 1032.5,-510.76 1032.5,-504.76 1038.5,-498.76 1044.5,-498.76 1044.5,-498.76 1179.5,-498.76 1179.5,-498.76 1185.5,-498.76 1191.5,-504.76 1191.5,-510.76 1191.5,-510.76 1191.5,-522.76 1191.5,-522.76 1191.5,-528.76 1185.5,-534.76 1179.5,-534.76"/>
<text text-anchor="middle" x="1112" y="-519.96" font-family="Helvetica,sans-Serif" font-size="11.00" fill="#222222">odim:Threshold_LowSteps</text>
<text text-anchor="middle" x="1112" y="-507.96" font-family="Helvetica,sans-Serif" font-size="11.00" fill="#222222">(prov:Entity)</text>
</g>
<!-- StepsDecision&#45;&gt;MeanSteps -->
<g id="edge30" class="edge">
<title>StepsDecision&#45;&gt;MeanSteps</title>
<path fill="none" stroke="black" d="M892.42,-635.19C892.91,-645.19 893.28,-657.2 893,-668.02 892.9,-671.84 892.75,-675.86 892.57,-679.82"/>
<polygon fill="black" stroke="black" points="889.07,-679.78 892.07,-689.94 896.06,-680.13 889.07,-679.78"/>
<text text-anchor="middle" x="919" y="-660.02" font-family="Times,serif" font-size="10.00">prov:used</text>
</g>
<!-- StepsDecision&#45;&gt;Thresh -->
<g id="edge31" class="edge">
<title>StepsDecision&#45;&gt;Thresh</title>
<path fill="none" stroke="black" d="M951.24,-592.06C971.71,-585 994.57,-576.58 1015,-567.76 1034.23,-559.47 1054.94,-549.02 1072.26,-539.82"/>
<polygon fill="black" stroke="black" points="1074.35,-542.67 1081.51,-534.86 1071.04,-536.5 1074.35,-542.67"/>
<text text-anchor="middle" x="1062" y="-559.76" font-family="Times,serif" font-size="10.00">prov:used</text>
</g>
<!-- Marker -->
<g id="node20" class="node">
<title>Marker</title>
<path fill="#e2f0d9" stroke="#666666" d="M991,-534.76C991,-534.76 791,-534.76 791,-534.76 785,-534.76 779,-528.76 779,-522.76 779,-522.76 779,-510.76 779,-510.76 779,-504.76 785,-498.76 791,-498.76 791,-498.76 991,-498.76 991,-498.76 997,-498.76 1003,-504.76 1003,-510.76 1003,-510.76 1003,-522.76 1003,-522.76 1003,-528.76 997,-534.76 991,-534.76"/>
<text text-anchor="middle" x="891" y="-519.96" font-family="Helvetica,sans-Serif" font-size="11.00" fill="#222222">odim:Marker_LowActivityDuringTravel</text>
<text text-anchor="middle" x="891" y="-507.96" font-family="Helvetica,sans-Serif" font-size="11.00" fill="#222222">(odim:DerivedFeature)</text>
</g>
<!-- StepsDecision&#45;&gt;Marker -->
<!-- Marker&#45;&gt;StepsDecision -->
<g id="edge32" class="edge">
<title>Marker&#45;&gt;StepsDecision</title>
<path fill="none" stroke="black" d="M892.07,-534.84C892.44,-541.66 892.82,-549.58 893,-556.76 893.19,-564.12 893.08,-572.02 892.84,-579.47"/>
<polygon fill="black" stroke="black" points="889.33,-579.46 892.42,-589.6 896.33,-579.75 889.33,-579.46"/>
<text text-anchor="middle" x="950.5" y="-559.76" font-family="Times,serif" font-size="10.00">odim:wasComputedBy</text>
</g>
<!-- Combine -->
<g id="node26" class="node">
<title>Combine</title>
<ellipse fill="#fff2cc" stroke="#666666" cx="926" cy="-421.14" rx="133.79" ry="22.76"/>
<text text-anchor="middle" x="926" y="-424.34" font-family="Helvetica,sans-Serif" font-size="11.00" fill="#222222">odim:A_MarkerDerivation</text>
<text text-anchor="middle" x="926" y="-412.34" font-family="Helvetica,sans-Serif" font-size="11.00" fill="#222222">(odim:AlgorithmicComputation)</text>
</g>
<!-- Marker&#45;&gt;Combine -->
<!-- WeeklySleep -->
<g id="node21" class="node">
<title>WeeklySleep</title>
<ellipse fill="#fff2cc" stroke="#666666" cx="1160" cy="-38.63" rx="162.77" ry="22.76"/>
<text text-anchor="middle" x="1160" y="-41.83" font-family="Helvetica,sans-Serif" font-size="11.00" fill="#222222">odim:A_WeeklyAggregateSleepMinutes</text>
<text text-anchor="middle" x="1160" y="-29.83" font-family="Helvetica,sans-Serif" font-size="11.00" fill="#222222">(odim:AlgorithmicComputation)</text>
</g>
<!-- WeeklySleep&#45;&gt;FDots -->
<g id="edge35" class="edge">
<title>WeeklySleep&#45;&gt;FDots</title>
<path fill="none" stroke="black" stroke-dasharray="1,5" d="M1292.22,-51.95C1386.64,-64.54 1497,-88.78 1497,-133.25 1497,-821.65 1497,-821.65 1497,-821.65 1497,-853.1 1479.79,-861.54 1452,-876.27 1405.66,-900.84 1268.69,-889.35 1217,-898.27 1212.27,-899.09 1207.38,-900.07 1202.5,-901.13"/>
</g>
<!-- WeeklySleep&#45;&gt;SQ1 -->
<g id="edge33" class="edge">
<title>WeeklySleep&#45;&gt;SQ1</title>
<path fill="none" stroke="black" d="M1309.99,-47.47C1422.08,-57.58 1556,-80.67 1556,-133.25 1556,-821.65 1556,-821.65 1556,-821.65 1556,-862.17 1519.88,-859.48 1483,-876.27 1478.09,-878.51 1428.62,-889.11 1382.64,-898.7"/>
<polygon fill="black" stroke="black" points="1381.67,-895.32 1372.6,-900.79 1383.1,-902.18 1381.67,-895.32"/>
<text text-anchor="middle" x="1582" y="-468.76" font-family="Times,serif" font-size="10.00">prov:used</text>
</g>
<!-- WeeklySleep&#45;&gt;SQ2 -->
<g id="edge34" class="edge">
<title>WeeklySleep&#45;&gt;SQ2</title>
<path fill="none" stroke="black" d="M1322.18,-40.85C1462.15,-46.44 1642,-66.6 1642,-133.25 1642,-821.65 1642,-821.65 1642,-821.65 1642,-866.28 1596.47,-889.8 1552.54,-902.09"/>
<polygon fill="black" stroke="black" points="1551.4,-898.77 1542.62,-904.7 1553.18,-905.54 1551.4,-898.77"/>
<text text-anchor="middle" x="1668" y="-468.76" font-family="Times,serif" font-size="10.00">prov:used</text>
</g>
<!-- MeanSleep -->
<g id="node22" class="node">
<title>MeanSleep</title>
<path fill="#e2f0d9" stroke="#666666" d="M805,-152.25C805,-152.25 627,-152.25 627,-152.25 621,-152.25 615,-146.25 615,-140.25 615,-140.25 615,-128.25 615,-128.25 615,-122.25 621,-116.25 627,-116.25 627,-116.25 805,-116.25 805,-116.25 811,-116.25 817,-122.25 817,-128.25 817,-128.25 817,-140.25 817,-140.25 817,-146.25 811,-152.25 805,-152.25"/>
<text text-anchor="middle" x="716" y="-137.45" font-family="Helvetica,sans-Serif" font-size="11.00" fill="#222222">odim:F_WeeklyMeanSleepMinutes</text>
<text text-anchor="middle" x="716" y="-125.45" font-family="Helvetica,sans-Serif" font-size="11.00" fill="#222222">(odim:DerivedFeature)</text>
</g>
<!-- MeanSleep&#45;&gt;WeeklySleep -->
<g id="edge36" class="edge">
<title>MeanSleep&#45;&gt;WeeklySleep</title>
<path fill="none" stroke="black" d="M794.61,-116.25C807.11,-113.56 819.91,-110.82 832,-108.25 909.54,-91.79 997.46,-73.41 1062.74,-59.82"/>
<polygon fill="black" stroke="black" points="1063.53,-63.23 1072.61,-57.76 1062.11,-56.37 1063.53,-63.23"/>
<text text-anchor="middle" x="1006.5" y="-86.25" font-family="Times,serif" font-size="10.00">odim:wasComputedBy</text>
</g>
<!-- SleepBaseline -->
<g id="node23" class="node">
<title>SleepBaseline</title>
<path fill="#ffe5d9" stroke="#666666" d="M1007.5,-152.25C1007.5,-152.25 858.5,-152.25 858.5,-152.25 852.5,-152.25 846.5,-146.25 846.5,-140.25 846.5,-140.25 846.5,-128.25 846.5,-128.25 846.5,-122.25 852.5,-116.25 858.5,-116.25 858.5,-116.25 1007.5,-116.25 1007.5,-116.25 1013.5,-116.25 1019.5,-122.25 1019.5,-128.25 1019.5,-128.25 1019.5,-140.25 1019.5,-140.25 1019.5,-146.25 1013.5,-152.25 1007.5,-152.25"/>
<text text-anchor="middle" x="933" y="-137.45" font-family="Helvetica,sans-Serif" font-size="11.00" fill="#222222">odim:Baseline_SleepMinutes</text>
<text text-anchor="middle" x="933" y="-125.45" font-family="Helvetica,sans-Serif" font-size="11.00" fill="#222222">(prov:Entity)</text>
</g>
<!-- SleepDebtDecision -->
<g id="node24" class="node">
<title>SleepDebtDecision</title>
<ellipse fill="#fff2cc" stroke="#666666" cx="716" cy="-229.88" rx="133.79" ry="22.76"/>
<text text-anchor="middle" x="716" y="-233.08" font-family="Helvetica,sans-Serif" font-size="11.00" fill="#222222">odim:A_SleepDebtDecision</text>
<text text-anchor="middle" x="716" y="-221.08" font-family="Helvetica,sans-Serif" font-size="11.00" fill="#222222">(odim:AlgorithmicComputation)</text>
</g>
<!-- SleepDebtDecision&#45;&gt;MeanSleep -->
<g id="edge37" class="edge">
<title>SleepDebtDecision&#45;&gt;MeanSleep</title>
<path fill="none" stroke="black" d="M716,-207.17C716,-193.91 716,-176.84 716,-162.65"/>
<polygon fill="black" stroke="black" points="719.5,-162.48 716,-152.48 712.5,-162.48 719.5,-162.48"/>
<text text-anchor="middle" x="742" y="-177.25" font-family="Times,serif" font-size="10.00">prov:used</text>
</g>
<!-- SleepDebtDecision&#45;&gt;SleepBaseline -->
<g id="edge38" class="edge">
<title>SleepDebtDecision&#45;&gt;SleepBaseline</title>
<path fill="none" stroke="black" d="M762.82,-208.68C798.62,-193.24 847.83,-172 884.13,-156.34"/>
<polygon fill="black" stroke="black" points="885.74,-159.46 893.53,-152.28 882.96,-153.03 885.74,-159.46"/>
<text text-anchor="middle" x="863" y="-177.25" font-family="Times,serif" font-size="10.00">prov:used</text>
</g>
<!-- SleepDebt -->
<g id="node25" class="node">
<title>SleepDebt</title>
<path fill="#e2f0d9" stroke="#666666" d="M750.5,-343.51C750.5,-343.51 585.5,-343.51 585.5,-343.51 579.5,-343.51 573.5,-337.51 573.5,-331.51 573.5,-331.51 573.5,-319.51 573.5,-319.51 573.5,-313.51 579.5,-307.51 585.5,-307.51 585.5,-307.51 750.5,-307.51 750.5,-307.51 756.5,-307.51 762.5,-313.51 762.5,-319.51 762.5,-319.51 762.5,-331.51 762.5,-331.51 762.5,-337.51 756.5,-343.51 750.5,-343.51"/>
<text text-anchor="middle" x="668" y="-328.71" font-family="Helvetica,sans-Serif" font-size="11.00" fill="#222222">odim:Marker_SleepDebt_Week1</text>
<text text-anchor="middle" x="668" y="-316.71" font-family="Helvetica,sans-Serif" font-size="11.00" fill="#222222">(odim:DerivedFeature)</text>
</g>
<!-- SleepDebt&#45;&gt;SleepDebtDecision -->
<g id="edge39" class="edge">
<title>SleepDebt&#45;&gt;SleepDebtDecision</title>
<path fill="none" stroke="black" d="M676.8,-307.34C683.35,-294.57 692.45,-276.81 700.24,-261.62"/>
<polygon fill="black" stroke="black" points="703.44,-263.06 704.89,-252.56 697.21,-259.86 703.44,-263.06"/>
<text text-anchor="middle" x="750.5" y="-277.51" font-family="Times,serif" font-size="10.00">odim:wasComputedBy</text>
</g>
<!-- Combine&#45;&gt;Marker -->
<g id="edge40" class="edge">
<title>Combine&#45;&gt;Marker</title>
<path fill="none" stroke="black" d="M917.9,-443.82C912.88,-457.22 906.41,-474.54 901.07,-488.83"/>
<polygon fill="black" stroke="black" points="897.64,-488 897.42,-498.59 904.2,-490.45 897.64,-488"/>
<text text-anchor="middle" x="935" y="-468.76" font-family="Times,serif" font-size="10.00">prov:used</text>
</g>
<!-- Combine&#45;&gt;SleepDebt -->
<g id="edge41" class="edge">
<title>Combine&#45;&gt;SleepDebt</title>
<path fill="none" stroke="black" d="M871.6,-400.4C828.44,-384.73 768.31,-362.91 724.59,-347.05"/>
<polygon fill="black" stroke="black" points="725.56,-343.68 714.97,-343.55 723.17,-350.26 725.56,-343.68"/>
<text text-anchor="middle" x="830" y="-368.51" font-family="Times,serif" font-size="10.00">prov:used</text>
</g>
<!-- Phenotype -->
<g id="node27" class="node">
<title>Phenotype</title>
<path fill="#ede7f6" stroke="#666666" d="M1116,-343.51C1116,-343.51 804,-343.51 804,-343.51 798,-343.51 792,-337.51 792,-331.51 792,-331.51 792,-319.51 792,-319.51 792,-313.51 798,-307.51 804,-307.51 804,-307.51 1116,-307.51 1116,-307.51 1122,-307.51 1128,-313.51 1128,-319.51 1128,-319.51 1128,-331.51 1128,-331.51 1128,-337.51 1122,-343.51 1116,-343.51"/>
<text text-anchor="middle" x="960" y="-328.71" font-family="Helvetica,sans-Serif" font-size="11.00" fill="#222222">odim:Phenotype_TravelAssociatedInactivityWithSleepDebt</text>
<text text-anchor="middle" x="960" y="-316.71" font-family="Helvetica,sans-Serif" font-size="11.00" fill="#222222">(odim:ActivityPhenotype)</text>
</g>
<!-- Combine&#45;&gt;Phenotype -->
<!-- TravelWin -->
<g id="node30" class="node">
<title>TravelWin</title>
<path fill="#fde2e4" stroke="#666666" d="M1310.5,-343.51C1310.5,-343.51 1169.5,-343.51 1169.5,-343.51 1163.5,-343.51 1157.5,-337.51 1157.5,-331.51 1157.5,-331.51 1157.5,-319.51 1157.5,-319.51 1157.5,-313.51 1163.5,-307.51 1169.5,-307.51 1169.5,-307.51 1310.5,-307.51 1310.5,-307.51 1316.5,-307.51 1322.5,-313.51 1322.5,-319.51 1322.5,-319.51 1322.5,-331.51 1322.5,-331.51 1322.5,-337.51 1316.5,-343.51 1310.5,-343.51"/>
<text text-anchor="middle" x="1240" y="-328.71" font-family="Helvetica,sans-Serif" font-size="11.00" fill="#222222">odim:TravelWindow_Week1</text>
<text text-anchor="middle" x="1240" y="-316.71" font-family="Helvetica,sans-Serif" font-size="11.00" fill="#222222">(odim:EventWindow)</text>
</g>
<!-- Combine&#45;&gt;TravelWin -->
<g id="edge42" class="edge">
<title>Combine&#45;&gt;TravelWin</title>
<path fill="none" stroke="black" d="M989.54,-401.19C1042.85,-385.29 1118.77,-362.66 1173.02,-346.48"/>
<polygon fill="black" stroke="black" points="1174.3,-349.75 1182.89,-343.54 1172.3,-343.04 1174.3,-349.75"/>
<text text-anchor="middle" x="1127" y="-368.51" font-family="Times,serif" font-size="10.00">prov:used</text>
</g>
<!-- Phenotype&#45;&gt;Combine -->
<g id="edge43" class="edge">
<title>Phenotype&#45;&gt;Combine</title>
<path fill="none" stroke="black" d="M953.74,-343.74C949.16,-356.37 942.8,-373.88 937.33,-388.95"/>
<polygon fill="black" stroke="black" points="934.01,-387.83 933.89,-398.42 940.59,-390.22 934.01,-387.83"/>
<text text-anchor="middle" x="1002.5" y="-368.51" font-family="Times,serif" font-size="10.00">odim:wasComputedBy</text>
</g>
<!-- Week -->
<g id="node28" class="node">
<title>Week</title>
<path fill="#f3f4f6" stroke="#666666" d="M1014,-247.88C1014,-247.88 900,-247.88 900,-247.88 894,-247.88 888,-241.88 888,-235.88 888,-235.88 888,-223.88 888,-223.88 888,-217.88 894,-211.88 900,-211.88 900,-211.88 1014,-211.88 1014,-211.88 1020,-211.88 1026,-217.88 1026,-223.88 1026,-223.88 1026,-235.88 1026,-235.88 1026,-241.88 1020,-247.88 1014,-247.88"/>
<text text-anchor="middle" x="957" y="-233.08" font-family="Helvetica,sans-Serif" font-size="11.00" fill="#222222">odim:Week1</text>
<text text-anchor="middle" x="957" y="-221.08" font-family="Helvetica,sans-Serif" font-size="11.00" fill="#222222">(odim:WeeklyInterval)</text>
</g>
<!-- Phenotype&#45;&gt;Week -->
<g id="edge44" class="edge">
<title>Phenotype&#45;&gt;Week</title>
<path fill="none" stroke="black" d="M959.45,-307.34C959.01,-293.61 958.39,-274.11 957.88,-258.24"/>
<polygon fill="black" stroke="black" points="961.37,-257.83 957.55,-247.95 954.37,-258.05 961.37,-257.83"/>
<text text-anchor="middle" x="1007" y="-277.51" font-family="Times,serif" font-size="10.00">odim:occursDuring</text>
</g>
<!-- TravelDetect -->
<g id="node29" class="node">
<title>TravelDetect</title>
<ellipse fill="#fff2cc" stroke="#666666" cx="1189" cy="-229.88" rx="133.79" ry="22.76"/>
<text text-anchor="middle" x="1189" y="-233.08" font-family="Helvetica,sans-Serif" font-size="11.00" fill="#222222">odim:A_TravelDetection</text>
<text text-anchor="middle" x="1189" y="-221.08" font-family="Helvetica,sans-Serif" font-size="11.00" fill="#222222">(odim:AlgorithmicComputation)</text>
</g>
<!-- TravelDetect&#45;&gt;ObsLoc -->
<g id="edge9" class="edge">
<title>TravelDetect&#45;&gt;ObsLoc</title>
<path fill="none" stroke="black" d="M1272.2,-247.62C1340.15,-263.76 1425,-290.68 1425,-324.51 1425,-613.39 1425,-613.39 1425,-613.39 1425,-819.1 1185.51,-711.07 985,-757.02 878.76,-781.36 849.18,-770.24 742,-790.02 575.86,-820.68 383.54,-868.86 280.78,-895.65"/>
<polygon fill="black" stroke="black" points="279.61,-892.34 270.82,-898.26 281.38,-899.11 279.61,-892.34"/>
<text text-anchor="middle" x="1451" y="-559.76" font-family="Times,serif" font-size="10.00">prov:used</text>
</g>
<!-- TravelDetect&#45;&gt;LocDots -->
<g id="edge10" class="edge">
<title>TravelDetect&#45;&gt;LocDots</title>
<path fill="none" stroke="black" stroke-dasharray="1,5" d="M1234.78,-208.57C1272.6,-191.79 1325.68,-168.23 1361.38,-152.39"/>
</g>
<!-- TravelThresh -->
<g id="node31" class="node">
<title>TravelThresh</title>
<path fill="#ffe5d9" stroke="#666666" d="M1256,-152.25C1256,-152.25 1122,-152.25 1122,-152.25 1116,-152.25 1110,-146.25 1110,-140.25 1110,-140.25 1110,-128.25 1110,-128.25 1110,-122.25 1116,-116.25 1122,-116.25 1122,-116.25 1256,-116.25 1256,-116.25 1262,-116.25 1268,-122.25 1268,-128.25 1268,-128.25 1268,-140.25 1268,-140.25 1268,-146.25 1262,-152.25 1256,-152.25"/>
<text text-anchor="middle" x="1189" y="-137.45" font-family="Helvetica,sans-Serif" font-size="11.00" fill="#222222">odim:Threshold_TravelKm</text>
<text text-anchor="middle" x="1189" y="-125.45" font-family="Helvetica,sans-Serif" font-size="11.00" fill="#222222">(prov:Entity)</text>
</g>
<!-- TravelDetect&#45;&gt;TravelThresh -->
<g id="edge11" class="edge">
<title>TravelDetect&#45;&gt;TravelThresh</title>
<path fill="none" stroke="black" d="M1189,-207.17C1189,-193.91 1189,-176.84 1189,-162.65"/>
<polygon fill="black" stroke="black" points="1192.5,-162.48 1189,-152.48 1185.5,-162.48 1192.5,-162.48"/>
<text text-anchor="middle" x="1215" y="-177.25" font-family="Times,serif" font-size="10.00">prov:used</text>
</g>
<!-- TravelWin&#45;&gt;TravelDetect -->
<g id="edge12" class="edge">
<title>TravelWin&#45;&gt;TravelDetect</title>
<path fill="none" stroke="black" d="M1230.65,-307.34C1223.69,-294.57 1214.02,-276.81 1205.74,-261.62"/>
<polygon fill="black" stroke="black" points="1208.67,-259.67 1200.81,-252.56 1202.52,-263.02 1208.67,-259.67"/>
<text text-anchor="middle" x="1274.5" y="-277.51" font-family="Times,serif" font-size="10.00">odim:wasComputedBy</text>
</g>
</g>
</svg>
