<?xml version="1.0" encoding="UTF-8" standalone="no"?>
<!DOCTYPE svg PUBLIC "-//W3C//DTD SVG 1.1//EN"
 "http://www.w3.org/Graphics/SVG/1.1/DTD/svg11.dtd">
<!-- Generated by graphviz version 2.43.0 (0)
 -->
<!-- Title: DemoFlow Pages: 1 -->
<svg width="2155pt" height="838pt"
 viewBox="0.00 0.00 2155.00 837.75" xmlns="http://www.w3.org/2000/svg" xmlns:xlink="http://www.w3.org/1999/xlink">
<g id="graph0" class="graph" transform="scale(1 1) rotate(0) translate(4 833.75)">
<title>DemoFlow</title>
<polygon fill="white" stroke="transparent" points="-4,4 -4,-833.75 2151,-833.75 2151,4 -4,4"/>
<g id="clust1" class="cluster">
<title>cluster_legend</title>
<polygon fill="none" stroke="#e5e5e5" stroke-dasharray="5,2" points="798.5,-762.29 798.5,-821.75 1426.5,-821.75 1426.5,-762.29 798.5,-762.29"/>
<text text-anchor="middle" x="824" y="-810.55" font-family="Times,serif" font-size="9.00">Legend</text>
</g>
<!-- Lraw -->
<g id="node1" class="node">
<title>Lraw</title>
<path fill="#eeeeee" stroke="#666666" d="M1412.5,-792.02C1412.5,-792.02 1374.5,-792.02 1374.5,-792.02 1371.5,-792.02 1368.5,-789.02 1368.5,-786.02 1368.5,-786.02 1368.5,-780.02 1368.5,-780.02 1368.5,-777.02 1371.5,-774.02 1374.5,-774.02 1374.5,-774.02 1412.5,-774.02 1412.5,-774.02 1415.5,-774.02 1418.5,-777.02 1418.5,-780.02 1418.5,-780.02 1418.5,-786.02 1418.5,-786.02 1418.5,-789.02 1415.5,-792.02 1412.5,-792.02"/>
<text text-anchor="middle" x="1393.5" y="-780.82" font-family="Helvetica,sans-Serif" font-size="9.00" fill="#222222">Raw</text>
</g>
<!-- Lobs -->
<g id="node2" class="node">
<title>Lobs</title>
<path fill="#ddeeff" stroke="#666666" d="M1333.5,-792.02C1333.5,-792.02 1295.5,-792.02 1295.5,-792.02 1292.5,-792.02 1289.5,-789.02 1289.5,-786.02 1289.5,-786.02 1289.5,-780.02 1289.5,-780.02 1289.5,-777.02 1292.5,-774.02 1295.5,-774.02 1295.5,-774.02 1333.5,-774.02 1333.5,-774.02 1336.5,-774.02 1339.5,-777.02 1339.5,-780.02 1339.5,-780.02 1339.5,-786.02 1339.5,-786.02 1339.5,-789.02 1336.5,-792.02 1333.5,-792.02"/>
<text text-anchor="middle" x="1314.5" y="-780.82" font-family="Helvetica,sans-Serif" font-size="9.00" fill="#222222">Obs</text>
</g>
<!-- Lfeat -->
<g id="node3" class="node">
<title>Lfeat</title>
<path fill="#e2f0d9" stroke="#666666" d="M1254,-792.02C1254,-792.02 1201,-792.02 1201,-792.02 1198,-792.02 1195,-789.02 1195,-786.02 1195,-786.02 1195,-780.02 1195,-780.02 1195,-777.02 1198,-774.02 1201,-774.02 1201,-774.02 1254,-774.02 1254,-774.02 1257,-774.02 1260,-777.02 1260,-780.02 1260,-780.02 1260,-786.02 1260,-786.02 1260,-789.02 1257,-792.02 1254,-792.02"/>
<text text-anchor="middle" x="1227.5" y="-780.82" font-family="Helvetica,sans-Serif" font-size="9.00" fill="#222222">Feature</text>
</g>
<!-- Lact -->
<g id="node4" class="node">
<title>Lact</title>
<ellipse fill="#fff2cc" stroke="#666666" cx="1130.5" cy="-783.02" rx="35.21" ry="12.96"/>
<text text-anchor="middle" x="1130.5" y="-780.82" font-family="Helvetica,sans-Serif" font-size="9.00" fill="#222222">Activity</text>
</g>
<!-- Lparam -->
<g id="node5" class="node">
<title>Lparam</title>
<path fill="#ffe5d9" stroke="#666666" d="M1060.5,-792.02C1060.5,-792.02 1022.5,-792.02 1022.5,-792.02 1019.5,-792.02 1016.5,-789.02 1016.5,-786.02 1016.5,-786.02 1016.5,-780.02 1016.5,-780.02 1016.5,-777.02 1019.5,-774.02 1022.5,-774.02 1022.5,-774.02 1060.5,-774.02 1060.5,-774.02 1063.5,-774.02 1066.5,-777.02 1066.5,-780.02 1066.5,-780.02 1066.5,-786.02 1066.5,-786.02 1066.5,-789.02 1063.5,-792.02 1060.5,-792.02"/>
<text text-anchor="middle" x="1041.5" y="-780.82" font-family="Helvetica,sans-Serif" font-size="9.00" fill="#222222">Param</text>
</g>
<!-- Lwin -->
<g id="node6" class="node">
<title>Lwin</title>
<path fill="#fde2e4" stroke="#666666" d="M981,-792.02C981,-792.02 928,-792.02 928,-792.02 925,-792.02 922,-789.02 922,-786.02 922,-786.02 922,-780.02 922,-780.02 922,-777.02 925,-774.02 928,-774.02 928,-774.02 981,-774.02 981,-774.02 984,-774.02 987,-777.02 987,-780.02 987,-780.02 987,-786.02 987,-786.02 987,-789.02 984,-792.02 981,-792.02"/>
<text text-anchor="middle" x="954.5" y="-780.82" font-family="Helvetica,sans-Serif" font-size="9.00" fill="#222222">Window</text>
</g>
<!-- Lpheno -->
<g id="node7" class="node">
<title>Lpheno</title>
<path fill="#ede7f6" stroke="#666666" d="M886.5,-792.02C886.5,-792.02 812.5,-792.02 812.5,-792.02 809.5,-792.02 806.5,-789.02 806.5,-786.02 806.5,-786.02 806.5,-780.02 806.5,-780.02 806.5,-777.02 809.5,-774.02 812.5,-774.02 812.5,-774.02 886.5,-774.02 886.5,-774.02 889.5,-774.02 892.5,-777.02 892.5,-780.02 892.5,-780.02 892.5,-786.02 892.5,-786.02 892.5,-789.02 889.5,-792.02 886.5,-792.02"/>
<text text-anchor="middle" x="849.5" y="-780.82" font-family="Helvetica,sans-Serif" font-size="9.00" fill="#222222">Phenotype</text>
</g>
<!-- RawSteps -->
<g id="node8" class="node">
<title>RawSteps</title>
<path fill="#eeeeee" stroke="#666666" d="M612,-36C612,-36 513,-36 513,-36 507,-36 501,-30 501,-24 501,-24 501,-12 501,-12 501,-6 507,0 513,0 513,0 612,0 612,0 618,0 624,-6 624,-12 624,-12 624,-24 624,-24 624,-30 618,-36 612,-36"/>
<text text-anchor="middle" x="562.5" y="-21.2" font-family="Helvetica,sans-Serif" font-size="11.00" fill="#222222">odim:RawStepsCSV</text>
<text text-anchor="middle" x="562.5" y="-9.2" font-family="Helvetica,sans-Serif" font-size="11.00" fill="#222222">(prov:Entity)</text>
</g>
<!-- RawSleep -->
<g id="node9" class="node">
<title>RawSleep</title>
<path fill="#eeeeee" stroke="#666666" d="M763.5,-36C763.5,-36 665.5,-36 665.5,-36 659.5,-36 653.5,-30 653.5,-24 653.5,-24 653.5,-12 653.5,-12 653.5,-6 659.5,0 665.5,0 665.5,0 763.5,0 763.5,0 769.5,0 775.5,-6 775.5,-12 775.5,-12 775.5,-24 775.5,-24 775.5,-30 769.5,-36 763.5,-36"/>
<text text-anchor="middle" x="714.5" y="-21.2" font-family="Helvetica,sans-Serif" font-size="11.00" fill="#222222">odim:RawSleepCSV</text>
<text text-anchor="middle" x="714.5" y="-9.2" font-family="Helvetica,sans-Serif" font-size="11.00" fill="#222222">(prov:Entity)</text>
</g>
<!-- RawLoc -->
<g id="node10" class="node">
<title>RawLoc</title>
<path fill="#eeeeee" stroke="#666666" d="M932,-36C932,-36 817,-36 817,-36 811,-36 805,-30 805,-24 805,-24 805,-12 805,-12 805,-6 811,0 817,0 817,0 932,0 932,0 938,0 944,-6 944,-12 944,-12 944,-24 944,-24 944,-30 938,-36 932,-36"/>
<text text-anchor="middle" x="874.5" y="-21.2" font-family="Helvetica,sans-Serif" font-size="11.00" fill="#222222">odim:RawLocationCSV</text>
<text text-anchor="middle" x="874.5" y="-9.2" font-family="Helvetica,sans-Serif" font-size="11.00" fill="#222222">(prov:Entity)</text>
</g>
<!-- Import -->
<g id="node11" class="node">
<title>Import</title>
<ellipse fill="#fff2cc" stroke="#666666" cx="714.5" cy="-113.63" rx="111.95" ry="22.76"/>
<text text-anchor="middle" x="714.5" y="-116.83" font-family="Helvetica,sans-Serif" font-size="11.00" fill="#222222">odim:A_Import</text>
<text text-anchor="middle" x="714.5" y="-104.83" font-family="Helvetica,sans-Serif" font-size="11.00" fill="#222222">(odim:DataTransferEvent)</text>
</g>
<!-- Import&#45;&gt;RawSteps -->
<g id="edge1" class="edge">
<title>Import&#45;&gt;RawSteps</title>
<path fill="none" stroke="black" d="M680.77,-91.85C656.62,-76.97 624.12,-56.96 599.31,-41.67"/>
<polygon fill="black" stroke="black" points="600.89,-38.54 590.54,-36.27 597.22,-44.5 600.89,-38.54"/>
<text text-anchor="middle" x="669.5" y="-61" font-family="Times,serif" font-size="10.00">prov:used</text>
</g>
<!-- Import&#45;&gt;RawSleep -->
<g id="edge2" class="edge">
<title>Import&#45;&gt;RawSleep</title>
<path fill="none" stroke="black" d="M714.5,-90.91C714.5,-77.65 714.5,-60.58 714.5,-46.4"/>
<polygon fill="black" stroke="black" points="718,-46.23 714.5,-36.23 711,-46.23 718,-46.23"/>
<text text-anchor="middle" x="740.5" y="-61" font-family="Times,serif" font-size="10.00">prov:used</text>
</g>
<!-- Import&#45;&gt;RawLoc -->
<g id="edge3" class="edge">
<title>Import&#45;&gt;RawLoc</title>
<path fill="none" stroke="black" d="M749.61,-92.08C775.29,-77.06 810.08,-56.7 836.42,-41.28"/>
<polygon fill="black" stroke="black" points="838.49,-44.13 845.36,-36.05 834.96,-38.08 838.49,-44.13"/>
<text text-anchor="middle" x="830.5" y="-61" font-family="Times,serif" font-size="10.00">prov:used</text>
</g>
<!-- ObsSteps -->
<g id="node12" class="node">
<title>ObsSteps</title>
<path fill="#ddeeff" stroke="#666666" d="M576.5,-227.25C576.5,-227.25 426.5,-227.25 426.5,-227.25 420.5,-227.25 414.5,-221.25 414.5,-215.25 414.5,-215.25 414.5,-203.25 414.5,-203.25 414.5,-197.25 420.5,-191.25 426.5,-191.25 426.5,-191.25 576.5,-191.25 576.5,-191.25 582.5,-191.25 588.5,-197.25 588.5,-203.25 588.5,-203.25 588.5,-215.25 588.5,-215.25 588.5,-221.25 582.5,-227.25 576.5,-227.25"/>
<text text-anchor="middle" x="501.5" y="-212.45" font-family="Helvetica,sans-Serif" font-size="11.00" fill="#222222">Steps Day1</text>
<text text-anchor="middle" x="501.5" y="-200.45" font-family="Helvetica,sans-Serif" font-size="11.00" fill="#222222">(odim:ActivityMeasurement)</text>
</g>
<!-- ObsSteps&#45;&gt;Import -->
<g id="edge4" class="edge">
<title>ObsSteps&#45;&gt;Import</title>
<path fill="none" stroke="black" d="M529.65,-191.02C547.09,-180.75 570.16,-167.89 591.5,-158.25 609.09,-150.31 628.6,-142.83 646.79,-136.37"/>
<polygon fill="black" stroke="black" points="648.17,-139.6 656.46,-132.99 645.86,-132.99 648.17,-139.6"/>
<text text-anchor="middle" x="649.5" y="-161.25" font-family="Times,serif" font-size="10.00">odim:wasGeneratedBy</text>
</g>
<!-- ObsSleep -->
<g id="node13" class="node">
<title>ObsSleep</title>
<path fill="#ddeeff" stroke="#666666" d="M799.5,-227.25C799.5,-227.25 629.5,-227.25 629.5,-227.25 623.5,-227.25 617.5,-221.25 617.5,-215.25 617.5,-215.25 617.5,-203.25 617.5,-203.25 617.5,-197.25 623.5,-191.25 629.5,-191.25 629.5,-191.25 799.5,-191.25 799.5,-191.25 805.5,-191.25 811.5,-197.25 811.5,-203.25 811.5,-203.25 811.5,-215.25 811.5,-215.25 811.5,-221.25 805.5,-227.25 799.5,-227.25"/>
<text text-anchor="middle" x="714.5" y="-212.45" font-family="Helvetica,sans-Serif" font-size="11.00" fill="#222222">Sleep Day1</text>
<text text-anchor="middle" x="714.5" y="-200.45" font-family="Helvetica,sans-Serif" font-size="11.00" fill="#222222">(odim:SleepStageMeasurement)</text>
</g>
<!-- ObsSleep&#45;&gt;Import -->
<g id="edge5" class="edge">
<title>ObsSleep&#45;&gt;Import</title>
<path fill="none" stroke="black" d="M714.5,-191.08C714.5,-178.68 714.5,-161.56 714.5,-146.66"/>
<polygon fill="black" stroke="black" points="718,-146.31 714.5,-136.31 711,-146.31 718,-146.31"/>
<text text-anchor="middle" x="772.5" y="-161.25" font-family="Times,serif" font-size="10.00">odim:wasGeneratedBy</text>
</g>
<!-- ObsLoc -->
<g id="node14" class="node">
<title>ObsLoc</title>
<path fill="#ddeeff" stroke="#666666" d="M2135,-227.25C2135,-227.25 1970,-227.25 1970,-227.25 1964,-227.25 1958,-221.25 1958,-215.25 1958,-215.25 1958,-203.25 1958,-203.25 1958,-197.25 1964,-191.25 1970,-191.25 1970,-191.25 2135,-191.25 2135,-191.25 2141,-191.25 2147,-197.25 2147,-203.25 2147,-203.25 2147,-215.25 2147,-215.25 2147,-221.25 2141,-227.25 2135,-227.25"/>
<text text-anchor="middle" x="2052.5" y="-212.45" font-family="Helvetica,sans-Serif" font-size="11.00" fill="#222222">Location Day1</text>
<text text-anchor="middle" x="2052.5" y="-200.45" font-family="Helvetica,sans-Serif" font-size="11.00" fill="#222222">(odim:DeviceLocationEstimate)</text>
</g>
<!-- ObsLoc&#45;&gt;Import -->
<g id="edge6" class="edge">
<title>ObsLoc&#45;&gt;Import</title>
<path fill="none" stroke="black" d="M1957.69,-196.33C1941.3,-194.48 1924.42,-192.7 1908.5,-191.25 1514.98,-155.42 1047,-130.53 832.51,-120.11"/>
<polygon fill="black" stroke="black" points="832.65,-116.61 822.49,-119.62 832.31,-123.6 832.65,-116.61"/>
<text text-anchor="middle" x="1672.5" y="-161.25" font-family="Times,serif" font-size="10.00">odim:wasGeneratedBy</text>
</g>
<!-- LocDots -->
<g id="node15" class="node">
<title>LocDots</title>
<path fill="white" stroke="transparent" d="M1882,-227.25C1882,-227.25 1801,-227.25 1801,-227.25 1795,-227.25 1789,-221.25 1789,-215.25 1789,-215.25 1789,-203.25 1789,-203.25 1789,-197.25 1795,-191.25 1801,-191.25 1801,-191.25 1882,-191.25 1882,-191.25 1888,-191.25 1894,-197.25 1894,-203.25 1894,-203.25 1894,-215.25 1894,-215.25 1894,-221.25 1888,-227.25 1882,-227.25"/>
<text text-anchor="middle" x="1841.5" y="-206.45" font-family="Helvetica,sans-Serif" font-size="11.00" fill="#666666">… (Day2..Day7)</text>
</g>
<!-- DailyComp -->
<g id="node16" class="node">
<title>DailyComp</title>
<ellipse fill="#fff2cc" stroke="#666666" cx="501.5" cy="-304.88" rx="133.79" ry="22.76"/>
<text text-anchor="middle" x="501.5" y="-308.08" font-family="Helvetica,sans-Serif" font-size="11.00" fill="#222222">A_DailySummary</text>
<text text-anchor="middle" x="501.5" y="-296.08" font-family="Helvetica,sans-Serif" font-size="11.00" fill="#222222">(odim:AlgorithmicComputation)</text>
</g>
<!-- DailyComp&#45;&gt;ObsSteps -->
<g id="edge7" class="edge">
<title>DailyComp&#45;&gt;ObsSteps</title>
<path fill="none" stroke="black" d="M501.5,-282.17C501.5,-268.91 501.5,-251.84 501.5,-237.65"/>
<polygon fill="black" stroke="black" points="505,-237.48 501.5,-227.48 498,-237.48 505,-237.48"/>
<text text-anchor="middle" x="527.5" y="-252.25" font-family="Times,serif" font-size="10.00">prov:used</text>
</g>
<!-- DailyComp&#45;&gt;ObsSleep -->
<g id="edge8" class="edge">
<title>DailyComp&#45;&gt;ObsSleep</title>
<path fill="none" stroke="black" d="M547.72,-283.57C582.76,-268.16 630.79,-247.05 666.31,-231.44"/>
<polygon fill="black" stroke="black" points="667.76,-234.62 675.51,-227.39 664.95,-228.21 667.76,-234.62"/>
<text text-anchor="middle" x="647.5" y="-252.25" font-family="Times,serif" font-size="10.00">prov:used</text>
</g>
<!-- F1 -->
<g id="node17" class="node">
<title>F1</title>
<path fill="#e2f0d9" stroke="#666666" d="M835,-418.51C835,-418.51 718,-418.51 718,-418.51 712,-418.51 706,-412.51 706,-406.51 706,-406.51 706,-394.51 706,-394.51 706,-388.51 712,-382.51 718,-382.51 718,-382.51 835,-382.51 835,-382.51 841,-382.51 847,-388.51 847,-394.51 847,-394.51 847,-406.51 847,-406.51 847,-412.51 841,-418.51 835,-418.51"/>
<text text-anchor="middle" x="776.5" y="-403.71" font-family="Helvetica,sans-Serif" font-size="11.00" fill="#222222">Daily Steps Day1</text>
<text text-anchor="middle" x="776.5" y="-391.71" font-family="Helvetica,sans-Serif" font-size="11.00" fill="#222222">(odim:DerivedFeature)</text>
</g>
<!-- F1&#45;&gt;DailyComp -->
<g id="edge13" class="edge">
<title>F1&#45;&gt;DailyComp</title>
<path fill="none" stroke="black" d="M726.38,-382.45C682.08,-367.36 617.13,-345.25 568.4,-328.66"/>
<polygon fill="black" stroke="black" points="569.48,-325.33 558.88,-325.42 567.22,-331.95 569.48,-325.33"/>
<text text-anchor="middle" x="713" y="-352.51" font-family="Times,serif" font-size="10.00">odim:wasComputedBy</text>
</g>
<!-- F2 -->
<g id="node18" class="node">
<title>F2</title>
<path fill="#e2f0d9" stroke="#666666" d="M1005,-418.51C1005,-418.51 888,-418.51 888,-418.51 882,-418.51 876,-412.51 876,-406.51 876,-406.51 876,-394.51 876,-394.51 876,-388.51 882,-382.51 888,-382.51 888,-382.51 1005,-382.51 1005,-382.51 1011,-382.51 1017,-388.51 1017,-394.51 1017,-394.51 1017,-406.51 1017,-406.51 1017,-412.51 1011,-418.51 1005,-418.51"/>
<text text-anchor="middle" x="946.5" y="-403.71" font-family="Helvetica,sans-Serif" font-size="11.00" fill="#222222">Daily Steps Day2</text>
<text text-anchor="middle" x="946.5" y="-391.71" font-family="Helvetica,sans-Serif" font-size="11.00" fill="#222222">(odim:DerivedFeature)</text>
</g>
<!-- F2&#45;&gt;DailyComp -->
<g id="edge14" class="edge">
<title>F2&#45;&gt;DailyComp</title>
<path fill="none" stroke="black" d="M895.19,-382.42C861.92,-371.82 817.49,-358.55 777.5,-349.51 724.82,-337.61 665.76,-327.81 615.83,-320.53"/>
<polygon fill="black" stroke="black" points="616.05,-317.02 605.65,-319.06 615.05,-323.95 616.05,-317.02"/>
<text text-anchor="middle" x="878" y="-352.51" font-family="Times,serif" font-size="10.00">odim:wasComputedBy</text>
</g>
<!-- FDots -->
<g id="node19" class="node">
<title>FDots</title>
<path fill="white" stroke="transparent" d="M433,-418.51C433,-418.51 352,-418.51 352,-418.51 346,-418.51 340,-412.51 340,-406.51 340,-406.51 340,-394.51 340,-394.51 340,-388.51 346,-382.51 352,-382.51 352,-382.51 433,-382.51 433,-382.51 439,-382.51 445,-388.51 445,-394.51 445,-394.51 445,-406.51 445,-406.51 445,-412.51 439,-418.51 433,-418.51"/>
<text text-anchor="middle" x="392.5" y="-397.71" font-family="Helvetica,sans-Serif" font-size="11.00" fill="#666666">… (Day3..Day7)</text>
</g>
<!-- FDots&#45;&gt;DailyComp -->
<g id="edge17" class="edge">
<title>FDots&#45;&gt;DailyComp</title>
<path fill="none" stroke="black" stroke-dasharray="1,5" d="M412.49,-382.34C430.56,-366.82 457.23,-343.91 476.66,-327.22"/>
</g>
<!-- SQ1 -->
<g id="node20" class="node">
<title>SQ1</title>
<path fill="#e2f0d9" stroke="#666666" d="M129,-418.51C129,-418.51 12,-418.51 12,-418.51 6,-418.51 0,-412.51 0,-406.51 0,-406.51 0,-394.51 0,-394.51 0,-388.51 6,-382.51 12,-382.51 12,-382.51 129,-382.51 129,-382.51 135,-382.51 141,-388.51 141,-394.51 141,-394.51 141,-406.51 141,-406.51 141,-412.51 135,-418.51 129,-418.51"/>
<text text-anchor="middle" x="70.5" y="-403.71" font-family="Helvetica,sans-Serif" font-size="11.00" fill="#222222">Sleep Minutes Day1</text>
<text text-anchor="middle" x="70.5" y="-391.71" font-family="Helvetica,sans-Serif" font-size="11.00" fill="#222222">(odim:DerivedFeature)</text>
</g>
<!-- SQ1&#45;&gt;DailyComp -->
<g id="edge15" class="edge">
<title>SQ1&#45;&gt;DailyComp</title>
<path fill="none" stroke="black" d="M100.14,-382.5C120.87,-371.37 149.57,-357.46 176.5,-349.51 237.92,-331.38 308.12,-320.75 367.52,-314.54"/>
<polygon fill="black" stroke="black" points="368.12,-318 377.71,-313.51 367.41,-311.04 368.12,-318"/>
<text text-anchor="middle" x="234" y="-352.51" font-family="Times,serif" font-size="10.00">odim:wasComputedBy</text>
</g>
<!-- SQ2 -->
<g id="node21" class="node">
<title>SQ2</title>
<path fill="#e2f0d9" stroke="#666666" d="M299,-418.51C299,-418.51 182,-418.51 182,-418.51 176,-418.51 170,-412.51 170,-406.51 170,-406.51 170,-394.51 170,-394.51 170,-388.51 176,-382.51 182,-382.51 182,-382.51 299,-382.51 299,-382.51 305,-382.51 311,-388.51 311,-394.51 311,-394.51 311,-406.51 311,-406.51 311,-412.51 305,-418.51 299,-418.51"/>
<text text-anchor="middle" x="240.5" y="-403.71" font-family="Helvetica,sans-Serif" font-size="11.00" fill="#222222">Sleep Minutes Day2</text>
<text text-anchor="middle" x="240.5" y="-391.71" font-family="Helvetica,sans-Serif" font-size="11.00" fill="#222222">(odim:DerivedFeature)</text>
</g>
<!-- SQ2&#45;&gt;DailyComp -->
<g id="edge16" class="edge">
<title>SQ2&#45;&gt;DailyComp</title>
<path fill="none" stroke="black" d="M262.58,-382.49C277.61,-371.65 298.37,-358.07 318.5,-349.51 344.06,-338.64 372.84,-330.18 399.88,-323.72"/>
<polygon fill="black" stroke="black" points="400.8,-327.1 409.75,-321.43 399.22,-320.28 400.8,-327.1"/>
<text text-anchor="middle" x="376" y="-352.51" font-family="Times,serif" font-size="10.00">odim:wasComputedBy</text>
</g>
<!-- WeeklySteps -->
<g id="node22" class="node">
<title>WeeklySteps</title>
<ellipse fill="#fff2cc" stroke="#666666" cx="851.5" cy="-496.14" rx="133.79" ry="22.76"/>
<text text-anchor="middle" x="851.5" y="-499.34" font-family="Helvetica,sans-Serif" font-size="11.00" fill="#222222">odim:A_WeeklyAggregateSteps</text>
<text text-anchor="middle" x="851.5" y="-487.34" font-family="Helvetica,sans-Serif" font-size="11.00" fill="#222222">(odim:AlgorithmicComputation)</text>
</g>
<!-- WeeklySteps&#45;&gt;F1 -->
<g id="edge18" class="edge">
<title>WeeklySteps&#45;&gt;F1</title>
<path fill="none" stroke="black" d="M834.1,-473.42C822.96,-459.51 808.46,-441.41 796.79,-426.84"/>
<polygon fill="black" stroke="black" points="799.28,-424.35 790.3,-418.74 793.82,-428.73 799.28,-424.35"/>
<text text-anchor="middle" x="842.5" y="-443.51" font-family="Times,serif" font-size="10.00">prov:used</text>
</g>
<!-- WeeklySteps&#45;&gt;F2 -->
<g id="edge19" class="edge">
<title>WeeklySteps&#45;&gt;F2</title>
<path fill="none" stroke="black" d="M873.53,-473.42C887.91,-459.25 906.7,-440.73 921.62,-426.03"/>
<polygon fill="black" stroke="black" points="924.35,-428.25 929.02,-418.74 919.44,-423.26 924.35,-428.25"/>
<text text-anchor="middle" x="931.5" y="-443.51" font-family="Times,serif" font-size="10.00">prov:used</text>
</g>
<!-- WeeklySteps&#45;&gt;FDots -->
<g id="edge20" class="edge">
<title>WeeklySteps&#45;&gt;FDots</title>
<path fill="none" stroke="black" stroke-dasharray="1,5" d="M721.4,-490.81C620.3,-485.69 489.46,-474.72 441.5,-451.51 426.4,-444.2 413.34,-430.24 404.51,-418.93"/>
</g>
<!-- MeanSteps -->
<g id="node23" class="node">
<title>MeanSteps</title>
<path fill="#e2f0d9" stroke="#666666" d="M1193,-418.51C1193,-418.51 1058,-418.51 1058,-418.51 1052,-418.51 1046,-412.51 1046,-406.51 1046,-406.51 1046,-394.51 1046,-394.51 1046,-388.51 1052,-382.51 1058,-382.51 1058,-382.51 1193,-382.51 1193,-382.51 1199,-382.51 1205,-388.51 1205,-394.51 1205,-394.51 1205,-406.51 1205,-406.51 1205,-412.51 1199,-418.51 1193,-418.51"/>
<text text-anchor="middle" x="1125.5" y="-403.71" font-family="Helvetica,sans-Serif" font-size="11.00" fill="#222222">odim:F_WeeklyMeanSteps</text>
<text text-anchor="middle" x="1125.5" y="-391.71" font-family="Helvetica,sans-Serif" font-size="11.00" fill="#222222">(odim:DerivedFeature)</text>
</g>
<!-- MeanSteps&#45;&gt;WeeklySteps -->
<g id="edge21" class="edge">
<title>MeanSteps&#45;&gt;WeeklySteps</title>
<path fill="none" stroke="black" d="M1117.56,-418.56C1111.46,-429.71 1101.97,-443.62 1089.5,-451.51 1069.2,-464.35 1019.53,-474.43 970.79,-481.64"/>
<polygon fill="black" stroke="black" points="970.14,-478.2 960.74,-483.1 971.14,-485.13 970.14,-478.2"/>
<text text-anchor="middle" x="1160" y="-443.51" font-family="Times,serif" font-size="10.00">odim:wasComputedBy</text>
</g>
<!-- Thresh -->
<g id="node24" class="node">
<title>Thresh</title>
<path fill="#ffe5d9" stroke="#666666" d="M1583,-418.51C1583,-418.51 1448,-418.51 1448,-418.51 1442,-418.51 1436,-412.51 1436,-406.51 1436,-406.51 1436,-394.51 1436,-394.51 1436,-388.51 1442,-382.51 1448,-382.51 1448,-382.51 1583,-382.51 1583,-382.51 1589,-382.51 1595,-388.51 1595,-394.51 1595,-394.51 1595,-406.51 1595,-406.51 1595,-412.51 1589,-418.51 1583,-418.51"/>
<text text-anchor="middle" x="1515.5" y="-403.71" font-family="Helvetica,sans-Serif" font-size="11.00" fill="#222222">odim:Threshold_LowSteps</text>
<text text-anchor="middle" x="1515.5" y="-391.71" font-family="Helvetica,sans-Serif" font-size="11.00" fill="#222222">(prov:Entity)</text>
</g>
<!-- StepsDecision -->
<g id="node25" class="node">
<title>StepsDecision</title>
<ellipse fill="#fff2cc" stroke="#666666" cx="1478.5" cy="-496.14" rx="135.11" ry="22.76"/>
<text text-anchor="middle" x="1478.5" y="-499.34" font-family="Helvetica,sans-Serif" font-size="11.00" fill="#222222">odim:A_StepsThresholdDecision</text>
<text text-anchor="middle" x="1478.5" y="-487.34" font-family="Helvetica,sans-Serif" font-size="11.00" fill="#222222">(odim:AlgorithmicComputation)</text>
</g>
<!-- StepsDecision&#45;&gt;MeanSteps -->
<g id="edge22" class="edge">
<title>StepsDecision&#45;&gt;MeanSteps</title>
<path fill="none" stroke="black" d="M1425.7,-475.18C1394.77,-463.98 1354.77,-450.32 1318.5,-440.51 1298.84,-435.19 1255.66,-426.37 1215.11,-418.46"/>
<polygon fill="black" stroke="black" points="1215.64,-415 1205.15,-416.53 1214.3,-421.87 1215.64,-415"/>
<text text-anchor="middle" x="1380.5" y="-443.51" font-family="Times,serif" font-size="10.00">prov:used</text>
</g>
<!-- StepsDecision&#45;&gt;Thresh -->
<g id="edge23" class="edge">
<title>StepsDecision&#45;&gt;Thresh</title>
<path fill="none" stroke="black" d="M1487.08,-473.42C1492.42,-459.9 1499.33,-442.42 1505,-428.08"/>
<polygon fill="black" stroke="black" points="1508.27,-429.32 1508.69,-418.74 1501.76,-426.75 1508.27,-429.32"/>
<text text-anchor="middle" x="1525.5" y="-443.51" font-family="Times,serif" font-size="10.00">prov:used</text>
</g>
<!-- Marker -->
<g id="node26" class="node">
<title>Marker</title>
<path fill="#e2f0d9" stroke="#666666" d="M1578.5,-609.76C1578.5,-609.76 1378.5,-609.76 1378.5,-609.76 1372.5,-609.76 1366.5,-603.76 1366.5,-597.76 1366.5,-597.76 1366.5,-585.76 1366.5,-585.76 1366.5,-579.76 1372.5,-573.76 1378.5,-573.76 1378.5,-573.76 1578.5,-573.76 1578.5,-573.76 1584.5,-573.76 1590.5,-579.76 1590.5,-585.76 1590.5,-585.76 1590.5,-597.76 1590.5,-597.76 1590.5,-603.76 1584.5,-609.76 1578.5,-609.76"/>
<text text-anchor="middle" x="1478.5" y="-594.96" font-family="Helvetica,sans-Serif" font-size="11.00" fill="#222222">odim:Marker_LowActivityDuringTravel</text>
<text text-anchor="middle" x="1478.5" y="-582.96" font-family="Helvetica,sans-Serif" font-size="11.00" fill="#222222">(odim:DerivedFeature)</text>
</g>
<!-- Marker&#45;&gt;StepsDecision -->
<g id="edge24" class="edge">
<title>Marker&#45;&gt;StepsDecision</title>
<path fill="none" stroke="black" d="M1478.5,-573.59C1478.5,-561.19 1478.5,-544.07 1478.5,-529.17"/>
<polygon fill="black" stroke="black" points="1482,-528.82 1478.5,-518.82 1475,-528.82 1482,-528.82"/>
<text text-anchor="middle" x="1536" y="-543.76" font-family="Times,serif" font-size="10.00">odim:wasComputedBy</text>
</g>
<!-- WeeklySleep -->
<g id="node27" class="node">
<title>WeeklySleep</title>
<ellipse fill="#fff2cc" stroke="#666666" cx="286.5" cy="-496.14" rx="162.77" ry="22.76"/>
<text text-anchor="middle" x="286.5" y="-499.34" font-family="Helvetica,sans-Serif" font-size="11.00" fill="#222222">odim:A_WeeklyAggregateSleepMinutes</text>
<text text-anchor="middle" x="286.5" y="-487.34" font-family="Helvetica,sans-Serif" font-size="11.00" fill="#222222">(odim:AlgorithmicComputation)</text>
</g>
<!-- WeeklySleep&#45;&gt;FDots -->
<g id="edge27" class="edge">
<title>WeeklySleep&#45;&gt;FDots</title>
<path fill="none" stroke="black" stroke-dasharray="1,5" d="M310.82,-473.66C329.77,-456.92 355.71,-434 373.24,-418.52"/>
</g>
<!-- WeeklySleep&#45;&gt;SQ1 -->
<g id="edge25" class="edge">
<title>WeeklySleep&#45;&gt;SQ1</title>
<path fill="none" stroke="black" d="M238.83,-474.47C203.25,-459.05 154.8,-438.05 119.02,-422.54"/>
<polygon fill="black" stroke="black" points="120.31,-419.29 109.75,-418.52 117.53,-425.71 120.31,-419.29"/>
<text text-anchor="middle" x="211.5" y="-443.51" font-family="Times,serif" font-size="10.00">prov:used</text>
</g>
<!-- WeeklySleep&#45;&gt;SQ2 -->
<g id="edge26" class="edge">
<title>WeeklySleep&#45;&gt;SQ2</title>
<path fill="none" stroke="black" d="M275.83,-473.42C269.19,-459.9 260.6,-442.42 253.55,-428.08"/>
<polygon fill="black" stroke="black" points="256.51,-426.17 248.96,-418.74 250.23,-429.26 256.51,-426.17"/>
<text text-anchor="middle" x="291.5" y="-443.51" font-family="Times,serif" font-size="10.00">prov:used</text>
</g>
<!-- MeanSleep -->
<g id="node28" class="node">
<title>MeanSleep</title>
<path fill="#e2f0d9" stroke="#666666" d="M664.5,-418.51C664.5,-418.51 486.5,-418.51 486.5,-418.51 480.5,-418.51 474.5,-412.51 474.5,-406.51 474.5,-406.51 474.5,-394.51 474.5,-394.51 474.5,-388.51 480.5,-382.51 486.5,-382.51 486.5,-382.51 664.5,-382.51 664.5,-382.51 670.5,-382.51 676.5,-388.51 676.5,-394.51 676.5,-394.51 676.5,-406.51 676.5,-406.51 676.5,-412.51 670.5,-418.51 664.5,-418.51"/>
<text text-anchor="middle" x="575.5" y="-403.71" font-family="Helvetica,sans-Serif" font-size="11.00" fill="#222222">odim:F_WeeklyMeanSleepMinutes</text>
<text text-anchor="middle" x="575.5" y="-391.71" font-family="Helvetica,sans-Serif" font-size="11.00" fill="#222222">(odim:DerivedFeature)</text>
</g>
<!-- MeanSleep&#45;&gt;WeeklySleep -->
<g id="edge28" class="edge">
<title>MeanSleep&#45;&gt;WeeklySleep</title>
<path fill="none" stroke="black" d="M522.68,-418.62C476.43,-433.61 408.83,-455.51 357.79,-472.04"/>
<polygon fill="black" stroke="black" points="356.58,-468.75 348.14,-475.17 358.74,-475.41 356.58,-468.75"/>
<text text-anchor="middle" x="506" y="-443.51" font-family="Times,serif" font-size="10.00">odim:wasComputedBy</text>
</g>
<!-- SleepBaseline -->
<g id="node29" class="node">
<title>SleepBaseline</title>
<path fill="#ffe5d9" stroke="#666666" d="M1395,-418.51C1395,-418.51 1246,-418.51 1246,-418.51 1240,-418.51 1234,-412.51 1234,-406.51 1234,-406.51 1234,-394.51 1234,-394.51 1234,-388.51 1240,-382.51 1246,-382.51 1246,-382.51 1395,-382.51 1395,-382.51 1401,-382.51 1407,-388.51 1407,-394.51 1407,-394.51 1407,-406.51 1407,-406.51 1407,-412.51 1401,-418.51 1395,-418.51"/>
<text text-anchor="middle" x="1320.5" y="-403.71" font-family="Helvetica,sans-Serif" font-size="11.00" fill="#222222">odim:Baseline_SleepMinutes</text>
<text text-anchor="middle" x="1320.5" y="-391.71" font-family="Helvetica,sans-Serif" font-size="11.00" fill="#222222">(prov:Entity)</text>
</g>
<!-- SleepDebtDecision -->
<g id="node30" class="node">
<title>SleepDebtDecision</title>
<ellipse fill="#fff2cc" stroke="#666666" cx="1180.5" cy="-496.14" rx="133.79" ry="22.76"/>
<text text-anchor="middle" x="1180.5" y="-499.34" font-family="Helvetica,sans-Serif" font-size="11.00" fill="#222222">odim:A_SleepDebtDecision</text>
<text text-anchor="middle" x="1180.5" y="-487.34" font-family="Helvetica,sans-Serif" font-size="11.00" fill="#222222">(odim:AlgorithmicComputation)</text>
</g>
<!-- SleepDebtDecision&#45;&gt;MeanSleep -->
<g id="edge29" class="edge">
<title>SleepDebtDecision&#45;&gt;MeanSleep</title>
<path fill="none" stroke="black" d="M1117.29,-476.18C1074.54,-464.09 1016.59,-449.13 964.5,-440.51 844.41,-420.63 812.45,-432.23 691.5,-418.51 689.98,-418.34 688.46,-418.16 686.92,-417.98"/>
<polygon fill="black" stroke="black" points="687.02,-414.47 676.67,-416.73 686.18,-421.42 687.02,-414.47"/>
<text text-anchor="middle" x="1044.5" y="-443.51" font-family="Times,serif" font-size="10.00">prov:used</text>
</g>
<!-- SleepDebtDecision&#45;&gt;SleepBaseline -->
<g id="edge30" class="edge">
<title>SleepDebtDecision&#45;&gt;SleepBaseline</title>
<path fill="none" stroke="black" d="M1211.92,-474.13C1234.08,-459.3 1263.74,-439.47 1286.46,-424.27"/>
<polygon fill="black" stroke="black" points="1288.44,-427.16 1294.8,-418.7 1284.54,-421.34 1288.44,-427.16"/>
<text text-anchor="middle" x="1285.5" y="-443.51" font-family="Times,serif" font-size="10.00">prov:used</text>
</g>
<!-- SleepDebt -->
<g id="node31" class="node">
<title>SleepDebt</title>
<path fill="#e2f0d9" stroke="#666666" d="M1310,-609.76C1310,-609.76 1145,-609.76 1145,-609.76 1139,-609.76 1133,-603.76 1133,-597.76 1133,-597.76 1133,-585.76 1133,-585.76 1133,-579.76 1139,-573.76 1145,-573.76 1145,-573.76 1310,-573.76 1310,-573.76 1316,-573.76 1322,-579.76 1322,-585.76 1322,-585.76 1322,-597.76 1322,-597.76 1322,-603.76 1316,-609.76 1310,-609.76"/>
<text text-anchor="middle" x="1227.5" y="-594.96" font-family="Helvetica,sans-Serif" font-size="11.00" fill="#222222">odim:Marker_SleepDebt_Week1</text>
<text text-anchor="middle" x="1227.5" y="-582.96" font-family="Helvetica,sans-Serif" font-size="11.00" fill="#222222">(odim:DerivedFeature)</text>
</g>
<!-- SleepDebt&#45;&gt;SleepDebtDecision -->
<g id="edge31" class="edge">
<title>SleepDebt&#45;&gt;SleepDebtDecision</title>
<path fill="none" stroke="black" d="M1218.88,-573.59C1212.47,-560.83 1203.56,-543.06 1195.93,-527.87"/>
<polygon fill="black" stroke="black" points="1199,-526.18 1191.38,-518.82 1192.74,-529.32 1199,-526.18"/>
<text text-anchor="middle" x="1265" y="-543.76" font-family="Times,serif" font-size="10.00">odim:wasComputedBy</text>
</g>
<!-- Combine -->
<g id="node32" class="node">
<title>Combine</title>
<ellipse fill="#fff2cc" stroke="#666666" cx="1478.5" cy="-687.39" rx="133.79" ry="22.76"/>
<text text-anchor="middle" x="1478.5" y="-690.59" font-family="Helvetica,sans-Serif" font-size="11.00" fill="#222222">odim:A_MarkerDerivation</text>
<text text-anchor="middle" x="1478.5" y="-678.59" font-family="Helvetica,sans-Serif" font-size="11.00" fill="#222222">(odim:AlgorithmicComputation)</text>
</g>
<!-- Combine&#45;&gt;Marker -->
<g id="edge32" class="edge">
<title>Combine&#45;&gt;Marker</title>
<path fill="none" stroke="black" d="M1478.5,-664.68C1478.5,-651.42 1478.5,-634.35 1478.5,-620.16"/>
<polygon fill="black" stroke="black" points="1482,-619.99 1478.5,-609.99 1475,-619.99 1482,-619.99"/>
<text text-anchor="middle" x="1504.5" y="-634.76" font-family="Times,serif" font-size="10.00">prov:used</text>
</g>
<!-- Combine&#45;&gt;SleepDebt -->
<g id="edge33" class="edge">
<title>Combine&#45;&gt;SleepDebt</title>
<path fill="none" stroke="black" d="M1425.27,-666.54C1383.35,-650.9 1325.11,-629.17 1282.69,-613.35"/>
<polygon fill="black" stroke="black" points="1283.67,-609.98 1273.08,-609.77 1281.23,-616.54 1283.67,-609.98"/>
<text text-anchor="middle" x="1387.5" y="-634.76" font-family="Times,serif" font-size="10.00">prov:used</text>
</g>
<!-- TravelWin -->
<g id="node36" class="node">
<title>TravelWin</title>
<path fill="#fde2e4" stroke="#666666" d="M1777,-418.51C1777,-418.51 1636,-418.51 1636,-418.51 1630,-418.51 1624,-412.51 1624,-406.51 1624,-406.51 1624,-394.51 1624,-394.51 1624,-388.51 1630,-382.51 1636,-382.51 1636,-382.51 1777,-382.51 1777,-382.51 1783,-382.51 1789,-388.51 1789,-394.51 1789,-394.51 1789,-406.51 1789,-406.51 1789,-412.51 1783,-418.51 1777,-418.51"/>
<text text-anchor="middle" x="1706.5" y="-403.71" font-family="Helvetica,sans-Serif" font-size="11.00" fill="#222222">odim:TravelWindow_Week1</text>
<text text-anchor="middle" x="1706.5" y="-391.71" font-family="Helvetica,sans-Serif" font-size="11.00" fill="#222222">(odim:EventWindow)</text>
</g>
<!-- Combine&#45;&gt;TravelWin -->
<g id="edge34" class="edge">
<title>Combine&#45;&gt;TravelWin</title>
<path fill="none" stroke="black" d="M1525.23,-666.08C1551.15,-652.97 1582.49,-633.87 1604.5,-609.76 1630.66,-581.11 1675.24,-477.57 1695.68,-428.14"/>
<polygon fill="black" stroke="black" points="1698.98,-429.31 1699.55,-418.73 1692.51,-426.65 1698.98,-429.31"/>
<text text-anchor="middle" x="1671.5" y="-543.76" font-family="Times,serif" font-size="10.00">prov:used</text>
</g>
<!-- Phenotype -->
<g id="node33" class="node">
<title>Phenotype</title>
<path fill="#ede7f6" stroke="#666666" d="M1771.5,-801.02C1771.5,-801.02 1459.5,-801.02 1459.5,-801.02 1453.5,-801.02 1447.5,-795.02 1447.5,-789.02 1447.5,-789.02 1447.5,-777.02 1447.5,-777.02 1447.5,-771.02 1453.5,-765.02 1459.5,-765.02 1459.5,-765.02 1771.5,-765.02 1771.5,-765.02 1777.5,-765.02 1783.5,-771.02 1783.5,-777.02 1783.5,-777.02 1783.5,-789.02 1783.5,-789.02 1783.5,-795.02 1777.5,-801.02 1771.5,-801.02"/>
<text text-anchor="middle" x="1615.5" y="-786.22" font-family="Helvetica,sans-Serif" font-size="11.00" fill="#222222">odim:Phenotype_TravelAssociatedInactivityWithSleepDebt</text>
<text text-anchor="middle" x="1615.5" y="-774.22" font-family="Helvetica,sans-Serif" font-size="11.00" fill="#222222">(odim:ActivityPhenotype)</text>
</g>
<!-- Phenotype&#45;&gt;Combine -->
<g id="edge35" class="edge">
<title>Phenotype&#45;&gt;Combine</title>
<path fill="none" stroke="black" d="M1574.25,-764.91C1561.37,-758.79 1547.41,-751.33 1535.5,-743.02 1524.87,-735.61 1514.32,-726.22 1505.24,-717.33"/>
<polygon fill="black" stroke="black" points="1507.52,-714.66 1497.99,-710.03 1502.55,-719.59 1507.52,-714.66"/>
<text text-anchor="middle" x="1593" y="-735.02" font-family="Times,serif" font-size="10.00">odim:wasComputedBy</text>
</g>
<!-- Week -->
<g id="node34" class="node">
<title>Week</title>
<path fill="#f3f4f6" stroke="#666666" d="M1767.5,-705.39C1767.5,-705.39 1653.5,-705.39 1653.5,-705.39 1647.5,-705.39 1641.5,-699.39 1641.5,-693.39 1641.5,-693.39 1641.5,-681.39 1641.5,-681.39 1641.5,-675.39 1647.5,-669.39 1653.5,-669.39 1653.5,-669.39 1767.5,-669.39 1767.5,-669.39 1773.5,-669.39 1779.5,-675.39 1779.5,-681.39 1779.5,-681.39 1779.5,-693.39 1779.5,-693.39 1779.5,-699.39 1773.5,-705.39 1767.5,-705.39"/>
<text text-anchor="middle" x="1710.5" y="-690.59" font-family="Helvetica,sans-Serif" font-size="11.00" fill="#222222">odim:Week1</text>
<text text-anchor="middle" x="1710.5" y="-678.59" font-family="Helvetica,sans-Serif" font-size="11.00" fill="#222222">(odim:WeeklyInterval)</text>
</g>
<!-- Phenotype&#45;&gt;Week -->
<g id="edge36" class="edge">
<title>Phenotype&#45;&gt;Week</title>
<path fill="none" stroke="black" d="M1632.92,-764.85C1647.79,-750.2 1669.33,-728.97 1685.94,-712.6"/>
<polygon fill="black" stroke="black" points="1688.52,-714.97 1693.19,-705.46 1683.61,-709.98 1688.52,-714.97"/>
<text text-anchor="middle" x="1715.5" y="-735.02" font-family="Times,serif" font-size="10.00">odim:occursDuring</text>
</g>
<!-- TravelDetect -->
<g id="node35" class="node">
<title>TravelDetect</title>
<ellipse fill="#fff2cc" stroke="#666666" cx="1902.5" cy="-496.14" rx="133.79" ry="22.76"/>
<text text-anchor="middle" x="1902.5" y="-499.34" font-family="Helvetica,sans-Serif" font-size="11.00" fill="#222222">odim:A_TravelDetection</text>
<text text-anchor="middle" x="1902.5" y="-487.34" font-family="Helvetica,sans-Serif" font-size="11.00" fill="#222222">(odim:AlgorithmicComputation)</text>
</g>
<!-- TravelDetect&#45;&gt;ObsLoc -->
<g id="edge9" class="edge">
<title>TravelDetect&#45;&gt;ObsLoc</title>
<path fill="none" stroke="black" d="M1978.03,-477.28C2008.67,-465.87 2040.93,-447.55 2058.5,-418.51 2092.92,-361.62 2074.81,-279.04 2061.87,-237"/>
<polygon fill="black" stroke="black" points="2065.19,-235.92 2058.8,-227.47 2058.53,-238.06 2065.19,-235.92"/>
<text text-anchor="middle" x="2103.5" y="-352.51" font-family="Times,serif" font-size="10.00">prov:used</text>
</g>
<!-- TravelDetect&#45;&gt;LocDots -->
<g id="edge10" class="edge">
<title>TravelDetect&#45;&gt;LocDots</title>
<path fill="none" stroke="black" stroke-dasharray="1,5" d="M1892.1,-473.49C1885.27,-458.4 1876.66,-437.63 1871.5,-418.51 1852.74,-349.04 1845.09,-263.16 1842.56,-227.27"/>
</g>
<!-- TravelThresh -->
<g id="node37" class="node">
<title>TravelThresh</title>
<path fill="#ffe5d9" stroke="#666666" d="M2031.5,-418.51C2031.5,-418.51 1897.5,-418.51 1897.5,-418.51 1891.5,-418.51 1885.5,-412.51 1885.5,-406.51 1885.5,-406.51 1885.5,-394.51 1885.5,-394.51 1885.5,-388.51 1891.5,-382.51 1897.5,-382.51 1897.5,-382.51 2031.5,-382.51 2031.5,-382.51 2037.5,-382.51 2043.5,-388.51 2043.5,-394.51 2043.5,-394.51 2043.5,-406.51 2043.5,-406.51 2043.5,-412.51 2037.5,-418.51 2031.5,-418.51"/>
<text text-anchor="middle" x="1964.5" y="-403.71" font-family="Helvetica,sans-Serif" font-size="11.00" fill="#222222">odim:Threshold_TravelKm</text>
<text text-anchor="middle" x="1964.5" y="-391.71" font-family="Helvetica,sans-Serif" font-size="11.00" fill="#222222">(prov:Entity)</text>
</g>
<!-- TravelDetect&#45;&gt;TravelThresh -->
<g id="edge11" class="edge">
<title>TravelDetect&#45;&gt;TravelThresh</title>
<path fill="none" stroke="black" d="M1916.88,-473.42C1926,-459.64 1937.86,-441.75 1947.45,-427.25"/>
<polygon fill="black" stroke="black" points="1950.49,-429.01 1953.09,-418.74 1944.65,-425.14 1950.49,-429.01"/>
<text text-anchor="middle" x="1962.5" y="-443.51" font-family="Times,serif" font-size="10.00">prov:used</text>
</g>
<!-- TravelWin&#45;&gt;TravelDetect -->
<g id="edge12" class="edge">
<title>TravelWin&#45;&gt;TravelDetect</title>
<path fill="none" stroke="black" d="M1700.6,-418.57C1698.1,-429.16 1697.21,-442.44 1704.5,-451.51 1715.41,-465.08 1747.46,-474.68 1782.69,-481.35"/>
<polygon fill="black" stroke="black" points="1782.23,-484.82 1792.69,-483.15 1783.47,-477.94 1782.23,-484.82"/>
<text text-anchor="middle" x="1762" y="-443.51" font-family="Times,serif" font-size="10.00">odim:wasComputedBy</text>
</g>
</g>
</svg>
