<?xml version="1.0" encoding="UTF-8" standalone="no"?>
<!DOCTYPE svg PUBLIC "-//W3C//DTD SVG 1.1//EN"
 "http://www.w3.org/Graphics/SVG/1.1/DTD/svg11.dtd">
<!-- Generated by graphviz version 2.43.0 (0)
 -->
<!-- Title: DemoFlow Pages: 1 -->
<svg width="2383pt" height="1123pt"
 viewBox="0.00 0.00 2383.00 1123.27" xmlns="http://www.w3.org/2000/svg" xmlns:xlink="http://www.w3.org/1999/xlink">
<g id="graph0" class="graph" transform="scale(1 1) rotate(0) translate(4 1119.27)">
<title>DemoFlow</title>
<polygon fill="white" stroke="transparent" points="-4,4 -4,-1119.27 2379,-1119.27 2379,4 -4,4"/>
<g id="clust1" class="cluster">
<title>cluster_legend</title>
<polygon fill="none" stroke="#e5e5e5" stroke-dasharray="5,2" points="8,-1032.27 8,-1103.27 1073,-1103.27 1073,-1032.27 8,-1032.27"/>
<text text-anchor="middle" x="540.5" y="-1091.27" font-family="Times,serif" font-size="10.00">Legend</text>
</g>
<g id="clust2" class="cluster">
<title>cluster_raw</title>
<polygon fill="none" stroke="#999999" stroke-dasharray="5,2" points="1455,-8 1455,-83 1915,-83 1915,-8 1455,-8"/>
<text text-anchor="middle" x="1685" y="-67.8" font-family="Times,serif" font-size="14.00">Raw (prov:Entity)</text>
</g>
<g id="clust3" class="cluster">
<title>cluster_import</title>
<polygon fill="none" stroke="#999999" stroke-dasharray="5,2" points="1549,-116 1549,-200.25 1806,-200.25 1806,-116 1549,-116"/>
<text text-anchor="middle" x="1677.5" y="-185.05" font-family="Times,serif" font-size="14.00">Import (odim:DataTransferEvent)</text>
</g>
<g id="clust4" class="cluster">
<title>cluster_obs</title>
<polygon fill="none" stroke="#999999" stroke-dasharray="5,2" points="1937,-632.76 1937,-707.76 2209,-707.76 2209,-632.76 1937,-632.76"/>
<text text-anchor="middle" x="2073" y="-692.56" font-family="Times,serif" font-size="14.00">Observations (SOSA/ODIM entities)</text>
</g>
<g id="clust5" class="cluster">
<title>cluster_daily</title>
<polygon fill="none" stroke="#999999" stroke-dasharray="5,2" points="1034,-324.25 1034,-499.51 1831,-499.51 1831,-324.25 1034,-324.25"/>
<text text-anchor="middle" x="1432.5" y="-484.31" font-family="Times,serif" font-size="14.00">Daily features (odim:DerivedFeature)</text>
</g>
<g id="clust6" class="cluster">
<title>cluster_weekly</title>
<polygon fill="none" stroke="#999999" stroke-dasharray="5,2" points="1081,-532.51 1081,-1107.27 1878,-1107.27 1878,-532.51 1081,-532.51"/>
<text text-anchor="middle" x="1479.5" y="-1092.07" font-family="Times,serif" font-size="14.00">Weekly aggregates → decisions → phenotype</text>
</g>
<!-- Lraw -->
<g id="node1" class="node">
<title>Lraw</title>
<path fill="#eeeeee" stroke="#666666" d="M1052.5,-1076.27C1052.5,-1076.27 963.5,-1076.27 963.5,-1076.27 957.5,-1076.27 951.5,-1070.27 951.5,-1064.27 951.5,-1064.27 951.5,-1052.27 951.5,-1052.27 951.5,-1046.27 957.5,-1040.27 963.5,-1040.27 963.5,-1040.27 1052.5,-1040.27 1052.5,-1040.27 1058.5,-1040.27 1064.5,-1046.27 1064.5,-1052.27 1064.5,-1052.27 1064.5,-1064.27 1064.5,-1064.27 1064.5,-1070.27 1058.5,-1076.27 1052.5,-1076.27"/>
<text text-anchor="middle" x="1008" y="-1055.47" font-family="Helvetica,sans-Serif" font-size="11.00" fill="#222222">Raw (prov:Entity)</text>
</g>
<!-- Lobs -->
<g id="node2" class="node">
<title>Lobs</title>
<path fill="#ddeeff" stroke="#666666" d="M910.5,-1076.27C910.5,-1076.27 805.5,-1076.27 805.5,-1076.27 799.5,-1076.27 793.5,-1070.27 793.5,-1064.27 793.5,-1064.27 793.5,-1052.27 793.5,-1052.27 793.5,-1046.27 799.5,-1040.27 805.5,-1040.27 805.5,-1040.27 910.5,-1040.27 910.5,-1040.27 916.5,-1040.27 922.5,-1046.27 922.5,-1052.27 922.5,-1052.27 922.5,-1064.27 922.5,-1064.27 922.5,-1070.27 916.5,-1076.27 910.5,-1076.27"/>
<text text-anchor="middle" x="858" y="-1055.47" font-family="Helvetica,sans-Serif" font-size="11.00" fill="#222222">Observation (entity)</text>
</g>
<!-- Lfeat -->
<g id="node3" class="node">
<title>Lfeat</title>
<path fill="#e2f0d9" stroke="#666666" d="M752,-1076.27C752,-1076.27 628,-1076.27 628,-1076.27 622,-1076.27 616,-1070.27 616,-1064.27 616,-1064.27 616,-1052.27 616,-1052.27 616,-1046.27 622,-1040.27 628,-1040.27 628,-1040.27 752,-1040.27 752,-1040.27 758,-1040.27 764,-1046.27 764,-1052.27 764,-1052.27 764,-1064.27 764,-1064.27 764,-1070.27 758,-1076.27 752,-1076.27"/>
<text text-anchor="middle" x="690" y="-1055.47" font-family="Helvetica,sans-Serif" font-size="11.00" fill="#222222">Derived feature (entity)</text>
</g>
<!-- Lact -->
<g id="node4" class="node">
<title>Lact</title>
<ellipse fill="#fff2cc" stroke="#666666" cx="502" cy="-1058.27" rx="84.58" ry="18"/>
<text text-anchor="middle" x="502" y="-1055.47" font-family="Helvetica,sans-Serif" font-size="11.00" fill="#222222">Computation (activity)</text>
</g>
<!-- Lparam -->
<g id="node5" class="node">
<title>Lparam</title>
<path fill="#ffe5d9" stroke="#666666" d="M376,-1076.27C376,-1076.27 254,-1076.27 254,-1076.27 248,-1076.27 242,-1070.27 242,-1064.27 242,-1064.27 242,-1052.27 242,-1052.27 242,-1046.27 248,-1040.27 254,-1040.27 254,-1040.27 376,-1040.27 376,-1040.27 382,-1040.27 388,-1046.27 388,-1052.27 388,-1052.27 388,-1064.27 388,-1064.27 388,-1070.27 382,-1076.27 376,-1076.27"/>
<text text-anchor="middle" x="315" y="-1055.47" font-family="Helvetica,sans-Serif" font-size="11.00" fill="#222222">Parameter (prov:Entity)</text>
</g>
<!-- Lwin -->
<g id="node6" class="node">
<title>Lwin</title>
<path fill="#fde2e4" stroke="#666666" d="M200.5,-1076.27C200.5,-1076.27 131.5,-1076.27 131.5,-1076.27 125.5,-1076.27 119.5,-1070.27 119.5,-1064.27 119.5,-1064.27 119.5,-1052.27 119.5,-1052.27 119.5,-1046.27 125.5,-1040.27 131.5,-1040.27 131.5,-1040.27 200.5,-1040.27 200.5,-1040.27 206.5,-1040.27 212.5,-1046.27 212.5,-1052.27 212.5,-1052.27 212.5,-1064.27 212.5,-1064.27 212.5,-1070.27 206.5,-1076.27 200.5,-1076.27"/>
<text text-anchor="middle" x="166" y="-1055.47" font-family="Helvetica,sans-Serif" font-size="11.00" fill="#222222">Event window</text>
</g>
<!-- Lpheno -->
<g id="node7" class="node">
<title>Lpheno</title>
<path fill="#ede7f6" stroke="#666666" d="M78.5,-1076.27C78.5,-1076.27 27.5,-1076.27 27.5,-1076.27 21.5,-1076.27 15.5,-1070.27 15.5,-1064.27 15.5,-1064.27 15.5,-1052.27 15.5,-1052.27 15.5,-1046.27 21.5,-1040.27 27.5,-1040.27 27.5,-1040.27 78.5,-1040.27 78.5,-1040.27 84.5,-1040.27 90.5,-1046.27 90.5,-1052.27 90.5,-1052.27 90.5,-1064.27 90.5,-1064.27 90.5,-1070.27 84.5,-1076.27 78.5,-1076.27"/>
<text text-anchor="middle" x="53" y="-1055.47" font-family="Helvetica,sans-Serif" font-size="11.00" fill="#222222">Phenotype</text>
</g>
<!-- RawSteps -->
<g id="node8" class="node">
<title>RawSteps</title>
<path fill="#eeeeee" stroke="#666666" d="M1574.5,-52C1574.5,-52 1475.5,-52 1475.5,-52 1469.5,-52 1463.5,-46 1463.5,-40 1463.5,-40 1463.5,-28 1463.5,-28 1463.5,-22 1469.5,-16 1475.5,-16 1475.5,-16 1574.5,-16 1574.5,-16 1580.5,-16 1586.5,-22 1586.5,-28 1586.5,-28 1586.5,-40 1586.5,-40 1586.5,-46 1580.5,-52 1574.5,-52"/>
<text text-anchor="middle" x="1525" y="-37.2" font-family="Helvetica,sans-Serif" font-size="11.00" fill="#222222">odim:RawStepsCSV</text>
<text text-anchor="middle" x="1525" y="-25.2" font-family="Helvetica,sans-Serif" font-size="11.00" fill="#222222">(prov:Entity)</text>
</g>
<!-- RawSleep -->
<g id="node9" class="node">
<title>RawSleep</title>
<path fill="#eeeeee" stroke="#666666" d="M1726,-52C1726,-52 1628,-52 1628,-52 1622,-52 1616,-46 1616,-40 1616,-40 1616,-28 1616,-28 1616,-22 1622,-16 1628,-16 1628,-16 1726,-16 1726,-16 1732,-16 1738,-22 1738,-28 1738,-28 1738,-40 1738,-40 1738,-46 1732,-52 1726,-52"/>
<text text-anchor="middle" x="1677" y="-37.2" font-family="Helvetica,sans-Serif" font-size="11.00" fill="#222222">odim:RawSleepCSV</text>
<text text-anchor="middle" x="1677" y="-25.2" font-family="Helvetica,sans-Serif" font-size="11.00" fill="#222222">(prov:Entity)</text>
</g>
<!-- RawLoc -->
<g id="node10" class="node">
<title>RawLoc</title>
<path fill="#eeeeee" stroke="#666666" d="M1894.5,-52C1894.5,-52 1779.5,-52 1779.5,-52 1773.5,-52 1767.5,-46 1767.5,-40 1767.5,-40 1767.5,-28 1767.5,-28 1767.5,-22 1773.5,-16 1779.5,-16 1779.5,-16 1894.5,-16 1894.5,-16 1900.5,-16 1906.5,-22 1906.5,-28 1906.5,-28 1906.5,-40 1906.5,-40 1906.5,-46 1900.5,-52 1894.5,-52"/>
<text text-anchor="middle" x="1837" y="-37.2" font-family="Helvetica,sans-Serif" font-size="11.00" fill="#222222">odim:RawLocationCSV</text>
<text text-anchor="middle" x="1837" y="-25.2" font-family="Helvetica,sans-Serif" font-size="11.00" fill="#222222">(prov:Entity)</text>
</g>
<!-- Import -->
<g id="node11" class="node">
<title>Import</title>
<ellipse fill="#fff2cc" stroke="#666666" cx="1677" cy="-146.63" rx="111.95" ry="22.76"/>
<text text-anchor="middle" x="1677" y="-149.83" font-family="Helvetica,sans-Serif" font-size="11.00" fill="#222222">odim:A_Import</text>
<text text-anchor="middle" x="1677" y="-137.83" font-family="Helvetica,sans-Serif" font-size="11.00" fill="#222222">(odim:DataTransferEvent)</text>
</g>
<!-- Import&#45;&gt;RawSteps -->
<g id="edge1" class="edge">
<title>Import&#45;&gt;RawSteps</title>
<path fill="none" stroke="black" d="M1648.05,-124.56C1621.94,-105.55 1583.6,-77.65 1556.68,-58.05"/>
<polygon fill="black" stroke="black" points="1558.51,-55.06 1548.36,-52.01 1554.39,-60.72 1558.51,-55.06"/>
<text text-anchor="middle" x="1641" y="-94" font-family="Times,serif" font-size="10.00">prov:used</text>
</g>
<!-- Import&#45;&gt;RawSleep -->
<g id="edge2" class="edge">
<title>Import&#45;&gt;RawSleep</title>
<path fill="none" stroke="black" d="M1677,-123.77C1677,-106.11 1677,-81.15 1677,-62.2"/>
<polygon fill="black" stroke="black" points="1680.5,-62.1 1677,-52.1 1673.5,-62.1 1680.5,-62.1"/>
<text text-anchor="middle" x="1703" y="-94" font-family="Times,serif" font-size="10.00">prov:used</text>
</g>
<!-- Import&#45;&gt;RawLoc -->
<g id="edge3" class="edge">
<title>Import&#45;&gt;RawLoc</title>
<path fill="none" stroke="black" d="M1707.09,-124.82C1734.66,-105.76 1775.38,-77.6 1803.87,-57.91"/>
<polygon fill="black" stroke="black" points="1806.05,-60.65 1812.29,-52.09 1802.07,-54.9 1806.05,-60.65"/>
<text text-anchor="middle" x="1779" y="-94" font-family="Times,serif" font-size="10.00">prov:used</text>
</g>
<!-- ObsSteps -->
<g id="node12" class="node">
<title>ObsSteps</title>
<path fill="#ddeeff" stroke="#666666" d="M1539,-277.25C1539,-277.25 1389,-277.25 1389,-277.25 1383,-277.25 1377,-271.25 1377,-265.25 1377,-265.25 1377,-253.25 1377,-253.25 1377,-247.25 1383,-241.25 1389,-241.25 1389,-241.25 1539,-241.25 1539,-241.25 1545,-241.25 1551,-247.25 1551,-253.25 1551,-253.25 1551,-265.25 1551,-265.25 1551,-271.25 1545,-277.25 1539,-277.25"/>
<text text-anchor="middle" x="1464" y="-262.45" font-family="Helvetica,sans-Serif" font-size="11.00" fill="#222222">odim:Obs_Steps_D1</text>
<text text-anchor="middle" x="1464" y="-250.45" font-family="Helvetica,sans-Serif" font-size="11.00" fill="#222222">(odim:ActivityMeasurement)</text>
</g>
<!-- ObsSteps&#45;&gt;Import -->
<g id="edge4" class="edge">
<title>ObsSteps&#45;&gt;Import</title>
<path fill="none" stroke="black" d="M1493.8,-241.22C1511.23,-231.37 1533.73,-218.87 1554,-208.25 1577.34,-196.03 1603.49,-183.04 1625.66,-172.23"/>
<polygon fill="black" stroke="black" points="1627.43,-175.26 1634.9,-167.75 1624.37,-168.97 1627.43,-175.26"/>
<text text-anchor="middle" x="1612" y="-211.25" font-family="Times,serif" font-size="10.00">odim:wasGeneratedBy</text>
</g>
<!-- ObsSleep -->
<g id="node13" class="node">
<title>ObsSleep</title>
<path fill="#ddeeff" stroke="#666666" d="M1762,-277.25C1762,-277.25 1592,-277.25 1592,-277.25 1586,-277.25 1580,-271.25 1580,-265.25 1580,-265.25 1580,-253.25 1580,-253.25 1580,-247.25 1586,-241.25 1592,-241.25 1592,-241.25 1762,-241.25 1762,-241.25 1768,-241.25 1774,-247.25 1774,-253.25 1774,-253.25 1774,-265.25 1774,-265.25 1774,-271.25 1768,-277.25 1762,-277.25"/>
<text text-anchor="middle" x="1677" y="-262.45" font-family="Helvetica,sans-Serif" font-size="11.00" fill="#222222">odim:Obs_Sleep_D1</text>
<text text-anchor="middle" x="1677" y="-250.45" font-family="Helvetica,sans-Serif" font-size="11.00" fill="#222222">(odim:SleepStageMeasurement)</text>
</g>
<!-- ObsSleep&#45;&gt;Import -->
<g id="edge5" class="edge">
<title>ObsSleep&#45;&gt;Import</title>
<path fill="none" stroke="black" d="M1677,-240.97C1677,-224.59 1677,-199.58 1677,-179.58"/>
<polygon fill="black" stroke="black" points="1680.5,-179.35 1677,-169.35 1673.5,-179.35 1680.5,-179.35"/>
<text text-anchor="middle" x="1735" y="-211.25" font-family="Times,serif" font-size="10.00">odim:wasGeneratedBy</text>
</g>
<!-- ObsLoc -->
<g id="node14" class="node">
<title>ObsLoc</title>
<path fill="#ddeeff" stroke="#666666" d="M1988.5,-277.25C1988.5,-277.25 1823.5,-277.25 1823.5,-277.25 1817.5,-277.25 1811.5,-271.25 1811.5,-265.25 1811.5,-265.25 1811.5,-253.25 1811.5,-253.25 1811.5,-247.25 1817.5,-241.25 1823.5,-241.25 1823.5,-241.25 1988.5,-241.25 1988.5,-241.25 1994.5,-241.25 2000.5,-247.25 2000.5,-253.25 2000.5,-253.25 2000.5,-265.25 2000.5,-265.25 2000.5,-271.25 1994.5,-277.25 1988.5,-277.25"/>
<text text-anchor="middle" x="1906" y="-262.45" font-family="Helvetica,sans-Serif" font-size="11.00" fill="#222222">odim:Obs_Location_D1</text>
<text text-anchor="middle" x="1906" y="-250.45" font-family="Helvetica,sans-Serif" font-size="11.00" fill="#222222">(odim:DeviceLocationEstimate)</text>
</g>
<!-- ObsLoc&#45;&gt;Import -->
<g id="edge6" class="edge">
<title>ObsLoc&#45;&gt;Import</title>
<path fill="none" stroke="black" d="M1870.72,-241.21C1832.5,-222.75 1771.18,-193.12 1727.78,-172.16"/>
<polygon fill="black" stroke="black" points="1729.06,-168.89 1718.53,-167.69 1726.01,-175.19 1729.06,-168.89"/>
<text text-anchor="middle" x="1877" y="-211.25" font-family="Times,serif" font-size="10.00">odim:wasGeneratedBy</text>
</g>
<!-- ObsDots -->
<g id="node15" class="node">
<title>ObsDots</title>
<path fill="white" stroke="transparent" d="M2047,-676.76C2047,-676.76 1993,-676.76 1993,-676.76 1987,-676.76 1981,-670.76 1981,-664.76 1981,-664.76 1981,-652.76 1981,-652.76 1981,-646.76 1987,-640.76 1993,-640.76 1993,-640.76 2047,-640.76 2047,-640.76 2053,-640.76 2059,-646.76 2059,-652.76 2059,-652.76 2059,-664.76 2059,-664.76 2059,-670.76 2053,-676.76 2047,-676.76"/>
<text text-anchor="middle" x="2020" y="-655.96" font-family="Helvetica,sans-Serif" font-size="11.00" fill="#222222">… (D2..D7)</text>
</g>
<!-- DailyComp -->
<g id="node16" class="node">
<title>DailyComp</title>
<ellipse fill="#fff2cc" stroke="#666666" cx="1464" cy="-354.88" rx="133.79" ry="22.76"/>
<text text-anchor="middle" x="1464" y="-358.08" font-family="Helvetica,sans-Serif" font-size="11.00" fill="#222222">odim:A_DailySummary</text>
<text text-anchor="middle" x="1464" y="-346.08" font-family="Helvetica,sans-Serif" font-size="11.00" fill="#222222">(odim:AlgorithmicComputation)</text>
</g>
<!-- DailyComp&#45;&gt;ObsSteps -->
<g id="edge7" class="edge">
<title>DailyComp&#45;&gt;ObsSteps</title>
<path fill="none" stroke="black" d="M1464,-332.17C1464,-318.91 1464,-301.84 1464,-287.65"/>
<polygon fill="black" stroke="black" points="1467.5,-287.48 1464,-277.48 1460.5,-287.48 1467.5,-287.48"/>
<text text-anchor="middle" x="1490" y="-302.25" font-family="Times,serif" font-size="10.00">prov:used</text>
</g>
<!-- DailyComp&#45;&gt;ObsSleep -->
<g id="edge8" class="edge">
<title>DailyComp&#45;&gt;ObsSleep</title>
<path fill="none" stroke="black" d="M1510.22,-333.57C1545.26,-318.16 1593.29,-297.05 1628.81,-281.44"/>
<polygon fill="black" stroke="black" points="1630.26,-284.62 1638.01,-277.39 1627.45,-278.21 1630.26,-284.62"/>
<text text-anchor="middle" x="1610" y="-302.25" font-family="Times,serif" font-size="10.00">prov:used</text>
</g>
<!-- F1 -->
<g id="node17" class="node">
<title>F1</title>
<path fill="#e2f0d9" stroke="#666666" d="M1171.5,-468.51C1171.5,-468.51 1054.5,-468.51 1054.5,-468.51 1048.5,-468.51 1042.5,-462.51 1042.5,-456.51 1042.5,-456.51 1042.5,-444.51 1042.5,-444.51 1042.5,-438.51 1048.5,-432.51 1054.5,-432.51 1054.5,-432.51 1171.5,-432.51 1171.5,-432.51 1177.5,-432.51 1183.5,-438.51 1183.5,-444.51 1183.5,-444.51 1183.5,-456.51 1183.5,-456.51 1183.5,-462.51 1177.5,-468.51 1171.5,-468.51"/>
<text text-anchor="middle" x="1113" y="-453.71" font-family="Helvetica,sans-Serif" font-size="11.00" fill="#222222">odim:F_DailySteps_D1</text>
<text text-anchor="middle" x="1113" y="-441.71" font-family="Helvetica,sans-Serif" font-size="11.00" fill="#222222">(odim:DerivedFeature)</text>
</g>
<!-- F1&#45;&gt;DailyComp -->
<g id="edge13" class="edge">
<title>F1&#45;&gt;DailyComp</title>
<path fill="none" stroke="black" d="M1132.67,-432.42C1146.62,-421.25 1166.3,-407.34 1186,-399.51 1231.16,-381.57 1283.18,-370.99 1329.93,-364.75"/>
<polygon fill="black" stroke="black" points="1330.65,-368.19 1340.13,-363.45 1329.76,-361.24 1330.65,-368.19"/>
<text text-anchor="middle" x="1243.5" y="-402.51" font-family="Times,serif" font-size="10.00">odim:wasComputedBy</text>
</g>
<!-- F2 -->
<g id="node18" class="node">
<title>F2</title>
<path fill="#e2f0d9" stroke="#666666" d="M1341.5,-468.51C1341.5,-468.51 1224.5,-468.51 1224.5,-468.51 1218.5,-468.51 1212.5,-462.51 1212.5,-456.51 1212.5,-456.51 1212.5,-444.51 1212.5,-444.51 1212.5,-438.51 1218.5,-432.51 1224.5,-432.51 1224.5,-432.51 1341.5,-432.51 1341.5,-432.51 1347.5,-432.51 1353.5,-438.51 1353.5,-444.51 1353.5,-444.51 1353.5,-456.51 1353.5,-456.51 1353.5,-462.51 1347.5,-468.51 1341.5,-468.51"/>
<text text-anchor="middle" x="1283" y="-453.71" font-family="Helvetica,sans-Serif" font-size="11.00" fill="#222222">odim:F_DailySteps_D2</text>
<text text-anchor="middle" x="1283" y="-441.71" font-family="Helvetica,sans-Serif" font-size="11.00" fill="#222222">(odim:DerivedFeature)</text>
</g>
<!-- F2&#45;&gt;DailyComp -->
<g id="edge14" class="edge">
<title>F2&#45;&gt;DailyComp</title>
<path fill="none" stroke="black" d="M1291.51,-432.42C1297.74,-421.54 1307.16,-407.96 1319,-399.51 1333.45,-389.21 1350.36,-381.3 1367.42,-375.25"/>
<polygon fill="black" stroke="black" points="1368.54,-378.57 1376.91,-372.08 1366.32,-371.93 1368.54,-378.57"/>
<text text-anchor="middle" x="1376.5" y="-402.51" font-family="Times,serif" font-size="10.00">odim:wasComputedBy</text>
</g>
<!-- FDots -->
<g id="node19" class="node">
<title>FDots</title>
<path fill="white" stroke="transparent" d="M1449,-468.51C1449,-468.51 1395,-468.51 1395,-468.51 1389,-468.51 1383,-462.51 1383,-456.51 1383,-456.51 1383,-444.51 1383,-444.51 1383,-438.51 1389,-432.51 1395,-432.51 1395,-432.51 1449,-432.51 1449,-432.51 1455,-432.51 1461,-438.51 1461,-444.51 1461,-444.51 1461,-456.51 1461,-456.51 1461,-462.51 1455,-468.51 1449,-468.51"/>
<text text-anchor="middle" x="1422" y="-447.71" font-family="Helvetica,sans-Serif" font-size="11.00" fill="#666666">… (D3..D7)</text>
</g>
<!-- FDots&#45;&gt;DailyComp -->
<g id="edge17" class="edge">
<title>FDots&#45;&gt;DailyComp</title>
<path fill="none" stroke="black" stroke-dasharray="1,5" d="M1429.7,-432.34C1436.62,-416.92 1446.8,-394.22 1454.28,-377.56"/>
</g>
<!-- SQ1 -->
<g id="node20" class="node">
<title>SQ1</title>
<path fill="#e2f0d9" stroke="#666666" d="M1630,-468.51C1630,-468.51 1502,-468.51 1502,-468.51 1496,-468.51 1490,-462.51 1490,-456.51 1490,-456.51 1490,-444.51 1490,-444.51 1490,-438.51 1496,-432.51 1502,-432.51 1502,-432.51 1630,-432.51 1630,-432.51 1636,-432.51 1642,-438.51 1642,-444.51 1642,-444.51 1642,-456.51 1642,-456.51 1642,-462.51 1636,-468.51 1630,-468.51"/>
<text text-anchor="middle" x="1566" y="-453.71" font-family="Helvetica,sans-Serif" font-size="11.00" fill="#222222">odim:F_SleepMinutes_D1</text>
<text text-anchor="middle" x="1566" y="-441.71" font-family="Helvetica,sans-Serif" font-size="11.00" fill="#222222">(odim:DerivedFeature)</text>
</g>
<!-- SQ1&#45;&gt;DailyComp -->
<g id="edge15" class="edge">
<title>SQ1&#45;&gt;DailyComp</title>
<path fill="none" stroke="black" d="M1547.29,-432.34C1532.63,-418.88 1511.92,-399.86 1494.81,-384.17"/>
<polygon fill="black" stroke="black" points="1496.98,-381.4 1487.25,-377.22 1492.25,-386.56 1496.98,-381.4"/>
<text text-anchor="middle" x="1579.5" y="-402.51" font-family="Times,serif" font-size="10.00">odim:wasComputedBy</text>
</g>
<!-- SQ2 -->
<g id="node21" class="node">
<title>SQ2</title>
<path fill="#e2f0d9" stroke="#666666" d="M1811,-468.51C1811,-468.51 1683,-468.51 1683,-468.51 1677,-468.51 1671,-462.51 1671,-456.51 1671,-456.51 1671,-444.51 1671,-444.51 1671,-438.51 1677,-432.51 1683,-432.51 1683,-432.51 1811,-432.51 1811,-432.51 1817,-432.51 1823,-438.51 1823,-444.51 1823,-444.51 1823,-456.51 1823,-456.51 1823,-462.51 1817,-468.51 1811,-468.51"/>
<text text-anchor="middle" x="1747" y="-453.71" font-family="Helvetica,sans-Serif" font-size="11.00" fill="#222222">odim:F_SleepMinutes_D2</text>
<text text-anchor="middle" x="1747" y="-441.71" font-family="Helvetica,sans-Serif" font-size="11.00" fill="#222222">(odim:DerivedFeature)</text>
</g>
<!-- SQ2&#45;&gt;DailyComp -->
<g id="edge16" class="edge">
<title>SQ2&#45;&gt;DailyComp</title>
<path fill="none" stroke="black" d="M1716.2,-432.4C1696.11,-421.79 1669.07,-408.51 1644,-399.51 1616.66,-389.69 1586.2,-381.37 1558.22,-374.71"/>
<polygon fill="black" stroke="black" points="1558.97,-371.29 1548.44,-372.42 1557.38,-378.1 1558.97,-371.29"/>
<text text-anchor="middle" x="1728.5" y="-402.51" font-family="Times,serif" font-size="10.00">odim:wasComputedBy</text>
</g>
<!-- WeeklySteps -->
<g id="node22" class="node">
<title>WeeklySteps</title>
<ellipse fill="#fff2cc" stroke="#666666" cx="1232" cy="-563.14" rx="133.79" ry="22.76"/>
<text text-anchor="middle" x="1232" y="-566.34" font-family="Helvetica,sans-Serif" font-size="11.00" fill="#222222">odim:A_WeeklyAggregateSteps</text>
<text text-anchor="middle" x="1232" y="-554.34" font-family="Helvetica,sans-Serif" font-size="11.00" fill="#222222">(odim:AlgorithmicComputation)</text>
</g>
<!-- WeeklySteps&#45;&gt;F1 -->
<g id="edge18" class="edge">
<title>WeeklySteps&#45;&gt;F1</title>
<path fill="none" stroke="black" d="M1209.06,-540.81C1189.05,-522.21 1160.05,-495.25 1139.15,-475.82"/>
<polygon fill="black" stroke="black" points="1141.28,-473.03 1131.58,-468.78 1136.52,-478.15 1141.28,-473.03"/>
<text text-anchor="middle" x="1210" y="-510.51" font-family="Times,serif" font-size="10.00">prov:used</text>
</g>
<!-- WeeklySteps&#45;&gt;F2 -->
<g id="edge19" class="edge">
<title>WeeklySteps&#45;&gt;F2</title>
<path fill="none" stroke="black" d="M1241.95,-540.54C1250.24,-522.58 1262.06,-496.94 1270.89,-477.78"/>
<polygon fill="black" stroke="black" points="1274.07,-479.24 1275.08,-468.7 1267.71,-476.31 1274.07,-479.24"/>
<text text-anchor="middle" x="1282" y="-510.51" font-family="Times,serif" font-size="10.00">prov:used</text>
</g>
<!-- WeeklySteps&#45;&gt;FDots -->
<g id="edge20" class="edge">
<title>WeeklySteps&#45;&gt;FDots</title>
<path fill="none" stroke="black" stroke-dasharray="1,5" d="M1284.59,-542.21C1310.64,-531.28 1342,-516.51 1368,-499.51 1381.44,-490.72 1394.94,-478.72 1405.08,-468.92"/>
</g>
<!-- MeanSteps -->
<g id="node23" class="node">
<title>MeanSteps</title>
<path fill="#e2f0d9" stroke="#666666" d="M1235.5,-676.76C1235.5,-676.76 1100.5,-676.76 1100.5,-676.76 1094.5,-676.76 1088.5,-670.76 1088.5,-664.76 1088.5,-664.76 1088.5,-652.76 1088.5,-652.76 1088.5,-646.76 1094.5,-640.76 1100.5,-640.76 1100.5,-640.76 1235.5,-640.76 1235.5,-640.76 1241.5,-640.76 1247.5,-646.76 1247.5,-652.76 1247.5,-652.76 1247.5,-664.76 1247.5,-664.76 1247.5,-670.76 1241.5,-676.76 1235.5,-676.76"/>
<text text-anchor="middle" x="1168" y="-661.96" font-family="Helvetica,sans-Serif" font-size="11.00" fill="#222222">odim:F_WeeklyMeanSteps</text>
<text text-anchor="middle" x="1168" y="-649.96" font-family="Helvetica,sans-Serif" font-size="11.00" fill="#222222">(odim:DerivedFeature)</text>
</g>
<!-- MeanSteps&#45;&gt;WeeklySteps -->
<g id="edge21" class="edge">
<title>MeanSteps&#45;&gt;WeeklySteps</title>
<path fill="none" stroke="black" d="M1179.74,-640.59C1188.55,-627.71 1200.84,-609.73 1211.28,-594.44"/>
<polygon fill="black" stroke="black" points="1214.43,-596.05 1217.18,-585.82 1208.65,-592.1 1214.43,-596.05"/>
<text text-anchor="middle" x="1259.5" y="-610.76" font-family="Times,serif" font-size="10.00">odim:wasComputedBy</text>
</g>
<!-- Thresh -->
<g id="node24" class="node">
<title>Thresh</title>
<path fill="#ffe5d9" stroke="#666666" d="M1423.5,-676.76C1423.5,-676.76 1288.5,-676.76 1288.5,-676.76 1282.5,-676.76 1276.5,-670.76 1276.5,-664.76 1276.5,-664.76 1276.5,-652.76 1276.5,-652.76 1276.5,-646.76 1282.5,-640.76 1288.5,-640.76 1288.5,-640.76 1423.5,-640.76 1423.5,-640.76 1429.5,-640.76 1435.5,-646.76 1435.5,-652.76 1435.5,-652.76 1435.5,-664.76 1435.5,-664.76 1435.5,-670.76 1429.5,-676.76 1423.5,-676.76"/>
<text text-anchor="middle" x="1356" y="-661.96" font-family="Helvetica,sans-Serif" font-size="11.00" fill="#222222">odim:Threshold_LowSteps</text>
<text text-anchor="middle" x="1356" y="-649.96" font-family="Helvetica,sans-Serif" font-size="11.00" fill="#222222">(prov:Entity)</text>
</g>
<!-- StepsDecision -->
<g id="node25" class="node">
<title>StepsDecision</title>
<ellipse fill="#fff2cc" stroke="#666666" cx="1323" cy="-771.39" rx="135.11" ry="22.76"/>
<text text-anchor="middle" x="1323" y="-774.59" font-family="Helvetica,sans-Serif" font-size="11.00" fill="#222222">odim:A_StepsThresholdDecision</text>
<text text-anchor="middle" x="1323" y="-762.59" font-family="Helvetica,sans-Serif" font-size="11.00" fill="#222222">(odim:AlgorithmicComputation)</text>
</g>
<!-- StepsDecision&#45;&gt;MeanSteps -->
<g id="edge22" class="edge">
<title>StepsDecision&#45;&gt;MeanSteps</title>
<path fill="none" stroke="black" d="M1293.11,-749.06C1266.6,-730.14 1227.95,-702.55 1200.64,-683.06"/>
<polygon fill="black" stroke="black" points="1202.37,-680 1192.2,-677.03 1198.3,-685.69 1202.37,-680"/>
<text text-anchor="middle" x="1286" y="-718.76" font-family="Times,serif" font-size="10.00">prov:used</text>
</g>
<!-- StepsDecision&#45;&gt;Thresh -->
<g id="edge23" class="edge">
<title>StepsDecision&#45;&gt;Thresh</title>
<path fill="none" stroke="black" d="M1329.52,-748.54C1334.81,-730.79 1342.3,-705.69 1347.97,-686.7"/>
<polygon fill="black" stroke="black" points="1351.39,-687.45 1350.9,-676.87 1344.69,-685.45 1351.39,-687.45"/>
<text text-anchor="middle" x="1365" y="-718.76" font-family="Times,serif" font-size="10.00">prov:used</text>
</g>
<!-- Marker -->
<g id="node26" class="node">
<title>Marker</title>
<path fill="none" stroke="#666666" stroke-width="2" d="M1442,-885.02C1442,-885.02 1242,-885.02 1242,-885.02 1236,-885.02 1230,-879.02 1230,-873.02 1230,-873.02 1230,-861.02 1230,-861.02 1230,-855.02 1236,-849.02 1242,-849.02 1242,-849.02 1442,-849.02 1442,-849.02 1448,-849.02 1454,-855.02 1454,-861.02 1454,-861.02 1454,-873.02 1454,-873.02 1454,-879.02 1448,-885.02 1442,-885.02"/>
<text text-anchor="middle" x="1342" y="-870.22" font-family="Helvetica,sans-Serif" font-size="11.00" fill="#222222">odim:Marker_LowActivityDuringTravel</text>
<text text-anchor="middle" x="1342" y="-858.22" font-family="Helvetica,sans-Serif" font-size="11.00" fill="#222222">(odim:DerivedFeature)</text>
</g>
<!-- Marker&#45;&gt;StepsDecision -->
<g id="edge24" class="edge">
<title>Marker&#45;&gt;StepsDecision</title>
<path fill="none" stroke="black" d="M1338.52,-848.85C1335.97,-836.32 1332.46,-818.99 1329.41,-803.99"/>
<polygon fill="black" stroke="black" points="1332.82,-803.17 1327.4,-794.07 1325.96,-804.57 1332.82,-803.17"/>
<text text-anchor="middle" x="1391.5" y="-819.02" font-family="Times,serif" font-size="10.00">odim:wasComputedBy</text>
</g>
<!-- WeeklySleep -->
<g id="node27" class="node">
<title>WeeklySleep</title>
<ellipse fill="#fff2cc" stroke="#666666" cx="1566" cy="-563.14" rx="162.77" ry="22.76"/>
<text text-anchor="middle" x="1566" y="-566.34" font-family="Helvetica,sans-Serif" font-size="11.00" fill="#222222">odim:A_WeeklyAggregateSleepMinutes</text>
<text text-anchor="middle" x="1566" y="-554.34" font-family="Helvetica,sans-Serif" font-size="11.00" fill="#222222">(odim:AlgorithmicComputation)</text>
</g>
<!-- WeeklySleep&#45;&gt;FDots -->
<g id="edge27" class="edge">
<title>WeeklySleep&#45;&gt;FDots</title>
<path fill="none" stroke="black" stroke-dasharray="1,5" d="M1532.82,-540.84C1515.23,-529.18 1493.5,-514.15 1475,-499.51 1462.73,-489.8 1449.7,-478.02 1439.63,-468.56"/>
</g>
<!-- WeeklySleep&#45;&gt;SQ1 -->
<g id="edge25" class="edge">
<title>WeeklySleep&#45;&gt;SQ1</title>
<path fill="none" stroke="black" d="M1566,-540.28C1566,-522.62 1566,-497.66 1566,-478.71"/>
<polygon fill="black" stroke="black" points="1569.5,-478.61 1566,-468.61 1562.5,-478.61 1569.5,-478.61"/>
<text text-anchor="middle" x="1592" y="-510.51" font-family="Times,serif" font-size="10.00">prov:used</text>
</g>
<!-- WeeklySleep&#45;&gt;SQ2 -->
<g id="edge26" class="edge">
<title>WeeklySleep&#45;&gt;SQ2</title>
<path fill="none" stroke="black" d="M1600.9,-540.81C1632.35,-521.58 1678.44,-493.41 1710.41,-473.87"/>
<polygon fill="black" stroke="black" points="1712.32,-476.81 1719.03,-468.61 1708.67,-470.83 1712.32,-476.81"/>
<text text-anchor="middle" x="1678" y="-510.51" font-family="Times,serif" font-size="10.00">prov:used</text>
</g>
<!-- MeanSleep -->
<g id="node28" class="node">
<title>MeanSleep</title>
<path fill="#e2f0d9" stroke="#666666" d="M1655,-676.76C1655,-676.76 1477,-676.76 1477,-676.76 1471,-676.76 1465,-670.76 1465,-664.76 1465,-664.76 1465,-652.76 1465,-652.76 1465,-646.76 1471,-640.76 1477,-640.76 1477,-640.76 1655,-640.76 1655,-640.76 1661,-640.76 1667,-646.76 1667,-652.76 1667,-652.76 1667,-664.76 1667,-664.76 1667,-670.76 1661,-676.76 1655,-676.76"/>
<text text-anchor="middle" x="1566" y="-661.96" font-family="Helvetica,sans-Serif" font-size="11.00" fill="#222222">odim:F_WeeklyMeanSleepMinutes</text>
<text text-anchor="middle" x="1566" y="-649.96" font-family="Helvetica,sans-Serif" font-size="11.00" fill="#222222">(odim:DerivedFeature)</text>
</g>
<!-- MeanSleep&#45;&gt;WeeklySleep -->
<g id="edge28" class="edge">
<title>MeanSleep&#45;&gt;WeeklySleep</title>
<path fill="none" stroke="black" d="M1566,-640.59C1566,-628.19 1566,-611.07 1566,-596.17"/>
<polygon fill="black" stroke="black" points="1569.5,-595.82 1566,-585.82 1562.5,-595.82 1569.5,-595.82"/>
<text text-anchor="middle" x="1623.5" y="-610.76" font-family="Times,serif" font-size="10.00">odim:wasComputedBy</text>
</g>
<!-- SleepBaseline -->
<g id="node29" class="node">
<title>SleepBaseline</title>
<path fill="#ffe5d9" stroke="#666666" d="M1857.5,-676.76C1857.5,-676.76 1708.5,-676.76 1708.5,-676.76 1702.5,-676.76 1696.5,-670.76 1696.5,-664.76 1696.5,-664.76 1696.5,-652.76 1696.5,-652.76 1696.5,-646.76 1702.5,-640.76 1708.5,-640.76 1708.5,-640.76 1857.5,-640.76 1857.5,-640.76 1863.5,-640.76 1869.5,-646.76 1869.5,-652.76 1869.5,-652.76 1869.5,-664.76 1869.5,-664.76 1869.5,-670.76 1863.5,-676.76 1857.5,-676.76"/>
<text text-anchor="middle" x="1783" y="-661.96" font-family="Helvetica,sans-Serif" font-size="11.00" fill="#222222">odim:Baseline_SleepMinutes</text>
<text text-anchor="middle" x="1783" y="-649.96" font-family="Helvetica,sans-Serif" font-size="11.00" fill="#222222">(prov:Entity)</text>
</g>
<!-- SleepDebtDecision -->
<g id="node30" class="node">
<title>SleepDebtDecision</title>
<ellipse fill="#fff2cc" stroke="#666666" cx="1621" cy="-771.39" rx="133.79" ry="22.76"/>
<text text-anchor="middle" x="1621" y="-774.59" font-family="Helvetica,sans-Serif" font-size="11.00" fill="#222222">odim:A_SleepDebtDecision</text>
<text text-anchor="middle" x="1621" y="-762.59" font-family="Helvetica,sans-Serif" font-size="11.00" fill="#222222">(odim:AlgorithmicComputation)</text>
</g>
<!-- SleepDebtDecision&#45;&gt;MeanSleep -->
<g id="edge29" class="edge">
<title>SleepDebtDecision&#45;&gt;MeanSleep</title>
<path fill="none" stroke="black" d="M1610.26,-748.8C1601.33,-730.83 1588.58,-705.19 1579.06,-686.04"/>
<polygon fill="black" stroke="black" points="1582.13,-684.35 1574.54,-676.95 1575.86,-687.46 1582.13,-684.35"/>
<text text-anchor="middle" x="1625" y="-718.76" font-family="Times,serif" font-size="10.00">prov:used</text>
</g>
<!-- SleepDebtDecision&#45;&gt;SleepBaseline -->
<g id="edge30" class="edge">
<title>SleepDebtDecision&#45;&gt;SleepBaseline</title>
<path fill="none" stroke="black" d="M1651.85,-749.32C1679.81,-730.23 1720.9,-702.17 1749.61,-682.56"/>
<polygon fill="black" stroke="black" points="1751.81,-685.3 1758.1,-676.77 1747.87,-679.52 1751.81,-685.3"/>
<text text-anchor="middle" x="1724" y="-718.76" font-family="Times,serif" font-size="10.00">prov:used</text>
</g>
<!-- SleepDebt -->
<g id="node31" class="node">
<title>SleepDebt</title>
<path fill="#e2f0d9" stroke="#666666" d="M1691.5,-885.02C1691.5,-885.02 1526.5,-885.02 1526.5,-885.02 1520.5,-885.02 1514.5,-879.02 1514.5,-873.02 1514.5,-873.02 1514.5,-861.02 1514.5,-861.02 1514.5,-855.02 1520.5,-849.02 1526.5,-849.02 1526.5,-849.02 1691.5,-849.02 1691.5,-849.02 1697.5,-849.02 1703.5,-855.02 1703.5,-861.02 1703.5,-861.02 1703.5,-873.02 1703.5,-873.02 1703.5,-879.02 1697.5,-885.02 1691.5,-885.02"/>
<text text-anchor="middle" x="1609" y="-870.22" font-family="Helvetica,sans-Serif" font-size="11.00" fill="#222222">odim:Marker_SleepDebt_Week1</text>
<text text-anchor="middle" x="1609" y="-858.22" font-family="Helvetica,sans-Serif" font-size="11.00" fill="#222222">(odim:DerivedFeature)</text>
</g>
<!-- SleepDebt&#45;&gt;SleepDebtDecision -->
<g id="edge31" class="edge">
<title>SleepDebt&#45;&gt;SleepDebtDecision</title>
<path fill="none" stroke="black" d="M1611.2,-848.85C1612.81,-836.32 1615.03,-818.99 1616.95,-803.99"/>
<polygon fill="black" stroke="black" points="1620.42,-804.43 1618.22,-794.07 1613.48,-803.54 1620.42,-804.43"/>
<text text-anchor="middle" x="1673.5" y="-819.02" font-family="Times,serif" font-size="10.00">odim:wasComputedBy</text>
</g>
<!-- Combine -->
<g id="node32" class="node">
<title>Combine</title>
<ellipse fill="#fff2cc" stroke="#666666" cx="1569" cy="-962.65" rx="133.79" ry="22.76"/>
<text text-anchor="middle" x="1569" y="-965.85" font-family="Helvetica,sans-Serif" font-size="11.00" fill="#222222">odim:A_MarkerDerivation</text>
<text text-anchor="middle" x="1569" y="-953.85" font-family="Helvetica,sans-Serif" font-size="11.00" fill="#222222">(odim:AlgorithmicComputation)</text>
</g>
<!-- Combine&#45;&gt;Marker -->
<g id="edge32" class="edge">
<title>Combine&#45;&gt;Marker</title>
<path fill="none" stroke="black" d="M1520.3,-941.56C1482.71,-926.06 1430.86,-904.67 1392.76,-888.96"/>
<polygon fill="black" stroke="black" points="1393.97,-885.67 1383.39,-885.09 1391.3,-892.14 1393.97,-885.67"/>
<text text-anchor="middle" x="1489" y="-910.02" font-family="Times,serif" font-size="10.00">prov:used</text>
</g>
<!-- Combine&#45;&gt;SleepDebt -->
<g id="edge33" class="edge">
<title>Combine&#45;&gt;SleepDebt</title>
<path fill="none" stroke="black" d="M1578.28,-939.93C1584.05,-926.41 1591.52,-908.93 1597.65,-894.59"/>
<polygon fill="black" stroke="black" points="1600.93,-895.82 1601.64,-885.25 1594.49,-893.07 1600.93,-895.82"/>
<text text-anchor="middle" x="1618" y="-910.02" font-family="Times,serif" font-size="10.00">prov:used</text>
</g>
<!-- TravelWin -->
<g id="node36" class="node">
<title>TravelWin</title>
<path fill="#fde2e4" stroke="#666666" d="M2064.5,-885.02C2064.5,-885.02 1923.5,-885.02 1923.5,-885.02 1917.5,-885.02 1911.5,-879.02 1911.5,-873.02 1911.5,-873.02 1911.5,-861.02 1911.5,-861.02 1911.5,-855.02 1917.5,-849.02 1923.5,-849.02 1923.5,-849.02 2064.5,-849.02 2064.5,-849.02 2070.5,-849.02 2076.5,-855.02 2076.5,-861.02 2076.5,-861.02 2076.5,-873.02 2076.5,-873.02 2076.5,-879.02 2070.5,-885.02 2064.5,-885.02"/>
<text text-anchor="middle" x="1994" y="-870.22" font-family="Helvetica,sans-Serif" font-size="11.00" fill="#222222">odim:TravelWindow_Week1</text>
<text text-anchor="middle" x="1994" y="-858.22" font-family="Helvetica,sans-Serif" font-size="11.00" fill="#222222">(odim:EventWindow)</text>
</g>
<!-- Combine&#45;&gt;TravelWin -->
<g id="edge34" class="edge">
<title>Combine&#45;&gt;TravelWin</title>
<path fill="none" stroke="black" d="M1647.94,-944.26C1721.34,-928.09 1830.5,-904.04 1906.52,-887.29"/>
<polygon fill="black" stroke="black" points="1907.54,-890.65 1916.56,-885.08 1906.04,-883.81 1907.54,-890.65"/>
<text text-anchor="middle" x="1833" y="-910.02" font-family="Times,serif" font-size="10.00">prov:used</text>
</g>
<!-- Phenotype -->
<g id="node33" class="node">
<title>Phenotype</title>
<path fill="none" stroke="#666666" stroke-width="2" d="M1804,-1076.27C1804,-1076.27 1492,-1076.27 1492,-1076.27 1486,-1076.27 1480,-1070.27 1480,-1064.27 1480,-1064.27 1480,-1052.27 1480,-1052.27 1480,-1046.27 1486,-1040.27 1492,-1040.27 1492,-1040.27 1804,-1040.27 1804,-1040.27 1810,-1040.27 1816,-1046.27 1816,-1052.27 1816,-1052.27 1816,-1064.27 1816,-1064.27 1816,-1070.27 1810,-1076.27 1804,-1076.27"/>
<text text-anchor="middle" x="1648" y="-1061.47" font-family="Helvetica,sans-Serif" font-size="11.00" fill="#222222">odim:Phenotype_TravelAssociatedInactivityWithSleepDebt</text>
<text text-anchor="middle" x="1648" y="-1049.47" font-family="Helvetica,sans-Serif" font-size="11.00" fill="#222222">(odim:ActivityPhenotype)</text>
</g>
<!-- Phenotype&#45;&gt;Combine -->
<g id="edge35" class="edge">
<title>Phenotype&#45;&gt;Combine</title>
<path fill="none" stroke="black" d="M1628.42,-1040.17C1621.36,-1033.62 1613.52,-1025.88 1607,-1018.27 1600.47,-1010.66 1593.99,-1001.93 1588.29,-993.71"/>
<polygon fill="black" stroke="black" points="1591.17,-991.71 1582.66,-985.4 1585.37,-995.64 1591.17,-991.71"/>
<text text-anchor="middle" x="1664.5" y="-1010.27" font-family="Times,serif" font-size="10.00">odim:wasComputedBy</text>
</g>
<!-- Week -->
<g id="node34" class="node">
<title>Week</title>
<path fill="white" stroke="#666666" d="M1858,-980.65C1858,-980.65 1744,-980.65 1744,-980.65 1738,-980.65 1732,-974.65 1732,-968.65 1732,-968.65 1732,-956.65 1732,-956.65 1732,-950.65 1738,-944.65 1744,-944.65 1744,-944.65 1858,-944.65 1858,-944.65 1864,-944.65 1870,-950.65 1870,-956.65 1870,-956.65 1870,-968.65 1870,-968.65 1870,-974.65 1864,-980.65 1858,-980.65"/>
<text text-anchor="middle" x="1801" y="-965.85" font-family="Helvetica,sans-Serif" font-size="11.00" fill="#222222">odim:Week1</text>
<text text-anchor="middle" x="1801" y="-953.85" font-family="Helvetica,sans-Serif" font-size="11.00" fill="#222222">(odim:WeeklyInterval)</text>
</g>
<!-- Phenotype&#45;&gt;Week -->
<g id="edge36" class="edge">
<title>Phenotype&#45;&gt;Week</title>
<path fill="none" stroke="black" d="M1684.67,-1040.15C1697.64,-1033.71 1712.19,-1026.06 1725,-1018.27 1740.64,-1008.77 1757.23,-997.06 1770.9,-986.92"/>
<polygon fill="black" stroke="black" points="1773.11,-989.64 1779.01,-980.84 1768.91,-984.04 1773.11,-989.64"/>
<text text-anchor="middle" x="1790" y="-1010.27" font-family="Times,serif" font-size="10.00">odim:occursDuring</text>
</g>
<!-- TravelDetect -->
<g id="node35" class="node">
<title>TravelDetect</title>
<ellipse fill="#fff2cc" stroke="#666666" cx="2020" cy="-771.39" rx="133.79" ry="22.76"/>
<text text-anchor="middle" x="2020" y="-774.59" font-family="Helvetica,sans-Serif" font-size="11.00" fill="#222222">odim:A_TravelDetection</text>
<text text-anchor="middle" x="2020" y="-762.59" font-family="Helvetica,sans-Serif" font-size="11.00" fill="#222222">(odim:AlgorithmicComputation)</text>
</g>
<!-- TravelDetect&#45;&gt;ObsLoc -->
<g id="edge9" class="edge">
<title>TravelDetect&#45;&gt;ObsLoc</title>
<path fill="none" stroke="black" d="M1980.53,-749.72C1950.39,-730.79 1914,-699.66 1914,-659.76 1914,-659.76 1914,-659.76 1914,-353.88 1914,-331.52 1911.71,-306.25 1909.57,-287.61"/>
<polygon fill="black" stroke="black" points="1913.02,-286.98 1908.36,-277.47 1906.07,-287.82 1913.02,-286.98"/>
<text text-anchor="middle" x="1940" y="-510.51" font-family="Times,serif" font-size="10.00">prov:used</text>
</g>
<!-- TravelDetect&#45;&gt;ObsDots -->
<g id="edge10" class="edge">
<title>TravelDetect&#45;&gt;ObsDots</title>
<path fill="none" stroke="black" stroke-dasharray="1,5" d="M2020,-748.54C2020,-727.5 2020,-696.14 2020,-676.87"/>
</g>
<!-- TravelThresh -->
<g id="node37" class="node">
<title>TravelThresh</title>
<path fill="#ffe5d9" stroke="#666666" d="M2363,-676.76C2363,-676.76 2229,-676.76 2229,-676.76 2223,-676.76 2217,-670.76 2217,-664.76 2217,-664.76 2217,-652.76 2217,-652.76 2217,-646.76 2223,-640.76 2229,-640.76 2229,-640.76 2363,-640.76 2363,-640.76 2369,-640.76 2375,-646.76 2375,-652.76 2375,-652.76 2375,-664.76 2375,-664.76 2375,-670.76 2369,-676.76 2363,-676.76"/>
<text text-anchor="middle" x="2296" y="-661.96" font-family="Helvetica,sans-Serif" font-size="11.00" fill="#222222">odim:Threshold_TravelKm</text>
<text text-anchor="middle" x="2296" y="-649.96" font-family="Helvetica,sans-Serif" font-size="11.00" fill="#222222">(prov:Entity)</text>
</g>
<!-- TravelDetect&#45;&gt;TravelThresh -->
<g id="edge11" class="edge">
<title>TravelDetect&#45;&gt;TravelThresh</title>
<path fill="none" stroke="black" d="M2088.74,-751.92C2126.19,-740.91 2172.94,-725.61 2213,-707.76 2229.37,-700.47 2246.65,-690.83 2261.18,-682.09"/>
<polygon fill="black" stroke="black" points="2263.13,-685 2269.84,-676.8 2259.48,-679.03 2263.13,-685"/>
<text text-anchor="middle" x="2218" y="-718.76" font-family="Times,serif" font-size="10.00">prov:used</text>
</g>
<!-- TravelWin&#45;&gt;TravelDetect -->
<g id="edge12" class="edge">
<title>TravelWin&#45;&gt;TravelDetect</title>
<path fill="none" stroke="black" d="M1998.77,-848.85C2002.25,-836.32 2007.06,-818.99 2011.22,-803.99"/>
<polygon fill="black" stroke="black" points="2014.68,-804.64 2013.98,-794.07 2007.93,-802.77 2014.68,-804.64"/>
<text text-anchor="middle" x="2064.5" y="-819.02" font-family="Times,serif" font-size="10.00">odim:wasComputedBy</text>
</g>
</g>
</svg>
