<?xml version="1.0" encoding="UTF-8" standalone="no"?>
<!DOCTYPE svg PUBLIC "-//W3C//DTD SVG 1.1//EN"
 "http://www.w3.org/Graphics/SVG/1.1/DTD/svg11.dtd">
<!-- Generated by graphviz version 2.43.0 (0)
 -->
<!-- Title: Data Properties Pages: 1 -->
<svg width="862pt" height="678pt"
 viewBox="0.00 0.00 861.64 677.74" xmlns="http://www.w3.org/2000/svg" xmlns:xlink="http://www.w3.org/1999/xlink">
<g id="graph0" class="graph" transform="scale(1 1) rotate(0) translate(4 673.74)">
<title>Data Properties</title>
<polygon fill="white" stroke="transparent" points="-4,4 -4,-673.74 857.64,-673.74 857.64,4 -4,4"/>
<!-- hasUnit -->
<g id="node1" class="node">
<title>hasUnit</title>
<ellipse fill="lightyellow" stroke="black" cx="302.87" cy="-293.35" rx="51.74" ry="26.74"/>
<text text-anchor="middle" x="302.87" y="-297.15" font-family="Arial" font-size="14.00">has unit</text>
<text text-anchor="middle" x="302.87" y="-282.15" font-family="Arial" font-size="14.00">(string)</text>
</g>
<!-- hasTimestamp -->
<g id="node2" class="node">
<title>hasTimestamp</title>
<ellipse fill="lightyellow" stroke="black" cx="550.87" cy="-468.35" rx="84.71" ry="26.74"/>
<text text-anchor="middle" x="550.87" y="-472.15" font-family="Arial" font-size="14.00">has timestamp</text>
<text text-anchor="middle" x="550.87" y="-457.15" font-family="Arial" font-size="14.00">(dateTime)</text>
</g>
<!-- hasEndTime -->
<g id="node3" class="node">
<title>hasEndTime</title>
<ellipse fill="lightyellow" stroke="black" cx="179.5" cy="-642.87" rx="75.82" ry="26.74"/>
<text text-anchor="middle" x="179.5" y="-646.67" font-family="Arial" font-size="14.00">has end time</text>
<text text-anchor="middle" x="179.5" y="-631.67" font-family="Arial" font-size="14.00">(dateTime)</text>
</g>
<!-- hasValue -->
<g id="node4" class="node">
<title>hasValue</title>
<ellipse fill="lightyellow" stroke="black" cx="182.13" cy="-332.58" rx="58.88" ry="26.74"/>
<text text-anchor="middle" x="182.13" y="-336.38" font-family="Arial" font-size="14.00">has value</text>
<text text-anchor="middle" x="182.13" y="-321.38" font-family="Arial" font-size="14.00">(float)</text>
</g>
<!-- hasStartTime -->
<g id="node5" class="node">
<title>hasStartTime</title>
<ellipse fill="lightyellow" stroke="black" cx="179.5" cy="-426.87" rx="79.81" ry="26.74"/>
<text text-anchor="middle" x="179.5" y="-430.67" font-family="Arial" font-size="14.00">has start time</text>
<text text-anchor="middle" x="179.5" y="-415.67" font-family="Arial" font-size="14.00">(dateTime)</text>
</g>
<!-- resultTime -->
<g id="node6" class="node">
<title>resultTime</title>
<ellipse fill="lightyellow" stroke="black" cx="107.5" cy="-229.87" rx="57.69" ry="18"/>
<text text-anchor="middle" x="107.5" y="-226.17" font-family="Arial" font-size="14.00">resultTime</text>
</g>
<!-- resultTime&#45;&gt;resultTime -->
<g id="edge16" class="edge">
<title>resultTime&#45;&gt;resultTime</title>
<path fill="none" stroke="darkgreen" d="M134.59,-245.92C179.37,-264.68 237.34,-259.33 237.34,-229.87 237.34,-202.48 187.24,-195.93 144.21,-210.22"/>
<polygon fill="darkgreen" stroke="darkgreen" points="142.73,-207.03 134.59,-213.82 145.18,-213.59 142.73,-207.03"/>
<text text-anchor="middle" x="272.34" y="-227.37" font-family="Arial" font-size="10.00">subPropertyOf</text>
</g>
<!-- hasStatus -->
<g id="node7" class="node">
<title>hasStatus</title>
<ellipse fill="lightyellow" stroke="black" cx="430.13" cy="-507.58" rx="62.87" ry="26.74"/>
<text text-anchor="middle" x="430.13" y="-511.38" font-family="Arial" font-size="14.00">has status</text>
<text text-anchor="middle" x="430.13" y="-496.38" font-family="Arial" font-size="14.00">(string)</text>
</g>
<!-- hasConfidence -->
<g id="node8" class="node">
<title>hasConfidence</title>
<ellipse fill="lightyellow" stroke="black" cx="182.13" cy="-127.16" rx="86.03" ry="26.74"/>
<text text-anchor="middle" x="182.13" y="-130.96" font-family="Arial" font-size="14.00">has confidence</text>
<text text-anchor="middle" x="182.13" y="-115.96" font-family="Arial" font-size="14.00">(float)</text>
</g>
<!-- numericValue -->
<g id="node9" class="node">
<title>numericValue</title>
<ellipse fill="lightyellow" stroke="black" cx="639.5" cy="-167.87" rx="72.29" ry="18"/>
<text text-anchor="middle" x="639.5" y="-164.17" font-family="Arial" font-size="14.00">numericValue</text>
</g>
<!-- numericValue&#45;&gt;numericValue -->
<g id="edge17" class="edge">
<title>numericValue&#45;&gt;numericValue</title>
<path fill="none" stroke="darkgreen" d="M670.29,-184.19C719.9,-202.63 783.64,-197.19 783.64,-167.87 783.64,-140.44 727.85,-133.91 680.04,-148.28"/>
<polygon fill="darkgreen" stroke="darkgreen" points="678.66,-145.05 670.29,-151.55 680.88,-151.69 678.66,-145.05"/>
<text text-anchor="middle" x="818.64" y="-165.37" font-family="Arial" font-size="10.00">subPropertyOf</text>
</g>
<!-- hasLabel -->
<g id="node10" class="node">
<title>hasLabel</title>
<ellipse fill="lightyellow" stroke="black" cx="355.5" cy="-404.87" rx="55.72" ry="26.74"/>
<text text-anchor="middle" x="355.5" y="-408.67" font-family="Arial" font-size="14.00">has label</text>
<text text-anchor="middle" x="355.5" y="-393.67" font-family="Arial" font-size="14.00">(string)</text>
</g>
<!-- hasResponseValue -->
<g id="node11" class="node">
<title>hasResponseValue</title>
<ellipse fill="lightyellow" stroke="black" cx="492.5" cy="-76.87" rx="106.55" ry="26.74"/>
<text text-anchor="middle" x="492.5" y="-80.67" font-family="Arial" font-size="14.00">has response value</text>
<text text-anchor="middle" x="492.5" y="-65.67" font-family="Arial" font-size="14.00">(string)</text>
</g>
<!-- hasMeasurementType -->
<g id="node12" class="node">
<title>hasMeasurementType</title>
<ellipse fill="lightyellow" stroke="black" cx="302.87" cy="-166.39" rx="125.32" ry="26.74"/>
<text text-anchor="middle" x="302.87" y="-170.19" font-family="Arial" font-size="14.00">has measurement type</text>
<text text-anchor="middle" x="302.87" y="-155.19" font-family="Arial" font-size="14.00">(string)</text>
</g>
<!-- hasStageName -->
<g id="node13" class="node">
<title>hasStageName</title>
<ellipse fill="lightyellow" stroke="black" cx="155.5" cy="-26.87" rx="90.52" ry="26.74"/>
<text text-anchor="middle" x="155.5" y="-30.67" font-family="Arial" font-size="14.00">has stage name</text>
<text text-anchor="middle" x="155.5" y="-15.67" font-family="Arial" font-size="14.00">(string)</text>
</g>
<!-- hasID -->
<g id="node14" class="node">
<title>hasID</title>
<ellipse fill="lightyellow" stroke="black" cx="430.13" cy="-302.16" rx="48.17" ry="26.74"/>
<text text-anchor="middle" x="430.13" y="-305.96" font-family="Arial" font-size="14.00">has ID</text>
<text text-anchor="middle" x="430.13" y="-290.96" font-family="Arial" font-size="14.00">(string)</text>
</g>
<!-- hasDescription -->
<g id="node15" class="node">
<title>hasDescription</title>
<ellipse fill="lightyellow" stroke="black" cx="550.87" cy="-341.39" rx="86.95" ry="26.74"/>
<text text-anchor="middle" x="550.87" y="-345.19" font-family="Arial" font-size="14.00">has description</text>
<text text-anchor="middle" x="550.87" y="-330.19" font-family="Arial" font-size="14.00">(string)</text>
</g>
<!-- Measurement -->
<g id="node16" class="node">
<title>Measurement</title>
<polygon fill="lightblue" stroke="black" points="271,-247.87 160,-247.87 160,-211.87 271,-211.87 271,-247.87"/>
<text text-anchor="middle" x="215.5" y="-226.17" font-family="Arial" font-size="14.00">Measurement</text>
</g>
<!-- Measurement&#45;&gt;hasUnit -->
<g id="edge1" class="edge">
<title>Measurement&#45;&gt;hasUnit</title>
<path fill="none" stroke="blue" stroke-dasharray="5,2" d="M240.3,-247.89C247.87,-253.39 256.38,-259.57 264.62,-265.56"/>
<polygon fill="blue" stroke="blue" points="262.58,-268.4 272.73,-271.45 266.7,-262.74 262.58,-268.4"/>
<text text-anchor="middle" x="237.96" y="-251.63" font-family="Arial" font-size="10.00">domain</text>
</g>
<!-- Measurement&#45;&gt;hasValue -->
<g id="edge4" class="edge">
<title>Measurement&#45;&gt;hasValue</title>
<path fill="none" stroke="blue" stroke-dasharray="5,2" d="M209.53,-248.23C205.22,-261.52 199.24,-279.91 193.97,-296.13"/>
<polygon fill="blue" stroke="blue" points="190.56,-295.29 190.8,-305.88 197.22,-297.46 190.56,-295.29"/>
<text text-anchor="middle" x="181.7" y="-279.96" font-family="Arial" font-size="10.00">domain</text>
</g>
<!-- Measurement&#45;&gt;resultTime -->
<g id="edge6" class="edge">
<title>Measurement&#45;&gt;resultTime</title>
<path fill="none" stroke="blue" stroke-dasharray="5,2" d="M159.92,-229.87C159.87,-229.87 159.81,-229.87 159.76,-229.87"/>
<polygon fill="blue" stroke="blue" points="169.61,-226.38 159.61,-229.87 169.61,-233.38 169.61,-226.38"/>
<text text-anchor="middle" x="141.34" y="-232.87" font-family="Arial" font-size="10.00">domain</text>
</g>
<!-- Measurement&#45;&gt;hasConfidence -->
<g id="edge8" class="edge">
<title>Measurement&#45;&gt;hasConfidence</title>
<path fill="none" stroke="blue" stroke-dasharray="5,2" d="M209.53,-211.51C205.25,-198.32 199.33,-180.09 194.08,-163.96"/>
<polygon fill="blue" stroke="blue" points="197.35,-162.68 190.93,-154.25 190.69,-164.84 197.35,-162.68"/>
<text text-anchor="middle" x="181.77" y="-186.01" font-family="Arial" font-size="10.00">domain</text>
</g>
<!-- Measurement&#45;&gt;hasMeasurementType -->
<g id="edge12" class="edge">
<title>Measurement&#45;&gt;hasMeasurementType</title>
<path fill="none" stroke="blue" stroke-dasharray="5,2" d="M240.3,-211.85C246.19,-207.57 252.65,-202.88 259.11,-198.19"/>
<polygon fill="blue" stroke="blue" points="261.21,-200.98 267.24,-192.28 257.1,-195.32 261.21,-200.98"/>
<text text-anchor="middle" x="272.17" y="-205.14" font-family="Arial" font-size="10.00">domain</text>
</g>
<!-- Thing -->
<g id="node17" class="node">
<title>Thing</title>
<polygon fill="lightblue" stroke="black" points="491.5,-422.87 435.5,-422.87 435.5,-386.87 491.5,-386.87 491.5,-422.87"/>
<text text-anchor="middle" x="463.5" y="-401.17" font-family="Arial" font-size="14.00">Thing</text>
</g>
<!-- Thing&#45;&gt;hasTimestamp -->
<g id="edge2" class="edge">
<title>Thing&#45;&gt;hasTimestamp</title>
<path fill="none" stroke="blue" stroke-dasharray="5,2" d="M488.3,-422.89C494.69,-427.53 501.73,-432.65 508.73,-437.73"/>
<polygon fill="blue" stroke="blue" points="506.73,-440.6 516.87,-443.65 510.84,-434.94 506.73,-440.6"/>
<text text-anchor="middle" x="484.33" y="-425.45" font-family="Arial" font-size="10.00">domain</text>
</g>
<!-- Thing&#45;&gt;hasStatus -->
<g id="edge7" class="edge">
<title>Thing&#45;&gt;hasStatus</title>
<path fill="none" stroke="blue" stroke-dasharray="5,2" d="M457.53,-423.23C453.22,-436.52 447.24,-454.91 441.97,-471.13"/>
<polygon fill="blue" stroke="blue" points="438.56,-470.29 438.8,-480.88 445.22,-472.46 438.56,-470.29"/>
<text text-anchor="middle" x="429.7" y="-454.96" font-family="Arial" font-size="10.00">domain</text>
</g>
<!-- Thing&#45;&gt;hasLabel -->
<g id="edge10" class="edge">
<title>Thing&#45;&gt;hasLabel</title>
<path fill="none" stroke="blue" stroke-dasharray="5,2" d="M435.41,-404.87C431.03,-404.87 426.35,-404.87 421.54,-404.87"/>
<polygon fill="blue" stroke="blue" points="421.53,-401.37 411.53,-404.87 421.53,-408.37 421.53,-401.37"/>
<text text-anchor="middle" x="423.34" y="-396.87" font-family="Arial" font-size="10.00">domain</text>
</g>
<!-- Thing&#45;&gt;hasID -->
<g id="edge14" class="edge">
<title>Thing&#45;&gt;hasID</title>
<path fill="none" stroke="blue" stroke-dasharray="5,2" d="M457.53,-386.51C453.22,-373.22 447.24,-354.83 441.97,-338.61"/>
<polygon fill="blue" stroke="blue" points="445.22,-337.28 438.8,-328.86 438.56,-339.45 445.22,-337.28"/>
<text text-anchor="middle" x="429.7" y="-360.78" font-family="Arial" font-size="10.00">domain</text>
</g>
<!-- Thing&#45;&gt;hasDescription -->
<g id="edge15" class="edge">
<title>Thing&#45;&gt;hasDescription</title>
<path fill="none" stroke="blue" stroke-dasharray="5,2" d="M488.3,-386.85C494.48,-382.36 501.27,-377.43 508.04,-372.51"/>
<polygon fill="blue" stroke="blue" points="510.52,-375.04 516.55,-366.33 506.4,-369.37 510.52,-375.04"/>
<text text-anchor="middle" x="520.84" y="-379.65" font-family="Arial" font-size="10.00">domain</text>
</g>
<!-- ObservationContext -->
<g id="node18" class="node">
<title>ObservationContext</title>
<polygon fill="lightblue" stroke="black" points="259.5,-552.87 99.5,-552.87 99.5,-516.87 259.5,-516.87 259.5,-552.87"/>
<text text-anchor="middle" x="179.5" y="-531.17" font-family="Arial" font-size="14.00">Observation Context</text>
</g>
<!-- ObservationContext&#45;&gt;hasEndTime -->
<g id="edge3" class="edge">
<title>ObservationContext&#45;&gt;hasEndTime</title>
<path fill="none" stroke="blue" stroke-dasharray="5,2" d="M179.5,-553.19C179.5,-567.58 179.5,-588.08 179.5,-605.86"/>
<polygon fill="blue" stroke="blue" points="176,-605.94 179.5,-615.94 183,-605.94 176,-605.94"/>
<text text-anchor="middle" x="161" y="-587.31" font-family="Arial" font-size="10.00">domain</text>
</g>
<!-- ObservationContext&#45;&gt;hasStartTime -->
<g id="edge5" class="edge">
<title>ObservationContext&#45;&gt;hasStartTime</title>
<path fill="none" stroke="blue" stroke-dasharray="5,2" d="M179.5,-516.55C179.5,-502.16 179.5,-481.66 179.5,-463.88"/>
<polygon fill="blue" stroke="blue" points="183,-463.8 179.5,-453.8 176,-463.8 183,-463.8"/>
<text text-anchor="middle" x="161" y="-488.43" font-family="Arial" font-size="10.00">domain</text>
</g>
<!-- QuantityValue -->
<g id="node19" class="node">
<title>QuantityValue</title>
<polygon fill="lightblue" stroke="black" points="588.5,-185.87 474.5,-185.87 474.5,-149.87 588.5,-149.87 588.5,-185.87"/>
<text text-anchor="middle" x="531.5" y="-164.17" font-family="Arial" font-size="14.00">QuantityValue</text>
</g>
<!-- QuantityValue&#45;&gt;numericValue -->
<g id="edge9" class="edge">
<title>QuantityValue&#45;&gt;numericValue</title>
<path fill="none" stroke="blue" stroke-dasharray="5,2" d="M588.66,-167.87C588.71,-167.87 588.76,-167.87 588.81,-167.87"/>
<polygon fill="blue" stroke="blue" points="578.97,-171.38 588.97,-167.87 578.96,-164.38 578.97,-171.38"/>
<text text-anchor="middle" x="607.24" y="-170.87" font-family="Arial" font-size="10.00">domain</text>
</g>
<!-- ResponseItem -->
<g id="node20" class="node">
<title>ResponseItem</title>
<polygon fill="lightblue" stroke="black" points="444,-94.87 325,-94.87 325,-58.87 444,-58.87 444,-94.87"/>
<text text-anchor="middle" x="384.5" y="-73.17" font-family="Arial" font-size="14.00">Response Item</text>
</g>
<!-- ResponseItem&#45;&gt;hasResponseValue -->
<g id="edge11" class="edge">
<title>ResponseItem&#45;&gt;hasResponseValue</title>
<path fill="none" stroke="blue" stroke-dasharray="5,2" d="M444.19,-76.87C444.23,-76.87 444.28,-76.87 444.33,-76.87"/>
<polygon fill="blue" stroke="blue" points="434.48,-80.38 444.48,-76.87 434.48,-73.38 434.48,-80.38"/>
<text text-anchor="middle" x="462.76" y="-79.87" font-family="Arial" font-size="10.00">domain</text>
</g>
<!-- SleepStage -->
<g id="node21" class="node">
<title>SleepStage</title>
<polygon fill="lightblue" stroke="black" points="95,-44.87 0,-44.87 0,-8.87 95,-8.87 95,-44.87"/>
<text text-anchor="middle" x="47.5" y="-23.17" font-family="Arial" font-size="14.00">SleepStage</text>
</g>
<!-- SleepStage&#45;&gt;hasStageName -->
<g id="edge13" class="edge">
<title>SleepStage&#45;&gt;hasStageName</title>
<path fill="none" stroke="blue" stroke-dasharray="5,2" d="M95.18,-26.87C95.24,-26.87 95.3,-26.87 95.35,-26.87"/>
<polygon fill="blue" stroke="blue" points="85.53,-30.38 95.52,-26.87 85.52,-23.38 85.53,-30.38"/>
<text text-anchor="middle" x="113.77" y="-29.87" font-family="Arial" font-size="10.00">domain</text>
</g>
</g>
</svg>
