<?xml version="1.0" encoding="UTF-8" standalone="no"?>
<!DOCTYPE svg PUBLIC "-//W3C//DTD SVG 1.1//EN"
 "http://www.w3.org/Graphics/SVG/1.1/DTD/svg11.dtd">
<!-- Generated by graphviz version 2.43.0 (0)
 -->
<!-- Title: Data Properties Pages: 1 -->
<svg width="2434pt" height="133pt"
 viewBox="0.00 0.00 2434.00 133.00" xmlns="http://www.w3.org/2000/svg" xmlns:xlink="http://www.w3.org/1999/xlink">
<g id="graph0" class="graph" transform="scale(1 1) rotate(0) translate(4 129)">
<title>Data Properties</title>
<polygon fill="white" stroke="transparent" points="-4,4 -4,-129 2430,-129 2430,4 -4,4"/>
<!-- | -->
<g id="node1" class="node">
<title>|</title>
<polygon fill="lightyellow" stroke="black" points="1197,-38 1143,-38 1143,0 1197,0 1197,-38"/>
<text text-anchor="middle" x="1170" y="-22.8" font-family="Times,serif" font-size="14.00">|</text>
<text text-anchor="middle" x="1170" y="-7.8" font-family="Times,serif" font-size="14.00">(|)</text>
</g>
<!-- prop -->
<g id="node2" class="node">
<title>prop</title>
<polygon fill="lightblue" stroke="black" points="54,-125 0,-125 0,-89 54,-89 54,-125"/>
<text text-anchor="middle" x="27" y="-103.3" font-family="Times,serif" font-size="14.00">|</text>
</g>
<!-- |&#45;&gt;prop -->
<g id="edge1" class="edge">
<title>|&#45;&gt;prop</title>
<path fill="none" stroke="black" stroke-dasharray="5,2" d="M1142.75,-20.26C977.74,-21.88 117.65,-31.51 68,-56 57.21,-61.32 48.27,-70.95 41.52,-80.35"/>
<polygon fill="black" stroke="black" points="38.54,-78.52 35.94,-88.79 44.38,-82.37 38.54,-78.52"/>
<text text-anchor="middle" x="111" y="-59.8" font-family="Times,serif" font-size="14.00">rdfs:domain</text>
</g>
<!-- http://connectdigitalstudy.com/ontology#hasUnit -->
<g id="node3" class="node">
<title>http://connectdigitalstudy.com/ontology#hasUnit</title>
<polygon fill="lightblue" stroke="black" points="163,-125 109,-125 109,-89 163,-89 163,-125"/>
<text text-anchor="middle" x="136" y="-103.3" font-family="Times,serif" font-size="14.00">|</text>
</g>
<!-- |&#45;&gt;http://connectdigitalstudy.com/ontology#hasUnit -->
<g id="edge2" class="edge">
<title>|&#45;&gt;http://connectdigitalstudy.com/ontology#hasUnit</title>
<path fill="none" stroke="black" stroke-dasharray="5,2" d="M1142.92,-20.34C987.98,-22.34 219.28,-33.38 175,-56 164.6,-61.31 156.12,-70.81 149.76,-80.11"/>
<polygon fill="black" stroke="black" points="146.64,-78.49 144.31,-88.82 152.58,-82.2 146.64,-78.49"/>
<text text-anchor="middle" x="218" y="-59.8" font-family="Times,serif" font-size="14.00">rdfs:domain</text>
</g>
<!-- http://connectdigitalstudy.com/ontology#hasTimestamp -->
<g id="node4" class="node">
<title>http://connectdigitalstudy.com/ontology#hasTimestamp</title>
<polygon fill="lightblue" stroke="black" points="272,-125 218,-125 218,-89 272,-89 272,-125"/>
<text text-anchor="middle" x="245" y="-103.3" font-family="Times,serif" font-size="14.00">|</text>
</g>
<!-- |&#45;&gt;http://connectdigitalstudy.com/ontology#hasTimestamp -->
<g id="edge3" class="edge">
<title>|&#45;&gt;http://connectdigitalstudy.com/ontology#hasTimestamp</title>
<path fill="none" stroke="black" stroke-dasharray="5,2" d="M1142.77,-20.43C997.61,-22.83 319.85,-35.1 281,-56 271.01,-61.38 263.11,-70.88 257.3,-80.18"/>
<polygon fill="black" stroke="black" points="254.25,-78.45 252.35,-88.88 260.34,-81.91 254.25,-78.45"/>
<text text-anchor="middle" x="324" y="-59.8" font-family="Times,serif" font-size="14.00">rdfs:domain</text>
</g>
<!-- http://connectdigitalstudy.com/ontology#hasEndTime -->
<g id="node5" class="node">
<title>http://connectdigitalstudy.com/ontology#hasEndTime</title>
<polygon fill="lightblue" stroke="black" points="381,-125 327,-125 327,-89 381,-89 381,-125"/>
<text text-anchor="middle" x="354" y="-103.3" font-family="Times,serif" font-size="14.00">|</text>
</g>
<!-- |&#45;&gt;http://connectdigitalstudy.com/ontology#hasEndTime -->
<g id="edge4" class="edge">
<title>|&#45;&gt;http://connectdigitalstudy.com/ontology#hasEndTime</title>
<path fill="none" stroke="black" stroke-dasharray="5,2" d="M1142.92,-19.76C1012.38,-18.8 451.47,-16.98 385,-56 375.85,-61.37 369.02,-70.62 364.13,-79.71"/>
<polygon fill="black" stroke="black" points="360.87,-78.43 359.73,-88.96 367.19,-81.44 360.87,-78.43"/>
<text text-anchor="middle" x="428" y="-59.8" font-family="Times,serif" font-size="14.00">rdfs:domain</text>
</g>
<!-- http://connectdigitalstudy.com/ontology#hasValue -->
<g id="node6" class="node">
<title>http://connectdigitalstudy.com/ontology#hasValue</title>
<polygon fill="lightblue" stroke="black" points="490,-125 436,-125 436,-89 490,-89 490,-125"/>
<text text-anchor="middle" x="463" y="-103.3" font-family="Times,serif" font-size="14.00">|</text>
</g>
<!-- |&#45;&gt;http://connectdigitalstudy.com/ontology#hasValue -->
<g id="edge5" class="edge">
<title>|&#45;&gt;http://connectdigitalstudy.com/ontology#hasValue</title>
<path fill="none" stroke="black" stroke-dasharray="5,2" d="M1142.9,-19.84C1022.97,-19.34 543.48,-19.66 488,-56 479.77,-61.39 474.14,-70.35 470.34,-79.2"/>
<polygon fill="black" stroke="black" points="467.05,-78.01 466.9,-88.6 473.62,-80.42 467.05,-78.01"/>
<text text-anchor="middle" x="531" y="-59.8" font-family="Times,serif" font-size="14.00">rdfs:domain</text>
</g>
<!-- http://connectdigitalstudy.com/ontology#hasStartTime -->
<g id="node7" class="node">
<title>http://connectdigitalstudy.com/ontology#hasStartTime</title>
<polygon fill="lightblue" stroke="black" points="599,-125 545,-125 545,-89 599,-89 599,-125"/>
<text text-anchor="middle" x="572" y="-103.3" font-family="Times,serif" font-size="14.00">|</text>
</g>
<!-- |&#45;&gt;http://connectdigitalstudy.com/ontology#hasStartTime -->
<g id="edge6" class="edge">
<title>|&#45;&gt;http://connectdigitalstudy.com/ontology#hasStartTime</title>
<path fill="none" stroke="black" stroke-dasharray="5,2" d="M1142.81,-19.91C1033.81,-19.78 632.14,-21.64 588,-56 580.87,-61.55 576.86,-70.31 574.63,-78.95"/>
<polygon fill="black" stroke="black" points="571.17,-78.37 572.74,-88.85 578.05,-79.68 571.17,-78.37"/>
<text text-anchor="middle" x="631" y="-59.8" font-family="Times,serif" font-size="14.00">rdfs:domain</text>
</g>
<!-- http://connectdigitalstudy.com/ontology#resultTime -->
<g id="node8" class="node">
<title>http://connectdigitalstudy.com/ontology#resultTime</title>
<polygon fill="lightblue" stroke="black" points="762,-125 708,-125 708,-89 762,-89 762,-125"/>
<text text-anchor="middle" x="735" y="-103.3" font-family="Times,serif" font-size="14.00">|</text>
</g>
<!-- |&#45;&gt;http://connectdigitalstudy.com/ontology#resultTime -->
<g id="edge7" class="edge">
<title>|&#45;&gt;http://connectdigitalstudy.com/ontology#resultTime</title>
<path fill="none" stroke="black" stroke-dasharray="5,2" d="M1142.68,-19.9C1044.47,-19.83 713.47,-22.12 682,-56 671.25,-67.57 683.6,-79.75 699.07,-89.19"/>
<polygon fill="black" stroke="black" points="697.42,-92.29 707.86,-94.14 700.86,-86.18 697.42,-92.29"/>
<text text-anchor="middle" x="725" y="-59.8" font-family="Times,serif" font-size="14.00">rdfs:domain</text>
</g>
<!-- |&#45;&gt;http://connectdigitalstudy.com/ontology#resultTime -->
<g id="edge20" class="edge">
<title>|&#45;&gt;http://connectdigitalstudy.com/ontology#resultTime</title>
<path fill="none" stroke="black" d="M1142.95,-21.34C1071.97,-25.1 881.75,-36.71 822,-56 802.74,-62.22 783.04,-73.09 767.27,-83.12"/>
<polygon fill="black" stroke="black" points="764.92,-80.47 758.47,-88.88 768.75,-86.33 764.92,-80.47"/>
<text text-anchor="middle" x="891.5" y="-59.8" font-family="Times,serif" font-size="14.00">rdfs:subPropertyOf</text>
</g>
<!-- http://connectdigitalstudy.com/ontology#hasStatus -->
<g id="node9" class="node">
<title>http://connectdigitalstudy.com/ontology#hasStatus</title>
<polygon fill="lightblue" stroke="black" points="979,-125 925,-125 925,-89 979,-89 979,-125"/>
<text text-anchor="middle" x="952" y="-103.3" font-family="Times,serif" font-size="14.00">|</text>
</g>
<!-- |&#45;&gt;http://connectdigitalstudy.com/ontology#hasStatus -->
<g id="edge8" class="edge">
<title>|&#45;&gt;http://connectdigitalstudy.com/ontology#hasStatus</title>
<path fill="none" stroke="black" stroke-dasharray="5,2" d="M1142.92,-22.09C1096.15,-26.18 1002.79,-36.56 977,-56 969.34,-61.77 963.87,-70.54 960.04,-79.12"/>
<polygon fill="black" stroke="black" points="956.73,-77.99 956.38,-88.58 963.25,-80.51 956.73,-77.99"/>
<text text-anchor="middle" x="1020" y="-59.8" font-family="Times,serif" font-size="14.00">rdfs:domain</text>
</g>
<!-- http://connectdigitalstudy.com/ontology#hasConfidence -->
<g id="node10" class="node">
<title>http://connectdigitalstudy.com/ontology#hasConfidence</title>
<polygon fill="lightblue" stroke="black" points="1088,-125 1034,-125 1034,-89 1088,-89 1088,-125"/>
<text text-anchor="middle" x="1061" y="-103.3" font-family="Times,serif" font-size="14.00">|</text>
</g>
<!-- |&#45;&gt;http://connectdigitalstudy.com/ontology#hasConfidence -->
<g id="edge9" class="edge">
<title>|&#45;&gt;http://connectdigitalstudy.com/ontology#hasConfidence</title>
<path fill="none" stroke="black" stroke-dasharray="5,2" d="M1142.89,-23.78C1121.88,-28.1 1093.48,-37.17 1076,-56 1070.19,-62.26 1066.63,-70.68 1064.44,-78.83"/>
<polygon fill="black" stroke="black" points="1060.97,-78.31 1062.34,-88.82 1067.82,-79.75 1060.97,-78.31"/>
<text text-anchor="middle" x="1119" y="-59.8" font-family="Times,serif" font-size="14.00">rdfs:domain</text>
</g>
<!-- http://connectdigitalstudy.com/ontology#numericValue -->
<g id="node11" class="node">
<title>http://connectdigitalstudy.com/ontology#numericValue</title>
<polygon fill="lightblue" stroke="black" points="1251,-125 1197,-125 1197,-89 1251,-89 1251,-125"/>
<text text-anchor="middle" x="1224" y="-103.3" font-family="Times,serif" font-size="14.00">|</text>
</g>
<!-- |&#45;&gt;http://connectdigitalstudy.com/ontology#numericValue -->
<g id="edge10" class="edge">
<title>|&#45;&gt;http://connectdigitalstudy.com/ontology#numericValue</title>
<path fill="none" stroke="black" stroke-dasharray="5,2" d="M1166.4,-38.05C1165.28,-48.32 1165.53,-61.07 1171,-71 1175,-78.27 1181.23,-84.29 1188.03,-89.16"/>
<polygon fill="black" stroke="black" points="1186.5,-92.34 1196.82,-94.74 1190.25,-86.43 1186.5,-92.34"/>
<text text-anchor="middle" x="1214" y="-59.8" font-family="Times,serif" font-size="14.00">rdfs:domain</text>
</g>
<!-- |&#45;&gt;http://connectdigitalstudy.com/ontology#numericValue -->
<g id="edge21" class="edge">
<title>|&#45;&gt;http://connectdigitalstudy.com/ontology#numericValue</title>
<path fill="none" stroke="black" d="M1197.04,-23.24C1217.31,-27.24 1243.74,-36.16 1257,-56 1262.46,-64.17 1259.39,-73.12 1253.35,-81.17"/>
<polygon fill="black" stroke="black" points="1250.55,-79.05 1246.52,-88.84 1255.78,-83.7 1250.55,-79.05"/>
<text text-anchor="middle" x="1328.5" y="-59.8" font-family="Times,serif" font-size="14.00">rdfs:subPropertyOf</text>
</g>
<!-- http://connectdigitalstudy.com/ontology#hasLabel -->
<g id="node12" class="node">
<title>http://connectdigitalstudy.com/ontology#hasLabel</title>
<polygon fill="lightblue" stroke="black" points="1468,-125 1414,-125 1414,-89 1468,-89 1468,-125"/>
<text text-anchor="middle" x="1441" y="-103.3" font-family="Times,serif" font-size="14.00">|</text>
</g>
<!-- |&#45;&gt;http://connectdigitalstudy.com/ontology#hasLabel -->
<g id="edge11" class="edge">
<title>|&#45;&gt;http://connectdigitalstudy.com/ontology#hasLabel</title>
<path fill="none" stroke="black" stroke-dasharray="5,2" d="M1197.4,-21.73C1251.06,-25.52 1367.73,-35.87 1402,-56 1411.93,-61.83 1420.25,-71.24 1426.63,-80.34"/>
<polygon fill="black" stroke="black" points="1423.75,-82.34 1432.13,-88.83 1429.63,-78.53 1423.75,-82.34"/>
<text text-anchor="middle" x="1461" y="-59.8" font-family="Times,serif" font-size="14.00">rdfs:domain</text>
</g>
<!-- http://connectdigitalstudy.com/ontology#hasResponseValue -->
<g id="node13" class="node">
<title>http://connectdigitalstudy.com/ontology#hasResponseValue</title>
<polygon fill="lightblue" stroke="black" points="1577,-125 1523,-125 1523,-89 1577,-89 1577,-125"/>
<text text-anchor="middle" x="1550" y="-103.3" font-family="Times,serif" font-size="14.00">|</text>
</g>
<!-- |&#45;&gt;http://connectdigitalstudy.com/ontology#hasResponseValue -->
<g id="edge12" class="edge">
<title>|&#45;&gt;http://connectdigitalstudy.com/ontology#hasResponseValue</title>
<path fill="none" stroke="black" stroke-dasharray="5,2" d="M1197.25,-20.31C1267.73,-21.52 1454.28,-27.41 1508,-56 1518.57,-61.63 1527.57,-71.13 1534.5,-80.34"/>
<polygon fill="black" stroke="black" points="1531.67,-82.41 1540.26,-88.61 1537.41,-78.4 1531.67,-82.41"/>
<text text-anchor="middle" x="1568" y="-59.8" font-family="Times,serif" font-size="14.00">rdfs:domain</text>
</g>
<!-- http://connectdigitalstudy.com/ontology#hasMeasurementType -->
<g id="node14" class="node">
<title>http://connectdigitalstudy.com/ontology#hasMeasurementType</title>
<polygon fill="lightblue" stroke="black" points="1686,-125 1632,-125 1632,-89 1686,-89 1686,-125"/>
<text text-anchor="middle" x="1659" y="-103.3" font-family="Times,serif" font-size="14.00">|</text>
</g>
<!-- |&#45;&gt;http://connectdigitalstudy.com/ontology#hasMeasurementType -->
<g id="edge13" class="edge">
<title>|&#45;&gt;http://connectdigitalstudy.com/ontology#hasMeasurementType</title>
<path fill="none" stroke="black" stroke-dasharray="5,2" d="M1197.2,-19.57C1282.15,-18.64 1541.21,-18.99 1615,-56 1626.08,-61.56 1635.59,-71.23 1642.91,-80.59"/>
<polygon fill="black" stroke="black" points="1640.29,-82.94 1649,-88.98 1645.96,-78.83 1640.29,-82.94"/>
<text text-anchor="middle" x="1676" y="-59.8" font-family="Times,serif" font-size="14.00">rdfs:domain</text>
</g>
<!-- http://connectdigitalstudy.com/ontology#hasStageName -->
<g id="node15" class="node">
<title>http://connectdigitalstudy.com/ontology#hasStageName</title>
<polygon fill="lightblue" stroke="black" points="1795,-125 1741,-125 1741,-89 1795,-89 1795,-125"/>
<text text-anchor="middle" x="1768" y="-103.3" font-family="Times,serif" font-size="14.00">|</text>
</g>
<!-- |&#45;&gt;http://connectdigitalstudy.com/ontology#hasStageName -->
<g id="edge14" class="edge">
<title>|&#45;&gt;http://connectdigitalstudy.com/ontology#hasStageName</title>
<path fill="none" stroke="black" stroke-dasharray="5,2" d="M1197.26,-20.57C1302.05,-22.94 1675.44,-32.94 1723,-56 1734.38,-61.52 1744.18,-71.31 1751.71,-80.78"/>
<polygon fill="black" stroke="black" points="1748.95,-82.94 1757.72,-88.9 1754.58,-78.78 1748.95,-82.94"/>
<text text-anchor="middle" x="1785" y="-59.8" font-family="Times,serif" font-size="14.00">rdfs:domain</text>
</g>
<!-- http://connectdigitalstudy.com/ontology#hasID -->
<g id="node16" class="node">
<title>http://connectdigitalstudy.com/ontology#hasID</title>
<polygon fill="lightblue" stroke="black" points="1904,-125 1850,-125 1850,-89 1904,-89 1904,-125"/>
<text text-anchor="middle" x="1877" y="-103.3" font-family="Times,serif" font-size="14.00">|</text>
</g>
<!-- |&#45;&gt;http://connectdigitalstudy.com/ontology#hasID -->
<g id="edge15" class="edge">
<title>|&#45;&gt;http://connectdigitalstudy.com/ontology#hasID</title>
<path fill="none" stroke="black" stroke-dasharray="5,2" d="M1197.28,-20.26C1314.75,-21.54 1774.11,-28.31 1832,-56 1843.41,-61.46 1853.22,-71.24 1860.74,-80.72"/>
<polygon fill="black" stroke="black" points="1857.98,-82.88 1866.74,-88.85 1863.62,-78.73 1857.98,-82.88"/>
<text text-anchor="middle" x="1894" y="-59.8" font-family="Times,serif" font-size="14.00">rdfs:domain</text>
</g>
<!-- http://qudt.org/schema/qudt/numericValue -->
<g id="node17" class="node">
<title>http://qudt.org/schema/qudt/numericValue</title>
<polygon fill="lightblue" stroke="black" points="2013,-125 1959,-125 1959,-89 2013,-89 2013,-125"/>
<text text-anchor="middle" x="1986" y="-103.3" font-family="Times,serif" font-size="14.00">|</text>
</g>
<!-- |&#45;&gt;http://qudt.org/schema/qudt/numericValue -->
<g id="edge16" class="edge">
<title>|&#45;&gt;http://qudt.org/schema/qudt/numericValue</title>
<path fill="none" stroke="black" stroke-dasharray="5,2" d="M1197.32,-20.03C1326.5,-20.36 1872.73,-23.66 1941,-56 1952.43,-61.41 1962.24,-71.19 1969.76,-80.68"/>
<polygon fill="black" stroke="black" points="1967.01,-82.84 1975.76,-88.82 1972.64,-78.69 1967.01,-82.84"/>
<text text-anchor="middle" x="2003" y="-59.8" font-family="Times,serif" font-size="14.00">rdfs:domain</text>
</g>
<!-- http://connectdigitalstudy.com/ontology#hasDescription -->
<g id="node18" class="node">
<title>http://connectdigitalstudy.com/ontology#hasDescription</title>
<polygon fill="lightblue" stroke="black" points="2122,-125 2068,-125 2068,-89 2122,-89 2122,-125"/>
<text text-anchor="middle" x="2095" y="-103.3" font-family="Times,serif" font-size="14.00">|</text>
</g>
<!-- |&#45;&gt;http://connectdigitalstudy.com/ontology#hasDescription -->
<g id="edge17" class="edge">
<title>|&#45;&gt;http://connectdigitalstudy.com/ontology#hasDescription</title>
<path fill="none" stroke="black" stroke-dasharray="5,2" d="M1197.37,-19.86C1337.51,-19.33 1971.3,-19 2050,-56 2061.44,-61.38 2071.26,-71.15 2078.77,-80.64"/>
<polygon fill="black" stroke="black" points="2076.02,-82.81 2084.77,-88.79 2081.66,-78.66 2076.02,-82.81"/>
<text text-anchor="middle" x="2112" y="-59.8" font-family="Times,serif" font-size="14.00">rdfs:domain</text>
</g>
<!-- http://www.w3.org/ns/sosa/resultTime -->
<g id="node19" class="node">
<title>http://www.w3.org/ns/sosa/resultTime</title>
<polygon fill="lightblue" stroke="black" points="2231,-125 2177,-125 2177,-89 2231,-89 2231,-125"/>
<text text-anchor="middle" x="2204" y="-103.3" font-family="Times,serif" font-size="14.00">|</text>
</g>
<!-- |&#45;&gt;http://www.w3.org/ns/sosa/resultTime -->
<g id="edge18" class="edge">
<title>|&#45;&gt;http://www.w3.org/ns/sosa/resultTime</title>
<path fill="none" stroke="black" stroke-dasharray="5,2" d="M1197.15,-20.39C1351.6,-22.69 2114.25,-35.09 2159,-56 2170.46,-61.35 2180.27,-71.12 2187.79,-80.62"/>
<polygon fill="black" stroke="black" points="2185.04,-82.79 2193.78,-88.77 2190.68,-78.64 2185.04,-82.79"/>
<text text-anchor="middle" x="2221" y="-59.8" font-family="Times,serif" font-size="14.00">rdfs:domain</text>
</g>
<!-- child -->
<g id="node20" class="node">
<title>child</title>
<polygon fill="lightgrey" stroke="black" points="2340,-125 2286,-125 2286,-89 2340,-89 2340,-125"/>
<text text-anchor="middle" x="2313" y="-103.3" font-family="Times,serif" font-size="14.00">child</text>
</g>
<!-- |&#45;&gt;child -->
<g id="edge19" class="edge">
<title>|&#45;&gt;child</title>
<path fill="none" stroke="black" d="M1197.14,-20.29C1361.45,-22.12 2217.98,-32.74 2268,-56 2279.47,-61.33 2289.28,-71.1 2296.79,-80.6"/>
<polygon fill="black" stroke="black" points="2294.05,-82.77 2302.79,-88.75 2299.69,-78.62 2294.05,-82.77"/>
<text text-anchor="middle" x="2356.5" y="-59.8" font-family="Times,serif" font-size="14.00">rdfs:subPropertyOf</text>
</g>
</g>
</svg>
