<?xml version="1.0" encoding="UTF-8" standalone="no"?>
<!DOCTYPE svg PUBLIC "-//W3C//DTD SVG 1.1//EN"
 "http://www.w3.org/Graphics/SVG/1.1/DTD/svg11.dtd">
<!-- Generated by graphviz version 2.43.0 (0)
 -->
<!-- Title: Data Properties Pages: 1 -->
<svg width="3283pt" height="181pt"
 viewBox="0.00 0.00 3283.13 180.74" xmlns="http://www.w3.org/2000/svg" xmlns:xlink="http://www.w3.org/1999/xlink">
<g id="graph0" class="graph" transform="scale(1 1) rotate(0) translate(4 176.74)">
<title>Data Properties</title>
<polygon fill="white" stroke="transparent" points="-4,4 -4,-176.74 3279.13,-176.74 3279.13,4 -4,4"/>
<!-- hasUnit -->
<g id="node1" class="node">
<title>hasUnit</title>
<ellipse fill="lightyellow" stroke="black" cx="51.62" cy="-26.87" rx="51.74" ry="26.74"/>
<text text-anchor="middle" x="51.62" y="-30.67" font-family="Arial" font-size="14.00">has unit</text>
<text text-anchor="middle" x="51.62" y="-15.67" font-family="Arial" font-size="14.00">(string)</text>
</g>
<!-- hasTimestamp -->
<g id="node2" class="node">
<title>hasTimestamp</title>
<ellipse fill="lightyellow" stroke="black" cx="1221.62" cy="-26.87" rx="84.71" ry="26.74"/>
<text text-anchor="middle" x="1221.62" y="-30.67" font-family="Arial" font-size="14.00">has timestamp</text>
<text text-anchor="middle" x="1221.62" y="-15.67" font-family="Arial" font-size="14.00">(dateTime)</text>
</g>
<!-- hasEndTime -->
<g id="node3" class="node">
<title>hasEndTime</title>
<ellipse fill="lightyellow" stroke="black" cx="2180.62" cy="-26.87" rx="75.82" ry="26.74"/>
<text text-anchor="middle" x="2180.62" y="-30.67" font-family="Arial" font-size="14.00">has end time</text>
<text text-anchor="middle" x="2180.62" y="-15.67" font-family="Arial" font-size="14.00">(dateTime)</text>
</g>
<!-- hasValue -->
<g id="node4" class="node">
<title>hasValue</title>
<ellipse fill="lightyellow" stroke="black" cx="219.62" cy="-26.87" rx="58.88" ry="26.74"/>
<text text-anchor="middle" x="219.62" y="-30.67" font-family="Arial" font-size="14.00">has value</text>
<text text-anchor="middle" x="219.62" y="-15.67" font-family="Arial" font-size="14.00">(float)</text>
</g>
<!-- hasStartTime -->
<g id="node5" class="node">
<title>hasStartTime</title>
<ellipse fill="lightyellow" stroke="black" cx="2394.62" cy="-26.87" rx="79.81" ry="26.74"/>
<text text-anchor="middle" x="2394.62" y="-30.67" font-family="Arial" font-size="14.00">has start time</text>
<text text-anchor="middle" x="2394.62" y="-15.67" font-family="Arial" font-size="14.00">(dateTime)</text>
</g>
<!-- resultTime -->
<g id="node6" class="node">
<title>resultTime</title>
<ellipse fill="lightyellow" stroke="black" cx="394.62" cy="-26.87" rx="57.69" ry="18"/>
<text text-anchor="middle" x="394.62" y="-23.17" font-family="Arial" font-size="14.00">resultTime</text>
</g>
<!-- resultTime&#45;&gt;resultTime -->
<g id="edge16" class="edge">
<title>resultTime&#45;&gt;resultTime</title>
<path fill="none" stroke="darkgreen" d="M440.11,-38.01C474.99,-42.1 510.46,-38.39 510.46,-26.87 510.46,-16.47 481.58,-12.44 450.31,-14.75"/>
<polygon fill="darkgreen" stroke="darkgreen" points="449.73,-11.29 440.11,-15.73 450.39,-18.26 449.73,-11.29"/>
<text text-anchor="middle" x="545.46" y="-24.37" font-family="Arial" font-size="10.00">subPropertyOf</text>
</g>
<!-- hasStatus -->
<g id="node7" class="node">
<title>hasStatus</title>
<ellipse fill="lightyellow" stroke="black" cx="1427.62" cy="-26.87" rx="62.87" ry="26.74"/>
<text text-anchor="middle" x="1427.62" y="-30.67" font-family="Arial" font-size="14.00">has status</text>
<text text-anchor="middle" x="1427.62" y="-15.67" font-family="Arial" font-size="14.00">(string)</text>
</g>
<!-- hasConfidence -->
<g id="node8" class="node">
<title>hasConfidence</title>
<ellipse fill="lightyellow" stroke="black" cx="684.62" cy="-26.87" rx="86.03" ry="26.74"/>
<text text-anchor="middle" x="684.62" y="-30.67" font-family="Arial" font-size="14.00">has confidence</text>
<text text-anchor="middle" x="684.62" y="-15.67" font-family="Arial" font-size="14.00">(float)</text>
</g>
<!-- numericValue -->
<g id="node9" class="node">
<title>numericValue</title>
<ellipse fill="lightyellow" stroke="black" cx="2604.62" cy="-26.87" rx="72.29" ry="18"/>
<text text-anchor="middle" x="2604.62" y="-23.17" font-family="Arial" font-size="14.00">numericValue</text>
</g>
<!-- numericValue&#45;&gt;numericValue -->
<g id="edge17" class="edge">
<title>numericValue&#45;&gt;numericValue</title>
<path fill="none" stroke="darkgreen" d="M2660.13,-38.44C2697.84,-41.82 2734.76,-37.96 2734.76,-26.87 2734.76,-16.78 2704.18,-12.68 2670.25,-14.57"/>
<polygon fill="darkgreen" stroke="darkgreen" points="2669.85,-11.09 2660.13,-15.3 2670.35,-18.07 2669.85,-11.09"/>
<text text-anchor="middle" x="2769.76" y="-24.37" font-family="Arial" font-size="10.00">subPropertyOf</text>
</g>
<!-- hasLabel -->
<g id="node10" class="node">
<title>hasLabel</title>
<ellipse fill="lightyellow" stroke="black" cx="1604.62" cy="-26.87" rx="55.72" ry="26.74"/>
<text text-anchor="middle" x="1604.62" y="-30.67" font-family="Arial" font-size="14.00">has label</text>
<text text-anchor="middle" x="1604.62" y="-15.67" font-family="Arial" font-size="14.00">(string)</text>
</g>
<!-- hasResponseValue -->
<g id="node11" class="node">
<title>hasResponseValue</title>
<ellipse fill="lightyellow" stroke="black" cx="2929.62" cy="-26.87" rx="106.55" ry="26.74"/>
<text text-anchor="middle" x="2929.62" y="-30.67" font-family="Arial" font-size="14.00">has response value</text>
<text text-anchor="middle" x="2929.62" y="-15.67" font-family="Arial" font-size="14.00">(string)</text>
</g>
<!-- hasMeasurementType -->
<g id="node12" class="node">
<title>hasMeasurementType</title>
<ellipse fill="lightyellow" stroke="black" cx="953.62" cy="-26.87" rx="125.32" ry="26.74"/>
<text text-anchor="middle" x="953.62" y="-30.67" font-family="Arial" font-size="14.00">has measurement type</text>
<text text-anchor="middle" x="953.62" y="-15.67" font-family="Arial" font-size="14.00">(string)</text>
</g>
<!-- hasStageName -->
<g id="node13" class="node">
<title>hasStageName</title>
<ellipse fill="lightyellow" stroke="black" cx="3184.62" cy="-26.87" rx="90.52" ry="26.74"/>
<text text-anchor="middle" x="3184.62" y="-30.67" font-family="Arial" font-size="14.00">has stage name</text>
<text text-anchor="middle" x="3184.62" y="-15.67" font-family="Arial" font-size="14.00">(string)</text>
</g>
<!-- hasID -->
<g id="node14" class="node">
<title>hasID</title>
<ellipse fill="lightyellow" stroke="black" cx="1766.62" cy="-26.87" rx="48.17" ry="26.74"/>
<text text-anchor="middle" x="1766.62" y="-30.67" font-family="Arial" font-size="14.00">has ID</text>
<text text-anchor="middle" x="1766.62" y="-15.67" font-family="Arial" font-size="14.00">(string)</text>
</g>
<!-- hasDescription -->
<g id="node15" class="node">
<title>hasDescription</title>
<ellipse fill="lightyellow" stroke="black" cx="1959.62" cy="-26.87" rx="86.95" ry="26.74"/>
<text text-anchor="middle" x="1959.62" y="-30.67" font-family="Arial" font-size="14.00">has description</text>
<text text-anchor="middle" x="1959.62" y="-15.67" font-family="Arial" font-size="14.00">(string)</text>
</g>
<!-- Measurement -->
<g id="node16" class="node">
<title>Measurement</title>
<polygon fill="lightblue" stroke="black" points="450.12,-172.74 339.12,-172.74 339.12,-136.74 450.12,-136.74 450.12,-172.74"/>
<text text-anchor="middle" x="394.62" y="-151.04" font-family="Arial" font-size="14.00">Measurement</text>
</g>
<!-- Measurement&#45;&gt;hasUnit -->
<g id="edge1" class="edge">
<title>Measurement&#45;&gt;hasUnit</title>
<path fill="none" stroke="blue" stroke-dasharray="5,2" d="M348,-136.63C283.84,-113.09 168.75,-70.85 102.45,-46.52"/>
<polygon fill="blue" stroke="blue" points="103.62,-43.23 93.03,-43.07 101.21,-49.8 103.62,-43.23"/>
<text text-anchor="middle" x="263.12" y="-92.74" font-family="Arial" font-size="10.00">domain</text>
</g>
<!-- Measurement&#45;&gt;hasValue -->
<g id="edge4" class="edge">
<title>Measurement&#45;&gt;hasValue</title>
<path fill="none" stroke="blue" stroke-dasharray="5,2" d="M370.65,-136.5C341.83,-115.77 293.05,-80.69 258.74,-56.01"/>
<polygon fill="blue" stroke="blue" points="260.52,-52.97 250.35,-49.98 256.43,-58.66 260.52,-52.97"/>
<text text-anchor="middle" x="336.12" y="-92.74" font-family="Arial" font-size="10.00">domain</text>
</g>
<!-- Measurement&#45;&gt;resultTime -->
<g id="edge6" class="edge">
<title>Measurement&#45;&gt;resultTime</title>
<path fill="none" stroke="blue" stroke-dasharray="5,2" d="M394.62,-136.5C394.62,-115.51 394.62,-79.79 394.62,-55.07"/>
<polygon fill="blue" stroke="blue" points="398.12,-54.9 394.62,-44.9 391.12,-54.9 398.12,-54.9"/>
<text text-anchor="middle" x="413.12" y="-92.74" font-family="Arial" font-size="10.00">domain</text>
</g>
<!-- Measurement&#45;&gt;hasConfidence -->
<g id="edge8" class="edge">
<title>Measurement&#45;&gt;hasConfidence</title>
<path fill="none" stroke="blue" stroke-dasharray="5,2" d="M434.03,-136.63C483.69,-115.08 569.43,-77.87 626.59,-53.06"/>
<polygon fill="blue" stroke="blue" points="628.07,-56.23 635.85,-49.04 625.29,-49.81 628.07,-56.23"/>
<text text-anchor="middle" x="558.12" y="-92.74" font-family="Arial" font-size="10.00">domain</text>
</g>
<!-- Measurement&#45;&gt;hasMeasurementType -->
<g id="edge12" class="edge">
<title>Measurement&#45;&gt;hasMeasurementType</title>
<path fill="none" stroke="blue" stroke-dasharray="5,2" d="M450.26,-141.21C545.79,-119.7 742,-75.52 859.24,-49.12"/>
<polygon fill="blue" stroke="blue" points="860.3,-52.47 869.29,-46.86 858.76,-45.64 860.3,-52.47"/>
<text text-anchor="middle" x="693.12" y="-92.74" font-family="Arial" font-size="10.00">domain</text>
</g>
<!-- Thing -->
<g id="node17" class="node">
<title>Thing</title>
<polygon fill="lightblue" stroke="black" points="1632.62,-172.74 1576.62,-172.74 1576.62,-136.74 1632.62,-136.74 1632.62,-172.74"/>
<text text-anchor="middle" x="1604.62" y="-151.04" font-family="Arial" font-size="14.00">Thing</text>
</g>
<!-- Thing&#45;&gt;hasTimestamp -->
<g id="edge2" class="edge">
<title>Thing&#45;&gt;hasTimestamp</title>
<path fill="none" stroke="blue" stroke-dasharray="5,2" d="M1576.46,-144.48C1516.24,-124.7 1373.55,-77.8 1288.6,-49.88"/>
<polygon fill="blue" stroke="blue" points="1289.63,-46.54 1279.04,-46.74 1287.45,-53.19 1289.63,-46.54"/>
<text text-anchor="middle" x="1455.12" y="-92.74" font-family="Arial" font-size="10.00">domain</text>
</g>
<!-- Thing&#45;&gt;hasStatus -->
<g id="edge7" class="edge">
<title>Thing&#45;&gt;hasStatus</title>
<path fill="none" stroke="blue" stroke-dasharray="5,2" d="M1580.38,-136.5C1551.31,-115.83 1502.19,-80.9 1467.5,-56.23"/>
<polygon fill="blue" stroke="blue" points="1469.19,-53.14 1459.02,-50.2 1465.14,-58.85 1469.19,-53.14"/>
<text text-anchor="middle" x="1546.12" y="-92.74" font-family="Arial" font-size="10.00">domain</text>
</g>
<!-- Thing&#45;&gt;hasLabel -->
<g id="edge10" class="edge">
<title>Thing&#45;&gt;hasLabel</title>
<path fill="none" stroke="blue" stroke-dasharray="5,2" d="M1604.62,-136.5C1604.62,-117.97 1604.62,-87.96 1604.62,-64.18"/>
<polygon fill="blue" stroke="blue" points="1608.12,-64.09 1604.62,-54.09 1601.12,-64.09 1608.12,-64.09"/>
<text text-anchor="middle" x="1623.12" y="-92.74" font-family="Arial" font-size="10.00">domain</text>
</g>
<!-- Thing&#45;&gt;hasID -->
<g id="edge14" class="edge">
<title>Thing&#45;&gt;hasID</title>
<path fill="none" stroke="blue" stroke-dasharray="5,2" d="M1626.8,-136.5C1653.69,-115.61 1699.34,-80.15 1731.13,-55.44"/>
<polygon fill="blue" stroke="blue" points="1733.55,-58 1739.3,-49.1 1729.26,-52.47 1733.55,-58"/>
<text text-anchor="middle" x="1704.12" y="-92.74" font-family="Arial" font-size="10.00">domain</text>
</g>
<!-- Thing&#45;&gt;hasDescription -->
<g id="edge15" class="edge">
<title>Thing&#45;&gt;hasDescription</title>
<path fill="none" stroke="blue" stroke-dasharray="5,2" d="M1632.77,-143.76C1688.92,-123.85 1816.12,-78.75 1894.24,-51.05"/>
<polygon fill="blue" stroke="blue" points="1895.73,-54.24 1903.99,-47.59 1893.39,-47.64 1895.73,-54.24"/>
<text text-anchor="middle" x="1801.12" y="-92.74" font-family="Arial" font-size="10.00">domain</text>
</g>
<!-- ObservationContext -->
<g id="node18" class="node">
<title>ObservationContext</title>
<polygon fill="lightblue" stroke="black" points="2367.62,-172.74 2207.62,-172.74 2207.62,-136.74 2367.62,-136.74 2367.62,-172.74"/>
<text text-anchor="middle" x="2287.62" y="-151.04" font-family="Arial" font-size="14.00">Observation Context</text>
</g>
<!-- ObservationContext&#45;&gt;hasEndTime -->
<g id="edge3" class="edge">
<title>ObservationContext&#45;&gt;hasEndTime</title>
<path fill="none" stroke="blue" stroke-dasharray="5,2" d="M2272.97,-136.5C2256.41,-117.02 2229.08,-84.88 2208.44,-60.59"/>
<polygon fill="blue" stroke="blue" points="2210.86,-58.04 2201.72,-52.69 2205.53,-62.58 2210.86,-58.04"/>
<text text-anchor="middle" x="2259.12" y="-92.74" font-family="Arial" font-size="10.00">domain</text>
</g>
<!-- ObservationContext&#45;&gt;hasStartTime -->
<g id="edge5" class="edge">
<title>ObservationContext&#45;&gt;hasStartTime</title>
<path fill="none" stroke="blue" stroke-dasharray="5,2" d="M2302.27,-136.5C2318.73,-117.15 2345.82,-85.27 2366.42,-61.05"/>
<polygon fill="blue" stroke="blue" points="2369.32,-63.04 2373.13,-53.15 2363.98,-58.5 2369.32,-63.04"/>
<text text-anchor="middle" x="2360.12" y="-92.74" font-family="Arial" font-size="10.00">domain</text>
</g>
<!-- QuantityValue -->
<g id="node19" class="node">
<title>QuantityValue</title>
<polygon fill="lightblue" stroke="black" points="2661.62,-172.74 2547.62,-172.74 2547.62,-136.74 2661.62,-136.74 2661.62,-172.74"/>
<text text-anchor="middle" x="2604.62" y="-151.04" font-family="Arial" font-size="14.00">QuantityValue</text>
</g>
<!-- QuantityValue&#45;&gt;numericValue -->
<g id="edge9" class="edge">
<title>QuantityValue&#45;&gt;numericValue</title>
<path fill="none" stroke="blue" stroke-dasharray="5,2" d="M2604.62,-136.5C2604.62,-115.51 2604.62,-79.79 2604.62,-55.07"/>
<polygon fill="blue" stroke="blue" points="2608.12,-54.9 2604.62,-44.9 2601.12,-54.9 2608.12,-54.9"/>
<text text-anchor="middle" x="2623.12" y="-92.74" font-family="Arial" font-size="10.00">domain</text>
</g>
<!-- ResponseItem -->
<g id="node20" class="node">
<title>ResponseItem</title>
<polygon fill="lightblue" stroke="black" points="2989.12,-172.74 2870.12,-172.74 2870.12,-136.74 2989.12,-136.74 2989.12,-172.74"/>
<text text-anchor="middle" x="2929.62" y="-151.04" font-family="Arial" font-size="14.00">Response Item</text>
</g>
<!-- ResponseItem&#45;&gt;hasResponseValue -->
<g id="edge11" class="edge">
<title>ResponseItem&#45;&gt;hasResponseValue</title>
<path fill="none" stroke="blue" stroke-dasharray="5,2" d="M2929.62,-136.5C2929.62,-117.97 2929.62,-87.96 2929.62,-64.18"/>
<polygon fill="blue" stroke="blue" points="2933.12,-64.09 2929.62,-54.09 2926.12,-64.09 2933.12,-64.09"/>
<text text-anchor="middle" x="2948.12" y="-92.74" font-family="Arial" font-size="10.00">domain</text>
</g>
<!-- SleepStage -->
<g id="node21" class="node">
<title>SleepStage</title>
<polygon fill="lightblue" stroke="black" points="3232.12,-172.74 3137.12,-172.74 3137.12,-136.74 3232.12,-136.74 3232.12,-172.74"/>
<text text-anchor="middle" x="3184.62" y="-151.04" font-family="Arial" font-size="14.00">SleepStage</text>
</g>
<!-- SleepStage&#45;&gt;hasStageName -->
<g id="edge13" class="edge">
<title>SleepStage&#45;&gt;hasStageName</title>
<path fill="none" stroke="blue" stroke-dasharray="5,2" d="M3184.62,-136.5C3184.62,-117.97 3184.62,-87.96 3184.62,-64.18"/>
<polygon fill="blue" stroke="blue" points="3188.12,-64.09 3184.62,-54.09 3181.12,-64.09 3188.12,-64.09"/>
<text text-anchor="middle" x="3203.12" y="-92.74" font-family="Arial" font-size="10.00">domain</text>
</g>
</g>
</svg>
