<?xml version="1.0" encoding="UTF-8" standalone="no"?>
<!DOCTYPE svg PUBLIC "-//W3C//DTD SVG 1.1//EN"
 "http://www.w3.org/Graphics/SVG/1.1/DTD/svg11.dtd">
<!-- Generated by graphviz version 2.43.0 (0)
 -->
<!-- Title: Data Properties Pages: 1 -->
<svg width="916pt" height="630pt"
 viewBox="0.00 0.00 915.76 630.00" xmlns="http://www.w3.org/2000/svg" xmlns:xlink="http://www.w3.org/1999/xlink">
<g id="graph0" class="graph" transform="scale(1 1) rotate(0) translate(4 626)">
<title>Data Properties</title>
<polygon fill="white" stroke="transparent" points="-4,4 -4,-626 911.76,-626 911.76,4 -4,4"/>
<!-- hasUnit -->
<g id="node1" class="node">
<title>hasUnit</title>
<ellipse fill="lightyellow" stroke="black" cx="384.9" cy="-160.63" rx="51.74" ry="26.74"/>
<text text-anchor="middle" x="384.9" y="-164.43" font-family="Arial" font-size="14.00">has unit</text>
<text text-anchor="middle" x="384.9" y="-149.43" font-family="Arial" font-size="14.00">(string)</text>
</g>
<!-- hasTimestamp -->
<g id="node2" class="node">
<title>hasTimestamp</title>
<ellipse fill="lightyellow" stroke="black" cx="654.57" cy="-448.75" rx="84.71" ry="26.74"/>
<text text-anchor="middle" x="654.57" y="-452.55" font-family="Arial" font-size="14.00">has timestamp</text>
<text text-anchor="middle" x="654.57" y="-437.55" font-family="Arial" font-size="14.00">(dateTime)</text>
</g>
<!-- hasEndTime -->
<g id="node3" class="node">
<title>hasEndTime</title>
<ellipse fill="lightyellow" stroke="black" cx="832.1" cy="-26.87" rx="75.82" ry="26.74"/>
<text text-anchor="middle" x="832.1" y="-30.67" font-family="Arial" font-size="14.00">has end time</text>
<text text-anchor="middle" x="832.1" y="-15.67" font-family="Arial" font-size="14.00">(dateTime)</text>
</g>
<!-- hasValue -->
<g id="node4" class="node">
<title>hasValue</title>
<ellipse fill="lightyellow" stroke="black" cx="332.05" cy="-337.18" rx="58.88" ry="26.74"/>
<text text-anchor="middle" x="332.05" y="-340.98" font-family="Arial" font-size="14.00">has value</text>
<text text-anchor="middle" x="332.05" y="-325.98" font-family="Arial" font-size="14.00">(float)</text>
</g>
<!-- hasStartTime -->
<g id="node5" class="node">
<title>hasStartTime</title>
<ellipse fill="lightyellow" stroke="black" cx="499.9" cy="-26.87" rx="79.81" ry="26.74"/>
<text text-anchor="middle" x="499.9" y="-30.67" font-family="Arial" font-size="14.00">has start time</text>
<text text-anchor="middle" x="499.9" y="-15.67" font-family="Arial" font-size="14.00">(dateTime)</text>
</g>
<!-- resultTime -->
<g id="node6" class="node">
<title>resultTime</title>
<ellipse fill="lightyellow" stroke="black" cx="145.84" cy="-340.9" rx="57.69" ry="18"/>
<text text-anchor="middle" x="145.84" y="-337.2" font-family="Arial" font-size="14.00">resultTime</text>
</g>
<!-- resultTime&#45;&gt;resultTime -->
<g id="edge16" class="edge">
<title>resultTime&#45;&gt;resultTime</title>
<path fill="none" stroke="darkgreen" d="M172.93,-356.96C217.71,-375.72 275.69,-370.36 275.69,-340.9 275.69,-313.51 225.58,-306.96 182.55,-321.25"/>
<polygon fill="darkgreen" stroke="darkgreen" points="181.07,-318.07 172.93,-324.85 183.52,-324.62 181.07,-318.07"/>
<text text-anchor="middle" x="310.69" y="-338.4" font-family="Arial" font-size="10.00">subPropertyOf</text>
</g>
<!-- hasStatus -->
<g id="node7" class="node">
<title>hasStatus</title>
<ellipse fill="lightyellow" stroke="black" cx="611.66" cy="-592.1" rx="62.87" ry="26.74"/>
<text text-anchor="middle" x="611.66" y="-595.9" font-family="Arial" font-size="14.00">has status</text>
<text text-anchor="middle" x="611.66" y="-580.9" font-family="Arial" font-size="14.00">(string)</text>
</g>
<!-- hasConfidence -->
<g id="node8" class="node">
<title>hasConfidence</title>
<ellipse fill="lightyellow" stroke="black" cx="86.27" cy="-165.2" rx="86.03" ry="26.74"/>
<text text-anchor="middle" x="86.27" y="-169" font-family="Arial" font-size="14.00">has confidence</text>
<text text-anchor="middle" x="86.27" y="-154" font-family="Arial" font-size="14.00">(float)</text>
</g>
<!-- numericValue -->
<g id="node9" class="node">
<title>numericValue</title>
<ellipse fill="lightyellow" stroke="black" cx="558.16" cy="-230" rx="72.29" ry="18"/>
<text text-anchor="middle" x="558.16" y="-226.3" font-family="Arial" font-size="14.00">numericValue</text>
</g>
<!-- numericValue&#45;&gt;numericValue -->
<g id="edge17" class="edge">
<title>numericValue&#45;&gt;numericValue</title>
<path fill="none" stroke="darkgreen" d="M588.94,-246.32C638.56,-264.76 702.3,-259.32 702.3,-230 702.3,-202.57 646.51,-196.04 598.69,-210.41"/>
<polygon fill="darkgreen" stroke="darkgreen" points="597.31,-207.18 588.94,-213.68 599.54,-213.82 597.31,-207.18"/>
<text text-anchor="middle" x="737.3" y="-227.5" font-family="Arial" font-size="10.00">subPropertyOf</text>
</g>
<!-- hasLabel -->
<g id="node10" class="node">
<title>hasLabel</title>
<ellipse fill="lightyellow" stroke="black" cx="460.46" cy="-595.13" rx="55.72" ry="26.74"/>
<text text-anchor="middle" x="460.46" y="-598.93" font-family="Arial" font-size="14.00">has label</text>
<text text-anchor="middle" x="460.46" y="-583.93" font-family="Arial" font-size="14.00">(string)</text>
</g>
<!-- hasResponseValue -->
<g id="node11" class="node">
<title>hasResponseValue</title>
<ellipse fill="lightyellow" stroke="black" cx="709.79" cy="-138.87" rx="106.55" ry="26.74"/>
<text text-anchor="middle" x="709.79" y="-142.67" font-family="Arial" font-size="14.00">has response value</text>
<text text-anchor="middle" x="709.79" y="-127.67" font-family="Arial" font-size="14.00">(string)</text>
</g>
<!-- hasMeasurementType -->
<g id="node12" class="node">
<title>hasMeasurementType</title>
<ellipse fill="lightyellow" stroke="black" cx="234.48" cy="-54.87" rx="125.32" ry="26.74"/>
<text text-anchor="middle" x="234.48" y="-58.67" font-family="Arial" font-size="14.00">has measurement type</text>
<text text-anchor="middle" x="234.48" y="-43.67" font-family="Arial" font-size="14.00">(string)</text>
</g>
<!-- hasStageName -->
<g id="node13" class="node">
<title>hasStageName</title>
<ellipse fill="lightyellow" stroke="black" cx="221.52" cy="-446.87" rx="90.52" ry="26.74"/>
<text text-anchor="middle" x="221.52" y="-450.67" font-family="Arial" font-size="14.00">has stage name</text>
<text text-anchor="middle" x="221.52" y="-435.67" font-family="Arial" font-size="14.00">(string)</text>
</g>
<!-- hasID -->
<g id="node14" class="node">
<title>hasID</title>
<ellipse fill="lightyellow" stroke="black" cx="412.08" cy="-452.46" rx="48.17" ry="26.74"/>
<text text-anchor="middle" x="412.08" y="-456.26" font-family="Arial" font-size="14.00">has ID</text>
<text text-anchor="middle" x="412.08" y="-441.26" font-family="Arial" font-size="14.00">(string)</text>
</g>
<!-- hasDescription -->
<g id="node15" class="node">
<title>hasDescription</title>
<ellipse fill="lightyellow" stroke="black" cx="532.43" cy="-362.87" rx="86.95" ry="26.74"/>
<text text-anchor="middle" x="532.43" y="-366.67" font-family="Arial" font-size="14.00">has description</text>
<text text-anchor="middle" x="532.43" y="-351.67" font-family="Arial" font-size="14.00">(string)</text>
</g>
<!-- Measurement -->
<g id="node16" class="node">
<title>Measurement</title>
<polygon fill="lightblue" stroke="black" points="291.55,-230.65 180.55,-230.65 180.55,-194.65 291.55,-194.65 291.55,-230.65"/>
<text text-anchor="middle" x="236.05" y="-208.95" font-family="Arial" font-size="14.00">Measurement</text>
</g>
<!-- Measurement&#45;&gt;hasUnit -->
<g id="edge1" class="edge">
<title>Measurement&#45;&gt;hasUnit</title>
<path fill="none" stroke="blue" stroke-dasharray="5,2" d="M287.69,-194.61C302.02,-189.6 317.59,-184.15 331.99,-179.12"/>
<polygon fill="blue" stroke="blue" points="333.46,-182.32 341.74,-175.71 331.15,-175.71 333.46,-182.32"/>
<text text-anchor="middle" x="296.22" y="-177.16" font-family="Arial" font-size="10.00">domain</text>
</g>
<!-- Measurement&#45;&gt;hasValue -->
<g id="edge4" class="edge">
<title>Measurement&#45;&gt;hasValue</title>
<path fill="none" stroke="blue" stroke-dasharray="5,2" d="M250.01,-230.76C264.71,-249.83 288.18,-280.28 306.27,-303.73"/>
<polygon fill="blue" stroke="blue" points="303.54,-305.92 312.41,-311.71 309.08,-301.65 303.54,-305.92"/>
<text text-anchor="middle" x="262.59" y="-274.08" font-family="Arial" font-size="10.00">domain</text>
</g>
<!-- Measurement&#45;&gt;resultTime -->
<g id="edge6" class="edge">
<title>Measurement&#45;&gt;resultTime</title>
<path fill="none" stroke="blue" stroke-dasharray="5,2" d="M223.32,-230.76C207.85,-252.75 181.65,-289.99 164.05,-315.01"/>
<polygon fill="blue" stroke="blue" points="161.11,-313.11 158.22,-323.3 166.84,-317.14 161.11,-313.11"/>
<text text-anchor="middle" x="172.22" y="-280.1" font-family="Arial" font-size="10.00">domain</text>
</g>
<!-- Measurement&#45;&gt;hasConfidence -->
<g id="edge8" class="edge">
<title>Measurement&#45;&gt;hasConfidence</title>
<path fill="none" stroke="blue" stroke-dasharray="5,2" d="M180.28,-194.98C172.53,-192.53 164.49,-189.98 156.52,-187.46"/>
<polygon fill="blue" stroke="blue" points="157.45,-184.08 146.86,-184.4 155.34,-190.75 157.45,-184.08"/>
<text text-anchor="middle" x="182.13" y="-181.71" font-family="Arial" font-size="10.00">domain</text>
</g>
<!-- Measurement&#45;&gt;hasMeasurementType -->
<g id="edge12" class="edge">
<title>Measurement&#45;&gt;hasMeasurementType</title>
<path fill="none" stroke="blue" stroke-dasharray="5,2" d="M235.87,-194.55C235.62,-169.76 235.17,-124.62 234.85,-92.37"/>
<polygon fill="blue" stroke="blue" points="238.35,-91.93 234.75,-81.97 231.35,-92 238.35,-91.93"/>
<text text-anchor="middle" x="216.81" y="-141.44" font-family="Arial" font-size="10.00">domain</text>
</g>
<!-- Thing -->
<g id="node17" class="node">
<title>Thing</title>
<polygon fill="lightblue" stroke="black" points="561.7,-508.99 505.7,-508.99 505.7,-472.99 561.7,-472.99 561.7,-508.99"/>
<text text-anchor="middle" x="533.7" y="-487.29" font-family="Arial" font-size="14.00">Thing</text>
</g>
<!-- Thing&#45;&gt;hasTimestamp -->
<g id="edge2" class="edge">
<title>Thing&#45;&gt;hasTimestamp</title>
<path fill="none" stroke="blue" stroke-dasharray="5,2" d="M561.74,-481.19C569.6,-478.44 578.51,-475.33 587.62,-472.15"/>
<polygon fill="blue" stroke="blue" points="588.86,-475.42 597.15,-468.82 586.55,-468.81 588.86,-475.42"/>
<text text-anchor="middle" x="598.08" y="-477.95" font-family="Arial" font-size="10.00">domain</text>
</g>
<!-- Thing&#45;&gt;hasStatus -->
<g id="edge7" class="edge">
<title>Thing&#45;&gt;hasStatus</title>
<path fill="none" stroke="blue" stroke-dasharray="5,2" d="M547.64,-509.07C558.08,-522.61 572.68,-541.55 585.3,-557.92"/>
<polygon fill="blue" stroke="blue" points="582.81,-560.42 591.69,-566.2 588.36,-556.15 582.81,-560.42"/>
<text text-anchor="middle" x="551.16" y="-540.63" font-family="Arial" font-size="10.00">domain</text>
</g>
<!-- Thing&#45;&gt;hasLabel -->
<g id="edge10" class="edge">
<title>Thing&#45;&gt;hasLabel</title>
<path fill="none" stroke="blue" stroke-dasharray="5,2" d="M520.95,-509.13C510.87,-523.45 496.53,-543.84 484.34,-561.17"/>
<polygon fill="blue" stroke="blue" points="481.45,-559.2 478.56,-569.39 487.17,-563.23 481.45,-559.2"/>
<text text-anchor="middle" x="481.03" y="-542.58" font-family="Arial" font-size="10.00">domain</text>
</g>
<!-- Thing&#45;&gt;hasID -->
<g id="edge14" class="edge">
<title>Thing&#45;&gt;hasID</title>
<path fill="none" stroke="blue" stroke-dasharray="5,2" d="M505.5,-482.05C493.07,-478.11 478.06,-473.36 463.74,-468.82"/>
<polygon fill="blue" stroke="blue" points="464.57,-465.41 453.98,-465.73 462.46,-472.09 464.57,-465.41"/>
<text text-anchor="middle" x="479.63" y="-465.86" font-family="Arial" font-size="10.00">domain</text>
</g>
<!-- Thing&#45;&gt;hasDescription -->
<g id="edge15" class="edge">
<title>Thing&#45;&gt;hasDescription</title>
<path fill="none" stroke="blue" stroke-dasharray="5,2" d="M533.52,-472.9C533.34,-454.04 533.04,-423.93 532.8,-399.97"/>
<polygon fill="blue" stroke="blue" points="536.3,-399.76 532.7,-389.79 529.3,-399.83 536.3,-399.76"/>
<text text-anchor="middle" x="514.61" y="-434.66" font-family="Arial" font-size="10.00">domain</text>
</g>
<!-- ObservationContext -->
<g id="node18" class="node">
<title>ObservationContext</title>
<polygon fill="lightblue" stroke="black" points="747.82,-44.87 587.82,-44.87 587.82,-8.87 747.82,-8.87 747.82,-44.87"/>
<text text-anchor="middle" x="667.82" y="-23.17" font-family="Arial" font-size="14.00">Observation Context</text>
</g>
<!-- ObservationContext&#45;&gt;hasEndTime -->
<g id="edge3" class="edge">
<title>ObservationContext&#45;&gt;hasEndTime</title>
<path fill="none" stroke="blue" stroke-dasharray="5,2" d="M748.03,-26.87C748.12,-26.87 748.21,-26.87 748.29,-26.87"/>
<polygon fill="blue" stroke="blue" points="746.34,-30.37 756.34,-26.87 746.34,-23.37 746.34,-30.37"/>
<text text-anchor="middle" x="748.26" y="-18.87" font-family="Arial" font-size="10.00">domain</text>
</g>
<!-- ObservationContext&#45;&gt;hasStartTime -->
<g id="edge5" class="edge">
<title>ObservationContext&#45;&gt;hasStartTime</title>
<path fill="none" stroke="blue" stroke-dasharray="5,2" d="M587.8,-26.87C587.63,-26.87 587.47,-26.87 587.31,-26.87"/>
<polygon fill="blue" stroke="blue" points="589.94,-23.37 579.94,-26.87 589.94,-30.37 589.94,-23.37"/>
<text text-anchor="middle" x="568.87" y="-29.87" font-family="Arial" font-size="10.00">domain</text>
</g>
<!-- QuantityValue -->
<g id="node19" class="node">
<title>QuantityValue</title>
<polygon fill="lightblue" stroke="black" points="478,-248 364,-248 364,-212 478,-212 478,-248"/>
<text text-anchor="middle" x="421" y="-226.3" font-family="Arial" font-size="14.00">QuantityValue</text>
</g>
<!-- QuantityValue&#45;&gt;numericValue -->
<g id="edge9" class="edge">
<title>QuantityValue&#45;&gt;numericValue</title>
<path fill="none" stroke="blue" stroke-dasharray="5,2" d="M478.37,-230C478.53,-230 478.68,-230 478.84,-230"/>
<polygon fill="blue" stroke="blue" points="475.91,-233.5 485.91,-230 475.91,-226.5 475.91,-233.5"/>
<text text-anchor="middle" x="497.28" y="-233" font-family="Arial" font-size="10.00">domain</text>
</g>
<!-- ResponseItem -->
<g id="node20" class="node">
<title>ResponseItem</title>
<polygon fill="lightblue" stroke="black" points="595,-156.87 476,-156.87 476,-120.87 595,-120.87 595,-156.87"/>
<text text-anchor="middle" x="535.5" y="-135.17" font-family="Arial" font-size="14.00">Response Item</text>
</g>
<!-- ResponseItem&#45;&gt;hasResponseValue -->
<g id="edge11" class="edge">
<title>ResponseItem&#45;&gt;hasResponseValue</title>
<path fill="none" stroke="blue" stroke-dasharray="5,2" d="M595.48,-138.87C595.63,-138.87 595.79,-138.87 595.94,-138.87"/>
<polygon fill="blue" stroke="blue" points="592.95,-142.37 602.95,-138.87 592.95,-135.37 592.95,-142.37"/>
<text text-anchor="middle" x="595.89" y="-130.87" font-family="Arial" font-size="10.00">domain</text>
</g>
<!-- SleepStage -->
<g id="node21" class="node">
<title>SleepStage</title>
<polygon fill="lightblue" stroke="black" points="123,-464.87 28,-464.87 28,-428.87 123,-428.87 123,-464.87"/>
<text text-anchor="middle" x="75.5" y="-443.17" font-family="Arial" font-size="14.00">SleepStage</text>
</g>
<!-- SleepStage&#45;&gt;hasStageName -->
<g id="edge13" class="edge">
<title>SleepStage&#45;&gt;hasStageName</title>
<path fill="none" stroke="blue" stroke-dasharray="5,2" d="M123.31,-446.87C123.47,-446.87 123.63,-446.87 123.78,-446.87"/>
<polygon fill="blue" stroke="blue" points="120.92,-450.37 130.92,-446.87 120.92,-443.37 120.92,-450.37"/>
<text text-anchor="middle" x="123.72" y="-438.87" font-family="Arial" font-size="10.00">domain</text>
</g>
</g>
</svg>
