<?xml version="1.0" encoding="UTF-8" standalone="no"?>
<!DOCTYPE svg PUBLIC "-//W3C//DTD SVG 1.1//EN"
 "http://www.w3.org/Graphics/SVG/1.1/DTD/svg11.dtd">
<!-- Generated by graphviz version 2.43.0 (0)
 -->
<!-- Title: Data Properties Pages: 1 -->
<svg width="1326pt" height="741pt"
 viewBox="0.00 0.00 1326.00 741.38" xmlns="http://www.w3.org/2000/svg" xmlns:xlink="http://www.w3.org/1999/xlink">
<g id="graph0" class="graph" transform="scale(1 1) rotate(0) translate(4 737.38)">
<title>Data Properties</title>
<polygon fill="white" stroke="transparent" points="-4,4 -4,-737.38 1322,-737.38 1322,4 -4,4"/>
<!-- hasUnit -->
<g id="node1" class="node">
<title>hasUnit</title>
<ellipse fill="lightyellow" stroke="black" cx="51.62" cy="-347.43" rx="51.74" ry="26.74"/>
<text text-anchor="middle" x="51.62" y="-351.23" font-family="Arial" font-size="14.00">has unit</text>
<text text-anchor="middle" x="51.62" y="-336.23" font-family="Arial" font-size="14.00">(string)</text>
</g>
<!-- hasTimestamp -->
<g id="node2" class="node">
<title>hasTimestamp</title>
<ellipse fill="lightyellow" stroke="black" cx="670.49" cy="-566.43" rx="84.71" ry="26.74"/>
<text text-anchor="middle" x="670.49" y="-570.23" font-family="Arial" font-size="14.00">has timestamp</text>
<text text-anchor="middle" x="670.49" y="-555.23" font-family="Arial" font-size="14.00">(dateTime)</text>
</g>
<!-- hasEndTime -->
<g id="node3" class="node">
<title>hasEndTime</title>
<ellipse fill="lightyellow" stroke="black" cx="778.53" cy="-270.43" rx="75.82" ry="26.74"/>
<text text-anchor="middle" x="778.53" y="-274.23" font-family="Arial" font-size="14.00">has end time</text>
<text text-anchor="middle" x="778.53" y="-259.23" font-family="Arial" font-size="14.00">(dateTime)</text>
</g>
<!-- hasValue -->
<g id="node4" class="node">
<title>hasValue</title>
<ellipse fill="lightyellow" stroke="black" cx="381.56" cy="-161.89" rx="58.88" ry="26.74"/>
<text text-anchor="middle" x="381.56" y="-165.69" font-family="Arial" font-size="14.00">has value</text>
<text text-anchor="middle" x="381.56" y="-150.69" font-family="Arial" font-size="14.00">(float)</text>
</g>
<!-- hasStartTime -->
<g id="node5" class="node">
<title>hasStartTime</title>
<ellipse fill="lightyellow" stroke="black" cx="1238.1" cy="-270.43" rx="79.81" ry="26.74"/>
<text text-anchor="middle" x="1238.1" y="-274.23" font-family="Arial" font-size="14.00">has start time</text>
<text text-anchor="middle" x="1238.1" y="-259.23" font-family="Arial" font-size="14.00">(dateTime)</text>
</g>
<!-- resultTime -->
<g id="node6" class="node">
<title>resultTime</title>
<ellipse fill="lightyellow" stroke="black" cx="703.32" cy="-144.31" rx="57.69" ry="18"/>
<text text-anchor="middle" x="703.32" y="-140.61" font-family="Arial" font-size="14.00">resultTime</text>
</g>
<!-- resultTime&#45;&gt;resultTime -->
<g id="edge16" class="edge">
<title>resultTime&#45;&gt;resultTime</title>
<path fill="none" stroke="darkgreen" d="M730.41,-160.36C775.19,-179.12 833.16,-173.77 833.16,-144.31 833.16,-116.92 783.06,-110.37 740.03,-124.66"/>
<polygon fill="darkgreen" stroke="darkgreen" points="738.55,-121.47 730.41,-128.26 741,-128.03 738.55,-121.47"/>
<text text-anchor="middle" x="868.16" y="-141.81" font-family="Arial" font-size="10.00">subPropertyOf</text>
</g>
<!-- hasStatus -->
<g id="node7" class="node">
<title>hasStatus</title>
<ellipse fill="lightyellow" stroke="black" cx="977.45" cy="-426.35" rx="62.87" ry="26.74"/>
<text text-anchor="middle" x="977.45" y="-430.15" font-family="Arial" font-size="14.00">has status</text>
<text text-anchor="middle" x="977.45" y="-415.15" font-family="Arial" font-size="14.00">(string)</text>
</g>
<!-- hasConfidence -->
<g id="node8" class="node">
<title>hasConfidence</title>
<ellipse fill="lightyellow" stroke="black" cx="767.35" cy="-481.27" rx="86.03" ry="26.74"/>
<text text-anchor="middle" x="767.35" y="-485.07" font-family="Arial" font-size="14.00">has confidence</text>
<text text-anchor="middle" x="767.35" y="-470.07" font-family="Arial" font-size="14.00">(float)</text>
</g>
<!-- numericValue -->
<g id="node9" class="node">
<title>numericValue</title>
<ellipse fill="lightyellow" stroke="black" cx="618.43" cy="-27.43" rx="72.29" ry="18"/>
<text text-anchor="middle" x="618.43" y="-23.73" font-family="Arial" font-size="14.00">numericValue</text>
</g>
<!-- numericValue&#45;&gt;numericValue -->
<g id="edge17" class="edge">
<title>numericValue&#45;&gt;numericValue</title>
<path fill="none" stroke="darkgreen" d="M649.22,-43.75C698.83,-62.19 762.58,-56.75 762.58,-27.43 762.58,0 706.79,6.53 658.97,-7.84"/>
<polygon fill="darkgreen" stroke="darkgreen" points="657.59,-4.61 649.22,-11.11 659.82,-11.25 657.59,-4.61"/>
<text text-anchor="middle" x="797.58" y="-24.93" font-family="Arial" font-size="10.00">subPropertyOf</text>
</g>
<!-- hasLabel -->
<g id="node10" class="node">
<title>hasLabel</title>
<ellipse fill="lightyellow" stroke="black" cx="1235.85" cy="-436.61" rx="55.72" ry="26.74"/>
<text text-anchor="middle" x="1235.85" y="-440.41" font-family="Arial" font-size="14.00">has label</text>
<text text-anchor="middle" x="1235.85" y="-425.41" font-family="Arial" font-size="14.00">(string)</text>
</g>
<!-- hasResponseValue -->
<g id="node11" class="node">
<title>hasResponseValue</title>
<ellipse fill="lightyellow" stroke="black" cx="418.93" cy="-660.43" rx="106.55" ry="26.74"/>
<text text-anchor="middle" x="418.93" y="-664.23" font-family="Arial" font-size="14.00">has response value</text>
<text text-anchor="middle" x="418.93" y="-649.23" font-family="Arial" font-size="14.00">(string)</text>
</g>
<!-- hasMeasurementType -->
<g id="node12" class="node">
<title>hasMeasurementType</title>
<ellipse fill="lightyellow" stroke="black" cx="381.56" cy="-532.97" rx="125.32" ry="26.74"/>
<text text-anchor="middle" x="381.56" y="-536.77" font-family="Arial" font-size="14.00">has measurement type</text>
<text text-anchor="middle" x="381.56" y="-521.77" font-family="Arial" font-size="14.00">(string)</text>
</g>
<!-- hasStageName -->
<g id="node13" class="node">
<title>hasStageName</title>
<ellipse fill="lightyellow" stroke="black" cx="207.93" cy="-75.43" rx="90.52" ry="26.74"/>
<text text-anchor="middle" x="207.93" y="-79.23" font-family="Arial" font-size="14.00">has stage name</text>
<text text-anchor="middle" x="207.93" y="-64.23" font-family="Arial" font-size="14.00">(string)</text>
</g>
<!-- hasID -->
<g id="node14" class="node">
<title>hasID</title>
<ellipse fill="lightyellow" stroke="black" cx="1246.62" cy="-684.06" rx="48.17" ry="26.74"/>
<text text-anchor="middle" x="1246.62" y="-687.86" font-family="Arial" font-size="14.00">has ID</text>
<text text-anchor="middle" x="1246.62" y="-672.86" font-family="Arial" font-size="14.00">(string)</text>
</g>
<!-- hasDescription -->
<g id="node15" class="node">
<title>hasDescription</title>
<ellipse fill="lightyellow" stroke="black" cx="977.45" cy="-706.51" rx="86.95" ry="26.74"/>
<text text-anchor="middle" x="977.45" y="-710.31" font-family="Arial" font-size="14.00">has description</text>
<text text-anchor="middle" x="977.45" y="-695.31" font-family="Arial" font-size="14.00">(string)</text>
</g>
<!-- Measurement -->
<g id="node16" class="node">
<title>Measurement</title>
<polygon fill="lightblue" stroke="black" points="608.55,-365.43 497.55,-365.43 497.55,-329.43 608.55,-329.43 608.55,-365.43"/>
<text text-anchor="middle" x="553.05" y="-343.73" font-family="Arial" font-size="14.00">Measurement</text>
</g>
<!-- Measurement&#45;&gt;hasUnit -->
<g id="edge1" class="edge">
<title>Measurement&#45;&gt;hasUnit</title>
<path fill="none" stroke="blue" stroke-dasharray="5,2" d="M497.48,-347.43C403.03,-347.43 211.9,-347.43 113.4,-347.43"/>
<polygon fill="blue" stroke="blue" points="113.3,-343.93 103.3,-347.43 113.3,-350.93 113.3,-343.93"/>
<text text-anchor="middle" x="282.14" y="-350.43" font-family="Arial" font-size="10.00">domain</text>
</g>
<!-- Measurement&#45;&gt;hasValue -->
<g id="edge4" class="edge">
<title>Measurement&#45;&gt;hasValue</title>
<path fill="none" stroke="blue" stroke-dasharray="5,2" d="M536.3,-329.3C507.38,-298.01 447.72,-233.47 411.52,-194.3"/>
<polygon fill="blue" stroke="blue" points="413.96,-191.79 404.6,-186.82 408.82,-196.54 413.96,-191.79"/>
<text text-anchor="middle" x="451.91" y="-261.02" font-family="Arial" font-size="10.00">domain</text>
</g>
<!-- Measurement&#45;&gt;resultTime -->
<g id="edge6" class="edge">
<title>Measurement&#45;&gt;resultTime</title>
<path fill="none" stroke="blue" stroke-dasharray="5,2" d="M566.39,-329.4C593.08,-293.33 653.15,-212.13 684.09,-170.3"/>
<polygon fill="blue" stroke="blue" points="687.09,-172.13 690.23,-162.01 681.47,-167.96 687.09,-172.13"/>
<text text-anchor="middle" x="609.84" y="-248.67" font-family="Arial" font-size="10.00">domain</text>
</g>
<!-- Measurement&#45;&gt;hasConfidence -->
<g id="edge8" class="edge">
<title>Measurement&#45;&gt;hasConfidence</title>
<path fill="none" stroke="blue" stroke-dasharray="5,2" d="M581.95,-365.48C617.36,-387.6 677.84,-425.37 720.06,-451.74"/>
<polygon fill="blue" stroke="blue" points="718.44,-454.86 728.78,-457.18 722.15,-448.92 718.44,-454.86"/>
<text text-anchor="middle" x="636.66" y="-414.2" font-family="Arial" font-size="10.00">domain</text>
</g>
<!-- Measurement&#45;&gt;hasMeasurementType -->
<g id="edge12" class="edge">
<title>Measurement&#45;&gt;hasMeasurementType</title>
<path fill="none" stroke="blue" stroke-dasharray="5,2" d="M536.3,-365.56C507.77,-396.42 449.35,-459.63 413.01,-498.94"/>
<polygon fill="blue" stroke="blue" points="410.27,-496.74 406.06,-506.46 415.42,-501.5 410.27,-496.74"/>
<text text-anchor="middle" x="452.68" y="-439.01" font-family="Arial" font-size="10.00">domain</text>
</g>
<!-- Thing -->
<g id="node17" class="node">
<title>Thing</title>
<polygon fill="lightblue" stroke="black" points="1129.29,-584.43 1073.29,-584.43 1073.29,-548.43 1129.29,-548.43 1129.29,-584.43"/>
<text text-anchor="middle" x="1101.29" y="-562.73" font-family="Arial" font-size="14.00">Thing</text>
</g>
<!-- Thing&#45;&gt;hasTimestamp -->
<g id="edge2" class="edge">
<title>Thing&#45;&gt;hasTimestamp</title>
<path fill="none" stroke="blue" stroke-dasharray="5,2" d="M1073.02,-566.43C1011.73,-566.43 864.22,-566.43 765.82,-566.43"/>
<polygon fill="blue" stroke="blue" points="765.57,-562.93 755.57,-566.43 765.57,-569.93 765.57,-562.93"/>
<text text-anchor="middle" x="895.71" y="-569.43" font-family="Arial" font-size="10.00">domain</text>
</g>
<!-- Thing&#45;&gt;hasStatus -->
<g id="edge7" class="edge">
<title>Thing&#45;&gt;hasStatus</title>
<path fill="none" stroke="blue" stroke-dasharray="5,2" d="M1085.35,-548.4C1065.47,-525.91 1031.09,-487.02 1006.48,-459.18"/>
<polygon fill="blue" stroke="blue" points="1009.06,-456.82 999.81,-451.65 1003.82,-461.46 1009.06,-456.82"/>
<text text-anchor="middle" x="1024.19" y="-503.15" font-family="Arial" font-size="10.00">domain</text>
</g>
<!-- Thing&#45;&gt;hasLabel -->
<g id="edge10" class="edge">
<title>Thing&#45;&gt;hasLabel</title>
<path fill="none" stroke="blue" stroke-dasharray="5,2" d="M1120,-548.38C1141.56,-527.58 1177.36,-493.04 1203.47,-467.85"/>
<polygon fill="blue" stroke="blue" points="1206.13,-470.15 1210.9,-460.69 1201.27,-465.11 1206.13,-470.15"/>
<text text-anchor="middle" x="1146.79" y="-507.69" font-family="Arial" font-size="10.00">domain</text>
</g>
<!-- Thing&#45;&gt;hasID -->
<g id="edge14" class="edge">
<title>Thing&#45;&gt;hasID</title>
<path fill="none" stroke="blue" stroke-dasharray="5,2" d="M1123.68,-584.55C1147.08,-603.5 1184.14,-633.49 1211.46,-655.6"/>
<polygon fill="blue" stroke="blue" points="1209.27,-658.33 1219.24,-661.9 1213.67,-652.89 1209.27,-658.33"/>
<text text-anchor="middle" x="1153.1" y="-626.34" font-family="Arial" font-size="10.00">domain</text>
</g>
<!-- Thing&#45;&gt;hasDescription -->
<g id="edge15" class="edge">
<title>Thing&#45;&gt;hasDescription</title>
<path fill="none" stroke="blue" stroke-dasharray="5,2" d="M1085.35,-584.45C1065.65,-606.74 1031.71,-645.13 1007.14,-672.92"/>
<polygon fill="blue" stroke="blue" points="1004.49,-670.64 1000.48,-680.45 1009.73,-675.28 1004.49,-670.64"/>
<text text-anchor="middle" x="1024.62" y="-635.22" font-family="Arial" font-size="10.00">domain</text>
</g>
<!-- ObservationContext -->
<g id="node18" class="node">
<title>ObservationContext</title>
<polygon fill="lightblue" stroke="black" points="1086.19,-288.43 926.19,-288.43 926.19,-252.43 1086.19,-252.43 1086.19,-288.43"/>
<text text-anchor="middle" x="1006.19" y="-266.73" font-family="Arial" font-size="14.00">Observation Context</text>
</g>
<!-- ObservationContext&#45;&gt;hasEndTime -->
<g id="edge3" class="edge">
<title>ObservationContext&#45;&gt;hasEndTime</title>
<path fill="none" stroke="blue" stroke-dasharray="5,2" d="M925.93,-270.43C906,-270.43 884.56,-270.43 864.37,-270.43"/>
<polygon fill="blue" stroke="blue" points="864.26,-266.93 854.26,-270.43 864.26,-273.93 864.26,-266.93"/>
<text text-anchor="middle" x="908.39" y="-273.43" font-family="Arial" font-size="10.00">domain</text>
</g>
<!-- ObservationContext&#45;&gt;hasStartTime -->
<g id="edge5" class="edge">
<title>ObservationContext&#45;&gt;hasStartTime</title>
<path fill="none" stroke="blue" stroke-dasharray="5,2" d="M1086.32,-270.43C1106.15,-270.43 1127.52,-270.43 1147.79,-270.43"/>
<polygon fill="blue" stroke="blue" points="1147.96,-273.93 1157.96,-270.43 1147.96,-266.93 1147.96,-273.93"/>
<text text-anchor="middle" x="1131.48" y="-262.43" font-family="Arial" font-size="10.00">domain</text>
</g>
<!-- QuantityValue -->
<g id="node19" class="node">
<title>QuantityValue</title>
<polygon fill="lightblue" stroke="black" points="876.58,-45.43 762.58,-45.43 762.58,-9.43 876.58,-9.43 876.58,-45.43"/>
<text text-anchor="middle" x="819.58" y="-23.73" font-family="Arial" font-size="14.00">QuantityValue</text>
</g>
<!-- QuantityValue&#45;&gt;numericValue -->
<g id="edge9" class="edge">
<title>QuantityValue&#45;&gt;numericValue</title>
<path fill="none" stroke="blue" stroke-dasharray="5,2" d="M762.48,-27.43C743.31,-27.43 721.54,-27.43 700.83,-27.43"/>
<polygon fill="blue" stroke="blue" points="700.77,-23.93 690.77,-27.43 700.77,-30.93 700.77,-23.93"/>
<text text-anchor="middle" x="736.09" y="-19.43" font-family="Arial" font-size="10.00">domain</text>
</g>
<!-- ResponseItem -->
<g id="node20" class="node">
<title>ResponseItem</title>
<polygon fill="lightblue" stroke="black" points="716.71,-678.43 597.71,-678.43 597.71,-642.43 716.71,-642.43 716.71,-678.43"/>
<text text-anchor="middle" x="657.21" y="-656.73" font-family="Arial" font-size="14.00">Response Item</text>
</g>
<!-- ResponseItem&#45;&gt;hasResponseValue -->
<g id="edge11" class="edge">
<title>ResponseItem&#45;&gt;hasResponseValue</title>
<path fill="none" stroke="blue" stroke-dasharray="5,2" d="M597.7,-660.43C578.89,-660.43 557.42,-660.43 536.04,-660.43"/>
<polygon fill="blue" stroke="blue" points="535.9,-656.93 525.9,-660.43 535.9,-663.93 535.9,-656.93"/>
<text text-anchor="middle" x="570.72" y="-652.43" font-family="Arial" font-size="10.00">domain</text>
</g>
<!-- SleepStage -->
<g id="node21" class="node">
<title>SleepStage</title>
<polygon fill="lightblue" stroke="black" points="465.44,-93.43 370.44,-93.43 370.44,-57.43 465.44,-57.43 465.44,-93.43"/>
<text text-anchor="middle" x="417.94" y="-71.73" font-family="Arial" font-size="14.00">SleepStage</text>
</g>
<!-- SleepStage&#45;&gt;hasStageName -->
<g id="edge13" class="edge">
<title>SleepStage&#45;&gt;hasStageName</title>
<path fill="none" stroke="blue" stroke-dasharray="5,2" d="M370.29,-75.43C352.01,-75.43 330.38,-75.43 308.97,-75.43"/>
<polygon fill="blue" stroke="blue" points="308.83,-71.93 298.83,-75.43 308.83,-78.93 308.83,-71.93"/>
<text text-anchor="middle" x="343.69" y="-67.43" font-family="Arial" font-size="10.00">domain</text>
</g>
</g>
</svg>
