<?xml version="1.0" encoding="UTF-8" standalone="no"?>
<!DOCTYPE svg PUBLIC "-//W3C//DTD SVG 1.1//EN"
 "http://www.w3.org/Graphics/SVG/1.1/DTD/svg11.dtd">
<!-- Generated by graphviz version 2.43.0 (0)
 -->
<!-- Title: Data Properties Pages: 1 -->
<svg width="638pt" height="1848pt"
 viewBox="0.00 0.00 638.32 1847.74" xmlns="http://www.w3.org/2000/svg" xmlns:xlink="http://www.w3.org/1999/xlink">
<g id="graph0" class="graph" transform="scale(1 1) rotate(0) translate(4 1843.74)">
<title>Data Properties</title>
<polygon fill="white" stroke="transparent" points="-4,4 -4,-1843.74 634.32,-1843.74 634.32,4 -4,4"/>
<g id="clust1" class="cluster">
<title>cluster_0</title>
<polygon fill="lightgray" stroke="black" points="24.5,-243.87 24.5,-318.87 219.5,-318.87 219.5,-243.87 24.5,-243.87"/>
<text text-anchor="middle" x="122" y="-303.67" font-family="Times,serif" font-size="14.00">Measurement Properties</text>
</g>
<g id="clust2" class="cluster">
<title>cluster_1</title>
<polygon fill="lightgray" stroke="black" points="0,-704.87 0,-779.87 244,-779.87 244,-704.87 0,-704.87"/>
<text text-anchor="middle" x="122" y="-764.67" font-family="Times,serif" font-size="14.00">Observation Context Properties</text>
</g>
<g id="clust3" class="cluster">
<title>cluster_2</title>
<polygon fill="lightgray" stroke="black" points="24,-884.87 24,-959.87 221,-959.87 221,-884.87 24,-884.87"/>
<text text-anchor="middle" x="122.5" y="-944.67" font-family="Times,serif" font-size="14.00">QuantityValue Properties</text>
</g>
<g id="clust4" class="cluster">
<title>cluster_3</title>
<polygon fill="lightgray" stroke="black" points="21.5,-1030.87 21.5,-1105.87 223.5,-1105.87 223.5,-1030.87 21.5,-1030.87"/>
<text text-anchor="middle" x="122.5" y="-1090.67" font-family="Times,serif" font-size="14.00">Response Item Properties</text>
</g>
<g id="clust5" class="cluster">
<title>cluster_4</title>
<polygon fill="lightgray" stroke="black" points="33.5,-1156.87 33.5,-1231.87 210.5,-1231.87 210.5,-1156.87 33.5,-1156.87"/>
<text text-anchor="middle" x="122" y="-1216.67" font-family="Times,serif" font-size="14.00">SleepStage Properties</text>
</g>
<g id="clust6" class="cluster">
<title>cluster_5</title>
<polygon fill="lightgray" stroke="black" points="54,-1534.87 54,-1609.87 191,-1609.87 191,-1534.87 54,-1534.87"/>
<text text-anchor="middle" x="122.5" y="-1594.67" font-family="Times,serif" font-size="14.00">Thing Properties</text>
</g>
<!-- Measurement -->
<g id="node1" class="node">
<title>Measurement</title>
<polygon fill="lightblue" stroke="black" points="177.5,-287.87 66.5,-287.87 66.5,-251.87 177.5,-251.87 177.5,-287.87"/>
<text text-anchor="middle" x="122" y="-266.17" font-family="Arial" font-size="14.00">Measurement</text>
</g>
<!-- hasUnit -->
<g id="node7" class="node">
<title>hasUnit</title>
<ellipse fill="lightyellow" stroke="black" cx="505.16" cy="-541.87" rx="51.74" ry="26.74"/>
<text text-anchor="middle" x="505.16" y="-545.67" font-family="Arial" font-size="14.00">has unit</text>
<text text-anchor="middle" x="505.16" y="-530.67" font-family="Arial" font-size="14.00">(string)</text>
</g>
<!-- Measurement&#45;&gt;hasUnit -->
<g id="edge1" class="edge">
<title>Measurement&#45;&gt;hasUnit</title>
<path fill="none" stroke="blue" stroke-dasharray="5,2" d="M142.21,-287.93C183.51,-326.19 284.76,-416.99 380,-478.87 404.07,-494.51 432.52,-509.19 456.11,-520.44"/>
<polygon fill="blue" stroke="blue" points="454.69,-523.64 465.23,-524.74 457.67,-517.31 454.69,-523.64"/>
<text text-anchor="middle" x="307.5" y="-440.87" font-family="Arial" font-size="10.00">domain</text>
</g>
<!-- hasValue -->
<g id="node10" class="node">
<title>hasValue</title>
<ellipse fill="lightyellow" stroke="black" cx="505.16" cy="-415.87" rx="58.88" ry="26.74"/>
<text text-anchor="middle" x="505.16" y="-419.67" font-family="Arial" font-size="14.00">has value</text>
<text text-anchor="middle" x="505.16" y="-404.67" font-family="Arial" font-size="14.00">(float)</text>
</g>
<!-- Measurement&#45;&gt;hasValue -->
<g id="edge4" class="edge">
<title>Measurement&#45;&gt;hasValue</title>
<path fill="none" stroke="blue" stroke-dasharray="5,2" d="M170.12,-287.92C241.03,-315.08 374.83,-366.33 449.78,-395.04"/>
<polygon fill="blue" stroke="blue" points="448.92,-398.46 459.51,-398.77 451.42,-391.92 448.92,-398.46"/>
<text text-anchor="middle" x="307.5" y="-350.87" font-family="Arial" font-size="10.00">domain</text>
</g>
<!-- resultTime -->
<g id="node12" class="node">
<title>resultTime</title>
<ellipse fill="lightyellow" stroke="black" cx="505.16" cy="-269.87" rx="57.69" ry="18"/>
<text text-anchor="middle" x="505.16" y="-266.17" font-family="Arial" font-size="14.00">resultTime</text>
</g>
<!-- Measurement&#45;&gt;resultTime -->
<g id="edge6" class="edge">
<title>Measurement&#45;&gt;resultTime</title>
<path fill="none" stroke="blue" stroke-dasharray="5,2" d="M177.61,-269.87C246.03,-269.87 363.23,-269.87 437.04,-269.87"/>
<polygon fill="blue" stroke="blue" points="437.16,-273.37 447.16,-269.87 437.16,-266.37 437.16,-273.37"/>
<text text-anchor="middle" x="307.5" y="-272.87" font-family="Arial" font-size="10.00">domain</text>
</g>
<!-- hasConfidence -->
<g id="node14" class="node">
<title>hasConfidence</title>
<ellipse fill="lightyellow" stroke="black" cx="505.16" cy="-152.87" rx="86.03" ry="26.74"/>
<text text-anchor="middle" x="505.16" y="-156.67" font-family="Arial" font-size="14.00">has confidence</text>
<text text-anchor="middle" x="505.16" y="-141.67" font-family="Arial" font-size="14.00">(float)</text>
</g>
<!-- Measurement&#45;&gt;hasConfidence -->
<g id="edge8" class="edge">
<title>Measurement&#45;&gt;hasConfidence</title>
<path fill="none" stroke="blue" stroke-dasharray="5,2" d="M177.61,-253.11C244.89,-232.46 359.33,-197.33 433.31,-174.62"/>
<polygon fill="blue" stroke="blue" points="434.49,-177.92 443.03,-171.64 432.44,-171.22 434.49,-177.92"/>
<text text-anchor="middle" x="307.5" y="-221.87" font-family="Arial" font-size="10.00">domain</text>
</g>
<!-- hasMeasurementType -->
<g id="node18" class="node">
<title>hasMeasurementType</title>
<ellipse fill="lightyellow" stroke="black" cx="505.16" cy="-26.87" rx="125.32" ry="26.74"/>
<text text-anchor="middle" x="505.16" y="-30.67" font-family="Arial" font-size="14.00">has measurement type</text>
<text text-anchor="middle" x="505.16" y="-15.67" font-family="Arial" font-size="14.00">(string)</text>
</g>
<!-- Measurement&#45;&gt;hasMeasurementType -->
<g id="edge12" class="edge">
<title>Measurement&#45;&gt;hasMeasurementType</title>
<path fill="none" stroke="blue" stroke-dasharray="5,2" d="M146.34,-251.83C190.59,-218.02 290.31,-143.67 380,-89.87 399.95,-77.9 422.45,-66.03 442.77,-55.87"/>
<polygon fill="blue" stroke="blue" points="444.52,-58.9 451.93,-51.33 441.41,-52.63 444.52,-58.9"/>
<text text-anchor="middle" x="307.5" y="-148.87" font-family="Arial" font-size="10.00">domain</text>
</g>
<!-- ObservationContext -->
<g id="node2" class="node">
<title>ObservationContext</title>
<polygon fill="lightblue" stroke="black" points="202,-748.87 42,-748.87 42,-712.87 202,-712.87 202,-748.87"/>
<text text-anchor="middle" x="122" y="-727.17" font-family="Arial" font-size="14.00">Observation Context</text>
</g>
<!-- hasEndTime -->
<g id="node9" class="node">
<title>hasEndTime</title>
<ellipse fill="lightyellow" stroke="black" cx="505.16" cy="-793.87" rx="75.82" ry="26.74"/>
<text text-anchor="middle" x="505.16" y="-797.67" font-family="Arial" font-size="14.00">has end time</text>
<text text-anchor="middle" x="505.16" y="-782.67" font-family="Arial" font-size="14.00">(dateTime)</text>
</g>
<!-- ObservationContext&#45;&gt;hasEndTime -->
<g id="edge3" class="edge">
<title>ObservationContext&#45;&gt;hasEndTime</title>
<path fill="none" stroke="blue" stroke-dasharray="5,2" d="M202.44,-744C268.09,-754.85 360.79,-770.17 426.06,-780.96"/>
<polygon fill="blue" stroke="blue" points="425.86,-784.48 436.3,-782.65 427,-777.57 425.86,-784.48"/>
<text text-anchor="middle" x="307.5" y="-767.87" font-family="Arial" font-size="10.00">domain</text>
</g>
<!-- hasStartTime -->
<g id="node11" class="node">
<title>hasStartTime</title>
<ellipse fill="lightyellow" stroke="black" cx="505.16" cy="-667.87" rx="79.81" ry="26.74"/>
<text text-anchor="middle" x="505.16" y="-671.67" font-family="Arial" font-size="14.00">has start time</text>
<text text-anchor="middle" x="505.16" y="-656.67" font-family="Arial" font-size="14.00">(dateTime)</text>
</g>
<!-- ObservationContext&#45;&gt;hasStartTime -->
<g id="edge5" class="edge">
<title>ObservationContext&#45;&gt;hasStartTime</title>
<path fill="none" stroke="blue" stroke-dasharray="5,2" d="M202.44,-717.74C267.05,-707.06 357.87,-692.05 422.95,-681.29"/>
<polygon fill="blue" stroke="blue" points="423.87,-684.69 433.17,-679.6 422.73,-677.78 423.87,-684.69"/>
<text text-anchor="middle" x="307.5" y="-706.87" font-family="Arial" font-size="10.00">domain</text>
</g>
<!-- QuantityValue -->
<g id="node3" class="node">
<title>QuantityValue</title>
<polygon fill="lightblue" stroke="black" points="179,-928.87 65,-928.87 65,-892.87 179,-892.87 179,-928.87"/>
<text text-anchor="middle" x="122" y="-907.17" font-family="Arial" font-size="14.00">QuantityValue</text>
</g>
<!-- numericValue -->
<g id="node15" class="node">
<title>numericValue</title>
<ellipse fill="lightyellow" stroke="black" cx="505.16" cy="-910.87" rx="72.29" ry="18"/>
<text text-anchor="middle" x="505.16" y="-907.17" font-family="Arial" font-size="14.00">numericValue</text>
</g>
<!-- QuantityValue&#45;&gt;numericValue -->
<g id="edge9" class="edge">
<title>QuantityValue&#45;&gt;numericValue</title>
<path fill="none" stroke="blue" stroke-dasharray="5,2" d="M179.24,-910.87C243.52,-910.87 349.28,-910.87 422.6,-910.87"/>
<polygon fill="blue" stroke="blue" points="422.72,-914.37 432.72,-910.87 422.72,-907.37 422.72,-914.37"/>
<text text-anchor="middle" x="307.5" y="-913.87" font-family="Arial" font-size="10.00">domain</text>
</g>
<!-- ResponseItem -->
<g id="node4" class="node">
<title>ResponseItem</title>
<polygon fill="lightblue" stroke="black" points="181.5,-1074.87 62.5,-1074.87 62.5,-1038.87 181.5,-1038.87 181.5,-1074.87"/>
<text text-anchor="middle" x="122" y="-1053.17" font-family="Arial" font-size="14.00">Response Item</text>
</g>
<!-- hasResponseValue -->
<g id="node17" class="node">
<title>hasResponseValue</title>
<ellipse fill="lightyellow" stroke="black" cx="505.16" cy="-1056.87" rx="106.55" ry="26.74"/>
<text text-anchor="middle" x="505.16" y="-1060.67" font-family="Arial" font-size="14.00">has response value</text>
<text text-anchor="middle" x="505.16" y="-1045.67" font-family="Arial" font-size="14.00">(string)</text>
</g>
<!-- ResponseItem&#45;&gt;hasResponseValue -->
<g id="edge11" class="edge">
<title>ResponseItem&#45;&gt;hasResponseValue</title>
<path fill="none" stroke="blue" stroke-dasharray="5,2" d="M181.72,-1056.87C236.44,-1056.87 319.61,-1056.87 387.78,-1056.87"/>
<polygon fill="blue" stroke="blue" points="388.15,-1060.37 398.15,-1056.87 388.15,-1053.37 388.15,-1060.37"/>
<text text-anchor="middle" x="307.5" y="-1059.87" font-family="Arial" font-size="10.00">domain</text>
</g>
<!-- SleepStage -->
<g id="node5" class="node">
<title>SleepStage</title>
<polygon fill="lightblue" stroke="black" points="169.5,-1200.87 74.5,-1200.87 74.5,-1164.87 169.5,-1164.87 169.5,-1200.87"/>
<text text-anchor="middle" x="122" y="-1179.17" font-family="Arial" font-size="14.00">SleepStage</text>
</g>
<!-- hasStageName -->
<g id="node19" class="node">
<title>hasStageName</title>
<ellipse fill="lightyellow" stroke="black" cx="505.16" cy="-1182.87" rx="90.52" ry="26.74"/>
<text text-anchor="middle" x="505.16" y="-1186.67" font-family="Arial" font-size="14.00">has stage name</text>
<text text-anchor="middle" x="505.16" y="-1171.67" font-family="Arial" font-size="14.00">(string)</text>
</g>
<!-- SleepStage&#45;&gt;hasStageName -->
<g id="edge13" class="edge">
<title>SleepStage&#45;&gt;hasStageName</title>
<path fill="none" stroke="blue" stroke-dasharray="5,2" d="M169.74,-1182.87C227.86,-1182.87 328.65,-1182.87 404.43,-1182.87"/>
<polygon fill="blue" stroke="blue" points="404.48,-1186.37 414.48,-1182.87 404.48,-1179.37 404.48,-1186.37"/>
<text text-anchor="middle" x="307.5" y="-1185.87" font-family="Arial" font-size="10.00">domain</text>
</g>
<!-- Thing -->
<g id="node6" class="node">
<title>Thing</title>
<polygon fill="lightblue" stroke="black" points="150,-1578.87 94,-1578.87 94,-1542.87 150,-1542.87 150,-1578.87"/>
<text text-anchor="middle" x="122" y="-1557.17" font-family="Arial" font-size="14.00">Thing</text>
</g>
<!-- hasTimestamp -->
<g id="node8" class="node">
<title>hasTimestamp</title>
<ellipse fill="lightyellow" stroke="black" cx="505.16" cy="-1812.87" rx="84.71" ry="26.74"/>
<text text-anchor="middle" x="505.16" y="-1816.67" font-family="Arial" font-size="14.00">has timestamp</text>
<text text-anchor="middle" x="505.16" y="-1801.67" font-family="Arial" font-size="14.00">(dateTime)</text>
</g>
<!-- Thing&#45;&gt;hasTimestamp -->
<g id="edge2" class="edge">
<title>Thing&#45;&gt;hasTimestamp</title>
<path fill="none" stroke="blue" stroke-dasharray="5,2" d="M145.16,-1579.12C188.61,-1614.46 288.74,-1693.69 380,-1749.87 401.34,-1763.01 425.76,-1775.84 447.27,-1786.46"/>
<polygon fill="blue" stroke="blue" points="445.77,-1789.62 456.29,-1790.87 448.84,-1783.33 445.77,-1789.62"/>
<text text-anchor="middle" x="307.5" y="-1714.87" font-family="Arial" font-size="10.00">domain</text>
</g>
<!-- hasStatus -->
<g id="node13" class="node">
<title>hasStatus</title>
<ellipse fill="lightyellow" stroke="black" cx="505.16" cy="-1686.87" rx="62.87" ry="26.74"/>
<text text-anchor="middle" x="505.16" y="-1690.67" font-family="Arial" font-size="14.00">has status</text>
<text text-anchor="middle" x="505.16" y="-1675.67" font-family="Arial" font-size="14.00">(string)</text>
</g>
<!-- Thing&#45;&gt;hasStatus -->
<g id="edge7" class="edge">
<title>Thing&#45;&gt;hasStatus</title>
<path fill="none" stroke="blue" stroke-dasharray="5,2" d="M150.11,-1569.83C211.29,-1590.06 361.29,-1639.64 445.09,-1667.34"/>
<polygon fill="blue" stroke="blue" points="444.13,-1670.71 454.72,-1670.53 446.33,-1664.07 444.13,-1670.71"/>
<text text-anchor="middle" x="307.5" y="-1630.87" font-family="Arial" font-size="10.00">domain</text>
</g>
<!-- hasLabel -->
<g id="node16" class="node">
<title>hasLabel</title>
<ellipse fill="lightyellow" stroke="black" cx="505.16" cy="-1560.87" rx="55.72" ry="26.74"/>
<text text-anchor="middle" x="505.16" y="-1564.67" font-family="Arial" font-size="14.00">has label</text>
<text text-anchor="middle" x="505.16" y="-1549.67" font-family="Arial" font-size="14.00">(string)</text>
</g>
<!-- Thing&#45;&gt;hasLabel -->
<g id="edge10" class="edge">
<title>Thing&#45;&gt;hasLabel</title>
<path fill="none" stroke="blue" stroke-dasharray="5,2" d="M150.11,-1560.87C209.84,-1560.87 354.23,-1560.87 439.02,-1560.87"/>
<polygon fill="blue" stroke="blue" points="439.05,-1564.37 449.05,-1560.87 439.05,-1557.37 439.05,-1564.37"/>
<text text-anchor="middle" x="307.5" y="-1563.87" font-family="Arial" font-size="10.00">domain</text>
</g>
<!-- hasID -->
<g id="node20" class="node">
<title>hasID</title>
<ellipse fill="lightyellow" stroke="black" cx="505.16" cy="-1434.87" rx="48.17" ry="26.74"/>
<text text-anchor="middle" x="505.16" y="-1438.67" font-family="Arial" font-size="14.00">has ID</text>
<text text-anchor="middle" x="505.16" y="-1423.67" font-family="Arial" font-size="14.00">(string)</text>
</g>
<!-- Thing&#45;&gt;hasID -->
<g id="edge14" class="edge">
<title>Thing&#45;&gt;hasID</title>
<path fill="none" stroke="blue" stroke-dasharray="5,2" d="M150.11,-1551.91C213.44,-1530.97 371.92,-1478.59 453.65,-1451.57"/>
<polygon fill="blue" stroke="blue" points="454.83,-1454.86 463.23,-1448.4 452.63,-1448.22 454.83,-1454.86"/>
<text text-anchor="middle" x="307.5" y="-1508.87" font-family="Arial" font-size="10.00">domain</text>
</g>
<!-- hasDescription -->
<g id="node21" class="node">
<title>hasDescription</title>
<ellipse fill="lightyellow" stroke="black" cx="505.16" cy="-1308.87" rx="86.95" ry="26.74"/>
<text text-anchor="middle" x="505.16" y="-1312.67" font-family="Arial" font-size="14.00">has description</text>
<text text-anchor="middle" x="505.16" y="-1297.67" font-family="Arial" font-size="14.00">(string)</text>
</g>
<!-- Thing&#45;&gt;hasDescription -->
<g id="edge15" class="edge">
<title>Thing&#45;&gt;hasDescription</title>
<path fill="none" stroke="blue" stroke-dasharray="5,2" d="M145.16,-1542.62C188.61,-1507.28 288.74,-1428.05 380,-1371.87 401.07,-1358.9 425.14,-1346.23 446.44,-1335.69"/>
<polygon fill="blue" stroke="blue" points="448.25,-1338.7 455.69,-1331.16 445.17,-1332.42 448.25,-1338.7"/>
<text text-anchor="middle" x="307.5" y="-1433.87" font-family="Arial" font-size="10.00">domain</text>
</g>
<!-- resultTime&#45;&gt;resultTime -->
<g id="edge16" class="edge">
<title>resultTime&#45;&gt;resultTime</title>
<path fill="none" stroke="darkgreen" d="M484.61,-287.1C457.54,-318.33 464.39,-359.87 505.16,-359.87 542.42,-359.87 551.35,-325.17 531.93,-295.35"/>
<polygon fill="darkgreen" stroke="darkgreen" points="534.52,-292.97 525.7,-287.1 528.94,-297.19 534.52,-292.97"/>
<text text-anchor="middle" x="505.16" y="-362.87" font-family="Arial" font-size="10.00">subPropertyOf</text>
</g>
<!-- numericValue&#45;&gt;numericValue -->
<g id="edge17" class="edge">
<title>numericValue&#45;&gt;numericValue</title>
<path fill="none" stroke="darkgreen" d="M484.23,-928.54C457.61,-959.72 464.58,-1000.87 505.16,-1000.87 542.25,-1000.87 551.26,-966.49 532.2,-936.77"/>
<polygon fill="darkgreen" stroke="darkgreen" points="534.86,-934.47 526.08,-928.54 529.24,-938.65 534.86,-934.47"/>
<text text-anchor="middle" x="505.16" y="-1003.87" font-family="Arial" font-size="10.00">subPropertyOf</text>
</g>
</g>
</svg>
