<?xml version="1.0" encoding="UTF-8" standalone="no"?>
<!DOCTYPE svg PUBLIC "-//W3C//DTD SVG 1.1//EN"
 "http://www.w3.org/Graphics/SVG/1.1/DTD/svg11.dtd">
<!-- Generated by graphviz version 2.43.0 (0)
 -->
<!-- Title: External Mappings Pages: 1 -->
<svg width="494pt" height="2989pt"
 viewBox="0.00 0.00 494.00 2989.00" xmlns="http://www.w3.org/2000/svg" xmlns:xlink="http://www.w3.org/1999/xlink">
<g id="graph0" class="graph" transform="scale(1 1) rotate(0) translate(4 2985)">
<title>External Mappings</title>
<polygon fill="white" stroke="transparent" points="-4,4 -4,-2985 490,-2985 490,4 -4,4"/>
<g id="clust1" class="cluster">
<title>cluster_odim</title>
<polygon fill="#f7f7f7" stroke="lightgrey" points="8,-697 8,-2965 463.5,-2965 463.5,-697 8,-697"/>
<text text-anchor="middle" x="235.75" y="-2949.8" font-family="Times,serif" font-size="14.00">ODIM&#45;MH</text>
</g>
<g id="clust2" class="cluster">
<title>cluster_ext</title>
<polygon fill="#f7f7f7" stroke="lightgrey" points="299,-8 299,-689 478,-689 478,-8 299,-8"/>
<text text-anchor="middle" x="388.5" y="-673.8" font-family="Times,serif" font-size="14.00">External</text>
</g>
<!-- Computation -->
<g id="node1" class="node">
<title>Computation</title>
<polygon fill="white" stroke="black" points="171.5,-1924 65.5,-1924 65.5,-1888 171.5,-1888 171.5,-1924"/>
<text text-anchor="middle" x="118.5" y="-1902.3" font-family="Helvetica,sans-Serif" font-size="14.00">Computation</text>
</g>
<!-- Activity -->
<g id="node25" class="node">
<title>Activity</title>
<polygon fill="white" stroke="black" points="422.5,-355 354.5,-355 354.5,-319 422.5,-319 422.5,-355"/>
<text text-anchor="middle" x="388.5" y="-333.3" font-family="Helvetica,sans-Serif" font-size="14.00">Activity</text>
</g>
<!-- Computation&#45;&gt;Activity -->
<g id="edge11" class="edge">
<title>Computation&#45;&gt;Activity</title>
<path fill="none" stroke="black" d="M171.66,-1892.41C190.35,-1884.83 209.59,-1873.3 221,-1856 400.99,-1583.11 126.8,-664.87 299,-387 309.43,-370.17 327.72,-358.48 344.98,-350.67"/>
<polygon fill="black" stroke="black" points="346.53,-353.81 354.4,-346.72 343.83,-347.36 346.53,-353.81"/>
</g>
<!-- DataSet -->
<g id="node2" class="node">
<title>DataSet</title>
<polygon fill="white" stroke="black" points="156.5,-2328 80.5,-2328 80.5,-2292 156.5,-2292 156.5,-2328"/>
<text text-anchor="middle" x="118.5" y="-2306.3" font-family="Helvetica,sans-Serif" font-size="14.00">Data Set</text>
</g>
<!-- Entity -->
<g id="node27" class="node">
<title>Entity</title>
<polygon fill="white" stroke="black" points="417,-456 360,-456 360,-420 417,-420 417,-456"/>
<text text-anchor="middle" x="388.5" y="-434.3" font-family="Helvetica,sans-Serif" font-size="14.00">Entity</text>
</g>
<!-- DataSet&#45;&gt;Entity -->
<g id="edge4" class="edge">
<title>DataSet&#45;&gt;Entity</title>
<path fill="none" stroke="black" d="M156.63,-2301.85C179.27,-2294.8 206.55,-2282.12 221,-2260 436.52,-1929.98 92.89,-823.98 299,-488 310.47,-469.3 331.68,-456.97 350.45,-449.23"/>
<polygon fill="black" stroke="black" points="351.89,-452.43 359.98,-445.6 349.39,-445.89 351.89,-452.43"/>
</g>
<!-- DataTransferEvent -->
<g id="node3" class="node">
<title>DataTransferEvent</title>
<polygon fill="white" stroke="black" points="196,-1823 41,-1823 41,-1787 196,-1787 196,-1823"/>
<text text-anchor="middle" x="118.5" y="-1801.3" font-family="Helvetica,sans-Serif" font-size="14.00">Data Transfer Event</text>
</g>
<!-- DataTransferEvent&#45;&gt;Activity -->
<g id="edge10" class="edge">
<title>DataTransferEvent&#45;&gt;Activity</title>
<path fill="none" stroke="black" d="M181.73,-1786.9C196.99,-1779.47 211.62,-1769.17 221,-1755 389.15,-1501.14 138.1,-645.51 299,-387 309.46,-370.19 327.76,-358.51 345.01,-350.69"/>
<polygon fill="black" stroke="black" points="346.56,-353.83 354.43,-346.74 343.86,-347.38 346.56,-353.83"/>
</g>
<!-- DerivedFeature -->
<g id="node4" class="node">
<title>DerivedFeature</title>
<polygon fill="white" stroke="black" points="182,-2227 55,-2227 55,-2191 182,-2191 182,-2227"/>
<text text-anchor="middle" x="118.5" y="-2205.3" font-family="Helvetica,sans-Serif" font-size="14.00">Derived Feature</text>
</g>
<!-- DerivedFeature&#45;&gt;Entity -->
<g id="edge3" class="edge">
<title>DerivedFeature&#45;&gt;Entity</title>
<path fill="none" stroke="black" d="M181.82,-2190.96C197.08,-2183.53 211.69,-2173.21 221,-2159 424.68,-1848.03 104.19,-804.61 299,-488 310.42,-469.44 331.41,-457.15 350.09,-449.4"/>
<polygon fill="black" stroke="black" points="351.5,-452.61 359.58,-445.76 348.99,-446.08 351.5,-452.61"/>
</g>
<!-- Device -->
<g id="node5" class="node">
<title>Device</title>
<polygon fill="white" stroke="black" points="150,-1722 87,-1722 87,-1686 150,-1686 150,-1722"/>
<text text-anchor="middle" x="118.5" y="-1700.3" font-family="Helvetica,sans-Serif" font-size="14.00">Device</text>
</g>
<!-- Agent -->
<g id="node26" class="node">
<title>Agent</title>
<polygon fill="white" stroke="black" points="417.5,-254 359.5,-254 359.5,-218 417.5,-218 417.5,-254"/>
<text text-anchor="middle" x="388.5" y="-232.3" font-family="Helvetica,sans-Serif" font-size="14.00">Agent</text>
</g>
<!-- Device&#45;&gt;Agent -->
<g id="edge2" class="edge">
<title>Device&#45;&gt;Agent</title>
<path fill="none" stroke="black" d="M150.36,-1697.62C173.95,-1690.99 205.05,-1678.07 221,-1654 389.15,-1400.14 138.1,-544.51 299,-286 310.44,-267.63 331.22,-255.38 349.78,-247.61"/>
<polygon fill="black" stroke="black" points="351.16,-250.83 359.21,-243.95 348.63,-244.31 351.16,-250.83"/>
</g>
<!-- DigitalPhenotype -->
<g id="node6" class="node">
<title>DigitalPhenotype</title>
<polygon fill="white" stroke="black" points="188,-2126 49,-2126 49,-2090 188,-2090 188,-2126"/>
<text text-anchor="middle" x="118.5" y="-2104.3" font-family="Helvetica,sans-Serif" font-size="14.00">Digital Phenotype</text>
</g>
<!-- DigitalPhenotype&#45;&gt;Entity -->
<g id="edge6" class="edge">
<title>DigitalPhenotype&#45;&gt;Entity</title>
<path fill="none" stroke="black" d="M181.79,-2089.94C197.06,-2082.51 211.67,-2072.2 221,-2058 412.83,-1766.07 115.5,-785.24 299,-488 310.45,-469.46 331.44,-457.17 350.11,-449.42"/>
<polygon fill="black" stroke="black" points="351.52,-452.63 359.6,-445.77 349.01,-446.09 351.52,-452.63"/>
</g>
<!-- Feature -->
<g id="node7" class="node">
<title>Feature</title>
<polygon fill="white" stroke="black" points="152.5,-2025 84.5,-2025 84.5,-1989 152.5,-1989 152.5,-2025"/>
<text text-anchor="middle" x="118.5" y="-2003.3" font-family="Helvetica,sans-Serif" font-size="14.00">Feature</text>
</g>
<!-- Feature&#45;&gt;Entity -->
<g id="edge7" class="edge">
<title>Feature&#45;&gt;Entity</title>
<path fill="none" stroke="black" d="M152.82,-1999.94C176.09,-1993.12 205.64,-1980.29 221,-1957 400.99,-1684.11 126.8,-765.87 299,-488 310.48,-469.48 331.47,-457.19 350.13,-449.43"/>
<polygon fill="black" stroke="black" points="351.54,-452.64 359.62,-445.78 349.03,-446.11 351.54,-452.64"/>
</g>
<!-- Measurement -->
<g id="node8" class="node">
<title>Measurement</title>
<polygon fill="white" stroke="black" points="174,-961 63,-961 63,-925 174,-925 174,-961"/>
<text text-anchor="middle" x="118.5" y="-939.3" font-family="Helvetica,sans-Serif" font-size="14.00">Measurement</text>
</g>
<!-- Measurement&#45;&gt;Entity -->
<g id="edge5" class="edge">
<title>Measurement&#45;&gt;Entity</title>
<path fill="none" stroke="black" d="M174.16,-926.98C191.53,-919.33 209.26,-908.38 221,-893 332.18,-747.26 191.99,-636.83 299,-488 311.49,-470.63 331.99,-458.5 350.12,-450.54"/>
<polygon fill="black" stroke="black" points="351.68,-453.69 359.6,-446.65 349.02,-447.21 351.68,-453.69"/>
</g>
<!-- Observation -->
<g id="node28" class="node">
<title>Observation</title>
<polygon fill="white" stroke="black" points="439,-153 338,-153 338,-117 439,-117 439,-153"/>
<text text-anchor="middle" x="388.5" y="-131.3" font-family="Helvetica,sans-Serif" font-size="14.00">Observation</text>
</g>
<!-- Measurement&#45;&gt;Observation -->
<g id="edge12" class="edge">
<title>Measurement&#45;&gt;Observation</title>
<path fill="none" stroke="black" d="M174.08,-927.85C191.77,-920.23 209.72,-909.09 221,-893 402.72,-633.78 124.68,-449.26 299,-185 306.43,-173.73 317.33,-164.73 328.95,-157.65"/>
<polygon fill="black" stroke="black" points="330.93,-160.56 337.93,-152.61 327.5,-154.45 330.93,-160.56"/>
</g>
<!-- NotificationEvent -->
<g id="node9" class="node">
<title>NotificationEvent</title>
<polygon fill="white" stroke="black" points="188.5,-1264 48.5,-1264 48.5,-1228 188.5,-1228 188.5,-1264"/>
<text text-anchor="middle" x="118.5" y="-1242.3" font-family="Helvetica,sans-Serif" font-size="14.00">Notification Event</text>
</g>
<!-- NotificationEvent&#45;&gt;Activity -->
<g id="edge9" class="edge">
<title>NotificationEvent&#45;&gt;Activity</title>
<path fill="none" stroke="black" d="M180.83,-1227.91C196.28,-1220.46 211.23,-1210.14 221,-1196 426.33,-898.81 102.15,-689.87 299,-387 309.71,-370.52 327.85,-358.92 344.93,-351.06"/>
<polygon fill="black" stroke="black" points="346.44,-354.23 354.26,-347.08 343.69,-347.79 346.44,-354.23"/>
</g>
<!-- Participant -->
<g id="node10" class="node">
<title>Participant</title>
<polygon fill="white" stroke="black" points="163.5,-1062 73.5,-1062 73.5,-1026 163.5,-1026 163.5,-1062"/>
<text text-anchor="middle" x="118.5" y="-1040.3" font-family="Helvetica,sans-Serif" font-size="14.00">Participant</text>
</g>
<!-- Participant&#45;&gt;Agent -->
<g id="edge1" class="edge">
<title>Participant&#45;&gt;Agent</title>
<path fill="none" stroke="black" d="M163.55,-1033C184.32,-1025.49 207.47,-1013.3 221,-994 402.72,-734.78 124.68,-550.26 299,-286 310.83,-268.06 331.43,-255.88 349.78,-248.03"/>
<polygon fill="black" stroke="black" points="351.12,-251.26 359.11,-244.31 348.53,-244.76 351.12,-251.26"/>
</g>
<!-- SensingActivity -->
<g id="node11" class="node">
<title>SensingActivity</title>
<polygon fill="white" stroke="black" points="182.5,-1163 54.5,-1163 54.5,-1127 182.5,-1127 182.5,-1163"/>
<text text-anchor="middle" x="118.5" y="-1141.3" font-family="Helvetica,sans-Serif" font-size="14.00">Sensing Activity</text>
</g>
<!-- SensingActivity&#45;&gt;Activity -->
<g id="edge8" class="edge">
<title>SensingActivity&#45;&gt;Activity</title>
<path fill="none" stroke="black" d="M180.44,-1126.95C195.98,-1119.49 211.08,-1109.15 221,-1095 402.72,-835.78 124.68,-651.26 299,-387 309.82,-370.59 327.98,-359 345.04,-351.13"/>
<polygon fill="black" stroke="black" points="346.54,-354.3 354.35,-347.14 343.78,-347.87 346.54,-354.3"/>
</g>
<!-- associatedWithDevice -->
<g id="node12" class="node">
<title>associatedWithDevice</title>
<polygon fill="white" stroke="black" points="221,-860 16,-860 16,-824 221,-824 221,-860"/>
<text text-anchor="middle" x="118.5" y="-838.3" font-family="Helvetica,sans-Serif" font-size="14.00">was associated with device</text>
</g>
<!-- wasAssociatedWith -->
<g id="node31" class="node">
<title>wasAssociatedWith</title>
<polygon fill="white" stroke="black" points="463.5,-52 313.5,-52 313.5,-16 463.5,-16 463.5,-52"/>
<text text-anchor="middle" x="388.5" y="-30.3" font-family="Helvetica,sans-Serif" font-size="14.00">wasAssociatedWith</text>
</g>
<!-- associatedWithDevice&#45;&gt;wasAssociatedWith -->
<g id="edge14" class="edge">
<title>associatedWithDevice&#45;&gt;wasAssociatedWith</title>
<path fill="none" stroke="black" stroke-dasharray="5,2" d="M180.44,-823.95C195.98,-816.49 211.08,-806.15 221,-792 402.72,-532.78 124.68,-348.26 299,-84 306.28,-72.97 316.88,-64.11 328.22,-57.1"/>
<polygon fill="black" stroke="black" points="330.05,-60.08 337.01,-52.09 326.59,-54 330.05,-60.08"/>
</g>
<!-- featureOfInterest -->
<g id="node13" class="node">
<title>featureOfInterest</title>
<polygon fill="white" stroke="black" points="189,-2732 48,-2732 48,-2696 189,-2696 189,-2732"/>
<text text-anchor="middle" x="118.5" y="-2710.3" font-family="Helvetica,sans-Serif" font-size="14.00">feature of interest</text>
</g>
<!-- hasFeatureOfInterest -->
<g id="node29" class="node">
<title>hasFeatureOfInterest</title>
<polygon fill="white" stroke="black" points="470,-658 307,-658 307,-622 470,-622 470,-658"/>
<text text-anchor="middle" x="388.5" y="-636.3" font-family="Helvetica,sans-Serif" font-size="14.00">hasFeatureOfInterest</text>
</g>
<!-- featureOfInterest&#45;&gt;hasFeatureOfInterest -->
<g id="edge17" class="edge">
<title>featureOfInterest&#45;&gt;hasFeatureOfInterest</title>
<path fill="none" stroke="black" stroke-dasharray="5,2" d="M182.16,-2695.88C197.32,-2688.46 211.8,-2678.17 221,-2664 341.14,-2479.1 176.66,-864.45 299,-681 303.56,-674.17 309.57,-668.45 316.31,-663.67"/>
<polygon fill="black" stroke="black" points="318.58,-666.38 325.2,-658.11 314.87,-660.45 318.58,-666.38"/>
</g>
<!-- numericValue -->
<g id="node14" class="node">
<title>numericValue</title>
<polygon fill="white" stroke="black" points="174,-1603 63,-1603 63,-1567 174,-1567 174,-1603"/>
<text text-anchor="middle" x="118.5" y="-1581.3" font-family="Helvetica,sans-Serif" font-size="14.00">numericValue</text>
</g>
<!-- numericValue&#45;&gt;numericValue -->
<g id="edge22" class="edge">
<title>numericValue&#45;&gt;numericValue</title>
<path fill="none" stroke="black" stroke-dasharray="5,2" d="M87.16,-1603.35C53.47,-1631.82 63.92,-1668 118.5,-1668 168.6,-1668 181.52,-1637.51 157.24,-1610.48"/>
<polygon fill="black" stroke="black" points="159.47,-1607.77 149.84,-1603.35 154.61,-1612.81 159.47,-1607.77"/>
</g>
<!-- observedProperty -->
<g id="node15" class="node">
<title>observedProperty</title>
<polygon fill="white" stroke="black" points="188.5,-1484 48.5,-1484 48.5,-1448 188.5,-1448 188.5,-1484"/>
<text text-anchor="middle" x="118.5" y="-1462.3" font-family="Helvetica,sans-Serif" font-size="14.00">observedProperty</text>
</g>
<!-- observedProperty&#45;&gt;observedProperty -->
<g id="edge13" class="edge">
<title>observedProperty&#45;&gt;observedProperty</title>
<path fill="none" stroke="black" stroke-dasharray="5,2" d="M87.16,-1484.35C53.47,-1512.82 63.92,-1549 118.5,-1549 168.6,-1549 181.52,-1518.51 157.24,-1491.48"/>
<polygon fill="black" stroke="black" points="159.47,-1488.77 149.84,-1484.35 154.61,-1493.81 159.47,-1488.77"/>
</g>
<!-- resultTime -->
<g id="node16" class="node">
<title>resultTime</title>
<polygon fill="white" stroke="black" points="163,-1365 74,-1365 74,-1329 163,-1329 163,-1365"/>
<text text-anchor="middle" x="118.5" y="-1343.3" font-family="Helvetica,sans-Serif" font-size="14.00">resultTime</text>
</g>
<!-- resultTime&#45;&gt;resultTime -->
<g id="edge25" class="edge">
<title>resultTime&#45;&gt;resultTime</title>
<path fill="none" stroke="black" stroke-dasharray="5,2" d="M87.16,-1365.35C53.47,-1393.82 63.92,-1430 118.5,-1430 168.6,-1430 181.52,-1399.51 157.24,-1372.48"/>
<polygon fill="black" stroke="black" points="159.47,-1369.77 149.84,-1365.35 154.61,-1374.81 159.47,-1369.77"/>
</g>
<!-- usedAppInterface -->
<g id="node17" class="node">
<title>usedAppInterface</title>
<polygon fill="white" stroke="black" points="192,-2429 45,-2429 45,-2393 192,-2393 192,-2429"/>
<text text-anchor="middle" x="118.5" y="-2407.3" font-family="Helvetica,sans-Serif" font-size="14.00">used app interface</text>
</g>
<!-- used -->
<g id="node30" class="node">
<title>used</title>
<polygon fill="white" stroke="black" points="415.5,-557 361.5,-557 361.5,-521 415.5,-521 415.5,-557"/>
<text text-anchor="middle" x="388.5" y="-535.3" font-family="Helvetica,sans-Serif" font-size="14.00">used</text>
</g>
<!-- usedAppInterface&#45;&gt;used -->
<g id="edge19" class="edge">
<title>usedAppInterface&#45;&gt;used</title>
<path fill="none" stroke="black" stroke-dasharray="5,2" d="M181.85,-2392.98C197.11,-2385.55 211.71,-2375.23 221,-2361 436.52,-2030.98 92.89,-924.98 299,-589 310.76,-569.83 332.75,-557.35 351.87,-549.66"/>
<polygon fill="black" stroke="black" points="353.1,-552.93 361.25,-546.16 350.66,-546.37 353.1,-552.93"/>
</g>
<!-- usedDataInterface -->
<g id="node18" class="node">
<title>usedDataInterface</title>
<polygon fill="white" stroke="black" points="194.5,-2631 42.5,-2631 42.5,-2595 194.5,-2595 194.5,-2631"/>
<text text-anchor="middle" x="118.5" y="-2609.3" font-family="Helvetica,sans-Serif" font-size="14.00">used data interface</text>
</g>
<!-- usedDataInterface&#45;&gt;used -->
<g id="edge18" class="edge">
<title>usedDataInterface&#45;&gt;used</title>
<path fill="none" stroke="black" stroke-dasharray="5,2" d="M182.15,-2594.88C197.32,-2587.46 211.79,-2577.17 221,-2563 340.61,-2378.95 184.64,-776.36 299,-589 310.72,-569.8 332.71,-557.32 351.84,-549.64"/>
<polygon fill="black" stroke="black" points="353.07,-552.91 361.22,-546.14 350.63,-546.35 353.07,-552.91"/>
</g>
<!-- usedDevice -->
<g id="node19" class="node">
<title>usedDevice</title>
<polygon fill="white" stroke="black" points="168.5,-2530 68.5,-2530 68.5,-2494 168.5,-2494 168.5,-2530"/>
<text text-anchor="middle" x="118.5" y="-2508.3" font-family="Helvetica,sans-Serif" font-size="14.00">used device</text>
</g>
<!-- usedDevice&#45;&gt;used -->
<g id="edge20" class="edge">
<title>usedDevice&#45;&gt;used</title>
<path fill="none" stroke="black" stroke-dasharray="5,2" d="M168.58,-2499.73C188.25,-2492.2 209.05,-2480.35 221,-2462 448.37,-2112.94 81.59,-944.35 299,-589 310.74,-569.81 332.73,-557.34 351.85,-549.65"/>
<polygon fill="black" stroke="black" points="353.09,-552.92 361.23,-546.15 350.64,-546.36 353.09,-552.92"/>
</g>
<!-- wasAttributedTo -->
<g id="node20" class="node">
<title>wasAttributedTo</title>
<polygon fill="white" stroke="black" points="452.5,-2916 324.5,-2916 324.5,-2880 452.5,-2880 452.5,-2916"/>
<text text-anchor="middle" x="388.5" y="-2894.3" font-family="Helvetica,sans-Serif" font-size="14.00">wasAttributedTo</text>
</g>
<!-- wasAttributedTo&#45;&gt;wasAttributedTo -->
<g id="edge24" class="edge">
<title>wasAttributedTo&#45;&gt;wasAttributedTo</title>
<path fill="none" stroke="black" stroke-dasharray="5,2" d="M357.16,-2916.35C323.47,-2944.82 333.92,-2981 388.5,-2981 438.6,-2981 451.52,-2950.51 427.24,-2923.48"/>
<polygon fill="black" stroke="black" points="429.47,-2920.77 419.84,-2916.35 424.61,-2925.81 429.47,-2920.77"/>
</g>
<!-- wasCollectedFrom -->
<g id="node21" class="node">
<title>wasCollectedFrom</title>
<polygon fill="white" stroke="black" points="191.5,-2934 45.5,-2934 45.5,-2898 191.5,-2898 191.5,-2934"/>
<text text-anchor="middle" x="118.5" y="-2912.3" font-family="Helvetica,sans-Serif" font-size="14.00">was collected from</text>
</g>
<!-- wasCollectedFrom&#45;&gt;wasAttributedTo -->
<g id="edge23" class="edge">
<title>wasCollectedFrom&#45;&gt;wasAttributedTo</title>
<path fill="none" stroke="black" stroke-dasharray="5,2" d="M191.67,-2911.15C229.67,-2908.6 276.16,-2905.48 314.31,-2902.92"/>
<polygon fill="black" stroke="black" points="314.58,-2906.41 324.33,-2902.24 314.12,-2899.42 314.58,-2906.41"/>
</g>
<!-- wasComputedBy -->
<g id="node22" class="node">
<title>wasComputedBy</title>
<polygon fill="white" stroke="black" points="188.5,-2833 48.5,-2833 48.5,-2797 188.5,-2797 188.5,-2833"/>
<text text-anchor="middle" x="118.5" y="-2811.3" font-family="Helvetica,sans-Serif" font-size="14.00">was computed by</text>
</g>
<!-- wasGeneratedBy -->
<g id="node24" class="node">
<title>wasGeneratedBy</title>
<polygon fill="white" stroke="black" points="455.5,-2797 321.5,-2797 321.5,-2761 455.5,-2761 455.5,-2797"/>
<text text-anchor="middle" x="388.5" y="-2775.3" font-family="Helvetica,sans-Serif" font-size="14.00">wasGeneratedBy</text>
</g>
<!-- wasComputedBy&#45;&gt;wasGeneratedBy -->
<g id="edge16" class="edge">
<title>wasComputedBy&#45;&gt;wasGeneratedBy</title>
<path fill="none" stroke="black" stroke-dasharray="5,2" d="M188.52,-2805.73C226.1,-2800.68 272.69,-2794.42 311.33,-2789.23"/>
<polygon fill="black" stroke="black" points="312.04,-2792.67 321.49,-2787.87 311.11,-2785.73 312.04,-2792.67"/>
</g>
<!-- wasDerivedFrom -->
<g id="node23" class="node">
<title>wasDerivedFrom</title>
<polygon fill="white" stroke="black" points="184,-741 53,-741 53,-705 184,-705 184,-741"/>
<text text-anchor="middle" x="118.5" y="-719.3" font-family="Helvetica,sans-Serif" font-size="14.00">wasDerivedFrom</text>
</g>
<!-- wasDerivedFrom&#45;&gt;wasDerivedFrom -->
<g id="edge21" class="edge">
<title>wasDerivedFrom&#45;&gt;wasDerivedFrom</title>
<path fill="none" stroke="black" stroke-dasharray="5,2" d="M87.16,-741.35C53.47,-769.82 63.92,-806 118.5,-806 168.6,-806 181.52,-775.51 157.24,-748.48"/>
<polygon fill="black" stroke="black" points="159.47,-745.77 149.84,-741.35 154.61,-750.81 159.47,-745.77"/>
</g>
<!-- wasGeneratedBy&#45;&gt;wasGeneratedBy -->
<g id="edge15" class="edge">
<title>wasGeneratedBy&#45;&gt;wasGeneratedBy</title>
<path fill="none" stroke="black" stroke-dasharray="5,2" d="M357.16,-2797.35C323.47,-2825.82 333.92,-2862 388.5,-2862 438.6,-2862 451.52,-2831.51 427.24,-2804.48"/>
<polygon fill="black" stroke="black" points="429.47,-2801.77 419.84,-2797.35 424.61,-2806.81 429.47,-2801.77"/>
</g>
</g>
</svg>
