<?xml version="1.0" encoding="UTF-8" standalone="no"?>
<!DOCTYPE svg PUBLIC "-//W3C//DTD SVG 1.1//EN"
 "http://www.w3.org/Graphics/SVG/1.1/DTD/svg11.dtd">
<!-- Generated by graphviz version 2.43.0 (0)
 -->
<!-- Title: Layers Overview Pages: 1 -->
<svg width="269pt" height="4517pt"
 viewBox="0.00 0.00 269.00 4517.00" xmlns="http://www.w3.org/2000/svg" xmlns:xlink="http://www.w3.org/1999/xlink">
<g id="graph0" class="graph" transform="scale(1 1) rotate(0) translate(4 4513)">
<title>Layers Overview</title>
<polygon fill="white" stroke="transparent" points="-4,4 -4,-4513 265,-4513 265,4 -4,4"/>
<g id="clust1" class="cluster">
<title>cluster_0</title>
<polygon fill="#f7f7f7" stroke="lightgrey" points="27.5,-8 27.5,-553 233.5,-553 233.5,-8 27.5,-8"/>
<text text-anchor="middle" x="130.5" y="-537.8" font-family="Times,serif" font-size="14.00">Computational Layer</text>
</g>
<g id="clust2" class="cluster">
<title>cluster_1</title>
<polygon fill="#f7f7f7" stroke="lightgrey" points="46,-572 46,-1211 215,-1211 215,-572 46,-572"/>
<text text-anchor="middle" x="130.5" y="-1195.8" font-family="Times,serif" font-size="14.00">Contextual Layer</text>
</g>
<g id="clust3" class="cluster">
<title>cluster_2</title>
<polygon fill="#f7f7f7" stroke="lightgrey" points="30,-1230 30,-1869 231,-1869 231,-1230 30,-1230"/>
<text text-anchor="middle" x="130.5" y="-1853.8" font-family="Times,serif" font-size="14.00">Derived Feature Layer</text>
</g>
<g id="clust4" class="cluster">
<title>cluster_3</title>
<polygon fill="#f7f7f7" stroke="lightgrey" points="40.5,-1888 40.5,-2527 221.5,-2527 221.5,-1888 40.5,-1888"/>
<text text-anchor="middle" x="131" y="-2511.8" font-family="Times,serif" font-size="14.00">DigitalPhenotypeLayer</text>
</g>
<g id="clust5" class="cluster">
<title>cluster_4</title>
<polygon fill="#f7f7f7" stroke="lightgrey" points="8,-2546 8,-3185 253,-3185 253,-2546 8,-2546"/>
<text text-anchor="middle" x="130.5" y="-3169.8" font-family="Times,serif" font-size="14.00">Measurement Layer</text>
</g>
<g id="clust6" class="cluster">
<title>cluster_5</title>
<polygon fill="#f7f7f7" stroke="lightgrey" points="58,-3204 58,-3843 203,-3843 203,-3204 58,-3204"/>
<text text-anchor="middle" x="130.5" y="-3827.8" font-family="Times,serif" font-size="14.00">Provenance Layer</text>
</g>
<g id="clust7" class="cluster">
<title>cluster_6</title>
<polygon fill="#f7f7f7" stroke="lightgrey" points="39.5,-3862 39.5,-4501 221.5,-4501 221.5,-3862 39.5,-3862"/>
<text text-anchor="middle" x="130.5" y="-4485.8" font-family="Times,serif" font-size="14.00">Questionnaire Layer</text>
</g>
<!-- AlgorithmicComputation -->
<g id="node1" class="node">
<title>AlgorithmicComputation</title>
<polygon fill="white" stroke="black" points="223,-522 38,-522 38,-486 223,-486 223,-522"/>
<text text-anchor="middle" x="130.5" y="-500.3" font-family="Helvetica,sans-Serif" font-size="14.00">AlgorithmicComputation</text>
</g>
<!-- BlackBoxComputation -->
<g id="node2" class="node">
<title>BlackBoxComputation</title>
<polygon fill="white" stroke="black" points="215.5,-428 45.5,-428 45.5,-392 215.5,-392 215.5,-428"/>
<text text-anchor="middle" x="130.5" y="-406.3" font-family="Helvetica,sans-Serif" font-size="14.00">BlackBoxComputation</text>
</g>
<!-- Computation -->
<g id="node3" class="node">
<title>Computation</title>
<polygon fill="white" stroke="black" points="183.5,-334 77.5,-334 77.5,-298 183.5,-298 183.5,-334"/>
<text text-anchor="middle" x="130.5" y="-312.3" font-family="Helvetica,sans-Serif" font-size="14.00">Computation</text>
</g>
<!-- InferenceRule -->
<g id="node4" class="node">
<title>InferenceRule</title>
<polygon fill="white" stroke="black" points="186.5,-240 74.5,-240 74.5,-204 186.5,-204 186.5,-240"/>
<text text-anchor="middle" x="130.5" y="-218.3" font-family="Helvetica,sans-Serif" font-size="14.00">InferenceRule</text>
</g>
<!-- ModelBasedComputation -->
<g id="node5" class="node">
<title>ModelBasedComputation</title>
<polygon fill="white" stroke="black" points="225.5,-146 35.5,-146 35.5,-110 225.5,-110 225.5,-146"/>
<text text-anchor="middle" x="130.5" y="-124.3" font-family="Helvetica,sans-Serif" font-size="14.00">ModelBasedComputation</text>
</g>
<!-- SensingActivity -->
<g id="node6" class="node">
<title>SensingActivity</title>
<polygon fill="white" stroke="black" points="192,-52 69,-52 69,-16 192,-16 192,-52"/>
<text text-anchor="middle" x="130.5" y="-30.3" font-family="Helvetica,sans-Serif" font-size="14.00">SensingActivity</text>
</g>
<!-- AtHome -->
<g id="node7" class="node">
<title>AtHome</title>
<polygon fill="white" stroke="black" points="166,-1180 95,-1180 95,-1144 166,-1144 166,-1180"/>
<text text-anchor="middle" x="130.5" y="-1158.3" font-family="Helvetica,sans-Serif" font-size="14.00">AtHome</text>
</g>
<!-- ContextualSituation -->
<g id="node8" class="node">
<title>ContextualSituation</title>
<polygon fill="white" stroke="black" points="207,-1086 54,-1086 54,-1050 207,-1050 207,-1086"/>
<text text-anchor="middle" x="130.5" y="-1064.3" font-family="Helvetica,sans-Serif" font-size="14.00">ContextualSituation</text>
</g>
<!-- DailyInterval -->
<g id="node9" class="node">
<title>DailyInterval</title>
<polygon fill="white" stroke="black" points="182.5,-992 78.5,-992 78.5,-956 182.5,-956 182.5,-992"/>
<text text-anchor="middle" x="130.5" y="-970.3" font-family="Helvetica,sans-Serif" font-size="14.00">DailyInterval</text>
</g>
<!-- DataTransferEvent -->
<g id="node10" class="node">
<title>DataTransferEvent</title>
<polygon fill="white" stroke="black" points="203.5,-898 57.5,-898 57.5,-862 203.5,-862 203.5,-898"/>
<text text-anchor="middle" x="130.5" y="-876.3" font-family="Helvetica,sans-Serif" font-size="14.00">DataTransferEvent</text>
</g>
<!-- Event -->
<g id="node11" class="node">
<title>Event</title>
<polygon fill="white" stroke="black" points="158.5,-804 102.5,-804 102.5,-768 158.5,-768 158.5,-804"/>
<text text-anchor="middle" x="130.5" y="-782.3" font-family="Helvetica,sans-Serif" font-size="14.00">Event</text>
</g>
<!-- EventWindow -->
<g id="node12" class="node">
<title>EventWindow</title>
<polygon fill="white" stroke="black" points="186,-710 75,-710 75,-674 186,-674 186,-710"/>
<text text-anchor="middle" x="130.5" y="-688.3" font-family="Helvetica,sans-Serif" font-size="14.00">EventWindow</text>
</g>
<!-- ContextualLayer_more -->
<g id="node13" class="node">
<title>ContextualLayer_more</title>
<polygon fill="white" stroke="transparent" points="173.5,-616 87.5,-616 87.5,-580 173.5,-580 173.5,-616"/>
<text text-anchor="middle" x="130.5" y="-594.3" font-family="Helvetica,sans-Serif" font-size="14.00" fill="#7f7f7f">+19 more</text>
</g>
<!-- ActivityAndSleepFeature -->
<g id="node14" class="node">
<title>ActivityAndSleepFeature</title>
<polygon fill="white" stroke="black" points="223,-1838 38,-1838 38,-1802 223,-1802 223,-1838"/>
<text text-anchor="middle" x="130.5" y="-1816.3" font-family="Helvetica,sans-Serif" font-size="14.00">ActivityAndSleepFeature</text>
</g>
<!-- ActivityIntensityProfile -->
<g id="node15" class="node">
<title>ActivityIntensityProfile</title>
<polygon fill="white" stroke="black" points="216,-1744 45,-1744 45,-1708 216,-1708 216,-1744"/>
<text text-anchor="middle" x="130.5" y="-1722.3" font-family="Helvetica,sans-Serif" font-size="14.00">ActivityIntensityProfile</text>
</g>
<!-- ActivityPatternFeature -->
<g id="node16" class="node">
<title>ActivityPatternFeature</title>
<polygon fill="white" stroke="black" points="214.5,-1650 46.5,-1650 46.5,-1614 214.5,-1614 214.5,-1650"/>
<text text-anchor="middle" x="130.5" y="-1628.3" font-family="Helvetica,sans-Serif" font-size="14.00">ActivityPatternFeature</text>
</g>
<!-- ActivityRegularity -->
<g id="node17" class="node">
<title>ActivityRegularity</title>
<polygon fill="white" stroke="black" points="199.5,-1556 61.5,-1556 61.5,-1520 199.5,-1520 199.5,-1556"/>
<text text-anchor="middle" x="130.5" y="-1534.3" font-family="Helvetica,sans-Serif" font-size="14.00">ActivityRegularity</text>
</g>
<!-- CircadianRhythmScore -->
<g id="node18" class="node">
<title>CircadianRhythmScore</title>
<polygon fill="white" stroke="black" points="217.5,-1462 43.5,-1462 43.5,-1426 217.5,-1426 217.5,-1462"/>
<text text-anchor="middle" x="130.5" y="-1440.3" font-family="Helvetica,sans-Serif" font-size="14.00">CircadianRhythmScore</text>
</g>
<!-- DerivedFeature -->
<g id="node19" class="node">
<title>DerivedFeature</title>
<polygon fill="white" stroke="black" points="191.5,-1368 69.5,-1368 69.5,-1332 191.5,-1332 191.5,-1368"/>
<text text-anchor="middle" x="130.5" y="-1346.3" font-family="Helvetica,sans-Serif" font-size="14.00">DerivedFeature</text>
</g>
<!-- DerivedFeatureLayer_more -->
<g id="node20" class="node">
<title>DerivedFeatureLayer_more</title>
<polygon fill="white" stroke="transparent" points="173.5,-1274 87.5,-1274 87.5,-1238 173.5,-1238 173.5,-1274"/>
<text text-anchor="middle" x="130.5" y="-1252.3" font-family="Helvetica,sans-Serif" font-size="14.00" fill="#7f7f7f">+16 more</text>
</g>
<!-- ActivityFlattening -->
<g id="node21" class="node">
<title>ActivityFlattening</title>
<polygon fill="white" stroke="black" points="199,-2496 62,-2496 62,-2460 199,-2460 199,-2496"/>
<text text-anchor="middle" x="130.5" y="-2474.3" font-family="Helvetica,sans-Serif" font-size="14.00">ActivityFlattening</text>
</g>
<!-- ActivityPhenotype -->
<g id="node22" class="node">
<title>ActivityPhenotype</title>
<polygon fill="white" stroke="black" points="201,-2402 60,-2402 60,-2366 201,-2366 201,-2402"/>
<text text-anchor="middle" x="130.5" y="-2380.3" font-family="Helvetica,sans-Serif" font-size="14.00">ActivityPhenotype</text>
</g>
<!-- DelayedSleepPhase -->
<g id="node23" class="node">
<title>DelayedSleepPhase</title>
<polygon fill="white" stroke="black" points="206.5,-2308 54.5,-2308 54.5,-2272 206.5,-2272 206.5,-2308"/>
<text text-anchor="middle" x="130.5" y="-2286.3" font-family="Helvetica,sans-Serif" font-size="14.00">DelayedSleepPhase</text>
</g>
<!-- DepressionRisk -->
<g id="node24" class="node">
<title>DepressionRisk</title>
<polygon fill="white" stroke="black" points="192,-2214 69,-2214 69,-2178 192,-2178 192,-2214"/>
<text text-anchor="middle" x="130.5" y="-2192.3" font-family="Helvetica,sans-Serif" font-size="14.00">DepressionRisk</text>
</g>
<!-- DigitalPhenotype -->
<g id="node25" class="node">
<title>DigitalPhenotype</title>
<polygon fill="white" stroke="black" points="197.5,-2120 63.5,-2120 63.5,-2084 197.5,-2084 197.5,-2120"/>
<text text-anchor="middle" x="130.5" y="-2098.3" font-family="Helvetica,sans-Serif" font-size="14.00">DigitalPhenotype</text>
</g>
<!-- ElevatedMood -->
<g id="node26" class="node">
<title>ElevatedMood</title>
<polygon fill="white" stroke="black" points="187.5,-2026 73.5,-2026 73.5,-1990 187.5,-1990 187.5,-2026"/>
<text text-anchor="middle" x="130.5" y="-2004.3" font-family="Helvetica,sans-Serif" font-size="14.00">ElevatedMood</text>
</g>
<!-- DigitalPhenotypeLayer_more -->
<g id="node27" class="node">
<title>DigitalPhenotypeLayer_more</title>
<polygon fill="white" stroke="transparent" points="173.5,-1932 87.5,-1932 87.5,-1896 173.5,-1896 173.5,-1932"/>
<text text-anchor="middle" x="130.5" y="-1910.3" font-family="Helvetica,sans-Serif" font-size="14.00" fill="#7f7f7f">+14 more</text>
</g>
<!-- AccelerometerMeasurement -->
<g id="node28" class="node">
<title>AccelerometerMeasurement</title>
<polygon fill="white" stroke="black" points="235.5,-3154 25.5,-3154 25.5,-3118 235.5,-3118 235.5,-3154"/>
<text text-anchor="middle" x="130.5" y="-3132.3" font-family="Helvetica,sans-Serif" font-size="14.00">AccelerometerMeasurement</text>
</g>
<!-- ActivityMeasurement -->
<g id="node29" class="node">
<title>ActivityMeasurement</title>
<polygon fill="white" stroke="black" points="211.5,-3060 49.5,-3060 49.5,-3024 211.5,-3024 211.5,-3060"/>
<text text-anchor="middle" x="130.5" y="-3038.3" font-family="Helvetica,sans-Serif" font-size="14.00">ActivityMeasurement</text>
</g>
<!-- AmbientLightMeasurement -->
<g id="node30" class="node">
<title>AmbientLightMeasurement</title>
<polygon fill="white" stroke="black" points="232.5,-2966 28.5,-2966 28.5,-2930 232.5,-2930 232.5,-2966"/>
<text text-anchor="middle" x="130.5" y="-2944.3" font-family="Helvetica,sans-Serif" font-size="14.00">AmbientLightMeasurement</text>
</g>
<!-- AmbientPressureMeasurement -->
<g id="node31" class="node">
<title>AmbientPressureMeasurement</title>
<polygon fill="white" stroke="black" points="245,-2872 16,-2872 16,-2836 245,-2836 245,-2872"/>
<text text-anchor="middle" x="130.5" y="-2850.3" font-family="Helvetica,sans-Serif" font-size="14.00">AmbientPressureMeasurement</text>
</g>
<!-- AppEngagementMetric -->
<g id="node32" class="node">
<title>AppEngagementMetric</title>
<polygon fill="white" stroke="black" points="218.5,-2778 42.5,-2778 42.5,-2742 218.5,-2742 218.5,-2778"/>
<text text-anchor="middle" x="130.5" y="-2756.3" font-family="Helvetica,sans-Serif" font-size="14.00">AppEngagementMetric</text>
</g>
<!-- AppLaunchMeasurement -->
<g id="node33" class="node">
<title>AppLaunchMeasurement</title>
<polygon fill="white" stroke="black" points="225,-2684 36,-2684 36,-2648 225,-2648 225,-2684"/>
<text text-anchor="middle" x="130.5" y="-2662.3" font-family="Helvetica,sans-Serif" font-size="14.00">AppLaunchMeasurement</text>
</g>
<!-- MeasurementLayer_more -->
<g id="node34" class="node">
<title>MeasurementLayer_more</title>
<polygon fill="white" stroke="transparent" points="173.5,-2590 87.5,-2590 87.5,-2554 173.5,-2554 173.5,-2590"/>
<text text-anchor="middle" x="130.5" y="-2568.3" font-family="Helvetica,sans-Serif" font-size="14.00" fill="#7f7f7f">+32 more</text>
</g>
<!-- APIProvider -->
<g id="node35" class="node">
<title>APIProvider</title>
<polygon fill="white" stroke="black" points="178.5,-3812 82.5,-3812 82.5,-3776 178.5,-3776 178.5,-3812"/>
<text text-anchor="middle" x="130.5" y="-3790.3" font-family="Helvetica,sans-Serif" font-size="14.00">APIProvider</text>
</g>
<!-- AppInterface -->
<g id="node36" class="node">
<title>AppInterface</title>
<polygon fill="white" stroke="black" points="184,-3718 77,-3718 77,-3682 184,-3682 184,-3718"/>
<text text-anchor="middle" x="130.5" y="-3696.3" font-family="Helvetica,sans-Serif" font-size="14.00">AppInterface</text>
</g>
<!-- AppModule -->
<g id="node37" class="node">
<title>AppModule</title>
<polygon fill="white" stroke="black" points="178,-3624 83,-3624 83,-3588 178,-3588 178,-3624"/>
<text text-anchor="middle" x="130.5" y="-3602.3" font-family="Helvetica,sans-Serif" font-size="14.00">AppModule</text>
</g>
<!-- DataInterface -->
<g id="node38" class="node">
<title>DataInterface</title>
<polygon fill="white" stroke="black" points="186,-3530 75,-3530 75,-3494 186,-3494 186,-3530"/>
<text text-anchor="middle" x="130.5" y="-3508.3" font-family="Helvetica,sans-Serif" font-size="14.00">DataInterface</text>
</g>
<!-- DataSet -->
<g id="node39" class="node">
<title>DataSet</title>
<polygon fill="white" stroke="black" points="166,-3436 95,-3436 95,-3400 166,-3400 166,-3436"/>
<text text-anchor="middle" x="130.5" y="-3414.3" font-family="Helvetica,sans-Serif" font-size="14.00">DataSet</text>
</g>
<!-- Device -->
<g id="node40" class="node">
<title>Device</title>
<polygon fill="white" stroke="black" points="162,-3342 99,-3342 99,-3306 162,-3306 162,-3342"/>
<text text-anchor="middle" x="130.5" y="-3320.3" font-family="Helvetica,sans-Serif" font-size="14.00">Device</text>
</g>
<!-- ProvenanceLayer_more -->
<g id="node41" class="node">
<title>ProvenanceLayer_more</title>
<polygon fill="white" stroke="transparent" points="169,-3248 92,-3248 92,-3212 169,-3212 169,-3248"/>
<text text-anchor="middle" x="130.5" y="-3226.3" font-family="Helvetica,sans-Serif" font-size="14.00" fill="#7f7f7f">+7 more</text>
</g>
<!-- LikertFormat -->
<g id="node42" class="node">
<title>LikertFormat</title>
<polygon fill="white" stroke="black" points="182,-4470 79,-4470 79,-4434 182,-4434 182,-4470"/>
<text text-anchor="middle" x="130.5" y="-4448.3" font-family="Helvetica,sans-Serif" font-size="14.00">LikertFormat</text>
</g>
<!-- MoodDomain -->
<g id="node43" class="node">
<title>MoodDomain</title>
<polygon fill="white" stroke="black" points="184,-4376 77,-4376 77,-4340 184,-4340 184,-4376"/>
<text text-anchor="middle" x="130.5" y="-4354.3" font-family="Helvetica,sans-Serif" font-size="14.00">MoodDomain</text>
</g>
<!-- MultipleChoiceFormat -->
<g id="node44" class="node">
<title>MultipleChoiceFormat</title>
<polygon fill="white" stroke="black" points="213.5,-4282 47.5,-4282 47.5,-4246 213.5,-4246 213.5,-4282"/>
<text text-anchor="middle" x="130.5" y="-4260.3" font-family="Helvetica,sans-Serif" font-size="14.00">MultipleChoiceFormat</text>
</g>
<!-- ParanoiaDomain -->
<g id="node45" class="node">
<title>ParanoiaDomain</title>
<polygon fill="white" stroke="black" points="195,-4188 66,-4188 66,-4152 195,-4152 195,-4188"/>
<text text-anchor="middle" x="130.5" y="-4166.3" font-family="Helvetica,sans-Serif" font-size="14.00">ParanoiaDomain</text>
</g>
<!-- Question -->
<g id="node46" class="node">
<title>Question</title>
<polygon fill="white" stroke="black" points="170,-4094 91,-4094 91,-4058 170,-4058 170,-4094"/>
<text text-anchor="middle" x="130.5" y="-4072.3" font-family="Helvetica,sans-Serif" font-size="14.00">Question</text>
</g>
<!-- QuestionDomain -->
<g id="node47" class="node">
<title>QuestionDomain</title>
<polygon fill="white" stroke="black" points="196.5,-4000 64.5,-4000 64.5,-3964 196.5,-3964 196.5,-4000"/>
<text text-anchor="middle" x="130.5" y="-3978.3" font-family="Helvetica,sans-Serif" font-size="14.00">QuestionDomain</text>
</g>
<!-- QuestionnaireLayer_more -->
<g id="node48" class="node">
<title>QuestionnaireLayer_more</title>
<polygon fill="white" stroke="transparent" points="169,-3906 92,-3906 92,-3870 169,-3870 169,-3906"/>
<text text-anchor="middle" x="130.5" y="-3884.3" font-family="Helvetica,sans-Serif" font-size="14.00" fill="#7f7f7f">+7 more</text>
</g>
</g>
</svg>
