<?xml version="1.0" encoding="UTF-8" standalone="no"?>
<!DOCTYPE svg PUBLIC "-//W3C//DTD SVG 1.1//EN"
 "http://www.w3.org/Graphics/SVG/1.1/DTD/svg11.dtd">
<!-- Generated by graphviz version 2.43.0 (0)
 -->
<!-- Title: Object Properties Pages: 1 -->
<svg width="1656pt" height="724pt"
 viewBox="0.00 0.00 1655.70 724.04" xmlns="http://www.w3.org/2000/svg" xmlns:xlink="http://www.w3.org/1999/xlink">
<g id="graph0" class="graph" transform="scale(1 1) rotate(0) translate(4 720.04)">
<title>Object Properties</title>
<polygon fill="white" stroke="transparent" points="-4,4 -4,-720.04 1651.7,-720.04 1651.7,4 -4,4"/>
<!-- Participant -->
<g id="node1" class="node">
<title>Participant</title>
<polygon fill="lightblue" stroke="black" points="1375.82,-338.27 1285.82,-338.27 1285.82,-302.27 1375.82,-302.27 1375.82,-338.27"/>
<text text-anchor="middle" x="1330.82" y="-316.57" font-family="Helvetica,sans-Serif" font-size="14.00">Participant</text>
</g>
<!-- DataSet -->
<g id="node2" class="node">
<title>DataSet</title>
<polygon fill="lightblue" stroke="black" points="1381.66,-593.57 1305.66,-593.57 1305.66,-557.57 1381.66,-557.57 1381.66,-593.57"/>
<text text-anchor="middle" x="1343.66" y="-571.87" font-family="Helvetica,sans-Serif" font-size="14.00">Data Set</text>
</g>
<!-- usedDataInterface -->
<g id="node34" class="node">
<title>usedDataInterface</title>
<ellipse fill="lightyellow" stroke="black" cx="1309.39" cy="-646.99" rx="98.58" ry="18"/>
<text text-anchor="middle" x="1309.39" y="-643.29" font-family="Helvetica,sans-Serif" font-size="14.00">used data interface</text>
</g>
<!-- DataSet&#45;&gt;usedDataInterface -->
<g id="edge16" class="edge">
<title>DataSet&#45;&gt;usedDataInterface</title>
<path fill="none" stroke="blue" d="M1335.01,-593.59C1331.23,-601.48 1326.7,-610.92 1322.51,-619.64"/>
<polygon fill="blue" stroke="blue" points="1319.33,-618.2 1318.15,-628.73 1325.64,-621.22 1319.33,-618.2"/>
<text text-anchor="middle" x="1308.21" y="-613.9" font-family="Helvetica,sans-Serif" font-size="10.00">domain</text>
</g>
<!-- wasCollectedFrom -->
<g id="node44" class="node">
<title>wasCollectedFrom</title>
<ellipse fill="lightyellow" stroke="black" cx="1351.28" cy="-458.95" rx="94.78" ry="18"/>
<text text-anchor="middle" x="1351.28" y="-455.25" font-family="Helvetica,sans-Serif" font-size="14.00">was collected from</text>
</g>
<!-- DataSet&#45;&gt;wasCollectedFrom -->
<g id="edge30" class="edge">
<title>DataSet&#45;&gt;wasCollectedFrom</title>
<path fill="none" stroke="blue" d="M1344.85,-557.35C1346.08,-538.52 1348.02,-508.88 1349.45,-487.05"/>
<polygon fill="blue" stroke="blue" points="1352.94,-487.25 1350.1,-477.04 1345.96,-486.79 1352.94,-487.25"/>
<text text-anchor="middle" x="1329" y="-519.87" font-family="Helvetica,sans-Serif" font-size="10.00">domain</text>
</g>
<!-- SleepStageMeasurement -->
<g id="node3" class="node">
<title>SleepStageMeasurement</title>
<polygon fill="lightblue" stroke="black" points="1146.66,-716.04 948.66,-716.04 948.66,-680.04 1146.66,-680.04 1146.66,-716.04"/>
<text text-anchor="middle" x="1047.66" y="-694.34" font-family="Helvetica,sans-Serif" font-size="14.00">Sleep Stage Measurement</text>
</g>
<!-- hasStage -->
<g id="node37" class="node">
<title>hasStage</title>
<ellipse fill="lightyellow" stroke="black" cx="886.05" cy="-698" rx="54.69" ry="18"/>
<text text-anchor="middle" x="886.05" y="-694.3" font-family="Helvetica,sans-Serif" font-size="14.00">has stage</text>
</g>
<!-- SleepStageMeasurement&#45;&gt;hasStage -->
<g id="edge22" class="edge">
<title>SleepStageMeasurement&#45;&gt;hasStage</title>
<path fill="none" stroke="blue" d="M948.53,-698.02C948.37,-698.02 948.2,-698.02 948.04,-698.02"/>
<polygon fill="blue" stroke="blue" points="950.78,-694.52 940.78,-698.01 950.78,-701.52 950.78,-694.52"/>
<text text-anchor="middle" x="929.6" y="-701.02" font-family="Helvetica,sans-Serif" font-size="10.00">domain</text>
</g>
<!-- Device -->
<g id="node4" class="node">
<title>Device</title>
<polygon fill="lightblue" stroke="black" points="969.29,-495.32 906.29,-495.32 906.29,-459.32 969.29,-459.32 969.29,-495.32"/>
<text text-anchor="middle" x="937.79" y="-473.62" font-family="Helvetica,sans-Serif" font-size="14.00">Device</text>
</g>
<!-- QuestionnaireEntry -->
<g id="node5" class="node">
<title>QuestionnaireEntry</title>
<polygon fill="lightblue" stroke="black" points="1565.03,-339.13 1410.03,-339.13 1410.03,-303.13 1565.03,-303.13 1565.03,-339.13"/>
<text text-anchor="middle" x="1487.53" y="-317.43" font-family="Helvetica,sans-Serif" font-size="14.00">Questionnaire Entry</text>
</g>
<!-- hasResponseItem -->
<g id="node31" class="node">
<title>hasResponseItem</title>
<ellipse fill="lightyellow" stroke="black" cx="1520.03" cy="-374.43" rx="93.68" ry="18"/>
<text text-anchor="middle" x="1520.03" y="-370.73" font-family="Helvetica,sans-Serif" font-size="14.00">has response item</text>
</g>
<!-- QuestionnaireEntry&#45;&gt;hasResponseItem -->
<g id="edge10" class="edge">
<title>QuestionnaireEntry&#45;&gt;hasResponseItem</title>
<path fill="none" stroke="blue" d="M1498.53,-339.18C1500.23,-341.96 1502.01,-344.87 1503.79,-347.79"/>
<polygon fill="blue" stroke="blue" points="1500.84,-349.69 1509.04,-356.4 1506.82,-346.04 1500.84,-349.69"/>
<text text-anchor="middle" x="1485.12" y="-350.52" font-family="Helvetica,sans-Serif" font-size="10.00">domain</text>
</g>
<!-- wasReportedBy -->
<g id="node39" class="node">
<title>wasReportedBy</title>
<ellipse fill="lightyellow" stroke="black" cx="1429.29" cy="-276.21" rx="83.69" ry="18"/>
<text text-anchor="middle" x="1429.29" y="-272.51" font-family="Helvetica,sans-Serif" font-size="14.00">was reported by</text>
</g>
<!-- QuestionnaireEntry&#45;&gt;wasReportedBy -->
<g id="edge26" class="edge">
<title>QuestionnaireEntry&#45;&gt;wasReportedBy</title>
<path fill="none" stroke="blue" d="M1464.18,-303.12C1462.79,-302.04 1461.38,-300.96 1459.96,-299.86"/>
<polygon fill="blue" stroke="blue" points="1461.95,-296.98 1451.89,-293.64 1457.67,-302.52 1461.95,-296.98"/>
<text text-anchor="middle" x="1441.53" y="-291.92" font-family="Helvetica,sans-Serif" font-size="10.00">domain</text>
</g>
<!-- NotificationEvent -->
<g id="node6" class="node">
<title>NotificationEvent</title>
<polygon fill="lightblue" stroke="black" points="578.3,-426.77 438.3,-426.77 438.3,-390.77 578.3,-390.77 578.3,-426.77"/>
<text text-anchor="middle" x="508.3" y="-405.07" font-family="Helvetica,sans-Serif" font-size="14.00">Notification Event</text>
</g>
<!-- usedAppInterface -->
<g id="node36" class="node">
<title>usedAppInterface</title>
<ellipse fill="lightyellow" stroke="black" cx="544.21" cy="-500.24" rx="95.58" ry="18"/>
<text text-anchor="middle" x="544.21" y="-496.54" font-family="Helvetica,sans-Serif" font-size="14.00">used app interface</text>
</g>
<!-- NotificationEvent&#45;&gt;usedAppInterface -->
<g id="edge20" class="edge">
<title>NotificationEvent&#45;&gt;usedAppInterface</title>
<path fill="none" stroke="blue" d="M555.46,-426.96C558.09,-429.33 560.43,-431.99 562.31,-435 570.75,-448.47 569.36,-456.72 563.61,-472.69"/>
<polygon fill="blue" stroke="blue" points="560.19,-471.84 560.01,-482.44 566.76,-474.27 560.19,-471.84"/>
<text text-anchor="middle" x="586.65" y="-458.63" font-family="Helvetica,sans-Serif" font-size="10.00">domain</text>
</g>
<!-- Feature -->
<g id="node7" class="node">
<title>Feature</title>
<polygon fill="lightblue" stroke="black" points="360.97,-315.79 292.97,-315.79 292.97,-279.79 360.97,-279.79 360.97,-315.79"/>
<text text-anchor="middle" x="326.97" y="-294.09" font-family="Helvetica,sans-Serif" font-size="14.00">Feature</text>
</g>
<!-- requiresComputation -->
<g id="node24" class="node">
<title>requiresComputation</title>
<ellipse fill="lightyellow" stroke="black" cx="463.34" cy="-209.58" rx="106.68" ry="18"/>
<text text-anchor="middle" x="463.34" y="-205.88" font-family="Helvetica,sans-Serif" font-size="14.00">requires computation</text>
</g>
<!-- Feature&#45;&gt;requiresComputation -->
<g id="edge3" class="edge">
<title>Feature&#45;&gt;requiresComputation</title>
<path fill="none" stroke="blue" d="M337.12,-279.7C342.75,-270.94 350.42,-260.81 359.33,-253.71 371.8,-243.79 386.82,-235.72 401.52,-229.33"/>
<polygon fill="blue" stroke="blue" points="403.2,-232.42 411.11,-225.37 400.53,-225.95 403.2,-232.42"/>
<text text-anchor="middle" x="351.25" y="-249.19" font-family="Helvetica,sans-Serif" font-size="10.00">domain</text>
</g>
<!-- hasMeasurement -->
<g id="node28" class="node">
<title>hasMeasurement</title>
<ellipse fill="lightyellow" stroke="black" cx="284.81" cy="-341.8" rx="92.08" ry="18"/>
<text text-anchor="middle" x="284.81" y="-338.1" font-family="Helvetica,sans-Serif" font-size="14.00">has measurement</text>
</g>
<!-- Feature&#45;&gt;hasMeasurement -->
<g id="edge8" class="edge">
<title>Feature&#45;&gt;hasMeasurement</title>
<path fill="none" stroke="blue" d="M309.58,-315.95C309.42,-316.11 309.26,-316.28 309.1,-316.44"/>
<polygon fill="blue" stroke="blue" points="306.28,-314.33 301.89,-323.97 311.34,-319.17 306.28,-314.33"/>
<text text-anchor="middle" x="290.63" y="-319.41" font-family="Helvetica,sans-Serif" font-size="10.00">domain</text>
</g>
<!-- supportsInferenceOf -->
<g id="node47" class="node">
<title>supportsInferenceOf</title>
<ellipse fill="lightyellow" stroke="black" cx="468.17" cy="-253.76" rx="107.48" ry="18"/>
<text text-anchor="middle" x="468.17" y="-250.06" font-family="Helvetica,sans-Serif" font-size="14.00">supports inference of</text>
</g>
<!-- Feature&#45;&gt;supportsInferenceOf -->
<g id="edge33" class="edge">
<title>Feature&#45;&gt;supportsInferenceOf</title>
<path fill="none" stroke="blue" d="M361.15,-287.14C375.08,-282.79 391.6,-277.64 407.45,-272.7"/>
<polygon fill="blue" stroke="blue" points="408.7,-275.97 417.2,-269.66 406.61,-269.29 408.7,-275.97"/>
<text text-anchor="middle" x="407.64" y="-281.41" font-family="Helvetica,sans-Serif" font-size="10.00">domain</text>
</g>
<!-- ResponseFormat -->
<g id="node8" class="node">
<title>ResponseFormat</title>
<polygon fill="lightblue" stroke="black" points="1567.6,-644.11 1431.6,-644.11 1431.6,-608.11 1567.6,-608.11 1567.6,-644.11"/>
<text text-anchor="middle" x="1499.6" y="-622.41" font-family="Helvetica,sans-Serif" font-size="14.00">Response Format</text>
</g>
<!-- ResponseItem -->
<g id="node9" class="node">
<title>ResponseItem</title>
<polygon fill="lightblue" stroke="black" points="1607.62,-442.89 1488.62,-442.89 1488.62,-406.89 1607.62,-406.89 1607.62,-442.89"/>
<text text-anchor="middle" x="1548.12" y="-421.19" font-family="Helvetica,sans-Serif" font-size="14.00">Response Item</text>
</g>
<!-- answersQuestion -->
<g id="node25" class="node">
<title>answersQuestion</title>
<ellipse fill="lightyellow" stroke="black" cx="1557.36" cy="-479.53" rx="90.18" ry="18"/>
<text text-anchor="middle" x="1557.36" y="-475.83" font-family="Helvetica,sans-Serif" font-size="14.00">answers question</text>
</g>
<!-- ResponseItem&#45;&gt;answersQuestion -->
<g id="edge5" class="edge">
<title>ResponseItem&#45;&gt;answersQuestion</title>
<path fill="none" stroke="blue" d="M1551.2,-443.09C1551.64,-445.73 1552.11,-448.51 1552.58,-451.29"/>
<polygon fill="blue" stroke="blue" points="1549.15,-451.95 1554.26,-461.23 1556.05,-450.79 1549.15,-451.95"/>
<text text-anchor="middle" x="1534.06" y="-454.16" font-family="Helvetica,sans-Serif" font-size="10.00">domain</text>
</g>
<!-- DerivedFeature -->
<g id="node10" class="node">
<title>DerivedFeature</title>
<polygon fill="lightblue" stroke="black" points="1128,-123.7 1001,-123.7 1001,-87.7 1128,-87.7 1128,-123.7"/>
<text text-anchor="middle" x="1064.5" y="-102" font-family="Helvetica,sans-Serif" font-size="14.00">Derived Feature</text>
</g>
<!-- wasDerivedFrom -->
<g id="node32" class="node">
<title>wasDerivedFrom</title>
<ellipse fill="lightyellow" stroke="black" cx="1221.22" cy="-62.12" rx="85.29" ry="18"/>
<text text-anchor="middle" x="1221.22" y="-58.42" font-family="Helvetica,sans-Serif" font-size="14.00">wasDerivedFrom</text>
</g>
<!-- DerivedFeature&#45;&gt;wasDerivedFrom -->
<g id="edge12" class="edge">
<title>DerivedFeature&#45;&gt;wasDerivedFrom</title>
<path fill="none" stroke="blue" d="M1128.25,-87.97C1138.65,-85.08 1149.41,-82.09 1159.76,-79.21"/>
<polygon fill="blue" stroke="blue" points="1160.83,-82.55 1169.53,-76.5 1158.95,-75.8 1160.83,-82.55"/>
<text text-anchor="middle" x="1167.47" y="-85.21" font-family="Helvetica,sans-Serif" font-size="10.00">domain</text>
</g>
<!-- wasComputedBy -->
<g id="node50" class="node">
<title>wasComputedBy</title>
<ellipse fill="lightyellow" stroke="black" cx="940.25" cy="-149.71" rx="90.98" ry="18"/>
<text text-anchor="middle" x="940.25" y="-146.01" font-family="Helvetica,sans-Serif" font-size="14.00">was computed by</text>
</g>
<!-- DerivedFeature&#45;&gt;wasComputedBy -->
<g id="edge37" class="edge">
<title>DerivedFeature&#45;&gt;wasComputedBy</title>
<path fill="none" stroke="blue" d="M1013.61,-123.73C1007.36,-125.94 1000.96,-128.21 994.66,-130.44"/>
<polygon fill="blue" stroke="blue" points="993.15,-127.26 984.9,-133.9 995.49,-133.86 993.15,-127.26"/>
<text text-anchor="middle" x="980.6" y="-120.86" font-family="Helvetica,sans-Serif" font-size="10.00">domain</text>
</g>
<!-- Thing -->
<g id="node11" class="node">
<title>Thing</title>
<polygon fill="lightblue" stroke="black" points="1307.63,-136.62 1251.63,-136.62 1251.63,-100.62 1307.63,-100.62 1307.63,-136.62"/>
<text text-anchor="middle" x="1279.63" y="-114.92" font-family="Helvetica,sans-Serif" font-size="14.00">Thing</text>
</g>
<!-- wasGeneratedBy -->
<g id="node33" class="node">
<title>wasGeneratedBy</title>
<ellipse fill="lightyellow" stroke="black" cx="1135.19" cy="-176.78" rx="87.18" ry="18"/>
<text text-anchor="middle" x="1135.19" y="-173.08" font-family="Helvetica,sans-Serif" font-size="14.00">wasGeneratedBy</text>
</g>
<!-- Thing&#45;&gt;wasGeneratedBy -->
<g id="edge14" class="edge">
<title>Thing&#45;&gt;wasGeneratedBy</title>
<path fill="none" stroke="blue" d="M1251.43,-129.98C1232.4,-137.64 1206.76,-147.96 1184.41,-156.96"/>
<polygon fill="blue" stroke="blue" points="1183.03,-153.74 1175.06,-160.73 1185.64,-160.24 1183.03,-153.74"/>
<text text-anchor="middle" x="1194.66" y="-148.38" font-family="Helvetica,sans-Serif" font-size="10.00">domain</text>
</g>
<!-- hasContext -->
<g id="node35" class="node">
<title>hasContext</title>
<ellipse fill="lightyellow" stroke="black" cx="1302.38" cy="-18.08" rx="63.89" ry="18"/>
<text text-anchor="middle" x="1302.38" y="-14.38" font-family="Helvetica,sans-Serif" font-size="14.00">has context</text>
</g>
<!-- Thing&#45;&gt;hasContext -->
<g id="edge18" class="edge">
<title>Thing&#45;&gt;hasContext</title>
<path fill="none" stroke="blue" d="M1292.17,-100.54C1298.62,-89.92 1305.61,-75.93 1307.96,-62.21 1308.85,-57.02 1308.87,-51.46 1308.42,-46.09"/>
<polygon fill="blue" stroke="blue" points="1311.89,-45.61 1307.08,-36.17 1304.95,-46.55 1311.89,-45.61"/>
<text text-anchor="middle" x="1306" y="-62.58" font-family="Helvetica,sans-Serif" font-size="10.00">domain</text>
</g>
<!-- wasAttributedTo -->
<g id="node51" class="node">
<title>wasAttributedTo</title>
<ellipse fill="lightyellow" stroke="black" cx="1341.64" cy="-192.76" rx="83.39" ry="18"/>
<text text-anchor="middle" x="1341.64" y="-189.06" font-family="Helvetica,sans-Serif" font-size="14.00">wasAttributedTo</text>
</g>
<!-- Thing&#45;&gt;wasAttributedTo -->
<g id="edge39" class="edge">
<title>Thing&#45;&gt;wasAttributedTo</title>
<path fill="none" stroke="blue" d="M1294.95,-136.95C1302.52,-146 1311.78,-157.06 1320.05,-166.95"/>
<polygon fill="blue" stroke="blue" points="1317.6,-169.48 1326.7,-174.9 1322.97,-164.99 1317.6,-169.48"/>
<text text-anchor="middle" x="1292.37" y="-158.98" font-family="Helvetica,sans-Serif" font-size="10.00">domain</text>
</g>
<!-- occursDuring -->
<g id="node52" class="node">
<title>occursDuring</title>
<ellipse fill="lightyellow" stroke="black" cx="1388.01" cy="-74.6" rx="73.39" ry="18"/>
<text text-anchor="middle" x="1388.01" y="-70.9" font-family="Helvetica,sans-Serif" font-size="14.00">occurs during</text>
</g>
<!-- Thing&#45;&gt;occursDuring -->
<g id="edge41" class="edge">
<title>Thing&#45;&gt;occursDuring</title>
<path fill="none" stroke="blue" d="M1307.82,-107.17C1317.71,-103.15 1329.13,-98.52 1340.18,-94.03"/>
<polygon fill="blue" stroke="blue" points="1341.81,-97.14 1349.75,-90.14 1339.17,-90.66 1341.81,-97.14"/>
<text text-anchor="middle" x="1347.23" y="-101.68" font-family="Helvetica,sans-Serif" font-size="10.00">domain</text>
</g>
<!-- QuantityValue -->
<g id="node12" class="node">
<title>QuantityValue</title>
<polygon fill="lightblue" stroke="black" points="285.62,-611.76 171.62,-611.76 171.62,-575.76 285.62,-575.76 285.62,-611.76"/>
<text text-anchor="middle" x="228.62" y="-590.06" font-family="Helvetica,sans-Serif" font-size="14.00">QuantityValue</text>
</g>
<!-- Measurement -->
<g id="node13" class="node">
<title>Measurement</title>
<polygon fill="lightblue" stroke="black" points="325.19,-447.85 214.19,-447.85 214.19,-411.85 325.19,-411.85 325.19,-447.85"/>
<text text-anchor="middle" x="269.69" y="-426.15" font-family="Helvetica,sans-Serif" font-size="14.00">Measurement</text>
</g>
<!-- observedProperty -->
<g id="node26" class="node">
<title>observedProperty</title>
<ellipse fill="lightyellow" stroke="black" cx="176.14" cy="-385.84" rx="90.98" ry="18"/>
<text text-anchor="middle" x="176.14" y="-382.14" font-family="Helvetica,sans-Serif" font-size="14.00">observedProperty</text>
</g>
<!-- Measurement&#45;&gt;observedProperty -->
<g id="edge7" class="edge">
<title>Measurement&#45;&gt;observedProperty</title>
<path fill="none" stroke="blue" d="M231.37,-411.82C227.88,-410.18 224.33,-408.51 220.8,-406.85"/>
<polygon fill="blue" stroke="blue" points="222.08,-403.58 211.54,-402.49 219.1,-409.92 222.08,-403.58"/>
<text text-anchor="middle" x="202.96" y="-410.16" font-family="Helvetica,sans-Serif" font-size="10.00">domain</text>
</g>
<!-- featureOfInterest -->
<g id="node46" class="node">
<title>featureOfInterest</title>
<ellipse fill="lightyellow" stroke="black" cx="109.54" cy="-447.84" rx="91.78" ry="18"/>
<text text-anchor="middle" x="109.54" y="-444.14" font-family="Helvetica,sans-Serif" font-size="14.00">feature of interest</text>
</g>
<!-- Measurement&#45;&gt;featureOfInterest -->
<g id="edge32" class="edge">
<title>Measurement&#45;&gt;featureOfInterest</title>
<path fill="none" stroke="blue" d="M214.12,-436.09C209.35,-436.63 204.45,-437.18 199.49,-437.74"/>
<polygon fill="blue" stroke="blue" points="198.82,-434.29 189.28,-438.89 199.61,-441.25 198.82,-434.29"/>
<text text-anchor="middle" x="201.81" y="-429.48" font-family="Helvetica,sans-Serif" font-size="10.00">domain</text>
</g>
<!-- quantityValue -->
<g id="node54" class="node">
<title>quantityValue</title>
<ellipse fill="lightyellow" stroke="black" cx="186.52" cy="-543.19" rx="75.29" ry="18"/>
<text text-anchor="middle" x="186.52" y="-539.49" font-family="Helvetica,sans-Serif" font-size="14.00">quantity value</text>
</g>
<!-- Measurement&#45;&gt;quantityValue -->
<g id="edge43" class="edge">
<title>Measurement&#45;&gt;quantityValue</title>
<path fill="none" stroke="blue" d="M256.32,-448.06C242.6,-466.76 221.12,-496.04 205.61,-517.17"/>
<polygon fill="blue" stroke="blue" points="202.67,-515.27 199.58,-525.4 208.32,-519.41 202.67,-515.27"/>
<text text-anchor="middle" x="246.32" y="-489.9" font-family="Helvetica,sans-Serif" font-size="10.00">domain</text>
</g>
<!-- DataInterface -->
<g id="node14" class="node">
<title>DataInterface</title>
<polygon fill="lightblue" stroke="black" points="1301.57,-709.07 1185.57,-709.07 1185.57,-673.07 1301.57,-673.07 1301.57,-709.07"/>
<text text-anchor="middle" x="1243.57" y="-687.37" font-family="Helvetica,sans-Serif" font-size="14.00">Data Interface</text>
</g>
<!-- ObservationContext -->
<g id="node15" class="node">
<title>ObservationContext</title>
<polygon fill="lightblue" stroke="black" points="1543.51,-36 1383.51,-36 1383.51,0 1543.51,0 1543.51,-36"/>
<text text-anchor="middle" x="1463.51" y="-14.3" font-family="Helvetica,sans-Serif" font-size="14.00">Observation Context</text>
</g>
<!-- AppInterface -->
<g id="node16" class="node">
<title>AppInterface</title>
<polygon fill="lightblue" stroke="black" points="559.11,-474.2 448.11,-474.2 448.11,-438.2 559.11,-438.2 559.11,-474.2"/>
<text text-anchor="middle" x="503.61" y="-452.5" font-family="Helvetica,sans-Serif" font-size="14.00">App Interface</text>
</g>
<!-- DigitalPhenotype -->
<g id="node17" class="node">
<title>DigitalPhenotype</title>
<polygon fill="lightblue" stroke="black" points="717.67,-227.73 578.67,-227.73 578.67,-191.73 717.67,-191.73 717.67,-227.73"/>
<text text-anchor="middle" x="648.17" y="-206.03" font-family="Helvetica,sans-Serif" font-size="14.00">Digital Phenotype</text>
</g>
<!-- Computation -->
<g id="node18" class="node">
<title>Computation</title>
<polygon fill="lightblue" stroke="black" points="935.84,-255.76 829.84,-255.76 829.84,-219.76 935.84,-219.76 935.84,-255.76"/>
<text text-anchor="middle" x="882.84" y="-234.06" font-family="Helvetica,sans-Serif" font-size="14.00">Computation</text>
</g>
<!-- infersPhenotype -->
<g id="node23" class="node">
<title>infersPhenotype</title>
<ellipse fill="lightyellow" stroke="black" cx="813.43" cy="-193.73" rx="87.99" ry="18"/>
<text text-anchor="middle" x="813.43" y="-190.03" font-family="Helvetica,sans-Serif" font-size="14.00">infers phenotype</text>
</g>
<!-- Computation&#45;&gt;infersPhenotype -->
<g id="edge1" class="edge">
<title>Computation&#45;&gt;infersPhenotype</title>
<path fill="none" stroke="blue" d="M854.21,-219.6C852.53,-218.53 850.83,-217.45 849.13,-216.37"/>
<polygon fill="blue" stroke="blue" points="850.98,-213.4 840.66,-211 847.23,-219.31 850.98,-213.4"/>
<text text-anchor="middle" x="830.71" y="-219.42" font-family="Helvetica,sans-Serif" font-size="10.00">domain</text>
</g>
<!-- associatedWithDevice -->
<g id="node40" class="node">
<title>associatedWithDevice</title>
<ellipse fill="lightyellow" stroke="black" cx="782.2" cy="-390.17" rx="133.48" ry="18"/>
<text text-anchor="middle" x="782.2" y="-386.47" font-family="Helvetica,sans-Serif" font-size="14.00">was associated with device</text>
</g>
<!-- Computation&#45;&gt;associatedWithDevice -->
<g id="edge28" class="edge">
<title>Computation&#45;&gt;associatedWithDevice</title>
<path fill="none" stroke="blue" d="M870.9,-255.84C853.27,-282.54 820.17,-332.67 799.77,-363.56"/>
<polygon fill="blue" stroke="blue" points="796.71,-361.84 794.12,-372.11 802.55,-365.7 796.71,-361.84"/>
<text text-anchor="middle" x="813.9" y="-317.15" font-family="Helvetica,sans-Serif" font-size="10.00">domain</text>
</g>
<!-- Question -->
<g id="node19" class="node">
<title>Question</title>
<polygon fill="lightblue" stroke="black" points="1600.14,-550.04 1521.14,-550.04 1521.14,-514.04 1600.14,-514.04 1600.14,-550.04"/>
<text text-anchor="middle" x="1560.64" y="-528.34" font-family="Helvetica,sans-Serif" font-size="14.00">Question</text>
</g>
<!-- hasResponseFormat -->
<g id="node38" class="node">
<title>hasResponseFormat</title>
<ellipse fill="lightyellow" stroke="black" cx="1531.69" cy="-582.02" rx="103.18" ry="18"/>
<text text-anchor="middle" x="1531.69" y="-578.32" font-family="Helvetica,sans-Serif" font-size="14.00">has response format</text>
</g>
<!-- Question&#45;&gt;hasResponseFormat -->
<g id="edge24" class="edge">
<title>Question&#45;&gt;hasResponseFormat</title>
<path fill="none" stroke="blue" d="M1550.19,-550.09C1549.3,-551.62 1548.38,-553.2 1547.46,-554.79"/>
<polygon fill="blue" stroke="blue" points="1544.21,-553.43 1542.22,-563.84 1550.26,-556.94 1544.21,-553.43"/>
<text text-anchor="middle" x="1529.01" y="-557.71" font-family="Helvetica,sans-Serif" font-size="10.00">domain</text>
</g>
<!-- DataTransferEvent -->
<g id="node20" class="node">
<title>DataTransferEvent</title>
<polygon fill="lightblue" stroke="black" points="1037.87,-613.31 882.87,-613.31 882.87,-577.31 1037.87,-577.31 1037.87,-613.31"/>
<text text-anchor="middle" x="960.37" y="-591.61" font-family="Helvetica,sans-Serif" font-size="14.00">Data Transfer Event</text>
</g>
<!-- usedDevice -->
<g id="node49" class="node">
<title>usedDevice</title>
<ellipse fill="lightyellow" stroke="black" cx="809.66" cy="-558.73" rx="64.99" ry="18"/>
<text text-anchor="middle" x="809.66" y="-555.03" font-family="Helvetica,sans-Serif" font-size="14.00">used device</text>
</g>
<!-- DataTransferEvent&#45;&gt;usedDevice -->
<g id="edge35" class="edge">
<title>DataTransferEvent&#45;&gt;usedDevice</title>
<path fill="none" stroke="blue" d="M885.9,-577.24C880.15,-575.84 874.4,-574.45 868.77,-573.08"/>
<polygon fill="blue" stroke="blue" points="869.35,-569.62 858.8,-570.66 867.7,-576.42 869.35,-569.62"/>
<text text-anchor="middle" x="890.98" y="-565.98" font-family="Helvetica,sans-Serif" font-size="10.00">domain</text>
</g>
<!-- SleepStage -->
<g id="node21" class="node">
<title>SleepStage</title>
<polygon fill="lightblue" stroke="black" points="775,-716.04 680,-716.04 680,-680.04 775,-680.04 775,-716.04"/>
<text text-anchor="middle" x="727.5" y="-694.34" font-family="Helvetica,sans-Serif" font-size="14.00">SleepStage</text>
</g>
<!-- inScheme -->
<g id="node22" class="node">
<title>inScheme</title>
<ellipse fill="lightyellow" stroke="black" cx="615.25" cy="-98" rx="55.49" ry="18"/>
<text text-anchor="middle" x="615.25" y="-94.3" font-family="Helvetica,sans-Serif" font-size="14.00">inScheme</text>
</g>
<!-- infersPhenotype&#45;&gt;DigitalPhenotype -->
<g id="edge2" class="edge">
<title>infersPhenotype&#45;&gt;DigitalPhenotype</title>
<path fill="none" stroke="green" d="M733.7,-201.45C731.89,-201.62 730.07,-201.8 728.25,-201.98"/>
<polygon fill="green" stroke="green" points="727.51,-198.53 717.9,-202.98 728.19,-205.5 727.51,-198.53"/>
<text text-anchor="middle" x="714.34" y="-193.97" font-family="Helvetica,sans-Serif" font-size="10.00">range</text>
</g>
<!-- requiresComputation&#45;&gt;Computation -->
<g id="edge4" class="edge">
<title>requiresComputation&#45;&gt;Computation</title>
<path fill="none" stroke="green" d="M528.59,-223.89C543.89,-226.73 560.2,-229.32 575.47,-230.93 659.57,-239.81 757.3,-240.31 819.58,-239.41"/>
<polygon fill="green" stroke="green" points="819.7,-242.91 829.64,-239.25 819.59,-235.91 819.7,-242.91"/>
<text text-anchor="middle" x="664.87" y="-240.98" font-family="Helvetica,sans-Serif" font-size="10.00">range</text>
</g>
<!-- answersQuestion&#45;&gt;Question -->
<g id="edge6" class="edge">
<title>answersQuestion&#45;&gt;Question</title>
<path fill="none" stroke="green" d="M1558.49,-497.6C1558.61,-499.56 1558.74,-501.59 1558.86,-503.63"/>
<polygon fill="green" stroke="green" points="1555.38,-504 1559.5,-513.76 1562.37,-503.56 1555.38,-504"/>
<text text-anchor="middle" x="1544.86" y="-506.53" font-family="Helvetica,sans-Serif" font-size="10.00">range</text>
</g>
<!-- observedProperty&#45;&gt;observedProperty -->
<g id="edge52" class="edge">
<title>observedProperty&#45;&gt;observedProperty</title>
<path fill="none" stroke="red" stroke-dasharray="5,2" d="M211.76,-402.42C267.74,-420.54 339.13,-415.02 339.13,-385.84 339.13,-358.31 275.6,-351.83 221.4,-366.4"/>
<polygon fill="red" stroke="red" points="220.36,-363.06 211.76,-369.25 222.34,-369.77 220.36,-363.06"/>
<text text-anchor="middle" x="374.13" y="-383.34" font-family="Helvetica,sans-Serif" font-size="10.00">subPropertyOf</text>
</g>
<!-- related -->
<g id="node27" class="node">
<title>related</title>
<ellipse fill="lightyellow" stroke="black" cx="762.25" cy="-98" rx="42.49" ry="18"/>
<text text-anchor="middle" x="762.25" y="-94.3" font-family="Helvetica,sans-Serif" font-size="14.00">related</text>
</g>
<!-- hasMeasurement&#45;&gt;Measurement -->
<g id="edge9" class="edge">
<title>hasMeasurement&#45;&gt;Measurement</title>
<path fill="none" stroke="green" d="M281.68,-360.04C279.61,-372.08 276.86,-388.1 274.51,-401.75"/>
<polygon fill="green" stroke="green" points="271.06,-401.18 272.82,-411.63 277.96,-402.37 271.06,-401.18"/>
<text text-anchor="middle" x="291.21" y="-389.07" font-family="Helvetica,sans-Serif" font-size="10.00">range</text>
</g>
<!-- wasAssociatedWith -->
<g id="node29" class="node">
<title>wasAssociatedWith</title>
<ellipse fill="lightyellow" stroke="black" cx="775.13" cy="-513.27" rx="97.48" ry="18"/>
<text text-anchor="middle" x="775.13" y="-509.57" font-family="Helvetica,sans-Serif" font-size="14.00">wasAssociatedWith</text>
</g>
<!-- broader -->
<g id="node30" class="node">
<title>broader</title>
<ellipse fill="lightyellow" stroke="black" cx="566.15" cy="-698" rx="46.29" ry="18"/>
<text text-anchor="middle" x="566.15" y="-694.3" font-family="Helvetica,sans-Serif" font-size="14.00">broader</text>
</g>
<!-- hasResponseItem&#45;&gt;ResponseItem -->
<g id="edge11" class="edge">
<title>hasResponseItem&#45;&gt;ResponseItem</title>
<path fill="none" stroke="green" d="M1530.01,-392.36C1530.98,-394.11 1531.98,-395.9 1532.98,-397.71"/>
<polygon fill="green" stroke="green" points="1530.06,-399.64 1537.98,-406.68 1536.17,-396.24 1530.06,-399.64"/>
<text text-anchor="middle" x="1518.94" y="-400.62" font-family="Helvetica,sans-Serif" font-size="10.00">range</text>
</g>
<!-- wasDerivedFrom&#45;&gt;Thing -->
<g id="edge13" class="edge">
<title>wasDerivedFrom&#45;&gt;Thing</title>
<path fill="none" stroke="green" d="M1239.7,-80C1243.98,-84.14 1248.62,-88.63 1253.17,-93.03"/>
<polygon fill="green" stroke="green" points="1251.04,-95.84 1260.66,-100.28 1255.91,-90.81 1251.04,-95.84"/>
<text text-anchor="middle" x="1236.18" y="-93.13" font-family="Helvetica,sans-Serif" font-size="10.00">range</text>
</g>
<!-- wasDerivedFrom&#45;&gt;wasDerivedFrom -->
<g id="edge45" class="edge">
<title>wasDerivedFrom&#45;&gt;wasDerivedFrom</title>
<path fill="none" stroke="red" stroke-dasharray="5,2" d="M1255.56,-78.7C1309.54,-96.83 1378.36,-91.3 1378.36,-62.12 1378.36,-34.65 1317.37,-28.14 1265.19,-42.59"/>
<polygon fill="red" stroke="red" points="1264.1,-39.26 1255.56,-45.53 1266.15,-45.96 1264.1,-39.26"/>
<text text-anchor="middle" x="1413.36" y="-59.62" font-family="Helvetica,sans-Serif" font-size="10.00">subPropertyOf</text>
</g>
<!-- wasGeneratedBy&#45;&gt;Computation -->
<g id="edge15" class="edge">
<title>wasGeneratedBy&#45;&gt;Computation</title>
<path fill="none" stroke="green" d="M1078.56,-190.46C1039.22,-199.97 986.78,-212.64 946.08,-222.48"/>
<polygon fill="green" stroke="green" points="945.16,-219.1 936.26,-224.85 946.81,-225.9 945.16,-219.1"/>
<text text-anchor="middle" x="993.41" y="-210.66" font-family="Helvetica,sans-Serif" font-size="10.00">range</text>
</g>
<!-- wasGeneratedBy&#45;&gt;wasGeneratedBy -->
<g id="edge48" class="edge">
<title>wasGeneratedBy&#45;&gt;wasGeneratedBy</title>
<path fill="none" stroke="red" stroke-dasharray="5,2" d="M1169.95,-193.36C1224.6,-211.49 1294.28,-205.96 1294.28,-176.78 1294.28,-149.31 1232.52,-142.8 1179.7,-157.25"/>
<polygon fill="red" stroke="red" points="1178.52,-153.95 1169.95,-160.19 1180.54,-160.65 1178.52,-153.95"/>
<text text-anchor="middle" x="1329.28" y="-174.28" font-family="Helvetica,sans-Serif" font-size="10.00">subPropertyOf</text>
</g>
<!-- usedDataInterface&#45;&gt;DataInterface -->
<g id="edge17" class="edge">
<title>usedDataInterface&#45;&gt;DataInterface</title>
<path fill="none" stroke="green" d="M1283.37,-664.41C1281.94,-665.37 1280.49,-666.34 1279.03,-667.32"/>
<polygon fill="green" stroke="green" points="1277.05,-664.44 1270.69,-672.91 1280.95,-670.25 1277.05,-664.44"/>
<text text-anchor="middle" x="1293.1" y="-670.28" font-family="Helvetica,sans-Serif" font-size="10.00">range</text>
</g>
<!-- hasContext&#45;&gt;ObservationContext -->
<g id="edge19" class="edge">
<title>hasContext&#45;&gt;ObservationContext</title>
<path fill="none" stroke="green" d="M1366.53,-18.05C1368.77,-18.05 1371.04,-18.05 1373.31,-18.05"/>
<polygon fill="green" stroke="green" points="1373.33,-21.55 1383.33,-18.04 1373.32,-14.55 1373.33,-21.55"/>
<text text-anchor="middle" x="1380.2" y="-10.05" font-family="Helvetica,sans-Serif" font-size="10.00">range</text>
</g>
<!-- usedAppInterface&#45;&gt;AppInterface -->
<g id="edge21" class="edge">
<title>usedAppInterface&#45;&gt;AppInterface</title>
<path fill="none" stroke="green" d="M527.7,-482.32C527.54,-482.16 527.39,-481.99 527.23,-481.82"/>
<polygon fill="green" stroke="green" points="529.59,-479.22 520.24,-474.24 524.44,-483.96 529.59,-479.22"/>
<text text-anchor="middle" x="513.26" y="-473.86" font-family="Helvetica,sans-Serif" font-size="10.00">range</text>
</g>
<!-- used -->
<g id="node48" class="node">
<title>used</title>
<ellipse fill="lightyellow" stroke="black" cx="634.28" cy="-544.29" rx="32.49" ry="18"/>
<text text-anchor="middle" x="634.28" y="-540.59" font-family="Helvetica,sans-Serif" font-size="14.00">used</text>
</g>
<!-- usedAppInterface&#45;&gt;used -->
<g id="edge47" class="edge">
<title>usedAppInterface&#45;&gt;used</title>
<path fill="none" stroke="red" stroke-dasharray="5,2" d="M578.78,-517.14C585.87,-520.61 593.33,-524.26 600.4,-527.72"/>
<polygon fill="red" stroke="red" points="599.21,-531.03 609.73,-532.28 602.28,-524.74 599.21,-531.03"/>
<text text-anchor="middle" x="559.36" y="-527.77" font-family="Helvetica,sans-Serif" font-size="10.00">subPropertyOf</text>
</g>
<!-- hasStage&#45;&gt;SleepStage -->
<g id="edge23" class="edge">
<title>hasStage&#45;&gt;SleepStage</title>
<path fill="none" stroke="green" d="M831.04,-698.01C816.22,-698.02 800.14,-698.02 785.17,-698.03"/>
<polygon fill="green" stroke="green" points="785.02,-694.53 775.02,-698.03 785.02,-701.53 785.02,-694.53"/>
<text text-anchor="middle" x="789.08" y="-701.02" font-family="Helvetica,sans-Serif" font-size="10.00">range</text>
</g>
<!-- hasResponseFormat&#45;&gt;ResponseFormat -->
<g id="edge25" class="edge">
<title>hasResponseFormat&#45;&gt;ResponseFormat</title>
<path fill="none" stroke="green" d="M1518.64,-599.95C1518.58,-600.03 1518.52,-600.12 1518.45,-600.2"/>
<polygon fill="green" stroke="green" points="1515.8,-597.9 1512.74,-608.05 1521.46,-602.02 1515.8,-597.9"/>
<text text-anchor="middle" x="1504.48" y="-603.17" font-family="Helvetica,sans-Serif" font-size="10.00">range</text>
</g>
<!-- wasReportedBy&#45;&gt;Participant -->
<g id="edge27" class="edge">
<title>wasReportedBy&#45;&gt;Participant</title>
<path fill="none" stroke="green" d="M1392.91,-292.49C1388.96,-294.25 1384.9,-296.07 1380.83,-297.89"/>
<polygon fill="green" stroke="green" points="1379.07,-294.85 1371.37,-302.13 1381.93,-301.24 1379.07,-294.85"/>
<text text-anchor="middle" x="1395.97" y="-300.38" font-family="Helvetica,sans-Serif" font-size="10.00">range</text>
</g>
<!-- associatedWithDevice&#45;&gt;Device -->
<g id="edge29" class="edge">
<title>associatedWithDevice&#45;&gt;Device</title>
<path fill="none" stroke="green" d="M813.68,-407.81C837.75,-421.29 871.12,-439.98 897.19,-454.58"/>
<polygon fill="green" stroke="green" points="895.65,-457.73 906.09,-459.56 899.07,-451.62 895.65,-457.73"/>
<text text-anchor="middle" x="845.83" y="-436.65" font-family="Helvetica,sans-Serif" font-size="10.00">range</text>
</g>
<!-- associatedWithDevice&#45;&gt;wasAssociatedWith -->
<g id="edge49" class="edge">
<title>associatedWithDevice&#45;&gt;wasAssociatedWith</title>
<path fill="none" stroke="red" stroke-dasharray="5,2" d="M781.15,-408.33C780,-428.52 778.11,-461.36 776.76,-484.94"/>
<polygon fill="red" stroke="red" points="773.26,-484.85 776.18,-495.03 780.24,-485.25 773.26,-484.85"/>
<text text-anchor="middle" x="743.66" y="-454.8" font-family="Helvetica,sans-Serif" font-size="10.00">subPropertyOf</text>
</g>
<!-- unit -->
<g id="node41" class="node">
<title>unit</title>
<ellipse fill="lightyellow" stroke="black" cx="1148.6" cy="-578" rx="28.7" ry="18"/>
<text text-anchor="middle" x="1148.6" y="-574.3" font-family="Helvetica,sans-Serif" font-size="14.00">unit</text>
</g>
<!-- hasTopConcept -->
<g id="node42" class="node">
<title>hasTopConcept</title>
<ellipse fill="lightyellow" stroke="black" cx="1079.29" cy="-338" rx="79.09" ry="18"/>
<text text-anchor="middle" x="1079.29" y="-334.3" font-family="Helvetica,sans-Serif" font-size="14.00">hasTopConcept</text>
</g>
<!-- hasFeatureOfInterest -->
<g id="node43" class="node">
<title>hasFeatureOfInterest</title>
<ellipse fill="lightyellow" stroke="black" cx="105.94" cy="-494.45" rx="105.88" ry="18"/>
<text text-anchor="middle" x="105.94" y="-490.75" font-family="Helvetica,sans-Serif" font-size="14.00">hasFeatureOfInterest</text>
</g>
<!-- wasCollectedFrom&#45;&gt;Participant -->
<g id="edge31" class="edge">
<title>wasCollectedFrom&#45;&gt;Participant</title>
<path fill="none" stroke="green" d="M1348.61,-440.82C1345.15,-417.36 1339.08,-376.22 1335.01,-348.61"/>
<polygon fill="green" stroke="green" points="1338.42,-347.79 1333.5,-338.41 1331.5,-348.81 1338.42,-347.79"/>
<text text-anchor="middle" x="1327.05" y="-392.61" font-family="Helvetica,sans-Serif" font-size="10.00">range</text>
</g>
<!-- topConceptOf -->
<g id="node45" class="node">
<title>topConceptOf</title>
<ellipse fill="lightyellow" stroke="black" cx="1113.44" cy="-458" rx="73.39" ry="18"/>
<text text-anchor="middle" x="1113.44" y="-454.3" font-family="Helvetica,sans-Serif" font-size="14.00">topConceptOf</text>
</g>
<!-- featureOfInterest&#45;&gt;hasFeatureOfInterest -->
<g id="edge50" class="edge">
<title>featureOfInterest&#45;&gt;hasFeatureOfInterest</title>
<path fill="none" stroke="red" stroke-dasharray="5,2" d="M108.14,-466C108.13,-466.1 108.12,-466.21 108.11,-466.32"/>
<polygon fill="red" stroke="red" points="104.62,-466.03 107.34,-476.27 111.6,-466.57 104.62,-466.03"/>
<text text-anchor="middle" x="73.11" y="-469.28" font-family="Helvetica,sans-Serif" font-size="10.00">subPropertyOf</text>
</g>
<!-- supportsInferenceOf&#45;&gt;DigitalPhenotype -->
<g id="edge34" class="edge">
<title>supportsInferenceOf&#45;&gt;DigitalPhenotype</title>
<path fill="none" stroke="green" d="M528.86,-238.92C541.55,-235.81 555.11,-232.49 568.37,-229.25"/>
<polygon fill="green" stroke="green" points="569.55,-232.57 578.43,-226.79 567.89,-225.77 569.55,-232.57"/>
<text text-anchor="middle" x="568.01" y="-224.76" font-family="Helvetica,sans-Serif" font-size="10.00">range</text>
</g>
<!-- usedDevice&#45;&gt;Device -->
<g id="edge36" class="edge">
<title>usedDevice&#45;&gt;Device</title>
<path fill="none" stroke="green" d="M835.89,-542.06C854.6,-530.18 880.01,-514.03 900.78,-500.84"/>
<polygon fill="green" stroke="green" points="902.8,-503.7 909.36,-495.38 899.04,-497.79 902.8,-503.7"/>
<text text-anchor="middle" x="886.34" y="-521.91" font-family="Helvetica,sans-Serif" font-size="10.00">range</text>
</g>
<!-- usedDevice&#45;&gt;used -->
<g id="edge46" class="edge">
<title>usedDevice&#45;&gt;used</title>
<path fill="none" stroke="red" stroke-dasharray="5,2" d="M747.33,-553.6C723.98,-551.68 698,-549.54 676.84,-547.8"/>
<polygon fill="red" stroke="red" points="677.13,-544.31 666.88,-546.98 676.56,-551.28 677.13,-544.31"/>
<text text-anchor="middle" x="707.32" y="-542.31" font-family="Helvetica,sans-Serif" font-size="10.00">subPropertyOf</text>
</g>
<!-- wasComputedBy&#45;&gt;Computation -->
<g id="edge38" class="edge">
<title>wasComputedBy&#45;&gt;Computation</title>
<path fill="none" stroke="green" d="M928.35,-167.95C920.27,-180.35 909.45,-196.96 900.38,-210.86"/>
<polygon fill="green" stroke="green" points="897.25,-209.25 894.72,-219.54 903.12,-213.07 897.25,-209.25"/>
<text text-anchor="middle" x="925.54" y="-196.74" font-family="Helvetica,sans-Serif" font-size="10.00">range</text>
</g>
<!-- wasAttributedTo&#45;&gt;Participant -->
<g id="edge40" class="edge">
<title>wasAttributedTo&#45;&gt;Participant</title>
<path fill="none" stroke="green" d="M1340.11,-210.76C1338.33,-231.81 1335.35,-266.92 1333.25,-291.71"/>
<polygon fill="green" stroke="green" points="1329.74,-291.69 1332.38,-301.95 1336.71,-292.28 1329.74,-291.69"/>
<text text-anchor="middle" x="1322.25" y="-259.32" font-family="Helvetica,sans-Serif" font-size="10.00">range</text>
</g>
<!-- wasAttributedTo&#45;&gt;wasAttributedTo -->
<g id="edge51" class="edge">
<title>wasAttributedTo&#45;&gt;wasAttributedTo</title>
<path fill="none" stroke="red" stroke-dasharray="5,2" d="M1375.56,-209.35C1428.86,-227.47 1496.83,-221.94 1496.83,-192.76 1496.83,-165.35 1436.84,-158.81 1385.38,-173.15"/>
<polygon fill="red" stroke="red" points="1384.08,-169.88 1375.56,-176.18 1386.14,-176.57 1384.08,-169.88"/>
<text text-anchor="middle" x="1531.83" y="-190.26" font-family="Helvetica,sans-Serif" font-size="10.00">subPropertyOf</text>
</g>
<!-- occursDuring&#45;&gt;ObservationContext -->
<g id="edge42" class="edge">
<title>occursDuring&#45;&gt;ObservationContext</title>
<path fill="none" stroke="green" d="M1411.07,-57.31C1417.35,-52.6 1424.28,-47.41 1430.98,-42.39"/>
<polygon fill="green" stroke="green" points="1433.38,-44.96 1439.28,-36.16 1429.18,-39.36 1433.38,-44.96"/>
<text text-anchor="middle" x="1411.29" y="-38.65" font-family="Helvetica,sans-Serif" font-size="10.00">range</text>
</g>
<!-- narrower -->
<g id="node53" class="node">
<title>narrower</title>
<ellipse fill="lightyellow" stroke="black" cx="930.7" cy="-18" rx="50.89" ry="18"/>
<text text-anchor="middle" x="930.7" y="-14.3" font-family="Helvetica,sans-Serif" font-size="14.00">narrower</text>
</g>
<!-- quantityValue&#45;&gt;QuantityValue -->
<g id="edge44" class="edge">
<title>quantityValue&#45;&gt;QuantityValue</title>
<path fill="none" stroke="green" d="M201.25,-560.88C203.11,-563.12 205.05,-565.45 207,-567.79"/>
<polygon fill="green" stroke="green" points="204.46,-570.21 213.55,-575.65 209.84,-565.73 204.46,-570.21"/>
<text text-anchor="middle" x="192.91" y="-570.68" font-family="Helvetica,sans-Serif" font-size="10.00">range</text>
</g>
</g>
</svg>
