<?xml version="1.0" encoding="UTF-8" standalone="no"?>
<!DOCTYPE svg PUBLIC "-//W3C//DTD SVG 1.1//EN"
 "http://www.w3.org/Graphics/SVG/1.1/DTD/svg11.dtd">
<!-- Generated by graphviz version 2.43.0 (0)
 -->
<!-- Title: Object Properties Pages: 1 -->
<svg width="1448pt" height="1092pt"
 viewBox="0.00 0.00 1447.67 1092.00" xmlns="http://www.w3.org/2000/svg" xmlns:xlink="http://www.w3.org/1999/xlink">
<g id="graph0" class="graph" transform="scale(1 1) rotate(0) translate(4 1088)">
<title>Object Properties</title>
<polygon fill="white" stroke="transparent" points="-4,4 -4,-1088 1443.67,-1088 1443.67,4 -4,4"/>
<!-- Thing -->
<g id="node1" class="node">
<title>Thing</title>
<polygon fill="lightblue" stroke="black" points="703.18,-542.14 647.18,-542.14 647.18,-506.14 703.18,-506.14 703.18,-542.14"/>
<text text-anchor="middle" x="675.18" y="-520.44" font-family="Arial" font-size="14.00">Thing</text>
</g>
<!-- wasGeneratedBy -->
<g id="node33" class="node">
<title>wasGeneratedBy</title>
<ellipse fill="lightyellow" stroke="black" cx="641.3" cy="-696.59" rx="87.18" ry="18"/>
<text text-anchor="middle" x="641.3" y="-692.89" font-family="Arial" font-size="14.00">wasGeneratedBy</text>
</g>
<!-- Thing&#45;&gt;wasGeneratedBy -->
<g id="edge14" class="edge">
<title>Thing&#45;&gt;wasGeneratedBy</title>
<path fill="none" stroke="blue" d="M671.62,-542.27C665.73,-572.28 653.89,-632.52 646.88,-668.21"/>
<polygon fill="blue" stroke="blue" points="643.36,-667.96 644.87,-678.44 650.23,-669.3 643.36,-667.96"/>
<text text-anchor="middle" x="676.77" y="-613.22" font-family="Arial" font-size="10.00">domain</text>
</g>
<!-- hasContext -->
<g id="node35" class="node">
<title>hasContext</title>
<ellipse fill="lightyellow" stroke="black" cx="629.94" cy="-431.89" rx="63.89" ry="18"/>
<text text-anchor="middle" x="629.94" y="-428.19" font-family="Arial" font-size="14.00">has context</text>
</g>
<!-- Thing&#45;&gt;hasContext -->
<g id="edge18" class="edge">
<title>Thing&#45;&gt;hasContext</title>
<path fill="none" stroke="blue" d="M666.25,-505.91C659.7,-492.56 650.7,-474.21 643.3,-459.12"/>
<polygon fill="blue" stroke="blue" points="646.25,-457.2 638.71,-449.76 639.97,-460.28 646.25,-457.2"/>
<text text-anchor="middle" x="633.96" y="-480.8" font-family="Arial" font-size="10.00">domain</text>
</g>
<!-- wasAttributedTo -->
<g id="node51" class="node">
<title>wasAttributedTo</title>
<ellipse fill="lightyellow" stroke="black" cx="854.55" cy="-607.5" rx="83.39" ry="18"/>
<text text-anchor="middle" x="854.55" y="-603.8" font-family="Arial" font-size="14.00">wasAttributedTo</text>
</g>
<!-- Thing&#45;&gt;wasAttributedTo -->
<g id="edge39" class="edge">
<title>Thing&#45;&gt;wasAttributedTo</title>
<path fill="none" stroke="blue" d="M703.21,-537.16C731.85,-550.47 776.75,-571.34 810.21,-586.89"/>
<polygon fill="blue" stroke="blue" points="808.78,-590.09 819.32,-591.13 811.73,-583.74 808.78,-590.09"/>
<text text-anchor="middle" x="742.65" y="-567.09" font-family="Arial" font-size="10.00">domain</text>
</g>
<!-- occursDuring -->
<g id="node52" class="node">
<title>occursDuring</title>
<ellipse fill="lightyellow" stroke="black" cx="775.68" cy="-463.16" rx="73.39" ry="18"/>
<text text-anchor="middle" x="775.68" y="-459.46" font-family="Arial" font-size="14.00">occurs during</text>
</g>
<!-- Thing&#45;&gt;occursDuring -->
<g id="edge41" class="edge">
<title>Thing&#45;&gt;occursDuring</title>
<path fill="none" stroke="blue" d="M703.45,-506.99C714.55,-500.25 727.44,-492.43 739.22,-485.28"/>
<polygon fill="blue" stroke="blue" points="741.24,-488.15 747.98,-479.97 737.61,-482.16 741.24,-488.15"/>
<text text-anchor="middle" x="707.44" y="-496.34" font-family="Arial" font-size="10.00">domain</text>
</g>
<!-- Measurement -->
<g id="node2" class="node">
<title>Measurement</title>
<polygon fill="lightblue" stroke="black" points="1199.5,-844.32 1088.5,-844.32 1088.5,-808.32 1199.5,-808.32 1199.5,-844.32"/>
<text text-anchor="middle" x="1144" y="-822.62" font-family="Arial" font-size="14.00">Measurement</text>
</g>
<!-- observedProperty -->
<g id="node26" class="node">
<title>observedProperty</title>
<ellipse fill="lightyellow" stroke="black" cx="1206.68" cy="-738.74" rx="90.98" ry="18"/>
<text text-anchor="middle" x="1206.68" y="-735.04" font-family="Arial" font-size="14.00">observedProperty</text>
</g>
<!-- Measurement&#45;&gt;observedProperty -->
<g id="edge7" class="edge">
<title>Measurement&#45;&gt;observedProperty</title>
<path fill="none" stroke="blue" d="M1156.99,-808.17C1165.95,-795.64 1178.02,-778.79 1188.01,-764.82"/>
<polygon fill="blue" stroke="blue" points="1190.95,-766.73 1193.92,-756.56 1185.26,-762.66 1190.95,-766.73"/>
<text text-anchor="middle" x="1156.91" y="-785.43" font-family="Arial" font-size="10.00">domain</text>
</g>
<!-- featureOfInterest -->
<g id="node46" class="node">
<title>featureOfInterest</title>
<ellipse fill="lightyellow" stroke="black" cx="1111.13" cy="-985.45" rx="91.78" ry="18"/>
<text text-anchor="middle" x="1111.13" y="-981.75" font-family="Arial" font-size="14.00">feature of interest</text>
</g>
<!-- Measurement&#45;&gt;featureOfInterest -->
<g id="edge32" class="edge">
<title>Measurement&#45;&gt;featureOfInterest</title>
<path fill="none" stroke="blue" d="M1140.23,-844.57C1134.53,-872.15 1123.68,-924.66 1116.96,-957.2"/>
<polygon fill="blue" stroke="blue" points="1113.45,-956.91 1114.85,-967.41 1120.31,-958.32 1113.45,-956.91"/>
<text text-anchor="middle" x="1109.08" y="-908.82" font-family="Arial" font-size="10.00">domain</text>
</g>
<!-- quantityValue -->
<g id="node54" class="node">
<title>quantityValue</title>
<ellipse fill="lightyellow" stroke="black" cx="1277.67" cy="-921.34" rx="75.29" ry="18"/>
<text text-anchor="middle" x="1277.67" y="-917.64" font-family="Arial" font-size="14.00">quantity value</text>
</g>
<!-- Measurement&#45;&gt;quantityValue -->
<g id="edge43" class="edge">
<title>Measurement&#45;&gt;quantityValue</title>
<path fill="none" stroke="blue" d="M1169.46,-844.41C1191.05,-859.76 1222.13,-881.85 1245.45,-898.43"/>
<polygon fill="blue" stroke="blue" points="1243.48,-901.32 1253.66,-904.27 1247.54,-895.62 1243.48,-901.32"/>
<text text-anchor="middle" x="1193.02" y="-877.31" font-family="Arial" font-size="10.00">domain</text>
</g>
<!-- ObservationContext -->
<g id="node3" class="node">
<title>ObservationContext</title>
<polygon fill="lightblue" stroke="black" points="806.41,-405.88 646.41,-405.88 646.41,-369.88 806.41,-369.88 806.41,-405.88"/>
<text text-anchor="middle" x="726.41" y="-384.18" font-family="Arial" font-size="14.00">Observation Context</text>
</g>
<!-- QuantityValue -->
<g id="node4" class="node">
<title>QuantityValue</title>
<polygon fill="lightblue" stroke="black" points="1336.88,-1038.15 1222.88,-1038.15 1222.88,-1002.15 1336.88,-1002.15 1336.88,-1038.15"/>
<text text-anchor="middle" x="1279.88" y="-1016.45" font-family="Arial" font-size="14.00">QuantityValue</text>
</g>
<!-- DataTransferEvent -->
<g id="node5" class="node">
<title>DataTransferEvent</title>
<polygon fill="lightblue" stroke="black" points="429.95,-795.17 274.95,-795.17 274.95,-759.17 429.95,-759.17 429.95,-795.17"/>
<text text-anchor="middle" x="352.45" y="-773.47" font-family="Arial" font-size="14.00">Data Transfer Event</text>
</g>
<!-- usedDevice -->
<g id="node49" class="node">
<title>usedDevice</title>
<ellipse fill="lightyellow" stroke="black" cx="261.09" cy="-875.19" rx="64.99" ry="18"/>
<text text-anchor="middle" x="261.09" y="-871.49" font-family="Arial" font-size="14.00">used device</text>
</g>
<!-- DataTransferEvent&#45;&gt;usedDevice -->
<g id="edge35" class="edge">
<title>DataTransferEvent&#45;&gt;usedDevice</title>
<path fill="none" stroke="blue" d="M335.27,-795.61C320.92,-811 300.34,-833.08 284.49,-850.09"/>
<polygon fill="blue" stroke="blue" points="281.84,-847.8 277.58,-857.5 286.96,-852.57 281.84,-847.8"/>
<text text-anchor="middle" x="288.17" y="-829.29" font-family="Arial" font-size="10.00">domain</text>
</g>
<!-- Device -->
<g id="node6" class="node">
<title>Device</title>
<polygon fill="lightblue" stroke="black" points="347.7,-1039.19 284.7,-1039.19 284.7,-1003.19 347.7,-1003.19 347.7,-1039.19"/>
<text text-anchor="middle" x="316.2" y="-1017.49" font-family="Arial" font-size="14.00">Device</text>
</g>
<!-- AppInterface -->
<g id="node7" class="node">
<title>AppInterface</title>
<polygon fill="lightblue" stroke="black" points="288.55,-531.93 177.55,-531.93 177.55,-495.93 288.55,-495.93 288.55,-531.93"/>
<text text-anchor="middle" x="233.05" y="-510.23" font-family="Arial" font-size="14.00">App Interface</text>
</g>
<!-- DigitalPhenotype -->
<g id="node8" class="node">
<title>DigitalPhenotype</title>
<polygon fill="lightblue" stroke="black" points="831.84,-1051.06 692.84,-1051.06 692.84,-1015.06 831.84,-1015.06 831.84,-1051.06"/>
<text text-anchor="middle" x="762.34" y="-1029.36" font-family="Arial" font-size="14.00">Digital Phenotype</text>
</g>
<!-- ResponseFormat -->
<g id="node9" class="node">
<title>ResponseFormat</title>
<polygon fill="lightblue" stroke="black" points="1279.78,-36.43 1143.78,-36.43 1143.78,-0.43 1279.78,-0.43 1279.78,-36.43"/>
<text text-anchor="middle" x="1211.78" y="-14.73" font-family="Arial" font-size="14.00">Response Format</text>
</g>
<!-- DerivedFeature -->
<g id="node10" class="node">
<title>DerivedFeature</title>
<polygon fill="lightblue" stroke="black" points="448.83,-569.13 321.83,-569.13 321.83,-533.13 448.83,-533.13 448.83,-569.13"/>
<text text-anchor="middle" x="385.33" y="-547.43" font-family="Arial" font-size="14.00">Derived Feature</text>
</g>
<!-- wasDerivedFrom -->
<g id="node32" class="node">
<title>wasDerivedFrom</title>
<ellipse fill="lightyellow" stroke="black" cx="553.03" cy="-519.92" rx="85.29" ry="18"/>
<text text-anchor="middle" x="553.03" y="-516.22" font-family="Arial" font-size="14.00">wasDerivedFrom</text>
</g>
<!-- DerivedFeature&#45;&gt;wasDerivedFrom -->
<g id="edge12" class="edge">
<title>DerivedFeature&#45;&gt;wasDerivedFrom</title>
<path fill="none" stroke="blue" d="M449.21,-539.24C459,-537.42 469.17,-535.52 479.15,-533.66"/>
<polygon fill="blue" stroke="blue" points="479.86,-537.09 489.05,-531.82 478.58,-530.21 479.86,-537.09"/>
<text text-anchor="middle" x="450.79" y="-527.5" font-family="Arial" font-size="10.00">domain</text>
</g>
<!-- wasComputedBy -->
<g id="node50" class="node">
<title>wasComputedBy</title>
<ellipse fill="lightyellow" stroke="black" cx="455.04" cy="-700.53" rx="90.98" ry="18"/>
<text text-anchor="middle" x="455.04" y="-696.83" font-family="Arial" font-size="14.00">was computed by</text>
</g>
<!-- DerivedFeature&#45;&gt;wasComputedBy -->
<g id="edge37" class="edge">
<title>DerivedFeature&#45;&gt;wasComputedBy</title>
<path fill="none" stroke="blue" d="M393.74,-569.15C405.83,-595.06 428.22,-643.04 442.33,-673.3"/>
<polygon fill="blue" stroke="blue" points="439.2,-674.86 446.6,-682.45 445.54,-671.9 439.2,-674.86"/>
<text text-anchor="middle" x="401.69" y="-628.85" font-family="Arial" font-size="10.00">domain</text>
</g>
<!-- DataSet -->
<g id="node11" class="node">
<title>DataSet</title>
<polygon fill="lightblue" stroke="black" points="900.83,-284.7 824.83,-284.7 824.83,-248.7 900.83,-248.7 900.83,-284.7"/>
<text text-anchor="middle" x="862.83" y="-263" font-family="Arial" font-size="14.00">Data Set</text>
</g>
<!-- usedDataInterface -->
<g id="node34" class="node">
<title>usedDataInterface</title>
<ellipse fill="lightyellow" stroke="black" cx="694.26" cy="-190.71" rx="98.58" ry="18"/>
<text text-anchor="middle" x="694.26" y="-187.01" font-family="Arial" font-size="14.00">used data interface</text>
</g>
<!-- DataSet&#45;&gt;usedDataInterface -->
<g id="edge16" class="edge">
<title>DataSet&#45;&gt;usedDataInterface</title>
<path fill="none" stroke="blue" d="M824.58,-249.45C799.75,-238.26 767.23,-223.6 740.89,-211.73"/>
<polygon fill="blue" stroke="blue" points="742.05,-208.41 731.49,-207.49 739.17,-214.79 742.05,-208.41"/>
<text text-anchor="middle" x="759.69" y="-231.54" font-family="Arial" font-size="10.00">domain</text>
</g>
<!-- wasCollectedFrom -->
<g id="node44" class="node">
<title>wasCollectedFrom</title>
<ellipse fill="lightyellow" stroke="black" cx="920.17" cy="-358.34" rx="94.78" ry="18"/>
<text text-anchor="middle" x="920.17" y="-354.64" font-family="Arial" font-size="14.00">was collected from</text>
</g>
<!-- DataSet&#45;&gt;wasCollectedFrom -->
<g id="edge30" class="edge">
<title>DataSet&#45;&gt;wasCollectedFrom</title>
<path fill="none" stroke="blue" d="M874.16,-284.8C882.48,-298.11 893.93,-316.41 903.33,-331.42"/>
<polygon fill="blue" stroke="blue" points="900.6,-333.65 908.87,-340.27 906.53,-329.94 900.6,-333.65"/>
<text text-anchor="middle" x="872.95" y="-315.43" font-family="Arial" font-size="10.00">domain</text>
</g>
<!-- NotificationEvent -->
<g id="node12" class="node">
<title>NotificationEvent</title>
<polygon fill="lightblue" stroke="black" points="139.69,-659.03 -0.31,-659.03 -0.31,-623.03 139.69,-623.03 139.69,-659.03"/>
<text text-anchor="middle" x="69.69" y="-637.33" font-family="Arial" font-size="14.00">Notification Event</text>
</g>
<!-- usedAppInterface -->
<g id="node36" class="node">
<title>usedAppInterface</title>
<ellipse fill="lightyellow" stroke="black" cx="243.31" cy="-604.97" rx="95.58" ry="18"/>
<text text-anchor="middle" x="243.31" y="-601.27" font-family="Arial" font-size="14.00">used app interface</text>
</g>
<!-- NotificationEvent&#45;&gt;usedAppInterface -->
<g id="edge20" class="edge">
<title>NotificationEvent&#45;&gt;usedAppInterface</title>
<path fill="none" stroke="blue" d="M139.81,-626.47C149.45,-624.47 159.37,-622.4 169.08,-620.39"/>
<polygon fill="blue" stroke="blue" points="170.02,-623.77 179.1,-618.31 168.6,-616.91 170.02,-623.77"/>
<text text-anchor="middle" x="177.97" y="-625.38" font-family="Arial" font-size="10.00">domain</text>
</g>
<!-- QuestionnaireEntry -->
<g id="node13" class="node">
<title>QuestionnaireEntry</title>
<polygon fill="lightblue" stroke="black" points="1260.76,-531.2 1105.76,-531.2 1105.76,-495.2 1260.76,-495.2 1260.76,-531.2"/>
<text text-anchor="middle" x="1183.26" y="-509.5" font-family="Arial" font-size="14.00">Questionnaire Entry</text>
</g>
<!-- hasResponseItem -->
<g id="node31" class="node">
<title>hasResponseItem</title>
<ellipse fill="lightyellow" stroke="black" cx="1132.9" cy="-427.35" rx="93.68" ry="18"/>
<text text-anchor="middle" x="1132.9" y="-423.65" font-family="Arial" font-size="14.00">has response item</text>
</g>
<!-- QuestionnaireEntry&#45;&gt;hasResponseItem -->
<g id="edge10" class="edge">
<title>QuestionnaireEntry&#45;&gt;hasResponseItem</title>
<path fill="none" stroke="blue" d="M1172.58,-494.99C1165.64,-483.15 1156.46,-467.51 1148.69,-454.25"/>
<polygon fill="blue" stroke="blue" points="1151.65,-452.38 1143.57,-445.53 1145.61,-455.92 1151.65,-452.38"/>
<text text-anchor="middle" x="1139.72" y="-473.51" font-family="Arial" font-size="10.00">domain</text>
</g>
<!-- wasReportedBy -->
<g id="node39" class="node">
<title>wasReportedBy</title>
<ellipse fill="lightyellow" stroke="black" cx="1102.25" cy="-568.08" rx="83.69" ry="18"/>
<text text-anchor="middle" x="1102.25" y="-564.38" font-family="Arial" font-size="14.00">was reported by</text>
</g>
<!-- QuestionnaireEntry&#45;&gt;wasReportedBy -->
<g id="edge26" class="edge">
<title>QuestionnaireEntry&#45;&gt;wasReportedBy</title>
<path fill="none" stroke="blue" d="M1156.29,-531.47C1149.81,-535.86 1142.82,-540.59 1136.08,-545.16"/>
<polygon fill="blue" stroke="blue" points="1134.05,-542.31 1127.73,-550.81 1137.98,-548.1 1134.05,-542.31"/>
<text text-anchor="middle" x="1123.31" y="-533.28" font-family="Arial" font-size="10.00">domain</text>
</g>
<!-- ResponseItem -->
<g id="node14" class="node">
<title>ResponseItem</title>
<polygon fill="lightblue" stroke="black" points="1258.7,-311.64 1139.7,-311.64 1139.7,-275.64 1258.7,-275.64 1258.7,-311.64"/>
<text text-anchor="middle" x="1199.2" y="-289.94" font-family="Arial" font-size="14.00">Response Item</text>
</g>
<!-- answersQuestion -->
<g id="node25" class="node">
<title>answersQuestion</title>
<ellipse fill="lightyellow" stroke="black" cx="1022.77" cy="-230.15" rx="90.18" ry="18"/>
<text text-anchor="middle" x="1022.77" y="-226.45" font-family="Arial" font-size="14.00">answers question</text>
</g>
<!-- ResponseItem&#45;&gt;answersQuestion -->
<g id="edge5" class="edge">
<title>ResponseItem&#45;&gt;answersQuestion</title>
<path fill="none" stroke="blue" d="M1149.11,-275.62C1126.38,-267.44 1099.47,-257.75 1076.33,-249.42"/>
<polygon fill="blue" stroke="blue" points="1077.27,-246.04 1066.67,-245.95 1074.9,-252.63 1077.27,-246.04"/>
<text text-anchor="middle" x="1089.11" y="-263.68" font-family="Arial" font-size="10.00">domain</text>
</g>
<!-- SleepStage -->
<g id="node15" class="node">
<title>SleepStage</title>
<polygon fill="lightblue" stroke="black" points="309.78,-342.98 214.78,-342.98 214.78,-306.98 309.78,-306.98 309.78,-342.98"/>
<text text-anchor="middle" x="262.28" y="-321.28" font-family="Arial" font-size="14.00">SleepStage</text>
</g>
<!-- SleepStageMeasurement -->
<g id="node16" class="node">
<title>SleepStageMeasurement</title>
<polygon fill="lightblue" stroke="black" points="600.46,-338.2 402.46,-338.2 402.46,-302.2 600.46,-302.2 600.46,-338.2"/>
<text text-anchor="middle" x="501.46" y="-316.5" font-family="Arial" font-size="14.00">Sleep Stage Measurement</text>
</g>
<!-- hasStage -->
<g id="node37" class="node">
<title>hasStage</title>
<ellipse fill="lightyellow" stroke="black" cx="391.23" cy="-276.19" rx="54.69" ry="18"/>
<text text-anchor="middle" x="391.23" y="-272.49" font-family="Arial" font-size="14.00">has stage</text>
</g>
<!-- SleepStageMeasurement&#45;&gt;hasStage -->
<g id="edge22" class="edge">
<title>SleepStageMeasurement&#45;&gt;hasStage</title>
<path fill="none" stroke="blue" d="M456.31,-302.17C449.52,-299.46 442.52,-296.67 435.74,-293.96"/>
<polygon fill="blue" stroke="blue" points="436.61,-290.54 426.02,-290.08 434.01,-297.04 436.61,-290.54"/>
<text text-anchor="middle" x="459.68" y="-288.13" font-family="Arial" font-size="10.00">domain</text>
</g>
<!-- Participant -->
<g id="node17" class="node">
<title>Participant</title>
<polygon fill="lightblue" stroke="black" points="998.09,-562.37 908.09,-562.37 908.09,-526.37 998.09,-526.37 998.09,-562.37"/>
<text text-anchor="middle" x="953.09" y="-540.67" font-family="Arial" font-size="14.00">Participant</text>
</g>
<!-- DataInterface -->
<g id="node18" class="node">
<title>DataInterface</title>
<polygon fill="lightblue" stroke="black" points="610.11,-252.75 494.11,-252.75 494.11,-216.75 610.11,-216.75 610.11,-252.75"/>
<text text-anchor="middle" x="552.11" y="-231.05" font-family="Arial" font-size="14.00">Data Interface</text>
</g>
<!-- Question -->
<g id="node19" class="node">
<title>Question</title>
<polygon fill="lightblue" stroke="black" points="1069.86,-111.95 990.86,-111.95 990.86,-75.95 1069.86,-75.95 1069.86,-111.95"/>
<text text-anchor="middle" x="1030.36" y="-90.25" font-family="Arial" font-size="14.00">Question</text>
</g>
<!-- hasResponseFormat -->
<g id="node38" class="node">
<title>hasResponseFormat</title>
<ellipse fill="lightyellow" stroke="black" cx="1181.83" cy="-111.97" rx="103.18" ry="18"/>
<text text-anchor="middle" x="1181.83" y="-108.27" font-family="Arial" font-size="14.00">has response format</text>
</g>
<!-- Question&#45;&gt;hasResponseFormat -->
<g id="edge24" class="edge">
<title>Question&#45;&gt;hasResponseFormat</title>
<path fill="none" stroke="blue" d="M1070.16,-98.69C1075.26,-99.29 1080.63,-99.93 1086.16,-100.59"/>
<polygon fill="blue" stroke="blue" points="1085.91,-104.08 1096.25,-101.79 1086.74,-97.13 1085.91,-104.08"/>
<text text-anchor="middle" x="1092.32" y="-92.22" font-family="Arial" font-size="10.00">domain</text>
</g>
<!-- Computation -->
<g id="node20" class="node">
<title>Computation</title>
<polygon fill="lightblue" stroke="black" points="580.8,-835.72 474.8,-835.72 474.8,-799.72 580.8,-799.72 580.8,-835.72"/>
<text text-anchor="middle" x="527.8" y="-814.02" font-family="Arial" font-size="14.00">Computation</text>
</g>
<!-- infersPhenotype -->
<g id="node23" class="node">
<title>infersPhenotype</title>
<ellipse fill="lightyellow" stroke="black" cx="670.42" cy="-976.53" rx="87.99" ry="18"/>
<text text-anchor="middle" x="670.42" y="-972.83" font-family="Arial" font-size="14.00">infers phenotype</text>
</g>
<!-- Computation&#45;&gt;infersPhenotype -->
<g id="edge1" class="edge">
<title>Computation&#45;&gt;infersPhenotype</title>
<path fill="none" stroke="blue" d="M544.16,-835.94C569.52,-864.18 618.41,-918.62 647.35,-950.84"/>
<polygon fill="blue" stroke="blue" points="644.96,-953.42 654.25,-958.52 650.17,-948.74 644.96,-953.42"/>
<text text-anchor="middle" x="580.82" y="-900.36" font-family="Arial" font-size="10.00">domain</text>
</g>
<!-- associatedWithDevice -->
<g id="node40" class="node">
<title>associatedWithDevice</title>
<ellipse fill="lightyellow" stroke="black" cx="441.19" cy="-977.18" rx="133.48" ry="18"/>
<text text-anchor="middle" x="441.19" y="-973.48" font-family="Arial" font-size="14.00">was associated with device</text>
</g>
<!-- Computation&#45;&gt;associatedWithDevice -->
<g id="edge28" class="edge">
<title>Computation&#45;&gt;associatedWithDevice</title>
<path fill="none" stroke="blue" d="M517.87,-836.01C502.66,-864.01 473.53,-917.65 455.88,-950.15"/>
<polygon fill="blue" stroke="blue" points="452.71,-948.65 451.01,-959.11 458.86,-951.99 452.71,-948.65"/>
<text text-anchor="middle" x="465.81" y="-900.79" font-family="Arial" font-size="10.00">domain</text>
</g>
<!-- Feature -->
<g id="node21" class="node">
<title>Feature</title>
<polygon fill="lightblue" stroke="black" points="878.14,-859.09 810.14,-859.09 810.14,-823.09 878.14,-823.09 878.14,-859.09"/>
<text text-anchor="middle" x="844.14" y="-837.39" font-family="Arial" font-size="14.00">Feature</text>
</g>
<!-- requiresComputation -->
<g id="node24" class="node">
<title>requiresComputation</title>
<ellipse fill="lightyellow" stroke="black" cx="695.41" cy="-807.28" rx="106.68" ry="18"/>
<text text-anchor="middle" x="695.41" y="-803.58" font-family="Arial" font-size="14.00">requires computation</text>
</g>
<!-- Feature&#45;&gt;requiresComputation -->
<g id="edge3" class="edge">
<title>Feature&#45;&gt;requiresComputation</title>
<path fill="none" stroke="blue" d="M810.02,-833.33C797.75,-830.54 783.4,-827.28 769.08,-824.03"/>
<polygon fill="blue" stroke="blue" points="769.73,-820.58 759.2,-821.78 768.18,-827.41 769.73,-820.58"/>
<text text-anchor="middle" x="765.94" y="-830.52" font-family="Arial" font-size="10.00">domain</text>
</g>
<!-- hasMeasurement -->
<g id="node28" class="node">
<title>hasMeasurement</title>
<ellipse fill="lightyellow" stroke="black" cx="978.56" cy="-809.95" rx="92.08" ry="18"/>
<text text-anchor="middle" x="978.56" y="-806.25" font-family="Arial" font-size="14.00">has measurement</text>
</g>
<!-- Feature&#45;&gt;hasMeasurement -->
<g id="edge8" class="edge">
<title>Feature&#45;&gt;hasMeasurement</title>
<path fill="none" stroke="blue" d="M878.41,-833.15C887.88,-830.96 898.5,-828.49 909.2,-826.02"/>
<polygon fill="blue" stroke="blue" points="910.07,-829.41 919.02,-823.74 908.49,-822.59 910.07,-829.41"/>
<text text-anchor="middle" x="917.23" y="-831.44" font-family="Arial" font-size="10.00">domain</text>
</g>
<!-- supportsInferenceOf -->
<g id="node47" class="node">
<title>supportsInferenceOf</title>
<ellipse fill="lightyellow" stroke="black" cx="874.26" cy="-989.02" rx="107.48" ry="18"/>
<text text-anchor="middle" x="874.26" y="-985.32" font-family="Arial" font-size="14.00">supports inference of</text>
</g>
<!-- Feature&#45;&gt;supportsInferenceOf -->
<g id="edge33" class="edge">
<title>Feature&#45;&gt;supportsInferenceOf</title>
<path fill="none" stroke="blue" d="M847.83,-859.23C853,-884.63 862.45,-931.02 868.54,-960.91"/>
<polygon fill="blue" stroke="blue" points="865.11,-961.63 870.54,-970.74 871.97,-960.24 865.11,-961.63"/>
<text text-anchor="middle" x="840.67" y="-917.91" font-family="Arial" font-size="10.00">domain</text>
</g>
<!-- inScheme -->
<g id="node22" class="node">
<title>inScheme</title>
<ellipse fill="lightyellow" stroke="black" cx="571.24" cy="-619.64" rx="55.49" ry="18"/>
<text text-anchor="middle" x="571.24" y="-615.94" font-family="Arial" font-size="14.00">inScheme</text>
</g>
<!-- infersPhenotype&#45;&gt;DigitalPhenotype -->
<g id="edge2" class="edge">
<title>infersPhenotype&#45;&gt;DigitalPhenotype</title>
<path fill="none" stroke="green" d="M698.5,-993.8C706.57,-998.76 715.51,-1004.26 724.09,-1009.54"/>
<polygon fill="green" stroke="green" points="722.49,-1012.66 732.84,-1014.92 726.15,-1006.7 722.49,-1012.66"/>
<text text-anchor="middle" x="701.57" y="-1007.3" font-family="Arial" font-size="10.00">range</text>
</g>
<!-- requiresComputation&#45;&gt;Computation -->
<g id="edge4" class="edge">
<title>requiresComputation&#45;&gt;Computation</title>
<path fill="none" stroke="green" d="M595.01,-813.53C593.83,-813.61 592.65,-813.68 591.47,-813.75"/>
<polygon fill="green" stroke="green" points="590.84,-810.29 581.07,-814.4 591.27,-817.27 590.84,-810.29"/>
<text text-anchor="middle" x="584.53" y="-805.75" font-family="Arial" font-size="10.00">range</text>
</g>
<!-- answersQuestion&#45;&gt;Question -->
<g id="edge6" class="edge">
<title>answersQuestion&#45;&gt;Question</title>
<path fill="none" stroke="green" d="M1023.77,-212.06C1025.06,-189.06 1027.29,-149.11 1028.79,-122.11"/>
<polygon fill="green" stroke="green" points="1032.29,-122.29 1029.35,-112.11 1025.3,-121.9 1032.29,-122.29"/>
<text text-anchor="middle" x="1012.56" y="-165.1" font-family="Arial" font-size="10.00">range</text>
</g>
<!-- observedProperty&#45;&gt;observedProperty -->
<g id="edge52" class="edge">
<title>observedProperty&#45;&gt;observedProperty</title>
<path fill="none" stroke="red" stroke-dasharray="5,2" d="M1242.3,-755.32C1298.28,-773.45 1369.67,-767.92 1369.67,-738.74 1369.67,-711.21 1306.14,-704.73 1251.94,-719.3"/>
<polygon fill="red" stroke="red" points="1250.9,-715.96 1242.3,-722.15 1252.88,-722.68 1250.9,-715.96"/>
<text text-anchor="middle" x="1404.67" y="-736.24" font-family="Arial" font-size="10.00">subPropertyOf</text>
</g>
<!-- related -->
<g id="node27" class="node">
<title>related</title>
<ellipse fill="lightyellow" stroke="black" cx="730.24" cy="-318.64" rx="42.49" ry="18"/>
<text text-anchor="middle" x="730.24" y="-314.94" font-family="Arial" font-size="14.00">related</text>
</g>
<!-- hasMeasurement&#45;&gt;Measurement -->
<g id="edge9" class="edge">
<title>hasMeasurement&#45;&gt;Measurement</title>
<path fill="none" stroke="green" d="M1061.28,-818.13C1067.03,-818.7 1072.79,-819.27 1078.43,-819.83"/>
<polygon fill="green" stroke="green" points="1078.15,-823.32 1088.45,-820.82 1078.84,-816.35 1078.15,-823.32"/>
<text text-anchor="middle" x="1074.72" y="-811.46" font-family="Arial" font-size="10.00">range</text>
</g>
<!-- wasAssociatedWith -->
<g id="node29" class="node">
<title>wasAssociatedWith</title>
<ellipse fill="lightyellow" stroke="black" cx="483.59" cy="-1066.14" rx="97.48" ry="18"/>
<text text-anchor="middle" x="483.59" y="-1062.44" font-family="Arial" font-size="14.00">wasAssociatedWith</text>
</g>
<!-- broader -->
<g id="node30" class="node">
<title>broader</title>
<ellipse fill="lightyellow" stroke="black" cx="1078.24" cy="-662.64" rx="46.29" ry="18"/>
<text text-anchor="middle" x="1078.24" y="-658.94" font-family="Arial" font-size="14.00">broader</text>
</g>
<!-- hasResponseItem&#45;&gt;ResponseItem -->
<g id="edge11" class="edge">
<title>hasResponseItem&#45;&gt;ResponseItem</title>
<path fill="none" stroke="green" d="M1141.84,-409.32C1153.11,-386.59 1172.59,-347.31 1185.68,-320.91"/>
<polygon fill="green" stroke="green" points="1188.88,-322.33 1190.19,-311.82 1182.61,-319.22 1188.88,-322.33"/>
<text text-anchor="middle" x="1151.87" y="-363.87" font-family="Arial" font-size="10.00">range</text>
</g>
<!-- wasDerivedFrom&#45;&gt;Thing -->
<g id="edge13" class="edge">
<title>wasDerivedFrom&#45;&gt;Thing</title>
<path fill="none" stroke="green" d="M637.2,-522.82C637.31,-522.83 637.41,-522.83 637.51,-522.83"/>
<polygon fill="green" stroke="green" points="636.64,-526.31 646.76,-523.15 636.88,-519.31 636.64,-526.31"/>
<text text-anchor="middle" x="637.48" y="-514.83" font-family="Arial" font-size="10.00">range</text>
</g>
<!-- wasDerivedFrom&#45;&gt;wasDerivedFrom -->
<g id="edge45" class="edge">
<title>wasDerivedFrom&#45;&gt;wasDerivedFrom</title>
<path fill="none" stroke="red" stroke-dasharray="5,2" d="M587.37,-536.5C641.35,-554.62 710.17,-549.1 710.17,-519.92 710.17,-492.45 649.18,-485.94 597,-500.39"/>
<polygon fill="red" stroke="red" points="595.91,-497.06 587.37,-503.33 597.96,-503.75 595.91,-497.06"/>
<text text-anchor="middle" x="745.17" y="-517.42" font-family="Arial" font-size="10.00">subPropertyOf</text>
</g>
<!-- wasGeneratedBy&#45;&gt;Computation -->
<g id="edge15" class="edge">
<title>wasGeneratedBy&#45;&gt;Computation</title>
<path fill="none" stroke="green" d="M624.55,-714.46C605.39,-734.92 573.83,-768.6 551.99,-791.91"/>
<polygon fill="green" stroke="green" points="549.27,-789.69 544.99,-799.38 554.38,-794.47 549.27,-789.69"/>
<text text-anchor="middle" x="570.69" y="-760.01" font-family="Arial" font-size="10.00">range</text>
</g>
<!-- wasGeneratedBy&#45;&gt;wasGeneratedBy -->
<g id="edge48" class="edge">
<title>wasGeneratedBy&#45;&gt;wasGeneratedBy</title>
<path fill="none" stroke="red" stroke-dasharray="5,2" d="M676.07,-713.17C730.71,-731.3 800.39,-725.77 800.39,-696.59 800.39,-669.12 738.64,-662.61 685.81,-677.06"/>
<polygon fill="red" stroke="red" points="684.63,-673.76 676.07,-680 686.65,-680.46 684.63,-673.76"/>
<text text-anchor="middle" x="835.39" y="-694.09" font-family="Arial" font-size="10.00">subPropertyOf</text>
</g>
<!-- usedDataInterface&#45;&gt;DataInterface -->
<g id="edge17" class="edge">
<title>usedDataInterface&#45;&gt;DataInterface</title>
<path fill="none" stroke="green" d="M644.14,-206.24C636.42,-208.63 628.32,-211.14 620.28,-213.63"/>
<polygon fill="green" stroke="green" points="619.04,-210.35 610.52,-216.66 621.11,-217.04 619.04,-210.35"/>
<text text-anchor="middle" x="641.07" y="-214.53" font-family="Arial" font-size="10.00">range</text>
</g>
<!-- hasContext&#45;&gt;ObservationContext -->
<g id="edge19" class="edge">
<title>hasContext&#45;&gt;ObservationContext</title>
<path fill="none" stroke="green" d="M663.68,-416.49C668.25,-414.41 673.01,-412.24 677.78,-410.06"/>
<polygon fill="green" stroke="green" points="679.25,-413.24 686.9,-405.9 676.35,-406.87 679.25,-413.24"/>
<text text-anchor="middle" x="661.1" y="-403.29" font-family="Arial" font-size="10.00">range</text>
</g>
<!-- usedAppInterface&#45;&gt;AppInterface -->
<g id="edge21" class="edge">
<title>usedAppInterface&#45;&gt;AppInterface</title>
<path fill="none" stroke="green" d="M241.23,-586.55C239.79,-573.75 237.84,-556.47 236.21,-541.97"/>
<polygon fill="green" stroke="green" points="239.68,-541.56 235.09,-532.02 232.73,-542.34 239.68,-541.56"/>
<text text-anchor="middle" x="224.18" y="-562.44" font-family="Arial" font-size="10.00">range</text>
</g>
<!-- used -->
<g id="node48" class="node">
<title>used</title>
<ellipse fill="lightyellow" stroke="black" cx="205.64" cy="-795.57" rx="32.49" ry="18"/>
<text text-anchor="middle" x="205.64" y="-791.87" font-family="Arial" font-size="14.00">used</text>
</g>
<!-- usedAppInterface&#45;&gt;used -->
<g id="edge47" class="edge">
<title>usedAppInterface&#45;&gt;used</title>
<path fill="none" stroke="red" stroke-dasharray="5,2" d="M239.69,-623.25C233.08,-656.7 218.99,-727.99 211.17,-767.59"/>
<polygon fill="red" stroke="red" points="207.69,-767.14 209.18,-777.63 214.55,-768.49 207.69,-767.14"/>
<text text-anchor="middle" x="189.51" y="-703.07" font-family="Arial" font-size="10.00">subPropertyOf</text>
</g>
<!-- hasStage&#45;&gt;SleepStage -->
<g id="edge23" class="edge">
<title>hasStage&#45;&gt;SleepStage</title>
<path fill="none" stroke="green" d="M355.31,-289.78C344.26,-293.97 331.8,-298.68 319.68,-303.27"/>
<polygon fill="green" stroke="green" points="318.18,-300.09 310.06,-306.9 320.66,-306.64 318.18,-300.09"/>
<text text-anchor="middle" x="318.8" y="-290.3" font-family="Arial" font-size="10.00">range</text>
</g>
<!-- hasResponseFormat&#45;&gt;ResponseFormat -->
<g id="edge25" class="edge">
<title>hasResponseFormat&#45;&gt;ResponseFormat</title>
<path fill="none" stroke="green" d="M1187.61,-93.93C1191.93,-80.44 1197.92,-61.72 1202.86,-46.3"/>
<polygon fill="green" stroke="green" points="1206.21,-47.32 1205.92,-36.73 1199.54,-45.19 1206.21,-47.32"/>
<text text-anchor="middle" x="1182.75" y="-68.37" font-family="Arial" font-size="10.00">range</text>
</g>
<!-- wasReportedBy&#45;&gt;Participant -->
<g id="edge27" class="edge">
<title>wasReportedBy&#45;&gt;Participant</title>
<path fill="none" stroke="green" d="M1034.65,-557.34C1025.79,-555.93 1016.79,-554.5 1008.17,-553.13"/>
<polygon fill="green" stroke="green" points="1008.67,-549.66 998.25,-551.55 1007.57,-556.58 1008.67,-549.66"/>
<text text-anchor="middle" x="1016.34" y="-546.43" font-family="Arial" font-size="10.00">range</text>
</g>
<!-- associatedWithDevice&#45;&gt;Device -->
<g id="edge29" class="edge">
<title>associatedWithDevice&#45;&gt;Device</title>
<path fill="none" stroke="green" d="M393.23,-994.07C381.51,-998.2 369.08,-1002.57 357.69,-1006.58"/>
<polygon fill="green" stroke="green" points="356.28,-1003.37 348.01,-1009.99 358.6,-1009.97 356.28,-1003.37"/>
<text text-anchor="middle" x="384.29" y="-1005.15" font-family="Arial" font-size="10.00">range</text>
</g>
<!-- associatedWithDevice&#45;&gt;wasAssociatedWith -->
<g id="edge49" class="edge">
<title>associatedWithDevice&#45;&gt;wasAssociatedWith</title>
<path fill="none" stroke="red" stroke-dasharray="5,2" d="M449.77,-995.19C455.75,-1007.72 463.83,-1024.68 470.59,-1038.87"/>
<polygon fill="red" stroke="red" points="467.56,-1040.64 475.02,-1048.16 473.88,-1037.63 467.56,-1040.64"/>
<text text-anchor="middle" x="427.27" y="-1024.4" font-family="Arial" font-size="10.00">subPropertyOf</text>
</g>
<!-- unit -->
<g id="node41" class="node">
<title>unit</title>
<ellipse fill="lightyellow" stroke="black" cx="716.24" cy="-920.64" rx="28.7" ry="18"/>
<text text-anchor="middle" x="716.24" y="-916.94" font-family="Arial" font-size="14.00">unit</text>
</g>
<!-- hasTopConcept -->
<g id="node42" class="node">
<title>hasTopConcept</title>
<ellipse fill="lightyellow" stroke="black" cx="896.24" cy="-705.64" rx="79.09" ry="18"/>
<text text-anchor="middle" x="896.24" y="-701.94" font-family="Arial" font-size="14.00">hasTopConcept</text>
</g>
<!-- hasFeatureOfInterest -->
<g id="node43" class="node">
<title>hasFeatureOfInterest</title>
<ellipse fill="lightyellow" stroke="black" cx="1042.35" cy="-1059.39" rx="105.88" ry="18"/>
<text text-anchor="middle" x="1042.35" y="-1055.69" font-family="Arial" font-size="14.00">hasFeatureOfInterest</text>
</g>
<!-- wasCollectedFrom&#45;&gt;Participant -->
<g id="edge31" class="edge">
<title>wasCollectedFrom&#45;&gt;Participant</title>
<path fill="none" stroke="green" d="M923.39,-376.52C929.14,-409.03 941.23,-477.34 948.08,-516.05"/>
<polygon fill="green" stroke="green" points="944.67,-516.89 949.86,-526.12 951.57,-515.67 944.67,-516.89"/>
<text text-anchor="middle" x="922.62" y="-454.28" font-family="Arial" font-size="10.00">range</text>
</g>
<!-- topConceptOf -->
<g id="node45" class="node">
<title>topConceptOf</title>
<ellipse fill="lightyellow" stroke="black" cx="460.24" cy="-447.64" rx="73.39" ry="18"/>
<text text-anchor="middle" x="460.24" y="-443.94" font-family="Arial" font-size="14.00">topConceptOf</text>
</g>
<!-- featureOfInterest&#45;&gt;hasFeatureOfInterest -->
<g id="edge50" class="edge">
<title>featureOfInterest&#45;&gt;hasFeatureOfInterest</title>
<path fill="none" stroke="red" stroke-dasharray="5,2" d="M1094.48,-1003.35C1085.93,-1012.54 1075.36,-1023.91 1065.97,-1033.99"/>
<polygon fill="red" stroke="red" points="1063.33,-1031.69 1059.09,-1041.4 1068.46,-1036.46 1063.33,-1031.69"/>
<text text-anchor="middle" x="1041.63" y="-1025.54" font-family="Arial" font-size="10.00">subPropertyOf</text>
</g>
<!-- supportsInferenceOf&#45;&gt;DigitalPhenotype -->
<g id="edge34" class="edge">
<title>supportsInferenceOf&#45;&gt;DigitalPhenotype</title>
<path fill="none" stroke="green" d="M831.95,-1005.67C827.39,-1007.47 822.7,-1009.31 818.02,-1011.15"/>
<polygon fill="green" stroke="green" points="816.47,-1008 808.45,-1014.92 819.04,-1014.51 816.47,-1008"/>
<text text-anchor="middle" x="834.21" y="-1013.29" font-family="Arial" font-size="10.00">range</text>
</g>
<!-- usedDevice&#45;&gt;Device -->
<g id="edge36" class="edge">
<title>usedDevice&#45;&gt;Device</title>
<path fill="none" stroke="green" d="M267.96,-893.39C277.4,-918.41 294.5,-963.69 305.59,-993.09"/>
<polygon fill="green" stroke="green" points="302.44,-994.64 309.25,-1002.76 308.99,-992.17 302.44,-994.64"/>
<text text-anchor="middle" x="274.57" y="-950.98" font-family="Arial" font-size="10.00">range</text>
</g>
<!-- usedDevice&#45;&gt;used -->
<g id="edge46" class="edge">
<title>usedDevice&#45;&gt;used</title>
<path fill="none" stroke="red" stroke-dasharray="5,2" d="M248.5,-857.12C241.07,-846.45 231.54,-832.76 223.35,-821.01"/>
<polygon fill="red" stroke="red" points="226,-818.68 217.41,-812.48 220.25,-822.68 226,-818.68"/>
<text text-anchor="middle" x="197.95" y="-837.78" font-family="Arial" font-size="10.00">subPropertyOf</text>
</g>
<!-- wasComputedBy&#45;&gt;Computation -->
<g id="edge38" class="edge">
<title>wasComputedBy&#45;&gt;Computation</title>
<path fill="none" stroke="green" d="M466.25,-718.59C478.23,-737.88 497.36,-768.69 511.12,-790.84"/>
<polygon fill="green" stroke="green" points="508.21,-792.8 516.46,-799.45 514.16,-789.11 508.21,-792.8"/>
<text text-anchor="middle" x="477.4" y="-762.09" font-family="Arial" font-size="10.00">range</text>
</g>
<!-- wasAttributedTo&#45;&gt;Participant -->
<g id="edge40" class="edge">
<title>wasAttributedTo&#45;&gt;Participant</title>
<path fill="none" stroke="green" d="M881.21,-590.41C891.93,-583.55 904.48,-575.51 916.05,-568.1"/>
<polygon fill="green" stroke="green" points="918.14,-570.91 924.68,-562.57 914.37,-565.02 918.14,-570.91"/>
<text text-anchor="middle" x="889.05" y="-579.43" font-family="Arial" font-size="10.00">range</text>
</g>
<!-- wasAttributedTo&#45;&gt;wasAttributedTo -->
<g id="edge51" class="edge">
<title>wasAttributedTo&#45;&gt;wasAttributedTo</title>
<path fill="none" stroke="red" stroke-dasharray="5,2" d="M888.46,-624.08C941.77,-642.2 1009.74,-636.67 1009.74,-607.5 1009.74,-580.08 949.75,-573.54 898.29,-587.88"/>
<polygon fill="red" stroke="red" points="896.99,-584.62 888.46,-590.91 899.05,-591.31 896.99,-584.62"/>
<text text-anchor="middle" x="1044.74" y="-605" font-family="Arial" font-size="10.00">subPropertyOf</text>
</g>
<!-- occursDuring&#45;&gt;ObservationContext -->
<g id="edge42" class="edge">
<title>occursDuring&#45;&gt;ObservationContext</title>
<path fill="none" stroke="green" d="M764,-445.32C758.02,-436.17 750.6,-424.84 743.95,-414.67"/>
<polygon fill="green" stroke="green" points="746.75,-412.56 738.35,-406.11 740.89,-416.4 746.75,-412.56"/>
<text text-anchor="middle" x="737.32" y="-428.93" font-family="Arial" font-size="10.00">range</text>
</g>
<!-- narrower -->
<g id="node53" class="node">
<title>narrower</title>
<ellipse fill="lightyellow" stroke="black" cx="1039.24" cy="-920.64" rx="50.89" ry="18"/>
<text text-anchor="middle" x="1039.24" y="-916.94" font-family="Arial" font-size="14.00">narrower</text>
</g>
<!-- quantityValue&#45;&gt;QuantityValue -->
<g id="edge44" class="edge">
<title>quantityValue&#45;&gt;QuantityValue</title>
<path fill="none" stroke="green" d="M1278.08,-939.46C1278.41,-954.09 1278.87,-974.93 1279.25,-991.76"/>
<polygon fill="green" stroke="green" points="1275.76,-992.23 1279.48,-1002.14 1282.76,-992.07 1275.76,-992.23"/>
<text text-anchor="middle" x="1264.78" y="-973.81" font-family="Arial" font-size="10.00">range</text>
</g>
</g>
</svg>
