<?xml version="1.0" encoding="UTF-8" standalone="no"?>
<!DOCTYPE svg PUBLIC "-//W3C//DTD SVG 1.1//EN"
 "http://www.w3.org/Graphics/SVG/1.1/DTD/svg11.dtd">
<!-- Generated by graphviz version 2.43.0 (0)
 -->
<!-- Title: Object Properties Pages: 1 -->
<svg width="1739pt" height="284pt"
 viewBox="0.00 0.00 1738.98 284.00" xmlns="http://www.w3.org/2000/svg" xmlns:xlink="http://www.w3.org/1999/xlink">
<g id="graph0" class="graph" transform="scale(1 1) rotate(0) translate(4 280)">
<title>Object Properties</title>
<polygon fill="white" stroke="transparent" points="-4,4 -4,-280 1734.98,-280 1734.98,4 -4,4"/>
<!-- Feature -->
<g id="node1" class="node">
<title>Feature</title>
<polygon fill="lightblue" stroke="black" points="411,-36 343,-36 343,0 411,0 411,-36"/>
<text text-anchor="middle" x="377" y="-14.3" font-family="Arial" font-size="14.00">Feature</text>
</g>
<!-- requiresComputation -->
<g id="node24" class="node">
<title>requiresComputation</title>
<ellipse fill="lightyellow" stroke="black" cx="594.59" cy="-258" rx="106.68" ry="18"/>
<text text-anchor="middle" x="594.59" y="-254.3" font-family="Arial" font-size="14.00">requires computation</text>
</g>
<!-- Feature&#45;&gt;requiresComputation -->
<g id="edge3" class="edge">
<title>Feature&#45;&gt;requiresComputation</title>
<path fill="none" stroke="blue" d="M393.35,-36.04C431.65,-78.27 527.21,-183.68 571.45,-232.48"/>
<polygon fill="blue" stroke="blue" points="569.03,-235.02 578.34,-240.08 574.22,-230.32 569.03,-235.02"/>
<text text-anchor="middle" x="504.29" y="-129.99" font-family="Arial" font-size="10.00">domain</text>
</g>
<!-- hasMeasurement -->
<g id="node28" class="node">
<title>hasMeasurement</title>
<ellipse fill="lightyellow" stroke="black" cx="811.29" cy="-218" rx="92.08" ry="18"/>
<text text-anchor="middle" x="811.29" y="-214.3" font-family="Arial" font-size="14.00">has measurement</text>
</g>
<!-- Feature&#45;&gt;hasMeasurement -->
<g id="edge8" class="edge">
<title>Feature&#45;&gt;hasMeasurement</title>
<path fill="none" stroke="blue" d="M411.08,-33.69C488.73,-69.46 678.84,-157 766.13,-197.2"/>
<polygon fill="blue" stroke="blue" points="764.7,-200.4 775.25,-201.4 767.63,-194.04 764.7,-200.4"/>
<text text-anchor="middle" x="574.88" y="-120.65" font-family="Arial" font-size="10.00">domain</text>
</g>
<!-- supportsInferenceOf -->
<g id="node47" class="node">
<title>supportsInferenceOf</title>
<ellipse fill="lightyellow" stroke="black" cx="377.24" cy="-258" rx="107.48" ry="18"/>
<text text-anchor="middle" x="377.24" y="-254.3" font-family="Arial" font-size="14.00">supports inference of</text>
</g>
<!-- Feature&#45;&gt;supportsInferenceOf -->
<g id="edge33" class="edge">
<title>Feature&#45;&gt;supportsInferenceOf</title>
<path fill="none" stroke="blue" d="M377.02,-36.04C377.06,-77.48 377.16,-179.72 377.21,-229.65"/>
<polygon fill="blue" stroke="blue" points="373.71,-229.76 377.22,-239.75 380.71,-229.75 373.71,-229.76"/>
<text text-anchor="middle" x="358.62" y="-140.91" font-family="Arial" font-size="10.00">domain</text>
</g>
<!-- DataSet -->
<g id="node2" class="node">
<title>DataSet</title>
<polygon fill="lightblue" stroke="black" points="171,-36 95,-36 95,0 171,0 171,-36"/>
<text text-anchor="middle" x="133" y="-14.3" font-family="Arial" font-size="14.00">Data Set</text>
</g>
<!-- usedDataInterface -->
<g id="node34" class="node">
<title>usedDataInterface</title>
<ellipse fill="lightyellow" stroke="black" cx="1432.79" cy="-258" rx="98.58" ry="18"/>
<text text-anchor="middle" x="1432.79" y="-254.3" font-family="Arial" font-size="14.00">used data interface</text>
</g>
<!-- DataSet&#45;&gt;usedDataInterface -->
<g id="edge16" class="edge">
<title>DataSet&#45;&gt;usedDataInterface</title>
<path fill="none" stroke="blue" d="M171.2,-25.05C349.87,-58.04 1104.91,-197.46 1353.25,-243.31"/>
<polygon fill="blue" stroke="blue" points="1352.81,-246.79 1363.28,-245.17 1354.08,-239.91 1352.81,-246.79"/>
<text text-anchor="middle" x="748.49" y="-138.06" font-family="Arial" font-size="10.00">domain</text>
</g>
<!-- wasCollectedFrom -->
<g id="node44" class="node">
<title>wasCollectedFrom</title>
<ellipse fill="lightyellow" stroke="black" cx="376.89" cy="-218" rx="94.78" ry="18"/>
<text text-anchor="middle" x="376.89" y="-214.3" font-family="Arial" font-size="14.00">was collected from</text>
</g>
<!-- DataSet&#45;&gt;wasCollectedFrom -->
<g id="edge30" class="edge">
<title>DataSet&#45;&gt;wasCollectedFrom</title>
<path fill="none" stroke="blue" d="M155.07,-36.1C199.17,-72.26 298.16,-153.44 347.61,-193.99"/>
<polygon fill="blue" stroke="blue" points="345.44,-196.74 355.39,-200.37 349.88,-191.32 345.44,-196.74"/>
<text text-anchor="middle" x="236.82" y="-110.3" font-family="Arial" font-size="10.00">domain</text>
</g>
<!-- DataTransferEvent -->
<g id="node3" class="node">
<title>DataTransferEvent</title>
<polygon fill="lightblue" stroke="black" points="1711,-196 1556,-196 1556,-160 1711,-160 1711,-196"/>
<text text-anchor="middle" x="1633.5" y="-174.3" font-family="Arial" font-size="14.00">Data Transfer Event</text>
</g>
<!-- usedDevice -->
<g id="node49" class="node">
<title>usedDevice</title>
<ellipse fill="lightyellow" stroke="black" cx="1632.99" cy="-138" rx="64.99" ry="18"/>
<text text-anchor="middle" x="1632.99" y="-134.3" font-family="Arial" font-size="14.00">used device</text>
</g>
<!-- DataTransferEvent&#45;&gt;usedDevice -->
<g id="edge35" class="edge">
<title>DataTransferEvent&#45;&gt;usedDevice</title>
<path fill="none" stroke="blue" d="M1633.27,-159.87C1633.27,-159.73 1633.27,-159.58 1633.27,-159.44"/>
<polygon fill="blue" stroke="blue" points="1636.85,-166.35 1633.23,-156.39 1629.85,-166.43 1636.85,-166.35"/>
<text text-anchor="middle" x="1614.77" y="-151.55" font-family="Arial" font-size="10.00">domain</text>
</g>
<!-- QuantityValue -->
<g id="node4" class="node">
<title>QuantityValue</title>
<polygon fill="lightblue" stroke="black" points="1082,-116 968,-116 968,-80 1082,-80 1082,-116"/>
<text text-anchor="middle" x="1025" y="-94.3" font-family="Arial" font-size="14.00">QuantityValue</text>
</g>
<!-- Participant -->
<g id="node5" class="node">
<title>Participant</title>
<polygon fill="lightblue" stroke="black" points="1276,-76 1186,-76 1186,-40 1276,-40 1276,-76"/>
<text text-anchor="middle" x="1231" y="-54.3" font-family="Arial" font-size="14.00">Participant</text>
</g>
<!-- ObservationContext -->
<g id="node6" class="node">
<title>ObservationContext</title>
<polygon fill="lightblue" stroke="black" points="1311,-196 1151,-196 1151,-160 1311,-160 1311,-196"/>
<text text-anchor="middle" x="1231" y="-174.3" font-family="Arial" font-size="14.00">Observation Context</text>
</g>
<!-- Thing -->
<g id="node7" class="node">
<title>Thing</title>
<polygon fill="lightblue" stroke="black" points="1259,-36 1203,-36 1203,0 1259,0 1259,-36"/>
<text text-anchor="middle" x="1231" y="-14.3" font-family="Arial" font-size="14.00">Thing</text>
</g>
<!-- wasGeneratedBy -->
<g id="node33" class="node">
<title>wasGeneratedBy</title>
<ellipse fill="lightyellow" stroke="black" cx="377.09" cy="-178" rx="87.18" ry="18"/>
<text text-anchor="middle" x="377.09" y="-174.3" font-family="Arial" font-size="14.00">wasGeneratedBy</text>
</g>
<!-- Thing&#45;&gt;wasGeneratedBy -->
<g id="edge14" class="edge">
<title>Thing&#45;&gt;wasGeneratedBy</title>
<path fill="none" stroke="blue" d="M1202.59,-23.32C1084.72,-45.41 631.98,-130.24 451.75,-164.01"/>
<polygon fill="blue" stroke="blue" points="451.01,-160.59 441.82,-165.87 452.29,-167.47 451.01,-160.59"/>
<text text-anchor="middle" x="803.33" y="-97.67" font-family="Arial" font-size="10.00">domain</text>
</g>
<!-- hasContext -->
<g id="node35" class="node">
<title>hasContext</title>
<ellipse fill="lightyellow" stroke="black" cx="132.69" cy="-98" rx="63.89" ry="18"/>
<text text-anchor="middle" x="132.69" y="-94.3" font-family="Arial" font-size="14.00">has context</text>
</g>
<!-- Thing&#45;&gt;hasContext -->
<g id="edge18" class="edge">
<title>Thing&#45;&gt;hasContext</title>
<path fill="none" stroke="blue" d="M1202.75,-20.06C1060.46,-30.42 420.66,-77.02 204.39,-92.78"/>
<polygon fill="blue" stroke="blue" points="204.13,-89.29 194.41,-93.5 204.64,-96.27 204.13,-89.29"/>
<text text-anchor="middle" x="679.76" y="-59.8" font-family="Arial" font-size="10.00">domain</text>
</g>
<!-- wasAttributedTo -->
<g id="node51" class="node">
<title>wasAttributedTo</title>
<ellipse fill="lightyellow" stroke="black" cx="1025.19" cy="-178" rx="83.39" ry="18"/>
<text text-anchor="middle" x="1025.19" y="-174.3" font-family="Arial" font-size="14.00">wasAttributedTo</text>
</g>
<!-- Thing&#45;&gt;wasAttributedTo -->
<g id="edge39" class="edge">
<title>Thing&#45;&gt;wasAttributedTo</title>
<path fill="none" stroke="blue" d="M1207.79,-36.04C1170.52,-65.02 1097.3,-121.94 1055.79,-154.21"/>
<polygon fill="blue" stroke="blue" points="1053.44,-151.61 1047.69,-160.51 1057.73,-157.14 1053.44,-151.61"/>
<text text-anchor="middle" x="1109.27" y="-101.26" font-family="Arial" font-size="10.00">domain</text>
</g>
<!-- occursDuring -->
<g id="node52" class="node">
<title>occursDuring</title>
<ellipse fill="lightyellow" stroke="black" cx="811.44" cy="-138" rx="73.39" ry="18"/>
<text text-anchor="middle" x="811.44" y="-134.3" font-family="Arial" font-size="14.00">occurs during</text>
</g>
<!-- Thing&#45;&gt;occursDuring -->
<g id="edge41" class="edge">
<title>Thing&#45;&gt;occursDuring</title>
<path fill="none" stroke="blue" d="M1202.82,-26.06C1134.75,-45.53 960.25,-95.44 869,-121.54"/>
<polygon fill="blue" stroke="blue" points="868.02,-118.18 859.37,-124.29 869.94,-124.91 868.02,-118.18"/>
<text text-anchor="middle" x="1012.67" y="-78.16" font-family="Arial" font-size="10.00">domain</text>
</g>
<!-- Device -->
<g id="node8" class="node">
<title>Device</title>
<polygon fill="lightblue" stroke="black" points="843,-36 780,-36 780,0 843,0 843,-36"/>
<text text-anchor="middle" x="811.5" y="-14.3" font-family="Arial" font-size="14.00">Device</text>
</g>
<!-- QuestionnaireEntry -->
<g id="node9" class="node">
<title>QuestionnaireEntry</title>
<polygon fill="lightblue" stroke="black" points="210,-156 55,-156 55,-120 210,-120 210,-156"/>
<text text-anchor="middle" x="132.5" y="-134.3" font-family="Arial" font-size="14.00">Questionnaire Entry</text>
</g>
<!-- hasResponseItem -->
<g id="node31" class="node">
<title>hasResponseItem</title>
<ellipse fill="lightyellow" stroke="black" cx="594.59" cy="-218" rx="93.68" ry="18"/>
<text text-anchor="middle" x="594.59" y="-214.3" font-family="Arial" font-size="14.00">has response item</text>
</g>
<!-- QuestionnaireEntry&#45;&gt;hasResponseItem -->
<g id="edge10" class="edge">
<title>QuestionnaireEntry&#45;&gt;hasResponseItem</title>
<path fill="none" stroke="blue" d="M210.1,-151.44C294.8,-166.1 429.69,-189.45 515.12,-204.24"/>
<polygon fill="blue" stroke="blue" points="514.57,-207.7 525.02,-205.96 515.77,-200.8 514.57,-207.7"/>
<text text-anchor="middle" x="349.31" y="-181.74" font-family="Arial" font-size="10.00">domain</text>
</g>
<!-- wasReportedBy -->
<g id="node39" class="node">
<title>wasReportedBy</title>
<ellipse fill="lightyellow" stroke="black" cx="811.84" cy="-178" rx="83.69" ry="18"/>
<text text-anchor="middle" x="811.84" y="-174.3" font-family="Arial" font-size="14.00">was reported by</text>
</g>
<!-- QuestionnaireEntry&#45;&gt;wasReportedBy -->
<g id="edge26" class="edge">
<title>QuestionnaireEntry&#45;&gt;wasReportedBy</title>
<path fill="none" stroke="blue" d="M210.1,-142.57C336.4,-150.01 585.85,-164.69 720.5,-172.62"/>
<polygon fill="blue" stroke="blue" points="720.6,-176.13 730.79,-173.23 721.01,-169.15 720.6,-176.13"/>
<text text-anchor="middle" x="489.02" y="-149.9" font-family="Arial" font-size="10.00">domain</text>
</g>
<!-- Computation -->
<g id="node10" class="node">
<title>Computation</title>
<polygon fill="lightblue" stroke="black" points="430,-76 324,-76 324,-40 430,-40 430,-76"/>
<text text-anchor="middle" x="377" y="-54.3" font-family="Arial" font-size="14.00">Computation</text>
</g>
<!-- infersPhenotype -->
<g id="node23" class="node">
<title>infersPhenotype</title>
<ellipse fill="lightyellow" stroke="black" cx="132.74" cy="-178" rx="87.99" ry="18"/>
<text text-anchor="middle" x="132.74" y="-174.3" font-family="Arial" font-size="14.00">infers phenotype</text>
</g>
<!-- Computation&#45;&gt;infersPhenotype -->
<g id="edge1" class="edge">
<title>Computation&#45;&gt;infersPhenotype</title>
<path fill="none" stroke="blue" d="M340.17,-76.1C296.15,-97.72 222.62,-133.84 175.96,-156.77"/>
<polygon fill="blue" stroke="blue" points="174.15,-153.76 166.72,-161.31 177.24,-160.04 174.15,-153.76"/>
<text text-anchor="middle" x="234.63" y="-121.85" font-family="Arial" font-size="10.00">domain</text>
</g>
<!-- associatedWithDevice -->
<g id="node40" class="node">
<title>associatedWithDevice</title>
<ellipse fill="lightyellow" stroke="black" cx="133.24" cy="-258" rx="133.48" ry="18"/>
<text text-anchor="middle" x="133.24" y="-254.3" font-family="Arial" font-size="14.00">was associated with device</text>
</g>
<!-- Computation&#45;&gt;associatedWithDevice -->
<g id="edge28" class="edge">
<title>Computation&#45;&gt;associatedWithDevice</title>
<path fill="none" stroke="blue" d="M354.94,-76.1C310.98,-112.17 212.43,-193.03 162.88,-233.68"/>
<polygon fill="blue" stroke="blue" points="160.59,-231.03 155.07,-240.08 165.03,-236.45 160.59,-231.03"/>
<text text-anchor="middle" x="236.54" y="-150.07" font-family="Arial" font-size="10.00">domain</text>
</g>
<!-- SleepStage -->
<g id="node11" class="node">
<title>SleepStage</title>
<polygon fill="lightblue" stroke="black" points="859,-76 764,-76 764,-40 859,-40 859,-76"/>
<text text-anchor="middle" x="811.5" y="-54.3" font-family="Arial" font-size="14.00">SleepStage</text>
</g>
<!-- NotificationEvent -->
<g id="node12" class="node">
<title>NotificationEvent</title>
<polygon fill="lightblue" stroke="black" points="1095,-156 955,-156 955,-120 1095,-120 1095,-156"/>
<text text-anchor="middle" x="1025" y="-134.3" font-family="Arial" font-size="14.00">Notification Event</text>
</g>
<!-- usedAppInterface -->
<g id="node36" class="node">
<title>usedAppInterface</title>
<ellipse fill="lightyellow" stroke="black" cx="132.54" cy="-218" rx="95.58" ry="18"/>
<text text-anchor="middle" x="132.54" y="-214.3" font-family="Arial" font-size="14.00">used app interface</text>
</g>
<!-- NotificationEvent&#45;&gt;usedAppInterface -->
<g id="edge20" class="edge">
<title>NotificationEvent&#45;&gt;usedAppInterface</title>
<path fill="none" stroke="blue" d="M954.97,-144.28C796.48,-158.48 410.04,-193.13 229.04,-209.35"/>
<polygon fill="blue" stroke="blue" points="228.65,-205.87 219,-210.25 229.27,-212.84 228.65,-205.87"/>
<text text-anchor="middle" x="568.5" y="-180.26" font-family="Arial" font-size="10.00">domain</text>
</g>
<!-- SleepStageMeasurement -->
<g id="node13" class="node">
<title>SleepStageMeasurement</title>
<polygon fill="lightblue" stroke="black" points="1330,-276 1132,-276 1132,-240 1330,-240 1330,-276"/>
<text text-anchor="middle" x="1231" y="-254.3" font-family="Arial" font-size="14.00">Sleep Stage Measurement</text>
</g>
<!-- hasStage -->
<g id="node37" class="node">
<title>hasStage</title>
<ellipse fill="lightyellow" stroke="black" cx="132.6" cy="-58" rx="54.69" ry="18"/>
<text text-anchor="middle" x="132.6" y="-54.3" font-family="Arial" font-size="14.00">has stage</text>
</g>
<!-- SleepStageMeasurement&#45;&gt;hasStage -->
<g id="edge22" class="edge">
<title>SleepStageMeasurement&#45;&gt;hasStage</title>
<path fill="none" stroke="blue" d="M1132.07,-239.99C908.21,-199.23 368.49,-100.95 190.57,-68.56"/>
<polygon fill="blue" stroke="blue" points="191.08,-65.09 180.62,-66.74 189.83,-71.98 191.08,-65.09"/>
<text text-anchor="middle" x="662.58" y="-154.13" font-family="Arial" font-size="10.00">domain</text>
</g>
<!-- Question -->
<g id="node14" class="node">
<title>Question</title>
<polygon fill="lightblue" stroke="black" points="1673,-76 1594,-76 1594,-40 1673,-40 1673,-76"/>
<text text-anchor="middle" x="1633.5" y="-54.3" font-family="Arial" font-size="14.00">Question</text>
</g>
<!-- hasResponseFormat -->
<g id="node38" class="node">
<title>hasResponseFormat</title>
<ellipse fill="lightyellow" stroke="black" cx="1025.34" cy="-258" rx="103.18" ry="18"/>
<text text-anchor="middle" x="1025.34" y="-254.3" font-family="Arial" font-size="14.00">has response format</text>
</g>
<!-- Question&#45;&gt;hasResponseFormat -->
<g id="edge24" class="edge">
<title>Question&#45;&gt;hasResponseFormat</title>
<path fill="none" stroke="blue" d="M1593.6,-71.12C1489.01,-105.52 1206.56,-198.4 1083.72,-238.8"/>
<polygon fill="blue" stroke="blue" points="1082.5,-235.52 1074.1,-241.97 1084.69,-242.17 1082.5,-235.52"/>
<text text-anchor="middle" x="1343.14" y="-148.53" font-family="Arial" font-size="10.00">domain</text>
</g>
<!-- DigitalPhenotype -->
<g id="node15" class="node">
<title>DigitalPhenotype</title>
<polygon fill="lightblue" stroke="black" points="1301,-156 1162,-156 1162,-120 1301,-120 1301,-156"/>
<text text-anchor="middle" x="1231.5" y="-134.3" font-family="Arial" font-size="14.00">Digital Phenotype</text>
</g>
<!-- DataInterface -->
<g id="node16" class="node">
<title>DataInterface</title>
<polygon fill="lightblue" stroke="black" points="870,-116 754,-116 754,-80 870,-80 870,-116"/>
<text text-anchor="middle" x="812" y="-94.3" font-family="Arial" font-size="14.00">Data Interface</text>
</g>
<!-- Measurement -->
<g id="node17" class="node">
<title>Measurement</title>
<polygon fill="lightblue" stroke="black" points="1287,-116 1176,-116 1176,-80 1287,-80 1287,-116"/>
<text text-anchor="middle" x="1231.5" y="-94.3" font-family="Arial" font-size="14.00">Measurement</text>
</g>
<!-- observedProperty -->
<g id="node26" class="node">
<title>observedProperty</title>
<ellipse fill="lightyellow" stroke="black" cx="1230.99" cy="-218" rx="90.98" ry="18"/>
<text text-anchor="middle" x="1230.99" y="-214.3" font-family="Arial" font-size="14.00">observedProperty</text>
</g>
<!-- Measurement&#45;&gt;observedProperty -->
<g id="edge7" class="edge">
<title>Measurement&#45;&gt;observedProperty</title>
<path fill="none" stroke="blue" d="M1231.42,-116.23C1231.34,-135.81 1231.21,-167.18 1231.11,-189.92"/>
<polygon fill="blue" stroke="blue" points="1227.61,-189.98 1231.07,-200 1234.61,-190.01 1227.61,-189.98"/>
<text text-anchor="middle" x="1212.75" y="-161.07" font-family="Arial" font-size="10.00">domain</text>
</g>
<!-- featureOfInterest -->
<g id="node46" class="node">
<title>featureOfInterest</title>
<ellipse fill="lightyellow" stroke="black" cx="1024.64" cy="-218" rx="91.78" ry="18"/>
<text text-anchor="middle" x="1024.64" y="-214.3" font-family="Arial" font-size="14.00">feature of interest</text>
</g>
<!-- Measurement&#45;&gt;featureOfInterest -->
<g id="edge32" class="edge">
<title>Measurement&#45;&gt;featureOfInterest</title>
<path fill="none" stroke="blue" d="M1200.08,-116.23C1163.46,-137.47 1102.93,-172.59 1063.41,-195.51"/>
<polygon fill="blue" stroke="blue" points="1061.23,-192.73 1054.34,-200.77 1064.74,-198.78 1061.23,-192.73"/>
<text text-anchor="middle" x="1136.3" y="-150.59" font-family="Arial" font-size="10.00">domain</text>
</g>
<!-- quantityValue -->
<g id="node54" class="node">
<title>quantityValue</title>
<ellipse fill="lightyellow" stroke="black" cx="377.39" cy="-138" rx="75.29" ry="18"/>
<text text-anchor="middle" x="377.39" y="-134.3" font-family="Arial" font-size="14.00">quantity value</text>
</g>
<!-- Measurement&#45;&gt;quantityValue -->
<g id="edge43" class="edge">
<title>Measurement&#45;&gt;quantityValue</title>
<path fill="none" stroke="blue" d="M1175.79,-100.61C1029.8,-107.45 635.43,-125.92 461.62,-134.06"/>
<polygon fill="blue" stroke="blue" points="461.32,-130.57 451.5,-134.53 461.65,-137.56 461.32,-130.57"/>
<text text-anchor="middle" x="795.2" y="-120.57" font-family="Arial" font-size="10.00">domain</text>
</g>
<!-- DerivedFeature -->
<g id="node18" class="node">
<title>DerivedFeature</title>
<polygon fill="lightblue" stroke="black" points="441,-116 314,-116 314,-80 441,-80 441,-116"/>
<text text-anchor="middle" x="377.5" y="-94.3" font-family="Arial" font-size="14.00">Derived Feature</text>
</g>
<!-- wasDerivedFrom -->
<g id="node32" class="node">
<title>wasDerivedFrom</title>
<ellipse fill="lightyellow" stroke="black" cx="595.14" cy="-178" rx="85.29" ry="18"/>
<text text-anchor="middle" x="595.14" y="-174.3" font-family="Arial" font-size="14.00">wasDerivedFrom</text>
</g>
<!-- DerivedFeature&#45;&gt;wasDerivedFrom -->
<g id="edge12" class="edge">
<title>DerivedFeature&#45;&gt;wasDerivedFrom</title>
<path fill="none" stroke="blue" d="M426.61,-116.05C461.22,-128.77 507.5,-145.79 542.81,-158.76"/>
<polygon fill="blue" stroke="blue" points="541.86,-162.14 552.45,-162.31 544.28,-155.57 541.86,-162.14"/>
<text text-anchor="middle" x="471.19" y="-131.24" font-family="Arial" font-size="10.00">domain</text>
</g>
<!-- wasComputedBy -->
<g id="node50" class="node">
<title>wasComputedBy</title>
<ellipse fill="lightyellow" stroke="black" cx="1432.99" cy="-218" rx="90.98" ry="18"/>
<text text-anchor="middle" x="1432.99" y="-214.3" font-family="Arial" font-size="14.00">was computed by</text>
</g>
<!-- DerivedFeature&#45;&gt;wasComputedBy -->
<g id="edge37" class="edge">
<title>DerivedFeature&#45;&gt;wasComputedBy</title>
<path fill="none" stroke="blue" d="M441.15,-105.24C621.38,-125.73 1135.61,-184.19 1343.83,-207.86"/>
<polygon fill="blue" stroke="blue" points="1343.48,-211.35 1353.82,-209 1344.27,-204.39 1343.48,-211.35"/>
<text text-anchor="middle" x="916.07" y="-160.13" font-family="Arial" font-size="10.00">domain</text>
</g>
<!-- AppInterface -->
<g id="node19" class="node">
<title>AppInterface</title>
<polygon fill="lightblue" stroke="black" points="1488,-116 1377,-116 1377,-80 1488,-80 1488,-116"/>
<text text-anchor="middle" x="1432.5" y="-94.3" font-family="Arial" font-size="14.00">App Interface</text>
</g>
<!-- ResponseItem -->
<g id="node20" class="node">
<title>ResponseItem</title>
<polygon fill="lightblue" stroke="black" points="655,-116 536,-116 536,-80 655,-80 655,-116"/>
<text text-anchor="middle" x="595.5" y="-94.3" font-family="Arial" font-size="14.00">Response Item</text>
</g>
<!-- answersQuestion -->
<g id="node25" class="node">
<title>answersQuestion</title>
<ellipse fill="lightyellow" stroke="black" cx="1633.34" cy="-218" rx="90.18" ry="18"/>
<text text-anchor="middle" x="1633.34" y="-214.3" font-family="Arial" font-size="14.00">answers question</text>
</g>
<!-- ResponseItem&#45;&gt;answersQuestion -->
<g id="edge5" class="edge">
<title>ResponseItem&#45;&gt;answersQuestion</title>
<path fill="none" stroke="blue" d="M655.03,-104.88C829.22,-125.02 1338.62,-183.92 1544.99,-207.78"/>
<polygon fill="blue" stroke="blue" points="1544.85,-211.29 1555.18,-208.96 1545.65,-204.34 1544.85,-211.29"/>
<text text-anchor="middle" x="1123.36" y="-159.89" font-family="Arial" font-size="10.00">domain</text>
</g>
<!-- ResponseFormat -->
<g id="node21" class="node">
<title>ResponseFormat</title>
<polygon fill="lightblue" stroke="black" points="1501,-156 1365,-156 1365,-120 1501,-120 1501,-156"/>
<text text-anchor="middle" x="1433" y="-134.3" font-family="Arial" font-size="14.00">Response Format</text>
</g>
<!-- inScheme -->
<g id="node22" class="node">
<title>inScheme</title>
<ellipse fill="lightyellow" stroke="black" cx="1633.25" cy="-98" rx="55.49" ry="18"/>
<text text-anchor="middle" x="1633.25" y="-94.3" font-family="Arial" font-size="14.00">inScheme</text>
</g>
<!-- infersPhenotype&#45;&gt;DigitalPhenotype -->
<g id="edge2" class="edge">
<title>infersPhenotype&#45;&gt;DigitalPhenotype</title>
<path fill="none" stroke="green" d="M219.42,-174.84C427.12,-167.28 950.87,-148.22 1151.55,-140.91"/>
<polygon fill="green" stroke="green" points="1151.86,-144.4 1161.72,-140.54 1151.6,-137.41 1151.86,-144.4"/>
<text text-anchor="middle" x="704.78" y="-160.68" font-family="Arial" font-size="10.00">range</text>
</g>
<!-- requiresComputation&#45;&gt;Computation -->
<g id="edge4" class="edge">
<title>requiresComputation&#45;&gt;Computation</title>
<path fill="none" stroke="green" d="M575.28,-240.25C536.52,-204.63 449.16,-124.32 404.46,-83.24"/>
<polygon fill="green" stroke="green" points="406.63,-80.48 396.89,-76.29 401.89,-85.63 406.63,-80.48"/>
<text text-anchor="middle" x="500.42" y="-161.57" font-family="Arial" font-size="10.00">range</text>
</g>
<!-- answersQuestion&#45;&gt;Question -->
<g id="edge6" class="edge">
<title>answersQuestion&#45;&gt;Question</title>
<path fill="none" stroke="green" d="M1633.36,-199.96C1633.39,-172.35 1633.44,-119.37 1633.47,-86.53"/>
<polygon fill="green" stroke="green" points="1636.97,-86.23 1633.48,-76.22 1629.97,-86.22 1636.97,-86.23"/>
<text text-anchor="middle" x="1619.42" y="-140.88" font-family="Arial" font-size="10.00">range</text>
</g>
<!-- observedProperty&#45;&gt;observedProperty -->
<g id="edge52" class="edge">
<title>observedProperty&#45;&gt;observedProperty</title>
<path fill="none" stroke="red" stroke-dasharray="5,2" d="M1266.61,-234.58C1322.59,-252.71 1393.98,-247.18 1393.98,-218 1393.98,-190.47 1330.45,-183.99 1276.26,-198.56"/>
<polygon fill="red" stroke="red" points="1275.21,-195.22 1266.61,-201.42 1277.2,-201.94 1275.21,-195.22"/>
<text text-anchor="middle" x="1428.98" y="-215.5" font-family="Arial" font-size="10.00">subPropertyOf</text>
</g>
<!-- related -->
<g id="node27" class="node">
<title>related</title>
<ellipse fill="lightyellow" stroke="black" cx="1433.25" cy="-58" rx="42.49" ry="18"/>
<text text-anchor="middle" x="1433.25" y="-54.3" font-family="Arial" font-size="14.00">related</text>
</g>
<!-- hasMeasurement&#45;&gt;Measurement -->
<g id="edge9" class="edge">
<title>hasMeasurement&#45;&gt;Measurement</title>
<path fill="none" stroke="green" d="M863.66,-203.04C940.19,-181.19 1082.53,-140.54 1165.92,-116.73"/>
<polygon fill="green" stroke="green" points="1167.14,-120.02 1175.79,-113.91 1165.21,-113.29 1167.14,-120.02"/>
<text text-anchor="middle" x="1005.39" y="-161.57" font-family="Arial" font-size="10.00">range</text>
</g>
<!-- wasAssociatedWith -->
<g id="node29" class="node">
<title>wasAssociatedWith</title>
<ellipse fill="lightyellow" stroke="black" cx="1633.49" cy="-258" rx="97.48" ry="18"/>
<text text-anchor="middle" x="1633.49" y="-254.3" font-family="Arial" font-size="14.00">wasAssociatedWith</text>
</g>
<!-- broader -->
<g id="node30" class="node">
<title>broader</title>
<ellipse fill="lightyellow" stroke="black" cx="1025.15" cy="-58" rx="46.29" ry="18"/>
<text text-anchor="middle" x="1025.15" y="-54.3" font-family="Arial" font-size="14.00">broader</text>
</g>
<!-- hasResponseItem&#45;&gt;ResponseItem -->
<g id="edge11" class="edge">
<title>hasResponseItem&#45;&gt;ResponseItem</title>
<path fill="none" stroke="green" d="M594.73,-199.77C594.88,-180.19 595.12,-148.82 595.29,-126.08"/>
<polygon fill="green" stroke="green" points="598.79,-126.03 595.36,-116 591.79,-125.98 598.79,-126.03"/>
<text text-anchor="middle" x="581.05" y="-160.93" font-family="Arial" font-size="10.00">range</text>
</g>
<!-- wasDerivedFrom&#45;&gt;Thing -->
<g id="edge13" class="edge">
<title>wasDerivedFrom&#45;&gt;Thing</title>
<path fill="none" stroke="green" d="M650.18,-164.15C776.59,-132.34 1085.06,-54.72 1192.97,-27.57"/>
<polygon fill="green" stroke="green" points="1193.93,-30.94 1202.78,-25.1 1192.22,-24.15 1193.93,-30.94"/>
<text text-anchor="middle" x="914.59" y="-97.09" font-family="Arial" font-size="10.00">range</text>
</g>
<!-- wasDerivedFrom&#45;&gt;wasDerivedFrom -->
<g id="edge45" class="edge">
<title>wasDerivedFrom&#45;&gt;wasDerivedFrom</title>
<path fill="none" stroke="red" stroke-dasharray="5,2" d="M629.49,-194.58C683.46,-212.71 752.28,-207.18 752.28,-178 752.28,-150.53 691.29,-144.02 639.11,-158.47"/>
<polygon fill="red" stroke="red" points="638.03,-155.14 629.49,-161.42 640.07,-161.84 638.03,-155.14"/>
<text text-anchor="middle" x="787.28" y="-175.5" font-family="Arial" font-size="10.00">subPropertyOf</text>
</g>
<!-- wasGeneratedBy&#45;&gt;Computation -->
<g id="edge15" class="edge">
<title>wasGeneratedBy&#45;&gt;Computation</title>
<path fill="none" stroke="green" d="M377.08,-159.77C377.06,-140.19 377.04,-108.82 377.02,-86.08"/>
<polygon fill="green" stroke="green" points="380.52,-86 377.01,-76 373.52,-86.01 380.52,-86"/>
<text text-anchor="middle" x="363.05" y="-120.93" font-family="Arial" font-size="10.00">range</text>
</g>
<!-- wasGeneratedBy&#45;&gt;wasGeneratedBy -->
<g id="edge48" class="edge">
<title>wasGeneratedBy&#45;&gt;wasGeneratedBy</title>
<path fill="none" stroke="red" stroke-dasharray="5,2" d="M411.86,-194.58C466.5,-212.71 536.18,-207.18 536.18,-178 536.18,-150.53 474.43,-144.02 421.6,-158.47"/>
<polygon fill="red" stroke="red" points="420.42,-155.17 411.86,-161.42 422.45,-161.88 420.42,-155.17"/>
<text text-anchor="middle" x="571.18" y="-175.5" font-family="Arial" font-size="10.00">subPropertyOf</text>
</g>
<!-- usedDataInterface&#45;&gt;DataInterface -->
<g id="edge17" class="edge">
<title>usedDataInterface&#45;&gt;DataInterface</title>
<path fill="none" stroke="green" d="M1375.5,-243.23C1260.65,-213.63 1002.74,-147.16 879.74,-115.46"/>
<polygon fill="green" stroke="green" points="880.61,-112.07 870.05,-112.96 878.86,-118.85 880.61,-112.07"/>
<text text-anchor="middle" x="1136.95" y="-181.14" font-family="Arial" font-size="10.00">range</text>
</g>
<!-- hasContext&#45;&gt;ObservationContext -->
<g id="edge19" class="edge">
<title>hasContext&#45;&gt;ObservationContext</title>
<path fill="none" stroke="green" d="M194.49,-102.5C378.57,-115.91 923.83,-155.63 1140.63,-171.42"/>
<polygon fill="green" stroke="green" points="1140.47,-174.92 1150.7,-172.15 1140.98,-167.93 1140.47,-174.92"/>
<text text-anchor="middle" x="686.23" y="-140.3" font-family="Arial" font-size="10.00">range</text>
</g>
<!-- usedAppInterface&#45;&gt;AppInterface -->
<g id="edge21" class="edge">
<title>usedAppInterface&#45;&gt;AppInterface</title>
<path fill="none" stroke="green" d="M218.34,-210.08C461.26,-187.66 1150.18,-124.06 1366.6,-104.08"/>
<polygon fill="green" stroke="green" points="1367.21,-107.54 1376.85,-103.14 1366.57,-100.57 1367.21,-107.54"/>
<text text-anchor="middle" x="788.45" y="-159.16" font-family="Arial" font-size="10.00">range</text>
</g>
<!-- used -->
<g id="node48" class="node">
<title>used</title>
<ellipse fill="lightyellow" stroke="black" cx="595.5" cy="-18" rx="32.49" ry="18"/>
<text text-anchor="middle" x="595.5" y="-14.3" font-family="Arial" font-size="14.00">used</text>
</g>
<!-- usedAppInterface&#45;&gt;used -->
<g id="edge46" class="edge">
<title>usedAppInterface&#45;&gt;used</title>
<path fill="none" stroke="red" stroke-dasharray="5,2" d="M170.82,-201.46C259.06,-163.34 475.66,-69.77 560.56,-33.1"/>
<polygon fill="red" stroke="red" points="561.98,-36.29 569.77,-29.11 559.2,-29.87 561.98,-36.29"/>
<text text-anchor="middle" x="405.05" y="-118.39" font-family="Arial" font-size="10.00">subPropertyOf</text>
</g>
<!-- hasStage&#45;&gt;SleepStage -->
<g id="edge23" class="edge">
<title>hasStage&#45;&gt;SleepStage</title>
<path fill="none" stroke="green" d="M187.29,-58C313.56,-58 624.44,-58 753.69,-58"/>
<polygon fill="green" stroke="green" points="753.78,-61.5 763.78,-58 753.78,-54.5 753.78,-61.5"/>
<text text-anchor="middle" x="461.16" y="-61" font-family="Arial" font-size="10.00">range</text>
</g>
<!-- hasResponseFormat&#45;&gt;ResponseFormat -->
<g id="edge25" class="edge">
<title>hasResponseFormat&#45;&gt;ResponseFormat</title>
<path fill="none" stroke="green" d="M1078.22,-242.44C1150.67,-221.11 1281.03,-182.73 1361.95,-158.91"/>
<polygon fill="green" stroke="green" points="1362.96,-162.26 1371.57,-156.08 1360.99,-155.55 1362.96,-162.26"/>
<text text-anchor="middle" x="1210.8" y="-191.29" font-family="Arial" font-size="10.00">range</text>
</g>
<!-- wasReportedBy&#45;&gt;Participant -->
<g id="edge27" class="edge">
<title>wasReportedBy&#45;&gt;Participant</title>
<path fill="none" stroke="green" d="M862.4,-163.53C941.6,-140.85 1094.28,-97.14 1176.08,-73.72"/>
<polygon fill="green" stroke="green" points="1177.05,-77.09 1185.7,-70.97 1175.12,-70.36 1177.05,-77.09"/>
<text text-anchor="middle" x="1010.07" y="-120.24" font-family="Arial" font-size="10.00">range</text>
</g>
<!-- associatedWithDevice&#45;&gt;Device -->
<g id="edge29" class="edge">
<title>associatedWithDevice&#45;&gt;Device</title>
<path fill="none" stroke="green" d="M180.93,-241.12C307.63,-196.29 651.07,-74.77 770.16,-32.63"/>
<polygon fill="green" stroke="green" points="771.41,-35.9 779.67,-29.26 769.07,-29.3 771.41,-35.9"/>
<text text-anchor="middle" x="494.45" y="-138.14" font-family="Arial" font-size="10.00">range</text>
</g>
<!-- associatedWithDevice&#45;&gt;wasAssociatedWith -->
<g id="edge49" class="edge">
<title>associatedWithDevice&#45;&gt;wasAssociatedWith</title>
<path fill="none" stroke="red" stroke-dasharray="5,2" d="M266.71,-258C560.22,-258 1256.95,-258 1525.42,-258"/>
<polygon fill="red" stroke="red" points="1525.57,-261.5 1535.57,-258 1525.57,-254.5 1525.57,-261.5"/>
<text text-anchor="middle" x="905.5" y="-250" font-family="Arial" font-size="10.00">subPropertyOf</text>
</g>
<!-- unit -->
<g id="node41" class="node">
<title>unit</title>
<ellipse fill="lightyellow" stroke="black" cx="1024.6" cy="-18" rx="28.7" ry="18"/>
<text text-anchor="middle" x="1024.6" y="-14.3" font-family="Arial" font-size="14.00">unit</text>
</g>
<!-- hasTopConcept -->
<g id="node42" class="node">
<title>hasTopConcept</title>
<ellipse fill="lightyellow" stroke="black" cx="1433.29" cy="-178" rx="79.09" ry="18"/>
<text text-anchor="middle" x="1433.29" y="-174.3" font-family="Arial" font-size="14.00">hasTopConcept</text>
</g>
<!-- hasFeatureOfInterest -->
<g id="node43" class="node">
<title>hasFeatureOfInterest</title>
<ellipse fill="lightyellow" stroke="black" cx="811.94" cy="-258" rx="105.88" ry="18"/>
<text text-anchor="middle" x="811.94" y="-254.3" font-family="Arial" font-size="14.00">hasFeatureOfInterest</text>
</g>
<!-- wasCollectedFrom&#45;&gt;Participant -->
<g id="edge31" class="edge">
<title>wasCollectedFrom&#45;&gt;Participant</title>
<path fill="none" stroke="green" d="M444.63,-205.31C608.74,-174.57 1025.19,-96.55 1175.68,-68.36"/>
<polygon fill="green" stroke="green" points="1176.44,-71.78 1185.62,-66.5 1175.15,-64.9 1176.44,-71.78"/>
<text text-anchor="middle" x="801.68" y="-138.8" font-family="Arial" font-size="10.00">range</text>
</g>
<!-- topConceptOf -->
<g id="node45" class="node">
<title>topConceptOf</title>
<ellipse fill="lightyellow" stroke="black" cx="595.44" cy="-138" rx="73.39" ry="18"/>
<text text-anchor="middle" x="595.44" y="-134.3" font-family="Arial" font-size="14.00">topConceptOf</text>
</g>
<!-- featureOfInterest&#45;&gt;hasFeatureOfInterest -->
<g id="edge50" class="edge">
<title>featureOfInterest&#45;&gt;hasFeatureOfInterest</title>
<path fill="none" stroke="red" stroke-dasharray="5,2" d="M958.22,-230.49C937.59,-234.37 914.62,-238.69 893.11,-242.73"/>
<polygon fill="red" stroke="red" points="892.2,-239.35 883.02,-244.63 893.49,-246.22 892.2,-239.35"/>
<text text-anchor="middle" x="938.33" y="-229.52" font-family="Arial" font-size="10.00">subPropertyOf</text>
</g>
<!-- supportsInferenceOf&#45;&gt;DigitalPhenotype -->
<g id="edge34" class="edge">
<title>supportsInferenceOf&#45;&gt;DigitalPhenotype</title>
<path fill="none" stroke="green" d="M459.54,-246.44C623.52,-223.4 989.15,-172.04 1151.35,-149.26"/>
<polygon fill="green" stroke="green" points="1152.32,-152.66 1161.73,-147.8 1151.35,-145.73 1152.32,-152.66"/>
<text text-anchor="middle" x="796.76" y="-200.1" font-family="Arial" font-size="10.00">range</text>
</g>
<!-- usedDevice&#45;&gt;Device -->
<g id="edge36" class="edge">
<title>usedDevice&#45;&gt;Device</title>
<path fill="none" stroke="green" d="M1575.23,-129.56C1418.61,-106.68 988.59,-43.87 853.01,-24.06"/>
<polygon fill="green" stroke="green" points="853.43,-20.59 843.03,-22.61 852.42,-27.51 853.43,-20.59"/>
<text text-anchor="middle" x="1192.18" y="-78.65" font-family="Arial" font-size="10.00">range</text>
</g>
<!-- usedDevice&#45;&gt;used -->
<g id="edge47" class="edge">
<title>usedDevice&#45;&gt;used</title>
<path fill="none" stroke="red" stroke-dasharray="5,2" d="M1572.73,-131.03C1382.72,-109.05 799.22,-41.56 637.46,-22.85"/>
<polygon fill="red" stroke="red" points="637.76,-19.36 627.42,-21.69 636.95,-26.32 637.76,-19.36"/>
<text text-anchor="middle" x="1129.47" y="-78.71" font-family="Arial" font-size="10.00">subPropertyOf</text>
</g>
<!-- wasComputedBy&#45;&gt;Computation -->
<g id="edge38" class="edge">
<title>wasComputedBy&#45;&gt;Computation</title>
<path fill="none" stroke="green" d="M1360.41,-207C1164.1,-177.26 625.04,-95.58 440.19,-67.57"/>
<polygon fill="green" stroke="green" points="440.5,-64.08 430.09,-66.04 439.45,-71 440.5,-64.08"/>
<text text-anchor="middle" x="909.47" y="-139.56" font-family="Arial" font-size="10.00">range</text>
</g>
<!-- wasAttributedTo&#45;&gt;Participant -->
<g id="edge40" class="edge">
<title>wasAttributedTo&#45;&gt;Participant</title>
<path fill="none" stroke="green" d="M1054.24,-161.06C1090.09,-140.16 1151.21,-104.52 1191.35,-81.12"/>
<polygon fill="green" stroke="green" points="1193.2,-84.09 1200.08,-76.03 1189.68,-78.04 1193.2,-84.09"/>
<text text-anchor="middle" x="1113" y="-121.64" font-family="Arial" font-size="10.00">range</text>
</g>
<!-- wasAttributedTo&#45;&gt;wasAttributedTo -->
<g id="edge51" class="edge">
<title>wasAttributedTo&#45;&gt;wasAttributedTo</title>
<path fill="none" stroke="red" stroke-dasharray="5,2" d="M1059.11,-194.58C1112.41,-212.71 1180.39,-207.18 1180.39,-178 1180.39,-150.59 1120.39,-144.05 1068.93,-158.38"/>
<polygon fill="red" stroke="red" points="1067.63,-155.12 1059.11,-161.42 1069.7,-161.81 1067.63,-155.12"/>
<text text-anchor="middle" x="1215.39" y="-175.5" font-family="Arial" font-size="10.00">subPropertyOf</text>
</g>
<!-- occursDuring&#45;&gt;ObservationContext -->
<g id="edge42" class="edge">
<title>occursDuring&#45;&gt;ObservationContext</title>
<path fill="none" stroke="green" d="M880.25,-144.56C951.23,-151.33 1062.27,-161.91 1140.36,-169.36"/>
<polygon fill="green" stroke="green" points="1140.38,-172.88 1150.67,-170.34 1141.05,-165.91 1140.38,-172.88"/>
<text text-anchor="middle" x="1001.26" y="-149.43" font-family="Arial" font-size="10.00">range</text>
</g>
<!-- narrower -->
<g id="node53" class="node">
<title>narrower</title>
<ellipse fill="lightyellow" stroke="black" cx="594.7" cy="-58" rx="50.89" ry="18"/>
<text text-anchor="middle" x="594.7" y="-54.3" font-family="Arial" font-size="14.00">narrower</text>
</g>
<!-- quantityValue&#45;&gt;QuantityValue -->
<g id="edge44" class="edge">
<title>quantityValue&#45;&gt;QuantityValue</title>
<path fill="none" stroke="green" d="M450.42,-133.49C577.03,-125.67 835.43,-109.71 957.84,-102.15"/>
<polygon fill="green" stroke="green" points="958.06,-105.64 967.83,-101.53 957.63,-98.65 958.06,-105.64"/>
<text text-anchor="middle" x="695.07" y="-120.51" font-family="Arial" font-size="10.00">range</text>
</g>
</g>
</svg>
