<?xml version="1.0" encoding="UTF-8" standalone="no"?>
<!DOCTYPE svg PUBLIC "-//W3C//DTD SVG 1.1//EN"
 "http://www.w3.org/Graphics/SVG/1.1/DTD/svg11.dtd">
<!-- Generated by graphviz version 2.43.0 (0)
 -->
<!-- Title: Object Properties Pages: 1 -->
<svg width="2058pt" height="2340pt"
 viewBox="0.00 0.00 2057.83 2340.37" xmlns="http://www.w3.org/2000/svg" xmlns:xlink="http://www.w3.org/1999/xlink">
<g id="graph0" class="graph" transform="scale(1 1) rotate(0) translate(4 2336.37)">
<title>Object Properties</title>
<polygon fill="white" stroke="transparent" points="-4,4 -4,-2336.37 2053.83,-2336.37 2053.83,4 -4,4"/>
<!-- DataInterface -->
<g id="node1" class="node">
<title>DataInterface</title>
<polygon fill="lightblue" stroke="black" points="1550.32,-514.7 1434.32,-514.7 1434.32,-478.7 1550.32,-478.7 1550.32,-514.7"/>
<text text-anchor="middle" x="1492.32" y="-493" font-family="Arial" font-size="14.00">Data Interface</text>
</g>
<!-- Measurement -->
<g id="node2" class="node">
<title>Measurement</title>
<polygon fill="lightblue" stroke="black" points="377.44,-1322.55 266.44,-1322.55 266.44,-1286.55 377.44,-1286.55 377.44,-1322.55"/>
<text text-anchor="middle" x="321.94" y="-1300.85" font-family="Arial" font-size="14.00">Measurement</text>
</g>
<!-- observedProperty -->
<g id="node26" class="node">
<title>observedProperty</title>
<ellipse fill="lightyellow" stroke="black" cx="325.28" cy="-1756.26" rx="90.98" ry="18"/>
<text text-anchor="middle" x="325.28" y="-1752.56" font-family="Arial" font-size="14.00">observedProperty</text>
</g>
<!-- Measurement&#45;&gt;observedProperty -->
<g id="edge7" class="edge">
<title>Measurement&#45;&gt;observedProperty</title>
<path fill="none" stroke="blue" d="M322.08,-1322.82C322.59,-1392.55 324.44,-1642.33 325.07,-1727.54"/>
<polygon fill="blue" stroke="blue" points="321.57,-1727.79 325.14,-1737.77 328.57,-1727.74 321.57,-1727.79"/>
<text text-anchor="middle" x="305.11" y="-1533.41" font-family="Arial" font-size="10.00">domain</text>
</g>
<!-- featureOfInterest -->
<g id="node46" class="node">
<title>featureOfInterest</title>
<ellipse fill="lightyellow" stroke="black" cx="213.94" cy="-1304.55" rx="91.78" ry="18"/>
<text text-anchor="middle" x="213.94" y="-1300.85" font-family="Arial" font-size="14.00">feature of interest</text>
</g>
<!-- Measurement&#45;&gt;featureOfInterest -->
<g id="edge32" class="edge">
<title>Measurement&#45;&gt;featureOfInterest</title>
<path fill="none" stroke="blue" d="M266.36,-1304.55C266.31,-1304.55 266.26,-1304.55 266.2,-1304.55"/>
<polygon fill="blue" stroke="blue" points="276.05,-1301.06 266.05,-1304.55 276.05,-1308.06 276.05,-1301.06"/>
<text text-anchor="middle" x="247.78" y="-1307.55" font-family="Arial" font-size="10.00">domain</text>
</g>
<!-- quantityValue -->
<g id="node54" class="node">
<title>quantityValue</title>
<ellipse fill="lightyellow" stroke="black" cx="325.28" cy="-852.84" rx="75.29" ry="18"/>
<text text-anchor="middle" x="325.28" y="-849.14" font-family="Arial" font-size="14.00">quantity value</text>
</g>
<!-- Measurement&#45;&gt;quantityValue -->
<g id="edge43" class="edge">
<title>Measurement&#45;&gt;quantityValue</title>
<path fill="none" stroke="blue" d="M322.08,-1286.28C322.59,-1216.55 324.44,-966.77 325.07,-881.56"/>
<polygon fill="blue" stroke="blue" points="328.57,-881.36 325.14,-871.33 321.57,-881.31 328.57,-881.36"/>
<text text-anchor="middle" x="305.11" y="-1081.69" font-family="Arial" font-size="10.00">domain</text>
</g>
<!-- Device -->
<g id="node3" class="node">
<title>Device</title>
<polygon fill="lightblue" stroke="black" points="1447.22,-1928.44 1384.22,-1928.44 1384.22,-1892.44 1447.22,-1892.44 1447.22,-1928.44"/>
<text text-anchor="middle" x="1415.72" y="-1906.74" font-family="Arial" font-size="14.00">Device</text>
</g>
<!-- DerivedFeature -->
<g id="node4" class="node">
<title>DerivedFeature</title>
<polygon fill="lightblue" stroke="black" points="1572.8,-1036.08 1445.8,-1036.08 1445.8,-1000.08 1572.8,-1000.08 1572.8,-1036.08"/>
<text text-anchor="middle" x="1509.3" y="-1014.38" font-family="Arial" font-size="14.00">Derived Feature</text>
</g>
<!-- wasDerivedFrom -->
<g id="node32" class="node">
<title>wasDerivedFrom</title>
<ellipse fill="lightyellow" stroke="black" cx="1428.46" cy="-1089.7" rx="85.29" ry="18"/>
<text text-anchor="middle" x="1428.46" y="-1086" font-family="Arial" font-size="14.00">wasDerivedFrom</text>
</g>
<!-- DerivedFeature&#45;&gt;wasDerivedFrom -->
<g id="edge12" class="edge">
<title>DerivedFeature&#45;&gt;wasDerivedFrom</title>
<path fill="none" stroke="blue" d="M1488.9,-1036.15C1478.89,-1045.02 1466.68,-1055.84 1455.87,-1065.42"/>
<polygon fill="blue" stroke="blue" points="1453.46,-1062.88 1448.29,-1072.13 1458.1,-1068.12 1453.46,-1062.88"/>
<text text-anchor="middle" x="1450.2" y="-1057.05" font-family="Arial" font-size="10.00">domain</text>
</g>
<!-- wasComputedBy -->
<g id="node50" class="node">
<title>wasComputedBy</title>
<ellipse fill="lightyellow" stroke="black" cx="879.19" cy="-860.14" rx="90.98" ry="18"/>
<text text-anchor="middle" x="879.19" y="-856.44" font-family="Arial" font-size="14.00">was computed by</text>
</g>
<!-- DerivedFeature&#45;&gt;wasComputedBy -->
<g id="edge37" class="edge">
<title>DerivedFeature&#45;&gt;wasComputedBy</title>
<path fill="none" stroke="blue" d="M1445.7,-1002.14C1325.95,-972.12 1068.08,-907.49 945.94,-876.87"/>
<polygon fill="blue" stroke="blue" points="946.52,-873.41 935.97,-874.37 944.82,-880.2 946.52,-873.41"/>
<text text-anchor="middle" x="1172.11" y="-941.2" font-family="Arial" font-size="10.00">domain</text>
</g>
<!-- QuantityValue -->
<g id="node5" class="node">
<title>QuantityValue</title>
<polygon fill="lightblue" stroke="black" points="286.65,-820.65 172.65,-820.65 172.65,-784.65 286.65,-784.65 286.65,-820.65"/>
<text text-anchor="middle" x="229.65" y="-798.95" font-family="Arial" font-size="14.00">QuantityValue</text>
</g>
<!-- Question -->
<g id="node6" class="node">
<title>Question</title>
<polygon fill="lightblue" stroke="black" points="1095.26,-250.43 1016.26,-250.43 1016.26,-214.43 1095.26,-214.43 1095.26,-250.43"/>
<text text-anchor="middle" x="1055.76" y="-228.73" font-family="Arial" font-size="14.00">Question</text>
</g>
<!-- hasResponseFormat -->
<g id="node38" class="node">
<title>hasResponseFormat</title>
<ellipse fill="lightyellow" stroke="black" cx="1042.74" cy="-125.21" rx="103.18" ry="18"/>
<text text-anchor="middle" x="1042.74" y="-121.51" font-family="Arial" font-size="14.00">has response format</text>
</g>
<!-- Question&#45;&gt;hasResponseFormat -->
<g id="edge24" class="edge">
<title>Question&#45;&gt;hasResponseFormat</title>
<path fill="none" stroke="blue" d="M1053.55,-214.24C1051.53,-197.6 1048.51,-172.73 1046.18,-153.5"/>
<polygon fill="blue" stroke="blue" points="1049.64,-152.99 1044.96,-143.49 1042.69,-153.84 1049.64,-152.99"/>
<text text-anchor="middle" x="1030.75" y="-181.8" font-family="Arial" font-size="10.00">domain</text>
</g>
<!-- Thing -->
<g id="node7" class="node">
<title>Thing</title>
<polygon fill="lightblue" stroke="black" points="1004.22,-1374.24 948.22,-1374.24 948.22,-1338.24 1004.22,-1338.24 1004.22,-1374.24"/>
<text text-anchor="middle" x="976.22" y="-1352.54" font-family="Arial" font-size="14.00">Thing</text>
</g>
<!-- wasGeneratedBy -->
<g id="node33" class="node">
<title>wasGeneratedBy</title>
<ellipse fill="lightyellow" stroke="black" cx="1001.89" cy="-1571.2" rx="87.18" ry="18"/>
<text text-anchor="middle" x="1001.89" y="-1567.5" font-family="Arial" font-size="14.00">wasGeneratedBy</text>
</g>
<!-- Thing&#45;&gt;wasGeneratedBy -->
<g id="edge14" class="edge">
<title>Thing&#45;&gt;wasGeneratedBy</title>
<path fill="none" stroke="blue" d="M978.41,-1374.57C982.89,-1412.09 993.13,-1497.87 998.49,-1542.71"/>
<polygon fill="blue" stroke="blue" points="995.04,-1543.4 999.7,-1552.92 1001.99,-1542.57 995.04,-1543.4"/>
<text text-anchor="middle" x="970.55" y="-1466.72" font-family="Arial" font-size="10.00">domain</text>
</g>
<!-- hasContext -->
<g id="node35" class="node">
<title>hasContext</title>
<ellipse fill="lightyellow" stroke="black" cx="1081.08" cy="-1330.4" rx="63.89" ry="18"/>
<text text-anchor="middle" x="1081.08" y="-1326.7" font-family="Arial" font-size="14.00">has context</text>
</g>
<!-- Thing&#45;&gt;hasContext -->
<g id="edge18" class="edge">
<title>Thing&#45;&gt;hasContext</title>
<path fill="none" stroke="blue" d="M1004.32,-1349.32C1010.13,-1347.88 1016.46,-1346.32 1022.9,-1344.74"/>
<polygon fill="blue" stroke="blue" points="1024.19,-1348.02 1033.06,-1342.23 1022.51,-1341.23 1024.19,-1348.02"/>
<text text-anchor="middle" x="1037.19" y="-1348.77" font-family="Arial" font-size="10.00">domain</text>
</g>
<!-- wasAttributedTo -->
<g id="node51" class="node">
<title>wasAttributedTo</title>
<ellipse fill="lightyellow" stroke="black" cx="1224.99" cy="-982.91" rx="83.39" ry="18"/>
<text text-anchor="middle" x="1224.99" y="-979.21" font-family="Arial" font-size="14.00">wasAttributedTo</text>
</g>
<!-- Thing&#45;&gt;wasAttributedTo -->
<g id="edge39" class="edge">
<title>Thing&#45;&gt;wasAttributedTo</title>
<path fill="none" stroke="blue" d="M988.22,-1338.24C1028.61,-1277.62 1159.79,-1080.76 1207.47,-1009.21"/>
<polygon fill="blue" stroke="blue" points="1210.48,-1011 1213.12,-1000.74 1204.66,-1007.12 1210.48,-1011"/>
<text text-anchor="middle" x="1082.26" y="-1172.34" font-family="Arial" font-size="10.00">domain</text>
</g>
<!-- occursDuring -->
<g id="node52" class="node">
<title>occursDuring</title>
<ellipse fill="lightyellow" stroke="black" cx="1290.8" cy="-1278.7" rx="73.39" ry="18"/>
<text text-anchor="middle" x="1290.8" y="-1275" font-family="Arial" font-size="14.00">occurs during</text>
</g>
<!-- Thing&#45;&gt;occursDuring -->
<g id="edge41" class="edge">
<title>Thing&#45;&gt;occursDuring</title>
<path fill="none" stroke="blue" d="M1004.41,-1349.29C1054.72,-1336.89 1161.05,-1310.69 1229.04,-1293.93"/>
<polygon fill="blue" stroke="blue" points="1229.91,-1297.32 1238.78,-1291.53 1228.24,-1290.52 1229.91,-1297.32"/>
<text text-anchor="middle" x="1139.79" y="-1323.49" font-family="Arial" font-size="10.00">domain</text>
</g>
<!-- SleepStageMeasurement -->
<g id="node8" class="node">
<title>SleepStageMeasurement</title>
<polygon fill="lightblue" stroke="black" points="736.94,-959.55 538.94,-959.55 538.94,-923.55 736.94,-923.55 736.94,-959.55"/>
<text text-anchor="middle" x="637.94" y="-937.85" font-family="Arial" font-size="14.00">Sleep Stage Measurement</text>
</g>
<!-- hasStage -->
<g id="node37" class="node">
<title>hasStage</title>
<ellipse fill="lightyellow" stroke="black" cx="637.94" cy="-1049.55" rx="54.69" ry="18"/>
<text text-anchor="middle" x="637.94" y="-1045.85" font-family="Arial" font-size="14.00">has stage</text>
</g>
<!-- SleepStageMeasurement&#45;&gt;hasStage -->
<g id="edge22" class="edge">
<title>SleepStageMeasurement&#45;&gt;hasStage</title>
<path fill="none" stroke="blue" d="M637.94,-959.87C637.94,-976.73 637.94,-1001.99 637.94,-1021.4"/>
<polygon fill="blue" stroke="blue" points="634.44,-1021.5 637.94,-1031.5 641.44,-1021.5 634.44,-1021.5"/>
<text text-anchor="middle" x="619.44" y="-998.8" font-family="Arial" font-size="10.00">domain</text>
</g>
<!-- DataSet -->
<g id="node9" class="node">
<title>DataSet</title>
<polygon fill="lightblue" stroke="black" points="1453.72,-716.66 1377.72,-716.66 1377.72,-680.66 1453.72,-680.66 1453.72,-716.66"/>
<text text-anchor="middle" x="1415.72" y="-694.96" font-family="Arial" font-size="14.00">Data Set</text>
</g>
<!-- usedDataInterface -->
<g id="node34" class="node">
<title>usedDataInterface</title>
<ellipse fill="lightyellow" stroke="black" cx="1454.02" cy="-597.68" rx="98.58" ry="18"/>
<text text-anchor="middle" x="1454.02" y="-593.98" font-family="Arial" font-size="14.00">used data interface</text>
</g>
<!-- DataSet&#45;&gt;usedDataInterface -->
<g id="edge16" class="edge">
<title>DataSet&#45;&gt;usedDataInterface</title>
<path fill="none" stroke="blue" d="M1422.57,-680.61C1428.36,-665.34 1436.76,-643.2 1443.42,-625.64"/>
<polygon fill="blue" stroke="blue" points="1446.83,-626.51 1447.11,-615.92 1440.29,-624.03 1446.83,-626.51"/>
<text text-anchor="middle" x="1416.4" y="-651.09" font-family="Arial" font-size="10.00">domain</text>
</g>
<!-- wasCollectedFrom -->
<g id="node44" class="node">
<title>wasCollectedFrom</title>
<ellipse fill="lightyellow" stroke="black" cx="1377.43" cy="-799.64" rx="94.78" ry="18"/>
<text text-anchor="middle" x="1377.43" y="-795.94" font-family="Arial" font-size="14.00">was collected from</text>
</g>
<!-- DataSet&#45;&gt;wasCollectedFrom -->
<g id="edge30" class="edge">
<title>DataSet&#45;&gt;wasCollectedFrom</title>
<path fill="none" stroke="blue" d="M1408.88,-716.71C1403.09,-731.98 1394.69,-754.12 1388.03,-771.68"/>
<polygon fill="blue" stroke="blue" points="1384.62,-770.81 1384.34,-781.4 1391.16,-773.3 1384.62,-770.81"/>
<text text-anchor="middle" x="1378.04" y="-752.23" font-family="Arial" font-size="10.00">domain</text>
</g>
<!-- ResponseItem -->
<g id="node10" class="node">
<title>ResponseItem</title>
<polygon fill="lightblue" stroke="black" points="1141.3,-464.85 1022.3,-464.85 1022.3,-428.85 1141.3,-428.85 1141.3,-464.85"/>
<text text-anchor="middle" x="1081.8" y="-443.15" font-family="Arial" font-size="14.00">Response Item</text>
</g>
<!-- answersQuestion -->
<g id="node25" class="node">
<title>answersQuestion</title>
<ellipse fill="lightyellow" stroke="black" cx="1068.78" cy="-339.64" rx="90.18" ry="18"/>
<text text-anchor="middle" x="1068.78" y="-335.94" font-family="Arial" font-size="14.00">answers question</text>
</g>
<!-- ResponseItem&#45;&gt;answersQuestion -->
<g id="edge5" class="edge">
<title>ResponseItem&#45;&gt;answersQuestion</title>
<path fill="none" stroke="blue" d="M1079.59,-428.66C1077.57,-412.03 1074.55,-387.16 1072.21,-367.93"/>
<polygon fill="blue" stroke="blue" points="1075.68,-367.42 1071,-357.91 1068.73,-368.26 1075.68,-367.42"/>
<text text-anchor="middle" x="1056.79" y="-396.23" font-family="Arial" font-size="10.00">domain</text>
</g>
<!-- ResponseFormat -->
<g id="node11" class="node">
<title>ResponseFormat</title>
<polygon fill="lightblue" stroke="black" points="1097.73,-36 961.73,-36 961.73,0 1097.73,0 1097.73,-36"/>
<text text-anchor="middle" x="1029.73" y="-14.3" font-family="Arial" font-size="14.00">Response Format</text>
</g>
<!-- Feature -->
<g id="node12" class="node">
<title>Feature</title>
<polygon fill="lightblue" stroke="black" points="571.94,-1322.55 503.94,-1322.55 503.94,-1286.55 571.94,-1286.55 571.94,-1322.55"/>
<text text-anchor="middle" x="537.94" y="-1300.85" font-family="Arial" font-size="14.00">Feature</text>
</g>
<!-- requiresComputation -->
<g id="node24" class="node">
<title>requiresComputation</title>
<ellipse fill="lightyellow" stroke="black" cx="645.94" cy="-1304.55" rx="106.68" ry="18"/>
<text text-anchor="middle" x="645.94" y="-1300.85" font-family="Arial" font-size="14.00">requires computation</text>
</g>
<!-- Feature&#45;&gt;requiresComputation -->
<g id="edge3" class="edge">
<title>Feature&#45;&gt;requiresComputation</title>
<path fill="none" stroke="blue" d="M572.11,-1304.55C572.17,-1304.55 572.24,-1304.55 572.3,-1304.55"/>
<polygon fill="blue" stroke="blue" points="562.49,-1308.06 572.48,-1304.55 562.48,-1301.06 562.49,-1308.06"/>
<text text-anchor="middle" x="590.71" y="-1307.55" font-family="Arial" font-size="10.00">domain</text>
</g>
<!-- hasMeasurement -->
<g id="node28" class="node">
<title>hasMeasurement</title>
<ellipse fill="lightyellow" stroke="black" cx="429.94" cy="-1304.55" rx="92.08" ry="18"/>
<text text-anchor="middle" x="429.94" y="-1300.85" font-family="Arial" font-size="14.00">has measurement</text>
</g>
<!-- Feature&#45;&gt;hasMeasurement -->
<g id="edge8" class="edge">
<title>Feature&#45;&gt;hasMeasurement</title>
<path fill="none" stroke="blue" d="M503.77,-1304.55C503.71,-1304.55 503.65,-1304.55 503.58,-1304.55"/>
<polygon fill="blue" stroke="blue" points="513.4,-1301.06 503.4,-1304.55 513.4,-1308.06 513.4,-1301.06"/>
<text text-anchor="middle" x="485.18" y="-1307.55" font-family="Arial" font-size="10.00">domain</text>
</g>
<!-- supportsInferenceOf -->
<g id="node47" class="node">
<title>supportsInferenceOf</title>
<ellipse fill="lightyellow" stroke="black" cx="1919.97" cy="-1485.47" rx="107.48" ry="18"/>
<text text-anchor="middle" x="1919.97" y="-1481.77" font-family="Arial" font-size="14.00">supports inference of</text>
</g>
<!-- Feature&#45;&gt;supportsInferenceOf -->
<g id="edge33" class="edge">
<title>Feature&#45;&gt;supportsInferenceOf</title>
<path fill="none" stroke="blue" d="M572.1,-1309.02C747.32,-1331.96 1547.68,-1436.74 1825.03,-1473.04"/>
<polygon fill="blue" stroke="blue" points="1824.7,-1476.53 1835.07,-1474.36 1825.61,-1469.59 1824.7,-1476.53"/>
<text text-anchor="middle" x="1185.1" y="-1394.69" font-family="Arial" font-size="10.00">domain</text>
</g>
<!-- Computation -->
<g id="node13" class="node">
<title>Computation</title>
<polygon fill="lightblue" stroke="black" points="993.54,-1678.08 887.54,-1678.08 887.54,-1642.08 993.54,-1642.08 993.54,-1678.08"/>
<text text-anchor="middle" x="940.54" y="-1656.38" font-family="Arial" font-size="14.00">Computation</text>
</g>
<!-- infersPhenotype -->
<g id="node23" class="node">
<title>infersPhenotype</title>
<ellipse fill="lightyellow" stroke="black" cx="1710.25" cy="-1433.78" rx="87.99" ry="18"/>
<text text-anchor="middle" x="1710.25" y="-1430.08" font-family="Arial" font-size="14.00">infers phenotype</text>
</g>
<!-- Computation&#45;&gt;infersPhenotype -->
<g id="edge1" class="edge">
<title>Computation&#45;&gt;infersPhenotype</title>
<path fill="none" stroke="blue" d="M993.75,-1644.44C1132.29,-1603.7 1503.57,-1494.54 1649.84,-1451.54"/>
<polygon fill="blue" stroke="blue" points="1650.95,-1454.86 1659.56,-1448.68 1648.98,-1448.15 1650.95,-1454.86"/>
<text text-anchor="middle" x="1308.3" y="-1549.52" font-family="Arial" font-size="10.00">domain</text>
</g>
<!-- associatedWithDevice -->
<g id="node40" class="node">
<title>associatedWithDevice</title>
<ellipse fill="lightyellow" stroke="black" cx="1251.03" cy="-1840.61" rx="133.48" ry="18"/>
<text text-anchor="middle" x="1251.03" y="-1836.91" font-family="Arial" font-size="14.00">was associated with device</text>
</g>
<!-- Computation&#45;&gt;associatedWithDevice -->
<g id="edge28" class="edge">
<title>Computation&#45;&gt;associatedWithDevice</title>
<path fill="none" stroke="blue" d="M971.73,-1678.22C1028.75,-1711.37 1149.65,-1781.67 1212.01,-1817.93"/>
<polygon fill="blue" stroke="blue" points="1210.37,-1821.02 1220.78,-1823.02 1213.89,-1814.97 1210.37,-1821.02"/>
<text text-anchor="middle" x="1077.72" y="-1753.6" font-family="Arial" font-size="10.00">domain</text>
</g>
<!-- SleepStage -->
<g id="node14" class="node">
<title>SleepStage</title>
<polygon fill="lightblue" stroke="black" points="685.44,-1175.55 590.44,-1175.55 590.44,-1139.55 685.44,-1139.55 685.44,-1175.55"/>
<text text-anchor="middle" x="637.94" y="-1153.85" font-family="Arial" font-size="14.00">SleepStage</text>
</g>
<!-- NotificationEvent -->
<g id="node15" class="node">
<title>NotificationEvent</title>
<polygon fill="lightblue" stroke="black" points="1638.91,-2332.37 1498.91,-2332.37 1498.91,-2296.37 1638.91,-2296.37 1638.91,-2332.37"/>
<text text-anchor="middle" x="1568.91" y="-2310.67" font-family="Arial" font-size="14.00">Notification Event</text>
</g>
<!-- usedAppInterface -->
<g id="node36" class="node">
<title>usedAppInterface</title>
<ellipse fill="lightyellow" stroke="black" cx="1738.1" cy="-2104.49" rx="95.58" ry="18"/>
<text text-anchor="middle" x="1738.1" y="-2100.79" font-family="Arial" font-size="14.00">used app interface</text>
</g>
<!-- NotificationEvent&#45;&gt;usedAppInterface -->
<g id="edge20" class="edge">
<title>NotificationEvent&#45;&gt;usedAppInterface</title>
<path fill="none" stroke="blue" d="M1583.63,-2296.11C1613.7,-2258.8 1682.28,-2173.73 1717.05,-2130.6"/>
<polygon fill="blue" stroke="blue" points="1719.98,-2132.54 1723.54,-2122.56 1714.53,-2128.15 1719.98,-2132.54"/>
<text text-anchor="middle" x="1635.12" y="-2212.29" font-family="Arial" font-size="10.00">domain</text>
</g>
<!-- DataTransferEvent -->
<g id="node16" class="node">
<title>DataTransferEvent</title>
<polygon fill="lightblue" stroke="black" points="1159.3,-2180.25 1004.3,-2180.25 1004.3,-2144.25 1159.3,-2144.25 1159.3,-2180.25"/>
<text text-anchor="middle" x="1081.8" y="-2158.55" font-family="Arial" font-size="14.00">Data Transfer Event</text>
</g>
<!-- usedDevice -->
<g id="node49" class="node">
<title>usedDevice</title>
<ellipse fill="lightyellow" stroke="black" cx="1454.02" cy="-2011.42" rx="64.99" ry="18"/>
<text text-anchor="middle" x="1454.02" y="-2007.72" font-family="Arial" font-size="14.00">used device</text>
</g>
<!-- DataTransferEvent&#45;&gt;usedDevice -->
<g id="edge35" class="edge">
<title>DataTransferEvent&#45;&gt;usedDevice</title>
<path fill="none" stroke="blue" d="M1126.33,-2144.21C1197.43,-2115.4 1335.9,-2059.29 1407.96,-2030.09"/>
<polygon fill="blue" stroke="blue" points="1409.3,-2033.32 1417.25,-2026.32 1406.67,-2026.83 1409.3,-2033.32"/>
<text text-anchor="middle" x="1253.51" y="-2088.17" font-family="Arial" font-size="10.00">domain</text>
</g>
<!-- DigitalPhenotype -->
<g id="node17" class="node">
<title>DigitalPhenotype</title>
<polygon fill="lightblue" stroke="black" points="1884.61,-1477.63 1745.61,-1477.63 1745.61,-1441.63 1884.61,-1441.63 1884.61,-1477.63"/>
<text text-anchor="middle" x="1815.11" y="-1455.93" font-family="Arial" font-size="14.00">Digital Phenotype</text>
</g>
<!-- AppInterface -->
<g id="node18" class="node">
<title>AppInterface</title>
<polygon fill="lightblue" stroke="black" points="2049.83,-2038.72 1938.83,-2038.72 1938.83,-2002.72 2049.83,-2002.72 2049.83,-2038.72"/>
<text text-anchor="middle" x="1994.33" y="-2017.02" font-family="Arial" font-size="14.00">App Interface</text>
</g>
<!-- Participant -->
<g id="node19" class="node">
<title>Participant</title>
<polygon fill="lightblue" stroke="black" points="1283.01,-893.7 1193.01,-893.7 1193.01,-857.7 1283.01,-857.7 1283.01,-893.7"/>
<text text-anchor="middle" x="1238.01" y="-872" font-family="Arial" font-size="14.00">Participant</text>
</g>
<!-- ObservationContext -->
<g id="node20" class="node">
<title>ObservationContext</title>
<polygon fill="lightblue" stroke="black" points="1265.94,-1322.55 1105.94,-1322.55 1105.94,-1286.55 1265.94,-1286.55 1265.94,-1322.55"/>
<text text-anchor="middle" x="1185.94" y="-1300.85" font-family="Arial" font-size="14.00">Observation Context</text>
</g>
<!-- QuestionnaireEntry -->
<g id="node21" class="node">
<title>QuestionnaireEntry</title>
<polygon fill="lightblue" stroke="black" points="1185.33,-679.28 1030.33,-679.28 1030.33,-643.28 1185.33,-643.28 1185.33,-679.28"/>
<text text-anchor="middle" x="1107.83" y="-657.58" font-family="Arial" font-size="14.00">Questionnaire Entry</text>
</g>
<!-- hasResponseItem -->
<g id="node31" class="node">
<title>hasResponseItem</title>
<ellipse fill="lightyellow" stroke="black" cx="1094.81" cy="-554.06" rx="93.68" ry="18"/>
<text text-anchor="middle" x="1094.81" y="-550.36" font-family="Arial" font-size="14.00">has response item</text>
</g>
<!-- QuestionnaireEntry&#45;&gt;hasResponseItem -->
<g id="edge10" class="edge">
<title>QuestionnaireEntry&#45;&gt;hasResponseItem</title>
<path fill="none" stroke="blue" d="M1105.62,-643.09C1103.6,-626.45 1100.58,-601.58 1098.25,-582.35"/>
<polygon fill="blue" stroke="blue" points="1101.71,-581.84 1097.03,-572.34 1094.76,-582.69 1101.71,-581.84"/>
<text text-anchor="middle" x="1082.82" y="-610.65" font-family="Arial" font-size="10.00">domain</text>
</g>
<!-- wasReportedBy -->
<g id="node39" class="node">
<title>wasReportedBy</title>
<ellipse fill="lightyellow" stroke="black" cx="1120.85" cy="-768.49" rx="83.69" ry="18"/>
<text text-anchor="middle" x="1120.85" y="-764.79" font-family="Arial" font-size="14.00">was reported by</text>
</g>
<!-- QuestionnaireEntry&#45;&gt;wasReportedBy -->
<g id="edge26" class="edge">
<title>QuestionnaireEntry&#45;&gt;wasReportedBy</title>
<path fill="none" stroke="blue" d="M1110.04,-679.46C1112.06,-696.1 1115.08,-720.97 1117.42,-740.2"/>
<polygon fill="blue" stroke="blue" points="1113.95,-740.71 1118.63,-750.21 1120.9,-739.86 1113.95,-740.71"/>
<text text-anchor="middle" x="1095.84" y="-717.9" font-family="Arial" font-size="10.00">domain</text>
</g>
<!-- inScheme -->
<g id="node22" class="node">
<title>inScheme</title>
<ellipse fill="lightyellow" stroke="black" cx="670.94" cy="-787.55" rx="55.49" ry="18"/>
<text text-anchor="middle" x="670.94" y="-783.85" font-family="Arial" font-size="14.00">inScheme</text>
</g>
<!-- infersPhenotype&#45;&gt;DigitalPhenotype -->
<g id="edge2" class="edge">
<title>infersPhenotype&#45;&gt;DigitalPhenotype</title>
<path fill="none" stroke="green" d="M1766.67,-1447.69C1766.72,-1447.7 1766.77,-1447.71 1766.82,-1447.72"/>
<polygon fill="green" stroke="green" points="1756.41,-1448.76 1766.96,-1447.76 1758.09,-1441.96 1756.41,-1448.76"/>
<text text-anchor="middle" x="1752.74" y="-1450.71" font-family="Arial" font-size="10.00">range</text>
</g>
<!-- requiresComputation&#45;&gt;Computation -->
<g id="edge4" class="edge">
<title>requiresComputation&#45;&gt;Computation</title>
<path fill="none" stroke="green" d="M660.95,-1322.67C709.52,-1381.28 862.46,-1565.85 919.13,-1634.25"/>
<polygon fill="green" stroke="green" points="916.48,-1636.53 925.55,-1642 921.87,-1632.06 916.48,-1636.53"/>
<text text-anchor="middle" x="779.33" y="-1485.42" font-family="Arial" font-size="10.00">range</text>
</g>
<!-- answersQuestion&#45;&gt;Question -->
<g id="edge6" class="edge">
<title>answersQuestion&#45;&gt;Question</title>
<path fill="none" stroke="green" d="M1066.57,-321.45C1064.55,-304.82 1061.53,-279.95 1059.2,-260.72"/>
<polygon fill="green" stroke="green" points="1062.66,-260.21 1057.98,-250.7 1055.71,-261.05 1062.66,-260.21"/>
<text text-anchor="middle" x="1048.27" y="-289.01" font-family="Arial" font-size="10.00">range</text>
</g>
<!-- observedProperty&#45;&gt;observedProperty -->
<g id="edge52" class="edge">
<title>observedProperty&#45;&gt;observedProperty</title>
<path fill="none" stroke="red" stroke-dasharray="5,2" d="M360.9,-1772.85C416.88,-1790.97 488.27,-1785.44 488.27,-1756.26 488.27,-1728.73 424.74,-1722.26 370.54,-1736.83"/>
<polygon fill="red" stroke="red" points="369.5,-1733.49 360.9,-1739.68 371.48,-1740.2 369.5,-1733.49"/>
<text text-anchor="middle" x="523.27" y="-1753.76" font-family="Arial" font-size="10.00">subPropertyOf</text>
</g>
<!-- related -->
<g id="node27" class="node">
<title>related</title>
<ellipse fill="lightyellow" stroke="black" cx="580.94" cy="-1480.55" rx="42.49" ry="18"/>
<text text-anchor="middle" x="580.94" y="-1476.85" font-family="Arial" font-size="14.00">related</text>
</g>
<!-- hasMeasurement&#45;&gt;Measurement -->
<g id="edge9" class="edge">
<title>hasMeasurement&#45;&gt;Measurement</title>
<path fill="none" stroke="green" d="M337.41,-1304.55C337.34,-1304.55 337.27,-1304.55 337.2,-1304.55"/>
<polygon fill="green" stroke="green" points="346.98,-1301.06 336.98,-1304.55 346.98,-1308.06 346.98,-1301.06"/>
<text text-anchor="middle" x="323.31" y="-1307.55" font-family="Arial" font-size="10.00">range</text>
</g>
<!-- wasAssociatedWith -->
<g id="node29" class="node">
<title>wasAssociatedWith</title>
<ellipse fill="lightyellow" stroke="black" cx="817.83" cy="-1837.84" rx="97.48" ry="18"/>
<text text-anchor="middle" x="817.83" y="-1834.14" font-family="Arial" font-size="14.00">wasAssociatedWith</text>
</g>
<!-- broader -->
<g id="node30" class="node">
<title>broader</title>
<ellipse fill="lightyellow" stroke="black" cx="892.94" cy="-710.55" rx="46.29" ry="18"/>
<text text-anchor="middle" x="892.94" y="-706.85" font-family="Arial" font-size="14.00">broader</text>
</g>
<!-- hasResponseItem&#45;&gt;ResponseItem -->
<g id="edge11" class="edge">
<title>hasResponseItem&#45;&gt;ResponseItem</title>
<path fill="none" stroke="green" d="M1092.61,-535.88C1090.59,-519.24 1087.57,-494.37 1085.23,-475.14"/>
<polygon fill="green" stroke="green" points="1088.7,-474.63 1084.02,-465.13 1081.75,-475.48 1088.7,-474.63"/>
<text text-anchor="middle" x="1074.3" y="-503.44" font-family="Arial" font-size="10.00">range</text>
</g>
<!-- wasDerivedFrom&#45;&gt;Thing -->
<g id="edge13" class="edge">
<title>wasDerivedFrom&#45;&gt;Thing</title>
<path fill="none" stroke="green" d="M1399.48,-1106.78C1320.4,-1153.39 1100.94,-1282.73 1013.18,-1334.46"/>
<polygon fill="green" stroke="green" points="1011.21,-1331.56 1004.37,-1339.65 1014.77,-1337.59 1011.21,-1331.56"/>
<text text-anchor="middle" x="1188.04" y="-1226.14" font-family="Arial" font-size="10.00">range</text>
</g>
<!-- wasDerivedFrom&#45;&gt;wasDerivedFrom -->
<g id="edge45" class="edge">
<title>wasDerivedFrom&#45;&gt;wasDerivedFrom</title>
<path fill="none" stroke="red" stroke-dasharray="5,2" d="M1462.8,-1106.28C1516.77,-1124.41 1585.6,-1118.88 1585.6,-1089.7 1585.6,-1062.23 1524.6,-1055.72 1472.42,-1070.17"/>
<polygon fill="red" stroke="red" points="1471.34,-1066.84 1462.8,-1073.11 1473.39,-1073.54 1471.34,-1066.84"/>
<text text-anchor="middle" x="1620.6" y="-1087.2" font-family="Arial" font-size="10.00">subPropertyOf</text>
</g>
<!-- wasGeneratedBy&#45;&gt;Computation -->
<g id="edge15" class="edge">
<title>wasGeneratedBy&#45;&gt;Computation</title>
<path fill="none" stroke="green" d="M989.47,-1589.18C980.72,-1601.87 968.84,-1619.08 958.98,-1633.36"/>
<polygon fill="green" stroke="green" points="955.94,-1631.6 953.14,-1641.81 961.71,-1635.57 955.94,-1631.6"/>
<text text-anchor="middle" x="957.15" y="-1618.73" font-family="Arial" font-size="10.00">range</text>
</g>
<!-- wasGeneratedBy&#45;&gt;wasGeneratedBy -->
<g id="edge48" class="edge">
<title>wasGeneratedBy&#45;&gt;wasGeneratedBy</title>
<path fill="none" stroke="red" stroke-dasharray="5,2" d="M1036.66,-1587.78C1091.3,-1605.91 1160.98,-1600.38 1160.98,-1571.2 1160.98,-1543.73 1099.23,-1537.22 1046.4,-1551.67"/>
<polygon fill="red" stroke="red" points="1045.22,-1548.37 1036.66,-1554.61 1047.24,-1555.07 1045.22,-1548.37"/>
<text text-anchor="middle" x="1195.98" y="-1568.7" font-family="Arial" font-size="10.00">subPropertyOf</text>
</g>
<!-- usedDataInterface&#45;&gt;DataInterface -->
<g id="edge17" class="edge">
<title>usedDataInterface&#45;&gt;DataInterface</title>
<path fill="none" stroke="green" d="M1460.87,-579.62C1466.66,-564.35 1475.05,-542.22 1481.71,-524.66"/>
<polygon fill="green" stroke="green" points="1485.13,-525.53 1485.4,-514.93 1478.58,-523.04 1485.13,-525.53"/>
<text text-anchor="middle" x="1459.2" y="-550.1" font-family="Arial" font-size="10.00">range</text>
</g>
<!-- hasContext&#45;&gt;ObservationContext -->
<g id="edge19" class="edge">
<title>hasContext&#45;&gt;ObservationContext</title>
<path fill="none" stroke="green" d="M1129.21,-1318.53C1129.27,-1318.52 1129.32,-1318.51 1129.37,-1318.49"/>
<polygon fill="green" stroke="green" points="1120.67,-1324.25 1129.54,-1318.45 1118.99,-1317.45 1120.67,-1324.25"/>
<text text-anchor="middle" x="1115.29" y="-1321.51" font-family="Arial" font-size="10.00">range</text>
</g>
<!-- usedAppInterface&#45;&gt;AppInterface -->
<g id="edge21" class="edge">
<title>usedAppInterface&#45;&gt;AppInterface</title>
<path fill="none" stroke="green" d="M1785.99,-2088.83C1826.48,-2075.6 1884.85,-2056.52 1929.51,-2041.92"/>
<polygon fill="green" stroke="green" points="1930.69,-2045.21 1939.11,-2038.78 1928.51,-2038.56 1930.69,-2045.21"/>
<text text-anchor="middle" x="1848.7" y="-2066.76" font-family="Arial" font-size="10.00">range</text>
</g>
<!-- used -->
<g id="node48" class="node">
<title>used</title>
<ellipse fill="lightyellow" stroke="black" cx="1676.75" cy="-2015.61" rx="32.49" ry="18"/>
<text text-anchor="middle" x="1676.75" y="-2011.91" font-family="Arial" font-size="14.00">used</text>
</g>
<!-- usedAppInterface&#45;&gt;used -->
<g id="edge46" class="edge">
<title>usedAppInterface&#45;&gt;used</title>
<path fill="none" stroke="red" stroke-dasharray="5,2" d="M1725.68,-2086.5C1716.7,-2073.48 1704.42,-2055.7 1694.41,-2041.2"/>
<polygon fill="red" stroke="red" points="1697.08,-2038.91 1688.52,-2032.66 1691.32,-2042.88 1697.08,-2038.91"/>
<text text-anchor="middle" x="1672.1" y="-2062.58" font-family="Arial" font-size="10.00">subPropertyOf</text>
</g>
<!-- hasStage&#45;&gt;SleepStage -->
<g id="edge23" class="edge">
<title>hasStage&#45;&gt;SleepStage</title>
<path fill="none" stroke="green" d="M637.94,-1067.87C637.94,-1084.73 637.94,-1109.99 637.94,-1129.4"/>
<polygon fill="green" stroke="green" points="634.44,-1129.5 637.94,-1139.5 641.44,-1129.5 634.44,-1129.5"/>
<text text-anchor="middle" x="623.94" y="-1106.8" font-family="Arial" font-size="10.00">range</text>
</g>
<!-- hasResponseFormat&#45;&gt;ResponseFormat -->
<g id="edge25" class="edge">
<title>hasResponseFormat&#45;&gt;ResponseFormat</title>
<path fill="none" stroke="green" d="M1040.53,-107.03C1038.51,-90.39 1035.5,-65.52 1033.16,-46.29"/>
<polygon fill="green" stroke="green" points="1036.62,-45.78 1031.94,-36.28 1029.68,-46.63 1036.62,-45.78"/>
<text text-anchor="middle" x="1022.23" y="-74.59" font-family="Arial" font-size="10.00">range</text>
</g>
<!-- wasReportedBy&#45;&gt;Participant -->
<g id="edge27" class="edge">
<title>wasReportedBy&#45;&gt;Participant</title>
<path fill="none" stroke="green" d="M1140.2,-786.19C1159.42,-803.78 1189.06,-830.9 1210.68,-850.69"/>
<polygon fill="green" stroke="green" points="1208.51,-853.44 1218.25,-857.61 1213.23,-848.28 1208.51,-853.44"/>
<text text-anchor="middle" x="1165.24" y="-824.92" font-family="Arial" font-size="10.00">range</text>
</g>
<!-- associatedWithDevice&#45;&gt;Device -->
<g id="edge29" class="edge">
<title>associatedWithDevice&#45;&gt;Device</title>
<path fill="none" stroke="green" d="M1291.74,-1857.87C1317,-1868.58 1349.34,-1882.3 1374.66,-1893.03"/>
<polygon fill="green" stroke="green" points="1373.42,-1896.31 1383.99,-1896.99 1376.15,-1889.86 1373.42,-1896.31"/>
<text text-anchor="middle" x="1323.9" y="-1880.45" font-family="Arial" font-size="10.00">range</text>
</g>
<!-- associatedWithDevice&#45;&gt;wasAssociatedWith -->
<g id="edge49" class="edge">
<title>associatedWithDevice&#45;&gt;wasAssociatedWith</title>
<path fill="none" stroke="red" stroke-dasharray="5,2" d="M1117.82,-1839.76C1056.13,-1839.37 983.78,-1838.91 925.6,-1838.53"/>
<polygon fill="red" stroke="red" points="925.3,-1835.03 915.27,-1838.47 925.25,-1842.03 925.3,-1835.03"/>
<text text-anchor="middle" x="981.52" y="-1842.11" font-family="Arial" font-size="10.00">subPropertyOf</text>
</g>
<!-- unit -->
<g id="node41" class="node">
<title>unit</title>
<ellipse fill="lightyellow" stroke="black" cx="1029.94" cy="-1172.55" rx="28.7" ry="18"/>
<text text-anchor="middle" x="1029.94" y="-1168.85" font-family="Arial" font-size="14.00">unit</text>
</g>
<!-- hasTopConcept -->
<g id="node42" class="node">
<title>hasTopConcept</title>
<ellipse fill="lightyellow" stroke="black" cx="1541.94" cy="-1249.55" rx="79.09" ry="18"/>
<text text-anchor="middle" x="1541.94" y="-1245.85" font-family="Arial" font-size="14.00">hasTopConcept</text>
</g>
<!-- hasFeatureOfInterest -->
<g id="node43" class="node">
<title>hasFeatureOfInterest</title>
<ellipse fill="lightyellow" stroke="black" cx="105.94" cy="-1304.55" rx="105.88" ry="18"/>
<text text-anchor="middle" x="105.94" y="-1300.85" font-family="Arial" font-size="14.00">hasFeatureOfInterest</text>
</g>
<!-- wasCollectedFrom&#45;&gt;Participant -->
<g id="edge31" class="edge">
<title>wasCollectedFrom&#45;&gt;Participant</title>
<path fill="none" stroke="green" d="M1346.14,-816.71C1326.61,-827.36 1301.23,-841.21 1279.97,-852.81"/>
<polygon fill="green" stroke="green" points="1278.24,-849.77 1271.14,-857.63 1281.59,-855.91 1278.24,-849.77"/>
<text text-anchor="middle" x="1294.87" y="-840.04" font-family="Arial" font-size="10.00">range</text>
</g>
<!-- topConceptOf -->
<g id="node45" class="node">
<title>topConceptOf</title>
<ellipse fill="lightyellow" stroke="black" cx="688.94" cy="-1634.55" rx="73.39" ry="18"/>
<text text-anchor="middle" x="688.94" y="-1630.85" font-family="Arial" font-size="14.00">topConceptOf</text>
</g>
<!-- featureOfInterest&#45;&gt;hasFeatureOfInterest -->
<g id="edge50" class="edge">
<title>featureOfInterest&#45;&gt;hasFeatureOfInterest</title>
<path fill="none" stroke="red" stroke-dasharray="5,2" d="M121.88,-1304.55C121.8,-1304.55 121.73,-1304.55 121.65,-1304.55"/>
<polygon fill="red" stroke="red" points="131.43,-1301.06 121.43,-1304.55 131.43,-1308.06 131.43,-1301.06"/>
<text text-anchor="middle" x="86.76" y="-1307.55" font-family="Arial" font-size="10.00">subPropertyOf</text>
</g>
<!-- supportsInferenceOf&#45;&gt;DigitalPhenotype -->
<g id="edge34" class="edge">
<title>supportsInferenceOf&#45;&gt;DigitalPhenotype</title>
<path fill="none" stroke="green" d="M1859.58,-1470.59C1859.54,-1470.58 1859.49,-1470.57 1859.45,-1470.55"/>
<polygon fill="green" stroke="green" points="1869.86,-1469.52 1859.31,-1470.52 1868.18,-1476.32 1869.86,-1469.52"/>
<text text-anchor="middle" x="1873.51" y="-1473.57" font-family="Arial" font-size="10.00">range</text>
</g>
<!-- usedDevice&#45;&gt;Device -->
<g id="edge36" class="edge">
<title>usedDevice&#45;&gt;Device</title>
<path fill="none" stroke="green" d="M1447.18,-1993.37C1441.38,-1978.1 1432.99,-1955.96 1426.33,-1938.4"/>
<polygon fill="green" stroke="green" points="1429.46,-1936.79 1422.64,-1928.68 1422.91,-1939.27 1429.46,-1936.79"/>
<text text-anchor="middle" x="1420.84" y="-1963.85" font-family="Arial" font-size="10.00">range</text>
</g>
<!-- usedDevice&#45;&gt;used -->
<g id="edge47" class="edge">
<title>usedDevice&#45;&gt;used</title>
<path fill="none" stroke="red" stroke-dasharray="5,2" d="M1519.04,-2012.64C1556.12,-2013.34 1601.53,-2014.2 1634.09,-2014.81"/>
<polygon fill="red" stroke="red" points="1634.12,-2018.31 1644.18,-2015 1634.25,-2011.31 1634.12,-2018.31"/>
<text text-anchor="middle" x="1599.05" y="-2005.82" font-family="Arial" font-size="10.00">subPropertyOf</text>
</g>
<!-- wasComputedBy&#45;&gt;Computation -->
<g id="edge38" class="edge">
<title>wasComputedBy&#45;&gt;Computation</title>
<path fill="none" stroke="green" d="M880.58,-878.35C888.58,-982.64 928.56,-1503.91 938.36,-1631.74"/>
<polygon fill="green" stroke="green" points="934.89,-1632.19 939.14,-1641.9 941.87,-1631.66 934.89,-1632.19"/>
<text text-anchor="middle" x="895.87" y="-1263.23" font-family="Arial" font-size="10.00">range</text>
</g>
<!-- wasAttributedTo&#45;&gt;Participant -->
<g id="edge40" class="edge">
<title>wasAttributedTo&#45;&gt;Participant</title>
<path fill="none" stroke="green" d="M1227.2,-964.73C1229.22,-948.09 1232.24,-923.22 1234.58,-903.99"/>
<polygon fill="green" stroke="green" points="1238.06,-904.33 1235.79,-893.98 1231.11,-903.48 1238.06,-904.33"/>
<text text-anchor="middle" x="1217.51" y="-932.29" font-family="Arial" font-size="10.00">range</text>
</g>
<!-- wasAttributedTo&#45;&gt;wasAttributedTo -->
<g id="edge51" class="edge">
<title>wasAttributedTo&#45;&gt;wasAttributedTo</title>
<path fill="none" stroke="red" stroke-dasharray="5,2" d="M1258.91,-999.5C1312.21,-1017.62 1380.19,-1012.09 1380.19,-982.91 1380.19,-955.5 1320.2,-948.96 1268.74,-963.3"/>
<polygon fill="red" stroke="red" points="1267.43,-960.04 1258.91,-966.33 1269.5,-966.72 1267.43,-960.04"/>
<text text-anchor="middle" x="1415.19" y="-980.41" font-family="Arial" font-size="10.00">subPropertyOf</text>
</g>
<!-- occursDuring&#45;&gt;ObservationContext -->
<g id="edge42" class="edge">
<title>occursDuring&#45;&gt;ObservationContext</title>
<path fill="none" stroke="green" d="M1238.99,-1291.48C1238.93,-1291.49 1238.88,-1291.5 1238.83,-1291.51"/>
<polygon fill="green" stroke="green" points="1247.55,-1285.76 1238.68,-1291.55 1249.23,-1292.55 1247.55,-1285.76"/>
<text text-anchor="middle" x="1224.91" y="-1294.5" font-family="Arial" font-size="10.00">range</text>
</g>
<!-- narrower -->
<g id="node53" class="node">
<title>narrower</title>
<ellipse fill="lightyellow" stroke="black" cx="1590.94" cy="-1711.55" rx="50.89" ry="18"/>
<text text-anchor="middle" x="1590.94" y="-1707.85" font-family="Arial" font-size="14.00">narrower</text>
</g>
<!-- quantityValue&#45;&gt;QuantityValue -->
<g id="edge44" class="edge">
<title>quantityValue&#45;&gt;QuantityValue</title>
<path fill="none" stroke="green" d="M293.96,-836.41C287.22,-832.87 279.98,-829.07 272.88,-825.34"/>
<polygon fill="green" stroke="green" points="274.48,-822.23 264,-820.68 271.23,-828.43 274.48,-822.23"/>
<text text-anchor="middle" x="292.89" y="-820.5" font-family="Arial" font-size="10.00">range</text>
</g>
</g>
</svg>
