<?xml version="1.0" encoding="UTF-8" standalone="no"?>
<!DOCTYPE svg PUBLIC "-//W3C//DTD SVG 1.1//EN"
 "http://www.w3.org/Graphics/SVG/1.1/DTD/svg11.dtd">
<!-- Generated by graphviz version 2.43.0 (0)
 -->
<!-- Title: Object Properties Pages: 1 -->
<svg width="1382pt" height="1048pt"
 viewBox="0.00 0.00 1381.80 1048.07" xmlns="http://www.w3.org/2000/svg" xmlns:xlink="http://www.w3.org/1999/xlink">
<g id="graph0" class="graph" transform="scale(1 1) rotate(0) translate(4 1044.07)">
<title>Object Properties</title>
<polygon fill="white" stroke="transparent" points="-4,4 -4,-1044.07 1377.8,-1044.07 1377.8,4 -4,4"/>
<!-- DataInterface -->
<g id="node1" class="node">
<title>DataInterface</title>
<polygon fill="lightblue" stroke="black" points="815.66,-973 699.66,-973 699.66,-937 815.66,-937 815.66,-973"/>
<text text-anchor="middle" x="757.66" y="-951.3" font-family="Arial" font-size="14.00">Data Interface</text>
</g>
<!-- AppInterface -->
<g id="node2" class="node">
<title>AppInterface</title>
<polygon fill="lightblue" stroke="black" points="236.34,-996.04 125.34,-996.04 125.34,-960.04 236.34,-960.04 236.34,-996.04"/>
<text text-anchor="middle" x="180.84" y="-974.34" font-family="Arial" font-size="14.00">App Interface</text>
</g>
<!-- DigitalPhenotype -->
<g id="node3" class="node">
<title>DigitalPhenotype</title>
<polygon fill="lightblue" stroke="black" points="273.06,-542.16 134.06,-542.16 134.06,-506.16 273.06,-506.16 273.06,-542.16"/>
<text text-anchor="middle" x="203.56" y="-520.46" font-family="Arial" font-size="14.00">Digital Phenotype</text>
</g>
<!-- ObservationContext -->
<g id="node4" class="node">
<title>ObservationContext</title>
<polygon fill="lightblue" stroke="black" points="1251.76,-948.95 1091.76,-948.95 1091.76,-912.95 1251.76,-912.95 1251.76,-948.95"/>
<text text-anchor="middle" x="1171.76" y="-927.25" font-family="Arial" font-size="14.00">Observation Context</text>
</g>
<!-- DataSet -->
<g id="node5" class="node">
<title>DataSet</title>
<polygon fill="lightblue" stroke="black" points="1156.5,-827.16 1080.5,-827.16 1080.5,-791.16 1156.5,-791.16 1156.5,-827.16"/>
<text text-anchor="middle" x="1118.5" y="-805.46" font-family="Arial" font-size="14.00">Data Set</text>
</g>
<!-- usedDataInterface -->
<g id="node34" class="node">
<title>usedDataInterface</title>
<ellipse fill="lightyellow" stroke="black" cx="829.92" cy="-911" rx="98.58" ry="18"/>
<text text-anchor="middle" x="829.92" y="-907.3" font-family="Arial" font-size="14.00">used data interface</text>
</g>
<!-- DataSet&#45;&gt;usedDataInterface -->
<g id="edge16" class="edge">
<title>DataSet&#45;&gt;usedDataInterface</title>
<path fill="none" stroke="blue" d="M1080.38,-816.99C1056.29,-822.34 1024.64,-830.12 997.31,-839.31 954.63,-853.65 907.62,-874.23 874.32,-889.66"/>
<polygon fill="blue" stroke="blue" points="872.45,-886.67 864.87,-894.07 875.41,-893.01 872.45,-886.67"/>
<text text-anchor="middle" x="951.9" y="-851.92" font-family="Arial" font-size="10.00">domain</text>
</g>
<!-- wasCollectedFrom -->
<g id="node44" class="node">
<title>wasCollectedFrom</title>
<ellipse fill="lightyellow" stroke="black" cx="1147.31" cy="-716.89" rx="94.78" ry="18"/>
<text text-anchor="middle" x="1147.31" y="-713.19" font-family="Arial" font-size="14.00">was collected from</text>
</g>
<!-- DataSet&#45;&gt;wasCollectedFrom -->
<g id="edge30" class="edge">
<title>DataSet&#45;&gt;wasCollectedFrom</title>
<path fill="none" stroke="blue" d="M1124.19,-790.93C1128.3,-777.79 1133.91,-759.81 1138.58,-744.85"/>
<polygon fill="blue" stroke="blue" points="1141.99,-745.67 1141.63,-735.08 1135.31,-743.59 1141.99,-745.67"/>
<text text-anchor="middle" x="1114.32" y="-766.29" font-family="Arial" font-size="10.00">domain</text>
</g>
<!-- NotificationEvent -->
<g id="node6" class="node">
<title>NotificationEvent</title>
<polygon fill="lightblue" stroke="black" points="319.44,-1040.07 179.44,-1040.07 179.44,-1004.07 319.44,-1004.07 319.44,-1040.07"/>
<text text-anchor="middle" x="249.44" y="-1018.37" font-family="Arial" font-size="14.00">Notification Event</text>
</g>
<!-- usedAppInterface -->
<g id="node36" class="node">
<title>usedAppInterface</title>
<ellipse fill="lightyellow" stroke="black" cx="120.05" cy="-934" rx="95.58" ry="18"/>
<text text-anchor="middle" x="120.05" y="-930.3" font-family="Arial" font-size="14.00">used app interface</text>
</g>
<!-- NotificationEvent&#45;&gt;usedAppInterface -->
<g id="edge20" class="edge">
<title>NotificationEvent&#45;&gt;usedAppInterface</title>
<path fill="none" stroke="blue" d="M251.9,-1003.85C252.79,-989.21 251.37,-969.13 239.54,-956.84 234.25,-951.35 228.08,-946.95 221.38,-943.45"/>
<polygon fill="blue" stroke="blue" points="222.5,-940.11 211.95,-939.21 219.63,-946.5 222.5,-940.11"/>
<text text-anchor="middle" x="258.01" y="-959.81" font-family="Arial" font-size="10.00">domain</text>
</g>
<!-- ResponseItem -->
<g id="node7" class="node">
<title>ResponseItem</title>
<polygon fill="lightblue" stroke="black" points="1350.2,-336.56 1231.2,-336.56 1231.2,-300.56 1350.2,-300.56 1350.2,-336.56"/>
<text text-anchor="middle" x="1290.7" y="-314.86" font-family="Arial" font-size="14.00">Response Item</text>
</g>
<!-- answersQuestion -->
<g id="node25" class="node">
<title>answersQuestion</title>
<ellipse fill="lightyellow" stroke="black" cx="1267.88" cy="-241.33" rx="90.18" ry="18"/>
<text text-anchor="middle" x="1267.88" y="-237.63" font-family="Arial" font-size="14.00">answers question</text>
</g>
<!-- ResponseItem&#45;&gt;answersQuestion -->
<g id="edge5" class="edge">
<title>ResponseItem&#45;&gt;answersQuestion</title>
<path fill="none" stroke="blue" d="M1285.29,-300.26C1282.56,-291.03 1279.19,-279.63 1276.15,-269.32"/>
<polygon fill="blue" stroke="blue" points="1279.44,-268.1 1273.25,-259.51 1272.72,-270.09 1279.44,-268.1"/>
<text text-anchor="middle" x="1260.72" y="-282.71" font-family="Arial" font-size="10.00">domain</text>
</g>
<!-- ResponseFormat -->
<g id="node8" class="node">
<title>ResponseFormat</title>
<polygon fill="lightblue" stroke="black" points="1145.21,-101.18 1009.21,-101.18 1009.21,-65.18 1145.21,-65.18 1145.21,-101.18"/>
<text text-anchor="middle" x="1077.21" y="-79.48" font-family="Arial" font-size="14.00">Response Format</text>
</g>
<!-- QuestionnaireEntry -->
<g id="node9" class="node">
<title>QuestionnaireEntry</title>
<polygon fill="lightblue" stroke="black" points="1316.61,-496.92 1161.61,-496.92 1161.61,-460.92 1316.61,-460.92 1316.61,-496.92"/>
<text text-anchor="middle" x="1239.11" y="-475.22" font-family="Arial" font-size="14.00">Questionnaire Entry</text>
</g>
<!-- hasResponseItem -->
<g id="node31" class="node">
<title>hasResponseItem</title>
<ellipse fill="lightyellow" stroke="black" cx="1280.2" cy="-398.21" rx="93.68" ry="18"/>
<text text-anchor="middle" x="1280.2" y="-394.51" font-family="Arial" font-size="14.00">has response item</text>
</g>
<!-- QuestionnaireEntry&#45;&gt;hasResponseItem -->
<g id="edge10" class="edge">
<title>QuestionnaireEntry&#45;&gt;hasResponseItem</title>
<path fill="none" stroke="blue" d="M1248.43,-460.61C1253.73,-450.22 1260.45,-437.01 1266.35,-425.42"/>
<polygon fill="blue" stroke="blue" points="1269.64,-426.67 1271.06,-416.17 1263.4,-423.5 1269.64,-426.67"/>
<text text-anchor="middle" x="1241.27" y="-441.34" font-family="Arial" font-size="10.00">domain</text>
</g>
<!-- wasReportedBy -->
<g id="node39" class="node">
<title>wasReportedBy</title>
<ellipse fill="lightyellow" stroke="black" cx="1154.48" cy="-538.89" rx="83.69" ry="18"/>
<text text-anchor="middle" x="1154.48" y="-535.19" font-family="Arial" font-size="14.00">was reported by</text>
</g>
<!-- QuestionnaireEntry&#45;&gt;wasReportedBy -->
<g id="edge26" class="edge">
<title>QuestionnaireEntry&#45;&gt;wasReportedBy</title>
<path fill="none" stroke="blue" d="M1213.26,-497.24C1205.09,-503.03 1195.96,-509.5 1187.37,-515.59"/>
<polygon fill="blue" stroke="blue" points="1185.15,-512.87 1179.02,-521.51 1189.2,-518.58 1185.15,-512.87"/>
<text text-anchor="middle" x="1177.45" y="-512.51" font-family="Arial" font-size="10.00">domain</text>
</g>
<!-- Thing -->
<g id="node10" class="node">
<title>Thing</title>
<polygon fill="lightblue" stroke="black" points="875.74,-775.43 819.74,-775.43 819.74,-739.43 875.74,-739.43 875.74,-775.43"/>
<text text-anchor="middle" x="847.74" y="-753.73" font-family="Arial" font-size="14.00">Thing</text>
</g>
<!-- wasGeneratedBy -->
<g id="node33" class="node">
<title>wasGeneratedBy</title>
<ellipse fill="lightyellow" stroke="black" cx="631.82" cy="-689.77" rx="87.18" ry="18"/>
<text text-anchor="middle" x="631.82" y="-686.07" font-family="Arial" font-size="14.00">wasGeneratedBy</text>
</g>
<!-- Thing&#45;&gt;wasGeneratedBy -->
<g id="edge14" class="edge">
<title>Thing&#45;&gt;wasGeneratedBy</title>
<path fill="none" stroke="blue" d="M819.51,-748.59C786.63,-738.28 731.47,-721 689.43,-707.82"/>
<polygon fill="blue" stroke="blue" points="690.45,-704.48 679.86,-704.83 688.36,-711.16 690.45,-704.48"/>
<text text-anchor="middle" x="731.23" y="-729.72" font-family="Arial" font-size="10.00">domain</text>
</g>
<!-- hasContext -->
<g id="node35" class="node">
<title>hasContext</title>
<ellipse fill="lightyellow" stroke="black" cx="1043.37" cy="-853.2" rx="63.89" ry="18"/>
<text text-anchor="middle" x="1043.37" y="-849.5" font-family="Arial" font-size="14.00">has context</text>
</g>
<!-- Thing&#45;&gt;hasContext -->
<g id="edge18" class="edge">
<title>Thing&#45;&gt;hasContext</title>
<path fill="none" stroke="blue" d="M875.77,-771.15C908.88,-787.36 964.27,-814.47 1002.24,-833.06"/>
<polygon fill="blue" stroke="blue" points="1000.98,-836.34 1011.5,-837.59 1004.06,-830.05 1000.98,-836.34"/>
<text text-anchor="middle" x="925.09" y="-807.35" font-family="Arial" font-size="10.00">domain</text>
</g>
<!-- wasAttributedTo -->
<g id="node51" class="node">
<title>wasAttributedTo</title>
<ellipse fill="lightyellow" stroke="black" cx="1003.28" cy="-667.65" rx="83.39" ry="18"/>
<text text-anchor="middle" x="1003.28" y="-663.95" font-family="Arial" font-size="14.00">wasAttributedTo</text>
</g>
<!-- Thing&#45;&gt;wasAttributedTo -->
<g id="edge39" class="edge">
<title>Thing&#45;&gt;wasAttributedTo</title>
<path fill="none" stroke="blue" d="M875.9,-741.17C900.84,-726.78 937.44,-705.65 965.02,-689.73"/>
<polygon fill="blue" stroke="blue" points="967.09,-692.58 974,-684.55 963.59,-686.52 967.09,-692.58"/>
<text text-anchor="middle" x="906.51" y="-715.83" font-family="Arial" font-size="10.00">domain</text>
</g>
<!-- occursDuring -->
<g id="node52" class="node">
<title>occursDuring</title>
<ellipse fill="lightyellow" stroke="black" cx="1010.27" cy="-907.06" rx="73.39" ry="18"/>
<text text-anchor="middle" x="1010.27" y="-903.36" font-family="Arial" font-size="14.00">occurs during</text>
</g>
<!-- Thing&#45;&gt;occursDuring -->
<g id="edge41" class="edge">
<title>Thing&#45;&gt;occursDuring</title>
<path fill="none" stroke="blue" d="M867.34,-775.48C896.42,-802.25 951.05,-852.54 983.7,-882.6"/>
<polygon fill="blue" stroke="blue" points="981.37,-885.22 991.1,-889.41 986.11,-880.07 981.37,-885.22"/>
<text text-anchor="middle" x="910.7" y="-835.42" font-family="Arial" font-size="10.00">domain</text>
</g>
<!-- DataTransferEvent -->
<g id="node11" class="node">
<title>DataTransferEvent</title>
<polygon fill="lightblue" stroke="black" points="237.36,-806.78 82.36,-806.78 82.36,-770.78 237.36,-770.78 237.36,-806.78"/>
<text text-anchor="middle" x="159.86" y="-785.08" font-family="Arial" font-size="14.00">Data Transfer Event</text>
</g>
<!-- usedDevice -->
<g id="node49" class="node">
<title>usedDevice</title>
<ellipse fill="lightyellow" stroke="black" cx="218.42" cy="-875.72" rx="64.99" ry="18"/>
<text text-anchor="middle" x="218.42" y="-872.02" font-family="Arial" font-size="14.00">used device</text>
</g>
<!-- DataTransferEvent&#45;&gt;usedDevice -->
<g id="edge35" class="edge">
<title>DataTransferEvent&#45;&gt;usedDevice</title>
<path fill="none" stroke="blue" d="M171.99,-806.79C180.24,-819.03 191.28,-835.43 200.53,-849.16"/>
<polygon fill="blue" stroke="blue" points="197.81,-851.39 206.3,-857.73 203.62,-847.48 197.81,-851.39"/>
<text text-anchor="middle" x="170.64" y="-835.25" font-family="Arial" font-size="10.00">domain</text>
</g>
<!-- Question -->
<g id="node12" class="node">
<title>Question</title>
<polygon fill="lightblue" stroke="black" points="1270.04,-195.33 1191.04,-195.33 1191.04,-159.33 1270.04,-159.33 1270.04,-195.33"/>
<text text-anchor="middle" x="1230.54" y="-173.63" font-family="Arial" font-size="14.00">Question</text>
</g>
<!-- hasResponseFormat -->
<g id="node38" class="node">
<title>hasResponseFormat</title>
<ellipse fill="lightyellow" stroke="black" cx="1186.08" cy="-127.22" rx="103.18" ry="18"/>
<text text-anchor="middle" x="1186.08" y="-123.52" font-family="Arial" font-size="14.00">has response format</text>
</g>
<!-- Question&#45;&gt;hasResponseFormat -->
<g id="edge24" class="edge">
<title>Question&#45;&gt;hasResponseFormat</title>
<path fill="none" stroke="blue" d="M1214.49,-159.24C1212.58,-157.08 1210.6,-154.85 1208.62,-152.62"/>
<polygon fill="blue" stroke="blue" points="1211.21,-150.27 1201.96,-145.12 1205.98,-154.92 1211.21,-150.27"/>
<text text-anchor="middle" x="1190.3" y="-155.83" font-family="Arial" font-size="10.00">domain</text>
</g>
<!-- Measurement -->
<g id="node13" class="node">
<title>Measurement</title>
<polygon fill="lightblue" stroke="black" points="201.04,-134.57 90.04,-134.57 90.04,-98.57 201.04,-98.57 201.04,-134.57"/>
<text text-anchor="middle" x="145.54" y="-112.87" font-family="Arial" font-size="14.00">Measurement</text>
</g>
<!-- observedProperty -->
<g id="node26" class="node">
<title>observedProperty</title>
<ellipse fill="lightyellow" stroke="black" cx="90.99" cy="-160.6" rx="90.98" ry="18"/>
<text text-anchor="middle" x="90.99" y="-156.9" font-family="Arial" font-size="14.00">observedProperty</text>
</g>
<!-- Measurement&#45;&gt;observedProperty -->
<g id="edge7" class="edge">
<title>Measurement&#45;&gt;observedProperty</title>
<path fill="none" stroke="blue" d="M123.04,-134.73C122.29,-135.33 121.54,-135.94 120.79,-136.55"/>
<polygon fill="blue" stroke="blue" points="118.32,-134.04 112.74,-143.05 122.72,-139.49 118.32,-134.04"/>
<text text-anchor="middle" x="102.33" y="-139.52" font-family="Arial" font-size="10.00">domain</text>
</g>
<!-- featureOfInterest -->
<g id="node46" class="node">
<title>featureOfInterest</title>
<ellipse fill="lightyellow" stroke="black" cx="318.42" cy="-54.74" rx="91.78" ry="18"/>
<text text-anchor="middle" x="318.42" y="-51.04" font-family="Arial" font-size="14.00">feature of interest</text>
</g>
<!-- Measurement&#45;&gt;featureOfInterest -->
<g id="edge32" class="edge">
<title>Measurement&#45;&gt;featureOfInterest</title>
<path fill="none" stroke="blue" d="M196.01,-98.52C217.54,-90.82 242.69,-81.82 264.58,-73.99"/>
<polygon fill="blue" stroke="blue" points="265.82,-77.27 274.06,-70.6 263.46,-70.68 265.82,-77.27"/>
<text text-anchor="middle" x="253.6" y="-87.54" font-family="Arial" font-size="10.00">domain</text>
</g>
<!-- quantityValue -->
<g id="node54" class="node">
<title>quantityValue</title>
<ellipse fill="lightyellow" stroke="black" cx="123.81" cy="-68.04" rx="75.29" ry="18"/>
<text text-anchor="middle" x="123.81" y="-64.34" font-family="Arial" font-size="14.00">quantity value</text>
</g>
<!-- Measurement&#45;&gt;quantityValue -->
<g id="edge43" class="edge">
<title>Measurement&#45;&gt;quantityValue</title>
<path fill="none" stroke="blue" d="M137.45,-98.5C136.99,-97.48 136.52,-96.44 136.06,-95.39"/>
<polygon fill="blue" stroke="blue" points="139.12,-93.66 131.84,-85.97 132.73,-96.52 139.12,-93.66"/>
<text text-anchor="middle" x="117.58" y="-87.44" font-family="Arial" font-size="10.00">domain</text>
</g>
<!-- QuantityValue -->
<g id="node14" class="node">
<title>QuantityValue</title>
<polygon fill="lightblue" stroke="black" points="218.77,-36 104.77,-36 104.77,0 218.77,0 218.77,-36"/>
<text text-anchor="middle" x="161.77" y="-14.3" font-family="Arial" font-size="14.00">QuantityValue</text>
</g>
<!-- Computation -->
<g id="node15" class="node">
<title>Computation</title>
<polygon fill="lightblue" stroke="black" points="484.34,-592.88 378.34,-592.88 378.34,-556.88 484.34,-556.88 484.34,-592.88"/>
<text text-anchor="middle" x="431.34" y="-571.18" font-family="Arial" font-size="14.00">Computation</text>
</g>
<!-- infersPhenotype -->
<g id="node23" class="node">
<title>infersPhenotype</title>
<ellipse fill="lightyellow" stroke="black" cx="271.61" cy="-586.02" rx="87.99" ry="18"/>
<text text-anchor="middle" x="271.61" y="-582.32" font-family="Arial" font-size="14.00">infers phenotype</text>
</g>
<!-- Computation&#45;&gt;infersPhenotype -->
<g id="edge1" class="edge">
<title>Computation&#45;&gt;infersPhenotype</title>
<path fill="none" stroke="blue" d="M378.15,-578.59C373.8,-578.89 369.32,-579.2 364.79,-579.52"/>
<polygon fill="blue" stroke="blue" points="364.53,-576.03 354.79,-580.22 365.01,-583.01 364.53,-576.03"/>
<text text-anchor="middle" x="366.49" y="-571.4" font-family="Arial" font-size="10.00">domain</text>
</g>
<!-- associatedWithDevice -->
<g id="node40" class="node">
<title>associatedWithDevice</title>
<ellipse fill="lightyellow" stroke="black" cx="378.73" cy="-748.8" rx="133.48" ry="18"/>
<text text-anchor="middle" x="378.73" y="-745.1" font-family="Arial" font-size="14.00">was associated with device</text>
</g>
<!-- Computation&#45;&gt;associatedWithDevice -->
<g id="edge28" class="edge">
<title>Computation&#45;&gt;associatedWithDevice</title>
<path fill="none" stroke="blue" d="M425.81,-593.16C416.59,-623.65 398.02,-685.04 387.16,-720.93"/>
<polygon fill="blue" stroke="blue" points="383.73,-720.18 384.19,-730.76 390.43,-722.21 383.73,-720.18"/>
<text text-anchor="middle" x="386.42" y="-665.24" font-family="Arial" font-size="10.00">domain</text>
</g>
<!-- Feature -->
<g id="node16" class="node">
<title>Feature</title>
<polygon fill="lightblue" stroke="black" points="160.27,-377.52 92.27,-377.52 92.27,-341.52 160.27,-341.52 160.27,-377.52"/>
<text text-anchor="middle" x="126.27" y="-355.82" font-family="Arial" font-size="14.00">Feature</text>
</g>
<!-- requiresComputation -->
<g id="node24" class="node">
<title>requiresComputation</title>
<ellipse fill="lightyellow" stroke="black" cx="309.49" cy="-416.47" rx="106.68" ry="18"/>
<text text-anchor="middle" x="309.49" y="-412.77" font-family="Arial" font-size="14.00">requires computation</text>
</g>
<!-- Feature&#45;&gt;requiresComputation -->
<g id="edge3" class="edge">
<title>Feature&#45;&gt;requiresComputation</title>
<path fill="none" stroke="blue" d="M160.3,-370.1C185.03,-377.79 219.18,-388.4 248.57,-397.54"/>
<polygon fill="blue" stroke="blue" points="247.74,-400.94 258.33,-400.57 249.82,-394.26 247.74,-400.94"/>
<text text-anchor="middle" x="190.67" y="-388.29" font-family="Arial" font-size="10.00">domain</text>
</g>
<!-- hasMeasurement -->
<g id="node28" class="node">
<title>hasMeasurement</title>
<ellipse fill="lightyellow" stroke="black" cx="97.68" cy="-249.24" rx="92.08" ry="18"/>
<text text-anchor="middle" x="97.68" y="-245.54" font-family="Arial" font-size="14.00">has measurement</text>
</g>
<!-- Feature&#45;&gt;hasMeasurement -->
<g id="edge8" class="edge">
<title>Feature&#45;&gt;hasMeasurement</title>
<path fill="none" stroke="blue" d="M121.55,-341.31C117.04,-323.91 110.17,-297.43 104.96,-277.33"/>
<polygon fill="blue" stroke="blue" points="108.31,-276.28 102.41,-267.48 101.53,-278.04 108.31,-276.28"/>
<text text-anchor="middle" x="93.5" y="-307.48" font-family="Arial" font-size="10.00">domain</text>
</g>
<!-- supportsInferenceOf -->
<g id="node47" class="node">
<title>supportsInferenceOf</title>
<ellipse fill="lightyellow" stroke="black" cx="133.19" cy="-460.91" rx="107.48" ry="18"/>
<text text-anchor="middle" x="133.19" y="-457.21" font-family="Arial" font-size="14.00">supports inference of</text>
</g>
<!-- Feature&#45;&gt;supportsInferenceOf -->
<g id="edge33" class="edge">
<title>Feature&#45;&gt;supportsInferenceOf</title>
<path fill="none" stroke="blue" d="M127.5,-377.65C128.54,-392.84 130.04,-414.79 131.24,-432.34"/>
<polygon fill="blue" stroke="blue" points="127.77,-432.86 131.94,-442.6 134.75,-432.39 127.77,-432.86"/>
<text text-anchor="middle" x="111.21" y="-412.97" font-family="Arial" font-size="10.00">domain</text>
</g>
<!-- DerivedFeature -->
<g id="node17" class="node">
<title>DerivedFeature</title>
<polygon fill="lightblue" stroke="black" points="770.23,-483.63 643.23,-483.63 643.23,-447.63 770.23,-447.63 770.23,-483.63"/>
<text text-anchor="middle" x="706.73" y="-461.93" font-family="Arial" font-size="14.00">Derived Feature</text>
</g>
<!-- wasDerivedFrom -->
<g id="node32" class="node">
<title>wasDerivedFrom</title>
<ellipse fill="lightyellow" stroke="black" cx="816.43" cy="-583.75" rx="85.29" ry="18"/>
<text text-anchor="middle" x="816.43" y="-580.05" font-family="Arial" font-size="14.00">wasDerivedFrom</text>
</g>
<!-- DerivedFeature&#45;&gt;wasDerivedFrom -->
<g id="edge12" class="edge">
<title>DerivedFeature&#45;&gt;wasDerivedFrom</title>
<path fill="none" stroke="blue" d="M723.63,-483.83C742.13,-503.74 771.91,-535.81 792.73,-558.23"/>
<polygon fill="blue" stroke="blue" points="790.32,-560.78 799.69,-565.72 795.45,-556.01 790.32,-560.78"/>
<text text-anchor="middle" x="743.16" y="-527.78" font-family="Arial" font-size="10.00">domain</text>
</g>
<!-- wasComputedBy -->
<g id="node50" class="node">
<title>wasComputedBy</title>
<ellipse fill="lightyellow" stroke="black" cx="544.08" cy="-452.85" rx="90.98" ry="18"/>
<text text-anchor="middle" x="544.08" y="-449.15" font-family="Arial" font-size="14.00">was computed by</text>
</g>
<!-- DerivedFeature&#45;&gt;wasComputedBy -->
<g id="edge37" class="edge">
<title>DerivedFeature&#45;&gt;wasComputedBy</title>
<path fill="none" stroke="blue" d="M642.92,-460.62C641.61,-460.52 640.31,-460.41 638.99,-460.31"/>
<polygon fill="blue" stroke="blue" points="639.1,-456.81 628.86,-459.51 638.55,-463.79 639.1,-456.81"/>
<text text-anchor="middle" x="620.56" y="-463.32" font-family="Arial" font-size="10.00">domain</text>
</g>
<!-- Participant -->
<g id="node18" class="node">
<title>Participant</title>
<polygon fill="lightblue" stroke="black" points="1169.31,-640.4 1079.31,-640.4 1079.31,-604.4 1169.31,-604.4 1169.31,-640.4"/>
<text text-anchor="middle" x="1124.31" y="-618.7" font-family="Arial" font-size="14.00">Participant</text>
</g>
<!-- SleepStageMeasurement -->
<g id="node19" class="node">
<title>SleepStageMeasurement</title>
<polygon fill="lightblue" stroke="black" points="939.66,-337.04 741.66,-337.04 741.66,-301.04 939.66,-301.04 939.66,-337.04"/>
<text text-anchor="middle" x="840.66" y="-315.34" font-family="Arial" font-size="14.00">Sleep Stage Measurement</text>
</g>
<!-- hasStage -->
<g id="node37" class="node">
<title>hasStage</title>
<ellipse fill="lightyellow" stroke="black" cx="679.05" cy="-319" rx="54.69" ry="18"/>
<text text-anchor="middle" x="679.05" y="-315.3" font-family="Arial" font-size="14.00">has stage</text>
</g>
<!-- SleepStageMeasurement&#45;&gt;hasStage -->
<g id="edge22" class="edge">
<title>SleepStageMeasurement&#45;&gt;hasStage</title>
<path fill="none" stroke="blue" d="M741.53,-319.02C741.37,-319.02 741.2,-319.02 741.04,-319.02"/>
<polygon fill="blue" stroke="blue" points="743.78,-315.52 733.78,-319.01 743.78,-322.52 743.78,-315.52"/>
<text text-anchor="middle" x="722.6" y="-322.02" font-family="Arial" font-size="10.00">domain</text>
</g>
<!-- SleepStage -->
<g id="node20" class="node">
<title>SleepStage</title>
<polygon fill="lightblue" stroke="black" points="568,-337.04 473,-337.04 473,-301.04 568,-301.04 568,-337.04"/>
<text text-anchor="middle" x="520.5" y="-315.34" font-family="Arial" font-size="14.00">SleepStage</text>
</g>
<!-- Device -->
<g id="node21" class="node">
<title>Device</title>
<polygon fill="lightblue" stroke="black" points="354.45,-876.88 291.45,-876.88 291.45,-840.88 354.45,-840.88 354.45,-876.88"/>
<text text-anchor="middle" x="322.95" y="-855.18" font-family="Arial" font-size="14.00">Device</text>
</g>
<!-- inScheme -->
<g id="node22" class="node">
<title>inScheme</title>
<ellipse fill="lightyellow" stroke="black" cx="958.25" cy="-190" rx="55.49" ry="18"/>
<text text-anchor="middle" x="958.25" y="-186.3" font-family="Arial" font-size="14.00">inScheme</text>
</g>
<!-- infersPhenotype&#45;&gt;DigitalPhenotype -->
<g id="edge2" class="edge">
<title>infersPhenotype&#45;&gt;DigitalPhenotype</title>
<path fill="none" stroke="green" d="M252.29,-568.46C245.71,-562.48 238.22,-555.67 231.13,-549.22"/>
<polygon fill="green" stroke="green" points="233.39,-546.55 223.64,-542.41 228.68,-551.73 233.39,-546.55"/>
<text text-anchor="middle" x="224.19" y="-558.64" font-family="Arial" font-size="10.00">range</text>
</g>
<!-- requiresComputation&#45;&gt;Computation -->
<g id="edge4" class="edge">
<title>requiresComputation&#45;&gt;Computation</title>
<path fill="none" stroke="green" d="M323.23,-434.34C344.71,-462.26 386.36,-516.41 411.23,-548.73"/>
<polygon fill="green" stroke="green" points="408.59,-551.05 417.46,-556.84 414.14,-546.78 408.59,-551.05"/>
<text text-anchor="middle" x="356.15" y="-498.33" font-family="Arial" font-size="10.00">range</text>
</g>
<!-- answersQuestion&#45;&gt;Question -->
<g id="edge6" class="edge">
<title>answersQuestion&#45;&gt;Question</title>
<path fill="none" stroke="green" d="M1257.28,-223.17C1253.92,-217.4 1250.12,-210.9 1246.47,-204.65"/>
<polygon fill="green" stroke="green" points="1249.36,-202.64 1241.3,-195.77 1243.31,-206.17 1249.36,-202.64"/>
<text text-anchor="middle" x="1235.4" y="-212.67" font-family="Arial" font-size="10.00">range</text>
</g>
<!-- observedProperty&#45;&gt;observedProperty -->
<g id="edge52" class="edge">
<title>observedProperty&#45;&gt;observedProperty</title>
<path fill="none" stroke="red" stroke-dasharray="5,2" d="M126.61,-177.19C182.59,-195.31 253.98,-189.78 253.98,-160.6 253.98,-133.08 190.45,-126.6 136.26,-141.17"/>
<polygon fill="red" stroke="red" points="135.21,-137.83 126.61,-144.02 137.2,-144.54 135.21,-137.83"/>
<text text-anchor="middle" x="288.98" y="-158.1" font-family="Arial" font-size="10.00">subPropertyOf</text>
</g>
<!-- related -->
<g id="node27" class="node">
<title>related</title>
<ellipse fill="lightyellow" stroke="black" cx="1074.25" cy="-319" rx="42.49" ry="18"/>
<text text-anchor="middle" x="1074.25" y="-315.3" font-family="Arial" font-size="14.00">related</text>
</g>
<!-- hasMeasurement&#45;&gt;Measurement -->
<g id="edge9" class="edge">
<title>hasMeasurement&#45;&gt;Measurement</title>
<path fill="none" stroke="green" d="M130.16,-232.16C154.1,-217 182.67,-192.33 183.58,-160.64 183.77,-154.14 181.46,-148.12 177.9,-142.76"/>
<polygon fill="green" stroke="green" points="180.5,-140.41 171.45,-134.89 175.08,-144.84 180.5,-140.41"/>
<text text-anchor="middle" x="155.65" y="-200.4" font-family="Arial" font-size="10.00">range</text>
</g>
<!-- wasAssociatedWith -->
<g id="node29" class="node">
<title>wasAssociatedWith</title>
<ellipse fill="lightyellow" stroke="black" cx="459.98" cy="-824.88" rx="97.48" ry="18"/>
<text text-anchor="middle" x="459.98" y="-821.18" font-family="Arial" font-size="14.00">wasAssociatedWith</text>
</g>
<!-- broader -->
<g id="node30" class="node">
<title>broader</title>
<ellipse fill="lightyellow" stroke="black" cx="390.15" cy="-190" rx="46.29" ry="18"/>
<text text-anchor="middle" x="390.15" y="-186.3" font-family="Arial" font-size="14.00">broader</text>
</g>
<!-- hasResponseItem&#45;&gt;ResponseItem -->
<g id="edge11" class="edge">
<title>hasResponseItem&#45;&gt;ResponseItem</title>
<path fill="none" stroke="green" d="M1282.59,-380.13C1283.89,-370.26 1285.53,-357.8 1286.99,-346.68"/>
<polygon fill="green" stroke="green" points="1290.49,-346.93 1288.33,-336.56 1283.55,-346.02 1290.49,-346.93"/>
<text text-anchor="middle" x="1271.44" y="-361.46" font-family="Arial" font-size="10.00">range</text>
</g>
<!-- wasDerivedFrom&#45;&gt;Thing -->
<g id="edge13" class="edge">
<title>wasDerivedFrom&#45;&gt;Thing</title>
<path fill="none" stroke="green" d="M819.72,-602.01C825.18,-632.32 836.16,-693.23 842.64,-729.14"/>
<polygon fill="green" stroke="green" points="839.27,-730.2 844.49,-739.42 846.16,-728.96 839.27,-730.2"/>
<text text-anchor="middle" x="818.09" y="-673.65" font-family="Arial" font-size="10.00">range</text>
</g>
<!-- wasDerivedFrom&#45;&gt;wasDerivedFrom -->
<g id="edge45" class="edge">
<title>wasDerivedFrom&#45;&gt;wasDerivedFrom</title>
<path fill="none" stroke="red" stroke-dasharray="5,2" d="M850.77,-600.33C904.74,-618.46 973.57,-612.93 973.57,-583.75 973.57,-556.28 912.57,-549.77 860.39,-564.22"/>
<polygon fill="red" stroke="red" points="859.31,-560.89 850.77,-567.16 861.36,-567.59 859.31,-560.89"/>
<text text-anchor="middle" x="1008.57" y="-581.25" font-family="Arial" font-size="10.00">subPropertyOf</text>
</g>
<!-- wasGeneratedBy&#45;&gt;Computation -->
<g id="edge15" class="edge">
<title>wasGeneratedBy&#45;&gt;Computation</title>
<path fill="none" stroke="green" d="M602.24,-672.82C567.75,-653.06 510.56,-620.28 471.94,-598.15"/>
<polygon fill="green" stroke="green" points="473.45,-594.98 463.03,-593.04 469.97,-601.05 473.45,-594.98"/>
<text text-anchor="middle" x="518.59" y="-635.91" font-family="Arial" font-size="10.00">range</text>
</g>
<!-- wasGeneratedBy&#45;&gt;wasGeneratedBy -->
<g id="edge48" class="edge">
<title>wasGeneratedBy&#45;&gt;wasGeneratedBy</title>
<path fill="none" stroke="red" stroke-dasharray="5,2" d="M666.59,-706.36C721.23,-724.48 790.91,-718.95 790.91,-689.77 790.91,-662.3 729.16,-655.79 676.33,-670.24"/>
<polygon fill="red" stroke="red" points="675.15,-666.94 666.59,-673.19 677.17,-673.65 675.15,-666.94"/>
<text text-anchor="middle" x="825.91" y="-687.27" font-family="Arial" font-size="10.00">subPropertyOf</text>
</g>
<!-- usedDataInterface&#45;&gt;DataInterface -->
<g id="edge17" class="edge">
<title>usedDataInterface&#45;&gt;DataInterface</title>
<path fill="none" stroke="green" d="M801.36,-928.39C799.65,-929.43 797.91,-930.49 796.16,-931.56"/>
<polygon fill="green" stroke="green" points="794.16,-928.68 787.44,-936.87 797.8,-934.66 794.16,-928.68"/>
<text text-anchor="middle" x="810.24" y="-934.51" font-family="Arial" font-size="10.00">range</text>
</g>
<!-- hasContext&#45;&gt;ObservationContext -->
<g id="edge19" class="edge">
<title>hasContext&#45;&gt;ObservationContext</title>
<path fill="none" stroke="green" d="M1070.6,-869.69C1088.81,-880.72 1113.04,-895.39 1133.22,-907.61"/>
<polygon fill="green" stroke="green" points="1131.52,-910.67 1141.88,-912.86 1135.14,-904.68 1131.52,-910.67"/>
<text text-anchor="middle" x="1120.27" y="-894.29" font-family="Arial" font-size="10.00">range</text>
</g>
<!-- usedAppInterface&#45;&gt;AppInterface -->
<g id="edge21" class="edge">
<title>usedAppInterface&#45;&gt;AppInterface</title>
<path fill="none" stroke="green" d="M144.43,-951.66C145.35,-952.33 146.28,-953.01 147.22,-953.68"/>
<polygon fill="green" stroke="green" points="145.51,-956.77 155.66,-959.8 149.62,-951.1 145.51,-956.77"/>
<text text-anchor="middle" x="133.18" y="-956.65" font-family="Arial" font-size="10.00">range</text>
</g>
<!-- used -->
<g id="node48" class="node">
<title>used</title>
<ellipse fill="lightyellow" stroke="black" cx="112.93" cy="-886.52" rx="32.49" ry="18"/>
<text text-anchor="middle" x="112.93" y="-882.82" font-family="Arial" font-size="14.00">used</text>
</g>
<!-- usedAppInterface&#45;&gt;used -->
<g id="edge46" class="edge">
<title>usedAppInterface&#45;&gt;used</title>
<path fill="none" stroke="red" stroke-dasharray="5,2" d="M117.32,-915.78C117.27,-915.44 117.21,-915.09 117.16,-914.75"/>
<polygon fill="red" stroke="red" points="120.59,-913.99 115.64,-904.62 113.67,-915.03 120.59,-913.99"/>
<text text-anchor="middle" x="152.17" y="-906.78" font-family="Arial" font-size="10.00">subPropertyOf</text>
</g>
<!-- hasStage&#45;&gt;SleepStage -->
<g id="edge23" class="edge">
<title>hasStage&#45;&gt;SleepStage</title>
<path fill="none" stroke="green" d="M624.04,-319.01C609.22,-319.02 593.14,-319.02 578.17,-319.03"/>
<polygon fill="green" stroke="green" points="578.02,-315.53 568.02,-319.03 578.02,-322.53 578.02,-315.53"/>
<text text-anchor="middle" x="582.08" y="-322.02" font-family="Arial" font-size="10.00">range</text>
</g>
<!-- hasResponseFormat&#45;&gt;ResponseFormat -->
<g id="edge25" class="edge">
<title>hasResponseFormat&#45;&gt;ResponseFormat</title>
<path fill="none" stroke="green" d="M1144.92,-110.57C1140.49,-108.78 1135.93,-106.93 1131.38,-105.09"/>
<polygon fill="green" stroke="green" points="1132.65,-101.83 1122.07,-101.32 1130.03,-108.32 1132.65,-101.83"/>
<text text-anchor="middle" x="1147.51" y="-97.95" font-family="Arial" font-size="10.00">range</text>
</g>
<!-- wasReportedBy&#45;&gt;Participant -->
<g id="edge27" class="edge">
<title>wasReportedBy&#45;&gt;Participant</title>
<path fill="none" stroke="green" d="M1147.93,-557.01C1143.94,-568.06 1138.76,-582.41 1134.26,-594.85"/>
<polygon fill="green" stroke="green" points="1130.95,-593.72 1130.84,-604.31 1137.53,-596.1 1130.95,-593.72"/>
<text text-anchor="middle" x="1125.29" y="-583.94" font-family="Arial" font-size="10.00">range</text>
</g>
<!-- associatedWithDevice&#45;&gt;Device -->
<g id="edge29" class="edge">
<title>associatedWithDevice&#45;&gt;Device</title>
<path fill="none" stroke="green" d="M369.52,-766.98C360.6,-784.59 346.96,-811.51 336.74,-831.67"/>
<polygon fill="green" stroke="green" points="333.58,-830.17 332.18,-840.67 339.82,-833.34 333.58,-830.17"/>
<text text-anchor="middle" x="336.89" y="-806.75" font-family="Arial" font-size="10.00">range</text>
</g>
<!-- associatedWithDevice&#45;&gt;wasAssociatedWith -->
<g id="edge49" class="edge">
<title>associatedWithDevice&#45;&gt;wasAssociatedWith</title>
<path fill="none" stroke="red" stroke-dasharray="5,2" d="M397.99,-766.83C408.61,-776.78 421.96,-789.28 433.55,-800.13"/>
<polygon fill="red" stroke="red" points="431.17,-802.7 440.86,-806.98 435.95,-797.59 431.17,-802.7"/>
<text text-anchor="middle" x="384.43" y="-789.91" font-family="Arial" font-size="10.00">subPropertyOf</text>
</g>
<!-- unit -->
<g id="node41" class="node">
<title>unit</title>
<ellipse fill="lightyellow" stroke="black" cx="630.6" cy="-577" rx="28.7" ry="18"/>
<text text-anchor="middle" x="630.6" y="-573.3" font-family="Arial" font-size="14.00">unit</text>
</g>
<!-- hasTopConcept -->
<g id="node42" class="node">
<title>hasTopConcept</title>
<ellipse fill="lightyellow" stroke="black" cx="939.29" cy="-448" rx="79.09" ry="18"/>
<text text-anchor="middle" x="939.29" y="-444.3" font-family="Arial" font-size="14.00">hasTopConcept</text>
</g>
<!-- hasFeatureOfInterest -->
<g id="node43" class="node">
<title>hasFeatureOfInterest</title>
<ellipse fill="lightyellow" stroke="black" cx="524.09" cy="-46.36" rx="105.88" ry="18"/>
<text text-anchor="middle" x="524.09" y="-42.66" font-family="Arial" font-size="14.00">hasFeatureOfInterest</text>
</g>
<!-- wasCollectedFrom&#45;&gt;Participant -->
<g id="edge31" class="edge">
<title>wasCollectedFrom&#45;&gt;Participant</title>
<path fill="none" stroke="green" d="M1142.87,-698.67C1139.56,-685.08 1134.98,-666.25 1131.19,-650.7"/>
<polygon fill="green" stroke="green" points="1134.49,-649.45 1128.73,-640.56 1127.69,-651.11 1134.49,-649.45"/>
<text text-anchor="middle" x="1121.87" y="-672.91" font-family="Arial" font-size="10.00">range</text>
</g>
<!-- topConceptOf -->
<g id="node45" class="node">
<title>topConceptOf</title>
<ellipse fill="lightyellow" stroke="black" cx="761.44" cy="-190" rx="73.39" ry="18"/>
<text text-anchor="middle" x="761.44" y="-186.3" font-family="Arial" font-size="14.00">topConceptOf</text>
</g>
<!-- featureOfInterest&#45;&gt;hasFeatureOfInterest -->
<g id="edge50" class="edge">
<title>featureOfInterest&#45;&gt;hasFeatureOfInterest</title>
<path fill="none" stroke="red" stroke-dasharray="5,2" d="M408.33,-51.07C409.12,-51.04 409.91,-51.01 410.7,-50.98"/>
<polygon fill="red" stroke="red" points="411.19,-54.46 421.04,-50.56 410.9,-47.47 411.19,-54.46"/>
<text text-anchor="middle" x="445.67" y="-53.98" font-family="Arial" font-size="10.00">subPropertyOf</text>
</g>
<!-- supportsInferenceOf&#45;&gt;DigitalPhenotype -->
<g id="edge34" class="edge">
<title>supportsInferenceOf&#45;&gt;DigitalPhenotype</title>
<path fill="none" stroke="green" d="M153.17,-478.87C160.09,-485.09 167.99,-492.19 175.44,-498.89"/>
<polygon fill="green" stroke="green" points="173.51,-501.86 183.29,-505.94 178.19,-496.65 173.51,-501.86"/>
<text text-anchor="middle" x="154.01" y="-495.21" font-family="Arial" font-size="10.00">range</text>
</g>
<!-- usedDevice&#45;&gt;Device -->
<g id="edge36" class="edge">
<title>usedDevice&#45;&gt;Device</title>
<path fill="none" stroke="green" d="M274.67,-866.66C276.89,-866.3 279.11,-865.94 281.3,-865.59"/>
<polygon fill="green" stroke="green" points="281.99,-869.02 291.31,-863.97 280.88,-862.11 281.99,-869.02"/>
<text text-anchor="middle" x="281.2" y="-857.6" font-family="Arial" font-size="10.00">range</text>
</g>
<!-- usedDevice&#45;&gt;used -->
<g id="edge47" class="edge">
<title>usedDevice&#45;&gt;used</title>
<path fill="none" stroke="red" stroke-dasharray="5,2" d="M157.36,-881.97C156.71,-882.04 156.05,-882.1 155.4,-882.17"/>
<polygon fill="red" stroke="red" points="154.7,-878.72 145.11,-883.23 155.42,-885.69 154.7,-878.72"/>
<text text-anchor="middle" x="120.43" y="-885.17" font-family="Arial" font-size="10.00">subPropertyOf</text>
</g>
<!-- wasComputedBy&#45;&gt;Computation -->
<g id="edge38" class="edge">
<title>wasComputedBy&#45;&gt;Computation</title>
<path fill="none" stroke="green" d="M527.69,-470.6C508.59,-491.26 476.89,-525.58 455.1,-549.16"/>
<polygon fill="green" stroke="green" points="452.34,-547 448.12,-556.72 457.48,-551.75 452.34,-547"/>
<text text-anchor="middle" x="473.81" y="-516.76" font-family="Arial" font-size="10.00">range</text>
</g>
<!-- wasAttributedTo&#45;&gt;Participant -->
<g id="edge40" class="edge">
<title>wasAttributedTo&#45;&gt;Participant</title>
<path fill="none" stroke="green" d="M1045.27,-651.95C1053.12,-649.02 1061.43,-645.91 1069.6,-642.85"/>
<polygon fill="green" stroke="green" points="1070.95,-646.09 1079.09,-639.31 1068.49,-639.53 1070.95,-646.09"/>
<text text-anchor="middle" x="1048.3" y="-637.58" font-family="Arial" font-size="10.00">range</text>
</g>
<!-- wasAttributedTo&#45;&gt;wasAttributedTo -->
<g id="edge51" class="edge">
<title>wasAttributedTo&#45;&gt;wasAttributedTo</title>
<path fill="none" stroke="red" stroke-dasharray="5,2" d="M1037.19,-684.24C1090.49,-702.36 1158.47,-696.83 1158.47,-667.65 1158.47,-640.24 1098.48,-633.7 1047.02,-648.04"/>
<polygon fill="red" stroke="red" points="1045.72,-644.78 1037.19,-651.07 1047.78,-651.46 1045.72,-644.78"/>
<text text-anchor="middle" x="1193.47" y="-665.15" font-family="Arial" font-size="10.00">subPropertyOf</text>
</g>
<!-- occursDuring&#45;&gt;ObservationContext -->
<g id="edge42" class="edge">
<title>occursDuring&#45;&gt;ObservationContext</title>
<path fill="none" stroke="green" d="M1073.17,-916.37C1075.9,-916.77 1078.66,-917.18 1081.43,-917.59"/>
<polygon fill="green" stroke="green" points="1081.11,-921.08 1091.51,-919.08 1082.13,-914.15 1081.11,-921.08"/>
<text text-anchor="middle" x="1095.3" y="-909.57" font-family="Arial" font-size="10.00">range</text>
</g>
<!-- narrower -->
<g id="node53" class="node">
<title>narrower</title>
<ellipse fill="lightyellow" stroke="black" cx="566.7" cy="-190" rx="50.89" ry="18"/>
<text text-anchor="middle" x="566.7" y="-186.3" font-family="Arial" font-size="14.00">narrower</text>
</g>
<!-- quantityValue&#45;&gt;QuantityValue -->
<g id="edge44" class="edge">
<title>quantityValue&#45;&gt;QuantityValue</title>
<path fill="none" stroke="green" d="M137.3,-50.26C138.83,-48.24 140.41,-46.16 142,-44.07"/>
<polygon fill="green" stroke="green" points="144.82,-46.15 148.07,-36.07 139.24,-41.92 144.82,-46.15"/>
<text text-anchor="middle" x="127.93" y="-36.16" font-family="Arial" font-size="10.00">range</text>
</g>
</g>
</svg>
