<?xml version="1.0" encoding="UTF-8" standalone="no"?>
<!DOCTYPE svg PUBLIC "-//W3C//DTD SVG 1.1//EN"
 "http://www.w3.org/Graphics/SVG/1.1/DTD/svg11.dtd">
<!-- Generated by graphviz version 2.43.0 (0)
 -->
<!-- Title: Object Properties Pages: 1 -->
<svg width="3064pt" height="2137pt"
 viewBox="0.00 0.00 3063.50 2137.00" xmlns="http://www.w3.org/2000/svg" xmlns:xlink="http://www.w3.org/1999/xlink">
<g id="graph0" class="graph" transform="scale(1 1) rotate(0) translate(4 2133)">
<title>Object Properties</title>
<polygon fill="white" stroke="transparent" points="-4,4 -4,-2133 3059.5,-2133 3059.5,4 -4,4"/>
<g id="clust1" class="cluster">
<title>cluster_0</title>
<polygon fill="lightgray" stroke="black" points="1441.46,-933 1441.46,-1008 1609.46,-1008 1609.46,-933 1441.46,-933"/>
<text text-anchor="middle" x="1525.46" y="-992.8" font-family="Times,serif" font-size="14.00">Computation Domain</text>
</g>
<g id="clust2" class="cluster">
<title>cluster_1</title>
<polygon fill="lightgray" stroke="black" points="753.48,-399 753.48,-474 891.48,-474 891.48,-399 753.48,-399"/>
<text text-anchor="middle" x="822.48" y="-458.8" font-family="Times,serif" font-size="14.00">Data Set Domain</text>
</g>
<g id="clust3" class="cluster">
<title>cluster_2</title>
<polygon fill="lightgray" stroke="black" points="1414.96,-801 1414.96,-876 1635.96,-876 1635.96,-801 1414.96,-801"/>
<text text-anchor="middle" x="1525.46" y="-860.8" font-family="Times,serif" font-size="14.00">Data Transfer Event Domain</text>
</g>
<g id="clust4" class="cluster">
<title>cluster_3</title>
<polygon fill="lightgray" stroke="black" points="36.5,-786 36.5,-861 228.5,-861 228.5,-786 36.5,-786"/>
<text text-anchor="middle" x="132.5" y="-845.8" font-family="Times,serif" font-size="14.00">Derived Feature Domain</text>
</g>
<g id="clust5" class="cluster">
<title>cluster_4</title>
<polygon fill="lightgray" stroke="black" points="757.48,-1168 757.48,-1243 888.48,-1243 888.48,-1168 757.48,-1168"/>
<text text-anchor="middle" x="822.98" y="-1227.8" font-family="Times,serif" font-size="14.00">Feature Domain</text>
</g>
<g id="clust6" class="cluster">
<title>cluster_5</title>
<polygon fill="lightgray" stroke="black" points="1437.96,-1366 1437.96,-1441 1612.96,-1441 1612.96,-1366 1437.96,-1366"/>
<text text-anchor="middle" x="1525.46" y="-1425.8" font-family="Times,serif" font-size="14.00">Measurement Domain</text>
</g>
<g id="clust7" class="cluster">
<title>cluster_6</title>
<polygon fill="lightgray" stroke="black" points="1422.46,-669 1422.46,-744 1628.46,-744 1628.46,-669 1422.46,-669"/>
<text text-anchor="middle" x="1525.46" y="-728.8" font-family="Times,serif" font-size="14.00">Notification Event Domain</text>
</g>
<g id="clust8" class="cluster">
<title>cluster_7</title>
<polygon fill="lightgray" stroke="black" points="2256.38,-473 2256.38,-548 2396.38,-548 2396.38,-473 2256.38,-473"/>
<text text-anchor="middle" x="2326.38" y="-532.8" font-family="Times,serif" font-size="14.00">Question Domain</text>
</g>
<g id="clust9" class="cluster">
<title>cluster_8</title>
<polygon fill="lightgray" stroke="black" points="711.98,-674 711.98,-749 932.98,-749 932.98,-674 711.98,-674"/>
<text text-anchor="middle" x="822.48" y="-733.8" font-family="Times,serif" font-size="14.00">Questionnaire Entry Domain</text>
</g>
<g id="clust10" class="cluster">
<title>cluster_9</title>
<polygon fill="lightgray" stroke="black" points="1434.96,-561 1434.96,-636 1616.96,-636 1616.96,-561 1434.96,-561"/>
<text text-anchor="middle" x="1525.96" y="-620.8" font-family="Times,serif" font-size="14.00">Response Item Domain</text>
</g>
<g id="clust11" class="cluster">
<title>cluster_10</title>
<polygon fill="lightgray" stroke="black" points="0,-1329 0,-1404 265,-1404 265,-1329 0,-1329"/>
<text text-anchor="middle" x="132.5" y="-1388.8" font-family="Times,serif" font-size="14.00">Sleep Stage Measurement Domain</text>
</g>
<g id="clust12" class="cluster">
<title>cluster_11</title>
<polygon fill="lightgray" stroke="black" points="764.48,-208 764.48,-283 880.48,-283 880.48,-208 764.48,-208"/>
<text text-anchor="middle" x="822.48" y="-267.8" font-family="Times,serif" font-size="14.00">Thing Domain</text>
</g>
<!-- Computation -->
<g id="node1" class="node">
<title>Computation</title>
<polygon fill="lightblue" stroke="black" points="1578.46,-977 1472.46,-977 1472.46,-941 1578.46,-941 1578.46,-977"/>
<text text-anchor="middle" x="1525.46" y="-955.3" font-family="Arial" font-size="14.00">Computation</text>
</g>
<!-- infersPhenotype -->
<g id="node23" class="node">
<title>infersPhenotype</title>
<ellipse fill="lightyellow" stroke="black" cx="1908.7" cy="-1067" rx="87.99" ry="18"/>
<text text-anchor="middle" x="1908.7" y="-1063.3" font-family="Arial" font-size="14.00">infers phenotype</text>
</g>
<!-- Computation&#45;&gt;infersPhenotype -->
<g id="edge1" class="edge">
<title>Computation&#45;&gt;infersPhenotype</title>
<path fill="none" stroke="blue" d="M1578.67,-973.79C1648.64,-993.61 1772.59,-1028.72 1846.75,-1049.73"/>
<polygon fill="blue" stroke="blue" points="1845.85,-1053.12 1856.43,-1052.47 1847.76,-1046.38 1845.85,-1053.12"/>
<text text-anchor="middle" x="1702.96" y="-1016" font-family="Arial" font-size="10.00">domain</text>
</g>
<!-- associatedWithDevice -->
<g id="node40" class="node">
<title>associatedWithDevice</title>
<ellipse fill="lightyellow" stroke="black" cx="1908.7" cy="-959" rx="133.48" ry="18"/>
<text text-anchor="middle" x="1908.7" y="-955.3" font-family="Arial" font-size="14.00">was associated with device</text>
</g>
<!-- Computation&#45;&gt;associatedWithDevice -->
<g id="edge28" class="edge">
<title>Computation&#45;&gt;associatedWithDevice</title>
<path fill="none" stroke="blue" d="M1578.77,-958.59C1609.54,-958.36 1649.22,-958.11 1684.46,-958 1710.58,-957.92 1738.42,-957.95 1765.26,-958.04"/>
<polygon fill="blue" stroke="blue" points="1765.48,-961.54 1775.49,-958.07 1765.51,-954.54 1765.48,-961.54"/>
<text text-anchor="middle" x="1702.96" y="-961" font-family="Arial" font-size="10.00">domain</text>
</g>
<!-- DataSet -->
<g id="node2" class="node">
<title>DataSet</title>
<polygon fill="lightblue" stroke="black" points="860.48,-443 784.48,-443 784.48,-407 860.48,-407 860.48,-443"/>
<text text-anchor="middle" x="822.48" y="-421.3" font-family="Arial" font-size="14.00">Data Set</text>
</g>
<!-- usedDataInterface -->
<g id="node34" class="node">
<title>usedDataInterface</title>
<ellipse fill="lightyellow" stroke="black" cx="1177.22" cy="-479" rx="98.58" ry="18"/>
<text text-anchor="middle" x="1177.22" y="-475.3" font-family="Arial" font-size="14.00">used data interface</text>
</g>
<!-- DataSet&#45;&gt;usedDataInterface -->
<g id="edge16" class="edge">
<title>DataSet&#45;&gt;usedDataInterface</title>
<path fill="none" stroke="blue" d="M860.57,-430.68C914.8,-438.98 1017.26,-454.66 1090.75,-465.91"/>
<polygon fill="blue" stroke="blue" points="1090.5,-469.42 1100.92,-467.47 1091.56,-462.5 1090.5,-469.42"/>
<text text-anchor="middle" x="997.48" y="-457" font-family="Arial" font-size="10.00">domain</text>
</g>
<!-- wasCollectedFrom -->
<g id="node44" class="node">
<title>wasCollectedFrom</title>
<ellipse fill="lightyellow" stroke="black" cx="1177.22" cy="-371" rx="94.78" ry="18"/>
<text text-anchor="middle" x="1177.22" y="-367.3" font-family="Arial" font-size="14.00">was collected from</text>
</g>
<!-- DataSet&#45;&gt;wasCollectedFrom -->
<g id="edge30" class="edge">
<title>DataSet&#45;&gt;wasCollectedFrom</title>
<path fill="none" stroke="blue" d="M860.57,-419.32C915.3,-410.94 1019.18,-395.04 1092.8,-383.77"/>
<polygon fill="blue" stroke="blue" points="1093.63,-387.19 1102.98,-382.21 1092.57,-380.27 1093.63,-387.19"/>
<text text-anchor="middle" x="997.48" y="-403" font-family="Arial" font-size="10.00">domain</text>
</g>
<!-- DataTransferEvent -->
<g id="node3" class="node">
<title>DataTransferEvent</title>
<polygon fill="lightblue" stroke="black" points="1602.96,-845 1447.96,-845 1447.96,-809 1602.96,-809 1602.96,-845"/>
<text text-anchor="middle" x="1525.46" y="-823.3" font-family="Arial" font-size="14.00">Data Transfer Event</text>
</g>
<!-- usedDevice -->
<g id="node49" class="node">
<title>usedDevice</title>
<ellipse fill="lightyellow" stroke="black" cx="1908.7" cy="-827" rx="64.99" ry="18"/>
<text text-anchor="middle" x="1908.7" y="-823.3" font-family="Arial" font-size="14.00">used device</text>
</g>
<!-- DataTransferEvent&#45;&gt;usedDevice -->
<g id="edge35" class="edge">
<title>DataTransferEvent&#45;&gt;usedDevice</title>
<path fill="none" stroke="blue" d="M1603.16,-827C1670.13,-827 1766.75,-827 1833.1,-827"/>
<polygon fill="blue" stroke="blue" points="1833.48,-830.5 1843.48,-827 1833.48,-823.5 1833.48,-830.5"/>
<text text-anchor="middle" x="1702.96" y="-830" font-family="Arial" font-size="10.00">domain</text>
</g>
<!-- DerivedFeature -->
<g id="node4" class="node">
<title>DerivedFeature</title>
<polygon fill="lightblue" stroke="black" points="195.5,-830 68.5,-830 68.5,-794 195.5,-794 195.5,-830"/>
<text text-anchor="middle" x="132" y="-808.3" font-family="Arial" font-size="14.00">Derived Feature</text>
</g>
<!-- wasDerivedFrom -->
<g id="node32" class="node">
<title>wasDerivedFrom</title>
<ellipse fill="lightyellow" stroke="black" cx="492.99" cy="-602" rx="85.29" ry="18"/>
<text text-anchor="middle" x="492.99" y="-598.3" font-family="Arial" font-size="14.00">wasDerivedFrom</text>
</g>
<!-- DerivedFeature&#45;&gt;wasDerivedFrom -->
<g id="edge12" class="edge">
<title>DerivedFeature&#45;&gt;wasDerivedFrom</title>
<path fill="none" stroke="blue" d="M163.92,-793.91C229.65,-755.46 383.07,-665.71 454.35,-624.02"/>
<polygon fill="blue" stroke="blue" points="456.17,-627.01 463.03,-618.94 452.64,-620.97 456.17,-627.01"/>
<text text-anchor="middle" x="329.5" y="-710" font-family="Arial" font-size="10.00">domain</text>
</g>
<!-- wasComputedBy -->
<g id="node50" class="node">
<title>wasComputedBy</title>
<ellipse fill="lightyellow" stroke="black" cx="492.99" cy="-886" rx="90.98" ry="18"/>
<text text-anchor="middle" x="492.99" y="-882.3" font-family="Arial" font-size="14.00">was computed by</text>
</g>
<!-- DerivedFeature&#45;&gt;wasComputedBy -->
<g id="edge37" class="edge">
<title>DerivedFeature&#45;&gt;wasComputedBy</title>
<path fill="none" stroke="blue" d="M195.53,-824.89C257.92,-837.75 353.69,-857.49 419.4,-871.04"/>
<polygon fill="blue" stroke="blue" points="418.77,-874.48 429.27,-873.07 420.19,-867.62 418.77,-874.48"/>
<text text-anchor="middle" x="329.5" y="-858" font-family="Arial" font-size="10.00">domain</text>
</g>
<!-- Feature -->
<g id="node5" class="node">
<title>Feature</title>
<polygon fill="lightblue" stroke="black" points="856.48,-1212 788.48,-1212 788.48,-1176 856.48,-1176 856.48,-1212"/>
<text text-anchor="middle" x="822.48" y="-1190.3" font-family="Arial" font-size="14.00">Feature</text>
</g>
<!-- requiresComputation -->
<g id="node24" class="node">
<title>requiresComputation</title>
<ellipse fill="lightyellow" stroke="black" cx="1177.22" cy="-1086" rx="106.68" ry="18"/>
<text text-anchor="middle" x="1177.22" y="-1082.3" font-family="Arial" font-size="14.00">requires computation</text>
</g>
<!-- Feature&#45;&gt;requiresComputation -->
<g id="edge3" class="edge">
<title>Feature&#45;&gt;requiresComputation</title>
<path fill="none" stroke="blue" d="M856.67,-1183.84C915.76,-1165.75 1040.02,-1127.7 1114.99,-1104.75"/>
<polygon fill="blue" stroke="blue" points="1116.24,-1108.03 1124.78,-1101.75 1114.19,-1101.33 1116.24,-1108.03"/>
<text text-anchor="middle" x="997.48" y="-1146" font-family="Arial" font-size="10.00">domain</text>
</g>
<!-- hasMeasurement -->
<g id="node28" class="node">
<title>hasMeasurement</title>
<ellipse fill="lightyellow" stroke="black" cx="1177.22" cy="-1361" rx="92.08" ry="18"/>
<text text-anchor="middle" x="1177.22" y="-1357.3" font-family="Arial" font-size="14.00">has measurement</text>
</g>
<!-- Feature&#45;&gt;hasMeasurement -->
<g id="edge8" class="edge">
<title>Feature&#45;&gt;hasMeasurement</title>
<path fill="none" stroke="blue" d="M856.67,-1209.71C920.44,-1239.9 1060.1,-1306.02 1131.81,-1339.97"/>
<polygon fill="blue" stroke="blue" points="1130.51,-1343.23 1141.05,-1344.35 1133.51,-1336.9 1130.51,-1343.23"/>
<text text-anchor="middle" x="997.48" y="-1285" font-family="Arial" font-size="10.00">domain</text>
</g>
<!-- supportsInferenceOf -->
<g id="node47" class="node">
<title>supportsInferenceOf</title>
<ellipse fill="lightyellow" stroke="black" cx="1177.22" cy="-1194" rx="107.48" ry="18"/>
<text text-anchor="middle" x="1177.22" y="-1190.3" font-family="Arial" font-size="14.00">supports inference of</text>
</g>
<!-- Feature&#45;&gt;supportsInferenceOf -->
<g id="edge33" class="edge">
<title>Feature&#45;&gt;supportsInferenceOf</title>
<path fill="none" stroke="blue" d="M856.67,-1194C902.77,-1194 988.53,-1194 1059.61,-1194"/>
<polygon fill="blue" stroke="blue" points="1059.98,-1197.5 1069.98,-1194 1059.98,-1190.5 1059.98,-1197.5"/>
<text text-anchor="middle" x="997.48" y="-1197" font-family="Arial" font-size="10.00">domain</text>
</g>
<!-- Measurement -->
<g id="node6" class="node">
<title>Measurement</title>
<polygon fill="lightblue" stroke="black" points="1580.96,-1410 1469.96,-1410 1469.96,-1374 1580.96,-1374 1580.96,-1410"/>
<text text-anchor="middle" x="1525.46" y="-1388.3" font-family="Arial" font-size="14.00">Measurement</text>
</g>
<!-- observedProperty -->
<g id="node26" class="node">
<title>observedProperty</title>
<ellipse fill="lightyellow" stroke="black" cx="1908.7" cy="-1537" rx="90.98" ry="18"/>
<text text-anchor="middle" x="1908.7" y="-1533.3" font-family="Arial" font-size="14.00">observedProperty</text>
</g>
<!-- Measurement&#45;&gt;observedProperty -->
<g id="edge7" class="edge">
<title>Measurement&#45;&gt;observedProperty</title>
<path fill="none" stroke="blue" d="M1573.98,-1410.07C1645.9,-1437.43 1781.88,-1489.14 1856.13,-1517.38"/>
<polygon fill="blue" stroke="blue" points="1855.15,-1520.76 1865.74,-1521.04 1857.64,-1514.21 1855.15,-1520.76"/>
<text text-anchor="middle" x="1702.96" y="-1467" font-family="Arial" font-size="10.00">domain</text>
</g>
<!-- featureOfInterest -->
<g id="node46" class="node">
<title>featureOfInterest</title>
<ellipse fill="lightyellow" stroke="black" cx="1908.7" cy="-1429" rx="91.78" ry="18"/>
<text text-anchor="middle" x="1908.7" y="-1425.3" font-family="Arial" font-size="14.00">feature of interest</text>
</g>
<!-- Measurement&#45;&gt;featureOfInterest -->
<g id="edge32" class="edge">
<title>Measurement&#45;&gt;featureOfInterest</title>
<path fill="none" stroke="blue" d="M1581.09,-1397.3C1642.34,-1403.25 1742.69,-1412.98 1816.01,-1420.1"/>
<polygon fill="blue" stroke="blue" points="1815.88,-1423.61 1826.18,-1421.09 1816.56,-1416.64 1815.88,-1423.61"/>
<text text-anchor="middle" x="1702.96" y="-1413" font-family="Arial" font-size="10.00">domain</text>
</g>
<!-- quantityValue -->
<g id="node54" class="node">
<title>quantityValue</title>
<ellipse fill="lightyellow" stroke="black" cx="1908.7" cy="-1321" rx="75.29" ry="18"/>
<text text-anchor="middle" x="1908.7" y="-1317.3" font-family="Arial" font-size="14.00">quantity value</text>
</g>
<!-- Measurement&#45;&gt;quantityValue -->
<g id="edge43" class="edge">
<title>Measurement&#45;&gt;quantityValue</title>
<path fill="none" stroke="blue" d="M1581.09,-1381.83C1648.93,-1369.19 1764.72,-1347.63 1838.65,-1333.86"/>
<polygon fill="blue" stroke="blue" points="1839.61,-1337.24 1848.8,-1331.97 1838.33,-1330.36 1839.61,-1337.24"/>
<text text-anchor="middle" x="1702.96" y="-1363" font-family="Arial" font-size="10.00">domain</text>
</g>
<!-- NotificationEvent -->
<g id="node7" class="node">
<title>NotificationEvent</title>
<polygon fill="lightblue" stroke="black" points="1595.46,-713 1455.46,-713 1455.46,-677 1595.46,-677 1595.46,-713"/>
<text text-anchor="middle" x="1525.46" y="-691.3" font-family="Arial" font-size="14.00">Notification Event</text>
</g>
<!-- usedAppInterface -->
<g id="node36" class="node">
<title>usedAppInterface</title>
<ellipse fill="lightyellow" stroke="black" cx="1908.7" cy="-695" rx="95.58" ry="18"/>
<text text-anchor="middle" x="1908.7" y="-691.3" font-family="Arial" font-size="14.00">used app interface</text>
</g>
<!-- NotificationEvent&#45;&gt;usedAppInterface -->
<g id="edge20" class="edge">
<title>NotificationEvent&#45;&gt;usedAppInterface</title>
<path fill="none" stroke="blue" d="M1595.5,-695C1653.37,-695 1736.88,-695 1802.97,-695"/>
<polygon fill="blue" stroke="blue" points="1803.01,-698.5 1813.01,-695 1803.01,-691.5 1803.01,-698.5"/>
<text text-anchor="middle" x="1702.96" y="-698" font-family="Arial" font-size="10.00">domain</text>
</g>
<!-- Question -->
<g id="node8" class="node">
<title>Question</title>
<polygon fill="lightblue" stroke="black" points="2365.38,-517 2286.38,-517 2286.38,-481 2365.38,-481 2365.38,-517"/>
<text text-anchor="middle" x="2325.88" y="-495.3" font-family="Arial" font-size="14.00">Question</text>
</g>
<!-- hasResponseFormat -->
<g id="node38" class="node">
<title>hasResponseFormat</title>
<ellipse fill="lightyellow" stroke="black" cx="2680.16" cy="-499" rx="103.18" ry="18"/>
<text text-anchor="middle" x="2680.16" y="-495.3" font-family="Arial" font-size="14.00">has response format</text>
</g>
<!-- Question&#45;&gt;hasResponseFormat -->
<g id="edge24" class="edge">
<title>Question&#45;&gt;hasResponseFormat</title>
<path fill="none" stroke="blue" d="M2365.59,-499C2413.63,-499 2497.65,-499 2566.63,-499"/>
<polygon fill="blue" stroke="blue" points="2566.69,-502.5 2576.69,-499 2566.69,-495.5 2566.69,-502.5"/>
<text text-anchor="middle" x="2504.32" y="-502" font-family="Arial" font-size="10.00">domain</text>
</g>
<!-- QuestionnaireEntry -->
<g id="node9" class="node">
<title>QuestionnaireEntry</title>
<polygon fill="lightblue" stroke="black" points="899.98,-718 744.98,-718 744.98,-682 899.98,-682 899.98,-718"/>
<text text-anchor="middle" x="822.48" y="-696.3" font-family="Arial" font-size="14.00">Questionnaire Entry</text>
</g>
<!-- hasResponseItem -->
<g id="node31" class="node">
<title>hasResponseItem</title>
<ellipse fill="lightyellow" stroke="black" cx="1177.22" cy="-832" rx="93.68" ry="18"/>
<text text-anchor="middle" x="1177.22" y="-828.3" font-family="Arial" font-size="14.00">has response item</text>
</g>
<!-- QuestionnaireEntry&#45;&gt;hasResponseItem -->
<g id="edge10" class="edge">
<title>QuestionnaireEntry&#45;&gt;hasResponseItem</title>
<path fill="none" stroke="blue" d="M871.79,-718.08C937.79,-742.78 1055.71,-786.9 1123.79,-812.38"/>
<polygon fill="blue" stroke="blue" points="1122.87,-815.77 1133.47,-816 1125.33,-809.22 1122.87,-815.77"/>
<text text-anchor="middle" x="997.48" y="-772" font-family="Arial" font-size="10.00">domain</text>
</g>
<!-- wasReportedBy -->
<g id="node39" class="node">
<title>wasReportedBy</title>
<ellipse fill="lightyellow" stroke="black" cx="1177.22" cy="-587" rx="83.69" ry="18"/>
<text text-anchor="middle" x="1177.22" y="-583.3" font-family="Arial" font-size="14.00">was reported by</text>
</g>
<!-- QuestionnaireEntry&#45;&gt;wasReportedBy -->
<g id="edge26" class="edge">
<title>QuestionnaireEntry&#45;&gt;wasReportedBy</title>
<path fill="none" stroke="blue" d="M841.55,-681.76C868.61,-655.83 922.58,-609.43 978.98,-591 1015.13,-579.19 1057.03,-576.87 1092.89,-578.03"/>
<polygon fill="blue" stroke="blue" points="1093.18,-581.55 1103.32,-578.47 1093.48,-574.55 1093.18,-581.55"/>
<text text-anchor="middle" x="997.48" y="-594" font-family="Arial" font-size="10.00">domain</text>
</g>
<!-- ResponseItem -->
<g id="node10" class="node">
<title>ResponseItem</title>
<polygon fill="lightblue" stroke="black" points="1584.96,-605 1465.96,-605 1465.96,-569 1584.96,-569 1584.96,-605"/>
<text text-anchor="middle" x="1525.46" y="-583.3" font-family="Arial" font-size="14.00">Response Item</text>
</g>
<!-- answersQuestion -->
<g id="node25" class="node">
<title>answersQuestion</title>
<ellipse fill="lightyellow" stroke="black" cx="1908.7" cy="-553" rx="90.18" ry="18"/>
<text text-anchor="middle" x="1908.7" y="-549.3" font-family="Arial" font-size="14.00">answers question</text>
</g>
<!-- ResponseItem&#45;&gt;answersQuestion -->
<g id="edge5" class="edge">
<title>ResponseItem&#45;&gt;answersQuestion</title>
<path fill="none" stroke="blue" d="M1585.2,-581.76C1646.61,-576.28 1743.85,-567.61 1815.52,-561.22"/>
<polygon fill="blue" stroke="blue" points="1816.25,-564.67 1825.9,-560.3 1815.63,-557.7 1816.25,-564.67"/>
<text text-anchor="middle" x="1702.96" y="-575" font-family="Arial" font-size="10.00">domain</text>
</g>
<!-- SleepStageMeasurement -->
<g id="node11" class="node">
<title>SleepStageMeasurement</title>
<polygon fill="lightblue" stroke="black" points="231,-1373 33,-1373 33,-1337 231,-1337 231,-1373"/>
<text text-anchor="middle" x="132" y="-1351.3" font-family="Arial" font-size="14.00">Sleep Stage Measurement</text>
</g>
<!-- hasStage -->
<g id="node37" class="node">
<title>hasStage</title>
<ellipse fill="lightyellow" stroke="black" cx="492.99" cy="-1355" rx="54.69" ry="18"/>
<text text-anchor="middle" x="492.99" y="-1351.3" font-family="Arial" font-size="14.00">has stage</text>
</g>
<!-- SleepStageMeasurement&#45;&gt;hasStage -->
<g id="edge22" class="edge">
<title>SleepStageMeasurement&#45;&gt;hasStage</title>
<path fill="none" stroke="blue" d="M231.1,-1355C293.8,-1355 373.31,-1355 427.99,-1355"/>
<polygon fill="blue" stroke="blue" points="428.24,-1358.5 438.24,-1355 428.24,-1351.5 428.24,-1358.5"/>
<text text-anchor="middle" x="329.5" y="-1358" font-family="Arial" font-size="10.00">domain</text>
</g>
<!-- Thing -->
<g id="node12" class="node">
<title>Thing</title>
<polygon fill="lightblue" stroke="black" points="850.48,-252 794.48,-252 794.48,-216 850.48,-216 850.48,-252"/>
<text text-anchor="middle" x="822.48" y="-230.3" font-family="Arial" font-size="14.00">Thing</text>
</g>
<!-- wasGeneratedBy -->
<g id="node33" class="node">
<title>wasGeneratedBy</title>
<ellipse fill="lightyellow" stroke="black" cx="1177.22" cy="-695" rx="87.18" ry="18"/>
<text text-anchor="middle" x="1177.22" y="-691.3" font-family="Arial" font-size="14.00">wasGeneratedBy</text>
</g>
<!-- Thing&#45;&gt;wasGeneratedBy -->
<g id="edge14" class="edge">
<title>Thing&#45;&gt;wasGeneratedBy</title>
<path fill="none" stroke="blue" d="M841.39,-252.2C866.05,-278.38 910.01,-329.22 932.98,-381 975.79,-477.48 911.96,-532.46 978.98,-614 1008.58,-650 1056.77,-670.19 1098.11,-681.4"/>
<polygon fill="blue" stroke="blue" points="1097.35,-684.82 1107.91,-683.93 1099.1,-678.04 1097.35,-684.82"/>
<text text-anchor="middle" x="997.48" y="-647" font-family="Arial" font-size="10.00">domain</text>
</g>
<!-- hasContext -->
<g id="node35" class="node">
<title>hasContext</title>
<ellipse fill="lightyellow" stroke="black" cx="1177.22" cy="-126" rx="63.89" ry="18"/>
<text text-anchor="middle" x="1177.22" y="-122.3" font-family="Arial" font-size="14.00">has context</text>
</g>
<!-- Thing&#45;&gt;hasContext -->
<g id="edge18" class="edge">
<title>Thing&#45;&gt;hasContext</title>
<path fill="none" stroke="blue" d="M850.58,-225.7C908.86,-207.86 1047.03,-165.56 1123.33,-142.19"/>
<polygon fill="blue" stroke="blue" points="1124.68,-145.44 1133.22,-139.17 1122.64,-138.75 1124.68,-145.44"/>
<text text-anchor="middle" x="997.48" y="-187" font-family="Arial" font-size="10.00">domain</text>
</g>
<!-- wasAttributedTo -->
<g id="node51" class="node">
<title>wasAttributedTo</title>
<ellipse fill="lightyellow" stroke="black" cx="1177.22" cy="-234" rx="83.39" ry="18"/>
<text text-anchor="middle" x="1177.22" y="-230.3" font-family="Arial" font-size="14.00">wasAttributedTo</text>
</g>
<!-- Thing&#45;&gt;wasAttributedTo -->
<g id="edge39" class="edge">
<title>Thing&#45;&gt;wasAttributedTo</title>
<path fill="none" stroke="blue" d="M850.58,-234C899.75,-234 1005.79,-234 1083.56,-234"/>
<polygon fill="blue" stroke="blue" points="1083.86,-237.5 1093.86,-234 1083.86,-230.5 1083.86,-237.5"/>
<text text-anchor="middle" x="997.48" y="-237" font-family="Arial" font-size="10.00">domain</text>
</g>
<!-- occursDuring -->
<g id="node52" class="node">
<title>occursDuring</title>
<ellipse fill="lightyellow" stroke="black" cx="1177.22" cy="-18" rx="73.39" ry="18"/>
<text text-anchor="middle" x="1177.22" y="-14.3" font-family="Arial" font-size="14.00">occurs during</text>
</g>
<!-- Thing&#45;&gt;occursDuring -->
<g id="edge41" class="edge">
<title>Thing&#45;&gt;occursDuring</title>
<path fill="none" stroke="blue" d="M849.15,-215.76C893.31,-184.7 986.94,-120.2 1069.98,-72 1090.38,-60.17 1113.66,-48.17 1133.23,-38.5"/>
<polygon fill="blue" stroke="blue" points="1134.78,-41.63 1142.22,-34.09 1131.7,-35.35 1134.78,-41.63"/>
<text text-anchor="middle" x="997.48" y="-131" font-family="Arial" font-size="10.00">domain</text>
</g>
<!-- ResponseFormat -->
<g id="node13" class="node">
<title>ResponseFormat</title>
<polygon fill="lightblue" stroke="black" points="3055.5,-517 2919.5,-517 2919.5,-481 3055.5,-481 3055.5,-517"/>
<text text-anchor="middle" x="2987.5" y="-495.3" font-family="Arial" font-size="14.00">Response Format</text>
</g>
<!-- SleepStage -->
<g id="node14" class="node">
<title>SleepStage</title>
<polygon fill="lightblue" stroke="black" points="869.98,-1373 774.98,-1373 774.98,-1337 869.98,-1337 869.98,-1373"/>
<text text-anchor="middle" x="822.48" y="-1351.3" font-family="Arial" font-size="14.00">SleepStage</text>
</g>
<!-- Participant -->
<g id="node15" class="node">
<title>Participant</title>
<polygon fill="lightblue" stroke="black" points="1570.46,-389 1480.46,-389 1480.46,-353 1570.46,-353 1570.46,-389"/>
<text text-anchor="middle" x="1525.46" y="-367.3" font-family="Arial" font-size="14.00">Participant</text>
</g>
<!-- DigitalPhenotype -->
<g id="node16" class="node">
<title>DigitalPhenotype</title>
<polygon fill="lightblue" stroke="black" points="2395.38,-1193 2256.38,-1193 2256.38,-1157 2395.38,-1157 2395.38,-1193"/>
<text text-anchor="middle" x="2325.88" y="-1171.3" font-family="Arial" font-size="14.00">Digital Phenotype</text>
</g>
<!-- QuantityValue -->
<g id="node17" class="node">
<title>QuantityValue</title>
<polygon fill="lightblue" stroke="black" points="2382.88,-1339 2268.88,-1339 2268.88,-1303 2382.88,-1303 2382.88,-1339"/>
<text text-anchor="middle" x="2325.88" y="-1317.3" font-family="Arial" font-size="14.00">QuantityValue</text>
</g>
<!-- ObservationContext -->
<g id="node18" class="node">
<title>ObservationContext</title>
<polygon fill="lightblue" stroke="black" points="1605.46,-85 1445.46,-85 1445.46,-49 1605.46,-49 1605.46,-85"/>
<text text-anchor="middle" x="1525.46" y="-63.3" font-family="Arial" font-size="14.00">Observation Context</text>
</g>
<!-- DataInterface -->
<g id="node19" class="node">
<title>DataInterface</title>
<polygon fill="lightblue" stroke="black" points="1583.46,-497 1467.46,-497 1467.46,-461 1583.46,-461 1583.46,-497"/>
<text text-anchor="middle" x="1525.46" y="-475.3" font-family="Arial" font-size="14.00">Data Interface</text>
</g>
<!-- AppInterface -->
<g id="node20" class="node">
<title>AppInterface</title>
<polygon fill="lightblue" stroke="black" points="2381.38,-625 2270.38,-625 2270.38,-589 2381.38,-589 2381.38,-625"/>
<text text-anchor="middle" x="2325.88" y="-603.3" font-family="Arial" font-size="14.00">App Interface</text>
</g>
<!-- Device -->
<g id="node21" class="node">
<title>Device</title>
<polygon fill="lightblue" stroke="black" points="2357.38,-923 2294.38,-923 2294.38,-887 2357.38,-887 2357.38,-923"/>
<text text-anchor="middle" x="2325.88" y="-901.3" font-family="Arial" font-size="14.00">Device</text>
</g>
<!-- inScheme -->
<g id="node22" class="node">
<title>inScheme</title>
<ellipse fill="lightyellow" stroke="black" cx="132" cy="-1463" rx="55.49" ry="18"/>
<text text-anchor="middle" x="132" y="-1459.3" font-family="Arial" font-size="14.00">inScheme</text>
</g>
<!-- infersPhenotype&#45;&gt;DigitalPhenotype -->
<g id="edge2" class="edge">
<title>infersPhenotype&#45;&gt;DigitalPhenotype</title>
<path fill="none" stroke="green" d="M1963.98,-1081.12C2036.01,-1099.85 2163.66,-1133.06 2246.24,-1154.54"/>
<polygon fill="green" stroke="green" points="2245.52,-1157.97 2256.08,-1157.1 2247.29,-1151.2 2245.52,-1157.97"/>
<text text-anchor="middle" x="2130.94" y="-1133" font-family="Arial" font-size="10.00">range</text>
</g>
<!-- requiresComputation&#45;&gt;Computation -->
<g id="edge4" class="edge">
<title>requiresComputation&#45;&gt;Computation</title>
<path fill="none" stroke="green" d="M1222.78,-1069.66C1284.79,-1046.91 1397.23,-1005.67 1465.94,-980.47"/>
<polygon fill="green" stroke="green" points="1467.15,-983.75 1475.34,-977.02 1464.74,-977.18 1467.15,-983.75"/>
<text text-anchor="middle" x="1352.46" y="-1029" font-family="Arial" font-size="10.00">range</text>
</g>
<!-- answersQuestion&#45;&gt;Question -->
<g id="edge6" class="edge">
<title>answersQuestion&#45;&gt;Question</title>
<path fill="none" stroke="green" d="M1959.77,-538.05C1996.97,-527.64 2049.16,-514.51 2095.94,-508 2157.66,-499.42 2229.57,-497.97 2276.09,-498.14"/>
<polygon fill="green" stroke="green" points="2276.17,-501.64 2286.19,-498.2 2276.22,-494.64 2276.17,-501.64"/>
<text text-anchor="middle" x="2130.94" y="-511" font-family="Arial" font-size="10.00">range</text>
</g>
<!-- observedProperty&#45;&gt;observedProperty -->
<g id="edge52" class="edge">
<title>observedProperty&#45;&gt;observedProperty</title>
<path fill="none" stroke="red" stroke-dasharray="5,2" d="M1886.93,-1554.67C1859.21,-1585.85 1866.47,-1627 1908.7,-1627 1947.31,-1627 1956.69,-1592.62 1936.85,-1562.9"/>
<polygon fill="red" stroke="red" points="1939.37,-1560.43 1930.48,-1554.67 1933.84,-1564.72 1939.37,-1560.43"/>
<text text-anchor="middle" x="1908.7" y="-1630" font-family="Arial" font-size="10.00">subPropertyOf</text>
</g>
<!-- related -->
<g id="node27" class="node">
<title>related</title>
<ellipse fill="lightyellow" stroke="black" cx="132" cy="-1571" rx="42.49" ry="18"/>
<text text-anchor="middle" x="132" y="-1567.3" font-family="Arial" font-size="14.00">related</text>
</g>
<!-- hasMeasurement&#45;&gt;Measurement -->
<g id="edge9" class="edge">
<title>hasMeasurement&#45;&gt;Measurement</title>
<path fill="none" stroke="green" d="M1261.6,-1368.46C1322.44,-1373.91 1403.73,-1381.19 1459.72,-1386.2"/>
<polygon fill="green" stroke="green" points="1459.6,-1389.71 1469.87,-1387.11 1460.22,-1382.73 1459.6,-1389.71"/>
<text text-anchor="middle" x="1352.46" y="-1380" font-family="Arial" font-size="10.00">range</text>
</g>
<!-- wasAssociatedWith -->
<g id="node29" class="node">
<title>wasAssociatedWith</title>
<ellipse fill="lightyellow" stroke="black" cx="2325.88" cy="-1047" rx="97.48" ry="18"/>
<text text-anchor="middle" x="2325.88" y="-1043.3" font-family="Arial" font-size="14.00">wasAssociatedWith</text>
</g>
<!-- broader -->
<g id="node30" class="node">
<title>broader</title>
<ellipse fill="lightyellow" stroke="black" cx="132" cy="-1679" rx="46.29" ry="18"/>
<text text-anchor="middle" x="132" y="-1675.3" font-family="Arial" font-size="14.00">broader</text>
</g>
<!-- hasResponseItem&#45;&gt;ResponseItem -->
<g id="edge11" class="edge">
<title>hasResponseItem&#45;&gt;ResponseItem</title>
<path fill="none" stroke="green" d="M1226.67,-816.58C1267.79,-801.54 1326.36,-775.3 1366.46,-737 1398.2,-706.69 1384.18,-682.27 1414.96,-651 1431.51,-634.2 1453.38,-620.25 1473.22,-609.71"/>
<polygon fill="green" stroke="green" points="1474.87,-612.8 1482.16,-605.11 1471.67,-606.57 1474.87,-612.8"/>
<text text-anchor="middle" x="1352.46" y="-761" font-family="Arial" font-size="10.00">range</text>
</g>
<!-- wasDerivedFrom&#45;&gt;Thing -->
<g id="edge13" class="edge">
<title>wasDerivedFrom&#45;&gt;Thing</title>
<path fill="none" stroke="green" d="M509.79,-584.25C563.06,-524.39 736.26,-329.76 798.75,-259.55"/>
<polygon fill="green" stroke="green" points="801.43,-261.8 805.46,-252 796.2,-257.15 801.43,-261.8"/>
<text text-anchor="middle" x="651.98" y="-444" font-family="Arial" font-size="10.00">range</text>
</g>
<!-- wasDerivedFrom&#45;&gt;wasDerivedFrom -->
<g id="edge45" class="edge">
<title>wasDerivedFrom&#45;&gt;wasDerivedFrom</title>
<path fill="none" stroke="red" stroke-dasharray="5,2" d="M476.13,-619.67C454.66,-650.85 460.28,-692 492.99,-692 522.76,-692 530.1,-657.91 514.99,-628.28"/>
<polygon fill="red" stroke="red" points="517.98,-626.47 509.86,-619.67 511.97,-630.05 517.98,-626.47"/>
<text text-anchor="middle" x="492.99" y="-695" font-family="Arial" font-size="10.00">subPropertyOf</text>
</g>
<!-- wasGeneratedBy&#45;&gt;Computation -->
<g id="edge15" class="edge">
<title>wasGeneratedBy&#45;&gt;Computation</title>
<path fill="none" stroke="green" d="M1239.6,-682.3C1280.06,-677.63 1331.79,-679.25 1366.46,-708 1432.23,-762.53 1363.6,-825.74 1414.96,-894 1428.51,-911.99 1448.61,-925.96 1467.91,-936.25"/>
<polygon fill="green" stroke="green" points="1466.49,-939.46 1476.99,-940.87 1469.66,-933.22 1466.49,-939.46"/>
<text text-anchor="middle" x="1352.46" y="-711" font-family="Arial" font-size="10.00">range</text>
</g>
<!-- wasGeneratedBy&#45;&gt;wasGeneratedBy -->
<g id="edge48" class="edge">
<title>wasGeneratedBy&#45;&gt;wasGeneratedBy</title>
<path fill="none" stroke="red" stroke-dasharray="5,2" d="M1158.65,-712.67C1135.01,-743.85 1141.2,-785 1177.22,-785 1210.01,-785 1218.09,-750.91 1201.45,-721.28"/>
<polygon fill="red" stroke="red" points="1204.21,-719.11 1195.8,-712.67 1198.36,-722.95 1204.21,-719.11"/>
<text text-anchor="middle" x="1177.22" y="-788" font-family="Arial" font-size="10.00">subPropertyOf</text>
</g>
<!-- usedDataInterface&#45;&gt;DataInterface -->
<g id="edge17" class="edge">
<title>usedDataInterface&#45;&gt;DataInterface</title>
<path fill="none" stroke="green" d="M1275.92,-478.17C1305.05,-478 1337.05,-477.91 1366.46,-478 1396.27,-478.09 1429.24,-478.29 1457.31,-478.48"/>
<polygon fill="green" stroke="green" points="1457.4,-481.98 1467.42,-478.55 1457.45,-474.98 1457.4,-481.98"/>
<text text-anchor="middle" x="1352.46" y="-481" font-family="Arial" font-size="10.00">range</text>
</g>
<!-- hasContext&#45;&gt;ObservationContext -->
<g id="edge19" class="edge">
<title>hasContext&#45;&gt;ObservationContext</title>
<path fill="none" stroke="green" d="M1232.32,-116.78C1286.58,-107.54 1371.05,-93.14 1435.24,-82.2"/>
<polygon fill="green" stroke="green" points="1436.09,-85.61 1445.36,-80.48 1434.91,-78.71 1436.09,-85.61"/>
<text text-anchor="middle" x="1352.46" y="-102" font-family="Arial" font-size="10.00">range</text>
</g>
<!-- usedAppInterface&#45;&gt;AppInterface -->
<g id="edge21" class="edge">
<title>usedAppInterface&#45;&gt;AppInterface</title>
<path fill="none" stroke="green" d="M1972.76,-681.63C2050.37,-665.18 2181.5,-637.39 2259.96,-620.76"/>
<polygon fill="green" stroke="green" points="2261.14,-624.09 2270.2,-618.59 2259.69,-617.24 2261.14,-624.09"/>
<text text-anchor="middle" x="2130.94" y="-656" font-family="Arial" font-size="10.00">range</text>
</g>
<!-- used -->
<g id="node48" class="node">
<title>used</title>
<ellipse fill="lightyellow" stroke="black" cx="2325.88" cy="-739" rx="32.49" ry="18"/>
<text text-anchor="middle" x="2325.88" y="-735.3" font-family="Arial" font-size="14.00">used</text>
</g>
<!-- usedAppInterface&#45;&gt;used -->
<g id="edge46" class="edge">
<title>usedAppInterface&#45;&gt;used</title>
<path fill="none" stroke="red" stroke-dasharray="5,2" d="M1997.87,-688.53C2047.48,-686.41 2110.42,-686.29 2165.94,-694 2209.13,-700 2257.08,-714.74 2288.91,-725.73"/>
<polygon fill="red" stroke="red" points="2288.05,-729.14 2298.65,-729.15 2290.37,-722.54 2288.05,-729.14"/>
<text text-anchor="middle" x="2130.94" y="-697" font-family="Arial" font-size="10.00">subPropertyOf</text>
</g>
<!-- hasStage&#45;&gt;SleepStage -->
<g id="edge23" class="edge">
<title>hasStage&#45;&gt;SleepStage</title>
<path fill="none" stroke="green" d="M547.7,-1355C607.48,-1355 703.68,-1355 764.69,-1355"/>
<polygon fill="green" stroke="green" points="764.9,-1358.5 774.9,-1355 764.9,-1351.5 764.9,-1358.5"/>
<text text-anchor="middle" x="651.98" y="-1358" font-family="Arial" font-size="10.00">range</text>
</g>
<!-- hasResponseFormat&#45;&gt;ResponseFormat -->
<g id="edge25" class="edge">
<title>hasResponseFormat&#45;&gt;ResponseFormat</title>
<path fill="none" stroke="green" d="M2783.69,-499C2824.72,-499 2871.19,-499 2909.28,-499"/>
<polygon fill="green" stroke="green" points="2909.29,-502.5 2919.29,-499 2909.29,-495.5 2909.29,-502.5"/>
<text text-anchor="middle" x="2851.5" y="-502" font-family="Arial" font-size="10.00">range</text>
</g>
<!-- wasReportedBy&#45;&gt;Participant -->
<g id="edge27" class="edge">
<title>wasReportedBy&#45;&gt;Participant</title>
<path fill="none" stroke="green" d="M1228.63,-572.76C1269.31,-559.34 1326.2,-536.01 1366.46,-501 1396.7,-474.71 1385.12,-451.74 1414.96,-425 1431.18,-410.48 1452.01,-398.91 1471.13,-390.28"/>
<polygon fill="green" stroke="green" points="1472.58,-393.46 1480.36,-386.27 1469.79,-387.04 1472.58,-393.46"/>
<text text-anchor="middle" x="1352.46" y="-524" font-family="Arial" font-size="10.00">range</text>
</g>
<!-- associatedWithDevice&#45;&gt;Device -->
<g id="edge29" class="edge">
<title>associatedWithDevice&#45;&gt;Device</title>
<path fill="none" stroke="green" d="M2005.21,-946.58C2093.22,-935.13 2219.6,-918.69 2283.91,-910.33"/>
<polygon fill="green" stroke="green" points="2284.6,-913.77 2294.06,-909.01 2283.69,-906.83 2284.6,-913.77"/>
<text text-anchor="middle" x="2130.94" y="-936" font-family="Arial" font-size="10.00">range</text>
</g>
<!-- associatedWithDevice&#45;&gt;wasAssociatedWith -->
<g id="edge49" class="edge">
<title>associatedWithDevice&#45;&gt;wasAssociatedWith</title>
<path fill="none" stroke="red" stroke-dasharray="5,2" d="M1981.07,-974.13C2056.52,-990.12 2174.93,-1015.22 2251.22,-1031.39"/>
<polygon fill="red" stroke="red" points="2250.73,-1034.86 2261.24,-1033.51 2252.18,-1028.01 2250.73,-1034.86"/>
<text text-anchor="middle" x="2130.94" y="-1013" font-family="Arial" font-size="10.00">subPropertyOf</text>
</g>
<!-- unit -->
<g id="node41" class="node">
<title>unit</title>
<ellipse fill="lightyellow" stroke="black" cx="132" cy="-1787" rx="28.7" ry="18"/>
<text text-anchor="middle" x="132" y="-1783.3" font-family="Arial" font-size="14.00">unit</text>
</g>
<!-- hasTopConcept -->
<g id="node42" class="node">
<title>hasTopConcept</title>
<ellipse fill="lightyellow" stroke="black" cx="132" cy="-1895" rx="79.09" ry="18"/>
<text text-anchor="middle" x="132" y="-1891.3" font-family="Arial" font-size="14.00">hasTopConcept</text>
</g>
<!-- hasFeatureOfInterest -->
<g id="node43" class="node">
<title>hasFeatureOfInterest</title>
<ellipse fill="lightyellow" stroke="black" cx="2325.88" cy="-1429" rx="105.88" ry="18"/>
<text text-anchor="middle" x="2325.88" y="-1425.3" font-family="Arial" font-size="14.00">hasFeatureOfInterest</text>
</g>
<!-- wasCollectedFrom&#45;&gt;Participant -->
<g id="edge31" class="edge">
<title>wasCollectedFrom&#45;&gt;Participant</title>
<path fill="none" stroke="green" d="M1272.38,-371C1335.83,-371 1417.3,-371 1470.18,-371"/>
<polygon fill="green" stroke="green" points="1470.36,-374.5 1480.36,-371 1470.36,-367.5 1470.36,-374.5"/>
<text text-anchor="middle" x="1352.46" y="-374" font-family="Arial" font-size="10.00">range</text>
</g>
<!-- topConceptOf -->
<g id="node45" class="node">
<title>topConceptOf</title>
<ellipse fill="lightyellow" stroke="black" cx="132" cy="-2003" rx="73.39" ry="18"/>
<text text-anchor="middle" x="132" y="-1999.3" font-family="Arial" font-size="14.00">topConceptOf</text>
</g>
<!-- featureOfInterest&#45;&gt;hasFeatureOfInterest -->
<g id="edge50" class="edge">
<title>featureOfInterest&#45;&gt;hasFeatureOfInterest</title>
<path fill="none" stroke="red" stroke-dasharray="5,2" d="M2000.56,-1429C2061.96,-1429 2143.55,-1429 2209.54,-1429"/>
<polygon fill="red" stroke="red" points="2209.57,-1432.5 2219.57,-1429 2209.57,-1425.5 2209.57,-1432.5"/>
<text text-anchor="middle" x="2130.94" y="-1432" font-family="Arial" font-size="10.00">subPropertyOf</text>
</g>
<!-- supportsInferenceOf&#45;&gt;DigitalPhenotype -->
<g id="edge34" class="edge">
<title>supportsInferenceOf&#45;&gt;DigitalPhenotype</title>
<path fill="none" stroke="green" d="M1284.04,-1192.25C1511.97,-1188.47 2044.91,-1179.64 2246.1,-1176.31"/>
<polygon fill="green" stroke="green" points="2246.35,-1179.8 2256.29,-1176.14 2246.24,-1172.8 2246.35,-1179.8"/>
<text text-anchor="middle" x="1702.96" y="-1188" font-family="Arial" font-size="10.00">range</text>
</g>
<!-- usedDevice&#45;&gt;Device -->
<g id="edge36" class="edge">
<title>usedDevice&#45;&gt;Device</title>
<path fill="none" stroke="green" d="M1963.13,-837.04C2047.22,-852.83 2208.62,-883.16 2284.09,-897.34"/>
<polygon fill="green" stroke="green" points="2283.68,-900.82 2294.16,-899.23 2284.97,-893.94 2283.68,-900.82"/>
<text text-anchor="middle" x="2130.94" y="-875" font-family="Arial" font-size="10.00">range</text>
</g>
<!-- usedDevice&#45;&gt;used -->
<g id="edge47" class="edge">
<title>usedDevice&#45;&gt;used</title>
<path fill="none" stroke="red" stroke-dasharray="5,2" d="M1961.03,-816.12C2044.95,-798.33 2209.74,-763.41 2285.31,-747.39"/>
<polygon fill="red" stroke="red" points="2286.31,-750.75 2295.36,-745.26 2284.85,-743.91 2286.31,-750.75"/>
<text text-anchor="middle" x="2130.94" y="-788" font-family="Arial" font-size="10.00">subPropertyOf</text>
</g>
<!-- wasComputedBy&#45;&gt;Computation -->
<g id="edge38" class="edge">
<title>wasComputedBy&#45;&gt;Computation</title>
<path fill="none" stroke="green" d="M579.2,-892.04C781.19,-906.35 1285.42,-942.07 1462.11,-954.58"/>
<polygon fill="green" stroke="green" points="1462.05,-958.09 1472.27,-955.3 1462.55,-951.1 1462.05,-958.09"/>
<text text-anchor="middle" x="997.48" y="-925" font-family="Arial" font-size="10.00">range</text>
</g>
<!-- wasAttributedTo&#45;&gt;Participant -->
<g id="edge40" class="edge">
<title>wasAttributedTo&#45;&gt;Participant</title>
<path fill="none" stroke="green" d="M1217.94,-249.72C1280.2,-274.35 1400.88,-322.1 1470.8,-349.77"/>
<polygon fill="green" stroke="green" points="1469.74,-353.11 1480.32,-353.53 1472.31,-346.6 1469.74,-353.11"/>
<text text-anchor="middle" x="1352.46" y="-310" font-family="Arial" font-size="10.00">range</text>
</g>
<!-- wasAttributedTo&#45;&gt;wasAttributedTo -->
<g id="edge51" class="edge">
<title>wasAttributedTo&#45;&gt;wasAttributedTo</title>
<path fill="none" stroke="red" stroke-dasharray="5,2" d="M1158.65,-251.67C1135.01,-282.85 1141.2,-324 1177.22,-324 1210.01,-324 1218.09,-289.91 1201.45,-260.28"/>
<polygon fill="red" stroke="red" points="1204.21,-258.11 1195.8,-251.67 1198.36,-261.95 1204.21,-258.11"/>
<text text-anchor="middle" x="1177.22" y="-327" font-family="Arial" font-size="10.00">subPropertyOf</text>
</g>
<!-- occursDuring&#45;&gt;ObservationContext -->
<g id="edge42" class="edge">
<title>occursDuring&#45;&gt;ObservationContext</title>
<path fill="none" stroke="green" d="M1250.1,-15.23C1285.35,-14.96 1328.32,-16.26 1366.46,-22 1399.28,-26.94 1434.9,-36.68 1464,-45.84"/>
<polygon fill="green" stroke="green" points="1463.02,-49.2 1473.61,-48.92 1465.15,-42.54 1463.02,-49.2"/>
<text text-anchor="middle" x="1352.46" y="-25" font-family="Arial" font-size="10.00">range</text>
</g>
<!-- narrower -->
<g id="node53" class="node">
<title>narrower</title>
<ellipse fill="lightyellow" stroke="black" cx="132" cy="-2111" rx="50.89" ry="18"/>
<text text-anchor="middle" x="132" y="-2107.3" font-family="Arial" font-size="14.00">narrower</text>
</g>
<!-- quantityValue&#45;&gt;QuantityValue -->
<g id="edge44" class="edge">
<title>quantityValue&#45;&gt;QuantityValue</title>
<path fill="none" stroke="green" d="M1984.41,-1321C2062.45,-1321 2183.72,-1321 2258.5,-1321"/>
<polygon fill="green" stroke="green" points="2258.74,-1324.5 2268.74,-1321 2258.74,-1317.5 2258.74,-1324.5"/>
<text text-anchor="middle" x="2130.94" y="-1324" font-family="Arial" font-size="10.00">range</text>
</g>
</g>
</svg>
