<?xml version="1.0" encoding="UTF-8" standalone="no"?>
<!DOCTYPE svg PUBLIC "-//W3C//DTD SVG 1.1//EN"
 "http://www.w3.org/Graphics/SVG/1.1/DTD/svg11.dtd">
<!-- Generated by graphviz version 2.43.0 (0)
 -->
<!-- Title: Object Properties Pages: 1 -->
<svg width="240pt" height="240pt"
 viewBox="0.00 0.00 240.38 240.38" xmlns="http://www.w3.org/2000/svg" xmlns:xlink="http://www.w3.org/1999/xlink">
<g id="graph0" class="graph" transform="scale(1 1) rotate(0) translate(4 236.38)">
<title>Object Properties</title>
<polygon fill="white" stroke="transparent" points="-4,4 -4,-236.38 236.38,-236.38 236.38,4 -4,4"/>
<!-- ObservationContext -->
<g id="node1" class="node">
<title>ObservationContext</title>
<polygon fill="lightblue" stroke="black" points="33.2,-232.38 0,-232.38 0,-202.26 33.2,-202.26 33.2,-232.38"/>
<text text-anchor="middle" x="16.6" y="-213.62" font-family="Arial" font-size="14.00">Observation Context</text>
</g>
<!-- SleepStage -->
<g id="node2" class="node">
<title>SleepStage</title>
<polygon fill="lightblue" stroke="black" points="66.39,-232.38 33.2,-232.38 33.2,-202.26 66.39,-202.26 66.39,-232.38"/>
<text text-anchor="middle" x="49.8" y="-213.62" font-family="Arial" font-size="14.00">SleepStage</text>
</g>
<!-- Computation -->
<g id="node3" class="node">
<title>Computation</title>
<polygon fill="lightblue" stroke="black" points="99.59,-232.38 66.39,-232.38 66.39,-202.26 99.59,-202.26 99.59,-232.38"/>
<text text-anchor="middle" x="82.99" y="-213.62" font-family="Arial" font-size="14.00">Computation</text>
</g>
<!-- infersPhenotype -->
<g id="node23" class="node">
<title>infersPhenotype</title>
<polygon fill="lightyellow" stroke="black" points="197.77,-202.26 163.16,-202.26 163.16,-173.36 197.77,-173.36 197.77,-202.26"/>
<text text-anchor="middle" x="180.46" y="-184.11" font-family="Arial" font-size="14.00">infers phenotype</text>
</g>
<!-- associatedWithDevice -->
<g id="node40" class="node">
<title>associatedWithDevice</title>
<polygon fill="lightyellow" stroke="black" points="128.55,-86.68 93.94,-86.68 93.94,-57.79 128.55,-57.79 128.55,-86.68"/>
<text text-anchor="middle" x="111.25" y="-68.53" font-family="Arial" font-size="14.00">was associated with device</text>
</g>
<!-- Feature -->
<g id="node4" class="node">
<title>Feature</title>
<polygon fill="lightblue" stroke="black" points="132.79,-232.38 99.59,-232.38 99.59,-202.26 132.79,-202.26 132.79,-232.38"/>
<text text-anchor="middle" x="116.19" y="-213.62" font-family="Arial" font-size="14.00">Feature</text>
</g>
<!-- requiresComputation -->
<g id="node24" class="node">
<title>requiresComputation</title>
<polygon fill="lightyellow" stroke="black" points="232.38,-202.26 197.77,-202.26 197.77,-173.36 232.38,-173.36 232.38,-202.26"/>
<text text-anchor="middle" x="215.07" y="-184.11" font-family="Arial" font-size="14.00">requires computation</text>
</g>
<!-- hasMeasurement -->
<g id="node28" class="node">
<title>hasMeasurement</title>
<polygon fill="lightyellow" stroke="black" points="197.77,-173.36 163.16,-173.36 163.16,-144.47 197.77,-144.47 197.77,-173.36"/>
<text text-anchor="middle" x="180.46" y="-155.22" font-family="Arial" font-size="14.00">has measurement</text>
</g>
<!-- supportsInferenceOf -->
<g id="node47" class="node">
<title>supportsInferenceOf</title>
<polygon fill="lightyellow" stroke="black" points="163.16,-57.79 128.55,-57.79 128.55,-28.89 163.16,-28.89 163.16,-57.79"/>
<text text-anchor="middle" x="145.85" y="-39.64" font-family="Arial" font-size="14.00">supports inference of</text>
</g>
<!-- DataTransferEvent -->
<g id="node5" class="node">
<title>DataTransferEvent</title>
<polygon fill="lightblue" stroke="black" points="165.99,-232.38 132.79,-232.38 132.79,-202.26 165.99,-202.26 165.99,-232.38"/>
<text text-anchor="middle" x="149.39" y="-213.62" font-family="Arial" font-size="14.00">Data Transfer Event</text>
</g>
<!-- usedDevice -->
<g id="node49" class="node">
<title>usedDevice</title>
<polygon fill="lightyellow" stroke="black" points="197.77,-86.68 163.16,-86.68 163.16,-57.79 197.77,-57.79 197.77,-86.68"/>
<text text-anchor="middle" x="180.46" y="-68.53" font-family="Arial" font-size="14.00">used device</text>
</g>
<!-- Participant -->
<g id="node6" class="node">
<title>Participant</title>
<polygon fill="lightblue" stroke="black" points="199.18,-232.38 165.99,-232.38 165.99,-202.26 199.18,-202.26 199.18,-232.38"/>
<text text-anchor="middle" x="182.58" y="-213.62" font-family="Arial" font-size="14.00">Participant</text>
</g>
<!-- DerivedFeature -->
<g id="node7" class="node">
<title>DerivedFeature</title>
<polygon fill="lightblue" stroke="black" points="232.38,-232.38 199.18,-232.38 199.18,-202.26 232.38,-202.26 232.38,-232.38"/>
<text text-anchor="middle" x="215.78" y="-213.62" font-family="Arial" font-size="14.00">Derived Feature</text>
</g>
<!-- wasDerivedFrom -->
<g id="node32" class="node">
<title>wasDerivedFrom</title>
<polygon fill="lightyellow" stroke="black" points="93.94,-86.68 59.33,-86.68 59.33,-57.79 93.94,-57.79 93.94,-86.68"/>
<text text-anchor="middle" x="76.64" y="-68.53" font-family="Arial" font-size="14.00">wasDerivedFrom</text>
</g>
<!-- wasComputedBy -->
<g id="node50" class="node">
<title>wasComputedBy</title>
<polygon fill="lightyellow" stroke="black" points="232.38,-86.68 197.77,-86.68 197.77,-57.79 232.38,-57.79 232.38,-86.68"/>
<text text-anchor="middle" x="215.07" y="-68.53" font-family="Arial" font-size="14.00">was computed by</text>
</g>
<!-- DigitalPhenotype -->
<g id="node8" class="node">
<title>DigitalPhenotype</title>
<polygon fill="lightblue" stroke="black" points="29.67,-202.26 0,-202.26 0,-168.55 29.67,-168.55 29.67,-202.26"/>
<text text-anchor="middle" x="14.83" y="-181.7" font-family="Arial" font-size="14.00">Digital Phenotype</text>
</g>
<!-- Thing -->
<g id="node9" class="node">
<title>Thing</title>
<polygon fill="lightblue" stroke="black" points="29.67,-168.55 0,-168.55 0,-134.84 29.67,-134.84 29.67,-168.55"/>
<text text-anchor="middle" x="14.83" y="-147.99" font-family="Arial" font-size="14.00">Thing</text>
</g>
<!-- wasGeneratedBy -->
<g id="node33" class="node">
<title>wasGeneratedBy</title>
<polygon fill="lightyellow" stroke="black" points="93.94,-57.79 59.33,-57.79 59.33,-28.89 93.94,-28.89 93.94,-57.79"/>
<text text-anchor="middle" x="76.64" y="-39.64" font-family="Arial" font-size="14.00">wasGeneratedBy</text>
</g>
<!-- hasContext -->
<g id="node35" class="node">
<title>hasContext</title>
<polygon fill="lightyellow" stroke="black" points="128.55,-144.47 93.94,-144.47 93.94,-115.58 128.55,-115.58 128.55,-144.47"/>
<text text-anchor="middle" x="111.25" y="-126.32" font-family="Arial" font-size="14.00">has context</text>
</g>
<!-- wasAttributedTo -->
<g id="node51" class="node">
<title>wasAttributedTo</title>
<polygon fill="lightyellow" stroke="black" points="197.77,-57.79 163.16,-57.79 163.16,-28.89 197.77,-28.89 197.77,-57.79"/>
<text text-anchor="middle" x="180.46" y="-39.64" font-family="Arial" font-size="14.00">wasAttributedTo</text>
</g>
<!-- occursDuring -->
<g id="node52" class="node">
<title>occursDuring</title>
<polygon fill="lightyellow" stroke="black" points="197.77,-28.89 163.16,-28.89 163.16,0 197.77,0 197.77,-28.89"/>
<text text-anchor="middle" x="180.46" y="-10.75" font-family="Arial" font-size="14.00">occurs during</text>
</g>
<!-- DataSet -->
<g id="node10" class="node">
<title>DataSet</title>
<polygon fill="lightblue" stroke="black" points="29.67,-134.84 0,-134.84 0,-101.13 29.67,-101.13 29.67,-134.84"/>
<text text-anchor="middle" x="14.83" y="-114.28" font-family="Arial" font-size="14.00">Data Set</text>
</g>
<!-- usedDataInterface -->
<g id="node34" class="node">
<title>usedDataInterface</title>
<polygon fill="lightyellow" stroke="black" points="93.94,-28.89 59.33,-28.89 59.33,0 93.94,0 93.94,-28.89"/>
<text text-anchor="middle" x="76.64" y="-10.75" font-family="Arial" font-size="14.00">used data interface</text>
</g>
<!-- wasCollectedFrom -->
<g id="node44" class="node">
<title>wasCollectedFrom</title>
<polygon fill="lightyellow" stroke="black" points="197.77,-115.58 163.16,-115.58 163.16,-86.68 197.77,-86.68 197.77,-115.58"/>
<text text-anchor="middle" x="180.46" y="-97.43" font-family="Arial" font-size="14.00">was collected from</text>
</g>
<!-- QuantityValue -->
<g id="node11" class="node">
<title>QuantityValue</title>
<polygon fill="lightblue" stroke="black" points="29.67,-101.13 0,-101.13 0,-67.42 29.67,-67.42 29.67,-101.13"/>
<text text-anchor="middle" x="14.83" y="-80.57" font-family="Arial" font-size="14.00">QuantityValue</text>
</g>
<!-- NotificationEvent -->
<g id="node12" class="node">
<title>NotificationEvent</title>
<polygon fill="lightblue" stroke="black" points="29.67,-67.42 0,-67.42 0,-33.71 29.67,-33.71 29.67,-67.42"/>
<text text-anchor="middle" x="14.83" y="-46.86" font-family="Arial" font-size="14.00">Notification Event</text>
</g>
<!-- usedAppInterface -->
<g id="node36" class="node">
<title>usedAppInterface</title>
<polygon fill="lightyellow" stroke="black" points="163.16,-144.47 128.55,-144.47 128.55,-115.58 163.16,-115.58 163.16,-144.47"/>
<text text-anchor="middle" x="145.85" y="-126.32" font-family="Arial" font-size="14.00">used app interface</text>
</g>
<!-- AppInterface -->
<g id="node13" class="node">
<title>AppInterface</title>
<polygon fill="lightblue" stroke="black" points="29.67,-33.71 0,-33.71 0,0 29.67,0 29.67,-33.71"/>
<text text-anchor="middle" x="14.83" y="-13.15" font-family="Arial" font-size="14.00">App Interface</text>
</g>
<!-- Device -->
<g id="node14" class="node">
<title>Device</title>
<polygon fill="lightblue" stroke="black" points="59.33,-202.26 29.67,-202.26 29.67,-168.55 59.33,-168.55 59.33,-202.26"/>
<text text-anchor="middle" x="44.5" y="-181.7" font-family="Arial" font-size="14.00">Device</text>
</g>
<!-- Question -->
<g id="node15" class="node">
<title>Question</title>
<polygon fill="lightblue" stroke="black" points="59.33,-168.55 29.67,-168.55 29.67,-134.84 59.33,-134.84 59.33,-168.55"/>
<text text-anchor="middle" x="44.5" y="-147.99" font-family="Arial" font-size="14.00">Question</text>
</g>
<!-- hasResponseFormat -->
<g id="node38" class="node">
<title>hasResponseFormat</title>
<polygon fill="lightyellow" stroke="black" points="232.38,-144.47 197.77,-144.47 197.77,-115.58 232.38,-115.58 232.38,-144.47"/>
<text text-anchor="middle" x="215.07" y="-126.32" font-family="Arial" font-size="14.00">has response format</text>
</g>
<!-- DataInterface -->
<g id="node16" class="node">
<title>DataInterface</title>
<polygon fill="lightblue" stroke="black" points="59.33,-134.84 29.67,-134.84 29.67,-101.13 59.33,-101.13 59.33,-134.84"/>
<text text-anchor="middle" x="44.5" y="-114.28" font-family="Arial" font-size="14.00">Data Interface</text>
</g>
<!-- SleepStageMeasurement -->
<g id="node17" class="node">
<title>SleepStageMeasurement</title>
<polygon fill="lightblue" stroke="black" points="59.33,-101.13 29.67,-101.13 29.67,-67.42 59.33,-67.42 59.33,-101.13"/>
<text text-anchor="middle" x="44.5" y="-80.57" font-family="Arial" font-size="14.00">Sleep Stage Measurement</text>
</g>
<!-- hasStage -->
<g id="node37" class="node">
<title>hasStage</title>
<polygon fill="lightyellow" stroke="black" points="197.77,-144.47 163.16,-144.47 163.16,-115.58 197.77,-115.58 197.77,-144.47"/>
<text text-anchor="middle" x="180.46" y="-126.32" font-family="Arial" font-size="14.00">has stage</text>
</g>
<!-- QuestionnaireEntry -->
<g id="node18" class="node">
<title>QuestionnaireEntry</title>
<polygon fill="lightblue" stroke="black" points="59.33,-67.42 29.67,-67.42 29.67,-33.71 59.33,-33.71 59.33,-67.42"/>
<text text-anchor="middle" x="44.5" y="-46.86" font-family="Arial" font-size="14.00">Questionnaire Entry</text>
</g>
<!-- hasResponseItem -->
<g id="node31" class="node">
<title>hasResponseItem</title>
<polygon fill="lightyellow" stroke="black" points="93.94,-115.58 59.33,-115.58 59.33,-86.68 93.94,-86.68 93.94,-115.58"/>
<text text-anchor="middle" x="76.64" y="-97.43" font-family="Arial" font-size="14.00">has response item</text>
</g>
<!-- wasReportedBy -->
<g id="node39" class="node">
<title>wasReportedBy</title>
<polygon fill="lightyellow" stroke="black" points="128.55,-115.58 93.94,-115.58 93.94,-86.68 128.55,-86.68 128.55,-115.58"/>
<text text-anchor="middle" x="111.25" y="-97.43" font-family="Arial" font-size="14.00">was reported by</text>
</g>
<!-- ResponseItem -->
<g id="node19" class="node">
<title>ResponseItem</title>
<polygon fill="lightblue" stroke="black" points="59.33,-33.71 29.67,-33.71 29.67,0 59.33,0 59.33,-33.71"/>
<text text-anchor="middle" x="44.5" y="-13.15" font-family="Arial" font-size="14.00">Response Item</text>
</g>
<!-- answersQuestion -->
<g id="node25" class="node">
<title>answersQuestion</title>
<polygon fill="lightyellow" stroke="black" points="93.94,-173.36 59.33,-173.36 59.33,-144.47 93.94,-144.47 93.94,-173.36"/>
<text text-anchor="middle" x="76.64" y="-155.22" font-family="Arial" font-size="14.00">answers question</text>
</g>
<!-- ResponseFormat -->
<g id="node20" class="node">
<title>ResponseFormat</title>
<polygon fill="lightblue" stroke="black" points="93.94,-202.26 59.33,-202.26 59.33,-173.36 93.94,-173.36 93.94,-202.26"/>
<text text-anchor="middle" x="76.64" y="-184.11" font-family="Arial" font-size="14.00">Response Format</text>
</g>
<!-- Measurement -->
<g id="node21" class="node">
<title>Measurement</title>
<polygon fill="lightblue" stroke="black" points="128.55,-202.26 93.94,-202.26 93.94,-173.36 128.55,-173.36 128.55,-202.26"/>
<text text-anchor="middle" x="111.25" y="-184.11" font-family="Arial" font-size="14.00">Measurement</text>
</g>
<!-- observedProperty -->
<g id="node26" class="node">
<title>observedProperty</title>
<polygon fill="lightyellow" stroke="black" points="128.55,-173.36 93.94,-173.36 93.94,-144.47 128.55,-144.47 128.55,-173.36"/>
<text text-anchor="middle" x="111.25" y="-155.22" font-family="Arial" font-size="14.00">observedProperty</text>
</g>
<!-- featureOfInterest -->
<g id="node46" class="node">
<title>featureOfInterest</title>
<polygon fill="lightyellow" stroke="black" points="163.16,-86.68 128.55,-86.68 128.55,-57.79 163.16,-57.79 163.16,-86.68"/>
<text text-anchor="middle" x="145.85" y="-68.53" font-family="Arial" font-size="14.00">feature of interest</text>
</g>
<!-- quantityValue -->
<g id="node54" class="node">
<title>quantityValue</title>
<polygon fill="lightyellow" stroke="black" points="232.38,-28.9 197.77,-28.9 197.77,0 232.38,0 232.38,-28.9"/>
<text text-anchor="middle" x="215.07" y="-10.75" font-family="Arial" font-size="14.00">quantity value</text>
</g>
<!-- inScheme -->
<g id="node22" class="node">
<title>inScheme</title>
<polygon fill="lightyellow" stroke="black" points="163.16,-202.26 128.55,-202.26 128.55,-173.36 163.16,-173.36 163.16,-202.26"/>
<text text-anchor="middle" x="145.85" y="-184.11" font-family="Arial" font-size="14.00">inScheme</text>
</g>
<!-- related -->
<g id="node27" class="node">
<title>related</title>
<polygon fill="lightyellow" stroke="black" points="163.16,-173.36 128.55,-173.36 128.55,-144.47 163.16,-144.47 163.16,-173.36"/>
<text text-anchor="middle" x="145.85" y="-155.22" font-family="Arial" font-size="14.00">related</text>
</g>
<!-- wasAssociatedWith -->
<g id="node29" class="node">
<title>wasAssociatedWith</title>
<polygon fill="lightyellow" stroke="black" points="232.38,-173.36 197.77,-173.36 197.77,-144.47 232.38,-144.47 232.38,-173.36"/>
<text text-anchor="middle" x="215.07" y="-155.22" font-family="Arial" font-size="14.00">wasAssociatedWith</text>
</g>
<!-- broader -->
<g id="node30" class="node">
<title>broader</title>
<polygon fill="lightyellow" stroke="black" points="93.94,-144.47 59.33,-144.47 59.33,-115.58 93.94,-115.58 93.94,-144.47"/>
<text text-anchor="middle" x="76.64" y="-126.32" font-family="Arial" font-size="14.00">broader</text>
</g>
<!-- used -->
<g id="node48" class="node">
<title>used</title>
<polygon fill="lightyellow" stroke="black" points="163.16,-28.89 128.55,-28.89 128.55,0 163.16,0 163.16,-28.89"/>
<text text-anchor="middle" x="145.85" y="-10.75" font-family="Arial" font-size="14.00">used</text>
</g>
<!-- unit -->
<g id="node41" class="node">
<title>unit</title>
<polygon fill="lightyellow" stroke="black" points="128.55,-57.79 93.94,-57.79 93.94,-28.89 128.55,-28.89 128.55,-57.79"/>
<text text-anchor="middle" x="111.25" y="-39.64" font-family="Arial" font-size="14.00">unit</text>
</g>
<!-- hasTopConcept -->
<g id="node42" class="node">
<title>hasTopConcept</title>
<polygon fill="lightyellow" stroke="black" points="128.55,-28.89 93.94,-28.89 93.94,0 128.55,0 128.55,-28.89"/>
<text text-anchor="middle" x="111.25" y="-10.75" font-family="Arial" font-size="14.00">hasTopConcept</text>
</g>
<!-- hasFeatureOfInterest -->
<g id="node43" class="node">
<title>hasFeatureOfInterest</title>
<polygon fill="lightyellow" stroke="black" points="163.16,-115.58 128.55,-115.58 128.55,-86.68 163.16,-86.68 163.16,-115.58"/>
<text text-anchor="middle" x="145.85" y="-97.43" font-family="Arial" font-size="14.00">hasFeatureOfInterest</text>
</g>
<!-- topConceptOf -->
<g id="node45" class="node">
<title>topConceptOf</title>
<polygon fill="lightyellow" stroke="black" points="232.38,-115.58 197.77,-115.58 197.77,-86.68 232.38,-86.68 232.38,-115.58"/>
<text text-anchor="middle" x="215.07" y="-97.43" font-family="Arial" font-size="14.00">topConceptOf</text>
</g>
<!-- narrower -->
<g id="node53" class="node">
<title>narrower</title>
<polygon fill="lightyellow" stroke="black" points="232.38,-57.79 197.77,-57.79 197.77,-28.9 232.38,-28.9 232.38,-57.79"/>
<text text-anchor="middle" x="215.07" y="-39.64" font-family="Arial" font-size="14.00">narrower</text>
</g>
</g>
</svg>
