<?xml version="1.0" encoding="UTF-8" standalone="no"?>
<!DOCTYPE svg PUBLIC "-//W3C//DTD SVG 1.1//EN"
 "http://www.w3.org/Graphics/SVG/1.1/DTD/svg11.dtd">
<!-- Generated by graphviz version 2.43.0 (0)
 -->
<!-- Title: Object Properties Pages: 1 -->
<svg width="3388pt" height="1083pt"
 viewBox="0.00 0.00 3388.39 1083.48" xmlns="http://www.w3.org/2000/svg" xmlns:xlink="http://www.w3.org/1999/xlink">
<g id="graph0" class="graph" transform="scale(1 1) rotate(0) translate(4 1079.48)">
<title>Object Properties</title>
<polygon fill="white" stroke="transparent" points="-4,4 -4,-1079.48 3384.39,-1079.48 3384.39,4 -4,4"/>
<!-- inScheme -->
<g id="node1" class="node">
<title>inScheme</title>
<ellipse fill="lightgreen" stroke="black" cx="740.69" cy="-1056.48" rx="55.49" ry="18"/>
<text text-anchor="middle" x="740.69" y="-1052.78" font-family="Arial" font-size="14.00">inScheme</text>
</g>
<!-- infersPhenotype -->
<g id="node2" class="node">
<title>infersPhenotype</title>
<ellipse fill="lightgreen" stroke="black" cx="1053.69" cy="-383.87" rx="87.99" ry="18"/>
<text text-anchor="middle" x="1053.69" y="-380.17" font-family="Arial" font-size="14.00">infers phenotype</text>
</g>
<!-- DigitalPhenotype -->
<g id="node35" class="node">
<title>DigitalPhenotype</title>
<polygon fill="lightblue" stroke="black" points="1260.19,-274 1121.19,-274 1121.19,-238 1260.19,-238 1260.19,-274"/>
<text text-anchor="middle" x="1190.69" y="-252.3" font-family="Arial" font-size="14.00">Digital Phenotype</text>
</g>
<!-- infersPhenotype&#45;&gt;DigitalPhenotype -->
<g id="edge24" class="edge">
<title>infersPhenotype&#45;&gt;DigitalPhenotype</title>
<path fill="none" stroke="red" stroke-dasharray="1,5" d="M1071.89,-366.16C1095.6,-344.37 1137.25,-306.1 1164.4,-281.16"/>
<polygon fill="red" stroke="red" points="1166.99,-283.53 1171.99,-274.19 1162.26,-278.38 1166.99,-283.53"/>
<text text-anchor="middle" x="1144.69" y="-313" font-family="Arial" font-size="10.00">range</text>
</g>
<!-- requiresComputation -->
<g id="node3" class="node">
<title>requiresComputation</title>
<ellipse fill="lightgreen" stroke="black" cx="1256.69" cy="-673.48" rx="106.68" ry="18"/>
<text text-anchor="middle" x="1256.69" y="-669.78" font-family="Arial" font-size="14.00">requires computation</text>
</g>
<!-- Computation -->
<g id="node34" class="node">
<title>Computation</title>
<polygon fill="lightblue" stroke="black" points="1106.69,-529.74 1000.69,-529.74 1000.69,-493.74 1106.69,-493.74 1106.69,-529.74"/>
<text text-anchor="middle" x="1053.69" y="-508.04" font-family="Arial" font-size="14.00">Computation</text>
</g>
<!-- requiresComputation&#45;&gt;Computation -->
<g id="edge25" class="edge">
<title>requiresComputation&#45;&gt;Computation</title>
<path fill="none" stroke="red" stroke-dasharray="1,5" d="M1235.35,-655.69C1198.97,-627.06 1124.87,-568.75 1083.44,-536.14"/>
<polygon fill="red" stroke="red" points="1085.38,-533.22 1075.36,-529.79 1081.05,-538.72 1085.38,-533.22"/>
<text text-anchor="middle" x="1199.69" y="-590.11" font-family="Arial" font-size="10.00">range</text>
</g>
<!-- answersQuestion -->
<g id="node4" class="node">
<title>answersQuestion</title>
<ellipse fill="lightgreen" stroke="black" cx="2192.69" cy="-383.87" rx="90.18" ry="18"/>
<text text-anchor="middle" x="2192.69" y="-380.17" font-family="Arial" font-size="14.00">answers question</text>
</g>
<!-- Question -->
<g id="node38" class="node">
<title>Question</title>
<polygon fill="lightblue" stroke="black" points="2232.19,-274 2153.19,-274 2153.19,-238 2232.19,-238 2232.19,-274"/>
<text text-anchor="middle" x="2192.69" y="-252.3" font-family="Arial" font-size="14.00">Question</text>
</g>
<!-- answersQuestion&#45;&gt;Question -->
<g id="edge26" class="edge">
<title>answersQuestion&#45;&gt;Question</title>
<path fill="none" stroke="red" stroke-dasharray="1,5" d="M2192.69,-365.63C2192.69,-344.64 2192.69,-308.92 2192.69,-284.2"/>
<polygon fill="red" stroke="red" points="2196.19,-284.03 2192.69,-274.03 2189.19,-284.03 2196.19,-284.03"/>
<text text-anchor="middle" x="2206.69" y="-313" font-family="Arial" font-size="10.00">range</text>
</g>
<!-- observedProperty -->
<g id="node5" class="node">
<title>observedProperty</title>
<ellipse fill="lightgreen" stroke="black" cx="1411.69" cy="-383.87" rx="94.48" ry="18"/>
<text text-anchor="middle" x="1411.69" y="-380.17" font-family="Arial" font-size="14.00">observed property</text>
</g>
<!-- observedProperty&#45;&gt;observedProperty -->
<g id="edge52" class="edge">
<title>observedProperty&#45;&gt;observedProperty</title>
<path fill="none" stroke="darkgreen" d="M1482.17,-395.82C1524.29,-398.48 1563.94,-394.5 1563.94,-383.87 1563.94,-374.12 1530.53,-369.96 1492.46,-371.4"/>
<polygon fill="darkgreen" stroke="darkgreen" points="1491.98,-367.92 1482.17,-371.92 1492.33,-374.91 1491.98,-367.92"/>
<text text-anchor="middle" x="1598.94" y="-381.37" font-family="Arial" font-size="10.00">subPropertyOf</text>
</g>
<!-- related -->
<g id="node6" class="node">
<title>related</title>
<ellipse fill="lightgreen" stroke="black" cx="1439.69" cy="-1056.48" rx="42.49" ry="18"/>
<text text-anchor="middle" x="1439.69" y="-1052.78" font-family="Arial" font-size="14.00">related</text>
</g>
<!-- hasMeasurement -->
<g id="node7" class="node">
<title>hasMeasurement</title>
<ellipse fill="lightgreen" stroke="black" cx="1638.69" cy="-673.48" rx="92.08" ry="18"/>
<text text-anchor="middle" x="1638.69" y="-669.78" font-family="Arial" font-size="14.00">has measurement</text>
</g>
<!-- Measurement -->
<g id="node39" class="node">
<title>Measurement</title>
<polygon fill="lightblue" stroke="black" points="1764.19,-529.74 1653.19,-529.74 1653.19,-493.74 1764.19,-493.74 1764.19,-529.74"/>
<text text-anchor="middle" x="1708.69" y="-508.04" font-family="Arial" font-size="14.00">Measurement</text>
</g>
<!-- hasMeasurement&#45;&gt;Measurement -->
<g id="edge27" class="edge">
<title>hasMeasurement&#45;&gt;Measurement</title>
<path fill="none" stroke="red" stroke-dasharray="1,5" d="M1646.19,-655.39C1658.33,-627.67 1682.42,-572.7 1696.89,-539.68"/>
<polygon fill="red" stroke="red" points="1700.24,-540.76 1701.04,-530.2 1693.83,-537.95 1700.24,-540.76"/>
<text text-anchor="middle" x="1698.69" y="-590.11" font-family="Arial" font-size="10.00">range</text>
</g>
<!-- wasAssociatedWith -->
<g id="node8" class="node">
<title>wasAssociatedWith</title>
<ellipse fill="lightgreen" stroke="black" cx="899.69" cy="-256" rx="97.48" ry="18"/>
<text text-anchor="middle" x="899.69" y="-252.3" font-family="Arial" font-size="14.00">wasAssociatedWith</text>
</g>
<!-- broader -->
<g id="node9" class="node">
<title>broader</title>
<ellipse fill="lightgreen" stroke="black" cx="2174.69" cy="-1056.48" rx="46.29" ry="18"/>
<text text-anchor="middle" x="2174.69" y="-1052.78" font-family="Arial" font-size="14.00">broader</text>
</g>
<!-- hasResponseItem -->
<g id="node10" class="node">
<title>hasResponseItem</title>
<ellipse fill="lightgreen" stroke="black" cx="1886.69" cy="-673.48" rx="93.68" ry="18"/>
<text text-anchor="middle" x="1886.69" y="-669.78" font-family="Arial" font-size="14.00">has response item</text>
</g>
<!-- ResponseItem -->
<g id="node37" class="node">
<title>ResponseItem</title>
<polygon fill="lightblue" stroke="black" points="2007.19,-529.74 1888.19,-529.74 1888.19,-493.74 2007.19,-493.74 2007.19,-529.74"/>
<text text-anchor="middle" x="1947.69" y="-508.04" font-family="Arial" font-size="14.00">Response Item</text>
</g>
<!-- hasResponseItem&#45;&gt;ResponseItem -->
<g id="edge28" class="edge">
<title>hasResponseItem&#45;&gt;ResponseItem</title>
<path fill="none" stroke="red" stroke-dasharray="1,5" d="M1893.22,-655.39C1903.81,-627.67 1924.8,-572.7 1937.41,-539.68"/>
<polygon fill="red" stroke="red" points="1940.73,-540.79 1941.03,-530.2 1934.19,-538.29 1940.73,-540.79"/>
<text text-anchor="middle" x="1940.69" y="-590.11" font-family="Arial" font-size="10.00">range</text>
</g>
<!-- wasDerivedFrom -->
<g id="node11" class="node">
<title>wasDerivedFrom</title>
<ellipse fill="lightgreen" stroke="black" cx="746.69" cy="-936.48" rx="85.29" ry="18"/>
<text text-anchor="middle" x="746.69" y="-932.78" font-family="Arial" font-size="14.00">wasDerivedFrom</text>
</g>
<!-- wasDerivedFrom&#45;&gt;wasDerivedFrom -->
<g id="edge45" class="edge">
<title>wasDerivedFrom&#45;&gt;wasDerivedFrom</title>
<path fill="none" stroke="darkgreen" d="M816.29,-946.85C854.63,-948.75 889.84,-945.29 889.84,-936.48 889.84,-928.46 860.67,-924.88 826.52,-925.73"/>
<polygon fill="darkgreen" stroke="darkgreen" points="826.15,-922.24 816.29,-926.11 826.41,-929.23 826.15,-922.24"/>
<text text-anchor="middle" x="924.84" y="-933.98" font-family="Arial" font-size="10.00">subPropertyOf</text>
</g>
<!-- Thing -->
<g id="node42" class="node">
<title>Thing</title>
<polygon fill="lightblue" stroke="black" points="615.69,-810.48 559.69,-810.48 559.69,-774.48 615.69,-774.48 615.69,-810.48"/>
<text text-anchor="middle" x="587.69" y="-788.78" font-family="Arial" font-size="14.00">Thing</text>
</g>
<!-- wasDerivedFrom&#45;&gt;Thing -->
<g id="edge29" class="edge">
<title>wasDerivedFrom&#45;&gt;Thing</title>
<path fill="none" stroke="red" stroke-dasharray="1,5" d="M727.83,-918.63C699.77,-893.57 646.9,-846.36 614.73,-817.63"/>
<polygon fill="red" stroke="red" points="616.82,-814.8 607.03,-810.75 612.16,-820.02 616.82,-814.8"/>
<text text-anchor="middle" x="700.69" y="-861.98" font-family="Arial" font-size="10.00">range</text>
</g>
<!-- wasGeneratedBy -->
<g id="node12" class="node">
<title>wasGeneratedBy</title>
<ellipse fill="lightgreen" stroke="black" cx="276.69" cy="-673.48" rx="91.78" ry="18"/>
<text text-anchor="middle" x="276.69" y="-669.78" font-family="Arial" font-size="14.00">was generated by</text>
</g>
<!-- wasGeneratedBy&#45;&gt;wasGeneratedBy -->
<g id="edge47" class="edge">
<title>wasGeneratedBy&#45;&gt;wasGeneratedBy</title>
<path fill="none" stroke="darkgreen" d="M351.38,-683.94C390.7,-685.63 426.34,-682.15 426.34,-673.48 426.34,-665.56 396.56,-661.97 361.42,-662.7"/>
<polygon fill="darkgreen" stroke="darkgreen" points="361.26,-659.2 351.38,-663.02 361.49,-666.2 361.26,-659.2"/>
<text text-anchor="middle" x="461.34" y="-670.98" font-family="Arial" font-size="10.00">subPropertyOf</text>
</g>
<!-- wasGeneratedBy&#45;&gt;Computation -->
<g id="edge36" class="edge">
<title>wasGeneratedBy&#45;&gt;Computation</title>
<path fill="none" stroke="red" stroke-dasharray="1,5" d="M280.08,-655.31C285.92,-630.8 300.39,-586.43 331.69,-565.74 358.99,-547.7 819.64,-523.94 990.55,-515.7"/>
<polygon fill="red" stroke="red" points="990.83,-519.19 1000.65,-515.22 990.5,-512.2 990.83,-519.19"/>
<text text-anchor="middle" x="345.69" y="-590.11" font-family="Arial" font-size="10.00">range</text>
</g>
<!-- usedDataInterface -->
<g id="node13" class="node">
<title>usedDataInterface</title>
<ellipse fill="lightgreen" stroke="black" cx="2610.69" cy="-673.48" rx="98.58" ry="18"/>
<text text-anchor="middle" x="2610.69" y="-669.78" font-family="Arial" font-size="14.00">used data interface</text>
</g>
<!-- DataInterface -->
<g id="node44" class="node">
<title>DataInterface</title>
<polygon fill="lightblue" stroke="black" points="2668.69,-529.74 2552.69,-529.74 2552.69,-493.74 2668.69,-493.74 2668.69,-529.74"/>
<text text-anchor="middle" x="2610.69" y="-508.04" font-family="Arial" font-size="14.00">Data Interface</text>
</g>
<!-- usedDataInterface&#45;&gt;DataInterface -->
<g id="edge30" class="edge">
<title>usedDataInterface&#45;&gt;DataInterface</title>
<path fill="none" stroke="red" stroke-dasharray="1,5" d="M2610.69,-655.39C2610.69,-627.91 2610.69,-573.65 2610.69,-540.54"/>
<polygon fill="red" stroke="red" points="2614.19,-540.2 2610.69,-530.2 2607.19,-540.2 2614.19,-540.2"/>
<text text-anchor="middle" x="2624.69" y="-590.11" font-family="Arial" font-size="10.00">range</text>
</g>
<!-- hasContext -->
<g id="node14" class="node">
<title>hasContext</title>
<ellipse fill="lightgreen" stroke="black" cx="63.69" cy="-673.48" rx="63.89" ry="18"/>
<text text-anchor="middle" x="63.69" y="-669.78" font-family="Arial" font-size="14.00">has context</text>
</g>
<!-- ObservationContext -->
<g id="node45" class="node">
<title>ObservationContext</title>
<polygon fill="lightblue" stroke="black" points="203.69,-529.74 43.69,-529.74 43.69,-493.74 203.69,-493.74 203.69,-529.74"/>
<text text-anchor="middle" x="123.69" y="-508.04" font-family="Arial" font-size="14.00">Observation Context</text>
</g>
<!-- hasContext&#45;&gt;ObservationContext -->
<g id="edge31" class="edge">
<title>hasContext&#45;&gt;ObservationContext</title>
<path fill="none" stroke="red" stroke-dasharray="1,5" d="M70.12,-655.39C80.53,-627.67 101.17,-572.7 113.57,-539.68"/>
<polygon fill="red" stroke="red" points="116.9,-540.79 117.14,-530.2 110.34,-538.33 116.9,-540.79"/>
<text text-anchor="middle" x="116.69" y="-590.11" font-family="Arial" font-size="10.00">range</text>
</g>
<!-- usedAppInterface -->
<g id="node15" class="node">
<title>usedAppInterface</title>
<ellipse fill="lightgreen" stroke="black" cx="357.69" cy="-383.87" rx="95.58" ry="18"/>
<text text-anchor="middle" x="357.69" y="-380.17" font-family="Arial" font-size="14.00">used app interface</text>
</g>
<!-- used -->
<g id="node27" class="node">
<title>used</title>
<ellipse fill="lightgreen" stroke="black" cx="540.69" cy="-256" rx="32.49" ry="18"/>
<text text-anchor="middle" x="540.69" y="-252.3" font-family="Arial" font-size="14.00">used</text>
</g>
<!-- usedAppInterface&#45;&gt;used -->
<g id="edge46" class="edge">
<title>usedAppInterface&#45;&gt;used</title>
<path fill="none" stroke="darkgreen" d="M381.62,-366.41C415.29,-343.25 476.55,-301.12 512.42,-276.44"/>
<polygon fill="darkgreen" stroke="darkgreen" points="514.71,-279.12 520.97,-270.57 510.74,-273.35 514.71,-279.12"/>
<text text-anchor="middle" x="495.69" y="-313" font-family="Arial" font-size="10.00">subPropertyOf</text>
</g>
<!-- AppInterface -->
<g id="node47" class="node">
<title>AppInterface</title>
<polygon fill="lightblue" stroke="black" points="411.19,-274 300.19,-274 300.19,-238 411.19,-238 411.19,-274"/>
<text text-anchor="middle" x="355.69" y="-252.3" font-family="Arial" font-size="14.00">App Interface</text>
</g>
<!-- usedAppInterface&#45;&gt;AppInterface -->
<g id="edge32" class="edge">
<title>usedAppInterface&#45;&gt;AppInterface</title>
<path fill="none" stroke="red" stroke-dasharray="1,5" d="M352.84,-365.87C349.19,-351.14 345.07,-329.25 346.69,-310 347.41,-301.5 348.76,-292.31 350.21,-284.01"/>
<polygon fill="red" stroke="red" points="353.66,-284.56 352.04,-274.09 346.78,-283.29 353.66,-284.56"/>
<text text-anchor="middle" x="360.69" y="-313" font-family="Arial" font-size="10.00">range</text>
</g>
<!-- hasStage -->
<g id="node16" class="node">
<title>hasStage</title>
<ellipse fill="lightgreen" stroke="black" cx="2628.69" cy="-936.48" rx="54.69" ry="18"/>
<text text-anchor="middle" x="2628.69" y="-932.78" font-family="Arial" font-size="14.00">has stage</text>
</g>
<!-- SleepStage -->
<g id="node49" class="node">
<title>SleepStage</title>
<polygon fill="lightblue" stroke="black" points="2676.19,-810.48 2581.19,-810.48 2581.19,-774.48 2676.19,-774.48 2676.19,-810.48"/>
<text text-anchor="middle" x="2628.69" y="-788.78" font-family="Arial" font-size="14.00">SleepStage</text>
</g>
<!-- hasStage&#45;&gt;SleepStage -->
<g id="edge33" class="edge">
<title>hasStage&#45;&gt;SleepStage</title>
<path fill="none" stroke="red" stroke-dasharray="1,5" d="M2628.69,-918.35C2628.69,-894.15 2628.69,-849.69 2628.69,-820.87"/>
<polygon fill="red" stroke="red" points="2632.19,-820.67 2628.69,-810.67 2625.19,-820.67 2632.19,-820.67"/>
<text text-anchor="middle" x="2642.69" y="-861.98" font-family="Arial" font-size="10.00">range</text>
</g>
<!-- hasResponseFormat -->
<g id="node17" class="node">
<title>hasResponseFormat</title>
<ellipse fill="lightgreen" stroke="black" cx="2192.69" cy="-137" rx="103.18" ry="18"/>
<text text-anchor="middle" x="2192.69" y="-133.3" font-family="Arial" font-size="14.00">has response format</text>
</g>
<!-- ResponseFormat -->
<g id="node50" class="node">
<title>ResponseFormat</title>
<polygon fill="lightblue" stroke="black" points="2260.69,-36 2124.69,-36 2124.69,0 2260.69,0 2260.69,-36"/>
<text text-anchor="middle" x="2192.69" y="-14.3" font-family="Arial" font-size="14.00">Response Format</text>
</g>
<!-- hasResponseFormat&#45;&gt;ResponseFormat -->
<g id="edge34" class="edge">
<title>hasResponseFormat&#45;&gt;ResponseFormat</title>
<path fill="none" stroke="red" stroke-dasharray="1,5" d="M2192.69,-118.99C2192.69,-99.92 2192.69,-68.75 2192.69,-46.28"/>
<polygon fill="red" stroke="red" points="2196.19,-46.03 2192.69,-36.03 2189.19,-46.03 2196.19,-46.03"/>
<text text-anchor="middle" x="2206.69" y="-75" font-family="Arial" font-size="10.00">range</text>
</g>
<!-- wasReportedBy -->
<g id="node18" class="node">
<title>wasReportedBy</title>
<ellipse fill="lightgreen" stroke="black" cx="2121.69" cy="-673.48" rx="83.69" ry="18"/>
<text text-anchor="middle" x="2121.69" y="-669.78" font-family="Arial" font-size="14.00">was reported by</text>
</g>
<!-- Participant -->
<g id="node51" class="node">
<title>Participant</title>
<polygon fill="lightblue" stroke="black" points="2166.69,-529.74 2076.69,-529.74 2076.69,-493.74 2166.69,-493.74 2166.69,-529.74"/>
<text text-anchor="middle" x="2121.69" y="-508.04" font-family="Arial" font-size="14.00">Participant</text>
</g>
<!-- wasReportedBy&#45;&gt;Participant -->
<g id="edge35" class="edge">
<title>wasReportedBy&#45;&gt;Participant</title>
<path fill="none" stroke="red" stroke-dasharray="1,5" d="M2121.69,-655.39C2121.69,-627.91 2121.69,-573.65 2121.69,-540.54"/>
<polygon fill="red" stroke="red" points="2125.19,-540.2 2121.69,-530.2 2118.19,-540.2 2125.19,-540.2"/>
<text text-anchor="middle" x="2135.69" y="-590.11" font-family="Arial" font-size="10.00">range</text>
</g>
<!-- associatedWithDevice -->
<g id="node19" class="node">
<title>associatedWithDevice</title>
<ellipse fill="lightgreen" stroke="black" cx="821.69" cy="-383.87" rx="86.03" ry="26.74"/>
<text text-anchor="middle" x="821.69" y="-387.67" font-family="Arial" font-size="14.00">was associated</text>
<text text-anchor="middle" x="821.69" y="-372.67" font-family="Arial" font-size="14.00">with device</text>
</g>
<!-- associatedWithDevice&#45;&gt;wasAssociatedWith -->
<g id="edge48" class="edge">
<title>associatedWithDevice&#45;&gt;wasAssociatedWith</title>
<path fill="none" stroke="darkgreen" d="M837.48,-357.4C850.96,-335.65 870.25,-304.52 883.77,-282.7"/>
<polygon fill="darkgreen" stroke="darkgreen" points="886.88,-284.32 889.17,-273.98 880.93,-280.64 886.88,-284.32"/>
<text text-anchor="middle" x="900.69" y="-313" font-family="Arial" font-size="10.00">subPropertyOf</text>
</g>
<!-- Device -->
<g id="node52" class="node">
<title>Device</title>
<polygon fill="lightblue" stroke="black" points="744.19,-274 681.19,-274 681.19,-238 744.19,-238 744.19,-274"/>
<text text-anchor="middle" x="712.69" y="-252.3" font-family="Arial" font-size="14.00">Device</text>
</g>
<!-- associatedWithDevice&#45;&gt;Device -->
<g id="edge37" class="edge">
<title>associatedWithDevice&#45;&gt;Device</title>
<path fill="none" stroke="red" stroke-dasharray="1,5" d="M799.9,-357.7C780.75,-335.59 753.06,-303.62 734.05,-281.66"/>
<polygon fill="red" stroke="red" points="736.66,-279.33 727.47,-274.06 731.37,-283.92 736.66,-279.33"/>
<text text-anchor="middle" x="781.69" y="-313" font-family="Arial" font-size="10.00">range</text>
</g>
<!-- unit -->
<g id="node20" class="node">
<title>unit</title>
<ellipse fill="lightgreen" stroke="black" cx="2770.69" cy="-1056.48" rx="28.7" ry="18"/>
<text text-anchor="middle" x="2770.69" y="-1052.78" font-family="Arial" font-size="14.00">unit</text>
</g>
<!-- hasTopConcept -->
<g id="node21" class="node">
<title>hasTopConcept</title>
<ellipse fill="lightgreen" stroke="black" cx="2936.69" cy="-1056.48" rx="79.09" ry="18"/>
<text text-anchor="middle" x="2936.69" y="-1052.78" font-family="Arial" font-size="14.00">hasTopConcept</text>
</g>
<!-- hasFeatureOfInterest -->
<g id="node22" class="node">
<title>hasFeatureOfInterest</title>
<ellipse fill="lightgreen" stroke="black" cx="1743.69" cy="-256" rx="105.88" ry="18"/>
<text text-anchor="middle" x="1743.69" y="-252.3" font-family="Arial" font-size="14.00">hasFeatureOfInterest</text>
</g>
<!-- wasCollectedFrom -->
<g id="node23" class="node">
<title>wasCollectedFrom</title>
<ellipse fill="lightgreen" stroke="black" cx="2358.69" cy="-673.48" rx="94.78" ry="18"/>
<text text-anchor="middle" x="2358.69" y="-669.78" font-family="Arial" font-size="14.00">was collected from</text>
</g>
<!-- wasCollectedFrom&#45;&gt;Participant -->
<g id="edge38" class="edge">
<title>wasCollectedFrom&#45;&gt;Participant</title>
<path fill="none" stroke="red" stroke-dasharray="1,5" d="M2334.22,-655.99C2291.69,-627.32 2204.06,-568.25 2155.66,-535.64"/>
<polygon fill="red" stroke="red" points="2157.35,-532.55 2147.1,-529.87 2153.44,-538.36 2157.35,-532.55"/>
<text text-anchor="middle" x="2289.69" y="-590.11" font-family="Arial" font-size="10.00">range</text>
</g>
<!-- topConceptOf -->
<g id="node24" class="node">
<title>topConceptOf</title>
<ellipse fill="lightgreen" stroke="black" cx="3147.69" cy="-1056.48" rx="73.39" ry="18"/>
<text text-anchor="middle" x="3147.69" y="-1052.78" font-family="Arial" font-size="14.00">topConceptOf</text>
</g>
<!-- featureOfInterest -->
<g id="node25" class="node">
<title>featureOfInterest</title>
<ellipse fill="lightgreen" stroke="black" cx="1743.69" cy="-383.87" rx="91.78" ry="18"/>
<text text-anchor="middle" x="1743.69" y="-380.17" font-family="Arial" font-size="14.00">feature of interest</text>
</g>
<!-- featureOfInterest&#45;&gt;hasFeatureOfInterest -->
<g id="edge49" class="edge">
<title>featureOfInterest&#45;&gt;hasFeatureOfInterest</title>
<path fill="none" stroke="darkgreen" d="M1743.69,-365.63C1743.69,-344.64 1743.69,-308.92 1743.69,-284.2"/>
<polygon fill="darkgreen" stroke="darkgreen" points="1747.19,-284.03 1743.69,-274.03 1740.19,-284.03 1747.19,-284.03"/>
<text text-anchor="middle" x="1778.69" y="-313" font-family="Arial" font-size="10.00">subPropertyOf</text>
</g>
<!-- supportsInferenceOf -->
<g id="node26" class="node">
<title>supportsInferenceOf</title>
<ellipse fill="lightgreen" stroke="black" cx="1402.69" cy="-592.61" rx="70.01" ry="26.74"/>
<text text-anchor="middle" x="1402.69" y="-596.41" font-family="Arial" font-size="14.00">supports</text>
<text text-anchor="middle" x="1402.69" y="-581.41" font-family="Arial" font-size="14.00">inference of</text>
</g>
<!-- supportsInferenceOf&#45;&gt;DigitalPhenotype -->
<g id="edge39" class="edge">
<title>supportsInferenceOf&#45;&gt;DigitalPhenotype</title>
<path fill="none" stroke="red" stroke-dasharray="1,5" d="M1386.59,-566.19C1347.26,-504.12 1246.68,-345.36 1207.07,-282.85"/>
<polygon fill="red" stroke="red" points="1210,-280.92 1201.69,-274.35 1204.08,-284.67 1210,-280.92"/>
<text text-anchor="middle" x="1331.69" y="-449.74" font-family="Arial" font-size="10.00">range</text>
</g>
<!-- usedDevice -->
<g id="node28" class="node">
<title>usedDevice</title>
<ellipse fill="lightgreen" stroke="black" cx="595.69" cy="-383.87" rx="64.99" ry="18"/>
<text text-anchor="middle" x="595.69" y="-380.17" font-family="Arial" font-size="14.00">used device</text>
</g>
<!-- usedDevice&#45;&gt;used -->
<g id="edge50" class="edge">
<title>usedDevice&#45;&gt;used</title>
<path fill="none" stroke="darkgreen" d="M588.28,-365.89C578.96,-344.57 562.87,-307.76 552.01,-282.91"/>
<polygon fill="darkgreen" stroke="darkgreen" points="555.21,-281.47 547.99,-273.71 548.79,-284.27 555.21,-281.47"/>
<text text-anchor="middle" x="603.69" y="-313" font-family="Arial" font-size="10.00">subPropertyOf</text>
</g>
<!-- usedDevice&#45;&gt;Device -->
<g id="edge40" class="edge">
<title>usedDevice&#45;&gt;Device</title>
<path fill="none" stroke="red" stroke-dasharray="1,5" d="M611.23,-366.16C631.31,-344.55 666.44,-306.76 689.64,-281.8"/>
<polygon fill="red" stroke="red" points="692.47,-283.89 696.72,-274.19 687.35,-279.13 692.47,-283.89"/>
<text text-anchor="middle" x="675.69" y="-313" font-family="Arial" font-size="10.00">range</text>
</g>
<!-- wasComputedBy -->
<g id="node29" class="node">
<title>wasComputedBy</title>
<ellipse fill="lightgreen" stroke="black" cx="1034.69" cy="-864.48" rx="90.98" ry="18"/>
<text text-anchor="middle" x="1034.69" y="-860.78" font-family="Arial" font-size="14.00">was computed by</text>
</g>
<!-- wasComputedBy&#45;&gt;Computation -->
<g id="edge41" class="edge">
<title>wasComputedBy&#45;&gt;Computation</title>
<path fill="none" stroke="red" stroke-dasharray="1,5" d="M1035.64,-846.09C1038.71,-789.27 1048.49,-608.86 1052.22,-539.9"/>
<polygon fill="red" stroke="red" points="1055.72,-540 1052.77,-529.82 1048.73,-539.62 1055.72,-540"/>
<text text-anchor="middle" x="1056.69" y="-730.48" font-family="Arial" font-size="10.00">range</text>
</g>
<!-- wasAttributedTo -->
<g id="node30" class="node">
<title>wasAttributedTo</title>
<ellipse fill="lightgreen" stroke="black" cx="802.69" cy="-673.48" rx="83.39" ry="18"/>
<text text-anchor="middle" x="802.69" y="-669.78" font-family="Arial" font-size="14.00">wasAttributedTo</text>
</g>
<!-- wasAttributedTo&#45;&gt;wasAttributedTo -->
<g id="edge51" class="edge">
<title>wasAttributedTo&#45;&gt;wasAttributedTo</title>
<path fill="none" stroke="darkgreen" d="M870.98,-683.83C908.93,-685.77 943.89,-682.32 943.89,-673.48 943.89,-665.44 914.93,-661.86 881.11,-662.74"/>
<polygon fill="darkgreen" stroke="darkgreen" points="880.83,-659.24 870.98,-663.13 881.1,-666.24 880.83,-659.24"/>
<text text-anchor="middle" x="978.89" y="-670.98" font-family="Arial" font-size="10.00">subPropertyOf</text>
</g>
<!-- wasAttributedTo&#45;&gt;Participant -->
<g id="edge42" class="edge">
<title>wasAttributedTo&#45;&gt;Participant</title>
<path fill="none" stroke="red" stroke-dasharray="1,5" d="M834.13,-656.64C885.03,-631.89 989.34,-584.91 1083.69,-565.74 1498.63,-481.45 1615.15,-578.95 2035.69,-529.74 2045.67,-528.57 2056.22,-526.88 2066.38,-525"/>
<polygon fill="red" stroke="red" points="2067.22,-528.41 2076.38,-523.08 2065.9,-521.53 2067.22,-528.41"/>
<text text-anchor="middle" x="1097.69" y="-590.11" font-family="Arial" font-size="10.00">range</text>
</g>
<!-- occursDuring -->
<g id="node31" class="node">
<title>occursDuring</title>
<ellipse fill="lightgreen" stroke="black" cx="587.69" cy="-673.48" rx="73.39" ry="18"/>
<text text-anchor="middle" x="587.69" y="-669.78" font-family="Arial" font-size="14.00">occurs during</text>
</g>
<!-- occursDuring&#45;&gt;ObservationContext -->
<g id="edge43" class="edge">
<title>occursDuring&#45;&gt;ObservationContext</title>
<path fill="none" stroke="red" stroke-dasharray="1,5" d="M561.3,-656.55C521.82,-633.37 444.45,-590.43 373.69,-565.74 322.07,-547.72 262.22,-534.77 214.02,-526.18"/>
<polygon fill="red" stroke="red" points="214.37,-522.69 203.92,-524.42 213.17,-529.59 214.37,-522.69"/>
<text text-anchor="middle" x="506.69" y="-590.11" font-family="Arial" font-size="10.00">range</text>
</g>
<!-- narrower -->
<g id="node32" class="node">
<title>narrower</title>
<ellipse fill="lightgreen" stroke="black" cx="3329.69" cy="-1056.48" rx="50.89" ry="18"/>
<text text-anchor="middle" x="3329.69" y="-1052.78" font-family="Arial" font-size="14.00">narrower</text>
</g>
<!-- quantityValue -->
<g id="node33" class="node">
<title>quantityValue</title>
<ellipse fill="lightgreen" stroke="black" cx="1968.69" cy="-383.87" rx="75.29" ry="18"/>
<text text-anchor="middle" x="1968.69" y="-380.17" font-family="Arial" font-size="14.00">quantity value</text>
</g>
<!-- QuantityValue -->
<g id="node54" class="node">
<title>QuantityValue</title>
<polygon fill="lightblue" stroke="black" points="2025.69,-274 1911.69,-274 1911.69,-238 2025.69,-238 2025.69,-274"/>
<text text-anchor="middle" x="1968.69" y="-252.3" font-family="Arial" font-size="14.00">QuantityValue</text>
</g>
<!-- quantityValue&#45;&gt;QuantityValue -->
<g id="edge44" class="edge">
<title>quantityValue&#45;&gt;QuantityValue</title>
<path fill="none" stroke="red" stroke-dasharray="1,5" d="M1968.69,-365.63C1968.69,-344.64 1968.69,-308.92 1968.69,-284.2"/>
<polygon fill="red" stroke="red" points="1972.19,-284.03 1968.69,-274.03 1965.19,-284.03 1972.19,-284.03"/>
<text text-anchor="middle" x="1982.69" y="-313" font-family="Arial" font-size="10.00">range</text>
</g>
<!-- Computation&#45;&gt;infersPhenotype -->
<g id="edge1" class="edge">
<title>Computation&#45;&gt;infersPhenotype</title>
<path fill="none" stroke="blue" stroke-dasharray="5,2" d="M1053.69,-493.5C1053.69,-472.51 1053.69,-436.79 1053.69,-412.07"/>
<polygon fill="blue" stroke="blue" points="1057.19,-411.9 1053.69,-401.9 1050.19,-411.9 1057.19,-411.9"/>
<text text-anchor="middle" x="1072.19" y="-449.74" font-family="Arial" font-size="10.00">domain</text>
</g>
<!-- Computation&#45;&gt;associatedWithDevice -->
<g id="edge14" class="edge">
<title>Computation&#45;&gt;associatedWithDevice</title>
<path fill="none" stroke="blue" stroke-dasharray="5,2" d="M1021.92,-493.5C983.3,-472.55 917.64,-436.92 872.09,-412.21"/>
<polygon fill="blue" stroke="blue" points="873.72,-409.11 863.26,-407.42 870.38,-415.27 873.72,-409.11"/>
<text text-anchor="middle" x="970.19" y="-449.74" font-family="Arial" font-size="10.00">domain</text>
</g>
<!-- Feature -->
<g id="node36" class="node">
<title>Feature</title>
<polygon fill="lightblue" stroke="black" points="1485.69,-810.48 1417.69,-810.48 1417.69,-774.48 1485.69,-774.48 1485.69,-810.48"/>
<text text-anchor="middle" x="1451.69" y="-788.78" font-family="Arial" font-size="14.00">Feature</text>
</g>
<!-- Feature&#45;&gt;requiresComputation -->
<g id="edge2" class="edge">
<title>Feature&#45;&gt;requiresComputation</title>
<path fill="none" stroke="blue" stroke-dasharray="5,2" d="M1417.44,-776.82C1395.52,-766.96 1366.79,-753.13 1342.69,-738.48 1322.65,-726.3 1301.5,-710.6 1285.19,-697.8"/>
<polygon fill="blue" stroke="blue" points="1287.14,-694.88 1277.13,-691.4 1282.79,-700.36 1287.14,-694.88"/>
<text text-anchor="middle" x="1361.19" y="-730.48" font-family="Arial" font-size="10.00">domain</text>
</g>
<!-- Feature&#45;&gt;hasMeasurement -->
<g id="edge4" class="edge">
<title>Feature&#45;&gt;hasMeasurement</title>
<path fill="none" stroke="blue" stroke-dasharray="5,2" d="M1478.89,-774.47C1511.94,-753.78 1567.78,-718.85 1603.94,-696.23"/>
<polygon fill="blue" stroke="blue" points="1606.05,-699.03 1612.68,-690.76 1602.34,-693.1 1606.05,-699.03"/>
<text text-anchor="middle" x="1570.19" y="-730.48" font-family="Arial" font-size="10.00">domain</text>
</g>
<!-- Feature&#45;&gt;supportsInferenceOf -->
<g id="edge17" class="edge">
<title>Feature&#45;&gt;supportsInferenceOf</title>
<path fill="none" stroke="blue" stroke-dasharray="5,2" d="M1447.43,-774.27C1439.46,-742.06 1422.13,-672.09 1411.53,-629.3"/>
<polygon fill="blue" stroke="blue" points="1414.92,-628.43 1409.12,-619.56 1408.13,-630.11 1414.92,-628.43"/>
<text text-anchor="middle" x="1457.19" y="-730.48" font-family="Arial" font-size="10.00">domain</text>
</g>
<!-- ResponseItem&#45;&gt;answersQuestion -->
<g id="edge3" class="edge">
<title>ResponseItem&#45;&gt;answersQuestion</title>
<path fill="none" stroke="blue" stroke-dasharray="5,2" d="M1980.99,-493.63C2025.52,-470.76 2104.38,-430.24 2152.26,-405.64"/>
<polygon fill="blue" stroke="blue" points="2154.11,-408.63 2161.41,-400.94 2150.91,-402.4 2154.11,-408.63"/>
<text text-anchor="middle" x="2089.19" y="-449.74" font-family="Arial" font-size="10.00">domain</text>
</g>
<!-- Question&#45;&gt;hasResponseFormat -->
<g id="edge11" class="edge">
<title>Question&#45;&gt;hasResponseFormat</title>
<path fill="none" stroke="blue" stroke-dasharray="5,2" d="M2192.69,-237.99C2192.69,-218.92 2192.69,-187.75 2192.69,-165.28"/>
<polygon fill="blue" stroke="blue" points="2196.19,-165.03 2192.69,-155.03 2189.19,-165.03 2196.19,-165.03"/>
<text text-anchor="middle" x="2211.19" y="-194" font-family="Arial" font-size="10.00">domain</text>
</g>
<!-- Measurement&#45;&gt;observedProperty -->
<g id="edge22" class="edge">
<title>Measurement&#45;&gt;observedProperty</title>
<path fill="none" stroke="blue" stroke-dasharray="5,2" d="M1668.33,-493.63C1613.49,-470.39 1515.69,-428.94 1457.95,-404.47"/>
<polygon fill="blue" stroke="blue" points="1459.27,-401.23 1448.7,-400.55 1456.54,-407.68 1459.27,-401.23"/>
<text text-anchor="middle" x="1597.19" y="-449.74" font-family="Arial" font-size="10.00">domain</text>
</g>
<!-- Measurement&#45;&gt;featureOfInterest -->
<g id="edge16" class="edge">
<title>Measurement&#45;&gt;featureOfInterest</title>
<path fill="none" stroke="blue" stroke-dasharray="5,2" d="M1713.49,-493.5C1719.35,-472.41 1729.35,-436.46 1736.22,-411.74"/>
<polygon fill="blue" stroke="blue" points="1739.65,-412.47 1738.96,-401.9 1732.91,-410.6 1739.65,-412.47"/>
<text text-anchor="middle" x="1745.19" y="-449.74" font-family="Arial" font-size="10.00">domain</text>
</g>
<!-- Measurement&#45;&gt;quantityValue -->
<g id="edge23" class="edge">
<title>Measurement&#45;&gt;quantityValue</title>
<path fill="none" stroke="blue" stroke-dasharray="5,2" d="M1744.03,-493.63C1791.87,-470.47 1877.07,-429.23 1927.67,-404.73"/>
<polygon fill="blue" stroke="blue" points="1929.23,-407.86 1936.7,-400.36 1926.18,-401.56 1929.23,-407.86"/>
<text text-anchor="middle" x="1857.19" y="-449.74" font-family="Arial" font-size="10.00">domain</text>
</g>
<!-- QuestionnaireEntry -->
<g id="node40" class="node">
<title>QuestionnaireEntry</title>
<polygon fill="lightblue" stroke="black" points="2082.19,-810.48 1927.19,-810.48 1927.19,-774.48 2082.19,-774.48 2082.19,-810.48"/>
<text text-anchor="middle" x="2004.69" y="-788.78" font-family="Arial" font-size="14.00">Questionnaire Entry</text>
</g>
<!-- QuestionnaireEntry&#45;&gt;hasResponseItem -->
<g id="edge5" class="edge">
<title>QuestionnaireEntry&#45;&gt;hasResponseItem</title>
<path fill="none" stroke="blue" stroke-dasharray="5,2" d="M1987.54,-774.47C1967.44,-754.54 1933.99,-721.37 1911.17,-698.75"/>
<polygon fill="blue" stroke="blue" points="1913.44,-696.07 1903.87,-691.51 1908.51,-701.04 1913.44,-696.07"/>
<text text-anchor="middle" x="1968.19" y="-730.48" font-family="Arial" font-size="10.00">domain</text>
</g>
<!-- QuestionnaireEntry&#45;&gt;wasReportedBy -->
<g id="edge12" class="edge">
<title>QuestionnaireEntry&#45;&gt;wasReportedBy</title>
<path fill="none" stroke="blue" stroke-dasharray="5,2" d="M2021.71,-774.47C2041.75,-754.42 2075.18,-720.99 2097.81,-698.36"/>
<polygon fill="blue" stroke="blue" points="2100.44,-700.68 2105.04,-691.13 2095.49,-695.73 2100.44,-700.68"/>
<text text-anchor="middle" x="2086.19" y="-730.48" font-family="Arial" font-size="10.00">domain</text>
</g>
<!-- DerivedFeature -->
<g id="node41" class="node">
<title>DerivedFeature</title>
<polygon fill="lightblue" stroke="black" points="981.19,-1074.48 854.19,-1074.48 854.19,-1038.48 981.19,-1038.48 981.19,-1074.48"/>
<text text-anchor="middle" x="917.69" y="-1052.78" font-family="Arial" font-size="14.00">Derived Feature</text>
</g>
<!-- DerivedFeature&#45;&gt;wasDerivedFrom -->
<g id="edge6" class="edge">
<title>DerivedFeature&#45;&gt;wasDerivedFrom</title>
<path fill="none" stroke="blue" stroke-dasharray="5,2" d="M892.83,-1038.32C862.73,-1017.55 811.97,-982.52 778.9,-959.7"/>
<polygon fill="blue" stroke="blue" points="780.71,-956.7 770.49,-953.9 776.73,-962.46 780.71,-956.7"/>
<text text-anchor="middle" x="856.19" y="-993.48" font-family="Arial" font-size="10.00">domain</text>
</g>
<!-- DerivedFeature&#45;&gt;wasComputedBy -->
<g id="edge19" class="edge">
<title>DerivedFeature&#45;&gt;wasComputedBy</title>
<path fill="none" stroke="blue" stroke-dasharray="5,2" d="M928.28,-1038.28C948.91,-1004.79 994.55,-930.67 1018.81,-891.27"/>
<polygon fill="blue" stroke="blue" points="1021.95,-892.85 1024.21,-882.5 1015.99,-889.18 1021.95,-892.85"/>
<text text-anchor="middle" x="975.19" y="-993.48" font-family="Arial" font-size="10.00">domain</text>
</g>
<!-- Thing&#45;&gt;wasGeneratedBy -->
<g id="edge13" class="edge">
<title>Thing&#45;&gt;wasGeneratedBy</title>
<path fill="none" stroke="blue" stroke-dasharray="5,2" d="M559.55,-780.89C506.82,-761.05 392.53,-718.06 326.51,-693.22"/>
<polygon fill="blue" stroke="blue" points="327.72,-689.94 317.13,-689.69 325.26,-696.49 327.72,-689.94"/>
<text text-anchor="middle" x="460.19" y="-730.48" font-family="Arial" font-size="10.00">domain</text>
</g>
<!-- Thing&#45;&gt;hasContext -->
<g id="edge8" class="edge">
<title>Thing&#45;&gt;hasContext</title>
<path fill="none" stroke="blue" stroke-dasharray="5,2" d="M559.52,-785.19C476.98,-766.76 234.48,-712.61 122.1,-687.52"/>
<polygon fill="blue" stroke="blue" points="122.81,-684.09 112.29,-685.33 121.28,-690.92 122.81,-684.09"/>
<text text-anchor="middle" x="360.19" y="-730.48" font-family="Arial" font-size="10.00">domain</text>
</g>
<!-- Thing&#45;&gt;wasAttributedTo -->
<g id="edge20" class="edge">
<title>Thing&#45;&gt;wasAttributedTo</title>
<path fill="none" stroke="blue" stroke-dasharray="5,2" d="M615.8,-776.18C653.87,-755.47 721.96,-718.42 764.59,-695.21"/>
<polygon fill="blue" stroke="blue" points="766.44,-698.2 773.55,-690.34 763.09,-692.05 766.44,-698.2"/>
<text text-anchor="middle" x="720.19" y="-730.48" font-family="Arial" font-size="10.00">domain</text>
</g>
<!-- Thing&#45;&gt;occursDuring -->
<g id="edge21" class="edge">
<title>Thing&#45;&gt;occursDuring</title>
<path fill="none" stroke="blue" stroke-dasharray="5,2" d="M587.69,-774.47C587.69,-755.4 587.69,-724.23 587.69,-701.76"/>
<polygon fill="blue" stroke="blue" points="591.19,-701.51 587.69,-691.51 584.19,-701.51 591.19,-701.51"/>
<text text-anchor="middle" x="606.19" y="-730.48" font-family="Arial" font-size="10.00">domain</text>
</g>
<!-- DataSet -->
<g id="node43" class="node">
<title>DataSet</title>
<polygon fill="lightblue" stroke="black" points="2522.69,-810.48 2446.69,-810.48 2446.69,-774.48 2522.69,-774.48 2522.69,-810.48"/>
<text text-anchor="middle" x="2484.69" y="-788.78" font-family="Arial" font-size="14.00">Data Set</text>
</g>
<!-- DataSet&#45;&gt;usedDataInterface -->
<g id="edge7" class="edge">
<title>DataSet&#45;&gt;usedDataInterface</title>
<path fill="none" stroke="blue" stroke-dasharray="5,2" d="M2503.02,-774.47C2524.57,-754.45 2560.5,-721.08 2584.88,-698.45"/>
<polygon fill="blue" stroke="blue" points="2587.4,-700.88 2592.35,-691.51 2582.64,-695.75 2587.4,-700.88"/>
<text text-anchor="middle" x="2570.19" y="-730.48" font-family="Arial" font-size="10.00">domain</text>
</g>
<!-- DataSet&#45;&gt;wasCollectedFrom -->
<g id="edge15" class="edge">
<title>DataSet&#45;&gt;wasCollectedFrom</title>
<path fill="none" stroke="blue" stroke-dasharray="5,2" d="M2466.37,-774.47C2444.82,-754.45 2408.88,-721.08 2384.51,-698.45"/>
<polygon fill="blue" stroke="blue" points="2386.75,-695.75 2377.04,-691.51 2381.98,-700.88 2386.75,-695.75"/>
<text text-anchor="middle" x="2444.19" y="-730.48" font-family="Arial" font-size="10.00">domain</text>
</g>
<!-- NotificationEvent -->
<g id="node46" class="node">
<title>NotificationEvent</title>
<polygon fill="lightblue" stroke="black" points="427.69,-529.74 287.69,-529.74 287.69,-493.74 427.69,-493.74 427.69,-529.74"/>
<text text-anchor="middle" x="357.69" y="-508.04" font-family="Arial" font-size="14.00">Notification Event</text>
</g>
<!-- NotificationEvent&#45;&gt;usedAppInterface -->
<g id="edge9" class="edge">
<title>NotificationEvent&#45;&gt;usedAppInterface</title>
<path fill="none" stroke="blue" stroke-dasharray="5,2" d="M357.69,-493.5C357.69,-472.51 357.69,-436.79 357.69,-412.07"/>
<polygon fill="blue" stroke="blue" points="361.19,-411.9 357.69,-401.9 354.19,-411.9 361.19,-411.9"/>
<text text-anchor="middle" x="376.19" y="-449.74" font-family="Arial" font-size="10.00">domain</text>
</g>
<!-- SleepStageMeasurement -->
<g id="node48" class="node">
<title>SleepStageMeasurement</title>
<polygon fill="lightblue" stroke="black" points="2684.19,-1075.48 2573.19,-1075.48 2573.19,-1037.48 2684.19,-1037.48 2684.19,-1075.48"/>
<text text-anchor="middle" x="2628.69" y="-1060.28" font-family="Arial" font-size="14.00">Sleep Stage</text>
<text text-anchor="middle" x="2628.69" y="-1045.28" font-family="Arial" font-size="14.00">Measurement</text>
</g>
<!-- SleepStageMeasurement&#45;&gt;hasStage -->
<g id="edge10" class="edge">
<title>SleepStageMeasurement&#45;&gt;hasStage</title>
<path fill="none" stroke="blue" stroke-dasharray="5,2" d="M2628.69,-1037.3C2628.69,-1017.97 2628.69,-987.16 2628.69,-964.88"/>
<polygon fill="blue" stroke="blue" points="2632.19,-964.72 2628.69,-954.72 2625.19,-964.72 2632.19,-964.72"/>
<text text-anchor="middle" x="2647.19" y="-993.48" font-family="Arial" font-size="10.00">domain</text>
</g>
<!-- DataTransferEvent -->
<g id="node53" class="node">
<title>DataTransferEvent</title>
<polygon fill="lightblue" stroke="black" points="673.19,-529.74 518.19,-529.74 518.19,-493.74 673.19,-493.74 673.19,-529.74"/>
<text text-anchor="middle" x="595.69" y="-508.04" font-family="Arial" font-size="14.00">Data Transfer Event</text>
</g>
<!-- DataTransferEvent&#45;&gt;usedDevice -->
<g id="edge18" class="edge">
<title>DataTransferEvent&#45;&gt;usedDevice</title>
<path fill="none" stroke="blue" stroke-dasharray="5,2" d="M595.69,-493.5C595.69,-472.51 595.69,-436.79 595.69,-412.07"/>
<polygon fill="blue" stroke="blue" points="599.19,-411.9 595.69,-401.9 592.19,-411.9 599.19,-411.9"/>
<text text-anchor="middle" x="614.19" y="-449.74" font-family="Arial" font-size="10.00">domain</text>
</g>
</g>
</svg>
