<?xml version="1.0" encoding="UTF-8" standalone="no"?>
<!DOCTYPE svg PUBLIC "-//W3C//DTD SVG 1.1//EN"
 "http://www.w3.org/Graphics/SVG/1.1/DTD/svg11.dtd">
<!-- Generated by graphviz version 2.43.0 (0)
 -->
<!-- Title: Object Properties Pages: 1 -->
<svg width="6815pt" height="7193pt"
 viewBox="0.00 0.00 6815.45 7192.65" xmlns="http://www.w3.org/2000/svg" xmlns:xlink="http://www.w3.org/1999/xlink">
<g id="graph0" class="graph" transform="scale(1 1) rotate(0) translate(4 7188.65)">
<title>Object Properties</title>
<polygon fill="white" stroke="transparent" points="-4,4 -4,-7188.65 6811.45,-7188.65 6811.45,4 -4,4"/>
<!-- DerivedFeature -->
<g id="node1" class="node">
<title>DerivedFeature</title>
<polygon fill="lightblue" stroke="black" points="2399.12,-6253.47 2272.12,-6253.47 2272.12,-6217.47 2399.12,-6217.47 2399.12,-6253.47"/>
<text text-anchor="middle" x="2335.62" y="-6231.77" font-family="Arial" font-size="14.00">Derived Feature</text>
</g>
<!-- wasDerivedFrom -->
<g id="node32" class="node">
<title>wasDerivedFrom</title>
<ellipse fill="lightyellow" stroke="black" cx="2497.31" cy="-6073.77" rx="85.29" ry="18"/>
<text text-anchor="middle" x="2497.31" y="-6070.07" font-family="Arial" font-size="14.00">wasDerivedFrom</text>
</g>
<!-- DerivedFeature&#45;&gt;wasDerivedFrom -->
<g id="edge12" class="edge">
<title>DerivedFeature&#45;&gt;wasDerivedFrom</title>
<path fill="none" stroke="blue" d="M2353.86,-6217.23C2382.76,-6188.33 2439.17,-6131.92 2471.98,-6099.11"/>
<polygon fill="blue" stroke="blue" points="2474.8,-6101.24 2479.39,-6091.7 2469.85,-6096.29 2474.8,-6101.24"/>
<text text-anchor="middle" x="2398.07" y="-6157.52" font-family="Arial" font-size="10.00">domain</text>
</g>
<!-- wasComputedBy -->
<g id="node50" class="node">
<title>wasComputedBy</title>
<ellipse fill="lightyellow" stroke="black" cx="2173.93" cy="-6073.77" rx="90.98" ry="18"/>
<text text-anchor="middle" x="2173.93" y="-6070.07" font-family="Arial" font-size="14.00">was computed by</text>
</g>
<!-- DerivedFeature&#45;&gt;wasComputedBy -->
<g id="edge37" class="edge">
<title>DerivedFeature&#45;&gt;wasComputedBy</title>
<path fill="none" stroke="blue" d="M2317.39,-6217.23C2288.49,-6188.33 2232.08,-6131.92 2199.26,-6099.11"/>
<polygon fill="blue" stroke="blue" points="2201.4,-6096.29 2191.85,-6091.7 2196.45,-6101.24 2201.4,-6096.29"/>
<text text-anchor="middle" x="2236.17" y="-6157.52" font-family="Arial" font-size="10.00">domain</text>
</g>
<!-- QuestionnaireEntry -->
<g id="node2" class="node">
<title>QuestionnaireEntry</title>
<polygon fill="lightblue" stroke="black" points="5793.08,-6038.49 5638.08,-6038.49 5638.08,-6002.49 5793.08,-6002.49 5793.08,-6038.49"/>
<text text-anchor="middle" x="5715.58" y="-6016.79" font-family="Arial" font-size="14.00">Questionnaire Entry</text>
</g>
<!-- hasResponseItem -->
<g id="node31" class="node">
<title>hasResponseItem</title>
<ellipse fill="lightyellow" stroke="black" cx="5899.94" cy="-5862.04" rx="93.68" ry="18"/>
<text text-anchor="middle" x="5899.94" y="-5858.34" font-family="Arial" font-size="14.00">has response item</text>
</g>
<!-- QuestionnaireEntry&#45;&gt;hasResponseItem -->
<g id="edge10" class="edge">
<title>QuestionnaireEntry&#45;&gt;hasResponseItem</title>
<path fill="none" stroke="blue" d="M5736.73,-6002.31C5769.88,-5973.82 5834.13,-5918.6 5871.36,-5886.6"/>
<polygon fill="blue" stroke="blue" points="5874.02,-5888.93 5879.32,-5879.76 5869.46,-5883.63 5874.02,-5888.93"/>
<text text-anchor="middle" x="5789.55" y="-5944.01" font-family="Arial" font-size="10.00">domain</text>
</g>
<!-- wasReportedBy -->
<g id="node39" class="node">
<title>wasReportedBy</title>
<ellipse fill="lightyellow" stroke="black" cx="5538.61" cy="-6172.58" rx="83.69" ry="18"/>
<text text-anchor="middle" x="5538.61" y="-6168.88" font-family="Arial" font-size="14.00">was reported by</text>
</g>
<!-- QuestionnaireEntry&#45;&gt;wasReportedBy -->
<g id="edge26" class="edge">
<title>QuestionnaireEntry&#45;&gt;wasReportedBy</title>
<path fill="none" stroke="blue" d="M5694.59,-6038.53C5662.75,-6065.89 5602.22,-6117.91 5566.66,-6148.48"/>
<polygon fill="blue" stroke="blue" points="5564.34,-6145.85 5559.04,-6155.03 5568.9,-6151.16 5564.34,-6145.85"/>
<text text-anchor="middle" x="5608.55" y="-6099.57" font-family="Arial" font-size="10.00">domain</text>
</g>
<!-- SleepStageMeasurement -->
<g id="node3" class="node">
<title>SleepStageMeasurement</title>
<polygon fill="lightblue" stroke="black" points="3585.53,-3675.77 3387.53,-3675.77 3387.53,-3639.77 3585.53,-3639.77 3585.53,-3675.77"/>
<text text-anchor="middle" x="3486.53" y="-3654.07" font-family="Arial" font-size="14.00">Sleep Stage Measurement</text>
</g>
<!-- hasStage -->
<g id="node37" class="node">
<title>hasStage</title>
<ellipse fill="lightyellow" stroke="black" cx="3712.12" cy="-3657.77" rx="54.69" ry="18"/>
<text text-anchor="middle" x="3712.12" y="-3654.07" font-family="Arial" font-size="14.00">has stage</text>
</g>
<!-- SleepStageMeasurement&#45;&gt;hasStage -->
<g id="edge22" class="edge">
<title>SleepStageMeasurement&#45;&gt;hasStage</title>
<path fill="none" stroke="blue" d="M3585.81,-3657.77C3606.65,-3657.77 3628.11,-3657.77 3647.3,-3657.77"/>
<polygon fill="blue" stroke="blue" points="3647.41,-3661.27 3657.41,-3657.77 3647.41,-3654.27 3647.41,-3661.27"/>
<text text-anchor="middle" x="3630.79" y="-3649.77" font-family="Arial" font-size="10.00">domain</text>
</g>
<!-- ResponseItem -->
<g id="node4" class="node">
<title>ResponseItem</title>
<polygon fill="lightblue" stroke="black" points="6130.15,-5733.33 6011.15,-5733.33 6011.15,-5697.33 6130.15,-5697.33 6130.15,-5733.33"/>
<text text-anchor="middle" x="6070.65" y="-5711.63" font-family="Arial" font-size="14.00">Response Item</text>
</g>
<!-- answersQuestion -->
<g id="node25" class="node">
<title>answersQuestion</title>
<ellipse fill="lightyellow" stroke="black" cx="6238.89" cy="-5570.73" rx="90.18" ry="18"/>
<text text-anchor="middle" x="6238.89" y="-5567.03" font-family="Arial" font-size="14.00">answers question</text>
</g>
<!-- ResponseItem&#45;&gt;answersQuestion -->
<g id="edge5" class="edge">
<title>ResponseItem&#45;&gt;answersQuestion</title>
<path fill="none" stroke="blue" d="M6091.62,-5697.31C6121.71,-5671.44 6177.21,-5623.75 6210.82,-5594.86"/>
<polygon fill="blue" stroke="blue" points="6213.15,-5597.47 6218.45,-5588.3 6208.59,-5592.16 6213.15,-5597.47"/>
<text text-anchor="middle" x="6136.52" y="-5645.81" font-family="Arial" font-size="10.00">domain</text>
</g>
<!-- DigitalPhenotype -->
<g id="node5" class="node">
<title>DigitalPhenotype</title>
<polygon fill="lightblue" stroke="black" points="2268.34,-102.49 2129.34,-102.49 2129.34,-66.49 2268.34,-66.49 2268.34,-102.49"/>
<text text-anchor="middle" x="2198.84" y="-80.79" font-family="Arial" font-size="14.00">Digital Phenotype</text>
</g>
<!-- Thing -->
<g id="node6" class="node">
<title>Thing</title>
<polygon fill="lightblue" stroke="black" points="4004.72,-4681.36 3948.72,-4681.36 3948.72,-4645.36 4004.72,-4645.36 4004.72,-4681.36"/>
<text text-anchor="middle" x="3976.72" y="-4659.66" font-family="Arial" font-size="14.00">Thing</text>
</g>
<!-- wasGeneratedBy -->
<g id="node33" class="node">
<title>wasGeneratedBy</title>
<ellipse fill="lightyellow" stroke="black" cx="2335.62" cy="-5912.08" rx="87.18" ry="18"/>
<text text-anchor="middle" x="2335.62" y="-5908.38" font-family="Arial" font-size="14.00">wasGeneratedBy</text>
</g>
<!-- Thing&#45;&gt;wasGeneratedBy -->
<g id="edge14" class="edge">
<title>Thing&#45;&gt;wasGeneratedBy</title>
<path fill="none" stroke="blue" d="M3952.88,-4681.49C3768.8,-4821.57 2574.92,-5730 2366.6,-5888.51"/>
<polygon fill="blue" stroke="blue" points="2364.35,-5885.82 2358.52,-5894.66 2368.59,-5891.39 2364.35,-5885.82"/>
<text text-anchor="middle" x="3137.1" y="-5291.16" font-family="Arial" font-size="10.00">domain</text>
</g>
<!-- hasContext -->
<g id="node35" class="node">
<title>hasContext</title>
<ellipse fill="lightyellow" stroke="black" cx="3992.46" cy="-4455.08" rx="63.89" ry="18"/>
<text text-anchor="middle" x="3992.46" y="-4451.38" font-family="Arial" font-size="14.00">has context</text>
</g>
<!-- Thing&#45;&gt;hasContext -->
<g id="edge18" class="edge">
<title>Thing&#45;&gt;hasContext</title>
<path fill="none" stroke="blue" d="M3978.09,-4645.24C3980.83,-4608.93 3987.02,-4527.01 3990.31,-4483.49"/>
<polygon fill="blue" stroke="blue" points="3993.82,-4483.54 3991.08,-4473.31 3986.84,-4483.02 3993.82,-4483.54"/>
<text text-anchor="middle" x="3966.09" y="-4562.2" font-family="Arial" font-size="10.00">domain</text>
</g>
<!-- wasAttributedTo -->
<g id="node51" class="node">
<title>wasAttributedTo</title>
<ellipse fill="lightyellow" stroke="black" cx="4077.87" cy="-4781.06" rx="83.39" ry="18"/>
<text text-anchor="middle" x="4077.87" y="-4777.36" font-family="Arial" font-size="14.00">wasAttributedTo</text>
</g>
<!-- Thing&#45;&gt;wasAttributedTo -->
<g id="edge39" class="edge">
<title>Thing&#45;&gt;wasAttributedTo</title>
<path fill="none" stroke="blue" d="M3992.3,-4681.49C4009.28,-4701.25 4036.58,-4733.01 4055.77,-4755.34"/>
<polygon fill="blue" stroke="blue" points="4053.26,-4757.8 4062.43,-4763.1 4058.57,-4753.23 4053.26,-4757.8"/>
<text text-anchor="middle" x="4008.7" y="-4725.1" font-family="Arial" font-size="10.00">domain</text>
</g>
<!-- occursDuring -->
<g id="node52" class="node">
<title>occursDuring</title>
<ellipse fill="lightyellow" stroke="black" cx="3768.44" cy="-4647.62" rx="73.39" ry="18"/>
<text text-anchor="middle" x="3768.44" y="-4643.92" font-family="Arial" font-size="14.00">occurs during</text>
</g>
<!-- Thing&#45;&gt;occursDuring -->
<g id="edge41" class="edge">
<title>Thing&#45;&gt;occursDuring</title>
<path fill="none" stroke="blue" d="M3948.63,-4661.24C3923.16,-4659.31 3884.35,-4656.38 3849.26,-4653.73"/>
<polygon fill="blue" stroke="blue" points="3849.23,-4650.21 3839,-4652.95 3848.7,-4657.19 3849.23,-4650.21"/>
<text text-anchor="middle" x="3875.05" y="-4660.07" font-family="Arial" font-size="10.00">domain</text>
</g>
<!-- Device -->
<g id="node7" class="node">
<title>Device</title>
<polygon fill="lightblue" stroke="black" points="1340.17,-2591.62 1277.17,-2591.62 1277.17,-2555.62 1340.17,-2555.62 1340.17,-2591.62"/>
<text text-anchor="middle" x="1308.67" y="-2569.92" font-family="Arial" font-size="14.00">Device</text>
</g>
<!-- DataInterface -->
<g id="node8" class="node">
<title>DataInterface</title>
<polygon fill="lightblue" stroke="black" points="4439.95,-7184.65 4323.95,-7184.65 4323.95,-7148.65 4439.95,-7148.65 4439.95,-7184.65"/>
<text text-anchor="middle" x="4381.95" y="-7162.95" font-family="Arial" font-size="14.00">Data Interface</text>
</g>
<!-- ObservationContext -->
<g id="node9" class="node">
<title>ObservationContext</title>
<polygon fill="lightblue" stroke="black" points="3864.18,-4457.34 3704.18,-4457.34 3704.18,-4421.34 3864.18,-4421.34 3864.18,-4457.34"/>
<text text-anchor="middle" x="3784.18" y="-4435.64" font-family="Arial" font-size="14.00">Observation Context</text>
</g>
<!-- DataSet -->
<g id="node10" class="node">
<title>DataSet</title>
<polygon fill="lightblue" stroke="black" points="4751.81,-6899.44 4675.81,-6899.44 4675.81,-6863.44 4751.81,-6863.44 4751.81,-6899.44"/>
<text text-anchor="middle" x="4713.81" y="-6877.74" font-family="Arial" font-size="14.00">Data Set</text>
</g>
<!-- usedDataInterface -->
<g id="node34" class="node">
<title>usedDataInterface</title>
<ellipse fill="lightyellow" stroke="black" cx="4555.47" cy="-7017.53" rx="98.58" ry="18"/>
<text text-anchor="middle" x="4555.47" y="-7013.83" font-family="Arial" font-size="14.00">used data interface</text>
</g>
<!-- DataSet&#45;&gt;usedDataInterface -->
<g id="edge16" class="edge">
<title>DataSet&#45;&gt;usedDataInterface</title>
<path fill="none" stroke="blue" d="M4692.79,-6899.51C4664.83,-6923.54 4615.32,-6966.09 4584.01,-6993"/>
<polygon fill="blue" stroke="blue" points="4581.38,-6990.64 4576.08,-6999.82 4585.94,-6995.95 4581.38,-6990.64"/>
<text text-anchor="middle" x="4616.05" y="-6952.56" font-family="Arial" font-size="10.00">domain</text>
</g>
<!-- wasCollectedFrom -->
<g id="node44" class="node">
<title>wasCollectedFrom</title>
<ellipse fill="lightyellow" stroke="black" cx="4869.2" cy="-6747.89" rx="94.78" ry="18"/>
<text text-anchor="middle" x="4869.2" y="-6744.19" font-family="Arial" font-size="14.00">was collected from</text>
</g>
<!-- DataSet&#45;&gt;wasCollectedFrom -->
<g id="edge30" class="edge">
<title>DataSet&#45;&gt;wasCollectedFrom</title>
<path fill="none" stroke="blue" d="M4734.77,-6863.43C4762.15,-6839.9 4810.19,-6798.61 4840.81,-6772.29"/>
<polygon fill="blue" stroke="blue" points="4843.27,-6774.79 4848.58,-6765.62 4838.71,-6769.48 4843.27,-6774.79"/>
<text text-anchor="middle" x="4773.04" y="-6817.64" font-family="Arial" font-size="10.00">domain</text>
</g>
<!-- NotificationEvent -->
<g id="node11" class="node">
<title>NotificationEvent</title>
<polygon fill="lightblue" stroke="black" points="2734.74,-2703.06 2594.74,-2703.06 2594.74,-2667.06 2734.74,-2667.06 2734.74,-2703.06"/>
<text text-anchor="middle" x="2664.74" y="-2681.36" font-family="Arial" font-size="14.00">Notification Event</text>
</g>
<!-- usedAppInterface -->
<g id="node36" class="node">
<title>usedAppInterface</title>
<ellipse fill="lightyellow" stroke="black" cx="2459.03" cy="-2566.29" rx="95.58" ry="18"/>
<text text-anchor="middle" x="2459.03" y="-2562.59" font-family="Arial" font-size="14.00">used app interface</text>
</g>
<!-- NotificationEvent&#45;&gt;usedAppInterface -->
<g id="edge20" class="edge">
<title>NotificationEvent&#45;&gt;usedAppInterface</title>
<path fill="none" stroke="blue" d="M2633.5,-2667.02C2597.18,-2646.05 2537.22,-2611.43 2497.92,-2588.74"/>
<polygon fill="blue" stroke="blue" points="2499.3,-2585.5 2488.89,-2583.53 2495.8,-2591.56 2499.3,-2585.5"/>
<text text-anchor="middle" x="2542.6" y="-2628.22" font-family="Arial" font-size="10.00">domain</text>
</g>
<!-- QuantityValue -->
<g id="node12" class="node">
<title>QuantityValue</title>
<polygon fill="lightblue" stroke="black" points="3315.11,-724.08 3201.11,-724.08 3201.11,-688.08 3315.11,-688.08 3315.11,-724.08"/>
<text text-anchor="middle" x="3258.11" y="-702.38" font-family="Arial" font-size="14.00">QuantityValue</text>
</g>
<!-- Feature -->
<g id="node13" class="node">
<title>Feature</title>
<polygon fill="lightblue" stroke="black" points="2643.19,-339.41 2575.19,-339.41 2575.19,-303.41 2643.19,-303.41 2643.19,-339.41"/>
<text text-anchor="middle" x="2609.19" y="-317.71" font-family="Arial" font-size="14.00">Feature</text>
</g>
<!-- requiresComputation -->
<g id="node24" class="node">
<title>requiresComputation</title>
<ellipse fill="lightyellow" stroke="black" cx="2472.41" cy="-558.33" rx="106.68" ry="18"/>
<text text-anchor="middle" x="2472.41" y="-554.63" font-family="Arial" font-size="14.00">requires computation</text>
</g>
<!-- Feature&#45;&gt;requiresComputation -->
<g id="edge3" class="edge">
<title>Feature&#45;&gt;requiresComputation</title>
<path fill="none" stroke="blue" d="M2598.69,-339.61C2574.71,-381.14 2515.86,-483.07 2487.79,-531.69"/>
<polygon fill="blue" stroke="blue" points="2484.73,-529.98 2482.76,-540.39 2490.79,-533.48 2484.73,-529.98"/>
<text text-anchor="middle" x="2522.04" y="-443.32" font-family="Arial" font-size="10.00">domain</text>
</g>
<!-- hasMeasurement -->
<g id="node28" class="node">
<title>hasMeasurement</title>
<ellipse fill="lightyellow" stroke="black" cx="2773.48" cy="-321.41" rx="92.08" ry="18"/>
<text text-anchor="middle" x="2773.48" y="-317.71" font-family="Arial" font-size="14.00">has measurement</text>
</g>
<!-- Feature&#45;&gt;hasMeasurement -->
<g id="edge8" class="edge">
<title>Feature&#45;&gt;hasMeasurement</title>
<path fill="none" stroke="blue" d="M2643.23,-321.41C2651.69,-321.41 2661.2,-321.41 2671.13,-321.41"/>
<polygon fill="blue" stroke="blue" points="2671.18,-324.91 2681.18,-321.41 2671.18,-317.91 2671.18,-324.91"/>
<text text-anchor="middle" x="2662.42" y="-313.41" font-family="Arial" font-size="10.00">domain</text>
</g>
<!-- supportsInferenceOf -->
<g id="node47" class="node">
<title>supportsInferenceOf</title>
<ellipse fill="lightyellow" stroke="black" cx="2472.41" cy="-84.49" rx="107.48" ry="18"/>
<text text-anchor="middle" x="2472.41" y="-80.79" font-family="Arial" font-size="14.00">supports inference of</text>
</g>
<!-- Feature&#45;&gt;supportsInferenceOf -->
<g id="edge33" class="edge">
<title>Feature&#45;&gt;supportsInferenceOf</title>
<path fill="none" stroke="blue" d="M2598.69,-303.21C2574.71,-261.68 2515.86,-159.75 2487.79,-111.13"/>
<polygon fill="blue" stroke="blue" points="2490.79,-109.34 2482.76,-102.43 2484.73,-112.84 2490.79,-109.34"/>
<text text-anchor="middle" x="2522.04" y="-205.5" font-family="Arial" font-size="10.00">domain</text>
</g>
<!-- DataTransferEvent -->
<g id="node14" class="node">
<title>DataTransferEvent</title>
<polygon fill="lightblue" stroke="black" points="1989.25,-3532.21 1834.25,-3532.21 1834.25,-3496.21 1989.25,-3496.21 1989.25,-3532.21"/>
<text text-anchor="middle" x="1911.75" y="-3510.51" font-family="Arial" font-size="14.00">Data Transfer Event</text>
</g>
<!-- usedDevice -->
<g id="node49" class="node">
<title>usedDevice</title>
<ellipse fill="lightyellow" stroke="black" cx="2168.26" cy="-3069.91" rx="64.99" ry="18"/>
<text text-anchor="middle" x="2168.26" y="-3066.21" font-family="Arial" font-size="14.00">used device</text>
</g>
<!-- DataTransferEvent&#45;&gt;usedDevice -->
<g id="edge35" class="edge">
<title>DataTransferEvent&#45;&gt;usedDevice</title>
<path fill="none" stroke="blue" d="M1922.28,-3495.96C1962.31,-3426.62 2105.14,-3179.24 2152.72,-3096.83"/>
<polygon fill="blue" stroke="blue" points="2155.81,-3098.47 2157.78,-3088.06 2149.75,-3094.97 2155.81,-3098.47"/>
<text text-anchor="middle" x="2021.37" y="-3295.3" font-family="Arial" font-size="10.00">domain</text>
</g>
<!-- Participant -->
<g id="node15" class="node">
<title>Participant</title>
<polygon fill="lightblue" stroke="black" points="5431.3,-6321.48 5341.3,-6321.48 5341.3,-6285.48 5431.3,-6285.48 5431.3,-6321.48"/>
<text text-anchor="middle" x="5386.3" y="-6299.78" font-family="Arial" font-size="14.00">Participant</text>
</g>
<!-- Question -->
<g id="node16" class="node">
<title>Question</title>
<polygon fill="lightblue" stroke="black" points="6431.47,-5457.17 6352.47,-5457.17 6352.47,-5421.17 6431.47,-5421.17 6431.47,-5457.17"/>
<text text-anchor="middle" x="6391.97" y="-5435.47" font-family="Arial" font-size="14.00">Question</text>
</g>
<!-- hasResponseFormat -->
<g id="node38" class="node">
<title>hasResponseFormat</title>
<ellipse fill="lightyellow" stroke="black" cx="6554.9" cy="-5299.14" rx="103.18" ry="18"/>
<text text-anchor="middle" x="6554.9" y="-5295.44" font-family="Arial" font-size="14.00">has response format</text>
</g>
<!-- Question&#45;&gt;hasResponseFormat -->
<g id="edge24" class="edge">
<title>Question&#45;&gt;hasResponseFormat</title>
<path fill="none" stroke="blue" d="M6412.94,-5421.15C6441.86,-5396.3 6494.08,-5351.41 6526.49,-5323.56"/>
<polygon fill="blue" stroke="blue" points="6528.97,-5326.04 6534.27,-5316.87 6524.41,-5320.73 6528.97,-5326.04"/>
<text text-anchor="middle" x="6455.25" y="-5371.88" font-family="Arial" font-size="10.00">domain</text>
</g>
<!-- AppInterface -->
<g id="node17" class="node">
<title>AppInterface</title>
<polygon fill="lightblue" stroke="black" points="2308.81,-2465.52 2197.81,-2465.52 2197.81,-2429.52 2308.81,-2429.52 2308.81,-2465.52"/>
<text text-anchor="middle" x="2253.31" y="-2443.82" font-family="Arial" font-size="14.00">App Interface</text>
</g>
<!-- Computation -->
<g id="node18" class="node">
<title>Computation</title>
<polygon fill="lightblue" stroke="black" points="2251.84,-576.33 2145.84,-576.33 2145.84,-540.33 2251.84,-540.33 2251.84,-576.33"/>
<text text-anchor="middle" x="2198.84" y="-554.63" font-family="Arial" font-size="14.00">Computation</text>
</g>
<!-- infersPhenotype -->
<g id="node23" class="node">
<title>infersPhenotype</title>
<ellipse fill="lightyellow" stroke="black" cx="2062.05" cy="-321.41" rx="87.99" ry="18"/>
<text text-anchor="middle" x="2062.05" y="-317.71" font-family="Arial" font-size="14.00">infers phenotype</text>
</g>
<!-- Computation&#45;&gt;infersPhenotype -->
<g id="edge1" class="edge">
<title>Computation&#45;&gt;infersPhenotype</title>
<path fill="none" stroke="blue" d="M2188.33,-540.13C2164.35,-498.6 2105.51,-396.67 2077.44,-348.05"/>
<polygon fill="blue" stroke="blue" points="2080.44,-346.25 2072.41,-339.34 2074.38,-349.75 2080.44,-346.25"/>
<text text-anchor="middle" x="2111.69" y="-442.42" font-family="Arial" font-size="10.00">domain</text>
</g>
<!-- associatedWithDevice -->
<g id="node40" class="node">
<title>associatedWithDevice</title>
<ellipse fill="lightyellow" stroke="black" cx="1103.65" cy="-2455.25" rx="133.48" ry="18"/>
<text text-anchor="middle" x="1103.65" y="-2451.55" font-family="Arial" font-size="14.00">was associated with device</text>
</g>
<!-- Computation&#45;&gt;associatedWithDevice -->
<g id="edge28" class="edge">
<title>Computation&#45;&gt;associatedWithDevice</title>
<path fill="none" stroke="blue" d="M2188.35,-576.49C2084.65,-756.1 1244.32,-2211.6 1119.2,-2428.31"/>
<polygon fill="blue" stroke="blue" points="1116.07,-2426.74 1114.1,-2437.15 1122.13,-2430.24 1116.07,-2426.74"/>
<text text-anchor="middle" x="1632.64" y="-1509.96" font-family="Arial" font-size="10.00">domain</text>
</g>
<!-- Measurement -->
<g id="node19" class="node">
<title>Measurement</title>
<polygon fill="lightblue" stroke="black" points="3587.94,-339.41 3476.94,-339.41 3476.94,-303.41 3587.94,-303.41 3587.94,-339.41"/>
<text text-anchor="middle" x="3532.44" y="-317.71" font-family="Arial" font-size="14.00">Measurement</text>
</g>
<!-- observedProperty -->
<g id="node26" class="node">
<title>observedProperty</title>
<ellipse fill="lightyellow" stroke="black" cx="3322.78" cy="-27.43" rx="90.98" ry="18"/>
<text text-anchor="middle" x="3322.78" y="-23.73" font-family="Arial" font-size="14.00">observedProperty</text>
</g>
<!-- Measurement&#45;&gt;observedProperty -->
<g id="edge7" class="edge">
<title>Measurement&#45;&gt;observedProperty</title>
<path fill="none" stroke="blue" d="M3519.33,-303.02C3483.43,-252.68 3383.46,-112.5 3341.6,-53.81"/>
<polygon fill="blue" stroke="blue" points="3344.28,-51.55 3335.63,-45.44 3338.58,-55.61 3344.28,-51.55"/>
<text text-anchor="middle" x="3408.91" y="-177.13" font-family="Arial" font-size="10.00">domain</text>
</g>
<!-- featureOfInterest -->
<g id="node46" class="node">
<title>featureOfInterest</title>
<ellipse fill="lightyellow" stroke="black" cx="3750.33" cy="-297.97" rx="91.78" ry="18"/>
<text text-anchor="middle" x="3750.33" y="-294.27" font-family="Arial" font-size="14.00">feature of interest</text>
</g>
<!-- Measurement&#45;&gt;featureOfInterest -->
<g id="edge32" class="edge">
<title>Measurement&#45;&gt;featureOfInterest</title>
<path fill="none" stroke="blue" d="M3587.99,-315.43C3609.82,-313.08 3635.45,-310.33 3659.81,-307.71"/>
<polygon fill="blue" stroke="blue" points="3660.23,-311.18 3669.8,-306.63 3659.48,-304.22 3660.23,-311.18"/>
<text text-anchor="middle" x="3610.18" y="-314.05" font-family="Arial" font-size="10.00">domain</text>
</g>
<!-- quantityValue -->
<g id="node54" class="node">
<title>quantityValue</title>
<ellipse fill="lightyellow" stroke="black" cx="3376.78" cy="-539.67" rx="75.29" ry="18"/>
<text text-anchor="middle" x="3376.78" y="-535.97" font-family="Arial" font-size="14.00">quantity value</text>
</g>
<!-- Measurement&#45;&gt;quantityValue -->
<g id="edge43" class="edge">
<title>Measurement&#45;&gt;quantityValue</title>
<path fill="none" stroke="blue" d="M3519.44,-339.64C3491.9,-378.26 3427.61,-468.4 3395.59,-513.3"/>
<polygon fill="blue" stroke="blue" points="3392.6,-511.47 3389.64,-521.64 3398.3,-515.54 3392.6,-511.47"/>
<text text-anchor="middle" x="3436.01" y="-433.69" font-family="Arial" font-size="10.00">domain</text>
</g>
<!-- SleepStage -->
<g id="node20" class="node">
<title>SleepStage</title>
<polygon fill="lightblue" stroke="black" points="3933.72,-3675.77 3838.72,-3675.77 3838.72,-3639.77 3933.72,-3639.77 3933.72,-3675.77"/>
<text text-anchor="middle" x="3886.22" y="-3654.07" font-family="Arial" font-size="14.00">SleepStage</text>
</g>
<!-- ResponseFormat -->
<g id="node21" class="node">
<title>ResponseFormat</title>
<polygon fill="lightblue" stroke="black" points="6807.45,-5158.53 6671.45,-5158.53 6671.45,-5122.53 6807.45,-5122.53 6807.45,-5158.53"/>
<text text-anchor="middle" x="6739.45" y="-5136.83" font-family="Arial" font-size="14.00">Response Format</text>
</g>
<!-- inScheme -->
<g id="node22" class="node">
<title>inScheme</title>
<ellipse fill="lightyellow" stroke="black" cx="3442.62" cy="-3173.77" rx="55.49" ry="18"/>
<text text-anchor="middle" x="3442.62" y="-3170.07" font-family="Arial" font-size="14.00">inScheme</text>
</g>
<!-- infersPhenotype&#45;&gt;DigitalPhenotype -->
<g id="edge2" class="edge">
<title>infersPhenotype&#45;&gt;DigitalPhenotype</title>
<path fill="none" stroke="green" d="M2072.56,-303.21C2096.48,-261.78 2155.1,-160.25 2183.25,-111.49"/>
<polygon fill="green" stroke="green" points="2186.33,-113.16 2188.3,-102.75 2180.27,-109.66 2186.33,-113.16"/>
<text text-anchor="middle" x="2116.54" y="-205.79" font-family="Arial" font-size="10.00">range</text>
</g>
<!-- requiresComputation&#45;&gt;Computation -->
<g id="edge4" class="edge">
<title>requiresComputation&#45;&gt;Computation</title>
<path fill="none" stroke="green" d="M2365.46,-558.33C2330.46,-558.33 2292.71,-558.33 2262.01,-558.33"/>
<polygon fill="green" stroke="green" points="2261.88,-554.83 2251.88,-558.33 2261.88,-561.83 2261.88,-554.83"/>
<text text-anchor="middle" x="2294.41" y="-561.33" font-family="Arial" font-size="10.00">range</text>
</g>
<!-- answersQuestion&#45;&gt;Question -->
<g id="edge6" class="edge">
<title>answersQuestion&#45;&gt;Question</title>
<path fill="none" stroke="green" d="M6259.54,-5552.99C6286.21,-5530.07 6332.78,-5490.04 6362.99,-5464.08"/>
<polygon fill="green" stroke="green" points="6365.37,-5466.65 6370.67,-5457.48 6360.81,-5461.34 6365.37,-5466.65"/>
<text text-anchor="middle" x="6300.78" y="-5508.51" font-family="Arial" font-size="10.00">range</text>
</g>
<!-- observedProperty&#45;&gt;observedProperty -->
<g id="edge52" class="edge">
<title>observedProperty&#45;&gt;observedProperty</title>
<path fill="none" stroke="red" stroke-dasharray="5,2" d="M3358.41,-44.01C3414.39,-62.14 3485.78,-56.61 3485.78,-27.43 3485.78,0.1 3422.25,6.58 3368.05,-7.99"/>
<polygon fill="red" stroke="red" points="3367,-4.65 3358.41,-10.84 3368.99,-11.36 3367,-4.65"/>
<text text-anchor="middle" x="3520.78" y="-24.93" font-family="Arial" font-size="10.00">subPropertyOf</text>
</g>
<!-- related -->
<g id="node27" class="node">
<title>related</title>
<ellipse fill="lightyellow" stroke="black" cx="3913.62" cy="-3173.77" rx="42.49" ry="18"/>
<text text-anchor="middle" x="3913.62" y="-3170.07" font-family="Arial" font-size="14.00">related</text>
</g>
<!-- hasMeasurement&#45;&gt;Measurement -->
<g id="edge9" class="edge">
<title>hasMeasurement&#45;&gt;Measurement</title>
<path fill="none" stroke="green" d="M2865.79,-321.41C3021.14,-321.41 3331.13,-321.41 3466.57,-321.41"/>
<polygon fill="green" stroke="green" points="3466.79,-324.91 3476.79,-321.41 3466.79,-317.91 3466.79,-324.91"/>
<text text-anchor="middle" x="3159.73" y="-324.41" font-family="Arial" font-size="10.00">range</text>
</g>
<!-- wasAssociatedWith -->
<g id="node29" class="node">
<title>wasAssociatedWith</title>
<ellipse fill="lightyellow" stroke="black" cx="97.49" cy="-1874.35" rx="97.48" ry="18"/>
<text text-anchor="middle" x="97.49" y="-1870.65" font-family="Arial" font-size="14.00">wasAssociatedWith</text>
</g>
<!-- broader -->
<g id="node30" class="node">
<title>broader</title>
<ellipse fill="lightyellow" stroke="black" cx="3917.62" cy="-4141.77" rx="46.29" ry="18"/>
<text text-anchor="middle" x="3917.62" y="-4138.07" font-family="Arial" font-size="14.00">broader</text>
</g>
<!-- hasResponseItem&#45;&gt;ResponseItem -->
<g id="edge11" class="edge">
<title>hasResponseItem&#45;&gt;ResponseItem</title>
<path fill="none" stroke="green" d="M5920.53,-5844.34C5950.74,-5818.38 6007.22,-5769.84 6041.62,-5740.27"/>
<polygon fill="green" stroke="green" points="6044.15,-5742.72 6049.45,-5733.55 6039.58,-5737.41 6044.15,-5742.72"/>
<text text-anchor="middle" x="5971.23" y="-5791.74" font-family="Arial" font-size="10.00">range</text>
</g>
<!-- wasDerivedFrom&#45;&gt;Thing -->
<g id="edge13" class="edge">
<title>wasDerivedFrom&#45;&gt;Thing</title>
<path fill="none" stroke="green" d="M2515.75,-6056.2C2671.47,-5907.74 3765.57,-4864.66 3950.27,-4688.58"/>
<polygon fill="green" stroke="green" points="3952.83,-4690.96 3957.66,-4681.53 3948,-4685.9 3952.83,-4690.96"/>
<text text-anchor="middle" x="3222.5" y="-5372.06" font-family="Arial" font-size="10.00">range</text>
</g>
<!-- wasDerivedFrom&#45;&gt;wasDerivedFrom -->
<g id="edge45" class="edge">
<title>wasDerivedFrom&#45;&gt;wasDerivedFrom</title>
<path fill="none" stroke="red" stroke-dasharray="5,2" d="M2531.66,-6090.36C2585.63,-6108.48 2654.46,-6102.95 2654.46,-6073.77 2654.46,-6046.3 2593.46,-6039.8 2541.28,-6054.25"/>
<polygon fill="red" stroke="red" points="2540.2,-6050.92 2531.66,-6057.19 2542.24,-6057.61 2540.2,-6050.92"/>
<text text-anchor="middle" x="2689.46" y="-6071.27" font-family="Arial" font-size="10.00">subPropertyOf</text>
</g>
<!-- wasGeneratedBy&#45;&gt;Computation -->
<g id="edge15" class="edge">
<title>wasGeneratedBy&#45;&gt;Computation</title>
<path fill="none" stroke="green" d="M2335.49,-5894.02C2334.03,-5715.66 2319.76,-4251.91 2234.85,-3070.02 2230.14,-3004.44 2224.21,-2988.48 2218.91,-2922.95 2202.61,-2721.44 2200.01,-2670.82 2194.61,-2468.72 2194.11,-2449.88 2194.59,-2445.16 2194.61,-2426.32 2195.46,-1677.03 2198.22,-758.68 2198.75,-586.76"/>
<polygon fill="green" stroke="green" points="2202.25,-586.75 2198.78,-576.74 2195.25,-586.72 2202.25,-586.75"/>
<text text-anchor="middle" x="2248.85" y="-3073.02" font-family="Arial" font-size="10.00">range</text>
</g>
<!-- wasGeneratedBy&#45;&gt;wasGeneratedBy -->
<g id="edge48" class="edge">
<title>wasGeneratedBy&#45;&gt;wasGeneratedBy</title>
<path fill="none" stroke="red" stroke-dasharray="5,2" d="M2370.39,-5928.67C2425.03,-5946.79 2494.72,-5941.26 2494.72,-5912.08 2494.72,-5884.61 2432.96,-5878.1 2380.14,-5892.56"/>
<polygon fill="red" stroke="red" points="2378.95,-5889.26 2370.39,-5895.5 2380.98,-5895.96 2378.95,-5889.26"/>
<text text-anchor="middle" x="2529.72" y="-5909.58" font-family="Arial" font-size="10.00">subPropertyOf</text>
</g>
<!-- usedDataInterface&#45;&gt;DataInterface -->
<g id="edge17" class="edge">
<title>usedDataInterface&#45;&gt;DataInterface</title>
<path fill="none" stroke="green" d="M4534.88,-7035.22C4504.13,-7061.65 4446.08,-7111.54 4411.02,-7141.68"/>
<polygon fill="green" stroke="green" points="4408.35,-7139.35 4403.05,-7148.52 4412.92,-7144.66 4408.35,-7139.35"/>
<text text-anchor="middle" x="4454.96" y="-7094.88" font-family="Arial" font-size="10.00">range</text>
</g>
<!-- hasContext&#45;&gt;ObservationContext -->
<g id="edge19" class="edge">
<title>hasContext&#45;&gt;ObservationContext</title>
<path fill="none" stroke="green" d="M3930.82,-4450.42C3913.12,-4449.08 3893.46,-4447.6 3874.42,-4446.16"/>
<polygon fill="green" stroke="green" points="3874.47,-4442.65 3864.23,-4445.39 3873.94,-4449.63 3874.47,-4442.65"/>
<text text-anchor="middle" x="3883.31" y="-4450.89" font-family="Arial" font-size="10.00">range</text>
</g>
<!-- usedAppInterface&#45;&gt;AppInterface -->
<g id="edge21" class="edge">
<title>usedAppInterface&#45;&gt;AppInterface</title>
<path fill="none" stroke="green" d="M2429.11,-2549.02C2393.27,-2528.32 2333.07,-2493.57 2293.27,-2470.59"/>
<polygon fill="green" stroke="green" points="2295.02,-2467.56 2284.61,-2465.59 2291.52,-2473.62 2295.02,-2467.56"/>
<text text-anchor="middle" x="2342.92" y="-2510.34" font-family="Arial" font-size="10.00">range</text>
</g>
<!-- used -->
<g id="node48" class="node">
<title>used</title>
<ellipse fill="lightyellow" stroke="black" cx="2253.01" cy="-2923.12" rx="32.49" ry="18"/>
<text text-anchor="middle" x="2253.01" y="-2919.42" font-family="Arial" font-size="14.00">used</text>
</g>
<!-- usedAppInterface&#45;&gt;used -->
<g id="edge46" class="edge">
<title>usedAppInterface&#45;&gt;used</title>
<path fill="none" stroke="red" stroke-dasharray="5,2" d="M2448.53,-2584.47C2414.62,-2643.21 2307.93,-2828 2268.15,-2896.89"/>
<polygon fill="red" stroke="red" points="2264.97,-2895.41 2263,-2905.82 2271.03,-2898.91 2264.97,-2895.41"/>
<text text-anchor="middle" x="2320.91" y="-2747.89" font-family="Arial" font-size="10.00">subPropertyOf</text>
</g>
<!-- hasStage&#45;&gt;SleepStage -->
<g id="edge23" class="edge">
<title>hasStage&#45;&gt;SleepStage</title>
<path fill="none" stroke="green" d="M3766.73,-3657.77C3786.35,-3657.77 3808.53,-3657.77 3828.41,-3657.77"/>
<polygon fill="green" stroke="green" points="3828.57,-3661.27 3838.57,-3657.77 3828.57,-3654.27 3828.57,-3661.27"/>
<text text-anchor="middle" x="3788.87" y="-3660.77" font-family="Arial" font-size="10.00">range</text>
</g>
<!-- hasResponseFormat&#45;&gt;ResponseFormat -->
<g id="edge25" class="edge">
<title>hasResponseFormat&#45;&gt;ResponseFormat</title>
<path fill="none" stroke="green" d="M6575.72,-5281.25C6608.67,-5252.93 6672.95,-5197.69 6710.42,-5165.49"/>
<polygon fill="green" stroke="green" points="6713.13,-5167.77 6718.44,-5158.6 6708.57,-5162.46 6713.13,-5167.77"/>
<text text-anchor="middle" x="6632.92" y="-5223.06" font-family="Arial" font-size="10.00">range</text>
</g>
<!-- wasReportedBy&#45;&gt;Participant -->
<g id="edge27" class="edge">
<title>wasReportedBy&#45;&gt;Participant</title>
<path fill="none" stroke="green" d="M5518.07,-6190.23C5491.54,-6213.04 5445.19,-6252.87 5415.13,-6278.7"/>
<polygon fill="green" stroke="green" points="5412.79,-6276.1 5407.49,-6285.27 5417.36,-6281.41 5412.79,-6276.1"/>
<text text-anchor="middle" x="5449.1" y="-6240.47" font-family="Arial" font-size="10.00">range</text>
</g>
<!-- associatedWithDevice&#45;&gt;Device -->
<g id="edge29" class="edge">
<title>associatedWithDevice&#45;&gt;Device</title>
<path fill="none" stroke="green" d="M1134.34,-2472.97C1170.02,-2493.57 1229.02,-2527.64 1268.37,-2550.35"/>
<polygon fill="green" stroke="green" points="1267.02,-2553.62 1277.43,-2555.59 1270.52,-2547.55 1267.02,-2553.62"/>
<text text-anchor="middle" x="1192.21" y="-2517.47" font-family="Arial" font-size="10.00">range</text>
</g>
<!-- associatedWithDevice&#45;&gt;wasAssociatedWith -->
<g id="edge49" class="edge">
<title>associatedWithDevice&#45;&gt;wasAssociatedWith</title>
<path fill="none" stroke="red" stroke-dasharray="5,2" d="M1073.26,-2437.71C927.36,-2353.47 299.09,-1990.74 136.19,-1896.69"/>
<polygon fill="red" stroke="red" points="137.87,-1893.62 127.45,-1891.65 134.36,-1899.68 137.87,-1893.62"/>
<text text-anchor="middle" x="565.21" y="-2167.59" font-family="Arial" font-size="10.00">subPropertyOf</text>
</g>
<!-- unit -->
<g id="node41" class="node">
<title>unit</title>
<ellipse fill="lightyellow" stroke="black" cx="3416.62" cy="-4141.77" rx="28.7" ry="18"/>
<text text-anchor="middle" x="3416.62" y="-4138.07" font-family="Arial" font-size="14.00">unit</text>
</g>
<!-- hasTopConcept -->
<g id="node42" class="node">
<title>hasTopConcept</title>
<ellipse fill="lightyellow" stroke="black" cx="2982.62" cy="-4141.77" rx="79.09" ry="18"/>
<text text-anchor="middle" x="2982.62" y="-4138.07" font-family="Arial" font-size="14.00">hasTopConcept</text>
</g>
<!-- hasFeatureOfInterest -->
<g id="node43" class="node">
<title>hasFeatureOfInterest</title>
<ellipse fill="lightyellow" stroke="black" cx="4018.36" cy="-269.13" rx="105.88" ry="18"/>
<text text-anchor="middle" x="4018.36" y="-265.43" font-family="Arial" font-size="14.00">hasFeatureOfInterest</text>
</g>
<!-- wasCollectedFrom&#45;&gt;Participant -->
<g id="edge31" class="edge">
<title>wasCollectedFrom&#45;&gt;Participant</title>
<path fill="none" stroke="green" d="M4889.79,-6730.2C4970.28,-6661.02 5263.82,-6408.74 5357.42,-6328.3"/>
<polygon fill="green" stroke="green" points="5359.78,-6330.89 5365.08,-6321.72 5355.21,-6325.58 5359.78,-6330.89"/>
<text text-anchor="middle" x="5113.34" y="-6529.04" font-family="Arial" font-size="10.00">range</text>
</g>
<!-- topConceptOf -->
<g id="node45" class="node">
<title>topConceptOf</title>
<ellipse fill="lightyellow" stroke="black" cx="2976.62" cy="-3657.77" rx="73.39" ry="18"/>
<text text-anchor="middle" x="2976.62" y="-3654.07" font-family="Arial" font-size="14.00">topConceptOf</text>
</g>
<!-- featureOfInterest&#45;&gt;hasFeatureOfInterest -->
<g id="edge50" class="edge">
<title>featureOfInterest&#45;&gt;hasFeatureOfInterest</title>
<path fill="none" stroke="red" stroke-dasharray="5,2" d="M3830.74,-289.31C3858.33,-286.35 3889.55,-282.99 3918.49,-279.87"/>
<polygon fill="red" stroke="red" points="3919.05,-283.33 3928.62,-278.78 3918.3,-276.37 3919.05,-283.33"/>
<text text-anchor="middle" x="3879.69" y="-276.05" font-family="Arial" font-size="10.00">subPropertyOf</text>
</g>
<!-- supportsInferenceOf&#45;&gt;DigitalPhenotype -->
<g id="edge34" class="edge">
<title>supportsInferenceOf&#45;&gt;DigitalPhenotype</title>
<path fill="none" stroke="green" d="M2365.07,-84.49C2336.27,-84.49 2305.64,-84.49 2278.62,-84.49"/>
<polygon fill="green" stroke="green" points="2278.45,-80.99 2268.45,-84.49 2278.45,-87.99 2278.45,-80.99"/>
<text text-anchor="middle" x="2302.72" y="-87.49" font-family="Arial" font-size="10.00">range</text>
</g>
<!-- usedDevice&#45;&gt;Device -->
<g id="edge36" class="edge">
<title>usedDevice&#45;&gt;Device</title>
<path fill="none" stroke="green" d="M2140.15,-3053.68C2013.75,-2980.7 1497.73,-2682.77 1348.98,-2596.89"/>
<polygon fill="green" stroke="green" points="1350.53,-2593.75 1340.12,-2591.78 1347.03,-2599.81 1350.53,-2593.75"/>
<text text-anchor="middle" x="1726.02" y="-2825.66" font-family="Arial" font-size="10.00">range</text>
</g>
<!-- usedDevice&#45;&gt;used -->
<g id="edge47" class="edge">
<title>usedDevice&#45;&gt;used</title>
<path fill="none" stroke="red" stroke-dasharray="5,2" d="M2178.65,-3051.91C2193.49,-3026.21 2220.83,-2978.85 2237.9,-2949.28"/>
<polygon fill="red" stroke="red" points="2241.09,-2950.77 2243.06,-2940.36 2235.03,-2947.27 2241.09,-2950.77"/>
<text text-anchor="middle" x="2175.74" y="-2999.33" font-family="Arial" font-size="10.00">subPropertyOf</text>
</g>
<!-- wasComputedBy&#45;&gt;Computation -->
<g id="edge38" class="edge">
<title>wasComputedBy&#45;&gt;Computation</title>
<path fill="none" stroke="green" d="M2175.2,-6055.57C2187.85,-5871.2 2289.82,-4322.59 2234.85,-3070.02 2231.97,-3004.34 2224.21,-2988.48 2218.91,-2922.95 2202.61,-2721.44 2200.01,-2670.82 2194.61,-2468.72 2194.11,-2449.88 2194.59,-2445.16 2194.61,-2426.32 2195.46,-1677.03 2198.22,-758.68 2198.75,-586.76"/>
<polygon fill="green" stroke="green" points="2202.25,-586.75 2198.78,-576.74 2195.25,-586.72 2202.25,-586.75"/>
<text text-anchor="middle" x="2248.85" y="-3062.02" font-family="Arial" font-size="10.00">range</text>
</g>
<!-- wasAttributedTo&#45;&gt;Participant -->
<g id="edge40" class="edge">
<title>wasAttributedTo&#45;&gt;Participant</title>
<path fill="none" stroke="green" d="M4093.24,-4798.95C4227.8,-4955.52 5203.97,-6091.34 5364.1,-6277.66"/>
<polygon fill="green" stroke="green" points="5361.52,-6280.03 5370.7,-6285.33 5366.83,-6275.47 5361.52,-6280.03"/>
<text text-anchor="middle" x="4717.84" y="-5544.99" font-family="Arial" font-size="10.00">range</text>
</g>
<!-- wasAttributedTo&#45;&gt;wasAttributedTo -->
<g id="edge51" class="edge">
<title>wasAttributedTo&#45;&gt;wasAttributedTo</title>
<path fill="none" stroke="red" stroke-dasharray="5,2" d="M4111.79,-4797.64C4165.09,-4815.77 4233.06,-4810.24 4233.06,-4781.06 4233.06,-4753.65 4173.07,-4747.11 4121.61,-4761.44"/>
<polygon fill="red" stroke="red" points="4120.31,-4758.18 4111.79,-4764.47 4122.37,-4764.87 4120.31,-4758.18"/>
<text text-anchor="middle" x="4268.06" y="-4778.56" font-family="Arial" font-size="10.00">subPropertyOf</text>
</g>
<!-- occursDuring&#45;&gt;ObservationContext -->
<g id="edge42" class="edge">
<title>occursDuring&#45;&gt;ObservationContext</title>
<path fill="none" stroke="green" d="M3769.81,-4629.5C3772.55,-4593.18 3778.74,-4511.26 3782.03,-4467.75"/>
<polygon fill="green" stroke="green" points="3785.54,-4467.8 3782.8,-4457.56 3778.56,-4467.27 3785.54,-4467.8"/>
<text text-anchor="middle" x="3762.31" y="-4546.46" font-family="Arial" font-size="10.00">range</text>
</g>
<!-- narrower -->
<g id="node53" class="node">
<title>narrower</title>
<ellipse fill="lightyellow" stroke="black" cx="2954.62" cy="-3173.77" rx="50.89" ry="18"/>
<text text-anchor="middle" x="2954.62" y="-3170.07" font-family="Arial" font-size="14.00">narrower</text>
</g>
<!-- quantityValue&#45;&gt;QuantityValue -->
<g id="edge44" class="edge">
<title>quantityValue&#45;&gt;QuantityValue</title>
<path fill="none" stroke="green" d="M3364.08,-557.48C3343.22,-586.73 3301.6,-645.1 3277.18,-679.34"/>
<polygon fill="green" stroke="green" points="3274.03,-677.72 3271.08,-687.9 3279.73,-681.79 3274.03,-677.72"/>
<text text-anchor="middle" x="3303.63" y="-625.62" font-family="Arial" font-size="10.00">range</text>
</g>
</g>
</svg>
