<?xml version="1.0" encoding="UTF-8" standalone="no"?>
<!DOCTYPE svg PUBLIC "-//W3C//DTD SVG 1.1//EN"
 "http://www.w3.org/Graphics/SVG/1.1/DTD/svg11.dtd">
<!-- Generated by graphviz version 2.43.0 (0)
 -->
<!-- Title: Object Properties Pages: 1 -->
<svg width="1462pt" height="1936pt"
 viewBox="0.00 0.00 1461.62 1935.90" xmlns="http://www.w3.org/2000/svg" xmlns:xlink="http://www.w3.org/1999/xlink">
<g id="graph0" class="graph" transform="scale(1 1) rotate(0) translate(4 1931.9)">
<title>Object Properties</title>
<polygon fill="white" stroke="transparent" points="-4,4 -4,-1931.9 1457.62,-1931.9 1457.62,4 -4,4"/>
<!-- QuestionnaireEntry -->
<g id="node1" class="node">
<title>QuestionnaireEntry</title>
<polygon fill="lightblue" stroke="black" points="741.63,-665.54 586.63,-665.54 586.63,-629.54 741.63,-629.54 741.63,-665.54"/>
<text text-anchor="middle" x="664.13" y="-643.84" font-family="Arial" font-size="14.00">Questionnaire Entry</text>
</g>
<!-- hasResponseItem -->
<g id="node31" class="node">
<title>hasResponseItem</title>
<ellipse fill="lightyellow" stroke="black" cx="705.7" cy="-536.53" rx="93.68" ry="18"/>
<text text-anchor="middle" x="705.7" y="-532.83" font-family="Arial" font-size="14.00">has response item</text>
</g>
<!-- QuestionnaireEntry&#45;&gt;hasResponseItem -->
<g id="edge10" class="edge">
<title>QuestionnaireEntry&#45;&gt;hasResponseItem</title>
<path fill="none" stroke="blue" d="M670.99,-629.21C677.62,-611.51 687.74,-584.47 695.35,-564.16"/>
<polygon fill="blue" stroke="blue" points="698.73,-565.11 698.96,-554.52 692.18,-562.66 698.73,-565.11"/>
<text text-anchor="middle" x="666.53" y="-594.71" font-family="Arial" font-size="10.00">domain</text>
</g>
<!-- wasReportedBy -->
<g id="node39" class="node">
<title>wasReportedBy</title>
<ellipse fill="lightyellow" stroke="black" cx="620.43" cy="-762.84" rx="83.69" ry="18"/>
<text text-anchor="middle" x="620.43" y="-759.14" font-family="Arial" font-size="14.00">was reported by</text>
</g>
<!-- QuestionnaireEntry&#45;&gt;wasReportedBy -->
<g id="edge26" class="edge">
<title>QuestionnaireEntry&#45;&gt;wasReportedBy</title>
<path fill="none" stroke="blue" d="M657.3,-665.56C650.25,-684.15 639.17,-713.39 630.99,-734.97"/>
<polygon fill="blue" stroke="blue" points="627.63,-733.98 627.36,-744.57 634.17,-736.46 627.63,-733.98"/>
<text text-anchor="middle" x="623.87" y="-707.94" font-family="Arial" font-size="10.00">domain</text>
</g>
<!-- Computation -->
<g id="node2" class="node">
<title>Computation</title>
<polygon fill="lightblue" stroke="black" points="734.2,-1410.5 628.2,-1410.5 628.2,-1374.5 734.2,-1374.5 734.2,-1410.5"/>
<text text-anchor="middle" x="681.2" y="-1388.8" font-family="Arial" font-size="14.00">Computation</text>
</g>
<!-- infersPhenotype -->
<g id="node23" class="node">
<title>infersPhenotype</title>
<ellipse fill="lightyellow" stroke="black" cx="698.94" cy="-1496.39" rx="87.99" ry="18"/>
<text text-anchor="middle" x="698.94" y="-1492.69" font-family="Arial" font-size="14.00">infers phenotype</text>
</g>
<!-- Computation&#45;&gt;infersPhenotype -->
<g id="edge1" class="edge">
<title>Computation&#45;&gt;infersPhenotype</title>
<path fill="none" stroke="blue" d="M684.29,-1410.59C687.01,-1426.51 691.01,-1449.94 694.15,-1468.29"/>
<polygon fill="blue" stroke="blue" points="690.7,-1468.88 695.83,-1478.15 697.6,-1467.7 690.7,-1468.88"/>
<text text-anchor="middle" x="708.54" y="-1447.25" font-family="Arial" font-size="10.00">domain</text>
</g>
<!-- associatedWithDevice -->
<g id="node40" class="node">
<title>associatedWithDevice</title>
<ellipse fill="lightyellow" stroke="black" cx="550.77" cy="-1452.22" rx="133.48" ry="18"/>
<text text-anchor="middle" x="550.77" y="-1448.52" font-family="Arial" font-size="14.00">was associated with device</text>
</g>
<!-- Computation&#45;&gt;associatedWithDevice -->
<g id="edge28" class="edge">
<title>Computation&#45;&gt;associatedWithDevice</title>
<path fill="none" stroke="blue" d="M641.71,-1410.58C627.93,-1416.89 612.33,-1424.03 597.99,-1430.6"/>
<polygon fill="blue" stroke="blue" points="596.41,-1427.47 588.78,-1434.82 599.33,-1433.84 596.41,-1427.47"/>
<text text-anchor="middle" x="596.69" y="-1425.72" font-family="Arial" font-size="10.00">domain</text>
</g>
<!-- DataSet -->
<g id="node3" class="node">
<title>DataSet</title>
<polygon fill="lightblue" stroke="black" points="350.57,-825.86 274.57,-825.86 274.57,-789.86 350.57,-789.86 350.57,-825.86"/>
<text text-anchor="middle" x="312.57" y="-804.16" font-family="Arial" font-size="14.00">Data Set</text>
</g>
<!-- usedDataInterface -->
<g id="node34" class="node">
<title>usedDataInterface</title>
<ellipse fill="lightyellow" stroke="black" cx="210.75" cy="-760.39" rx="98.58" ry="18"/>
<text text-anchor="middle" x="210.75" y="-756.69" font-family="Arial" font-size="14.00">used data interface</text>
</g>
<!-- DataSet&#45;&gt;usedDataInterface -->
<g id="edge16" class="edge">
<title>DataSet&#45;&gt;usedDataInterface</title>
<path fill="none" stroke="blue" d="M274.37,-790.05C268.44,-787.28 262.27,-784.41 256.21,-781.58"/>
<polygon fill="blue" stroke="blue" points="257.35,-778.25 246.81,-777.2 254.4,-784.6 257.35,-778.25"/>
<text text-anchor="middle" x="241.98" y="-786.57" font-family="Arial" font-size="10.00">domain</text>
</g>
<!-- wasCollectedFrom -->
<g id="node44" class="node">
<title>wasCollectedFrom</title>
<ellipse fill="lightyellow" stroke="black" cx="428.7" cy="-851.86" rx="94.78" ry="18"/>
<text text-anchor="middle" x="428.7" y="-848.16" font-family="Arial" font-size="14.00">was collected from</text>
</g>
<!-- DataSet&#45;&gt;wasCollectedFrom -->
<g id="edge30" class="edge">
<title>DataSet&#45;&gt;wasCollectedFrom</title>
<path fill="none" stroke="blue" d="M350.59,-822.27C358.95,-825.43 367.94,-828.84 376.73,-832.17"/>
<polygon fill="blue" stroke="blue" points="375.58,-835.48 386.17,-835.75 378.06,-828.93 375.58,-835.48"/>
<text text-anchor="middle" x="386.96" y="-821.04" font-family="Arial" font-size="10.00">domain</text>
</g>
<!-- DigitalPhenotype -->
<g id="node4" class="node">
<title>DigitalPhenotype</title>
<polygon fill="lightblue" stroke="black" points="835.09,-1621.88 696.09,-1621.88 696.09,-1585.88 835.09,-1585.88 835.09,-1621.88"/>
<text text-anchor="middle" x="765.59" y="-1600.18" font-family="Arial" font-size="14.00">Digital Phenotype</text>
</g>
<!-- Question -->
<g id="node5" class="node">
<title>Question</title>
<polygon fill="lightblue" stroke="black" points="863.58,-233.79 784.58,-233.79 784.58,-197.79 863.58,-197.79 863.58,-233.79"/>
<text text-anchor="middle" x="824.08" y="-212.09" font-family="Arial" font-size="14.00">Question</text>
</g>
<!-- hasResponseFormat -->
<g id="node38" class="node">
<title>hasResponseFormat</title>
<ellipse fill="lightyellow" stroke="black" cx="875.13" cy="-116.38" rx="103.18" ry="18"/>
<text text-anchor="middle" x="875.13" y="-112.68" font-family="Arial" font-size="14.00">has response format</text>
</g>
<!-- Question&#45;&gt;hasResponseFormat -->
<g id="edge24" class="edge">
<title>Question&#45;&gt;hasResponseFormat</title>
<path fill="none" stroke="blue" d="M833.44,-197.56C841.21,-182.42 852.38,-160.68 861.2,-143.5"/>
<polygon fill="blue" stroke="blue" points="864.37,-144.99 865.83,-134.5 858.15,-141.79 864.37,-144.99"/>
<text text-anchor="middle" x="831.18" y="-168.95" font-family="Arial" font-size="10.00">domain</text>
</g>
<!-- Feature -->
<g id="node6" class="node">
<title>Feature</title>
<polygon fill="lightblue" stroke="black" points="963.29,-1557.23 895.29,-1557.23 895.29,-1521.23 963.29,-1521.23 963.29,-1557.23"/>
<text text-anchor="middle" x="929.29" y="-1535.53" font-family="Arial" font-size="14.00">Feature</text>
</g>
<!-- requiresComputation -->
<g id="node24" class="node">
<title>requiresComputation</title>
<ellipse fill="lightyellow" stroke="black" cx="835.47" cy="-1452.35" rx="106.68" ry="18"/>
<text text-anchor="middle" x="835.47" y="-1448.65" font-family="Arial" font-size="14.00">requires computation</text>
</g>
<!-- Feature&#45;&gt;requiresComputation -->
<g id="edge3" class="edge">
<title>Feature&#45;&gt;requiresComputation</title>
<path fill="none" stroke="blue" d="M909.85,-1521.23C896.14,-1508.53 877.59,-1491.35 862.45,-1477.33"/>
<polygon fill="blue" stroke="blue" points="864.6,-1474.55 854.88,-1470.33 859.84,-1479.69 864.6,-1474.55"/>
<text text-anchor="middle" x="863.93" y="-1498.83" font-family="Arial" font-size="10.00">domain</text>
</g>
<!-- hasMeasurement -->
<g id="node28" class="node">
<title>hasMeasurement</title>
<ellipse fill="lightyellow" stroke="black" cx="1039.36" cy="-1588.71" rx="92.08" ry="18"/>
<text text-anchor="middle" x="1039.36" y="-1585.01" font-family="Arial" font-size="14.00">has measurement</text>
</g>
<!-- Feature&#45;&gt;hasMeasurement -->
<g id="edge8" class="edge">
<title>Feature&#45;&gt;hasMeasurement</title>
<path fill="none" stroke="blue" d="M963.52,-1554.61C972.89,-1558.83 983.21,-1563.47 993.13,-1567.93"/>
<polygon fill="blue" stroke="blue" points="991.93,-1571.23 1002.48,-1572.13 994.8,-1564.84 991.93,-1571.23"/>
<text text-anchor="middle" x="1001.31" y="-1555.29" font-family="Arial" font-size="10.00">domain</text>
</g>
<!-- supportsInferenceOf -->
<g id="node47" class="node">
<title>supportsInferenceOf</title>
<ellipse fill="lightyellow" stroke="black" cx="868.56" cy="-1650.45" rx="107.48" ry="18"/>
<text text-anchor="middle" x="868.56" y="-1646.75" font-family="Arial" font-size="14.00">supports inference of</text>
</g>
<!-- Feature&#45;&gt;supportsInferenceOf -->
<g id="edge33" class="edge">
<title>Feature&#45;&gt;supportsInferenceOf</title>
<path fill="none" stroke="blue" d="M919.26,-1557.6C909.45,-1575.57 894.38,-1603.16 883.22,-1623.6"/>
<polygon fill="blue" stroke="blue" points="880.12,-1621.97 878.4,-1632.43 886.27,-1625.33 880.12,-1621.97"/>
<text text-anchor="middle" x="880.24" y="-1598.17" font-family="Arial" font-size="10.00">domain</text>
</g>
<!-- Thing -->
<g id="node7" class="node">
<title>Thing</title>
<polygon fill="lightblue" stroke="black" points="694.2,-1126.09 638.2,-1126.09 638.2,-1090.09 694.2,-1090.09 694.2,-1126.09"/>
<text text-anchor="middle" x="666.2" y="-1104.39" font-family="Arial" font-size="14.00">Thing</text>
</g>
<!-- wasGeneratedBy -->
<g id="node33" class="node">
<title>wasGeneratedBy</title>
<ellipse fill="lightyellow" stroke="black" cx="652.76" cy="-1252.5" rx="87.18" ry="18"/>
<text text-anchor="middle" x="652.76" y="-1248.8" font-family="Arial" font-size="14.00">wasGeneratedBy</text>
</g>
<!-- Thing&#45;&gt;wasGeneratedBy -->
<g id="edge14" class="edge">
<title>Thing&#45;&gt;wasGeneratedBy</title>
<path fill="none" stroke="blue" d="M664.5,-1126.38C662.2,-1151.01 658.1,-1195.09 655.41,-1224.07"/>
<polygon fill="blue" stroke="blue" points="651.89,-1224.08 654.45,-1234.36 658.86,-1224.73 651.89,-1224.08"/>
<text text-anchor="middle" x="640.94" y="-1183.67" font-family="Arial" font-size="10.00">domain</text>
</g>
<!-- hasContext -->
<g id="node35" class="node">
<title>hasContext</title>
<ellipse fill="lightyellow" stroke="black" cx="810.07" cy="-1067.29" rx="63.89" ry="18"/>
<text text-anchor="middle" x="810.07" y="-1063.59" font-family="Arial" font-size="14.00">has context</text>
</g>
<!-- Thing&#45;&gt;hasContext -->
<g id="edge18" class="edge">
<title>Thing&#45;&gt;hasContext</title>
<path fill="none" stroke="blue" d="M694.28,-1100.13C711.65,-1095.21 734.53,-1088.72 755.36,-1082.81"/>
<polygon fill="blue" stroke="blue" points="756.41,-1086.15 765.07,-1080.05 754.5,-1079.42 756.41,-1086.15"/>
<text text-anchor="middle" x="711.46" y="-1082.01" font-family="Arial" font-size="10.00">domain</text>
</g>
<!-- wasAttributedTo -->
<g id="node51" class="node">
<title>wasAttributedTo</title>
<ellipse fill="lightyellow" stroke="black" cx="594.72" cy="-1007.04" rx="83.39" ry="18"/>
<text text-anchor="middle" x="594.72" y="-1003.34" font-family="Arial" font-size="14.00">wasAttributedTo</text>
</g>
<!-- Thing&#45;&gt;wasAttributedTo -->
<g id="edge39" class="edge">
<title>Thing&#45;&gt;wasAttributedTo</title>
<path fill="none" stroke="blue" d="M653.42,-1090.03C642.24,-1074.22 625.86,-1051.06 613.24,-1033.22"/>
<polygon fill="blue" stroke="blue" points="616.02,-1031.09 607.38,-1024.95 610.3,-1035.13 616.02,-1031.09"/>
<text text-anchor="middle" x="611.71" y="-1060.22" font-family="Arial" font-size="10.00">domain</text>
</g>
<!-- occursDuring -->
<g id="node52" class="node">
<title>occursDuring</title>
<ellipse fill="lightyellow" stroke="black" cx="759.48" cy="-1023.28" rx="73.39" ry="18"/>
<text text-anchor="middle" x="759.48" y="-1019.58" font-family="Arial" font-size="14.00">occurs during</text>
</g>
<!-- Thing&#45;&gt;occursDuring -->
<g id="edge41" class="edge">
<title>Thing&#45;&gt;occursDuring</title>
<path fill="none" stroke="blue" d="M686.44,-1089.69C699.91,-1077.44 717.77,-1061.21 732.45,-1047.85"/>
<polygon fill="blue" stroke="blue" points="735.19,-1050.09 740.23,-1040.78 730.48,-1044.91 735.19,-1050.09"/>
<text text-anchor="middle" x="694.62" y="-1068.43" font-family="Arial" font-size="10.00">domain</text>
</g>
<!-- ResponseFormat -->
<g id="node8" class="node">
<title>ResponseFormat</title>
<polygon fill="lightblue" stroke="black" points="994.45,-36 858.45,-36 858.45,0 994.45,0 994.45,-36"/>
<text text-anchor="middle" x="926.45" y="-14.3" font-family="Arial" font-size="14.00">Response Format</text>
</g>
<!-- DataTransferEvent -->
<g id="node9" class="node">
<title>DataTransferEvent</title>
<polygon fill="lightblue" stroke="black" points="304.04,-1551.66 149.04,-1551.66 149.04,-1515.66 304.04,-1515.66 304.04,-1551.66"/>
<text text-anchor="middle" x="226.54" y="-1529.96" font-family="Arial" font-size="14.00">Data Transfer Event</text>
</g>
<!-- usedDevice -->
<g id="node49" class="node">
<title>usedDevice</title>
<ellipse fill="lightyellow" stroke="black" cx="336.47" cy="-1586.42" rx="64.99" ry="18"/>
<text text-anchor="middle" x="336.47" y="-1582.72" font-family="Arial" font-size="14.00">used device</text>
</g>
<!-- DataTransferEvent&#45;&gt;usedDevice -->
<g id="edge35" class="edge">
<title>DataTransferEvent&#45;&gt;usedDevice</title>
<path fill="none" stroke="blue" d="M264.06,-1551.67C273.97,-1556.43 284.72,-1561.58 294.83,-1566.44"/>
<polygon fill="blue" stroke="blue" points="293.36,-1569.61 303.89,-1570.78 296.39,-1563.3 293.36,-1569.61"/>
<text text-anchor="middle" x="302.25" y="-1553.12" font-family="Arial" font-size="10.00">domain</text>
</g>
<!-- QuantityValue -->
<g id="node10" class="node">
<title>QuantityValue</title>
<polygon fill="lightblue" stroke="black" points="1453.62,-1609.79 1339.62,-1609.79 1339.62,-1573.79 1453.62,-1573.79 1453.62,-1609.79"/>
<text text-anchor="middle" x="1396.62" y="-1588.09" font-family="Arial" font-size="14.00">QuantityValue</text>
</g>
<!-- ObservationContext -->
<g id="node11" class="node">
<title>ObservationContext</title>
<polygon fill="lightblue" stroke="black" points="1001.02,-1000.57 841.02,-1000.57 841.02,-964.57 1001.02,-964.57 1001.02,-1000.57"/>
<text text-anchor="middle" x="921.02" y="-978.87" font-family="Arial" font-size="14.00">Observation Context</text>
</g>
<!-- Device -->
<g id="node12" class="node">
<title>Device</title>
<polygon fill="lightblue" stroke="black" points="468.67,-1525.33 405.67,-1525.33 405.67,-1489.33 468.67,-1489.33 468.67,-1525.33"/>
<text text-anchor="middle" x="437.17" y="-1503.63" font-family="Arial" font-size="14.00">Device</text>
</g>
<!-- DerivedFeature -->
<g id="node13" class="node">
<title>DerivedFeature</title>
<polygon fill="lightblue" stroke="black" points="887.85,-1262.32 760.85,-1262.32 760.85,-1226.32 887.85,-1226.32 887.85,-1262.32"/>
<text text-anchor="middle" x="824.35" y="-1240.62" font-family="Arial" font-size="14.00">Derived Feature</text>
</g>
<!-- wasDerivedFrom -->
<g id="node32" class="node">
<title>wasDerivedFrom</title>
<ellipse fill="lightyellow" stroke="black" cx="773.97" cy="-1152.14" rx="85.29" ry="18"/>
<text text-anchor="middle" x="773.97" y="-1148.44" font-family="Arial" font-size="14.00">wasDerivedFrom</text>
</g>
<!-- DerivedFeature&#45;&gt;wasDerivedFrom -->
<g id="edge12" class="edge">
<title>DerivedFeature&#45;&gt;wasDerivedFrom</title>
<path fill="none" stroke="blue" d="M814.39,-1226.11C807.08,-1212.73 797.02,-1194.32 788.77,-1179.21"/>
<polygon fill="blue" stroke="blue" points="791.77,-1177.41 783.91,-1170.31 785.63,-1180.77 791.77,-1177.41"/>
<text text-anchor="middle" x="780.71" y="-1201.32" font-family="Arial" font-size="10.00">domain</text>
</g>
<!-- wasComputedBy -->
<g id="node50" class="node">
<title>wasComputedBy</title>
<ellipse fill="lightyellow" stroke="black" cx="762.06" cy="-1341.45" rx="90.98" ry="18"/>
<text text-anchor="middle" x="762.06" y="-1337.75" font-family="Arial" font-size="14.00">was computed by</text>
</g>
<!-- DerivedFeature&#45;&gt;wasComputedBy -->
<g id="edge37" class="edge">
<title>DerivedFeature&#45;&gt;wasComputedBy</title>
<path fill="none" stroke="blue" d="M812.63,-1262.59C803.17,-1277.34 789.74,-1298.29 779.09,-1314.89"/>
<polygon fill="blue" stroke="blue" points="775.96,-1313.29 773.51,-1323.6 781.85,-1317.07 775.96,-1313.29"/>
<text text-anchor="middle" x="774.77" y="-1295.78" font-family="Arial" font-size="10.00">domain</text>
</g>
<!-- SleepStageMeasurement -->
<g id="node14" class="node">
<title>SleepStageMeasurement</title>
<polygon fill="lightblue" stroke="black" points="978,-837.93 780,-837.93 780,-801.93 978,-801.93 978,-837.93"/>
<text text-anchor="middle" x="879" y="-816.23" font-family="Arial" font-size="14.00">Sleep Stage Measurement</text>
</g>
<!-- hasStage -->
<g id="node37" class="node">
<title>hasStage</title>
<ellipse fill="lightyellow" stroke="black" cx="1040.61" cy="-798" rx="54.69" ry="18"/>
<text text-anchor="middle" x="1040.61" y="-794.3" font-family="Arial" font-size="14.00">has stage</text>
</g>
<!-- SleepStageMeasurement&#45;&gt;hasStage -->
<g id="edge22" class="edge">
<title>SleepStageMeasurement&#45;&gt;hasStage</title>
<path fill="none" stroke="blue" d="M978.13,-806.48C978.76,-806.39 979.39,-806.31 980.02,-806.22"/>
<polygon fill="blue" stroke="blue" points="980.6,-809.67 990.04,-804.86 979.66,-802.74 980.6,-809.67"/>
<text text-anchor="middle" x="970.71" y="-798.23" font-family="Arial" font-size="10.00">domain</text>
</g>
<!-- Measurement -->
<g id="node15" class="node">
<title>Measurement</title>
<polygon fill="lightblue" stroke="black" points="1203.25,-1678.91 1092.25,-1678.91 1092.25,-1642.91 1203.25,-1642.91 1203.25,-1678.91"/>
<text text-anchor="middle" x="1147.75" y="-1657.21" font-family="Arial" font-size="14.00">Measurement</text>
</g>
<!-- observedProperty -->
<g id="node26" class="node">
<title>observedProperty</title>
<ellipse fill="lightyellow" stroke="black" cx="1073.32" cy="-1791.67" rx="90.98" ry="18"/>
<text text-anchor="middle" x="1073.32" y="-1787.97" font-family="Arial" font-size="14.00">observedProperty</text>
</g>
<!-- Measurement&#45;&gt;observedProperty -->
<g id="edge7" class="edge">
<title>Measurement&#45;&gt;observedProperty</title>
<path fill="none" stroke="blue" d="M1137.4,-1679.09C1124.74,-1701.34 1103.18,-1739.21 1088.61,-1764.81"/>
<polygon fill="blue" stroke="blue" points="1085.49,-1763.22 1083.58,-1773.64 1091.57,-1766.68 1085.49,-1763.22"/>
<text text-anchor="middle" x="1092.12" y="-1729.14" font-family="Arial" font-size="10.00">domain</text>
</g>
<!-- featureOfInterest -->
<g id="node46" class="node">
<title>featureOfInterest</title>
<ellipse fill="lightyellow" stroke="black" cx="1264.12" cy="-1749.71" rx="91.78" ry="18"/>
<text text-anchor="middle" x="1264.12" y="-1746.01" font-family="Arial" font-size="14.00">feature of interest</text>
</g>
<!-- Measurement&#45;&gt;featureOfInterest -->
<g id="edge32" class="edge">
<title>Measurement&#45;&gt;featureOfInterest</title>
<path fill="none" stroke="blue" d="M1171.58,-1679.1C1189.31,-1692.62 1213.66,-1711.2 1232.93,-1725.91"/>
<polygon fill="blue" stroke="blue" points="1231.04,-1728.87 1241.12,-1732.15 1235.29,-1723.3 1231.04,-1728.87"/>
<text text-anchor="middle" x="1187.7" y="-1708.51" font-family="Arial" font-size="10.00">domain</text>
</g>
<!-- quantityValue -->
<g id="node54" class="node">
<title>quantityValue</title>
<ellipse fill="lightyellow" stroke="black" cx="1256.16" cy="-1605.65" rx="75.29" ry="18"/>
<text text-anchor="middle" x="1256.16" y="-1601.95" font-family="Arial" font-size="14.00">quantity value</text>
</g>
<!-- Measurement&#45;&gt;quantityValue -->
<g id="edge43" class="edge">
<title>Measurement&#45;&gt;quantityValue</title>
<path fill="none" stroke="blue" d="M1183.25,-1642.82C1193.37,-1637.66 1204.49,-1631.99 1214.93,-1626.67"/>
<polygon fill="blue" stroke="blue" points="1216.56,-1629.76 1223.88,-1622.1 1213.38,-1623.53 1216.56,-1629.76"/>
<text text-anchor="middle" x="1221.99" y="-1635.5" font-family="Arial" font-size="10.00">domain</text>
</g>
<!-- AppInterface -->
<g id="node16" class="node">
<title>AppInterface</title>
<polygon fill="lightblue" stroke="black" points="111,-1818.57 0,-1818.57 0,-1782.57 111,-1782.57 111,-1818.57"/>
<text text-anchor="middle" x="55.5" y="-1796.87" font-family="Arial" font-size="14.00">App Interface</text>
</g>
<!-- ResponseItem -->
<g id="node17" class="node">
<title>ResponseItem</title>
<polygon fill="lightblue" stroke="black" points="803.44,-445.47 684.44,-445.47 684.44,-409.47 803.44,-409.47 803.44,-445.47"/>
<text text-anchor="middle" x="743.94" y="-423.77" font-family="Arial" font-size="14.00">Response Item</text>
</g>
<!-- answersQuestion -->
<g id="node25" class="node">
<title>answersQuestion</title>
<ellipse fill="lightyellow" stroke="black" cx="783.03" cy="-320.63" rx="90.18" ry="18"/>
<text text-anchor="middle" x="783.03" y="-316.93" font-family="Arial" font-size="14.00">answers question</text>
</g>
<!-- ResponseItem&#45;&gt;answersQuestion -->
<g id="edge5" class="edge">
<title>ResponseItem&#45;&gt;answersQuestion</title>
<path fill="none" stroke="blue" d="M750.57,-409.34C756.69,-392.61 765.87,-367.52 772.91,-348.29"/>
<polygon fill="blue" stroke="blue" points="776.21,-349.43 776.36,-338.84 769.64,-347.03 776.21,-349.43"/>
<text text-anchor="middle" x="744.93" y="-377.18" font-family="Arial" font-size="10.00">domain</text>
</g>
<!-- SleepStage -->
<g id="node18" class="node">
<title>SleepStage</title>
<polygon fill="lightblue" stroke="black" points="1248.68,-844.48 1153.68,-844.48 1153.68,-808.48 1248.68,-808.48 1248.68,-844.48"/>
<text text-anchor="middle" x="1201.18" y="-822.78" font-family="Arial" font-size="14.00">SleepStage</text>
</g>
<!-- NotificationEvent -->
<g id="node19" class="node">
<title>NotificationEvent</title>
<polygon fill="lightblue" stroke="black" points="268.16,-1927.9 128.16,-1927.9 128.16,-1891.9 268.16,-1891.9 268.16,-1927.9"/>
<text text-anchor="middle" x="198.16" y="-1906.2" font-family="Arial" font-size="14.00">Notification Event</text>
</g>
<!-- usedAppInterface -->
<g id="node36" class="node">
<title>usedAppInterface</title>
<ellipse fill="lightyellow" stroke="black" cx="214.68" cy="-1787.48" rx="95.58" ry="18"/>
<text text-anchor="middle" x="214.68" y="-1783.78" font-family="Arial" font-size="14.00">used app interface</text>
</g>
<!-- NotificationEvent&#45;&gt;usedAppInterface -->
<g id="edge20" class="edge">
<title>NotificationEvent&#45;&gt;usedAppInterface</title>
<path fill="none" stroke="blue" d="M200.6,-1891.84C203.31,-1871.77 207.72,-1839.1 210.88,-1815.66"/>
<polygon fill="blue" stroke="blue" points="214.37,-1816 212.24,-1805.62 207.43,-1815.06 214.37,-1816"/>
<text text-anchor="middle" x="187.93" y="-1851.62" font-family="Arial" font-size="10.00">domain</text>
</g>
<!-- Participant -->
<g id="node20" class="node">
<title>Participant</title>
<polygon fill="lightblue" stroke="black" points="621.71,-903.63 531.71,-903.63 531.71,-867.63 621.71,-867.63 621.71,-903.63"/>
<text text-anchor="middle" x="576.71" y="-881.93" font-family="Arial" font-size="14.00">Participant</text>
</g>
<!-- DataInterface -->
<g id="node21" class="node">
<title>DataInterface</title>
<polygon fill="lightblue" stroke="black" points="165.47,-728.25 49.47,-728.25 49.47,-692.25 165.47,-692.25 165.47,-728.25"/>
<text text-anchor="middle" x="107.47" y="-706.55" font-family="Arial" font-size="14.00">Data Interface</text>
</g>
<!-- inScheme -->
<g id="node22" class="node">
<title>inScheme</title>
<ellipse fill="lightyellow" stroke="black" cx="895.25" cy="-738" rx="55.49" ry="18"/>
<text text-anchor="middle" x="895.25" y="-734.3" font-family="Arial" font-size="14.00">inScheme</text>
</g>
<!-- infersPhenotype&#45;&gt;DigitalPhenotype -->
<g id="edge2" class="edge">
<title>infersPhenotype&#45;&gt;DigitalPhenotype</title>
<path fill="none" stroke="green" d="M710.25,-1514.62C720.83,-1531.69 736.77,-1557.4 748.83,-1576.85"/>
<polygon fill="green" stroke="green" points="745.99,-1578.9 754.23,-1585.56 751.94,-1575.21 745.99,-1578.9"/>
<text text-anchor="middle" x="718.19" y="-1553.01" font-family="Arial" font-size="10.00">range</text>
</g>
<!-- requiresComputation&#45;&gt;Computation -->
<g id="edge4" class="edge">
<title>requiresComputation&#45;&gt;Computation</title>
<path fill="none" stroke="green" d="M792.91,-1435.83C775.67,-1429.15 755.52,-1421.33 737.12,-1414.19"/>
<polygon fill="green" stroke="green" points="738.27,-1410.88 727.69,-1410.53 735.74,-1417.41 738.27,-1410.88"/>
<text text-anchor="middle" x="746.55" y="-1426.28" font-family="Arial" font-size="10.00">range</text>
</g>
<!-- answersQuestion&#45;&gt;Question -->
<g id="edge6" class="edge">
<title>answersQuestion&#45;&gt;Question</title>
<path fill="none" stroke="green" d="M790.18,-302.37C796.56,-286.06 806.01,-261.93 813.31,-243.29"/>
<polygon fill="green" stroke="green" points="816.62,-244.43 817.01,-233.84 810.1,-241.88 816.62,-244.43"/>
<text text-anchor="middle" x="789.51" y="-271.32" font-family="Arial" font-size="10.00">range</text>
</g>
<!-- observedProperty&#45;&gt;observedProperty -->
<g id="edge52" class="edge">
<title>observedProperty&#45;&gt;observedProperty</title>
<path fill="none" stroke="red" stroke-dasharray="5,2" d="M1108.94,-1808.25C1164.92,-1826.38 1236.31,-1820.85 1236.31,-1791.67 1236.31,-1764.14 1172.78,-1757.66 1118.58,-1772.23"/>
<polygon fill="red" stroke="red" points="1117.54,-1768.89 1108.94,-1775.08 1119.52,-1775.6 1117.54,-1768.89"/>
<text text-anchor="middle" x="1271.31" y="-1789.17" font-family="Arial" font-size="10.00">subPropertyOf</text>
</g>
<!-- related -->
<g id="node27" class="node">
<title>related</title>
<ellipse fill="lightyellow" stroke="black" cx="522.25" cy="-1158" rx="42.49" ry="18"/>
<text text-anchor="middle" x="522.25" y="-1154.3" font-family="Arial" font-size="14.00">related</text>
</g>
<!-- hasMeasurement&#45;&gt;Measurement -->
<g id="edge9" class="edge">
<title>hasMeasurement&#45;&gt;Measurement</title>
<path fill="none" stroke="green" d="M1065.32,-1606C1079.25,-1615.28 1096.63,-1626.86 1111.83,-1636.98"/>
<polygon fill="green" stroke="green" points="1110.23,-1640.12 1120.49,-1642.75 1114.11,-1634.3 1110.23,-1640.12"/>
<text text-anchor="middle" x="1078.98" y="-1627.43" font-family="Arial" font-size="10.00">range</text>
</g>
<!-- wasAssociatedWith -->
<g id="node29" class="node">
<title>wasAssociatedWith</title>
<ellipse fill="lightyellow" stroke="black" cx="551.09" cy="-1562.09" rx="97.48" ry="18"/>
<text text-anchor="middle" x="551.09" y="-1558.39" font-family="Arial" font-size="14.00">wasAssociatedWith</text>
</g>
<!-- broader -->
<g id="node30" class="node">
<title>broader</title>
<ellipse fill="lightyellow" stroke="black" cx="466.15" cy="-1278" rx="46.29" ry="18"/>
<text text-anchor="middle" x="466.15" y="-1274.3" font-family="Arial" font-size="14.00">broader</text>
</g>
<!-- hasResponseItem&#45;&gt;ResponseItem -->
<g id="edge11" class="edge">
<title>hasResponseItem&#45;&gt;ResponseItem</title>
<path fill="none" stroke="green" d="M712.01,-518.52C718.07,-501.24 727.31,-474.89 734.3,-454.97"/>
<polygon fill="green" stroke="green" points="737.61,-456.1 737.62,-445.5 731,-453.78 737.61,-456.1"/>
<text text-anchor="middle" x="710.85" y="-484.92" font-family="Arial" font-size="10.00">range</text>
</g>
<!-- wasDerivedFrom&#45;&gt;Thing -->
<g id="edge13" class="edge">
<title>wasDerivedFrom&#45;&gt;Thing</title>
<path fill="none" stroke="green" d="M734.76,-1136.11C724.63,-1131.97 713.76,-1127.53 703.72,-1123.43"/>
<polygon fill="green" stroke="green" points="704.99,-1120.16 694.41,-1119.62 702.34,-1126.64 704.99,-1120.16"/>
<text text-anchor="middle" x="728.8" y="-1119.95" font-family="Arial" font-size="10.00">range</text>
</g>
<!-- wasDerivedFrom&#45;&gt;wasDerivedFrom -->
<g id="edge45" class="edge">
<title>wasDerivedFrom&#45;&gt;wasDerivedFrom</title>
<path fill="none" stroke="red" stroke-dasharray="5,2" d="M808.32,-1168.72C862.29,-1186.84 931.12,-1181.32 931.12,-1152.14 931.12,-1124.67 870.12,-1118.16 817.94,-1132.61"/>
<polygon fill="red" stroke="red" points="816.86,-1129.28 808.32,-1135.55 818.9,-1135.97 816.86,-1129.28"/>
<text text-anchor="middle" x="966.12" y="-1149.64" font-family="Arial" font-size="10.00">subPropertyOf</text>
</g>
<!-- wasGeneratedBy&#45;&gt;Computation -->
<g id="edge15" class="edge">
<title>wasGeneratedBy&#45;&gt;Computation</title>
<path fill="none" stroke="green" d="M655.95,-1270.57C659.16,-1288.54 664.37,-1316.88 669.47,-1341.29 671.01,-1348.7 672.79,-1356.68 674.48,-1364.08"/>
<polygon fill="green" stroke="green" points="671.12,-1365.1 676.79,-1374.05 677.94,-1363.52 671.12,-1365.1"/>
<text text-anchor="middle" x="651.72" y="-1325.77" font-family="Arial" font-size="10.00">range</text>
</g>
<!-- wasGeneratedBy&#45;&gt;wasGeneratedBy -->
<g id="edge48" class="edge">
<title>wasGeneratedBy&#45;&gt;wasGeneratedBy</title>
<path fill="none" stroke="red" stroke-dasharray="5,2" d="M687.53,-1269.09C742.17,-1287.21 811.85,-1281.68 811.85,-1252.5 811.85,-1225.03 750.1,-1218.52 697.27,-1232.97"/>
<polygon fill="red" stroke="red" points="696.09,-1229.67 687.53,-1235.92 698.12,-1236.38 696.09,-1229.67"/>
<text text-anchor="middle" x="846.85" y="-1250" font-family="Arial" font-size="10.00">subPropertyOf</text>
</g>
<!-- usedDataInterface&#45;&gt;DataInterface -->
<g id="edge17" class="edge">
<title>usedDataInterface&#45;&gt;DataInterface</title>
<path fill="none" stroke="green" d="M175.79,-743.41C168.79,-740.01 161.34,-736.4 154.02,-732.85"/>
<polygon fill="green" stroke="green" points="155.4,-729.62 144.88,-728.41 152.34,-735.92 155.4,-729.62"/>
<text text-anchor="middle" x="174.21" y="-727.85" font-family="Arial" font-size="10.00">range</text>
</g>
<!-- hasContext&#45;&gt;ObservationContext -->
<g id="edge19" class="edge">
<title>hasContext&#45;&gt;ObservationContext</title>
<path fill="none" stroke="green" d="M832.25,-1050.35C848.6,-1037.87 871.05,-1020.73 889.29,-1006.8"/>
<polygon fill="green" stroke="green" points="891.51,-1009.51 897.34,-1000.66 887.26,-1003.94 891.51,-1009.51"/>
<text text-anchor="middle" x="850.73" y="-1028.55" font-family="Arial" font-size="10.00">range</text>
</g>
<!-- usedAppInterface&#45;&gt;AppInterface -->
<g id="edge21" class="edge">
<title>usedAppInterface&#45;&gt;AppInterface</title>
<path fill="none" stroke="green" d="M126.71,-1794.72C124.93,-1794.86 123.16,-1795.01 121.39,-1795.15"/>
<polygon fill="green" stroke="green" points="121.09,-1791.67 111.41,-1795.97 121.67,-1798.64 121.09,-1791.67"/>
<text text-anchor="middle" x="107.48" y="-1798.15" font-family="Arial" font-size="10.00">range</text>
</g>
<!-- used -->
<g id="node48" class="node">
<title>used</title>
<ellipse fill="lightyellow" stroke="black" cx="286.17" cy="-1698.59" rx="32.49" ry="18"/>
<text text-anchor="middle" x="286.17" y="-1694.89" font-family="Arial" font-size="14.00">used</text>
</g>
<!-- usedAppInterface&#45;&gt;used -->
<g id="edge46" class="edge">
<title>usedAppInterface&#45;&gt;used</title>
<path fill="none" stroke="red" stroke-dasharray="5,2" d="M229.15,-1769.49C239.86,-1756.18 254.57,-1737.88 266.37,-1723.21"/>
<polygon fill="red" stroke="red" points="269.39,-1725.04 272.93,-1715.05 263.94,-1720.65 269.39,-1725.04"/>
<text text-anchor="middle" x="216.01" y="-1745.31" font-family="Arial" font-size="10.00">subPropertyOf</text>
</g>
<!-- hasStage&#45;&gt;SleepStage -->
<g id="edge23" class="edge">
<title>hasStage&#45;&gt;SleepStage</title>
<path fill="none" stroke="green" d="M1088.79,-806.54C1106.01,-809.6 1125.6,-813.07 1143.54,-816.25"/>
<polygon fill="green" stroke="green" points="1143.14,-819.74 1153.59,-818.04 1144.36,-812.84 1143.14,-819.74"/>
<text text-anchor="middle" x="1135.13" y="-815.28" font-family="Arial" font-size="10.00">range</text>
</g>
<!-- hasResponseFormat&#45;&gt;ResponseFormat -->
<g id="edge25" class="edge">
<title>hasResponseFormat&#45;&gt;ResponseFormat</title>
<path fill="none" stroke="green" d="M884.54,-98.33C892.31,-83.45 903.44,-62.1 912.28,-45.16"/>
<polygon fill="green" stroke="green" points="915.4,-46.75 916.92,-36.26 909.19,-43.51 915.4,-46.75"/>
<text text-anchor="middle" x="886.75" y="-70.26" font-family="Arial" font-size="10.00">range</text>
</g>
<!-- wasReportedBy&#45;&gt;Participant -->
<g id="edge27" class="edge">
<title>wasReportedBy&#45;&gt;Participant</title>
<path fill="none" stroke="green" d="M613.98,-780.95C606.75,-801.27 594.93,-834.44 586.55,-858"/>
<polygon fill="green" stroke="green" points="583.24,-856.84 583.19,-867.44 589.84,-859.19 583.24,-856.84"/>
<text text-anchor="middle" x="584.62" y="-827.09" font-family="Arial" font-size="10.00">range</text>
</g>
<!-- associatedWithDevice&#45;&gt;Device -->
<g id="edge29" class="edge">
<title>associatedWithDevice&#45;&gt;Device</title>
<path fill="none" stroke="green" d="M514.82,-1469.66C503.23,-1475.28 490.29,-1481.56 478.36,-1487.35"/>
<polygon fill="green" stroke="green" points="476.51,-1484.35 469.04,-1491.87 479.56,-1490.65 476.51,-1484.35"/>
<text text-anchor="middle" x="505.79" y="-1483.83" font-family="Arial" font-size="10.00">range</text>
</g>
<!-- associatedWithDevice&#45;&gt;wasAssociatedWith -->
<g id="edge49" class="edge">
<title>associatedWithDevice&#45;&gt;wasAssociatedWith</title>
<path fill="none" stroke="red" stroke-dasharray="5,2" d="M550.82,-1470.37C550.87,-1487.62 550.95,-1513.84 551,-1533.83"/>
<polygon fill="red" stroke="red" points="547.5,-1533.93 551.03,-1543.92 554.5,-1533.91 547.5,-1533.93"/>
<text text-anchor="middle" x="515.93" y="-1509.87" font-family="Arial" font-size="10.00">subPropertyOf</text>
</g>
<!-- unit -->
<g id="node41" class="node">
<title>unit</title>
<ellipse fill="lightyellow" stroke="black" cx="448.6" cy="-678" rx="28.7" ry="18"/>
<text text-anchor="middle" x="448.6" y="-674.3" font-family="Arial" font-size="14.00">unit</text>
</g>
<!-- hasTopConcept -->
<g id="node42" class="node">
<title>hasTopConcept</title>
<ellipse fill="lightyellow" stroke="black" cx="1099.29" cy="-678" rx="79.09" ry="18"/>
<text text-anchor="middle" x="1099.29" y="-674.3" font-family="Arial" font-size="14.00">hasTopConcept</text>
</g>
<!-- hasFeatureOfInterest -->
<g id="node43" class="node">
<title>hasFeatureOfInterest</title>
<ellipse fill="lightyellow" stroke="black" cx="1300.75" cy="-1858.11" rx="105.88" ry="18"/>
<text text-anchor="middle" x="1300.75" y="-1854.41" font-family="Arial" font-size="14.00">hasFeatureOfInterest</text>
</g>
<!-- wasCollectedFrom&#45;&gt;Participant -->
<g id="edge31" class="edge">
<title>wasCollectedFrom&#45;&gt;Participant</title>
<path fill="none" stroke="green" d="M489.75,-865.79C500.37,-868.22 511.36,-870.72 521.81,-873.11"/>
<polygon fill="green" stroke="green" points="521.09,-876.53 531.62,-875.34 522.65,-869.71 521.09,-876.53"/>
<text text-anchor="middle" x="496.88" y="-873.61" font-family="Arial" font-size="10.00">range</text>
</g>
<!-- topConceptOf -->
<g id="node45" class="node">
<title>topConceptOf</title>
<ellipse fill="lightyellow" stroke="black" cx="1093.44" cy="-1098" rx="73.39" ry="18"/>
<text text-anchor="middle" x="1093.44" y="-1094.3" font-family="Arial" font-size="14.00">topConceptOf</text>
</g>
<!-- featureOfInterest&#45;&gt;hasFeatureOfInterest -->
<g id="edge50" class="edge">
<title>featureOfInterest&#45;&gt;hasFeatureOfInterest</title>
<path fill="none" stroke="red" stroke-dasharray="5,2" d="M1270.33,-1768.09C1276.1,-1785.17 1284.78,-1810.84 1291.38,-1830.4"/>
<polygon fill="red" stroke="red" points="1288.11,-1831.64 1294.63,-1839.99 1294.74,-1829.4 1288.11,-1831.64"/>
<text text-anchor="middle" x="1247.47" y="-1807" font-family="Arial" font-size="10.00">subPropertyOf</text>
</g>
<!-- supportsInferenceOf&#45;&gt;DigitalPhenotype -->
<g id="edge34" class="edge">
<title>supportsInferenceOf&#45;&gt;DigitalPhenotype</title>
<path fill="none" stroke="green" d="M831.1,-1633.51C825.79,-1631.11 820.27,-1628.61 814.79,-1626.13"/>
<polygon fill="green" stroke="green" points="816.19,-1622.92 805.63,-1621.99 813.3,-1629.3 816.19,-1622.92"/>
<text text-anchor="middle" x="832.39" y="-1619.76" font-family="Arial" font-size="10.00">range</text>
</g>
<!-- usedDevice&#45;&gt;Device -->
<g id="edge36" class="edge">
<title>usedDevice&#45;&gt;Device</title>
<path fill="none" stroke="green" d="M358.32,-1569.26C372.18,-1558.37 390.34,-1544.11 405.74,-1532.02"/>
<polygon fill="green" stroke="green" points="408.26,-1534.49 413.96,-1525.56 403.94,-1528.98 408.26,-1534.49"/>
<text text-anchor="middle" x="372.08" y="-1550.46" font-family="Arial" font-size="10.00">range</text>
</g>
<!-- usedDevice&#45;&gt;used -->
<g id="edge47" class="edge">
<title>usedDevice&#45;&gt;used</title>
<path fill="none" stroke="red" stroke-dasharray="5,2" d="M328.39,-1604.44C320.24,-1622.62 307.56,-1650.9 298.22,-1671.72"/>
<polygon fill="red" stroke="red" points="294.96,-1670.42 294.07,-1680.98 301.35,-1673.29 294.96,-1670.42"/>
<text text-anchor="middle" x="276.23" y="-1645.7" font-family="Arial" font-size="10.00">subPropertyOf</text>
</g>
<!-- wasComputedBy&#45;&gt;Computation -->
<g id="edge38" class="edge">
<title>wasComputedBy&#45;&gt;Computation</title>
<path fill="none" stroke="green" d="M734.68,-1358.73C729.45,-1362.04 723.89,-1365.55 718.41,-1369"/>
<polygon fill="green" stroke="green" points="716.52,-1366.06 709.93,-1374.36 720.25,-1371.98 716.52,-1366.06"/>
<text text-anchor="middle" x="736.02" y="-1369.73" font-family="Arial" font-size="10.00">range</text>
</g>
<!-- wasAttributedTo&#45;&gt;Participant -->
<g id="edge40" class="edge">
<title>wasAttributedTo&#45;&gt;Participant</title>
<path fill="none" stroke="green" d="M592.02,-988.86C589.08,-969.01 584.32,-936.98 580.89,-913.85"/>
<polygon fill="green" stroke="green" points="584.35,-913.31 579.42,-903.93 577.43,-914.34 584.35,-913.31"/>
<text text-anchor="middle" x="571.71" y="-949.29" font-family="Arial" font-size="10.00">range</text>
</g>
<!-- wasAttributedTo&#45;&gt;wasAttributedTo -->
<g id="edge51" class="edge">
<title>wasAttributedTo&#45;&gt;wasAttributedTo</title>
<path fill="none" stroke="red" stroke-dasharray="5,2" d="M628.63,-1023.62C681.94,-1041.74 749.91,-1036.22 749.91,-1007.04 749.91,-979.62 689.92,-973.08 638.46,-987.42"/>
<polygon fill="red" stroke="red" points="637.16,-984.16 628.63,-990.45 639.22,-990.85 637.16,-984.16"/>
<text text-anchor="middle" x="784.91" y="-1004.54" font-family="Arial" font-size="10.00">subPropertyOf</text>
</g>
<!-- occursDuring&#45;&gt;ObservationContext -->
<g id="edge42" class="edge">
<title>occursDuring&#45;&gt;ObservationContext</title>
<path fill="none" stroke="green" d="M811.04,-1010.29C820.18,-1007.98 829.89,-1005.54 839.62,-1003.08"/>
<polygon fill="green" stroke="green" points="840.5,-1006.47 849.34,-1000.64 838.79,-999.69 840.5,-1006.47"/>
<text text-anchor="middle" x="844.07" y="-1008.49" font-family="Arial" font-size="10.00">range</text>
</g>
<!-- narrower -->
<g id="node53" class="node">
<title>narrower</title>
<ellipse fill="lightyellow" stroke="black" cx="1130.7" cy="-978" rx="50.89" ry="18"/>
<text text-anchor="middle" x="1130.7" y="-974.3" font-family="Arial" font-size="14.00">narrower</text>
</g>
<!-- quantityValue&#45;&gt;QuantityValue -->
<g id="edge44" class="edge">
<title>quantityValue&#45;&gt;QuantityValue</title>
<path fill="none" stroke="green" d="M1325.98,-1598.76C1327.11,-1598.65 1328.25,-1598.54 1329.38,-1598.42"/>
<polygon fill="green" stroke="green" points="1329.93,-1601.89 1339.54,-1597.42 1329.24,-1594.92 1329.93,-1601.89"/>
<text text-anchor="middle" x="1343.33" y="-1601.43" font-family="Arial" font-size="10.00">range</text>
</g>
</g>
</svg>
